<svg version="1.1" viewBox="0 0 178.217 260.56" xmlns="http://www.w3.org/2000/svg"><defs><clipPath clipPathUnits="userSpaceOnUse" id="a"><path d="M0 0h1139.75v1774.66H0Z"/></clipPath><clipPath clipPathUnits="userSpaceOnUse" id="b"><path d="M103.98 1774.94V642.859c0-283.64 231.7-513.558 517.54-513.558 285.824 0 517.52 229.918 517.52 513.558l-.57-.57.55 1132.651z"/></clipPath><clipPath clipPathUnits="userSpaceOnUse" id="c"><path d="M263.773 887.047c0-199.969 162.102-362.059 362.082-362.059 199.942 0 362.055 162.09 362.055 362.059 0 199.953-162.113 362.083-362.055 362.083-199.98 0-362.082-162.13-362.082-362.083"/></clipPath><clipPath clipPathUnits="userSpaceOnUse" id="d"><path d="M103.98 1774.52V642.73c0-283.57 231.7-513.429 517.54-513.429 285.824 0 517.52 229.859 517.52 513.429l-.57-.57.55 1132.36z"/></clipPath><clipPath clipPathUnits="userSpaceOnUse" id="e"><path d="M621.52 1775.77V129.301c166.753 0 315.089 78.301 409.74 199.89V1775.77Z"/></clipPath><clipPath clipPathUnits="userSpaceOnUse" id="f"><path d="M103.98 1774.73V642.801c0-283.61 231.7-513.5 517.54-513.5 285.824 0 517.52 229.89 517.52 513.5l-.57-.571.55 1132.5z"/></clipPath><clipPath clipPathUnits="userSpaceOnUse" id="g"><path d="M0 0h1139.75v1774.66H0Z"/></clipPath></defs><g clip-path="url(#a)" transform="matrix(.13433 0 0 -.13433 -.104 238.443)"><path d="M622.219 129.289c285.824 0 517.541 231.711 517.541 517.543 0 285.82-231.717 517.538-517.541 517.538-285.828 0-517.539-231.718-517.539-517.538 0-285.832 231.711-517.543 517.539-517.543" style="fill:#bedb4e;fill-opacity:1;fill-rule:nonzero;stroke:none"/></g><g clip-path="url(#b)" transform="matrix(.13433 0 0 -.13433 -.104 238.443)"><path d="M473.883 225.109c0-35.82 29.039-64.871 64.851-64.871h169.657c35.816 0 64.855 29.051 64.855 64.871v481.879c0 35.813-29.039 64.852-64.855 64.852H538.734c-35.812 0-64.851-29.039-64.851-64.852V225.109M376.422 1263.32l71.031-123.03 41.012 23.67-71.031 123.03-41.012-23.67M866.246 1263.32l-71.031-123.03-41.012 23.67 71.031 123.03 41.012-23.67" style="fill:#0a9ea0;fill-opacity:1;fill-rule:nonzero;stroke:none"/><path d="M625.84 524.98c199.953 0 362.066 162.098 362.066 362.071 0 199.949-162.113 362.059-362.066 362.059-199.957 0-362.07-162.11-362.07-362.059 0-199.973 162.113-362.071 362.07-362.071" style="fill:#67c1be;fill-opacity:1;fill-rule:nonzero;stroke:none"/></g><g clip-path="url(#c)" transform="matrix(.13433 0 0 -.13433 -.104 238.443)"><path d="M620.898 489.629h464.072v784.191H620.898V489.629" style="fill:#0a9ea0;fill-opacity:1;fill-rule:nonzero;stroke:none"/></g><g clip-path="url(#d)" transform="matrix(.13433 0 0 -.13433 -.104 238.443)"><path d="M609.223 1040.02c12.293 0 22.25 9.98 22.25 22.25 0 12.3-9.957 22.27-22.25 22.27s-22.25-9.97-22.25-22.27c0-12.27 9.957-22.25 22.25-22.25M481.797 1040.02c12.293 0 22.25 9.98 22.25 22.25 0 12.3-9.957 22.27-22.25 22.27-12.289 0-22.25-9.97-22.25-22.27 0-12.27 9.961-22.25 22.25-22.25M545.512 1040.02c12.289 0 22.25 9.98 22.25 22.25 0 12.3-9.961 22.27-22.25 22.27-12.293 0-22.25-9.97-22.25-22.27 0-12.27 9.957-22.25 22.25-22.25M672.938 1040.02c12.292 0 22.25 9.98 22.25 22.25 0 12.3-9.958 22.27-22.25 22.27-12.293 0-22.25-9.97-22.25-22.27 0-12.27 9.957-22.25 22.25-22.25M736.648 1040.02c12.293 0 22.25 9.98 22.25 22.25 0 12.3-9.957 22.27-22.25 22.27-12.289 0-22.25-9.97-22.25-22.27 0-12.27 9.961-22.25 22.25-22.25" style="fill:#171717;fill-opacity:1;fill-rule:nonzero;stroke:none"/><path d="M933.352 553.172c-21.403 0-42.512 5.598-61.528 16.598-28.558 16.48-48.98 43.089-57.519 74.941-8.528 31.848-4.153 65.109 12.332 93.668 16.496 28.562 43.105 48.98 74.957 57.519 31.863 8.512 65.117 4.149 93.664-12.332 58.942-34.054 79.202-109.695 45.172-168.636-16.48-28.551-43.09-48.969-74.938-57.489a123.57 123.57 0 0 0-32.14-4.269m.328 207.258c-7.266 0-14.582-.961-21.797-2.879-21.613-5.813-39.672-19.653-50.852-39.02-11.191-19.383-14.16-41.941-8.379-63.543 5.809-21.597 19.649-39.656 39.024-50.828v-.012c19.371-11.179 41.926-14.148 63.539-8.367 21.601 5.778 39.644 19.641 50.825 39.008 23.1 39.992 9.35 91.301-30.63 114.383-12.902 7.449-27.222 11.258-41.73 11.258" style="fill:#0a9ea0;fill-opacity:1;fill-rule:nonzero;stroke:none"/><path d="M307.953 553.172c-21.398 0-42.508 5.598-61.523 16.598-28.547 16.48-48.981 43.089-57.508 74.941-8.527 31.848-4.149 65.109 12.332 93.668 16.48 28.562 43.094 48.98 74.957 57.519 31.824 8.512 65.105 4.149 93.652-12.332 28.563-16.496 48.996-43.105 57.52-74.957 8.527-31.847 4.152-65.121-12.332-93.679-16.492-28.551-43.106-48.969-74.953-57.489a123.585 123.585 0 0 0-32.145-4.269m.332 207.258a84.649 84.649 0 0 1-21.797-2.879c-21.613-5.813-39.66-19.653-50.84-39.02-11.191-19.383-14.16-41.941-8.378-63.543 5.793-21.597 19.636-39.656 39.007-50.828v-.012c19.375-11.179 41.942-14.117 63.543-8.367 21.598 5.778 39.66 19.641 50.836 39.008 11.192 19.359 14.16 41.93 8.379 63.531-5.793 21.61-19.648 39.668-39.019 50.852-12.903 7.449-27.223 11.258-41.731 11.258M890.254 1352.25c-26.652 15.4-59.602 9.82-79.93-11.53l-96.465 65.06c3.145 9.42 4.813 19.28 4.879 29.24.465 45.76-31.41 85-75.379 94.54v117.07c15.274 4.66 28.918 14.84 37.539 29.77 18.043 31.24 7.332 71.21-23.933 89.25-31.254 18.05-71.219 7.33-89.266-23.91-18.031-31.26-7.332-71.23 23.918-89.28a66.051 66.051 0 0 1 17.981-7.07v-114.65c-20.285-2.77-39.196-11.99-53.793-26.44-26.016-25.51-34.832-63.34-23.762-97.56l-83.391-56.25-16.668-9.4c-20.351 21.03-53.062 26.46-79.57 11.16-31.254-18.04-41.965-58.01-23.918-89.26 18.043-31.25 58.012-41.97 89.262-23.92 25.367 14.64 37.195 43.72 31.121 70.86l98.902 66.72c17.903-22.78 45.153-36.36 74.242-36.6 29.422-.23 57.231 13.09 75.594 35.99l96.465-65.06c-6.633-27.44 5.133-57.07 30.828-71.91 31.254-18.05 71.219-7.33 89.266 23.92 18.043 31.25 7.332 71.22-23.922 89.26M423.398 488.801c-50.835 0-92.539-50.781-96.582-115.379-.425-6.852-.918-13.711-2.097-20.473L221.082-238.988c-4.109-23.43-3.516-47.711 3.859-70.313 14.704-45.109 49.141-76.777 89.278-76.777h620.152c40.137 0 74.569 31.648 89.279 76.758 7.37 22.621 7.97 46.929 3.84 70.371L923.594 352.949c-1.184 6.762-1.672 13.621-2.11 20.473-4.031 64.598-45.734 115.379-96.57 115.379H423.398" style="fill:#67c1be;fill-opacity:1;fill-rule:nonzero;stroke:none"/></g><g clip-path="url(#e)" transform="matrix(.13433 0 0 -.13433 -.104 238.443)"><path d="M423.398 488.801c-53.515 0-96.902-56.27-96.902-125.692L217.328-260.398c0-69.403 43.375-125.68 96.891-125.68h620.152c53.516 0 96.889 56.277 96.889 125.68L924.586 363.109c-.848 79.063-46.156 125.692-99.672 125.692H423.398" style="fill:#0a9ea0;fill-opacity:1;fill-rule:nonzero;stroke:none"/></g><g clip-path="url(#f)" transform="matrix(.13433 0 0 -.13433 -.104 238.443)"><path d="M806.719 458.238a59.522 59.522 0 0 1-.821-1.906c-.253-.582-.464-1.191-.718-1.793-.383-.98-.754-1.957-1.114-2.961-.093-.269-.171-.508-.265-.777a96.651 96.651 0 0 1-5.305-31.653 96.63 96.63 0 0 1 5.305-31.66c.094-.277.172-.519.265-.769.36-1 .731-2 1.114-2.989.254-.589.465-1.179.718-1.769.262-.652.528-1.281.821-1.93.398-.91.797-1.832 1.246-2.742.133-.277.293-.57.426-.859a96.004 96.004 0 0 1 18.589-26.059 97.67 97.67 0 0 1 26.028-18.59c.316-.133.597-.281.89-.422.915-.41 1.829-.839 2.743-1.25.625-.257 1.273-.55 1.91-.82.582-.238 1.191-.457 1.789-.719.98-.371 1.965-.75 2.957-1.109.277-.082.519-.172.781-.242a96.767 96.767 0 0 1 31.652-5.328 96.755 96.755 0 0 1 31.665 5.328c.277.07.515.16.769.242.996.359 2.004.738 2.984 1.109.594.262 1.18.481 1.778.719.648.27 1.269.563 1.922.82.914.411 1.828.84 2.73 1.25.293.141.582.289.875.422 9.402 4.617 18.258 10.801 26.055 18.59a96.485 96.485 0 0 1 18.562 26.059c.16.289.293.582.442.859.422.91.847 1.832 1.258 2.742.265.649.554 1.278.824 1.93.234.59.461 1.18.687 1.769.399.989.782 1.989 1.141 2.989.078.25.144.492.238.769a96.645 96.645 0 0 1 0 63.313c-.094.269-.16.508-.238.777a73.047 73.047 0 0 1-1.141 2.961c-.226.602-.453 1.211-.687 1.793-.27.637-.559 1.258-.824 1.906-.411.91-.836 1.832-1.258 2.742-.149.301-.282.571-.442.891a96.632 96.632 0 0 1-18.562 26.027 96.333 96.333 0 0 1-26.082 18.59c-.266.133-.555.293-.848.434-.902.43-1.844.84-2.785 1.269-.598.258-1.219.528-1.844.789a34.9 34.9 0 0 1-1.855.719 63.45 63.45 0 0 1-2.918 1.11c-.266.101-.528.179-.821.269a96.442 96.442 0 0 1-31.625 5.301 96.522 96.522 0 0 1-31.625-5.301c-.265-.09-.531-.168-.808-.269a74.197 74.197 0 0 1-2.93-1.11 30.79 30.79 0 0 1-1.828-.719c-.625-.261-1.246-.531-1.871-.789-.941-.429-1.855-.839-2.785-1.269-.289-.141-.559-.301-.848-.434-9.414-4.59-18.258-10.758-26.055-18.59a96.148 96.148 0 0 1-18.589-26.027c-.133-.32-.293-.59-.426-.891-.449-.91-.848-1.832-1.246-2.742" style="fill:#0a9ea0;fill-opacity:1;fill-rule:nonzero;stroke:none"/><path d="M258.285 458.238a70.392 70.392 0 0 1-.824-1.906c-.25-.582-.465-1.191-.715-1.793a86.87 86.87 0 0 1-1.113-2.961c-.094-.269-.172-.508-.266-.777a96.677 96.677 0 0 1-5.304-31.653 96.656 96.656 0 0 1 5.304-31.66c.094-.277.172-.519.266-.769.355-1 .726-2 1.113-2.989.25-.589.465-1.179.715-1.769.266-.652.531-1.281.824-1.93.395-.91.793-1.832 1.246-2.742.133-.277.289-.57.422-.859a96.18 96.18 0 0 1 18.59-26.059 97.7 97.7 0 0 1 26.031-18.59c.317-.133.598-.281.887-.422.914-.41 1.828-.839 2.746-1.25.621-.257 1.273-.55 1.922-.82.57-.238 1.18-.457 1.777-.719.981-.371 1.961-.75 2.969-1.109.266-.082.504-.172.77-.242a96.731 96.731 0 0 1 31.652-5.328 96.767 96.767 0 0 1 31.664 5.328c.277.07.516.16.769.242.993.359 2 .738 2.981 1.109.598.262 1.18.481 1.777.719.653.27 1.274.563 1.922.82.918.411 1.832.84 2.735 1.25.289.141.582.289.875.422 9.398 4.617 18.257 10.801 26.054 18.59a96.49 96.49 0 0 1 18.563 26.059c.16.289.293.582.453.859.422.91.832 1.832 1.246 2.742.262.649.555 1.278.82 1.93.239.59.465 1.18.692 1.769.394.989.781 1.989 1.136 2.989.082.25.149.492.243.769a96.69 96.69 0 0 1 0 63.313c-.094.269-.161.508-.243.777a74.497 74.497 0 0 1-1.136 2.961c-.227.602-.453 1.211-.692 1.793-.265.637-.558 1.258-.82 1.906-.414.91-.824 1.832-1.246 2.742-.16.301-.293.571-.453.891a96.636 96.636 0 0 1-18.563 26.027 96.441 96.441 0 0 1-26.082 18.59c-.265.133-.558.293-.847.434-.903.43-1.844.84-2.786 1.269-.597.258-1.218.528-1.843.789-.625.258-1.235.5-1.856.719a66.69 66.69 0 0 1-2.918 1.11c-.265.101-.531.179-.82.269a96.469 96.469 0 0 1-31.625 5.301 96.518 96.518 0 0 1-31.625-5.301c-.266-.09-.531-.168-.797-.269a65.732 65.732 0 0 1-2.941-1.11 30.375 30.375 0 0 1-1.832-.719c-.622-.261-1.247-.531-1.868-.789-.945-.429-1.859-.839-2.785-1.269-.293-.141-.558-.301-.847-.434-9.418-4.59-18.262-10.758-26.059-18.59a96.326 96.326 0 0 1-18.59-26.027c-.133-.32-.289-.59-.422-.891-.453-.91-.851-1.832-1.246-2.742" style="fill:#67c1be;fill-opacity:1;fill-rule:nonzero;stroke:none"/><path d="M869.836 785.621a267.555 267.555 0 0 1 19.277 99.844c0 29.316-4.773 57.519-13.472 83.933H366.074a267.842 267.842 0 0 1-13.472-83.933c0-35.297 6.882-68.977 19.277-99.844h497.957" style="fill:#171717;fill-opacity:1;fill-rule:nonzero;stroke:none"/><path d="M456.668 813.801c34.578 0 62.598 28.031 62.598 62.597 0 34.582-28.02 62.602-62.598 62.602-34.582 0-62.602-28.02-62.602-62.602 0-34.566 28.02-62.597 62.602-62.597" style="fill:#bedb4e;fill-opacity:1;fill-rule:nonzero;stroke:none"/><path d="M480.512 862.504c14.586 0 26.398 11.828 26.398 26.398 0 14.586-11.812 26.403-26.398 26.403s-26.403-11.817-26.403-26.403c0-14.57 11.817-26.398 26.403-26.398" style="fill:#171717;fill-opacity:1;fill-rule:nonzero;stroke:none"/><path d="M785.043 813.801c34.582 0 62.598 28.031 62.598 62.597 0 34.582-28.016 62.602-62.598 62.602s-62.602-28.02-62.602-62.602c0-34.566 28.02-62.597 62.602-62.597" style="fill:#bedb4e;fill-opacity:1;fill-rule:nonzero;stroke:none"/><path d="M808.887 862.504c14.586 0 26.398 11.828 26.398 26.398 0 14.586-11.812 26.403-26.398 26.403s-26.403-11.817-26.403-26.403c0-14.57 11.817-26.398 26.403-26.398M759.207 698.199c3.898 7.223 6.313 15.36 6.313 24.16H663.008c0-8.8 2.414-16.937 6.312-24.16h89.887M514.82 924.758H391.027v34.726H514.82v-34.726M506.773 802.762l-122.531 17.609 4.946 34.383 122.531-17.609-4.946-34.383M848.43 854.754l-122.535-17.609 4.949-34.383 122.531 17.605-4.945 34.387" style="fill:#171717;fill-opacity:1;fill-rule:nonzero;stroke:none"/><path d="M478.242 186.012 590.496 298.27c17.649 17.64 46.258 17.64 63.902 0l112.258-112.258c28.465-28.473 8.305-77.141-31.953-77.141H510.191c-40.253 0-60.414 48.668-31.949 77.141" style="fill:#67c1be;fill-opacity:1;fill-rule:nonzero;stroke:none"/><path d="M622.453 296.48c-7.734 0-15.465-2.941-21.348-8.82L488.848 175.398c-8.93-8.929-11.375-21.218-6.543-32.886 4.832-11.672 15.254-18.633 27.886-18.633h224.512c12.633 0 23.059 6.973 27.891 18.641 4.836 11.66 2.383 23.949-6.543 32.878L643.797 287.66c-5.887 5.879-13.617 8.82-21.344 8.82zm112.25-202.601H510.191c-24.804 0-46.113 14.23-55.605 37.152-9.488 22.91-4.488 48.047 13.051 65.578l112.258 112.27c23.46 23.453 61.64 23.453 85.113 0l112.254-112.27c17.539-17.531 22.539-42.66 13.047-65.578-9.493-22.922-30.801-37.152-55.606-37.152" style="fill:#0a9ea0;fill-opacity:1;fill-rule:nonzero;stroke:none"/></g><g clip-path="url(#g)" transform="matrix(.13433 0 0 -.13433 -.104 238.443)"><path d="M1074.07 118.672a14.92 14.92 0 0 0-10.88 4.68l-185.944 196.5c-5.683 6.007-5.418 15.488.586 21.168 5.988 5.671 15.481 5.441 21.172-.579l130.106-137.5-97.489 193.258c-3.73 7.383-.762 16.403 6.621 20.121 7.403 3.739 16.387.75 20.117-6.621L1093.28 142.23c3.73-7.378.76-16.39-6.62-20.109a15.155 15.155 0 0 0-5.25-1.539 14.963 14.963 0 0 0-7.34-1.91" style="fill:#0a9ea0;fill-opacity:1;fill-rule:nonzero;stroke:none"/><path d="M1115.17 147.309c-.1.312-.2.589-.31.882-.09.258-.2.528-.29.809-.17.441-.33.871-.52 1.309-.05.113-.09.23-.14.332a42.76 42.76 0 0 1-7.71 12.039 42.843 42.843 0 0 1-11.2 8.89c-.11.059-.21.121-.32.168-.41.223-.84.442-1.26.653-.26.129-.5.25-.77.371-.28.148-.56.258-.85.398-.39.168-.81.36-1.22.531-.13.047-.28.098-.41.161-4.32 1.75-9 2.808-13.92 3.046-4.91.25-9.67-.347-14.15-1.628-.14-.04-.28-.079-.42-.122-.43-.136-.85-.269-1.28-.41-.29-.097-.58-.199-.88-.297-.26-.089-.53-.203-.8-.3-.44-.172-.88-.332-1.31-.52-.12-.051-.23-.09-.33-.141a42.923 42.923 0 0 1-12.04-7.71 42.928 42.928 0 0 1-8.89-11.219c-.06-.09-.12-.192-.17-.301-.23-.41-.44-.84-.65-1.262-.13-.25-.25-.5-.38-.769-.14-.278-.26-.559-.39-.828-.18-.422-.36-.832-.53-1.243a43.15 43.15 0 0 1-3.22-14.328c-.24-4.91.36-9.672 1.66-14.148.02-.152.06-.281.1-.422.13-.43.27-.852.41-1.281.11-.289.19-.578.29-.867.11-.282.2-.532.31-.801.16-.449.33-.891.52-1.321.04-.109.09-.218.14-.339a43.543 43.543 0 0 1 7.71-12.051c3.3-3.66 7.1-6.61 11.2-8.871.12-.047.21-.117.32-.168.41-.23.83-.442 1.26-.653.25-.129.5-.27.77-.386.28-.133.55-.25.83-.383.41-.168.83-.36 1.24-.527.14-.051.26-.114.41-.16 4.33-1.743 9-2.813 13.91-3.063 4.92-.238 9.68.36 14.17 1.652.12.028.27.07.4.11.44.128.87.28 1.3.41.28.09.57.199.86.289.28.11.54.2.82.32.43.16.86.328 1.3.512.11.047.23.09.35.148a42.64 42.64 0 0 1 12.04 7.7c3.64 3.3 6.6 7.101 8.85 11.191.07.117.14.219.19.328.23.422.44.832.64 1.242.13.258.26.52.39.789.12.282.26.551.38.821.18.418.37.828.54 1.257.05.133.1.262.16.383 1.74 4.34 2.81 9.02 3.05 13.93.26 4.918-.33 9.68-1.63 14.16-.06.141-.08.277-.12.418-.14.43-.27.852-.41 1.27M817.051 502.32c-9.863-8.922-25.086-8.148-34.008 1.711l-82.305 91.059c-8.922 9.859-8.152 25.101 1.711 34.012 9.864 8.918 25.086 8.148 34.012-1.711l82.301-91.059c8.926-9.863 8.156-25.082-1.711-34.012M770.512 460.25c-9.864-8.918-25.086-8.148-34.012 1.711l-14.453 16.008c-8.922 9.859-8.152 25.09 1.711 34.011 9.867 8.911 25.09 8.141 34.012-1.718l14.453-15.992c8.922-9.872 8.156-25.09-1.711-34.02M723.977 418.18c-9.868-8.918-25.09-8.149-34.012 1.711l-14.453 16.007c-8.926 9.864-8.157 25.09 1.711 34.012 9.863 8.91 25.086 8.141 34.007-1.719l14.454-16c8.925-9.859 8.156-25.082-1.707-34.011M904.191 440.199c-.015.02-.027.031-.054.063l-57.879 64.008-127.981-115.688 57.852-64.004c.027-.027.039-.047.066-.078 31.942-35.34 86.504-38.09 121.856-6.141 35.336 31.942 38.082 86.512 6.14 121.84" style="fill:#67c1be;fill-opacity:1;fill-rule:nonzero;stroke:none"/><path d="M156.828 406.441c0 43.789 13.789 64.079 43.797 64.079 24.344 0 35.695-10.551 35.695-34.079 0-62.453-89.226-75.421-89.226-196.281h135.461c0 85.168 121.66 108.692 121.66 226.301 0 93.277-68.938 147.621-186.551 147.621-126.539 0-200.34-77.062-200.34-207.641h139.504" style="fill:#fff;fill-opacity:1;fill-rule:nonzero;stroke:none"/><path d="M156.828 406.441c0 43.789 13.789 64.079 43.797 64.079 24.344 0 35.695-10.551 35.695-34.079 0-62.453-89.226-75.421-89.226-196.281h135.461c0 85.168 121.66 108.692 121.66 226.301 0 93.277-68.938 147.621-186.551 147.621-126.539 0-200.34-77.062-200.34-207.641z" style="fill:none;stroke:#171717;stroke-width:26.12;stroke-linecap:round;stroke-linejoin:round;stroke-miterlimit:4;stroke-dasharray:none;stroke-opacity:1"/><path d="M303.836 98.48c0-44.832-36.328-81.16-81.16-81.16-44.832 0-81.164 36.328-81.164 81.16 0 44.829 36.332 81.161 81.164 81.161s81.16-36.332 81.16-81.16" style="fill:#fff;fill-opacity:1;fill-rule:nonzero;stroke:none"/><path d="M303.836 98.48c0-44.832-36.328-81.16-81.16-81.16-44.832 0-81.164 36.328-81.164 81.16 0 44.829 36.332 81.161 81.164 81.161s81.16-36.332 81.16-81.16z" style="fill:none;stroke:#171717;stroke-width:26.12;stroke-linecap:round;stroke-linejoin:round;stroke-miterlimit:4;stroke-dasharray:none;stroke-opacity:1"/></g></svg>