<svg version="1.1" viewBox="0 0 112.594 179.476" xmlns="http://www.w3.org/2000/svg"><defs id="defs3584"><clipPath id="clippath"><path class="cls-10" d="M106.74 96.57 106.8 0H2.53v96.51c0 28.79 23.34 52.14 52.14 52.14s52.14-23.34 52.14-52.14l-.06.06z" id="path3573"/></clipPath><clipPath id="clippath-1"><path class="cls-10" d="M27.41 39.73h53.25c4.59 0 8.32 3.73 8.32 8.32v47.3c0 4.59-3.73 8.32-8.32 8.32H27.41c-4.59 0-8.32-3.73-8.32-8.32V48.04c0-4.59 3.73-8.32 8.32-8.32z" id="path3576"/></clipPath><clipPath id="clippath-2"><path class="cls-10" d="M54.38 105.96h45.05v75.68H54.38Z" id="path3579"/></clipPath><style id="style3582">.cls-1{fill:#fff}.cls-3{fill:#67c1be}.cls-5{fill:#0a9ea0}.cls-7{fill:#e2b847}.cls-10{fill:none}.cls-12{fill:#1d1d1b}</style></defs><path d="M54.66 148.36c28.79 0 52.14-23.34 52.14-52.14S83.46 44.08 54.66 44.08 2.53 67.43 2.53 96.22s23.34 52.14 52.14 52.14" style="fill:#784176" id="path3586"/><g clip-path="url(#clippath)" id="g3632" transform="translate(0 -.34)"><path style="fill:none;stroke:#0a9ea0;stroke-width:4px;stroke-linecap:round" d="m10.45 153.71 6.48-30.65" id="path3588"/><path class="cls-3" d="M61.88 8.14c0-4.3-3.5-7.8-7.8-7.8s-7.8 3.5-7.8 7.8c0 3.72 2.61 6.83 6.1 7.61v24.83h3.4V15.75c3.48-.78 6.1-3.89 6.1-7.61zm-7.8 4.4a4.4 4.4 0 1 1 0-8.8 4.4 4.4 0 0 1 0 8.8zM39.59 18.2c0-4.3-3.5-7.8-7.8-7.8s-7.8 3.5-7.8 7.8 3.5 7.8 7.8 7.8c1.51 0 2.92-.44 4.12-1.19l8.32 9.1v13.77h3.4V32.59l-9.29-10.16a7.744 7.744 0 0 0 1.25-4.22zm-12.2 0a4.4 4.4 0 1 1 8.8 0 4.4 4.4 0 0 1-8.8 0z" id="path3590"/><path class="cls-5" d="M76.57 10.4c-4.3 0-7.8 3.5-7.8 7.8 0 1.56.46 3.01 1.25 4.22l-9.29 10.16v15.09h3.4V33.9l8.32-9.1a7.75 7.75 0 0 0 4.12 1.19c4.3 0 7.8-3.5 7.8-7.8s-3.5-7.8-7.8-7.8zm0 12.2a4.4 4.4 0 1 1 0-8.8 4.4 4.4 0 0 1 0 8.8zm-36.5 64.48v48.54c0 3.61 2.92 6.53 6.53 6.53h17.09c3.61 0 6.53-2.93 6.53-6.53V87.08m-50.4-30.51h69.42c3.67 0 6.65 2.98 6.65 6.65v6.66c0 3.67-2.98 6.66-6.66 6.66H19.82c-3.67 0-6.66-2.98-6.66-6.66v-6.65c0-3.67 2.98-6.66 6.66-6.66z" id="path3592"/><path class="cls-3" d="M27.41 39.73h53.25c4.59 0 8.32 3.73 8.32 8.32v47.3c0 4.59-3.73 8.32-8.32 8.32H27.41c-4.59 0-8.32-3.73-8.32-8.32v-47.3c0-4.59 3.73-8.32 8.32-8.32z" id="path3594"/><path class="cls-5" d="M54.03 36.4h50.96v86.11H54.03Z" clip-path="url(#clippath-1)" id="path3596"/><rect class="cls-12" x="24.67" y="54.98" width="58.1" height="22.05" rx="4.16" ry="4.16" id="rect3598"/><path class="cls-5" d="M77.2 113.22c-.03.07-.06.13-.08.19-.02.06-.05.12-.07.18-.04.1-.08.2-.11.3 0 .03-.02.05-.03.08-.35 1-.53 2.07-.53 3.19s.19 2.19.53 3.19c0 .03.02.05.03.08.04.1.07.2.11.3.02.06.05.12.07.18.03.07.05.13.08.19.04.09.08.18.13.28.01.03.03.06.04.09.46.95 1.08 1.84 1.87 2.62.79.79 1.67 1.41 2.62 1.87.03.01.06.03.09.04.09.04.18.09.28.13.06.03.13.06.19.08.06.02.12.05.18.07.1.04.2.08.3.11.03 0 .05.02.08.02 1 .35 2.07.54 3.19.54s2.19-.19 3.19-.54c.03 0 .05-.02.08-.02.1-.04.2-.07.3-.11.06-.02.12-.05.18-.07.07-.03.13-.06.19-.08.09-.04.18-.08.28-.13.03-.01.06-.03.09-.04a9.68 9.68 0 0 0 2.62-1.87c.79-.79 1.41-1.67 1.87-2.62.02-.03.03-.06.04-.09.04-.09.09-.18.13-.28.03-.07.06-.13.08-.19.02-.06.05-.12.07-.18.04-.1.08-.2.11-.3 0-.02.02-.05.02-.08.35-1 .54-2.07.54-3.19s-.19-2.19-.54-3.19c0-.03-.02-.05-.02-.08-.04-.1-.07-.2-.11-.3-.02-.06-.04-.12-.07-.18-.03-.07-.06-.13-.08-.19-.04-.09-.08-.18-.13-.28-.02-.03-.03-.06-.04-.09a9.469 9.469 0 0 0-1.87-2.62 9.664 9.664 0 0 0-2.63-1.87c-.03-.01-.06-.03-.09-.04-.09-.04-.19-.09-.28-.13-.06-.03-.12-.05-.19-.08-.06-.02-.12-.05-.19-.07-.1-.04-.2-.08-.29-.11-.03 0-.05-.02-.08-.03-1-.35-2.07-.53-3.19-.53s-2.19.19-3.19.53l-.08.03c-.1.04-.2.07-.3.11-.06.02-.12.05-.18.07l-.19.08c-.09.04-.19.08-.28.13-.03.01-.06.03-.09.04-.95.46-1.84 1.08-2.62 1.87-.79.79-1.41 1.67-1.87 2.62-.01.03-.03.06-.04.09-.04.09-.09.18-.13.28" id="path3600"/><path d="M14.02 113.22c-.03.07-.06.13-.08.19-.02.06-.05.12-.07.18-.04.1-.08.2-.11.3 0 .03-.02.05-.03.08-.35 1-.53 2.07-.53 3.19s.19 2.19.53 3.19c0 .03.02.05.03.08.04.1.07.2.11.3.02.06.05.12.07.18.03.07.05.13.08.19.04.09.08.18.13.28.01.03.03.06.04.09.46.95 1.08 1.84 1.87 2.62.79.79 1.67 1.41 2.62 1.87.03.01.06.03.09.04.09.04.18.09.28.13.06.03.13.06.19.08.06.02.12.05.18.07.1.04.2.08.3.11.03 0 .05.02.08.02 1 .35 2.07.54 3.19.54s2.19-.19 3.19-.54c.03 0 .05-.02.08-.02.1-.04.2-.07.3-.11.06-.02.12-.05.18-.07.07-.03.13-.06.19-.08.09-.04.18-.08.28-.13.03-.01.06-.03.09-.04a9.68 9.68 0 0 0 2.62-1.87c.79-.79 1.41-1.67 1.87-2.62.02-.03.03-.06.04-.09.04-.09.09-.18.13-.28.03-.07.06-.13.08-.19.02-.06.05-.12.07-.18.04-.1.08-.2.11-.3 0-.02.02-.05.02-.08.35-1 .54-2.07.54-3.19s-.19-2.19-.54-3.19c0-.03-.02-.05-.02-.08-.04-.1-.07-.2-.11-.3-.02-.06-.04-.12-.07-.18-.03-.07-.06-.13-.08-.19-.04-.09-.08-.18-.13-.28-.02-.03-.03-.06-.04-.09a9.469 9.469 0 0 0-1.87-2.62 9.664 9.664 0 0 0-2.63-1.87c-.03-.01-.06-.03-.09-.04-.09-.04-.19-.09-.28-.13-.06-.03-.12-.05-.19-.08-.06-.02-.12-.05-.19-.07-.1-.04-.2-.08-.29-.11-.03 0-.05-.02-.08-.03-1-.35-2.07-.53-3.19-.53s-2.19.19-3.19.53l-.08.03c-.1.04-.2.07-.3.11-.06.02-.12.05-.18.07l-.19.08c-.09.04-.19.08-.28.13-.03.01-.06.03-.09.04-.95.46-1.84 1.08-2.62 1.87-.79.79-1.41 1.67-1.87 2.62-.01.03-.03.06-.04.09-.04.09-.09.18-.13.28" style="fill:#32b4b5" id="path3602"/><rect class="cls-3" x="19.44" y="110.49" width="69.53" height="66.23" rx="7.88" ry="7.88" id="rect3604"/><rect class="cls-5" x="19.61" y="110.49" width="69.53" height="66.23" rx="7.88" ry="7.88" clip-path="url(#clippath-2)" id="rect3606"/><path class="cls-5" d="M54.08 135.24c3.67 0 6.64-2.97 6.64-6.64 0-3.67-2.97-6.64-6.64-6.64-3.67 0-6.64 2.97-6.64 6.64 0 3.67 2.97 6.64 6.64 6.64" id="path3608"/><path class="cls-3" d="M54.08 136.63c-4.43 0-8.04-3.61-8.04-8.04s3.61-8.04 8.04-8.04 8.04 3.61 8.04 8.04-3.61 8.04-8.04 8.04zm0-13.29c-2.9 0-5.25 2.36-5.25 5.25s2.36 5.25 5.25 5.25 5.25-2.36 5.25-5.25-2.36-5.25-5.25-5.25z" id="path3610"/><circle class="cls-1" cx="47.17" cy="49.1" r="2.4" id="circle3612"/><circle class="cls-1" cx="54.08" cy="49.1" r="2.4" id="circle3614"/><circle class="cls-1" cx="60.9" cy="49.1" r="2.4" id="circle3616"/><path class="cls-12" d="M28.8 81.09c2.81 4.49 7.2 8.02 12.69 9.6 5.49 1.58 11.08.93 15.85-1.39z" id="path3618"/><path class="cls-7" d="M37.53 72.2a6.31 6.31 0 0 0 6.31-6.31c0-3.49-2.82-6.31-6.31-6.31-3.49 0-6.31 2.82-6.31 6.31 0 3.49 2.82 6.31 6.31 6.31" id="path3620"/><path class="cls-12" d="M36.16 71.06c1.47 0 2.66-1.19 2.66-2.66 0-1.47-1.19-2.66-2.66-2.66-1.47 0-2.66 1.19-2.66 2.66 0 1.47 1.19 2.66 2.66 2.66" id="path3622"/><path class="cls-7" d="M70.61 72.2a6.31 6.31 0 0 0 6.31-6.31c0-3.49-2.82-6.31-6.31-6.31-3.49 0-6.31 2.82-6.31 6.31 0 3.49 2.82 6.31 6.31 6.31" id="path3624"/><path class="cls-12" d="M69.24 71.06c1.47 0 2.66-1.19 2.66-2.66 0-1.47-1.19-2.66-2.66-2.66-1.47 0-2.66 1.19-2.66 2.66 0 1.47 1.19 2.66 2.66 2.66" id="path3626"/><path class="cls-12" transform="rotate(4.01 37.419 72.191)" d="M29.33 70.54h16.29v3.33H29.33Z" id="path3628"/><path class="cls-12" transform="rotate(-4.01 71.833 72.155)" d="M63.7 70.54h16.29v3.33H63.7Z" id="path3630"/></g><path class="cls-1" d="m3.19 109.29-1.71 52.1H42.4l-.68-52.25z" id="path3634"/><path d="M34.01 125.32H9.83c-1.04 0-1.85-.81-1.85-1.85s.81-1.85 1.85-1.85H34c1.03 0 1.85.81 1.85 1.85s-.81 1.85-1.85 1.85m.01 9.61H9.83c-1.04 0-1.85-.81-1.85-1.85s.81-1.85 1.85-1.85H34c1.03 0 1.85.81 1.85 1.85s-.81 1.85-1.85 1.85m.01 9.61H9.83c-1.04 0-1.85-.81-1.85-1.85s.81-1.85 1.85-1.85H34c1.03 0 1.85.81 1.85 1.85s-.81 1.85-1.85 1.85" id="path3636"/><path d="M7.02 110.12c-1.85 0-3.33 1.43-3.33 3.22v43.12c0 1.79 1.48 3.22 3.33 3.22h30.46c1.85 0 3.33-1.43 3.33-3.22v-43.12c0-1.79-1.48-3.22-3.33-3.22zm30.53 53.13H7.02c-3.84 0-7.02-3.07-7.02-6.79v-43.12c0-3.72 3.18-6.79 7.02-6.79h30.46c3.84 0 7.02 3.07 7.02 6.79v43.12c.07 3.79-3.1 6.79-6.95 6.79" id="path3638"/><path class="cls-5" d="M108.28 149.11c-.66 0-1.3-.32-1.68-.91l-17.02-26.3c-.6-.93-.33-2.17.59-2.77.93-.6 2.17-.33 2.77.59l17.02 26.3c.6.93.33 2.17-.59 2.77-.34.22-.71.32-1.08.32z" id="path3640"/><path class="cls-5" d="M83.53 162.77c-.71 0-1.39-.37-1.75-1.03-.53-.97-.18-2.18.78-2.72l24.75-13.66c.97-.54 2.18-.18 2.72.78.53.97.18 2.18-.78 2.72L84.5 162.52c-.31.17-.64.25-.96.25z" id="path3642"/><path class="cls-3" d="M107.58 142.81s-.06 0-.09.02c-.03 0-.06.01-.08.02-.05 0-.09.02-.14.03h-.04c-.46.11-.9.3-1.32.57-.42.27-.77.6-1.06.97 0 0-.01.02-.02.03-.03.04-.06.08-.09.11-.02.02-.03.05-.05.07-.02.03-.03.05-.05.08-.02.04-.05.07-.07.11 0 .01-.01.03-.02.04-.24.4-.43.85-.53 1.34-.1.48-.12.97-.07 1.43v.04c0 .04.01.09.02.13 0 .03 0 .06.02.09 0 .03.01.06.02.08 0 .05.02.09.03.14v.04c.11.46.3.9.57 1.32a4.29 4.29 0 0 0 1 1.08c.04.03.08.06.11.09.02.02.05.03.07.05.03.02.05.03.08.05.04.02.08.05.11.07.01 0 .03.01.04.02.4.24.85.42 1.34.53.48.1.97.12 1.43.06h.04c.04 0 .09-.01.13-.02.03 0 .06 0 .09-.02.03 0 .06-.01.08-.02.05 0 .09-.02.14-.03h.03c.46-.11.9-.3 1.32-.57.42-.27.77-.6 1.06-.97 0 0 .02-.02.02-.03.03-.04.06-.08.08-.12.02-.02.03-.05.05-.07.02-.03.03-.05.05-.08.02-.04.05-.08.07-.11 0-.01.01-.03.02-.04.24-.4.42-.85.53-1.33.1-.49.12-.97.06-1.44v-.04c0-.05-.01-.09-.02-.14 0-.03 0-.06-.01-.09 0-.03-.01-.06-.02-.09 0-.05-.02-.09-.03-.14 0-.01 0-.02-.01-.04-.11-.46-.3-.9-.57-1.32-.27-.42-.6-.77-.97-1.06l-.03-.02s-.08-.06-.11-.08c-.02-.02-.05-.03-.07-.05l-.08-.05s-.08-.05-.12-.07c-.01 0-.02-.01-.04-.02-.4-.24-.85-.43-1.34-.53-.48-.1-.97-.12-1.43-.07h-.04c-.05 0-.09.01-.13.02m-22.62 17.29c-2.32-4.2-7.61-5.73-11.81-3.41-4.2 2.32-5.73 7.61-3.41 11.81 2.32 4.2 7.61 5.73 11.81 3.41 4.2-2.32 5.73-7.61 3.41-11.81" id="path3644"/><path class="cls-3" d="m65.491 160.859 7.529-4.157 8.4 15.216-7.53 4.156z" id="path3646"/><rect class="cls-3" x="-177.211" y="-39.455" width="4.85" height="17.22" rx="2.43" ry="2.43" transform="rotate(-118.9)" id="rect3648"/><rect class="cls-3" x="-183.533" y="-29.269" width="4.85" height="7.02" rx="2.43" ry="2.43" transform="rotate(-118.9)" id="rect3650"/><rect class="cls-3" x="-189.848" y="-29.257" width="4.85" height="7.02" rx="2.43" ry="2.43" transform="rotate(-118.9)" id="rect3652"/></svg>