<svg xmlns="http://www.w3.org/2000/svg" viewBox="0 0 136.19 242.29">
  <defs>
    <clipPath id="clippath">
      <path class="cls-8" d="M78.61 105.62h45.05v75.68H78.61z"/>
    </clipPath>
    <clipPath id="clippath-1">
      <path class="cls-8" d="M51.64 39.38h53.25c4.59 0 8.32 3.73 8.32 8.32V95c0 4.59-3.73 8.32-8.32 8.32H51.64c-4.59 0-8.32-3.73-8.32-8.32V47.7c0-4.59 3.73-8.32 8.32-8.32Z"/>
    </clipPath>
    <style>.cls-1{fill:#fff}.cls-3{fill:#67c1be}.cls-4{fill:#0a9ea0}.cls-5{fill:#e2b847}.cls-8,.cls-9{fill:none}.cls-9{stroke:#0a9ea0;stroke-linecap:round;stroke-width:4px}.cls-10{fill:#1d1d1b}</style>
  </defs>
  <ellipse cx="78.61" cy="226.12" rx="55.14" ry="16.16" style="fill:#784176" id="Grund"/>
  <g id="Beine">
    <g id="Bein_R" data-name="Bein R">
      <rect class="cls-4" x="90.91" y="168.07" width="8.17" height="58.05" rx="4.09" ry="4.09"/>
      <path class="cls-4" d="M106.53 226.12c0-6.34-5.14-11.48-11.48-11.48s-11.48 5.14-11.48 11.48h22.95Z"/>
    </g>
    <g id="Bein_L" data-name="Bein L">
      <rect class="cls-4" x="58.07" y="168.07" width="8.17" height="58.05" rx="4.09" ry="4.09"/>
      <path class="cls-4" d="M73.63 226.12c0-6.34-5.14-11.48-11.48-11.48s-11.48 5.14-11.48 11.48h22.95Z"/>
    </g>
  </g>
  <g id="Arm_R" data-name="Arm R">
    <rect id="Zeigefinger" class="cls-3" x="118.69" y="191.83" width="4.85" height="17.22" rx="2.43" ry="2.43" transform="rotate(-180 121.12 200.435)"/>
    <rect id="Mittelfinger" class="cls-3" x="125.01" y="191.83" width="4.85" height="7.02" rx="2.43" ry="2.43" transform="rotate(180 127.44 195.34)"/>
    <rect id="Finger_Klein" data-name="Finger Klein" class="cls-3" x="131.33" y="191.83" width="4.85" height="7.02" rx="2.43" ry="2.43" transform="rotate(-180 133.76 195.34)"/>
    <path id="Oberarm" class="cls-9" d="m127.51 145.49-12.7-28.63"/>
    <path id="Unterarm" class="cls-9" d="M127.44 174.16v-28.27"/>
    <path id="Ellenbogen"
          class="cls-3"
          d="M123.44 144.14s-.02.06-.04.09c-.01.03-.02.05-.03.08-.02.04-.03.09-.05.13 0 .01 0 .02-.01.04-.15.45-.24.92-.24 1.42s.08.97.24 1.42c0 .01 0 .02.01.03.02.05.03.09.05.13.01.03.02.05.03.08.01.03.02.06.04.09l.06.12c0 .01.01.03.02.04.21.42.48.82.83 1.17s.75.63 1.17.83c.01 0 .03.01.04.02l.12.06c.03.01.06.02.09.04.03.01.05.02.08.03.04.02.09.03.13.05.01 0 .02 0 .04.01.44.15.92.24 1.42.24s.97-.08 1.42-.24c.01 0 .02 0 .03-.01.04-.02.09-.03.13-.05.03-.01.05-.02.08-.03.03-.01.06-.02.09-.04l.12-.06c.01 0 .03-.01.04-.02.42-.21.82-.48 1.17-.83s.63-.75.83-1.17c0-.01.01-.03.02-.04l.06-.12c.01-.03.02-.06.04-.09.01-.03.02-.05.03-.08.02-.04.03-.09.05-.13 0-.01 0-.02.01-.03.15-.45.24-.92.24-1.42s-.08-.98-.24-1.42c0-.01 0-.02-.01-.04-.02-.04-.03-.09-.05-.13-.01-.03-.02-.05-.03-.08-.01-.03-.02-.06-.04-.09l-.06-.12c0-.01-.01-.03-.02-.04-.21-.42-.48-.82-.83-1.17s-.75-.63-1.17-.83c-.01 0-.03-.01-.04-.02l-.12-.06c-.03-.01-.06-.02-.08-.04a.689.689 0 0 1-.08-.03c-.04-.02-.09-.03-.13-.05-.01 0-.02 0-.04-.01-.44-.15-.92-.24-1.42-.24s-.97.08-1.42.24h-.04s-.09.04-.13.06c-.03.01-.06.02-.08.03l-.08.04-.12.06c-.01 0-.03.01-.04.02-.42.21-.82.48-1.17.83s-.63.75-.83 1.17c0 .01-.01.03-.02.04l-.06.12"/>
    <path id="Handfläche" class="cls-3" d="M118.8 189.99h17.38V181.29c0-4.8-3.89-8.69-8.69-8.69s-8.61 3.82-8.68 8.56V190Z"/>
  </g>
  <g id="Arm_L" data-name="Arm L">
    <path id="Oberarm-2" data-name="Oberarm" class="cls-9" d="M8.75 116.79h33.96"/>
    <path id="Unterarm-2" data-name="Unterarm" class="cls-9" d="M8.75 87.21v28.66"/>
    <path id="Ellenbogen-2"
          data-name="Ellenbogen"
          class="cls-3"
          d="M12.74 118.54s.02-.06.04-.09c.01-.03.02-.05.03-.08.02-.04.03-.09.05-.13 0-.01 0-.02.01-.04.15-.45.24-.92.24-1.42s-.08-.97-.24-1.42c0-.01 0-.02-.01-.03-.02-.05-.03-.09-.05-.13-.01-.03-.02-.05-.03-.08-.01-.03-.02-.06-.04-.09l-.06-.12c0-.01-.01-.03-.02-.04-.21-.42-.48-.82-.83-1.17s-.75-.63-1.17-.83c-.01 0-.03-.01-.04-.02l-.12-.06c-.03-.01-.06-.02-.09-.04-.03-.01-.05-.02-.08-.03-.04-.02-.09-.03-.13-.05-.01 0-.02 0-.04-.01-.44-.15-.92-.24-1.42-.24s-.97.08-1.42.24c-.01 0-.02 0-.03.01-.04.02-.09.03-.13.05-.03.01-.05.02-.08.03-.03.01-.06.02-.09.04l-.12.06c-.01 0-.03.01-.04.02-.42.21-.82.48-1.17.83s-.63.75-.83 1.17c0 .01-.01.03-.02.04l-.06.12c-.01.03-.02.06-.04.09-.01.03-.02.05-.03.08-.02.04-.03.09-.05.13 0 .01 0 .02-.01.03-.15.45-.24.92-.24 1.42s.08.98.24 1.42c0 .01 0 .02.01.04.02.04.03.09.05.13.01.03.02.05.03.08.01.03.02.06.04.09l.06.12c0 .01.01.03.02.04.21.42.48.82.83 1.17s.75.63 1.17.83c.01 0 .03.01.04.02l.12.06c.03.01.06.02.08.04.03.01.06.02.08.03.04.02.09.03.13.05.01 0 .02 0 .04.01.44.15.92.24 1.42.24s.97-.08 1.42-.24h.04s.09-.04.13-.06c.03-.01.06-.02.08-.03l.08-.04.12-.06c.01 0 .03-.01.04-.02.42-.21.82-.48 1.17-.83s.63-.75.83-1.17c0-.01.01-.03.02-.04l.06-.12"/>
    <path id="Handfläche-2" data-name="Handfläche" class="cls-3" d="M17.44 71.38H.06V80.08c0 4.8 3.89 8.69 8.69 8.69s8.61-3.82 8.68-8.56v-8.84Z"/>
    <rect id="Zeigefinger-2" data-name="Zeigefinger" class="cls-3" x="12.64" y="52.33" width="4.85" height="17.22" rx="2.43" ry="2.43"/>
    <rect id="Mittelfinger-2" data-name="Mittelfinger" class="cls-3" x="6.32" y="62.52" width="4.85" height="7.02" rx="2.43" ry="2.43"/>
    <rect id="Finger_Klein-2" data-name="Finger Klein" class="cls-3" x="0" y="62.52" width="4.85" height="7.02" rx="2.43" ry="2.43"/>
  </g>
  <g id="Körper">
    <path id="Hals" class="cls-4" d="M64.3 86.74v48.54c0 3.61 2.92 6.53 6.53 6.53h17.09c3.61 0 6.53-2.93 6.53-6.53V86.74"/>
    <g id="Rumpf">
      <g id="Rumpf-2" data-name="Rumpf">
        <rect class="cls-3" x="43.67" y="110.15" width="69.53" height="66.23" rx="7.88" ry="7.88"/>
        <rect class="cls-4" x="43.84" y="110.15" width="69.53" height="66.23" rx="7.88" ry="7.88" style="clip-path:url(#clippath)"/>
        <g>
          <path class="cls-4" d="M78.31 134.9c3.67 0 6.64-2.97 6.64-6.64s-2.97-6.64-6.64-6.64-6.64 2.97-6.64 6.64 2.97 6.64 6.64 6.64"/>
          <path class="cls-3" d="M78.31 136.29c-4.43 0-8.04-3.61-8.04-8.04s3.61-8.04 8.04-8.04 8.04 3.61 8.04 8.04-3.61 8.04-8.04 8.04Zm0-13.29c-2.9 0-5.25 2.36-5.25 5.25s2.35 5.25 5.25 5.25 5.25-2.36 5.25-5.25S81.2 123 78.31 123Z"/>
        </g>
      </g>
      <path id="Schulter_R"
            data-name="Schulter R"
            class="cls-4"
            d="M101.43 112.88c-.03.07-.06.13-.08.19-.02.06-.05.12-.07.18-.04.1-.08.2-.11.3 0 .03-.02.05-.03.08-.35 1-.53 2.07-.53 3.19s.19 2.19.53 3.19c0 .03.02.05.03.08.04.1.07.2.11.3.02.06.05.12.07.18.03.07.05.13.08.19.04.09.08.18.13.28.01.03.03.06.04.09.46.95 1.08 1.84 1.87 2.62.79.79 1.67 1.41 2.62 1.87.03.01.06.03.09.04.09.04.18.09.28.13.06.03.13.06.19.08.06.02.12.05.18.07.1.04.2.08.3.11.03 0 .05.02.08.02 1 .35 2.07.54 3.19.54s2.19-.19 3.19-.54c.03 0 .05-.02.08-.02.1-.04.2-.07.3-.11.06-.02.12-.05.18-.07.07-.03.13-.06.19-.08.09-.04.18-.08.28-.13.03-.01.06-.03.09-.04a9.68 9.68 0 0 0 2.62-1.87c.79-.79 1.41-1.67 1.87-2.62.02-.03.03-.06.04-.09.04-.09.09-.18.13-.28.03-.07.06-.13.08-.19.02-.06.05-.12.07-.18.04-.1.08-.2.11-.3 0-.02.02-.05.02-.08.35-1 .54-2.07.54-3.19s-.19-2.19-.54-3.19c0-.03-.02-.05-.02-.08-.04-.1-.07-.2-.11-.3-.02-.06-.04-.12-.07-.18-.03-.07-.06-.13-.08-.19-.04-.09-.08-.18-.13-.28-.02-.03-.03-.06-.04-.09a9.469 9.469 0 0 0-1.87-2.62 9.664 9.664 0 0 0-2.63-1.87c-.03-.01-.06-.03-.09-.04-.09-.04-.19-.09-.28-.13-.06-.03-.12-.05-.19-.08-.06-.02-.12-.05-.19-.07-.1-.04-.2-.08-.29-.11-.03 0-.05-.02-.08-.03-1-.35-2.07-.53-3.19-.53s-2.19.19-3.19.53l-.08.03c-.1.04-.2.07-.3.11-.06.02-.12.05-.18.07l-.19.08c-.09.04-.19.08-.28.13-.03.01-.06.03-.09.04-.95.46-1.84 1.08-2.62 1.87-.79.79-1.41 1.67-1.87 2.62-.01.03-.03.06-.04.09-.04.09-.09.18-.13.28"/>
      <path id="Schulter_L"
            data-name="Schulter L"
            class="cls-3"
            d="M38.25 112.88c-.03.07-.06.13-.08.19-.02.06-.05.12-.07.18-.04.1-.08.2-.11.3 0 .03-.02.05-.03.08-.35 1-.53 2.07-.53 3.19s.19 2.19.53 3.19c0 .03.02.05.03.08.04.1.07.2.11.3.02.06.05.12.07.18.03.07.05.13.08.19.04.09.08.18.13.28.01.03.03.06.04.09.46.95 1.08 1.84 1.87 2.62.79.79 1.67 1.41 2.62 1.87.03.01.06.03.09.04.09.04.18.09.28.13.06.03.13.06.19.08.06.02.12.05.18.07.1.04.2.08.3.11.03 0 .05.02.08.02 1 .35 2.07.54 3.19.54s2.19-.19 3.19-.54c.03 0 .05-.02.08-.02.1-.04.2-.07.3-.11.06-.02.12-.05.18-.07.07-.03.13-.06.19-.08.09-.04.18-.08.28-.13.03-.01.06-.03.09-.04a9.68 9.68 0 0 0 2.62-1.87c.79-.79 1.41-1.67 1.87-2.62.02-.03.03-.06.04-.09.04-.09.09-.18.13-.28.03-.07.06-.13.08-.19.02-.06.05-.12.07-.18.04-.1.08-.2.11-.3 0-.02.02-.05.02-.08.35-1 .54-2.07.54-3.19s-.19-2.19-.54-3.19c0-.03-.02-.05-.02-.08-.04-.1-.07-.2-.11-.3-.02-.06-.04-.12-.07-.18-.03-.07-.06-.13-.08-.19-.04-.09-.08-.18-.13-.28-.02-.03-.03-.06-.04-.09a9.469 9.469 0 0 0-1.87-2.62 9.664 9.664 0 0 0-2.63-1.87c-.03-.01-.06-.03-.09-.04-.09-.04-.19-.09-.28-.13-.06-.03-.12-.05-.19-.08-.06-.02-.12-.05-.19-.07-.1-.04-.2-.08-.29-.11-.03 0-.05-.02-.08-.03-1-.35-2.07-.53-3.19-.53s-2.19.19-3.19.53l-.08.03c-.1.04-.2.07-.3.11-.06.02-.12.05-.18.07l-.19.08c-.09.04-.19.08-.28.13-.03.01-.06.03-.09.04-.95.46-1.84 1.08-2.62 1.87-.79.79-1.41 1.67-1.87 2.62-.01.03-.03.06-.04.09-.04.09-.09.18-.13.28"/>
    </g>
  </g>
  <g id="Kopf">
    <g id="Antenne">
      <path class="cls-3" d="M86.11 7.8c0-4.3-3.5-7.8-7.8-7.8s-7.8 3.5-7.8 7.8c0 3.72 2.61 6.83 6.1 7.61v24.83h3.4V15.41c3.48-.78 6.1-3.89 6.1-7.61Zm-7.8 4.4a4.4 4.4 0 1 1 0-8.8 4.4 4.4 0 0 1 0 8.8ZM62.56 22.08a7.744 7.744 0 0 0 1.25-4.22c0-4.3-3.5-7.8-7.8-7.8s-7.8 3.5-7.8 7.8 3.5 7.8 7.8 7.8c1.51 0 2.92-.44 4.12-1.19l8.32 9.1v13.77h3.4V32.25l-9.29-10.16Zm-10.95-4.22a4.4 4.4 0 1 1 8.8 0 4.4 4.4 0 0 1-8.8 0Z"/>
      <path class="cls-4" d="M100.8 10.06c-4.3 0-7.8 3.5-7.8 7.8 0 1.56.46 3.01 1.25 4.22l-9.29 10.16v15.09h3.4V33.56l8.32-9.1a7.75 7.75 0 0 0 4.12 1.19c4.3 0 7.8-3.5 7.8-7.8s-3.5-7.8-7.8-7.8Zm0 12.2a4.4 4.4 0 1 1 0-8.8 4.4 4.4 0 0 1 0 8.8Z"/>
    </g>
    <path id="Ohren" class="cls-4" d="M44.05 56.23h69.42c3.67 0 6.65 2.98 6.65 6.65v6.66c0 3.67-2.98 6.66-6.66 6.66H44.05c-3.67 0-6.66-2.98-6.66-6.66v-6.65c0-3.67 2.98-6.66 6.66-6.66Z"/>
    <g id="Kopf-2" data-name="Kopf">
      <path class="cls-3" d="M51.64 39.38h53.25c4.59 0 8.32 3.73 8.32 8.32V95c0 4.59-3.73 8.32-8.32 8.32H51.64c-4.59 0-8.32-3.73-8.32-8.32V47.7c0-4.59 3.73-8.32 8.32-8.32Z"/>
      <path class="cls-4" d="M78.26 36.06h50.96v86.11H78.26z" style="clip-path:url(#clippath-1)"/>
      <rect class="cls-10" x="48.9" y="54.64" width="58.1" height="22.05" rx="4.16" ry="4.16"/>
    </g>
    <g id="Punkte">
      <circle class="cls-1" cx="71.4" cy="48.76" r="2.4"/>
      <circle class="cls-1" cx="78.31" cy="48.76" r="2.4"/>
      <circle class="cls-1" cx="85.13" cy="48.76" r="2.4"/>
    </g>
  </g>
  <g id="Mund">
    <path id="Lachend" class="cls-10" d="M61.59 83.43c2.34 6.75 8.75 11.61 16.3 11.61s13.96-4.85 16.3-11.61h-32.6Z"/>
  </g>
  <g id="Augen">
    <path id="Auge_L" data-name="Auge L" class="cls-5" d="M61.34 72.45c3.48 0 6.31-2.82 6.31-6.31s-2.82-6.31-6.31-6.31-6.31 2.82-6.31 6.31 2.82 6.31 6.31 6.31"/>
    <path id="Pupille_L" data-name="Pupille L" class="cls-10" d="M61.34 68.8c1.47 0 2.66-1.19 2.66-2.66s-1.19-2.66-2.66-2.66-2.66 1.19-2.66 2.66 1.19 2.66 2.66 2.66"/>
    <path id="Auge_R" data-name="Auge R" class="cls-5" d="M94.42 72.45c3.48 0 6.31-2.82 6.31-6.31s-2.82-6.31-6.31-6.31-6.31 2.82-6.31 6.31 2.82 6.31 6.31 6.31"/>
    <path id="Pupille_R" data-name="Pupille R" class="cls-10" d="M94.42 68.8c1.47 0 2.66-1.19 2.66-2.66s-1.19-2.66-2.66-2.66-2.66 1.19-2.66 2.66 1.19 2.66 2.66 2.66"/>
    <g id="Lider_Neutral" data-name="Lider Neutral">
      <path id="Lid_Unten_L" data-name="Lid Unten L" class="cls-10" d="M52.11 69.82h18.46v4.37H52.11z"/>
      <path id="Lid_Unten_R" data-name="Lid Unten R" class="cls-10" d="M84.95 69.82h18.46v4.37H84.95z"/>
    </g>
  </g>
</svg>