<svg version="1.1" viewBox="0 0 170.747 338.253" xmlns="http://www.w3.org/2000/svg">
  <defs>
    <clipPath clipPathUnits="userSpaceOnUse" id="a">
      <path d="M1030.53 581.309H732.191v821.921h298.339z"/>
    </clipPath>
    <clipPath clipPathUnits="userSpaceOnUse" id="b">
      <path d="M469.984 2009.38c-45.109 0-81.668-36.56-81.668-81.67v-405.17c0-45.11 36.559-81.67 81.668-81.67h522.684c45.102 0 81.672 36.56 81.672 81.67v405.17c0 45.11-36.57 81.67-81.672 81.67z"/>
    </clipPath>
  </defs>
  <path d="M1280.64 161.621C1280.64 72.359 1033.77 0 729.238 0 424.715 0 177.844 72.36 177.844 161.621c0 89.27 246.871 161.629 551.394 161.629 304.532 0 551.402-72.359 551.402-161.629" style="fill:#d07435;fill-opacity:1;fill-rule:nonzero;stroke:none" transform="matrix(.13333 0 0 -.13333 0 338.253)"/>
  <path d="M595.695 141.801c-22.558 0-40.847 18.289-40.847 40.847v406.891c0 22.563 18.289 40.852 40.847 40.852 22.563 0 40.856-18.289 40.856-40.852V182.648c0-22.558-18.293-40.847-40.856-40.847M875.027 141.801c-22.562 0-40.851 18.289-40.851 40.847v406.891c0 22.563 18.289 40.852 40.851 40.852 22.563 0 40.852-18.289 40.852-40.852V182.648c0-22.558-18.289-40.847-40.852-40.847" style="fill:#0a9ea0;fill-opacity:1;fill-rule:nonzero;stroke:none" transform="matrix(.13333 0 0 -.13333 0 338.253)"/>
  <path d="m1180.32 988.422-127.03 286.348M1179.59 701.781V984.43" style="fill:none;stroke:#0a9ea0;stroke-width:40;stroke-linecap:round;stroke-linejoin:miter;stroke-miterlimit:4;stroke-dasharray:none;stroke-opacity:1" transform="matrix(.13333 0 0 -.13333 0 338.253)"/>
  <path d="M1139.64 1001.98c-.13-.29-.25-.57-.37-.86-.11-.26-.21-.53-.32-.8-.17-.441-.34-.879-.5-1.332-.04-.117-.08-.226-.12-.347a43.358 43.358 0 0 1-2.38-14.2c0-4.98.84-9.75 2.38-14.211.04-.121.08-.23.12-.339.16-.45.33-.903.5-1.34.11-.27.21-.531.32-.801.12-.289.24-.57.37-.859.18-.411.36-.821.56-1.231.06-.129.13-.262.19-.39a43.132 43.132 0 0 1 8.34-11.692c3.5-3.5 7.46-6.269 11.68-8.34.14-.058.27-.129.4-.187.41-.192.82-.379 1.23-.563.28-.117.57-.25.86-.367.26-.109.53-.211.8-.32.44-.172.88-.34 1.33-.5.12-.039.23-.082.35-.11a43.28 43.28 0 0 1 14.2-2.39c4.98 0 9.75.847 14.21 2.39.12.028.23.071.34.11.45.16.9.328 1.34.5l.8.32c.29.117.57.25.86.367.41.184.82.371 1.23.563.13.058.26.129.39.187a43.754 43.754 0 0 1 11.69 8.34 43.31 43.31 0 0 1 8.33 11.692c.07.128.13.261.2.39.19.41.38.82.56 1.231.12.289.25.57.37.859.11.27.21.531.31.801.18.437.35.89.51 1.34.04.109.07.218.11.339a43.429 43.429 0 0 1 0 28.411c-.04.121-.07.23-.11.347-.16.453-.33.891-.51 1.332-.1.27-.2.54-.31.8-.12.29-.25.57-.37.86-.18.41-.37.82-.56 1.23-.07.13-.13.26-.2.4a43.426 43.426 0 0 1-20.03 20.02c-.12.06-.25.13-.38.19-.41.2-.83.38-1.25.57-.27.12-.55.24-.83.36-.28.11-.55.22-.83.32-.43.17-.87.34-1.31.5-.12.04-.24.08-.37.12a43.293 43.293 0 0 1-14.19 2.38c-4.96 0-9.74-.84-14.19-2.38l-.36-.12c-.45-.16-.88-.33-1.32-.5-.27-.1-.55-.21-.82-.32l-.84-.36c-.42-.19-.83-.37-1.25-.57-.13-.06-.25-.13-.38-.19a43.292 43.292 0 0 1-11.69-8.34c-3.51-3.5-6.28-7.46-8.34-11.68-.06-.14-.13-.27-.19-.4-.2-.41-.38-.82-.56-1.23M1266.97 631.988c-.86 47.242-39.38 85.313-86.83 85.313-47.45 0-85.97-38.071-86.83-85.313v-.136c-.01-.493-.08-.973-.08-1.461 0-.493.07-.969.08-1.461v-85.559h173.75v88.617h-.09M1116.39 525.102c13.39 0 24.25-10.864 24.25-24.25V377.199c0-13.398-10.86-24.258-24.25-24.258-13.4 0-24.26 10.86-24.26 24.258v123.653c0 13.386 10.86 24.25 24.26 24.25M1179.59 525.102c13.39 0 24.25-10.864 24.25-24.262v-21.719c0-13.402-10.86-24.262-24.25-24.262-13.4 0-24.26 10.86-24.26 24.262v21.719c0 13.398 10.86 24.262 24.26 24.262M1242.79 525.102c13.39 0 24.25-10.864 24.25-24.262v-21.719c0-13.402-10.86-24.262-24.25-24.262-13.4 0-24.26 10.86-24.26 24.262v21.719c0 13.398 10.86 24.262 24.26 24.262"
        style="fill:#67c1be;fill-opacity:1;fill-rule:nonzero;stroke:none"
        transform="matrix(.13333 0 0 -.13333 0 338.253)"/>
  <path d="M87.457 1274.77h313.262M87.457 1557.42v-282.65" style="fill:none;stroke:#0a9ea0;stroke-width:40;stroke-linecap:round;stroke-linejoin:miter;stroke-miterlimit:4;stroke-dasharray:none;stroke-opacity:1" transform="matrix(.13333 0 0 -.13333 0 338.253)"/>
  <path d="M127.402 1257.23c.133.29.25.57.371.86.11.26.211.53.321.8.172.44.34.88.5 1.33.039.12.082.23.121.35a43.379 43.379 0 0 1 2.379 14.2c0 4.98-.84 9.75-2.379 14.21-.039.12-.082.23-.121.34-.16.45-.328.9-.5 1.34-.11.27-.211.53-.321.8-.121.29-.238.57-.371.86-.179.41-.359.82-.558 1.23-.059.13-.129.26-.192.39a43.07 43.07 0 0 1-8.339 11.69c-3.5 3.5-7.458 6.27-11.68 8.34-.141.06-.27.13-.399.19-.41.19-.82.38-1.23.56-.281.12-.57.25-.859.37-.262.11-.532.21-.801.32-.442.17-.879.34-1.328.5-.121.04-.231.08-.352.11a43.426 43.426 0 0 1-28.41 0c-.121-.03-.23-.07-.34-.11-.45-.16-.898-.33-1.34-.5-.27-.11-.531-.21-.8-.32-.29-.12-.57-.25-.86-.37-.41-.18-.82-.37-1.23-.56-.13-.06-.262-.13-.391-.19a43.74 43.74 0 0 1-11.688-8.34c-3.5-3.5-6.273-7.46-8.332-11.69-.07-.13-.129-.26-.199-.39-.191-.41-.379-.82-.562-1.23-.118-.29-.246-.57-.368-.86-.109-.27-.21-.53-.312-.8-.18-.44-.348-.89-.508-1.34-.039-.11-.07-.22-.11-.34a43.342 43.342 0 0 1-2.39-14.21c0-4.97.848-9.75 2.39-14.2.04-.12.071-.23.11-.35.16-.45.328-.89.508-1.33.102-.27.203-.54.313-.8.12-.29.25-.57.367-.86.183-.41.37-.82.562-1.23.07-.13.13-.26.2-.4a43.403 43.403 0 0 1 8.331-11.68 43.293 43.293 0 0 1 11.7-8.34c.117-.06.25-.13.379-.19.41-.2.832-.38 1.25-.57.27-.12.55-.24.832-.36.277-.11.546-.22.828-.32.43-.17.87-.34 1.308-.5.121-.04.242-.08.371-.12a43.287 43.287 0 0 1 14.192-2.38c4.957 0 9.738.84 14.187 2.38l.364.12c.449.16.879.33 1.32.5a27.509 27.509 0 0 1 1.656.68c.422.19.832.37 1.25.57.133.06.25.13.383.19a43.298 43.298 0 0 1 11.688 8.34 43.177 43.177 0 0 1 8.339 11.68c.063.14.133.27.192.4.199.41.379.82.558 1.23M173.832 1715.83H.078v-85.47c-.008-.52-.078-1.02-.078-1.54 0-48 38.914-86.91 86.906-86.91 47.535 0 86.11 38.19 86.84 85.55h.086v88.37M150.66 1734.1c-13.394 0-24.258 10.86-24.258 24.26v123.65c0 13.39 10.864 24.25 24.258 24.25 13.399 0 24.258-10.86 24.258-24.25v-123.65c0-13.4-10.859-24.26-24.258-24.26M87.46 1734.11c-13.394 0-24.257 10.85-24.257 24.25v21.72c0 13.4 10.863 24.26 24.258 24.26 13.398 0 24.258-10.86 24.258-24.26v-21.72c0-13.4-10.86-24.25-24.258-24.25M24.262 1734.11c-13.395 0-24.258 10.85-24.258 24.25v21.72c0 13.4 10.863 24.26 24.258 24.26 13.398 0 24.258-10.86 24.258-24.26v-21.72c0-13.4-10.86-24.25-24.258-24.25"
        style="fill:#67c1be;fill-opacity:1;fill-rule:nonzero;stroke:none"
        transform="matrix(.13333 0 0 -.13333 0 338.253)"/>
  <path d="M596.063 1602.14v-485.45c0-36.08 29.25-65.32 65.332-65.32h170.91c36.078 0 65.328 29.24 65.328 65.32v485.45" style="fill:#0a9ea0;fill-opacity:1;fill-rule:nonzero;stroke:none" transform="matrix(.13333 0 0 -.13333 0 338.253)"/>
  <path d="M1016.04 1276.5V678.531c0-53.691-43.528-97.222-97.216-97.222H546.41c-53.687 0-97.211 43.531-97.211 97.222V1276.5c0 53.69 43.524 97.21 97.211 97.21h372.414c53.688 0 97.216-43.52 97.216-97.21" style="fill:#67c1be;fill-opacity:1;fill-rule:nonzero;stroke:none" transform="matrix(.13333 0 0 -.13333 0 338.253)"/>
  <g clip-path="url(#a)" transform="matrix(.13333 0 0 -.13333 0 338.253)">
    <path d="M1015.61 1279.46V678.531c0-53.691-43.52-97.222-97.212-97.222h-372.41c-53.691 0-97.215 43.531-97.215 97.222v600.929c0 53.69 43.524 97.21 97.215 97.21h372.41c53.692 0 97.212-43.52 97.212-97.21" style="fill:#0a9ea0;fill-opacity:1;fill-rule:nonzero;stroke:none"/>
  </g>
  <path d="M637.922 1304.16v-65.79c0-38.42-31.145-69.56-69.567-69.56H432.043c-38.422 0-69.566 31.14-69.566 69.56v65.79c0 38.42 31.144 69.57 69.566 69.57h136.312c38.422 0 69.567-31.15 69.567-69.57" style="fill:#67c1be;fill-opacity:1;fill-rule:nonzero;stroke:none" transform="matrix(.13333 0 0 -.13333 0 338.253)"/>
  <path d="M1104.53 1307.25v-65.79c0-38.42-31.15-69.57-69.57-69.57H898.648c-38.421 0-69.57 31.15-69.57 69.57v65.79c0 38.42 31.149 69.56 69.57 69.56h136.312c38.42 0 69.57-31.14 69.57-69.56" style="fill:#0a9ea0;fill-opacity:1;fill-rule:nonzero;stroke:none" transform="matrix(.13333 0 0 -.13333 0 338.253)"/>
  <path d="M885.266 1170.85V944.871c0-38.422-31.149-69.562-69.571-69.562H656.512c-38.422 0-69.571 31.14-69.571 69.562v225.979c0 38.42 31.149 69.57 69.571 69.57h159.183c38.422 0 69.571-31.15 69.571-69.57" style="fill:#67c1be;fill-opacity:1;fill-rule:nonzero;stroke:none" transform="matrix(.13333 0 0 -.13333 0 338.253)"/>
  <path d="M656.512 1225.42c-30.086 0-54.571-24.48-54.571-54.57V944.871c0-30.09 24.485-54.562 54.571-54.562h159.179c30.09 0 54.571 24.472 54.571 54.562v225.979c0 30.09-24.481 54.57-54.571 54.57zm159.179-365.111H656.512c-46.629 0-84.571 37.929-84.571 84.562v225.979c0 46.63 37.942 84.57 84.571 84.57h159.179c46.633 0 84.571-37.94 84.571-84.57V944.871c0-46.633-37.938-84.562-84.571-84.562" style="fill:#0a9ea0;fill-opacity:1;fill-rule:nonzero;stroke:none" transform="matrix(.13333 0 0 -.13333 0 338.253)"/>
  <path d="M1001.9 2119.87c-13.291 14.85-28.439 29.88-45.15 44.88 16.711 15 31.859 30.03 45.15 44.88 66.55 74.37 64.44 117.83 50.95 141.19-13.48 23.36-50.07 46.91-147.741 26.46-19.507-4.08-40.097-9.68-61.437-16.65-4.641 21.97-10.082 42.6-16.301 61.54-31.133 94.81-69.82 114.72-96.793 114.72-26.976 0-65.668-19.91-96.797-114.72-6.211-18.94-11.66-39.57-16.293-61.54-21.347 6.97-41.937 12.57-61.437 16.65-97.68 20.45-134.262-3.1-147.75-26.46-13.492-23.36-15.602-66.82 50.949-141.19 13.289-14.85 28.441-29.88 45.148-44.88-16.707-15-31.859-30.03-45.148-44.88-66.551-74.37-64.441-117.83-50.949-141.19 9.859-17.08 32.078-34.27 81.527-34.27 18.152 0 39.981 2.32 66.223 7.81 19.5 4.08 40.09 9.69 61.437 16.66 4.633-21.97 10.082-42.61 16.293-61.54 31.129-94.82 69.821-114.72 96.797-114.72 26.973 0 65.66 19.9 96.793 114.72 6.219 18.93 11.66 39.57 16.301 61.54 21.34-6.97 41.93-12.58 61.437-16.66 26.231-5.49 48.063-7.81 66.219-7.81 49.442 0 71.662 17.19 81.532 34.27 13.48 23.36 15.59 66.82-50.96 141.19m-90.861 229.05c22.731 4.76 43.02 7.1 60.18 7.1 29.011 0 49.041-6.69 56.541-19.69 11.94-20.68-5.8-60.82-47.451-107.37-13.34-14.91-28.68-30.04-45.668-45.13-22.762 18.88-47.84 37.57-74.68 55.62-2.211 32.27-5.859 63.33-10.84 92.48 21.578 7.17 42.34 12.89 61.918 16.99m-129-273.31a1074.926 1074.926 0 0 0-51.461-27.89 1072.26 1072.26 0 0 0-51.469 27.89c-17.16 9.91-33.82 20.15-49.89 30.63-1.039 19.14-1.571 38.7-1.571 58.51 0 19.82.532 39.37 1.571 58.52a1090.59 1090.59 0 0 0 49.89 30.62 1072.26 1072.26 0 0 0 51.469 27.89 1074.926 1074.926 0 0 0 51.461-27.89 1084.67 1084.67 0 0 0 49.891-30.62c1.039-19.15 1.582-38.7 1.582-58.52 0-19.81-.543-39.37-1.582-58.51a1076.064 1076.064 0 0 0-49.891-30.63m47.289-5.4c-1.969-21.71-4.617-42.72-7.906-62.8-19.043 7.18-38.563 15.4-58.352 24.55a1105.198 1105.198 0 0 1 33.461 18.56c11.141 6.43 22.078 13 32.797 19.69m-131.25-38.25c-19.777-9.15-39.308-17.37-58.34-24.55-3.297 20.08-5.949 41.09-7.918 62.8 10.719-6.69 21.66-13.26 32.801-19.69a1107.458 1107.458 0 0 1 33.457-18.56m-98.75 94.54c-17.816 12.56-34.699 25.36-50.437 38.25 15.738 12.9 32.621 25.7 50.437 38.26-.43-12.63-.656-25.39-.656-38.26 0-12.86.226-25.63.656-38.25m32.492 132.79c1.969 21.71 4.621 42.72 7.918 62.8 19.032-7.18 38.563-15.39 58.34-24.54a1129.88 1129.88 0 0 1-33.457-18.56 1130.752 1130.752 0 0 1-32.801-19.7m131.25 38.26c19.789 9.15 39.309 17.36 58.352 24.54 3.289-20.08 5.937-41.09 7.906-62.8a1130.516 1130.516 0 0 1-32.797 19.7 1127.523 1127.523 0 0 1-33.461 18.56m98.75-94.54c17.821-12.56 34.7-25.36 50.442-38.26-15.742-12.89-32.621-25.69-50.442-38.25.442 12.62.66 25.39.66 38.25 0 12.87-.218 25.63-.66 38.26m-200.507 210.12c19.488 59.35 45.378 94.78 69.265 94.78 23.883 0 49.774-35.43 69.262-94.78 6.238-19.01 11.672-39.85 16.25-62.12-27.738-10.27-56.461-22.64-85.512-36.86-29.058 14.22-57.777 26.59-85.508 36.86 4.571 22.27 10 43.11 16.243 62.12m-180.461-184.17c-41.661 46.55-59.403 86.69-47.461 107.37 11.937 20.69 55.578 25.39 116.718 12.59 19.582-4.1 40.34-9.82 61.922-16.99-4.98-29.15-8.621-60.21-10.832-92.48-26.847-18.05-51.918-36.74-74.679-55.62-17 15.09-32.329 30.22-45.668 45.13m69.257-248.38c-61.14-12.8-104.769-8.09-116.718 12.59-11.942 20.69 5.8 60.83 47.461 107.38 13.339 14.91 28.668 30.03 45.668 45.13 22.761-18.89 47.832-37.57 74.679-55.63 2.211-32.27 5.852-63.33 10.832-92.48-21.582-7.17-42.34-12.89-61.922-16.99m249.731-64.2c-19.488-59.35-45.379-94.79-69.262-94.79-23.887 0-49.777 35.44-69.265 94.79-6.243 19-11.672 39.84-16.243 62.11 27.731 10.27 56.45 22.65 85.508 36.87 29.051-14.22 57.774-26.6 85.512-36.87-4.578-22.27-10.012-43.11-16.25-62.11m227.92 76.79c-11.94-20.68-55.58-25.39-116.721-12.59-19.578 4.1-40.34 9.82-61.918 16.99 4.981 29.15 8.629 60.21 10.84 92.48 26.84 18.06 51.918 36.74 74.68 55.63 16.988-15.1 32.328-30.22 45.668-45.13 41.651-46.55 59.391-86.69 47.451-107.38"
        style="fill:#67c1be;fill-opacity:1;fill-rule:nonzero;stroke:none"
        transform="matrix(.13333 0 0 -.13333 0 338.253)"/>
  <path d="M770.52 2155.39c.128.29.25.57.371.86.109.26.211.53.32.8.172.44.34.88.5 1.33.039.12.082.23.121.35a43.379 43.379 0 0 1 2.379 14.2c0 4.98-.84 9.75-2.379 14.21-.039.12-.082.23-.121.34-.16.45-.328.9-.5 1.34l-.32.8c-.121.29-.243.57-.371.86-.18.41-.36.82-.559 1.23-.059.13-.129.26-.191.39a43.095 43.095 0 0 1-8.34 11.69c-3.5 3.5-7.461 6.27-11.68 8.34-.141.06-.27.13-.398.19-.411.19-.821.38-1.231.56-.281.12-.57.25-.859.37-.262.11-.532.21-.801.32-.441.17-.879.34-1.328.5-.121.04-.231.08-.352.11a43.429 43.429 0 0 1-28.41 0c-.121-.03-.23-.07-.34-.11-.449-.16-.898-.33-1.34-.5-.269-.11-.531-.21-.8-.32-.289-.12-.571-.25-.86-.37-.41-.18-.82-.37-1.23-.56-.129-.06-.258-.13-.391-.19a43.734 43.734 0 0 1-11.687-8.34 43.28 43.28 0 0 1-8.332-11.69c-.071-.13-.129-.26-.2-.39-.191-.41-.378-.82-.562-1.23-.117-.29-.246-.57-.367-.86-.11-.27-.211-.53-.313-.8a33.6 33.6 0 0 1-.508-1.34c-.043-.11-.07-.22-.109-.34a43.385 43.385 0 0 1 0-28.41c.039-.12.066-.23.109-.35.161-.45.329-.89.508-1.33.102-.27.203-.54.313-.8.121-.29.25-.57.367-.86.184-.41.371-.82.562-1.23.071-.13.129-.26.2-.4a43.39 43.39 0 0 1 8.332-11.68 43.272 43.272 0 0 1 11.699-8.34c.121-.06.25-.13.379-.19.41-.2.832-.38 1.25-.57.269-.12.551-.24.832-.36.277-.11.547-.22.828-.32.43-.17.871-.34 1.309-.5.121-.04.242-.08.371-.12a43.282 43.282 0 0 1 14.191-2.38c4.961 0 9.738.84 14.188 2.38l.363.12c.449.16.879.33 1.316.5.274.1.551.21.821.32.281.12.562.24.839.36.422.19.832.37 1.25.57.133.06.25.13.383.19a43.298 43.298 0 0 1 11.688 8.34 43.202 43.202 0 0 1 8.34 11.68c.062.14.132.27.191.4.199.41.379.82.559 1.23"
        style="fill:#0a9ea0;fill-opacity:1;fill-rule:nonzero;stroke:none"
        transform="matrix(.13333 0 0 -.13333 0 338.253)"/>
  <path d="M730.578 1938.84v257.81" style="fill:none;stroke:#0a9ea0;stroke-width:34;stroke-linecap:butt;stroke-linejoin:miter;stroke-miterlimit:4;stroke-dasharray:none;stroke-opacity:1" transform="matrix(.13333 0 0 -.13333 0 338.253)"/>
  <path d="M579.789 1558.07c0-36.08 29.25-65.34 65.332-65.34h170.91c36.078 0 65.328 29.26 65.328 65.34v485.45c0 36.08-29.25 65.33-65.328 65.33h-170.91c-36.082 0-65.332-29.25-65.332-65.33v-485.45" style="fill:#0a9ea0;fill-opacity:1;fill-rule:nonzero;stroke:none" transform="matrix(.13333 0 0 -.13333 0 338.253)"/>
  <path d="M305.793 1844c-36.078 0-65.34-29.25-65.34-65.34v-65.34c0-36.07 29.262-65.34 65.34-65.34h857.127c36.08 0 65.33 29.27 65.33 65.34v65.34c0 36.09-29.25 65.34-65.33 65.34H305.793" style="fill:#0a9ea0;fill-opacity:1;fill-rule:nonzero;stroke:none" transform="matrix(.13333 0 0 -.13333 0 338.253)"/>
  <path d="M469.984 2009.38c-45.101 0-81.668-36.56-81.668-81.67v-405.17c0-45.1 36.567-81.67 81.668-81.67h522.68c45.106 0 81.666 36.57 81.666 81.67v405.17c0 45.11-36.56 81.67-81.666 81.67h-522.68" style="fill:#67c1be;fill-opacity:1;fill-rule:nonzero;stroke:none" transform="matrix(.13333 0 0 -.13333 0 338.253)"/>
  <g clip-path="url(#b)" transform="matrix(.13333 0 0 -.13333 0 338.253)">
    <path d="M731.324 1196.77h500.226v845.27H731.324v-845.27" style="fill:#0a9ea0;fill-opacity:1;fill-rule:nonzero;stroke:none"/>
  </g>
  <path d="M462.934 1495.25c13.25 0 23.988 10.74 23.988 23.99 0 13.25-10.738 23.99-23.988 23.99s-23.993-10.74-23.993-23.99c0-13.25 10.743-23.99 23.993-23.99M531.609 1495.25c13.25 0 23.993 10.74 23.993 23.99 0 13.25-10.743 23.99-23.993 23.99-13.25 0-23.988-10.74-23.988-23.99 0-13.25 10.738-23.99 23.988-23.99M932.777 1495.25c13.25 0 23.989 10.74 23.989 23.99 0 13.25-10.739 23.99-23.989 23.99s-23.992-10.74-23.992-23.99c0-13.25 10.742-23.99 23.992-23.99M1001.45 1495.25c13.25 0 23.99 10.74 23.99 23.99 0 13.25-10.74 23.99-23.99 23.99-13.247 0-23.985-10.74-23.985-23.99 0-13.25 10.738-23.99 23.985-23.99M663.59 1894.39c13.25 0 23.988 10.75 23.988 24s-10.738 23.99-23.988 23.99-23.988-10.74-23.988-23.99c0-13.25 10.738-24 23.988-24M732.266 1894.39c13.25 0 23.992 10.75 23.992 24s-10.742 23.99-23.992 23.99-23.989-10.74-23.989-23.99c0-13.25 10.739-24 23.989-24M800.941 1894.39c13.25 0 23.993 10.75 23.993 24s-10.743 23.99-23.993 23.99c-13.25 0-23.988-10.74-23.988-23.99 0-13.25 10.738-24 23.988-24M811.328 1564.35c0-44.17-35.808-79.98-79.984-79.98-44.176 0-79.989 35.81-79.989 79.98h159.973"
        style="fill:#171717;fill-opacity:1;fill-rule:nonzero;stroke:none"
        transform="matrix(.13333 0 0 -.13333 0 338.253)"/>
  <path d="M905.895 1625.55c48.878 0 88.5 39.62 88.5 88.5s-39.622 88.5-88.5 88.5c-48.879 0-88.5-39.62-88.5-88.5s39.621-88.5 88.5-88.5M557.48 1625.55c48.879 0 88.5 39.62 88.5 88.5s-39.621 88.5-88.5 88.5c-48.878 0-88.5-39.62-88.5-88.5s39.622-88.5 88.5-88.5" style="fill:#fff;fill-opacity:1;fill-rule:nonzero;stroke:none" transform="matrix(.13333 0 0 -.13333 0 338.253)"/>
  <path d="M903.063 1690.78c12.953 0 23.441 10.5 23.441 23.44 0 12.95-10.488 23.44-23.441 23.44-12.95 0-23.438-10.49-23.438-23.44 0-12.94 10.488-23.44 23.438-23.44M556.117 1690.78c12.949 0 23.442 10.5 23.442 23.44 0 12.95-10.493 23.44-23.442 23.44s-23.437-10.49-23.437-23.44c0-12.94 10.488-23.44 23.437-23.44" style="fill:#171717;fill-opacity:1;fill-rule:nonzero;stroke:none" transform="matrix(.13333 0 0 -.13333 0 338.253)"/>
  <path d="M464.434 1671.25c16.269-39.39 51.722-66.78 92.988-66.78 41.269 0 76.723 27.39 92.992 66.78h-185.98" style="fill:#0a9ea0;fill-opacity:1;fill-rule:nonzero;stroke:none" transform="matrix(.13333 0 0 -.13333 0 338.253)"/>
  <path d="M479.344 1671.25c15.109-27.64 44.359-46.42 78.078-46.42s62.973 18.78 78.082 46.42h-156.16M827.758 1671.25c15.109-27.64 44.359-46.42 78.078-46.42s62.973 18.78 78.082 46.42h-156.16" style="fill:#67c1be;fill-opacity:1;fill-rule:nonzero;stroke:none" transform="matrix(.13333 0 0 -.13333 0 338.253)"/>
</svg>