<svg version="1.1" viewBox="0 0 181.468 239.316" xmlns="http://www.w3.org/2000/svg"><defs><clipPath clipPathUnits="userSpaceOnUse" id="a"><path d="m1148.99 663.27.56 965.65H106.855V663.855c0-287.945 233.418-521.367 521.36-521.367 287.937 0 521.355 233.422 521.355 521.367z"/></clipPath><clipPath clipPathUnits="userSpaceOnUse" id="b"><path d="m1148.99 663.27.56 965.65H106.855V663.855c0-287.945 233.418-521.367 521.36-521.367 287.937 0 521.355 233.422 521.355 521.367z"/></clipPath><clipPath clipPathUnits="userSpaceOnUse" id="c"><path d="M358.574 1231.66c-45.949 0-83.187-37.25-83.187-83.2V675.484c0-45.949 37.238-83.195 83.187-83.195h532.453c45.95 0 83.2 37.246 83.2 83.195v472.976c0 45.95-37.25 83.2-83.2 83.2z"/></clipPath><clipPath clipPathUnits="userSpaceOnUse" id="d"><path d="m1148.99 663.27.56 965.65H106.855V663.855c0-287.945 233.418-521.367 521.36-521.367 287.937 0 521.355 233.422 521.355 521.367z"/></clipPath><clipPath clipPathUnits="userSpaceOnUse" id="e"><path d="m1148.99 663.27.56 965.65H106.855V663.855c0-287.945 233.418-521.367 521.36-521.367 287.937 0 521.355 233.422 521.355 521.367z"/></clipPath><clipPath clipPathUnits="userSpaceOnUse" id="f"><path d="M628.215-187.488H1078.7V569.34H628.215Z"/></clipPath><clipPath clipPathUnits="userSpaceOnUse" id="g"><path d="m1148.99 663.27.56 965.65H106.855V663.855c0-287.945 233.418-521.367 521.36-521.367 287.937 0 521.355 233.422 521.355 521.367z"/></clipPath></defs><path d="M63.107 14.191c28.794 0 52.136 23.342 52.136 52.136 0 28.794-23.342 52.136-52.136 52.136-28.794 0-52.136-23.342-52.136-52.136 0-28.794 23.342-52.136 52.136-52.136" style="fill:#6d397b;fill-opacity:1;fill-rule:nonzero;stroke:none;stroke-width:.1" transform="matrix(1.33333 0 0 -1.33333 0 216.732)"/><g clip-path="url(#a)" transform="matrix(.13333 0 0 -.13333 0 216.732)"><path d="m188.945 91.828 64.864 306.473" style="fill:none;stroke:#0a9ea0;stroke-width:40;stroke-linecap:round;stroke-linejoin:miter;stroke-miterlimit:4;stroke-dasharray:none;stroke-opacity:1"/><path d="M625.289 1503.5c-24.258 0-43.996 19.73-43.996 43.99s19.738 44 43.996 44c24.258 0 43.984-19.74 43.984-44s-19.726-43.99-43.984-43.99zm77.988 43.99c0 43.01-34.992 78-77.988 78-43.008 0-78-34.99-78-78 0-37.16 26.149-68.29 60.996-76.07v-248.3h34.004v248.3c34.844 7.79 60.988 38.91 60.988 76.07M358.355 1446.94c0 24.26 19.727 43.99 43.985 43.99s43.984-19.73 43.984-43.99-19.726-43.99-43.984-43.99c-24.258 0-43.985 19.73-43.985 43.99zm121.973 0c0 43.01-34.992 78-77.988 78-43 0-77.988-34.99-77.988-78s34.988-78 77.988-78c15.129 0 29.223 4.4 41.191 11.9l83.203-91V1152.1h34.004v150.94l-92.941 101.65c7.894 12.19 12.531 26.67 12.531 42.25" style="fill:#67c1be;fill-opacity:1;fill-rule:nonzero;stroke:none"/><path d="M850.133 1402.95c-24.258 0-43.985 19.73-43.985 43.99s19.727 43.99 43.985 43.99 43.984-19.73 43.984-43.99-19.726-43.99-43.984-43.99zm0 121.99c-43 0-77.988-34.99-77.988-78 0-15.58 4.632-30.06 12.531-42.25l-92.942-101.65V1152.1h34.004v137.74l83.2 91c11.972-7.5 26.062-11.9 41.195-11.9 42.996 0 77.988 34.99 77.988 78s-34.992 78-77.988 78M485.164 758.086V272.641c0-36.082 29.25-65.332 65.328-65.332h170.91c36.082 0 65.332 29.25 65.332 65.332v485.445M282.688 1063.2c-36.762 0-66.563-29.8-66.563-66.563v-66.559c0-36.75 29.801-66.551 66.563-66.551h694.207c36.765 0 66.565 29.801 66.565 66.551v66.559c0 36.763-29.8 66.563-66.565 66.563H282.688" style="fill:#0a9ea0;fill-opacity:1;fill-rule:nonzero;stroke:none"/><path d="M358.574 1231.66c-45.949 0-83.199-37.25-83.199-83.2V675.484c0-45.949 37.25-83.183 83.199-83.183h532.449c45.954 0 83.204 37.234 83.204 83.183v472.976c0 45.95-37.25 83.2-83.204 83.2H358.574" style="fill:#67c1be;fill-opacity:1;fill-rule:nonzero;stroke:none"/></g><g clip-path="url(#b)" transform="matrix(.13333 0 0 -.13333 0 216.732)"><g clip-path="url(#c)"><path d="M624.805 403.871h509.575v861.069H624.805V403.871" style="fill:#0a9ea0;fill-opacity:1;fill-rule:nonzero;stroke:none"/></g></g><g clip-path="url(#d)" transform="matrix(.13333 0 0 -.13333 0 216.732)"><path d="M372.766 1079.08c-22.969 0-41.598-18.63-41.598-41.6V900.211c0-22.981 18.629-41.602 41.598-41.602h497.832c22.968 0 41.597 18.621 41.597 41.602v137.269c0 22.97-18.629 41.6-41.597 41.6H372.766" style="fill:#171717;fill-opacity:1;fill-rule:nonzero;stroke:none"/><path d="M856.457 496.711a73.867 73.867 0 0 1-.832-1.93c-.246-.582-.473-1.191-.719-1.793-.383-.988-.761-1.976-1.121-2.988-.09-.27-.18-.52-.269-.781a97.441 97.441 0 0 1-5.344-31.891 97.443 97.443 0 0 1 5.344-31.898c.089-.27.179-.52.269-.758.36-1.012.738-2.024 1.121-3.012.246-.609.473-1.191.719-1.801.27-.648.539-1.281.832-1.929.402-.918.809-1.84 1.258-2.758.133-.293.289-.582.426-.871a96.86 96.86 0 0 1 18.722-26.25 97.94 97.94 0 0 1 26.223-18.723c.316-.137.605-.297.898-.43.922-.429 1.84-.847 2.762-1.257.629-.27 1.281-.563 1.93-.832.586-.25 1.191-.469 1.797-.719.988-.379 1.976-.762 2.988-1.121.269-.09.516-.18.785-.25a97.553 97.553 0 0 1 31.879-5.36c11.184 0 21.891 1.911 31.902 5.36.27.07.52.16.766.25 1.012.359 2.02.742 3.008 1.121.605.25 1.191.469 1.797.719.648.269 1.281.562 1.929.832.922.41 1.84.828 2.762 1.257.293.133.582.293.875.43 9.477 4.641 18.386 10.863 26.246 18.723a97.08 97.08 0 0 1 18.7 26.25c.16.289.29.578.45.871.43.918.85 1.84 1.26 2.758.27.648.56 1.281.83 1.929.25.61.47 1.192.7 1.801.4.988.78 2 1.14 3.012.09.238.16.488.25.758a97.636 97.636 0 0 1 5.36 31.898c0 11.16-1.91 21.891-5.36 31.891-.09.261-.16.511-.25.781-.36 1.012-.74 2-1.14 2.988-.23.602-.45 1.211-.7 1.793-.27.649-.56 1.278-.83 1.93-.41.918-.83 1.84-1.26 2.769-.16.29-.29.579-.45.891a97.364 97.364 0 0 1-18.7 26.231 97.191 97.191 0 0 1-26.269 18.718c-.27.141-.559.289-.852.43-.922.449-1.863.852-2.805 1.281-.605.27-1.238.539-1.867.797-.625.25-1.23.5-1.859.723a94.11 94.11 0 0 1-2.942 1.129c-.269.09-.539.179-.832.269a97.422 97.422 0 0 1-31.859 5.34 97.484 97.484 0 0 1-31.855-5.34l-.809-.269a91.74 91.74 0 0 1-2.965-1.129 52.612 52.612 0 0 1-1.84-.723c-.629-.258-1.258-.527-1.886-.797-.946-.429-1.864-.832-2.805-1.281-.293-.141-.563-.289-.856-.43-9.472-4.621-18.386-10.84-26.246-18.718a97.143 97.143 0 0 1-18.722-26.231c-.137-.312-.293-.601-.426-.891a80.631 80.631 0 0 1-1.258-2.769" style="fill:#0a9ea0;fill-opacity:1;fill-rule:nonzero;stroke:none"/><path d="M224.629 496.711a70.614 70.614 0 0 1-.832-1.93c-.246-.582-.473-1.191-.719-1.793a109.87 109.87 0 0 1-1.121-2.988c-.09-.27-.18-.52-.269-.781a97.415 97.415 0 0 1-5.344-31.891 97.417 97.417 0 0 1 5.344-31.898c.089-.27.179-.52.269-.758.359-1.012.738-2.024 1.121-3.012.246-.609.473-1.191.719-1.801.269-.648.539-1.281.832-1.929.402-.918.809-1.84 1.258-2.758.133-.293.289-.582.426-.871a96.86 96.86 0 0 1 18.722-26.25 97.94 97.94 0 0 1 26.223-18.723c.316-.137.605-.297.898-.43.922-.429 1.84-.847 2.762-1.257.629-.27 1.281-.563 1.93-.832.586-.25 1.191-.469 1.797-.719.988-.379 1.976-.762 2.988-1.121.269-.09.515-.18.785-.25a97.553 97.553 0 0 1 31.879-5.36c11.183 0 21.891 1.911 31.902 5.36.27.07.52.16.766.25 1.012.359 2.019.742 3.008 1.121.605.25 1.191.469 1.797.719.652.269 1.281.562 1.929.832.922.41 1.844.828 2.762 1.257.293.133.586.293.875.43 9.477 4.641 18.387 10.863 26.246 18.723a97.222 97.222 0 0 1 18.703 26.25c.156.289.289.578.449.871.426.918.852 1.84 1.254 2.758.274.648.563 1.281.832 1.929.246.61.473 1.192.696 1.801.406.988.789 2 1.144 3.012.094.238.16.488.25.758a97.453 97.453 0 0 1 5.363 31.898 97.451 97.451 0 0 1-5.363 31.891c-.09.261-.156.511-.25.781-.355 1.012-.738 2-1.144 2.988-.223.602-.45 1.211-.696 1.793-.269.649-.558 1.278-.832 1.93-.402.918-.828 1.84-1.254 2.769-.16.29-.293.579-.449.891a97.507 97.507 0 0 1-18.703 26.231 97.176 97.176 0 0 1-26.269 18.718 24.95 24.95 0 0 1-.852.43c-.918.449-1.863.852-2.805 1.281-.605.27-1.234.539-1.863.797-.629.25-1.234.5-1.863.723-.965.39-1.953.769-2.942 1.129-.269.09-.539.179-.832.269a97.422 97.422 0 0 1-31.859 5.34 97.494 97.494 0 0 1-31.856-5.34l-.808-.269a91.74 91.74 0 0 1-2.965-1.129 52.612 52.612 0 0 1-1.84-.723c-.629-.258-1.258-.527-1.887-.797-.945-.429-1.863-.832-2.804-1.281-.293-.141-.563-.289-.856-.43-9.472-4.621-18.386-10.84-26.246-18.718a97.143 97.143 0 0 1-18.722-26.231c-.137-.312-.293-.601-.426-.891a80.631 80.631 0 0 1-1.258-2.769" style="fill:#67c1be;fill-opacity:1;fill-rule:nonzero;stroke:none"/><path d="M895.438-138.34h-537.75c-43.512 0-78.786 35.27-78.786 78.79V445.19c0 43.508 35.274 78.789 78.786 78.789h537.75c43.511 0 78.789-35.281 78.789-78.789V-59.551c0-43.519-35.278-78.789-78.789-78.789" style="fill:#67c1be;fill-opacity:1;fill-rule:nonzero;stroke:none"/></g><g clip-path="url(#e)" transform="matrix(.1352 0 0 -.13333 -1.171 216.732)"><g clip-path="url(#f)"><path d="M897.09-138.34H359.34c-43.516 0-78.789 35.27-78.789 78.79V445.19c0 43.508 35.273 78.789 78.789 78.789h537.75c43.512 0 78.789-35.281 78.789-78.789V-59.551c0-43.519-35.277-78.789-78.789-78.789" style="fill:#0a9ea0;fill-opacity:1;fill-rule:nonzero;stroke:none"/></g></g><g clip-path="url(#g)" transform="matrix(.13333 0 0 -.13333 0 216.732)"><path d="M625.285 276.539c36.699 0 66.449 29.75 66.449 66.441 0 36.7-29.75 66.45-66.449 66.45-36.695 0-66.445-29.75-66.445-66.45 0-36.691 29.75-66.441 66.445-66.441" style="fill:#0a9ea0;fill-opacity:1;fill-rule:nonzero;stroke:none"/><path d="M625.281 395.5c-28.949 0-52.504-23.559-52.504-52.512 0-28.957 23.555-52.519 52.504-52.519 28.953 0 52.516 23.562 52.516 52.519 0 28.953-23.563 52.512-52.516 52.512zm0-132.898c-44.324 0-80.383 36.058-80.383 80.386 0 44.321 36.059 80.383 80.383 80.383 44.332 0 80.387-36.062 80.387-80.383 0-44.328-36.055-80.386-80.387-80.386" style="fill:#67c1be;fill-opacity:1;fill-rule:nonzero;stroke:none"/><path d="M580.113 1137.88c0-13.25-10.738-24-23.988-24s-23.992 10.75-23.992 24c0 13.24 10.742 23.98 23.992 23.98s23.988-10.74 23.988-23.98M649.273 1137.88c0-13.25-10.738-24-23.988-24s-23.988 10.75-23.988 24c0 13.24 10.738 23.98 23.988 23.98s23.988-10.74 23.988-23.98M717.469 1137.88c0-13.25-10.742-24-23.992-24s-23.989 10.75-23.989 24c0 13.24 10.739 23.98 23.989 23.98s23.992-10.74 23.992-23.98" style="fill:#fff;fill-opacity:1;fill-rule:nonzero;stroke:none"/><path d="M806.98 763.137c5.036 7.746 8.157 16.472 8.157 25.89H682.672c0-9.418 3.121-18.144 8.156-25.89H806.98" style="fill:#171717;fill-opacity:1;fill-rule:nonzero;stroke:none"/><path d="M455.801 899.984c34.836 0 63.062 28.243 63.062 63.063 0 34.84-28.226 63.063-63.062 63.063s-63.067-28.223-63.067-63.063c0-34.82 28.231-63.063 63.067-63.063" style="fill:#d8b039;fill-opacity:1;fill-rule:nonzero;stroke:none"/><path d="M470.551 951.195c14.691 0 26.594 11.914 26.594 26.598 0 14.695-11.903 26.597-26.594 26.597-14.696 0-26.602-11.902-26.602-26.597 0-14.684 11.906-26.598 26.602-26.598" style="fill:#171717;fill-opacity:1;fill-rule:nonzero;stroke:none"/><path d="M786.602 899.984c34.836 0 63.066 28.243 63.066 63.063 0 34.84-28.23 63.063-63.066 63.063s-63.067-28.223-63.067-63.063c0-34.82 28.231-63.063 63.067-63.063" style="fill:#d8b039;fill-opacity:1;fill-rule:nonzero;stroke:none"/><path d="M801.352 951.195c14.695 0 26.597 11.914 26.597 26.598 0 14.695-11.902 26.597-26.597 26.597-14.696 0-26.598-11.902-26.598-26.597 0-14.684 11.902-26.598 26.598-26.598M517.945 1011.31H393.242v34.99h124.703v-34.99M509.832 885.652l-123.434 17.746 4.981 34.629 123.434-17.742-4.981-34.633M854.012 938.027l-123.434-17.742 4.981-34.633 123.433 17.746-4.98 34.629" style="fill:#171717;fill-opacity:1;fill-rule:nonzero;stroke:none"/></g><path d="M111.236 16.628c-.73 0-1.435.402-1.788 1.099L95.857 44.671a2 2 0 0 0 3.572 1.8l13.591-26.943a2 2 0 0 0-1.784-2.9" style="fill:#0a9ea0;fill-opacity:1;fill-rule:nonzero;stroke:none;stroke-width:.1" transform="matrix(1.33333 0 0 -1.33333 0 216.732)"/><path d="M108.669 19.026c-.53 0-1.06.21-1.453.625L88.484 39.447a2.001 2.001 0 0 0 2.906 2.75L110.123 22.4a2.002 2.002 0 0 0-1.454-3.375" style="fill:#0a9ea0;fill-opacity:1;fill-rule:nonzero;stroke:none;stroke-width:.1" transform="matrix(1.33333 0 0 -1.33333 0 216.732)"/><path d="m115.011 20.794-.03.089-.03.081c-.017.044-.034.088-.053.132l-.014.034a4.356 4.356 0 0 1-1.905 2.108l-.032.017-.127.066-.077.037-.085.04a2.853 2.853 0 0 1-.165.07 4.381 4.381 0 0 1-2.828.144c-.014-.006-.029-.01-.042-.014a3.31 3.31 0 0 1-.129-.04l-.089-.03-.08-.03a6.01 6.01 0 0 1-.133-.053l-.033-.016a4.336 4.336 0 0 1-2.108-1.905l-.018-.03a4.722 4.722 0 0 1-.065-.128l-.038-.077c-.014-.028-.026-.057-.039-.085-.019-.04-.036-.083-.054-.124l-.016-.04a4.33 4.33 0 0 1-.142-2.829l.011-.042.041-.129c.011-.029.02-.059.03-.089l.031-.08c.016-.044.034-.089.052-.133l.015-.033a4.34 4.34 0 0 1 1.905-2.107l.032-.019c.042-.023.084-.044.127-.064a1.43 1.43 0 0 1 .076-.039l.085-.039.124-.054.042-.016a4.344 4.344 0 0 1 2.828-.142c.013.004.028.007.041.012.044.012.087.027.131.041l.086.03.083.031.131.051.035.016c.434.184.844.441 1.212.775a4.3 4.3 0 0 1 .912 1.161c.023.042.043.083.065.125l.04.08.037.082c.02.042.037.083.055.126l.015.04c.175.436.284.907.308 1.402.026.495-.034.975-.165 1.426l-.012.043a4.916 4.916 0 0 1-.04.128M83.153 58.166a2.425 2.425 0 0 0-3.426.173l-8.292 9.173a2.426 2.426 0 1 0 3.599 3.253l8.292-9.173a2.425 2.425 0 0 0-.173-3.426M78.465 53.929a2.426 2.426 0 0 0-3.427.172l-1.456 1.612a2.425 2.425 0 1 0 3.599 3.253l1.456-1.61a2.426 2.426 0 0 0-.172-3.427M73.776 49.69a2.427 2.427 0 0 0-3.426.173l-1.457 1.612a2.427 2.427 0 0 0 3.599 3.253l1.457-1.61a2.427 2.427 0 0 0-.173-3.428M91.931 51.909l-.005.005-5.83 6.45-12.894-11.656 5.828-6.447.007-.008A8.69 8.69 0 0 1 91.931 51.91" style="fill:#67c1be;fill-opacity:1;fill-rule:nonzero;stroke:none;stroke-width:.1" transform="matrix(1.33333 0 0 -1.33333 0 216.732)"/><path d="M15.8 40.943c0 4.412 1.388 6.456 4.41 6.456 2.453 0 3.597-1.063 3.597-3.432 0-6.292-8.989-7.599-8.989-19.774h13.647c0 8.579 12.256 10.95 12.256 22.797 0 9.397-6.945 14.872-18.793 14.872-12.748 0-20.183-7.764-20.183-20.919h14.054" style="fill:#fff;fill-opacity:1;fill-rule:nonzero;stroke:none;stroke-width:.1" transform="matrix(1.33333 0 0 -1.33333 0 216.732)"/><path d="M16.632 25.936h10.235c.633 3.707 3.226 6.342 5.744 8.9 3.273 3.326 6.365 6.468 6.365 12.154 0 8.343-6.214 13.128-17.048 13.128-11.147 0-17.772-6.325-18.391-17.43h10.6c.532 5.283 3.525 6.454 6.074 6.454 3.444 0 5.34-1.837 5.34-5.175 0-3.297-1.955-5.485-3.845-7.601-2.287-2.559-4.645-5.198-5.074-10.43zm11.833-3.488H14.818c-.963 0-1.744.78-1.744 1.744 0 7.749 3.344 11.49 6.03 14.499 1.89 2.114 2.958 3.402 2.958 5.276 0 1.286-.255 1.687-1.851 1.687-.998 0-2.667 0-2.667-4.711 0-.964-.781-1.744-1.745-1.744H1.745c-.964 0-1.745.78-1.745 1.744 0 14.192 8.197 22.663 21.928 22.663 12.86 0 20.537-6.212 20.537-16.616 0-7.116-3.914-11.093-7.367-14.6-2.623-2.666-4.889-4.967-4.889-8.198 0-.964-.78-1.744-1.744-1.744" style="fill:#171717;fill-opacity:1;fill-rule:nonzero;stroke:none;stroke-width:.1" transform="matrix(1.33333 0 0 -1.33333 0 216.732)"/><path d="M30.609 9.92a8.176 8.176 0 0 0-8.177-8.176 8.176 8.176 0 0 0 0 16.352A8.176 8.176 0 0 0 30.61 9.92" style="fill:#fff;fill-opacity:1;fill-rule:nonzero;stroke:none;stroke-width:.1" transform="matrix(1.33333 0 0 -1.33333 0 216.732)"/><path d="M22.432 16.352a6.439 6.439 0 0 1-6.43-6.432 6.44 6.44 0 0 1 6.43-6.432 6.44 6.44 0 0 1 6.433 6.432 6.44 6.44 0 0 1-6.433 6.432zm0-16.352c-5.47 0-9.92 4.45-9.92 9.92 0 5.471 4.45 9.921 9.92 9.921s9.922-4.45 9.922-9.921c0-5.47-4.451-9.92-9.922-9.92" style="fill:#171717;fill-opacity:1;fill-rule:nonzero;stroke:none;stroke-width:.1" transform="matrix(1.33333 0 0 -1.33333 0 216.732)"/></svg>