<svg version="1.1" viewBox="0 0 104.27 165.881" xmlns="http://www.w3.org/2000/svg"><defs id="defs3526"><clipPath id="clippath"><path class="cls-10" d="M104.5 96.57 104.56 0H0v96.51c0 28.79 23.41 52.14 52.28 52.14s52.28-23.34 52.28-52.14z" id="path3515"/></clipPath><clipPath id="clippath-1"><path class="cls-10" d="M25.24 39.73c-4.61 0-8.34 3.72-8.34 8.32v47.3c0 4.6 3.73 8.32 8.34 8.32h53.39c4.61 0 8.34-3.72 8.34-8.32v-47.3c0-4.6-3.74-8.32-8.34-8.32z" id="path3518"/></clipPath><clipPath id="clippath-2"><path class="cls-10" d="M52.28 105.96h45.17v75.68H52.28Z" id="path3521"/></clipPath><style id="style3524">.cls-1{fill:#fff}.cls-3{fill:#67c1be}.cls-4{fill:#0a9ea0}.cls-7{fill:#e2b847}.cls-10{fill:none}.cls-12{fill:#1d1d1b}</style></defs><g clip-path="url(#clippath)" id="g3568" transform="translate(-.29 17.231)"><path d="M52.42 148.7c28.79 0 52.14-23.34 52.14-52.14S81.22 44.42 52.42 44.42.29 67.77.29 96.56s23.34 52.14 52.14 52.14" style="fill:#784176" id="path3528"/><path d="m8.23 153.71 6.51-30.65m74.59 0 6.51 30.65" id="path3530" style="fill:none;stroke:#0a9ea0;stroke-width:4.01px;stroke-linecap:round"/><path class="cls-3" d="M59.8 8.14c0-4.3-3.51-7.8-7.82-7.8-4.31 0-7.82 3.5-7.82 7.8 0 3.72 2.62 6.83 6.12 7.61v24.83h3.4V15.75c3.49-.78 6.12-3.89 6.12-7.61zm-7.82 4.4c-2.43 0-4.41-1.97-4.41-4.4 0-2.43 1.98-4.4 4.41-4.4s4.41 1.97 4.41 4.4c0 2.43-1.98 4.4-4.41 4.4zM37.45 18.2c0-4.3-3.51-7.8-7.82-7.8-4.31 0-7.82 3.5-7.82 7.8s3.51 7.8 7.82 7.8c1.52 0 2.93-.44 4.13-1.19l8.34 9.1v13.77h3.4v-15.1l-9.32-10.16a7.752 7.752 0 0 0 1.26-4.22zm-12.23 0c0-2.42 1.98-4.4 4.41-4.4s4.41 1.97 4.41 4.4c0 2.43-1.98 4.4-4.41 4.4s-4.41-1.97-4.41-4.4z" id="path3532"/><path class="cls-4" d="M74.53 10.4c-4.31 0-7.82 3.5-7.82 7.8 0 1.56.46 3.01 1.26 4.22l-9.32 10.16v15.1h3.4V33.91l8.34-9.1c1.2.75 2.61 1.19 4.13 1.19 4.31 0 7.82-3.5 7.82-7.8s-3.51-7.8-7.82-7.8zm0 12.2c-2.43 0-4.41-1.97-4.41-4.4 0-2.43 1.98-4.4 4.41-4.4s4.41 1.97 4.41 4.4c0 2.43-1.98 4.4-4.41 4.4zm-36.6 64.48v48.54c0 3.61 2.93 6.53 6.55 6.53h17.14c3.62 0 6.55-2.93 6.55-6.53V87.08M17.63 56.57a6.66 6.66 0 0 0-6.67 6.66v6.66c0 3.67 2.99 6.65 6.67 6.65h69.61c3.69 0 6.67-2.98 6.67-6.65v-6.66c0-3.68-2.99-6.66-6.67-6.66H17.63Z" id="path3534"/><path class="cls-3" d="M25.24 39.73c-4.61 0-8.34 3.73-8.34 8.32v47.3c0 4.6 3.74 8.32 8.34 8.32h53.39c4.61 0 8.34-3.72 8.34-8.32v-47.3c0-4.6-3.74-8.32-8.34-8.32z" id="path3536"/><path class="cls-4" d="M51.94 36.4h51.1v86.11h-51.1z" clip-path="url(#clippath-1)" id="path3538"/><path class="cls-12" d="M26.66 54.98c-2.3 0-4.17 1.86-4.17 4.16v13.73c0 2.3 1.87 4.16 4.17 4.16h49.92c2.3 0 4.17-1.86 4.17-4.16V59.14c0-2.3-1.87-4.16-4.17-4.16z" id="path3540"/><path class="cls-4" d="M75.17 113.22c-.03.07-.06.13-.08.19-.02.06-.05.12-.07.18-.04.1-.08.2-.11.3 0 .03-.02.05-.03.08-.35 1-.54 2.07-.54 3.19s.19 2.19.54 3.19c0 .03.02.05.03.08.04.1.07.2.11.3.02.06.05.12.07.18.03.07.05.13.08.19.04.09.08.18.13.28.01.03.03.06.04.09.46.95 1.09 1.84 1.88 2.62.79.79 1.68 1.41 2.63 1.87.03.01.06.03.09.04.09.04.18.09.28.13.06.03.13.06.19.08.06.02.12.05.18.07.1.04.2.08.3.11.03 0 .05.02.08.02 1 .35 2.08.54 3.2.54s2.19-.19 3.2-.54c.03 0 .05-.02.08-.02.1-.04.2-.07.3-.11.06-.02.12-.05.18-.07.07-.03.13-.06.19-.08.09-.04.18-.08.28-.13.03-.01.06-.03.09-.04.95-.46 1.84-1.09 2.63-1.87.79-.79 1.41-1.67 1.88-2.62.02-.03.03-.06.05-.09.04-.09.09-.18.13-.28.03-.07.06-.13.08-.19.02-.06.05-.12.07-.18.04-.1.08-.2.11-.3 0-.02.02-.05.02-.08.35-1 .54-2.07.54-3.19s-.19-2.19-.54-3.19c0-.03-.02-.05-.02-.08-.04-.1-.07-.2-.11-.3-.02-.06-.05-.12-.07-.18-.03-.07-.06-.13-.08-.19-.04-.09-.08-.18-.13-.28-.02-.03-.03-.06-.05-.09a9.506 9.506 0 0 0-1.88-2.62 9.664 9.664 0 0 0-2.63-1.87c-.03-.01-.06-.03-.09-.04-.09-.04-.19-.09-.28-.13-.06-.03-.12-.05-.19-.08-.06-.02-.12-.05-.19-.07-.1-.04-.2-.08-.29-.11-.03 0-.05-.02-.08-.03-1-.35-2.08-.53-3.19-.53-1.11 0-2.19.19-3.19.53l-.08.03c-.1.04-.2.07-.3.11-.06.02-.12.05-.18.07l-.19.08c-.09.04-.19.08-.28.13-.03.01-.06.03-.09.04-.95.46-1.84 1.08-2.63 1.87-.79.79-1.41 1.67-1.88 2.62-.01.03-.03.06-.04.09-.05.09-.09.18-.13.28" id="path3542"/><path class="cls-3" d="M11.81 113.22c-.03.07-.06.13-.08.19-.02.06-.05.12-.07.18-.04.1-.08.2-.11.3 0 .03-.02.05-.03.08-.35 1-.54 2.07-.54 3.19s.19 2.19.54 3.19c0 .03.02.05.03.08.04.1.07.2.11.3.02.06.05.12.07.18.03.07.05.13.08.19.04.09.08.18.13.28.01.03.03.06.04.09.46.95 1.09 1.84 1.88 2.62.79.79 1.68 1.41 2.63 1.87.03.01.06.03.09.04.09.04.18.09.28.13.06.03.13.06.19.08.06.02.12.05.18.07.1.04.2.08.3.11.03 0 .05.02.08.02 1 .35 2.08.54 3.2.54s2.19-.19 3.2-.54c.03 0 .05-.02.08-.02.1-.04.2-.07.3-.11.06-.02.12-.05.18-.07.07-.03.13-.06.19-.08.09-.04.18-.08.28-.13.03-.01.06-.03.09-.04.95-.46 1.84-1.09 2.63-1.87.79-.79 1.41-1.67 1.88-2.62.02-.03.03-.06.05-.09.04-.09.09-.18.13-.28.03-.07.06-.13.08-.19.02-.06.05-.12.07-.18.04-.1.08-.2.11-.3 0-.02.02-.05.02-.08.35-1 .54-2.07.54-3.19s-.19-2.19-.54-3.19c0-.03-.02-.05-.02-.08-.04-.1-.07-.2-.11-.3-.02-.06-.05-.12-.07-.18-.03-.07-.06-.13-.08-.19-.04-.09-.08-.18-.13-.28-.02-.03-.03-.06-.05-.09a9.506 9.506 0 0 0-1.88-2.62 9.664 9.664 0 0 0-2.63-1.87c-.03-.01-.06-.03-.09-.04-.09-.04-.19-.09-.28-.13-.06-.03-.12-.05-.19-.08-.06-.02-.12-.05-.19-.07-.1-.04-.2-.08-.29-.11-.03 0-.05-.02-.08-.03-1-.35-2.08-.53-3.19-.53-1.11 0-2.19.19-3.19.53l-.08.03c-.1.04-.2.07-.3.11-.06.02-.12.05-.18.07l-.19.08c-.09.04-.19.08-.28.13-.03.01-.06.03-.09.04-.95.46-1.84 1.08-2.63 1.87-.79.79-1.41 1.67-1.88 2.62-.01.03-.03.06-.04.09-.05.09-.09.18-.13.28" id="path3544"/><rect class="cls-3" x="17.25" y="110.49" width="69.72" height="66.23" rx="7.88" ry="7.88" id="rect3546"/><rect class="cls-4" x="17.42" y="110.49" width="69.72" height="66.23" rx="7.88" ry="7.88" clip-path="url(#clippath-2)" id="rect3548"/><path d="M51.99 135.24c3.68 0 6.66-2.97 6.66-6.64 0-3.67-2.98-6.64-6.66-6.64s-6.66 2.97-6.66 6.64c0 3.67 2.98 6.64 6.66 6.64" style="fill:#0a9ea0;stroke:#67c1be;stroke-width:2.79px" id="path3550"/><path class="cls-12" d="M35.21 83.77c2.35 6.75 8.77 11.61 16.34 11.61s14-4.85 16.34-11.61z" id="path3552"/><path class="cls-7" d="M34.97 72.79c3.49 0 6.32-2.82 6.32-6.31 0-3.49-2.83-6.31-6.32-6.31s-6.32 2.82-6.32 6.31c0 3.49 2.83 6.31 6.32 6.31" id="path3554"/><path class="cls-12" d="M34.97 69.15c1.47 0 2.67-1.19 2.67-2.66 0-1.47-1.19-2.66-2.67-2.66a2.661 2.661 0 1 0 0 5.32" id="path3556"/><path class="cls-7" d="M68.14 72.79c3.49 0 6.32-2.82 6.32-6.31 0-3.49-2.83-6.31-6.32-6.31s-6.32 2.82-6.32 6.31c0 3.49 2.83 6.31 6.32 6.31" id="path3558"/><path class="cls-12" d="M68.14 69.15c1.47 0 2.67-1.19 2.67-2.66 0-1.47-1.19-2.66-2.67-2.66a2.661 2.661 0 1 0 0 5.32M25.3 70.16h51.04v4.37H25.3Z" id="path3560"/><ellipse class="cls-1" cx="45.05" cy="49.1" rx="2.41" ry="2.4" id="ellipse3562"/><ellipse class="cls-1" cx="51.99" cy="49.1" rx="2.41" ry="2.4" id="ellipse3564"/><ellipse class="cls-1" cx="58.82" cy="49.1" rx="2.41" ry="2.4" id="ellipse3566"/></g></svg>