<svg version="1.1" viewBox="0 0 175 248.7" xmlns="http://www.w3.org/2000/svg"><defs><clipPath clipPathUnits="userSpaceOnUse" id="a"><path d="m1111.97 620.609.56 1116.071H69.84V621.191c0-284.429 233.418-515.011 521.359-515.011 287.942 0 521.361 230.582 521.361 515.011z"/></clipPath><clipPath clipPathUnits="userSpaceOnUse" id="b"><path d="m1111.97 620.609.56 1116.071H69.84V621.191c0-284.429 233.418-515.011 521.359-515.011 287.942 0 521.361 230.582 521.361 515.011z"/></clipPath><clipPath clipPathUnits="userSpaceOnUse" id="c"><path d="M893.855-212.371H595.52v821.922h298.335z"/></clipPath><clipPath clipPathUnits="userSpaceOnUse" id="d"><path d="m1111.97 620.609.56 1116.071H69.84V621.191c0-284.429 233.418-515.011 521.359-515.011 287.942 0 521.361 230.582 521.361 515.011z"/></clipPath><clipPath clipPathUnits="userSpaceOnUse" id="e"><path d="m1111.97 620.609.56 1116.071H69.84V621.191c0-284.429 233.418-515.011 521.359-515.011 287.942 0 521.361 230.582 521.361 515.011z"/></clipPath><clipPath clipPathUnits="userSpaceOnUse" id="f"><path d="M330.609 1207.97c-45.109 0-81.671-36.56-81.671-81.67V721.129c0-45.109 36.562-81.668 81.671-81.668h522.68c45.102 0 81.672 36.559 81.672 81.668V1126.3c0 45.11-36.57 81.67-81.672 81.67z"/></clipPath><clipPath clipPathUnits="userSpaceOnUse" id="g"><path d="m1111.97 620.609.56 1116.071H69.84V621.191c0-284.429 233.418-515.011 521.359-515.011 287.942 0 521.361 230.582 521.361 515.011z"/></clipPath></defs><path d="M59.12 10.618c28.794 0 52.136 23.342 52.136 52.136 0 28.794-23.342 52.136-52.136 52.136-28.794 0-52.136-23.342-52.136-52.136 0-28.794 23.342-52.136 52.136-52.136" style="fill:#d07435;fill-opacity:1;fill-rule:nonzero;stroke:none;stroke-width:.1" transform="matrix(1.33333 0 0 -1.33333 0 231.56)"/><g clip-path="url(#a)" transform="matrix(.13333 0 0 -.13333 0 231.56)"><path d="M444.191 808.465V323.012c0-36.082 29.25-65.332 65.329-65.332h170.91c36.082 0 65.332 29.25 65.332 65.332v485.453" style="fill:#0a9ea0;fill-opacity:1;fill-rule:nonzero;stroke:none"/><path d="M879.363 482.82v-597.968c0-53.692-43.523-97.223-97.215-97.223h-372.41c-53.691 0-97.215 43.531-97.215 97.223V482.82c0 53.692 43.524 97.211 97.215 97.211h372.41c53.692 0 97.215-43.519 97.215-97.211" style="fill:#67c1be;fill-opacity:1;fill-rule:nonzero;stroke:none"/></g><g clip-path="url(#b)" transform="matrix(.13333 0 0 -.13333 0 231.56)"><g clip-path="url(#c)"><path d="M878.938 485.781v-600.929c0-53.692-43.524-97.223-97.211-97.223H409.313c-53.688 0-97.211 43.531-97.211 97.223v600.929c0 53.688 43.523 97.207 97.211 97.207h372.414c53.687 0 97.211-43.519 97.211-97.207" style="fill:#0a9ea0;fill-opacity:1;fill-rule:nonzero;stroke:none"/></g></g><g clip-path="url(#d)" transform="matrix(.13333 0 0 -.13333 0 231.56)"><path d="M963.418 512.531v-65.793c0-38.418-31.145-69.566-69.566-69.566H757.539c-38.422 0-69.566 31.148-69.566 69.566v65.793c0 38.418 31.144 69.559 69.566 69.559h136.313c38.421 0 69.566-31.141 69.566-69.559" style="fill:#0a9ea0;fill-opacity:1;fill-rule:nonzero;stroke:none"/><path d="M748.59 377.172V151.191c0-38.421-31.145-69.562-69.567-69.562H519.836c-38.418 0-69.566 31.141-69.566 69.562v225.981c0 38.418 31.148 69.566 69.566 69.566h159.187c38.422 0 69.567-31.148 69.567-69.566" style="fill:#67c1be;fill-opacity:1;fill-rule:nonzero;stroke:none"/><path d="M519.84 431.73c-30.09 0-54.57-24.468-54.57-54.558V151.199c0-30.09 24.48-54.57 54.57-54.57h159.183c30.086 0 54.571 24.48 54.571 54.57v225.973c0 30.09-24.485 54.558-54.571 54.558zM679.023 66.629H519.84c-46.633 0-84.57 37.93-84.57 84.57v225.973c0 46.629 37.937 84.558 84.57 84.558h159.183c46.629 0 84.571-37.929 84.571-84.558V151.199c0-46.64-37.942-84.57-84.571-84.57" style="fill:#0a9ea0;fill-opacity:1;fill-rule:nonzero;stroke:none"/><path d="M387.203 1340.98c22.074-18.23 46.352-36.29 72.211-53.73 2.164-31.06 5.664-61.12 10.422-89.39-20.93-6.88-40.973-12.34-59.617-16.24-60.031-12.56-102.66-8.3-114.043 11.39-11.371 19.71 6.262 58.76 47.164 104.47 12.715 14.21 27.465 28.84 43.863 43.5zm0 44.74c-16.34 14.59-31.086 29.22-43.863 43.5-40.906 45.7-58.535 84.75-47.164 104.45 7.062 12.23 26.152 18.51 53.98 18.51 17.012 0 37.285-2.34 60.063-7.12 18.629-3.89 38.676-9.36 59.617-16.24-4.758-28.27-8.258-58.33-10.422-89.39-25.781-17.38-50.062-35.44-72.211-53.71zm70.094-55.68c-15.324 10.92-30.035 22.1-43.828 33.3 13.758 11.19 28.472 22.37 43.828 33.32-.332-11.29-.504-22.47-.504-33.32 0-10.86.172-22.03.504-33.3zm133.91 185.49c-27.953 13.63-55.738 25.63-82.633 35.67 4.489 21.5 9.778 41.59 15.735 59.74 19.136 58.27 44.148 93.06 66.898 93.06 22.746 0 47.746-34.79 66.891-93.05 5.965-18.21 11.257-38.31 15.742-59.75-26.906-10.04-54.692-22.04-82.633-35.67zm0-266.41a1066.502 1066.502 0 0 0-50.223 27.25 1079.14 1079.14 0 0 0-48.714 29.86c-.993 18.7-1.493 37.9-1.493 57.11 0 19.2.5 38.41 1.493 57.12a1090.869 1090.869 0 0 0 48.714 29.86 1075.764 1075.764 0 0 0 50.223 27.25 1085.791 1085.791 0 0 0 50.211-27.25c16.57-9.57 32.957-19.62 48.711-29.86.992-18.85 1.504-38.06 1.504-57.12 0-19.06-.512-38.27-1.504-57.11-15.715-10.23-32.102-20.27-48.711-29.86a1076.354 1076.354 0 0 0-50.211-27.25zm82.633-73.64c-4.492-21.46-9.785-41.55-15.742-59.73-19.145-58.27-44.153-93.07-66.891-93.07-22.75 0-47.762 34.8-66.898 93.07-5.957 18.14-11.246 38.22-15.735 59.73 26.856 10.04 54.641 22.04 82.633 35.69 27.981-13.65 55.766-25.65 82.633-35.69zm-15.434 304.27a1158.198 1158.198 0 0 1-29.097 16.22c17.129 7.81 34.168 14.96 50.75 21.29 2.824-17.62 5.144-35.95 6.933-54.6a1129.406 1129.406 0 0 1-28.586 17.09zm-163-17.09c1.797 18.73 4.125 37.07 6.938 54.6 16.636-6.35 33.672-13.5 50.746-21.29a1154.638 1154.638 0 0 1-29.098-16.22 1118.642 1118.642 0 0 1-28.586-17.09zm28.586-215.71c9.321-5.39 19.082-10.84 29.098-16.23-17.133-7.81-34.168-14.96-50.746-21.3-2.813 17.54-5.141 35.87-6.938 54.6 9.434-5.83 19.028-11.56 28.586-17.07zm163 17.07c-1.789-18.64-4.109-36.97-6.933-54.6-16.524 6.32-33.567 13.47-50.75 21.3 10 5.39 19.773 10.83 29.097 16.23 9.668 5.58 19.262 11.31 28.586 17.07zm36.004 23.23c25.883 17.46 50.156 35.53 72.207 53.73 16.445-14.71 31.203-29.34 43.867-43.5 40.903-45.71 58.52-84.76 47.153-104.47-11.368-19.7-54.016-23.97-114.055-11.39-18.621 3.9-38.66 9.36-59.602 16.24 4.747 28.24 8.254 58.3 10.43 89.39zm72.207 98.47c-22.129 18.25-46.402 36.31-72.207 53.71-2.176 31.09-5.683 61.15-10.43 89.39 20.95 6.89 40.989 12.35 59.602 16.24 22.344 4.68 42.422 7.05 59.68 7.05 28.203 0 47.515-6.54 54.375-18.44 11.375-19.7-6.25-58.75-47.153-104.45-12.722-14.23-27.476-28.86-43.867-43.5zm-70.098 10.93c15.383-10.97 30.098-22.15 43.821-33.31-13.75-11.18-28.465-22.36-43.821-33.3a1109.437 1109.437 0 0 1 0 66.61zm139.282-76.52c-12.629 14.11-27.18 28.64-43.282 43.21 16.09 14.56 30.641 29.09 43.282 43.22 67.547 75.48 65.156 120.03 51.258 144.1-13.907 24.07-51.27 48.41-150.418 27.66-18.594-3.89-38.45-9.22-59.067-15.86-4.558 21.2-9.871 41.06-15.789 59.08-31.601 96.24-71.367 116.44-99.164 116.44-27.805 0-67.578-20.2-99.18-116.44-5.937-18.12-11.246-37.98-15.781-59.08-20.621 6.64-40.48 11.97-59.058 15.86-99.168 20.75-136.528-3.58-150.426-27.66-13.907-24.07-16.297-68.62 51.25-144.1 12.668-14.16 27.222-28.69 43.277-43.22-16.07-14.55-30.621-29.07-43.281-43.21-67.547-75.49-65.153-120.03-51.246-144.11 9.351-16.2 31.461-35.52 83.691-35.52 19.344 0 41.797 2.65 66.735 7.86 18.531 3.88 38.382 9.22 59.058 15.88 4.539-21.13 9.848-40.99 15.785-59.09 31.59-96.24 71.367-116.439 99.176-116.439 27.797 0 67.563 20.199 99.164 116.439 5.918 17.99 11.223 37.86 15.789 59.09 20.664-6.66 40.528-12 59.067-15.88 24.918-5.21 47.371-7.86 66.726-7.86 52.207 0 74.336 19.32 83.699 35.52 13.891 24.08 16.274 68.63-51.265 144.11" style="fill:#67c1be;fill-opacity:1;fill-rule:nonzero;stroke:none"/><path d="M631.145 1353.98c.128.29.25.57.371.86.109.26.207.53.32.8.168.44.34.88.5 1.33.039.12.078.23.117.35a43.381 43.381 0 0 1 2.383 14.2 43.44 43.44 0 0 1-2.5 14.55c-.16.45-.332.9-.5 1.34-.113.27-.211.53-.32.8-.121.29-.243.57-.371.86-.18.41-.36.82-.559 1.23-.063.13-.133.26-.191.39a43.16 43.16 0 0 1-8.34 11.69c-3.5 3.5-7.461 6.27-11.68 8.34-.141.06-.27.13-.402.19-.41.19-.821.38-1.231.56-.277.12-.566.25-.859.37-.258.11-.528.21-.797.32-.441.17-.883.34-1.332.5-.121.04-.231.08-.352.11a43.429 43.429 0 0 1-28.41 0c-.117-.03-.226-.07-.34-.11-.449-.16-.898-.33-1.339-.5-.27-.11-.528-.21-.797-.32-.293-.12-.571-.25-.864-.37-.41-.18-.816-.37-1.226-.56-.133-.06-.262-.13-.391-.19a43.705 43.705 0 0 1-11.691-8.34c-3.5-3.5-6.27-7.46-8.328-11.69-.071-.13-.133-.26-.203-.39-.188-.41-.379-.82-.559-1.23-.121-.29-.25-.57-.371-.86-.11-.27-.207-.53-.309-.8-.179-.44-.351-.89-.511-1.34-.04-.11-.071-.22-.11-.34a43.445 43.445 0 0 1-2.39-14.21c0-4.97.851-9.75 2.39-14.2.039-.12.07-.23.11-.35.16-.45.332-.89.511-1.33.102-.27.199-.54.309-.8.121-.29.25-.57.371-.86.18-.41.371-.82.559-1.23.07-.13.132-.26.203-.4a43.374 43.374 0 0 1 8.328-11.68 43.349 43.349 0 0 1 11.699-8.34c.121-.06.25-.13.383-.19.41-.2.828-.38 1.25-.57.269-.12.547-.24.828-.36.281-.11.551-.22.832-.32.43-.17.867-.34 1.309-.5.121-.04.238-.08.371-.12a43.276 43.276 0 0 1 14.187-2.38c4.961 0 9.742.84 14.192 2.38l.359.12c.449.16.879.33 1.32.5.27.1.551.21.821.32l.839.36c.418.19.829.37 1.25.57.129.06.25.13.379.19a43.255 43.255 0 0 1 11.692 8.34 43.268 43.268 0 0 1 8.34 11.68c.058.14.128.27.191.4.199.41.379.82.559 1.23" style="fill:#0a9ea0;fill-opacity:1;fill-rule:nonzero;stroke:none"/><path d="M608.203 1137.43h-34.004v257.81h34.004v-257.81" style="fill:#0a9ea0;fill-opacity:1;fill-rule:nonzero;stroke:none"/><path d="M440.414 756.664c0-36.086 29.25-65.344 65.328-65.344h170.91c36.082 0 65.332 29.258 65.332 65.344v485.446c0 36.09-29.25 65.34-65.332 65.34h-170.91c-36.078 0-65.328-29.25-65.328-65.34V756.664" style="fill:#0a9ea0;fill-opacity:1;fill-rule:nonzero;stroke:none"/><path d="M166.414 1042.59c-36.078 0-65.34-29.25-65.34-65.332v-65.34c0-36.082 29.262-65.34 65.34-65.34h857.136c36.08 0 65.33 29.258 65.33 65.34v65.34c0 36.082-29.25 65.332-65.33 65.332H166.414" style="fill:#0a9ea0;fill-opacity:1;fill-rule:nonzero;stroke:none"/><path d="M330.609 1207.97c-45.101 0-81.671-36.56-81.671-81.67V721.129c0-45.098 36.57-81.668 81.671-81.668h522.68c45.109 0 81.668 36.57 81.668 81.668V1126.3c0 45.11-36.559 81.67-81.668 81.67h-522.68" style="fill:#67c1be;fill-opacity:1;fill-rule:nonzero;stroke:none"/></g><g clip-path="url(#e)" transform="matrix(.13333 0 0 -.13333 0 231.56)"><g clip-path="url(#f)"><path d="M591.949 395.359h500.221v845.271H591.949V395.359" style="fill:#0a9ea0;fill-opacity:1;fill-rule:nonzero;stroke:none"/></g></g><g clip-path="url(#g)" transform="matrix(.13333 0 0 -.13333 0 231.56)"><path d="M330.008 693.84c13.25 0 23.992 10.738 23.992 23.988s-10.742 23.996-23.992 23.996-23.988-10.746-23.988-23.996c0-13.25 10.738-23.988 23.988-23.988M398.688 693.84c13.25 0 23.988 10.738 23.988 23.988s-10.738 23.996-23.988 23.996-23.993-10.746-23.993-23.996c0-13.25 10.743-23.988 23.993-23.988M799.852 693.84c13.25 0 23.992 10.738 23.992 23.988s-10.742 23.996-23.992 23.996-23.989-10.746-23.989-23.996c0-13.25 10.739-23.988 23.989-23.988M868.531 693.84c13.25 0 23.989 10.738 23.989 23.988s-10.739 23.996-23.989 23.996-23.992-10.746-23.992-23.996c0-13.25 10.742-23.988 23.992-23.988M524.215 1092.99c13.25 0 23.988 10.74 23.988 23.99 0 13.25-10.738 23.98-23.988 23.98s-23.992-10.73-23.992-23.98 10.742-23.99 23.992-23.99M592.891 1092.99c13.25 0 23.988 10.74 23.988 23.99 0 13.25-10.738 23.98-23.988 23.98s-23.993-10.73-23.993-23.98 10.743-23.99 23.993-23.99M661.566 1092.99c13.25 0 23.993 10.74 23.993 23.99 0 13.25-10.743 23.98-23.993 23.98-13.25 0-23.988-10.73-23.988-23.98s10.738-23.99 23.988-23.99" style="fill:#171717;fill-opacity:1;fill-rule:nonzero;stroke:none"/><path d="M761.973 833.66c48.879 0 88.5 39.617 88.5 88.5 0 48.879-39.621 88.5-88.5 88.5s-88.5-39.621-88.5-88.5c0-48.883 39.621-88.5 88.5-88.5M413.559 833.66c48.879 0 88.5 39.617 88.5 88.5 0 48.879-39.621 88.5-88.5 88.5s-88.5-39.621-88.5-88.5c0-48.883 39.621-88.5 88.5-88.5" style="fill:#fff;fill-opacity:1;fill-rule:nonzero;stroke:none"/><path d="M775.41 925.281c12.953 0 23.442 10.5 23.442 23.438 0 12.953-10.489 23.441-23.442 23.441-12.949 0-23.437-10.488-23.437-23.441 0-12.938 10.488-23.438 23.437-23.438M426.996 925.281c12.953 0 23.442 10.5 23.442 23.438 0 12.953-10.489 23.441-23.442 23.441-12.949 0-23.437-10.488-23.437-23.441 0-12.938 10.488-23.438 23.437-23.438" style="fill:#171717;fill-opacity:1;fill-rule:nonzero;stroke:none"/><path d="M313.426 903.512c10.125-51.582 51.078-90.211 100.133-90.211 49.054 0 90.004 38.629 100.129 90.211H313.426" style="fill:#0a9ea0;fill-opacity:1;fill-rule:nonzero;stroke:none"/><path d="M326.621 903.512c8.789-39.942 44.348-69.852 86.938-69.852 42.589 0 78.144 29.91 86.933 69.852H326.621M675.156 903.512c8.793-39.942 44.348-69.852 86.938-69.852s78.144 29.91 86.937 69.852H675.156" style="fill:#67c1be;fill-opacity:1;fill-rule:nonzero;stroke:none"/><path d="M498.152 977.387c-19.308 30.003-50.683 49.583-86.218 49.623-35.996.04-67.75-20-87.055-50.627l173.273 1.004" style="fill:#0a9ea0;fill-opacity:1;fill-rule:nonzero;stroke:none"/><path d="M483.277 976.473c-17.5 19.14-42.609 31.207-70.597 31.237-28.477.03-54.032-12.37-71.614-32.058l142.211.821M694.66 980.109c16.344 18.379 40 30.141 66.543 30.541 27.004.4 51.402-11.029 68.328-29.47l-134.871-1.071" style="fill:#67c1be;fill-opacity:1;fill-rule:nonzero;stroke:none"/><path d="M721.594 770.832c3.926 7.281 6.359 15.488 6.359 24.34H624.676c0-8.852 2.433-17.059 6.359-24.34h90.559" style="fill:#171717;fill-opacity:1;fill-rule:nonzero;stroke:none"/><path d="M1099.17 224.172c-.1.297-.2.59-.31.879-.09.269-.2.539-.29.808-.17.442-.34.879-.53 1.321-.05.121-.09.23-.14.34a43.195 43.195 0 0 1-7.76 12.128 43.415 43.415 0 0 1-11.29 8.954c-.11.058-.22.109-.32.168-.42.23-.85.449-1.27.66-.26.121-.51.25-.77.379-.29.132-.56.261-.85.39-.41.18-.82.36-1.24.531-.14.059-.28.11-.41.168a43.148 43.148 0 0 1-14.02 3.071c-4.95.25-9.74-.348-14.26-1.641-.14-.047-.29-.09-.42-.129-.44-.129-.87-.269-1.29-.41-.29-.098-.59-.187-.89-.301-.27-.09-.53-.199-.81-.297-.44-.171-.88-.339-1.32-.519-.11-.051-.22-.094-.33-.152a43.313 43.313 0 0 1-12.14-7.75 43.609 43.609 0 0 1-8.94-11.301c-.07-.11-.12-.207-.18-.309-.22-.422-.44-.851-.65-1.269-.13-.27-.26-.512-.38-.782-.14-.281-.26-.57-.39-.847-.19-.41-.36-.821-.54-1.242-.06-.129-.11-.27-.16-.399a43.844 43.844 0 0 1-3.08-14.031 43.3 43.3 0 0 1 1.66-14.262c.03-.137.08-.277.11-.418.14-.43.27-.859.41-1.289.11-.293.2-.59.3-.883.1-.277.2-.539.31-.797.16-.453.34-.902.52-1.339.04-.114.1-.211.15-.332 1.85-4.34 4.41-8.45 7.75-12.141a43.445 43.445 0 0 1 11.3-8.93c.11-.058.2-.129.31-.187.42-.223.85-.442 1.27-.641.26-.141.52-.269.77-.391.28-.128.57-.25.85-.39.41-.18.83-.36 1.24-.531.14-.047.27-.11.42-.168a43.443 43.443 0 0 1 14.01-3.082c4.96-.25 9.75.363 14.27 1.66.13.043.28.07.41.121.44.121.87.269 1.31.41.28.09.57.191.86.289l.83.32c.43.161.87.332 1.31.512.11.051.23.098.35.16a43.076 43.076 0 0 1 12.12 7.75 43.011 43.011 0 0 1 8.93 11.278c.07.113.13.222.19.332.23.418.43.839.64 1.257.14.25.27.524.4.782.13.281.25.558.38.832.18.429.37.84.55 1.269.05.129.09.258.15.391a43.223 43.223 0 0 1 3.08 14.027c.26 4.949-.34 9.742-1.65 14.25-.05.153-.08.289-.12.43-.13.441-.27.859-.41 1.293" style="fill:#0a9ea0;fill-opacity:1;fill-rule:nonzero;stroke:none"/></g><path d="M106.524 18.504c-.739 0-1.449.41-1.796 1.119L90.914 47.738a2 2 0 0 0 3.59 1.763l13.813-28.115a1.999 1.999 0 0 0-1.793-2.882" style="fill:#0a9ea0;fill-opacity:1;fill-rule:nonzero;stroke:none;stroke-width:.1" transform="matrix(1.33333 0 0 -1.33333 0 231.56)"/><path d="M105.935 18.32c-.546 0-1.09.22-1.485.658L85.496 39.946a1.998 1.998 0 0 0 .143 2.824c.818.74 2.084.678 2.824-.143l18.954-20.967a2 2 0 0 0-1.482-3.34" style="fill:#0a9ea0;fill-opacity:1;fill-rule:nonzero;stroke:none;stroke-width:.1" transform="matrix(1.33333 0 0 -1.33333 0 231.56)"/><path d="M79.82 58.63a2.426 2.426 0 0 0-3.426.174l-8.292 9.172a2.426 2.426 0 0 0 3.599 3.254l8.292-9.173a2.426 2.426 0 0 0-.173-3.426M75.132 54.393a2.426 2.426 0 0 0-3.426.173l-1.457 1.611a2.426 2.426 0 0 0 3.599 3.254l1.457-1.612a2.426 2.426 0 0 0-.173-3.426M70.443 50.155a2.426 2.426 0 0 0-3.426.173l-1.456 1.611a2.425 2.425 0 0 0 3.599 3.254l1.456-1.612a2.425 2.425 0 0 0-.173-3.426M88.598 52.373l-.005.006-5.83 6.45-12.894-11.656 5.829-6.448.006-.008a8.692 8.692 0 0 1 12.894 11.656" style="fill:#67c1be;fill-opacity:1;fill-rule:nonzero;stroke:none;stroke-width:.1" transform="matrix(1.33333 0 0 -1.33333 0 231.56)"/><path d="M15.8 40.943c0 4.412 1.388 6.455 4.41 6.455 2.453 0 3.597-1.062 3.597-3.432 0-6.292-8.989-7.598-8.989-19.774h13.647c0 8.58 12.256 10.949 12.256 22.798 0 9.397-6.945 14.87-18.793 14.87-12.748 0-20.183-7.762-20.183-20.917h14.054" style="fill:#fff;fill-opacity:1;fill-rule:nonzero;stroke:none;stroke-width:.1" transform="matrix(1.33333 0 0 -1.33333 0 231.56)"/><path d="M16.632 25.936h10.234c.634 3.707 3.227 6.342 5.745 8.9 3.273 3.326 6.365 6.467 6.365 12.154 0 8.342-6.214 13.127-17.048 13.127-11.147 0-17.772-6.325-18.391-17.43h10.6c.532 5.283 3.525 6.455 6.074 6.455 3.444 0 5.34-1.838 5.34-5.176 0-3.296-1.955-5.484-3.845-7.6-2.287-2.56-4.645-5.198-5.074-10.43zm11.833-3.488H14.818c-.963 0-1.744.78-1.744 1.744 0 7.749 3.344 11.49 6.03 14.499 1.89 2.113 2.958 3.401 2.958 5.275 0 1.287-.255 1.688-1.851 1.688-.998 0-2.667 0-2.667-4.711 0-.964-.781-1.744-1.745-1.744H1.745c-.964 0-1.745.78-1.745 1.744 0 14.19 8.197 22.662 21.928 22.662 12.86 0 20.537-6.21 20.537-16.615 0-7.116-3.914-11.093-7.367-14.602-2.623-2.665-4.889-4.965-4.889-8.196 0-.964-.78-1.744-1.744-1.744" style="fill:#171717;fill-opacity:1;fill-rule:nonzero;stroke:none;stroke-width:.1" transform="matrix(1.33333 0 0 -1.33333 0 231.56)"/><path d="M30.074 9.92a8.176 8.176 0 0 0-8.176-8.176 8.176 8.176 0 1 0 8.176 8.176" style="fill:#fff;fill-opacity:1;fill-rule:nonzero;stroke:none;stroke-width:.1" transform="matrix(1.33333 0 0 -1.33333 0 231.56)"/><path d="M21.898 16.352a6.44 6.44 0 0 1-6.432-6.432 6.44 6.44 0 0 1 6.432-6.432A6.44 6.44 0 0 1 28.33 9.92a6.44 6.44 0 0 1-6.432 6.432zm0-16.352c-5.47 0-9.921 4.45-9.921 9.92s4.45 9.921 9.921 9.921c5.47 0 9.92-4.451 9.92-9.921S27.369 0 21.899 0" style="fill:#171717;fill-opacity:1;fill-rule:nonzero;stroke:none;stroke-width:.1" transform="matrix(1.33333 0 0 -1.33333 0 231.56)"/><path d="m110.769 21.06-.03.089a7.252 7.252 0 0 1-.082.213l-.016.034a4.363 4.363 0 0 1-1.905 2.108l-.03.017-.128.066-.078.037c-.028.015-.056.026-.085.04a2.818 2.818 0 0 1-.124.054l-.04.016a4.363 4.363 0 0 1-2.828.143l-.043-.013-.13-.041-.088-.03-.08-.03a2.564 2.564 0 0 1-.132-.052l-.034-.015a4.319 4.319 0 0 1-1.213-.775 4.307 4.307 0 0 1-.979-1.288l-.038-.079-.038-.084c-.019-.041-.036-.083-.054-.124l-.016-.04a4.346 4.346 0 0 1-.142-2.83l.011-.042a5.2 5.2 0 0 1 .04-.128c.012-.03.02-.06.032-.089a3.034 3.034 0 0 1 .082-.215l.015-.031a4.347 4.347 0 0 1 1.905-2.108l.031-.018a2.92 2.92 0 0 1 .204-.104l.085-.039.125-.053.04-.017a4.355 4.355 0 0 1 2.871-.13c.043.012.087.028.13.042l.086.028a4.734 4.734 0 0 1 .215.083l.035.016a4.368 4.368 0 0 1 2.124 1.936c.023.043.043.084.064.126.014.025.027.052.04.078l.038.084c.019.041.037.083.055.126l.015.039c.175.437.284.908.308 1.403.026.495-.034.975-.165 1.426l-.012.042-.04.129" style="fill:#67c1be;fill-opacity:1;fill-rule:nonzero;stroke:none;stroke-width:.100331" transform="matrix(1.33333 0 0 -1.33333 0 231.56)"/></svg>