<svg version="1.1" viewBox="0 0 104.14 146.462" xmlns="http://www.w3.org/2000/svg"><defs id="defs4318"><clipPath id="clippath"><path class="cls-8" d="M104.35 94.82 104.41 0H.14v94.76c0 28.79 23.34 52.14 52.14 52.14s52.14-23.34 52.14-52.14l-.06.06z" id="path4307"/></clipPath><clipPath id="clippath-1"><path class="cls-8" d="M34.26 31.81c-4.87 0-8.82 3.95-8.82 8.82L15.5 84.41c0 4.87 3.95 8.82 8.82 8.82h56.47c4.87 0 8.82-3.95 8.82-8.82l-9.97-43.78c0-4.87-3.95-8.82-8.82-8.82H34.26Z" id="path4310"/></clipPath><clipPath id="clippath-2"><path class="cls-8" d="M52.28 99.31h41.28v96.4H52.28Z" id="path4313"/></clipPath><style id="style4316">.cls-3{fill:#67c1be}.cls-4{fill:#0a9ea0}.cls-8{fill:none}</style></defs><g clip-path="url(#clippath)" id="g4350" transform="translate(-.14 -.438)"><path d="M52.14 146.9c28.79 0 52.14-23.34 52.14-52.14S80.94 42.62 52.14 42.62 0 65.97 0 94.76s23.34 52.14 52.14 52.14" style="fill:#00577a" id="path4320"/><path class="cls-4" d="M39.06 74.81v48.55c0 3.61 2.92 6.53 6.53 6.53h17.09c3.61 0 6.53-2.92 6.53-6.53V74.81M18.75 49.67c-2.87 0-5.2 3.16-5.2 7.06v7.06c0 3.9 2.33 7.06 5.2 7.06h68.27c2.87 0 5.2-3.16 5.2-7.06v-7.06c0-3.9-2.33-7.06-5.2-7.06z" id="path4322"/><path class="cls-3" d="M34.26 31.81c-4.87 0-8.82 3.95-8.82 8.82L15.5 84.4c0 4.87 3.95 8.82 8.82 8.82h56.47c4.87 0 8.82-3.95 8.82-8.82l-9.97-43.77c0-4.87-3.95-8.82-8.82-8.82zm-1.94 71.73c-5.39 0-9.76 5.67-9.76 12.66l-11 62.81c0 6.99 4.37 12.66 9.76 12.66h62.47c5.39 0 9.76-5.67 9.76-12.66L82.52 116.2c0-6.99-4.37-12.66-9.76-12.66z" id="path4324"/><path class="cls-4" d="M52.58 29.85h50.02v84.53H52.58Z" clip-path="url(#clippath-1)" id="path4326"/><path d="M53.18 73.31c6.96 0 12.6-5.64 12.6-12.6s-5.64-12.6-12.6-12.6-12.6 5.64-12.6 12.6 5.64 12.6 12.6 12.6" style="fill:#f6c349" id="path4328"/><path d="M28.3 72.5c.3-1.4-.6-2.78-2-3.07a2.6 2.6 0 0 0-3.08 2c-.3 1.4.6 2.78 2 3.07 1.4.3 2.78-.6 3.07-2m1.55-7.26c.3-1.4-.6-2.78-2-3.07a2.6 2.6 0 0 0-3.08 2c-.3 1.4.6 2.78 2 3.07 1.4.3 2.78-.6 3.07-2m1.55-7.25c.3-1.4-.6-2.78-2-3.07a2.6 2.6 0 0 0-3.08 2c-.3 1.4.6 2.78 2 3.07 1.4.3 2.78-.6 3.07-2M75.33 72.5c-.3-1.4.6-2.78 2-3.07 1.4-.3 2.78.6 3.07 2 .3 1.4-.6 2.78-2 3.07-1.4.3-2.78-.6-3.07-2m-1.54-7.26c-.3-1.4.6-2.78 2-3.07 1.4-.3 2.78.6 3.08 2 .3 1.4-.6 2.78-2 3.07-1.4.3-2.78-.6-3.07-2m-1.56-7.25c-.3-1.4.6-2.78 2-3.07 1.4-.3 2.78.6 3.07 2 .3 1.4-.6 2.78-2 3.07-1.4.3-2.78-.6-3.07-2" id="path4330" style="fill:#fff"/><path class="cls-4" d="M32.32 103.54c-5.39 0-9.76 5.67-9.76 12.66l-11 62.81c0 6.99 4.37 12.66 9.76 12.66h62.47c5.39 0 9.76-5.67 9.76-12.66L82.8 116.2c-.09-7.96-4.65-12.66-10.04-12.66z" clip-path="url(#clippath-2)" id="path4332"/><path d="m11.33 149.57 6.49-30.64m69.88 0 6.49 30.64" id="path4334" style="stroke:#0a9ea0;stroke-linecap:round;stroke-width:4px;fill:none"/><path class="cls-3" d="m16.24 107.57-1.94 7.96c-.76 3.11 2.05 6.02 5.8 6.02h21.56c3.27 0 5.92-2.24 5.92-5.01v-7.96c0-2.77-2.65-5.01-5.92-5.01H22.04c-2.81 0-5.23 1.67-5.8 4z" id="path4336"/><path class="cls-4" d="m89.42 107.57 1.94 7.96c.76 3.11-2.05 6.02-5.8 6.02H64c-3.27 0-5.92-2.24-5.92-5.01v-7.96c0-2.77 2.65-5.01 5.92-5.01h19.62c2.81 0 5.23 1.67 5.8 4z" id="path4338"/><circle class="cls-3" cx="52.8" cy="135.6" r="13.69" id="circle4340"/><path class="cls-4" d="M52.8 150.79c-8.38 0-15.19-6.81-15.19-15.19 0-8.38 6.81-15.19 15.19-15.19 8.38 0 15.19 6.81 15.19 15.19 0 8.38-6.81 15.19-15.19 15.19zm0-27.38c-6.72 0-12.19 5.47-12.19 12.19s5.47 12.19 12.19 12.19 12.19-5.47 12.19-12.19-5.47-12.19-12.19-12.19z" id="path4342"/><path d="M53.03 65.54a5.25 5.25 0 1 0 0-10.5 5.25 5.25 0 1 0 0 10.5m7.86 14.86c0 4.42-3.58 8-8 8s-8-3.58-8-8z" id="path4344" style="fill:#1d1d1b"/><path class="cls-4" d="M42.04 67.95c2.8 4.05 7.17 6.67 12.09 6.67s9.3-2.61 12.09-6.67H42.03Z" id="path4346"/><path class="cls-3" d="M43.03 67.95c2.3 3 5.92 4.94 9.99 4.94s7.69-1.94 9.99-4.94H43.02Z" id="path4348"/></g><path class="cls-4" d="m49.93 12.582-.06 18.77h5.62v-12.65c-1.3-1.01-3.61-3.89-5.55-6.13z" id="path4352"/><path class="cls-3" d="M73 16.672c.58-.87 1.03-1.82 1.33-2.82.31-1.03.47-2.11.46-3.19 0-1.45-.3-2.86-.87-4.17a10.742 10.742 0 0 0-6.74-6.03c-1.03-.31-2.12-.48-3.19-.46-.74 0-1.47.09-2.18.26-1.22.29-2.43.82-3.61 1.59-.88.58-1.75 1.29-2.67 2.18-.67.66-2.08 2.29-2.82 3.18.55.68 1.09 1.36 1.62 2.02l.66.83c.7-.85 2.03-2.44 2.62-3.04.53-.55 1.06-1.04 1.57-1.45.8-.65 1.6-1.15 2.37-1.47.4-.17.8-.29 1.21-.38.42-.09.83-.13 1.27-.14.94.01 1.9.18 2.79.54 1.28.53 2.38 1.42 3.17 2.58.4.58.7 1.21.91 1.87.22.69.33 1.4.34 2.13 0 .96-.18 1.9-.54 2.79a7.208 7.208 0 0 1-2.58 3.17 7.245 7.245 0 0 1-4 1.25c-.49 0-.93-.05-1.39-.15-.59-.13-1.16-.34-1.74-.64-.19-.1-.38-.21-.58-.32-.56-.34-1.14-.77-1.72-1.28-.21-.18-.43-.38-.64-.59-.6-.57-1.23-1.24-1.92-2.05-.53-.62-1.06-1.27-1.6-1.94l-1.04-1.3c-.85-1.07-1.73-2.19-2.65-3.24-.79-.91-1.51-1.67-2.2-2.32-.62-.59-1.21-1.09-1.81-1.53-.12-.09-.24-.17-.36-.26-.91-.63-1.8-1.11-2.73-1.46-.94-.35-1.91-.57-2.88-.63-.21-.01-.41-.02-.62-.02h-.09c-1.45 0-2.86.3-4.17.87-1.91.83-3.54 2.18-4.7 3.92a10.706 10.706 0 0 0-1.79 6.01c0 1.45.3 2.85.87 4.17.83 1.91 2.18 3.54 3.92 4.7.87.58 1.82 1.03 2.82 1.33 1.03.31 2.09.48 3.19.46.73 0 1.47-.09 2.18-.26 1.22-.29 2.44-.82 3.61-1.59.88-.58 1.75-1.29 2.67-2.18.67-.65 2.09-2.2 2.85-3.09-.57-.69-2.08-2.6-2.28-2.85-.71.86-2.06 2.35-2.64 2.95-.53.55-1.06 1.03-1.57 1.45-.8.65-1.6 1.14-2.37 1.47-.41.17-.8.3-1.21.38-.42.09-.84.14-1.27.14-.97.01-1.91-.18-2.79-.54a7.075 7.075 0 0 1-3.17-2.58c-.39-.57-.7-1.2-.91-1.87-.22-.69-.33-1.4-.34-2.13 0-.96.18-1.9.54-2.79a7.208 7.208 0 0 1 2.58-3.17 7.245 7.245 0 0 1 4-1.25c.46 0 .92.05 1.39.15.78.17 1.54.49 2.32.97.56.34 1.14.77 1.72 1.28.79.69 1.63 1.55 2.57 2.64.85.99 1.73 2.09 2.57 3.16l.09.11c.84 1.07 1.72 2.17 2.62 3.22.8.93 1.5 1.66 2.2 2.33.14.14.29.27.44.41.48.42.93.79 1.37 1.12 1.03.76 2.04 1.32 3.08 1.71l.21.08c1.1.39 2.25.59 3.38.58 1.45 0 2.85-.3 4.17-.87 1.91-.83 3.54-2.18 4.69-3.92zm-19.02-7.17Z" id="path4354"/></svg>