<svg version="1.1" viewBox="0 0 181.468 239.316" xmlns="http://www.w3.org/2000/svg"><defs><clipPath clipPathUnits="userSpaceOnUse" id="a"><path d="M0 0h1126v1798H0Z"/></clipPath><clipPath clipPathUnits="userSpaceOnUse" id="b"><path d="m1067.39 832.648.55 965.652H25.254V833.234c0-287.945 233.418-521.363 521.359-521.363 287.942 0 521.357 233.418 521.357 521.363z"/></clipPath><clipPath clipPathUnits="userSpaceOnUse" id="c"><path d="M0 0h1126v1798H0Z"/></clipPath><clipPath clipPathUnits="userSpaceOnUse" id="d"><path d="m1067.39 832.648.55 965.652H25.254V833.234c0-287.945 233.418-521.363 521.359-521.363 287.942 0 521.357 233.418 521.357 521.363z"/></clipPath><clipPath clipPathUnits="userSpaceOnUse" id="e"><path d="M274.113 1401.05c-45.949 0-83.187-37.25-83.187-83.2V844.867c0-45.949 37.238-83.195 83.187-83.195h532.453c45.95 0 83.2 37.246 83.2 83.195v472.983c0 45.95-37.25 83.2-83.2 83.2z"/></clipPath><clipPath clipPathUnits="userSpaceOnUse" id="f"><path d="M0 0h1126v1798H0Z"/></clipPath><clipPath clipPathUnits="userSpaceOnUse" id="g"><path d="m1067.39 832.648.55 965.652H25.254V833.234c0-287.945 233.418-521.363 521.359-521.363 287.942 0 521.357 233.418 521.357 521.363z"/></clipPath><clipPath clipPathUnits="userSpaceOnUse" id="h"><path d="M0 0h1126v1798H0Z"/></clipPath><clipPath clipPathUnits="userSpaceOnUse" id="i"><path d="m1067.39 832.648.55 965.652H25.254V833.234c0-287.945 233.418-521.363 521.359-521.363 287.942 0 521.357 233.418 521.357 521.363z"/></clipPath><clipPath clipPathUnits="userSpaceOnUse" id="j"><path d="M543.754-18.11h450.484V738.72H543.754Z"/></clipPath><clipPath clipPathUnits="userSpaceOnUse" id="k"><path d="M0 0h1126v1798H0Z"/></clipPath><clipPath clipPathUnits="userSpaceOnUse" id="l"><path d="m1067.39 832.648.55 965.652H25.254V833.234c0-287.945 233.418-521.363 521.359-521.363 287.942 0 521.357 233.418 521.357 521.363z"/></clipPath></defs><path d="M54.661 31.129c28.794 0 52.136 23.342 52.136 52.136 0 28.794-23.341 52.136-52.136 52.136-28.794 0-52.136-23.342-52.136-52.136 0-28.794 23.342-52.136 52.136-52.136" style="fill:#6d397b;fill-opacity:1;fill-rule:nonzero;stroke:none;stroke-width:.1" transform="matrix(1.33333 0 0 -1.33333 11.233 239.316)"/><g clip-path="url(#a)" transform="matrix(.13333 0 0 -.13333 11.233 239.316)"><g clip-path="url(#b)"><path d="m104.484 261.211 64.864 306.469" style="fill:none;stroke:#0a9ea0;stroke-width:40;stroke-linecap:round;stroke-linejoin:miter;stroke-miterlimit:4;stroke-dasharray:none;stroke-opacity:1"/><path d="M540.82 1672.88c-24.257 0-43.984 19.73-43.984 43.99s19.727 44 43.984 44c24.258 0 43.996-19.74 43.996-44s-19.738-43.99-43.996-43.99zm78 43.99c0 43.01-34.992 78-78 78-42.996 0-77.988-34.99-77.988-78 0-37.16 26.145-68.28 60.988-76.07v-248.3h34.004v248.3c34.848 7.79 60.996 38.91 60.996 76.07M273.887 1616.32c0 24.26 19.734 44 43.996 44 24.258 0 43.984-19.74 43.984-44s-19.726-43.99-43.984-43.99c-24.262 0-43.996 19.73-43.996 43.99zm121.98 0c0 43-34.988 78-77.984 78-43.012 0-78-35-78-78 0-43.01 34.988-78 78-78 15.129 0 29.222 4.41 41.191 11.89l83.203-90.99v-137.74h34.004v150.95l-92.941 101.64c7.894 12.19 12.527 26.68 12.527 42.25" style="fill:#67c1be;fill-opacity:1;fill-rule:nonzero;stroke:none"/><path d="M765.676 1572.33c-24.258 0-43.996 19.73-43.996 43.99s19.738 44 43.996 44c24.258 0 43.984-19.74 43.984-44s-19.726-43.99-43.984-43.99zm0 121.99c-43.008 0-78-35-78-78 0-15.57 4.637-30.06 12.531-42.25l-92.941-101.64v-150.95h34.004v137.74l83.203 91c11.972-7.49 26.066-11.9 41.203-11.9 42.996 0 77.984 34.99 77.984 78 0 43-34.988 78-77.984 78M400.703 927.469V442.02c0-36.079 29.25-65.329 65.332-65.329h170.91c36.078 0 65.328 29.25 65.328 65.329v485.449M198.227 1232.58c-36.762 0-66.563-29.8-66.563-66.56v-66.56c0-36.75 29.801-66.55 66.563-66.55h694.211c36.757 0 66.558 29.8 66.558 66.55v66.56c0 36.76-29.801 66.56-66.558 66.56H198.227" style="fill:#0a9ea0;fill-opacity:1;fill-rule:nonzero;stroke:none"/><path d="M274.113 1401.05c-45.949 0-83.199-37.25-83.199-83.2V844.867c0-45.949 37.25-83.187 83.199-83.187h532.453c45.95 0 83.2 37.238 83.2 83.187v472.983c0 45.95-37.25 83.2-83.2 83.2H274.113" style="fill:#67c1be;fill-opacity:1;fill-rule:nonzero;stroke:none"/></g></g><g clip-path="url(#c)" transform="matrix(.13333 0 0 -.13333 11.233 239.316)"><g clip-path="url(#d)"><g clip-path="url(#e)"><path d="M540.344 573.25h509.576v861.07H540.344V573.25" style="fill:#0a9ea0;fill-opacity:1;fill-rule:nonzero;stroke:none"/></g></g></g><g clip-path="url(#f)" transform="matrix(.13333 0 0 -.13333 11.233 239.316)"><g clip-path="url(#g)"><path d="M288.305 1248.46c-22.969 0-41.598-18.63-41.598-41.6v-137.27c0-22.98 18.629-41.6 41.598-41.6h497.832c22.968 0 41.597 18.62 41.597 41.6v137.27c0 22.97-18.629 41.6-41.597 41.6H288.305" style="fill:#171717;fill-opacity:1;fill-rule:nonzero;stroke:none"/><path d="M771.996 666.09a69.714 69.714 0 0 1-.832-1.93c-.246-.578-.473-1.191-.719-1.789-.379-.992-.761-1.98-1.121-2.992-.09-.27-.179-.52-.269-.777a97.441 97.441 0 0 1-5.344-31.891 97.467 97.467 0 0 1 5.344-31.902c.09-.27.179-.52.269-.758.36-1.012.742-2.02 1.121-3.012.246-.609.473-1.187.719-1.801.27-.648.539-1.277.832-1.929.402-.918.809-1.84 1.258-2.758.133-.289.293-.582.426-.871a96.86 96.86 0 0 1 18.722-26.25 97.88 97.88 0 0 1 26.227-18.719c.312-.141.605-.301.894-.43.922-.429 1.844-.851 2.762-1.261.629-.27 1.281-.559 1.934-.829.582-.25 1.187-.472 1.793-.722.988-.379 1.976-.758 2.988-1.117.27-.09.516-.18.785-.25a97.441 97.441 0 0 1 31.879-5.364 97.58 97.58 0 0 1 31.906 5.364c.27.07.516.16.762.25 1.012.359 2.02.738 3.008 1.117.605.25 1.191.472 1.797.722.652.27 1.281.559 1.929.829.922.41 1.84.832 2.762 1.261.293.129.586.289.875.43 9.477 4.641 18.391 10.859 26.246 18.719a97.2 97.2 0 0 1 18.703 26.25c.157.289.289.582.45.871.425.918.851 1.84 1.257 2.758.27.652.559 1.281.829 1.929.25.614.472 1.192.699 1.801.402.992.785 2 1.144 3.012.086.238.157.488.246.758a97.477 97.477 0 0 1 5.364 31.902 97.452 97.452 0 0 1-5.364 31.891c-.089.257-.16.507-.246.777-.359 1.012-.742 2-1.144 2.992-.227.598-.449 1.211-.699 1.789-.27.649-.559 1.281-.829 1.93-.406.922-.832 1.84-1.257 2.769-.161.289-.293.582-.45.891a97.418 97.418 0 0 1-18.703 26.23 97.114 97.114 0 0 1-26.265 18.719c-.27.141-.563.289-.856.43-.922.453-1.863.851-2.805 1.281-.605.27-1.234.539-1.863.801-.629.25-1.234.5-1.863.719a94.11 94.11 0 0 1-2.942 1.129c-.269.089-.539.179-.832.273a97.422 97.422 0 0 1-31.859 5.34 97.502 97.502 0 0 1-31.855-5.34c-.27-.094-.539-.184-.809-.273a91.74 91.74 0 0 1-2.965-1.129 45.633 45.633 0 0 1-1.84-.719c-.629-.262-1.257-.531-1.886-.801-.942-.43-1.864-.828-2.805-1.281-.293-.141-.563-.289-.856-.43a97.104 97.104 0 0 1-26.246-18.719 97.077 97.077 0 0 1-18.722-26.23c-.133-.309-.293-.602-.426-.891a77.289 77.289 0 0 1-1.258-2.769" style="fill:#0a9ea0;fill-opacity:1;fill-rule:nonzero;stroke:none"/><path d="M140.168 666.09a66.81 66.81 0 0 1-.832-1.93c-.246-.578-.473-1.191-.719-1.789-.379-.992-.762-1.98-1.121-2.992-.09-.27-.18-.52-.269-.777a97.441 97.441 0 0 1-5.344-31.891 97.467 97.467 0 0 1 5.344-31.902c.089-.27.179-.52.269-.758.359-1.012.742-2.02 1.121-3.012.246-.609.473-1.187.719-1.801.269-.648.539-1.277.832-1.929.402-.918.809-1.84 1.258-2.758.133-.289.293-.582.426-.871a96.86 96.86 0 0 1 18.722-26.25 97.88 97.88 0 0 1 26.227-18.719c.312-.141.605-.301.894-.43.922-.429 1.844-.851 2.762-1.261.629-.27 1.281-.559 1.934-.829.582-.25 1.187-.472 1.793-.722.988-.379 1.976-.758 2.988-1.117.269-.09.516-.18.785-.25a97.447 97.447 0 0 1 31.883-5.364c11.18 0 21.887 1.91 31.902 5.364.27.07.516.16.762.25 1.012.359 2.019.738 3.008 1.117.605.25 1.191.472 1.797.722.652.27 1.281.559 1.929.829.922.41 1.84.832 2.762 1.261.293.129.586.289.875.43 9.477 4.641 18.391 10.859 26.246 18.719a97.222 97.222 0 0 1 18.703 26.25c.156.289.293.582.449.871.426.918.852 1.84 1.258 2.758.27.652.559 1.281.828 1.929.25.614.473 1.192.7 1.801.402.992.785 2 1.144 3.012.09.238.156.488.246.758a97.477 97.477 0 0 1 5.364 31.902 97.452 97.452 0 0 1-5.364 31.891c-.09.257-.156.507-.246.777-.359 1.012-.742 2-1.144 2.992-.227.598-.45 1.211-.7 1.789-.269.649-.558 1.281-.828 1.93-.406.922-.832 1.84-1.258 2.769-.156.289-.293.582-.449.891a97.44 97.44 0 0 1-18.703 26.23 97.103 97.103 0 0 1-26.266 18.719c-.269.141-.562.289-.855.43-.922.453-1.863.851-2.805 1.281-.605.27-1.234.539-1.863.801-.629.25-1.234.5-1.863.719-.965.39-1.953.769-2.942 1.129-.269.089-.539.179-.832.273a97.416 97.416 0 0 1-31.855 5.34 97.518 97.518 0 0 1-31.86-5.34 51.187 51.187 0 0 0-.808-.273 91.74 91.74 0 0 1-2.965-1.129 45.633 45.633 0 0 1-1.84-.719c-.629-.262-1.258-.531-1.887-.801-.941-.43-1.863-.828-2.804-1.281-.293-.141-.563-.289-.856-.43a97.104 97.104 0 0 1-26.246-18.719 97.077 97.077 0 0 1-18.722-26.23c-.133-.309-.293-.602-.426-.891a77.289 77.289 0 0 1-1.258-2.769" style="fill:#4bbfb3;fill-opacity:1;fill-rule:nonzero;stroke:none"/><path d="M810.977 31.04h-537.75c-43.512 0-78.786 35.269-78.786 78.792V614.57c0 43.512 35.274 78.789 78.786 78.789h537.75c43.515 0 78.789-35.277 78.789-78.789V109.832c0-43.523-35.274-78.793-78.789-78.793" style="fill:#67c1be;fill-opacity:1;fill-rule:nonzero;stroke:none"/></g></g><g clip-path="url(#h)" transform="matrix(.13333 0 0 -.13333 11.233 239.316)"><g clip-path="url(#i)"><g clip-path="url(#j)"><path d="M812.629 31.04h-537.75c-43.512 0-78.785 35.269-78.785 78.792V614.57c0 43.512 35.273 78.789 78.785 78.789h537.75c43.512 0 78.789-35.277 78.789-78.789V109.832c0-43.523-35.277-78.793-78.789-78.793" style="fill:#0a9ea0;fill-opacity:1;fill-rule:nonzero;stroke:none"/></g></g></g><g clip-path="url(#k)" transform="matrix(.13333 0 0 -.13333 11.233 239.316)"><g clip-path="url(#l)"><path d="M540.824 445.922c36.699 0 66.449 29.75 66.449 66.437 0 36.7-29.75 66.45-66.449 66.45-36.695 0-66.445-29.75-66.445-66.45 0-36.687 29.75-66.437 66.445-66.437" style="fill:#0a9ea0;fill-opacity:1;fill-rule:nonzero;stroke:none"/><path d="M540.824 564.871c-28.953 0-52.508-23.551-52.508-52.512 0-28.961 23.555-52.507 52.508-52.507 28.949 0 52.516 23.546 52.516 52.507s-23.567 52.512-52.516 52.512zm0-132.891c-44.328 0-80.386 36.051-80.386 80.379 0 44.332 36.058 80.379 80.386 80.379 44.328 0 80.387-36.047 80.387-80.379 0-44.328-36.059-80.379-80.387-80.379" style="fill:#67c1be;fill-opacity:1;fill-rule:nonzero;stroke:none"/><path d="M495.652 1307.25c0-13.25-10.738-23.98-23.988-23.98s-23.992 10.73-23.992 23.98 10.742 23.99 23.992 23.99 23.988-10.74 23.988-23.99M564.816 1307.25c0-13.25-10.742-23.98-23.992-23.98s-23.988 10.73-23.988 23.98 10.738 23.99 23.988 23.99 23.992-10.74 23.992-23.99M633.008 1307.25c0-13.25-10.742-23.98-23.992-23.98s-23.989 10.73-23.989 23.98 10.739 23.99 23.989 23.99 23.992-10.74 23.992-23.99" style="fill:#fff;fill-opacity:1;fill-rule:nonzero;stroke:none"/><path d="M287.969 987.367c28.066-44.922 71.969-80.164 126.871-95.961 54.926-15.801 110.844-9.273 158.488 13.864l-285.359 82.097" style="fill:#171717;fill-opacity:1;fill-rule:nonzero;stroke:none"/><path d="M375.281 1076.34c34.836 0 63.067 28.25 63.067 63.07 0 34.84-28.231 63.06-63.067 63.06s-63.062-28.22-63.062-63.06c0-34.82 28.226-63.07 63.062-63.07" style="fill:#d8b039;fill-opacity:1;fill-rule:nonzero;stroke:none"/><path d="M361.613 1087.72c14.696 0 26.602 11.92 26.602 26.6 0 14.69-11.906 26.6-26.602 26.6-14.691 0-26.597-11.91-26.597-26.6 0-14.68 11.906-26.6 26.597-26.6" style="fill:#171717;fill-opacity:1;fill-rule:nonzero;stroke:none"/><path d="M706.082 1076.34c34.84 0 63.066 28.25 63.066 63.07 0 34.84-28.226 63.06-63.066 63.06-34.836 0-63.062-28.22-63.062-63.06 0-34.82 28.226-63.07 63.062-63.07" style="fill:#d8b039;fill-opacity:1;fill-rule:nonzero;stroke:none"/><path d="M692.418 1087.73c14.691 0 26.598 11.91 26.598 26.59 0 14.7-11.907 26.6-26.598 26.6-14.695 0-26.598-11.9-26.598-26.6 0-14.68 11.903-26.59 26.598-26.59M454.91 1054.04l-162.547 11.39 2.328 33.17 162.543-11.39-2.324-33.17" style="fill:#171717;fill-opacity:1;fill-rule:nonzero;stroke:none"/><path d="m798.535 1098.6-162.547-11.39 2.328-33.17 162.547 11.39-2.328 33.17" style="fill:#171717;fill-opacity:1;fill-rule:nonzero;stroke:none"/></g></g><path d="M6.19 70.201 4.478 18.097h40.925l-.684 52.255-38.53-.15" style="fill:#fff;fill-opacity:1;fill-rule:nonzero;stroke:none;stroke-width:.1" transform="matrix(1.33333 0 0 -1.33333 11.233 239.316)"/><path d="M37.005 54.166H12.832a1.83 1.83 0 0 0-1.848 1.848 1.83 1.83 0 0 0 1.848 1.848h24.173a1.83 1.83 0 0 0 1.848-1.848 1.83 1.83 0 0 0-1.848-1.848M37.005 44.556H12.832a1.83 1.83 0 0 0-1.848 1.848 1.83 1.83 0 0 0 1.848 1.848h24.173a1.83 1.83 0 0 0 1.848-1.848 1.83 1.83 0 0 0-1.848-1.848M37.005 34.945H12.832a1.83 1.83 0 0 0-1.848 1.848 1.83 1.83 0 0 0 1.848 1.848h24.173a1.83 1.83 0 0 0 1.848-1.848 1.83 1.83 0 0 0-1.848-1.848" style="fill:#040606;fill-opacity:1;fill-rule:nonzero;stroke:none;stroke-width:.1" transform="matrix(1.33333 0 0 -1.33333 11.233 239.316)"/><path d="M40.554 16.24H10.023C6.179 16.24 3 19.315 3 23.033V66.15c0 3.718 3.179 6.793 7.023 6.793H40.48c3.844 0 7.023-3.075 7.023-6.793V23.033c.074-3.79-3.105-6.793-6.95-6.793m-30.53 53.128c-1.848 0-3.327-1.43-3.327-3.218V23.033c0-1.788 1.479-3.218 3.327-3.218H40.48c1.848 0 3.327 1.43 3.327 3.218V66.15c0 1.788-1.479 3.218-3.327 3.218H10.023" style="fill:#040606;fill-opacity:1;fill-rule:nonzero;stroke:none;stroke-width:.1" transform="matrix(1.33333 0 0 -1.33333 11.233 239.316)"/><path d="M102.374 29.416a1.999 1.999 0 0 0-1.533 1.145l-13.06 28.473a2 2 0 1 0 3.634 1.668l13.062-28.472a2 2 0 0 0-2.103-2.814" style="fill:#0a9ea0;fill-opacity:1;fill-rule:nonzero;stroke:none;stroke-width:.1" transform="matrix(1.33333 0 0 -1.33333 11.233 239.316)"/><path d="M83.533 16.718a2 2 0 0 0-.968 3.751l24.745 13.66a2 2 0 0 0 1.934-3.503L84.498 16.967a2.001 2.001 0 0 0-.965-.249" style="fill:#0a9ea0;fill-opacity:1;fill-rule:nonzero;stroke:none;stroke-width:.1" transform="matrix(1.33333 0 0 -1.33333 3.233 239.316)"/><path d="m107.58 36.683-.092-.015-.084-.017c-.047-.01-.093-.019-.139-.03l-.036-.009a4.362 4.362 0 0 1-2.385-1.544l-.022-.028a7.972 7.972 0 0 1-.086-.115l-.049-.07a7.555 7.555 0 0 1-.053-.078c-.024-.037-.049-.075-.072-.114l-.023-.037a4.375 4.375 0 0 1-.594-2.77c.003-.014.004-.029.006-.043l.02-.134.015-.092.017-.084c.01-.047.019-.093.03-.139l.01-.036a4.336 4.336 0 0 1 1.543-2.385l.028-.022.115-.086.07-.05.078-.052.114-.072.037-.023a4.346 4.346 0 0 1 2.769-.593l.044.005.134.02.092.015.084.018c.047.01.094.019.14.03.011.002.022.006.035.01a4.349 4.349 0 0 1 2.385 1.542l.023.03c.029.037.057.075.084.114.017.023.035.046.05.069l.053.078.072.114.023.038a4.366 4.366 0 0 1 .593 2.77l-.005.042c-.005.045-.013.09-.02.136l-.015.089-.018.087a6.835 6.835 0 0 1-.029.137l-.01.038a4.336 4.336 0 0 1-1.542 2.382l-.03.024c-.038.03-.075.056-.113.084a2.104 2.104 0 0 1-.148.102l-.115.074-.037.022a4.33 4.33 0 0 1-1.335.528 4.329 4.329 0 0 1-1.434.066l-.044-.006c-.045-.005-.089-.013-.134-.02M84.917 19.42a8.692 8.692 0 1 1-15.218-8.401 8.692 8.692 0 0 1 15.218 8.4" style="fill:#67c1be;fill-opacity:1;fill-rule:nonzero;stroke:none;stroke-width:.1" transform="matrix(1.33333 0 0 -1.33333 3.233 239.316)"/><path d="m81.414 7.56-8.399 15.217-7.525-4.153 8.4-15.217 7.524 4.154M65.01 15.714a2.426 2.426 0 0 0-.952-3.296L53.232 6.443a2.426 2.426 0 0 0-2.344 4.248l10.826 5.975a2.426 2.426 0 0 0 3.295-.952M68.063 10.18a2.425 2.425 0 0 0-.952-3.295l-1.901-1.05a2.426 2.426 0 0 0-2.345 4.247l1.902 1.05a2.426 2.426 0 0 0 3.296-.951M71.117 4.648a2.426 2.426 0 0 0-.951-3.296L68.264.302A2.426 2.426 0 0 0 65.92 4.55L67.82 5.6a2.426 2.426 0 0 0 3.296-.952" style="fill:#67c1be;fill-opacity:1;fill-rule:nonzero;stroke:none;stroke-width:.1" transform="matrix(1.33333 0 0 -1.33333 3.233 239.316)"/></svg>