<svg id="Ebene_1" data-name="Ebene 1" version="1.1" width="104.28" height="165.897" xmlns="http://www.w3.org/2000/svg"><defs id="defs5069"><clipPath id="clippath"><path class="cls-6" d="M104.21 111.73 104.27 0H0v111.67c0 28.47 23.34 51.56 52.14 51.56s52.14-23.08 52.14-51.56l-.06.06z" id="path5058"/></clipPath><clipPath id="clippath-1"><path class="cls-6" d="M52.57 113.06H82.4v82.19H52.57Z" id="path5061"/></clipPath><clipPath id="clippath-2"><rect class="cls-6" x="17.91" y="53.22" width="68.6" height="56.85" rx="8.17" ry="8.17" id="rect5064"/></clipPath><style id="style5067">.cls-2{fill:#67c1be}.cls-4{fill:#0a9ea0}.cls-6{fill:none}.cls-11{fill:#1d1d1b}</style></defs><g id="g815" transform="translate(0 2.707)"><path d="M52.14 163.18c28.79 0 52.14-23.34 52.14-52.14S80.94 58.9 52.14 58.9 0 82.25 0 111.05c0 28.8 23.34 52.14 52.14 52.14" style="fill:#d4803a" id="path5071"/><g clip-path="url(#clippath)" id="g5111" transform="translate(0 -.21)"><path class="cls-4" d="M15.71 165.75c-.09 0-.19 0-.28-.02a2.005 2.005 0 0 1-1.7-2.26l4.4-31.02c.16-1.09 1.17-1.86 2.26-1.7 1.09.15 1.85 1.17 1.7 2.26l-4.4 31.02a2 2 0 0 1-1.98 1.72zm73 0a2 2 0 0 1-1.98-1.72l-4.4-31.02c-.16-1.09.61-2.11 1.7-2.26 1.1-.16 2.11.61 2.26 1.7l4.4 31.02c.16 1.09-.61 2.11-1.7 2.26-.1.01-.19.02-.28.02zM37.44 93.17v48.55c0 3.61 2.92 6.53 6.53 6.53h17.09c3.61 0 6.53-2.92 6.53-6.53V93.17" id="path5073"/><rect class="cls-2" x="12.99" y="127.29" width="79.24" height="56.68" rx="9.72" ry="9.72" transform="rotate(-90 52.61 155.63)" id="rect5075"/><rect class="cls-4" x="12.8" y="127.14" width="79.54" height="56.68" rx="9.72" ry="9.72" transform="rotate(-90 52.57 155.48)" clip-path="url(#clippath-1)" id="rect5077"/><rect class="cls-2" x="18.44" y="112.28" width="20.49" height="27.54" rx="6.96" ry="6.96" transform="rotate(-90 28.69 126.05)" id="rect5079"/><rect class="cls-4" x="65.34" y="112.28" width="20.49" height="27.54" rx="6.96" ry="6.96" transform="rotate(-90 75.585 126.045)" id="rect5081"/><rect class="cls-2" x="34.7" y="132.68" width="36.51" height="29.83" rx="6.96" ry="6.96" transform="rotate(-90 52.96 147.59)" id="rect5083"/><path class="cls-4" d="M60.92 167.35H45c-4.66 0-8.46-3.79-8.46-8.46v-22.6c0-4.66 3.79-8.46 8.46-8.46h15.92c4.66 0 8.46 3.79 8.46 8.46v22.6c0 4.66-3.79 8.46-8.46 8.46zM45 130.84c-3.01 0-5.46 2.45-5.46 5.46v22.6c0 3.01 2.45 5.46 5.46 5.46h15.92c3.01 0 5.46-2.45 5.46-5.46v-22.6c0-3.01-2.45-5.46-5.46-5.46z" id="path5085"/><path d="M81.85 54.84c-1.19 2.07-5.56 2.54-11.67 1.26-1.96-.41-4.03-.98-6.19-1.7.5-2.92.86-6.02 1.08-9.25 2.68-1.81 5.19-3.67 7.47-5.56 1.7 1.51 3.23 3.02 4.57 4.51 4.17 4.65 5.94 8.67 4.75 10.74m-22.79 7.68C57.12 68.45 54.53 72 52.14 72c-2.39 0-4.98-3.54-6.93-9.48-.62-1.9-1.17-3.98-1.62-6.21 2.77-1.03 5.64-2.26 8.55-3.69 2.9 1.42 5.78 2.66 8.55 3.69-.46 2.23-1 4.31-1.62 6.21M34.1 56.1c-6.11 1.28-10.48.81-11.67-1.26-1.19-2.07.58-6.08 4.75-10.74 1.33-1.49 2.87-3 4.57-4.51 2.28 1.89 4.78 3.76 7.47 5.56.22 3.23.58 6.33 1.08 9.25-2.16.72-4.23 1.29-6.19 1.7m-6.93-24.84c-4.17-4.65-5.94-8.67-4.75-10.74 1.19-2.07 5.56-2.54 11.67-1.26 1.96.41 4.03.98 6.19 1.7-.5 2.92-.86 6.02-1.08 9.25-2.69 1.8-5.19 3.67-7.47 5.56-1.7-1.51-3.23-3.02-4.57-4.51m18.04-18.42c1.95-5.93 4.54-9.48 6.93-9.48 2.39 0 4.98 3.54 6.93 9.48.62 1.9 1.17 3.99 1.62 6.21a91.563 91.563 0 0 0-8.55 3.69 95.533 95.533 0 0 0-8.55-3.69c.46-2.23 1-4.31 1.62-6.21m20.05 21.01c1.78 1.26 3.47 2.54 5.04 3.83a83.995 83.995 0 0 1-5.04 3.82c.04-1.26.07-2.54.07-3.82 0-1.28-.02-2.56-.07-3.83m-9.87-9.45c1.98-.92 3.93-1.74 5.83-2.45.33 2.01.59 4.11.79 6.28-1.07-.67-2.17-1.33-3.28-1.97-1.11-.64-2.23-1.26-3.35-1.86m-13.12 3.83c.2-2.17.46-4.27.79-6.28 1.9.72 3.86 1.54 5.83 2.45-1.11.59-2.23 1.21-3.35 1.86-1.11.64-2.21 1.3-3.28 1.97M39 41.51a93.36 93.36 0 0 1-5.04-3.82c1.57-1.29 3.26-2.57 5.04-3.83-.04 1.26-.07 2.54-.07 3.83s.02 2.56.07 3.82m9.88 9.45c-1.98.92-3.93 1.74-5.83 2.45-.33-2.01-.6-4.11-.79-6.28 1.07.67 2.17 1.33 3.28 1.97 1.11.64 2.23 1.26 3.35 1.86m13.12-3.83c-.2 2.17-.46 4.27-.79 6.28-1.9-.72-3.86-1.54-5.83-2.45 1.11-.59 2.23-1.21 3.35-1.86 1.11-.64 2.21-1.3 3.28-1.97m-4.73-.54c-1.72.99-3.44 1.92-5.15 2.79-1.71-.87-3.43-1.8-5.15-2.79-1.72-.99-3.38-2.02-4.99-3.06-.1-1.91-.16-3.87-.16-5.85 0-1.98.05-3.94.16-5.85 1.61-1.05 3.27-2.07 4.99-3.06 1.72-.99 3.44-1.92 5.15-2.79 1.71.87 3.43 1.8 5.15 2.79 1.72.99 3.38 2.01 4.99 3.06.1 1.92.16 3.87.16 5.85 0 1.98-.05 3.94-.16 5.85a105.13 105.13 0 0 1-4.99 3.06m12.9-27.33c2.27-.48 4.3-.71 6.02-.71 2.9 0 4.9.67 5.65 1.97 1.19 2.07-.58 6.08-4.75 10.74-1.33 1.49-2.87 3-4.57 4.51a91.198 91.198 0 0 0-7.47-5.56c-.22-3.23-.59-6.33-1.08-9.25 2.16-.72 4.23-1.29 6.19-1.7m9.09 22.9a58.19 58.19 0 0 0-4.52-4.49c1.67-1.5 3.19-3 4.52-4.49 6.65-7.44 6.44-11.78 5.09-14.12-1.35-2.34-5.01-4.69-14.77-2.65-1.95.41-4.01.97-6.14 1.67-.46-2.2-1.01-4.26-1.63-6.15C58.7 2.45 54.83.46 52.14.46c-2.69 0-6.57 1.99-9.68 11.47-.62 1.89-1.17 3.96-1.63 6.15-2.14-.7-4.19-1.26-6.14-1.67-9.77-2.04-13.43.31-14.78 2.65-1.35 2.34-1.56 6.68 5.1 14.12a59.8 59.8 0 0 0 4.51 4.49c-1.67 1.5-3.19 3-4.51 4.49-6.65 7.44-6.44 11.78-5.1 14.12.99 1.71 3.21 3.43 8.15 3.43 1.82 0 4-.23 6.62-.78 1.95-.41 4.01-.97 6.14-1.67.46 2.2 1.01 4.26 1.63 6.15 3.11 9.48 6.98 11.47 9.68 11.47 2.7 0 6.57-1.99 9.68-11.47.62-1.89 1.17-3.96 1.63-6.15 2.13.7 4.19 1.26 6.14 1.67 2.62.55 4.81.78 6.62.78 4.94 0 7.17-1.72 8.15-3.43 1.35-2.34 1.56-6.68-5.1-14.12" style="fill:#67c1be;stroke:#67c1be;stroke-width:.5px" id="path5087"/><path class="cls-4" d="M56.13 38.61s.02-.06.04-.09c.01-.03.02-.05.03-.08.02-.04.03-.09.05-.13 0-.01 0-.02.01-.04.15-.45.24-.92.24-1.42 0-.5-.08-.97-.24-1.42 0-.01 0-.02-.01-.03-.02-.05-.03-.09-.05-.13-.01-.03-.02-.05-.03-.08-.01-.03-.02-.06-.04-.09l-.06-.12c0-.01-.01-.03-.02-.04-.21-.42-.48-.82-.83-1.17s-.75-.63-1.17-.83c-.01 0-.03-.01-.04-.02l-.12-.06c-.03-.01-.06-.02-.09-.04-.03-.01-.05-.02-.08-.03-.04-.02-.09-.03-.13-.05-.01 0-.02 0-.04-.01-.44-.15-.92-.24-1.42-.24-.5 0-.97.08-1.42.24-.01 0-.02 0-.03.01-.04.02-.09.03-.13.05-.03.01-.05.02-.08.03-.03.01-.06.02-.09.04l-.12.06c-.01 0-.03.01-.04.02-.42.21-.82.48-1.17.83s-.63.75-.83 1.17c0 .01-.01.03-.02.04l-.06.12c-.01.03-.02.06-.04.09-.01.03-.02.05-.03.08-.02.04-.03.09-.05.13 0 .01 0 .02-.01.03-.15.45-.24.92-.24 1.42 0 .5.08.98.24 1.42 0 .01 0 .02.01.04.02.04.03.09.05.13.01.03.02.05.03.08.01.03.02.06.04.09l.06.12c0 .01.01.03.02.04.21.42.48.82.83 1.17s.75.63 1.17.83c.01 0 .03.01.04.02l.12.06c.03.01.06.02.08.04.03.01.06.02.08.03.04.02.09.03.13.05.01 0 .02 0 .04.01.44.15.92.24 1.42.24.5 0 .97-.08 1.42-.24h.04s.09-.04.13-.06c.03-.01.06-.02.08-.03l.08-.04.12-.06c.01 0 .03-.01.04-.02.42-.21.82-.48 1.17-.83s.63-.75.83-1.17c0-.01.01-.03.02-.04l.06-.12" id="path5089"/><path style="fill:none;stroke:#0a9ea0;stroke-width:3.4px" d="M52.14 60.27V34.49" id="path5091"/><path class="cls-4" d="M43.59 43.27h17.09c3.61 0 6.53 2.93 6.53 6.53v48.55c0 3.61-2.93 6.53-6.53 6.53H43.59c-3.61 0-6.53-2.93-6.53-6.53V49.8c0-3.61 2.93-6.53 6.53-6.53z" id="path5093"/><path class="cls-4" d="M9.66 69.75h85.71c3.61 0 6.53 2.93 6.53 6.53v6.53c0 3.61-2.93 6.53-6.53 6.53H9.66c-3.61 0-6.53-2.93-6.53-6.53v-6.53c0-3.61 2.93-6.53 6.53-6.53z" id="path5095"/><rect class="cls-2" x="17.91" y="53.22" width="68.6" height="56.85" rx="8.17" ry="8.17" id="rect5097"/><path class="cls-4" d="M52.21 49.95h50.02v84.53H52.21Z" clip-path="url(#clippath-2)" id="path5099"/><path class="cls-11" d="M26.02 104.63a2.4 2.4 0 1 0-.001-4.801 2.4 2.4 0 0 0 .001 4.801m6.86 0a2.4 2.4 0 1 0-.001-4.801 2.4 2.4 0 0 0 .001 4.801m40.12 0a2.4 2.4 0 1 0-.001-4.801A2.4 2.4 0 0 0 73 104.63m6.87 0a2.4 2.4 0 1 0-.001-4.801 2.4 2.4 0 0 0 .001 4.801M45.44 64.71a2.4 2.4 0 1 0-.001-4.801 2.4 2.4 0 0 0 .001 4.801m6.87 0a2.4 2.4 0 1 0-.001-4.801 2.4 2.4 0 0 0 .001 4.801m6.86 0a2.4 2.4 0 1 0-.001-4.801 2.4 2.4 0 0 0 .001 4.801m1.52 31.92c0 4.42-3.58 8-8 8s-8-3.58-8-8z" id="path5101"/><path d="M70.14 90.58c4.89 0 8.85-3.96 8.85-8.85s-3.96-8.85-8.85-8.85-8.85 3.96-8.85 8.85 3.96 8.85 8.85 8.85m-34.84 0c4.89 0 8.85-3.96 8.85-8.85s-3.96-8.85-8.85-8.85-8.85 3.96-8.85 8.85 3.96 8.85 8.85 8.85" id="path5103" style="fill:#fff"/><path class="cls-11" d="M69.86 83.98c1.29 0 2.34-1.05 2.34-2.34 0-1.29-1.05-2.34-2.34-2.34-1.29 0-2.34 1.05-2.34 2.34 0 1.29 1.05 2.34 2.34 2.34m-34.69 0c1.29 0 2.34-1.05 2.34-2.34 0-1.29-1.05-2.34-2.34-2.34-1.29 0-2.34 1.05-2.34 2.34 0 1.29 1.05 2.34 2.34 2.34" id="path5105"/><path class="cls-4" d="M26 85.94c1.63 3.94 5.17 6.68 9.3 6.68 4.13 0 7.67-2.74 9.3-6.68z" id="path5107"/><path class="cls-2" d="M27.49 85.94a8.9 8.9 0 0 0 7.81 4.64 8.9 8.9 0 0 0 7.81-4.64zm34.84 0a8.9 8.9 0 0 0 7.81 4.64 8.9 8.9 0 0 0 7.81-4.64z" id="path5109"/></g></g></svg>