<svg version="1.1" viewBox="0 0 104.19 165.754" xmlns="http://www.w3.org/2000/svg">
  <defs id="defs2181">
    <clipPath id="clippath">
      <path class="cls-7" d="M104.21 114.14 104.27 0H0v114.08c0 28.6 23.34 51.79 52.14 51.79s52.14-23.19 52.14-51.79l-.06.06z" id="path2170"/>
    </clipPath>
    <clipPath id="clippath-1">
      <path class="cls-7" d="M16.12 89.51c0 20.14 16.33 36.47 36.47 36.47s36.47-16.33 36.47-36.47-16.33-36.48-36.47-36.48-36.47 16.33-36.47 36.48" id="path2173"/>
    </clipPath>
    <clipPath id="clippath-2">
      <path class="cls-7" d="M52.15 125.39h41.28v96.4H52.15Z" id="path2176"/>
    </clipPath>
    <style id="style2179">.cls-1{fill:#67c1be}.cls-2{fill:#0a9ea0}.cls-6{fill:#d0d65c}.cls-7{fill:none}.cls-8{fill:#1d1d1b}</style>
  </defs>
  <g clip-path="url(#clippath)" id="g2221" transform="translate(-.09 -.116)">
    <path class="cls-6" d="M52.22 165.85c28.79 0 52.14-23.34 52.14-52.14S81.02 61.57 52.22 61.57.09 84.92.09 113.71s23.34 52.14 52.14 52.14" id="path2183"/>
    <path class="cls-2" d="M43.82 101.11h17.09c3.61 0 6.53 2.93 6.53 6.53v48.55c0 3.61-2.93 6.53-6.53 6.53H43.82c-3.61 0-6.53-2.93-6.53-6.53v-48.54c0-3.61 2.93-6.53 6.53-6.53z" id="path2185"/>
    <path class="cls-2" transform="rotate(-30 33.11 56.612)" d="M30.72 49.45h4.77v14.31h-4.77z" id="path2187"/>
    <path class="cls-2" transform="rotate(-60 71.162 56.604)" d="M64.01 54.22h14.31v4.77H64.01Z" id="path2189"/>
    <path class="cls-1" d="M52.59 125.98c20.14 0 36.47-16.33 36.47-36.47S72.73 53.04 52.59 53.04 16.12 69.37 16.12 89.51s16.33 36.47 36.47 36.47" id="path2191"/>
    <path class="cls-2" d="M52.09 50.55h46.75v79H52.09Z" clip-path="url(#clippath-1)" id="path2193"/>
    <path class="cls-8" d="M77.84 99.73c1.25-3.11 1.94-6.5 1.94-10.06 0-2.95-.48-5.79-1.36-8.46H27.09c-.88 2.66-1.36 5.5-1.36 8.46 0 3.56.69 6.95 1.94 10.06h50.16ZM50.92 74.1c1.24 0 2.24-1 2.24-2.24 0-1.24-1-2.24-2.24-2.24-1.24 0-2.24 1-2.24 2.24 0 1.24 1 2.24 2.24 2.24m-12.84 0c1.24 0 2.24-1 2.24-2.24 0-1.24-1-2.24-2.24-2.24-1.24 0-2.24 1-2.24 2.24 0 1.24 1 2.24 2.24 2.24m6.42 0c1.24 0 2.24-1 2.24-2.24 0-1.24-1-2.24-2.24-2.24-1.24 0-2.24 1-2.24 2.24 0 1.24 1 2.24 2.24 2.24m12.83 0c1.24 0 2.24-1 2.24-2.24 0-1.24-1-2.24-2.24-2.24-1.24 0-2.24 1-2.24 2.24 0 1.24 1 2.24 2.24 2.24m6.42 0c1.24 0 2.24-1 2.24-2.24 0-1.24-1-2.24-2.24-2.24-1.24 0-2.24 1-2.24 2.24 0 1.24 1 2.24 2.24 2.24" id="path2195"/>
    <path class="cls-2" d="M83.57 123.14c-2.16 0-4.28-.57-6.2-1.67a12.329 12.329 0 0 1-5.79-7.55c-.86-3.21-.42-6.56 1.24-9.44s4.34-4.93 7.55-5.79c3.21-.86 6.56-.42 9.44 1.24 5.94 3.43 7.98 11.05 4.55 16.99a12.329 12.329 0 0 1-7.55 5.79c-1.07.29-2.16.43-3.24.43zm.03-20.88c-.73 0-1.47.1-2.2.29-2.18.58-4 1.98-5.12 3.93a8.329 8.329 0 0 0-.84 6.4c.58 2.18 1.98 4 3.93 5.12a8.335 8.335 0 0 0 6.4.84c2.18-.58 4-1.98 5.12-3.93 2.33-4.03.94-9.2-3.09-11.52a8.377 8.377 0 0 0-4.2-1.13z" id="path2197"/>
    <path class="cls-1"
          d="M20.57 123.14c-2.16 0-4.28-.57-6.2-1.67a12.329 12.329 0 0 1-5.79-7.55c-.86-3.21-.42-6.56 1.24-9.44s4.34-4.93 7.55-5.79c3.21-.86 6.56-.42 9.44 1.24 5.94 3.43 7.98 11.05 4.55 16.99a12.329 12.329 0 0 1-7.55 5.79c-1.07.29-2.16.43-3.24.43zm.03-20.88c-.73 0-1.47.1-2.2.29-2.18.58-4 1.98-5.12 3.93a8.329 8.329 0 0 0-.84 6.4c.58 2.18 1.98 4 3.93 5.12a8.329 8.329 0 0 0 6.4.84c2.18-.58 4-1.98 5.12-3.93a8.329 8.329 0 0 0 .84-6.4c-.58-2.18-1.98-4-3.93-5.12a8.377 8.377 0 0 0-4.2-1.13zm58.63-59.62c-2.69-1.55-6-.99-8.05 1.16l-9.72-6.55c.32-.95.48-1.94.49-2.94a9.635 9.635 0 0 0-7.59-9.52v-11.8a6.534 6.534 0 0 0 3.78-3c1.82-3.15.74-7.17-2.41-8.99a6.577 6.577 0 0 0-8.99 2.41c-1.82 3.15-.74 7.18 2.41 8.99.58.34 1.19.57 1.81.71v11.55a9.58 9.58 0 0 0-5.42 2.66c-2.62 2.57-3.51 6.38-2.39 9.83l-8.4 5.67-1.68.95c-2.05-2.12-5.35-2.67-8.02-1.12a6.577 6.577 0 0 0-2.41 8.99 6.577 6.577 0 0 0 8.99 2.41 6.567 6.567 0 0 0 3.13-7.14l9.96-6.72a9.62 9.62 0 0 0 7.48 3.69c2.96.02 5.77-1.32 7.62-3.63l9.72 6.55c-.67 2.76.52 5.75 3.11 7.24 3.15 1.82 7.17.74 8.99-2.41 1.82-3.15.74-7.17-2.41-8.99zM32.2 129.63c-5.12 0-9.32 5.12-9.73 11.62-.04.69-.09 1.38-.21 2.06l-10.44 59.63c-.41 2.36-.35 4.8.39 7.08 1.48 4.55 4.95 7.74 8.99 7.74h62.47c4.04 0 7.51-3.19 8.99-7.73.74-2.28.8-4.73.39-7.09l-10.47-59.63c-.12-.68-.17-1.37-.21-2.06-.41-6.51-4.61-11.62-9.73-11.62z"
          id="path2199"/>
    <path class="cls-2" d="M32.2 129.63c-5.39 0-9.76 5.67-9.76 12.66l-11 62.81c0 6.99 4.37 12.66 9.76 12.66h62.47c5.39 0 9.76-5.67 9.76-12.66l-10.75-62.81c-.09-7.96-4.65-12.66-10.04-12.66z" clip-path="url(#clippath-2)" id="path2201"/>
    <path class="cls-2"
          d="M70.81 132.71c-.03.07-.06.13-.08.19-.02.06-.05.12-.07.18-.04.1-.08.2-.11.3 0 .03-.02.05-.03.08-.35 1-.53 2.07-.53 3.19s.19 2.19.53 3.19c0 .03.02.05.03.08.04.1.07.2.11.3.02.06.05.12.07.18.03.07.05.13.08.19.04.09.08.18.13.28.01.03.03.06.04.09.46.95 1.08 1.84 1.87 2.62.79.79 1.67 1.41 2.62 1.87.03.01.06.03.09.04.09.04.18.09.28.13.06.03.13.06.19.08.06.02.12.05.18.07.1.04.2.08.3.11.03 0 .05.02.08.02 1 .35 2.07.54 3.19.54s2.19-.19 3.19-.54c.03 0 .05-.02.08-.02.1-.04.2-.07.3-.11.06-.02.12-.05.18-.07.07-.03.13-.06.19-.08.09-.04.18-.08.28-.13.03-.01.06-.03.09-.04a9.68 9.68 0 0 0 2.62-1.87c.79-.79 1.41-1.67 1.87-2.62.02-.03.03-.06.04-.09.04-.09.09-.18.13-.28.03-.07.06-.13.08-.19.02-.06.05-.12.07-.18.04-.1.08-.2.11-.3 0-.02.02-.05.02-.08.35-1 .54-2.07.54-3.19s-.19-2.19-.54-3.19c0-.03-.02-.05-.02-.08-.04-.1-.07-.2-.11-.3-.02-.06-.04-.12-.07-.18-.03-.07-.06-.13-.08-.19-.04-.09-.08-.18-.13-.28-.02-.03-.03-.06-.04-.09a9.469 9.469 0 0 0-1.87-2.62 9.664 9.664 0 0 0-2.63-1.87c-.03-.01-.06-.03-.09-.04-.09-.04-.19-.09-.28-.13-.06-.03-.12-.05-.19-.08-.06-.02-.12-.05-.19-.07-.1-.04-.2-.08-.29-.11-.03 0-.05-.02-.08-.03-1-.35-2.07-.53-3.19-.53s-2.19.19-3.19.53l-.08.03c-.1.04-.2.07-.3.11-.06.02-.12.05-.18.07l-.19.08c-.09.04-.19.08-.28.13-.03.01-.06.03-.09.04-.95.46-1.84 1.08-2.62 1.87-.79.79-1.41 1.67-1.87 2.62-.01.03-.03.06-.04.09-.04.09-.09.18-.13.28"
          id="path2203"/>
    <path class="cls-1" d="m38.74 159.68 11.23-11.23a4.527 4.527 0 0 1 6.39 0l11.23 11.23c2.85 2.85.83 7.71-3.2 7.71H41.94c-4.03 0-6.04-4.87-3.2-7.71z" id="path2205"/>
    <path class="cls-2" d="M64.38 168.89H41.93c-2.48 0-4.61-1.42-5.56-3.72-.95-2.29-.45-4.8 1.31-6.56l11.23-11.23a6.017 6.017 0 0 1 8.51 0l11.23 11.23c1.75 1.75 2.25 4.27 1.3 6.56s-3.08 3.72-5.56 3.72zm-11.23-20.26c-.77 0-1.55.29-2.13.88l-11.23 11.23c-.89.89-1.14 2.12-.65 3.29.48 1.17 1.53 1.86 2.79 1.86h22.45c1.26 0 2.31-.7 2.79-1.86.48-1.17.24-2.4-.65-3.29l-11.23-11.23c-.59-.59-1.36-.88-2.13-.88z" id="path2207"/>
    <path class="cls-6" d="M35.88 97.02a6.31 6.31 0 0 0 6.31-6.31c0-3.49-2.82-6.31-6.31-6.31-3.49 0-6.31 2.82-6.31 6.31 0 3.49 2.82 6.31 6.31 6.31" id="path2209"/>
    <path class="cls-8" d="M36.17 106.21c2.34 6.75 8.75 11.61 16.3 11.61 7.55 0 13.96-4.85 16.3-11.61zm-.29-12.84c1.47 0 2.66-1.19 2.66-2.66 0-1.47-1.19-2.66-2.66-2.66-1.47 0-2.66 1.19-2.66 2.66 0 1.47 1.19 2.66 2.66 2.66" id="path2211"/>
    <path class="cls-6" d="M68.96 97.02a6.31 6.31 0 0 0 6.31-6.31c0-3.49-2.82-6.31-6.31-6.31-3.49 0-6.31 2.82-6.31 6.31 0 3.49 2.82 6.31 6.31 6.31" id="path2213"/>
    <path class="cls-8" d="M68.96 93.37c1.47 0 2.66-1.19 2.66-2.66 0-1.47-1.19-2.66-2.66-2.66-1.47 0-2.66 1.19-2.66 2.66 0 1.47 1.19 2.66 2.66 2.66m-39.94 1.09h46.92v4.37H29.02Z" id="path2215"/>
    <path class="cls-2" d="M11.57 172.54a1.99 1.99 0 0 1-1.96-2.4l6.34-30.68a1.99 1.99 0 0 1 2.36-1.55 1.99 1.99 0 0 1 1.55 2.36l-6.34 30.68c-.2.95-1.03 1.6-1.96 1.6zm80.37-5.67c-.92 0-1.75-.64-1.95-1.57l-6.7-30.6c-.24-1.08.45-2.15 1.53-2.38 1.07-.23 2.15.45 2.38 1.53l6.7 30.6c.24 1.08-.45 2.15-1.53 2.38-.14.03-.29.05-.43.05z" id="path2217"/>
    <path class="cls-1"
          d="M15.56 132.71c-.03.07-.06.13-.08.19-.02.06-.05.12-.07.18-.04.1-.08.2-.11.3 0 .03-.02.05-.03.08-.35 1-.53 2.07-.53 3.19s.19 2.19.53 3.19c0 .03.02.05.03.08.04.1.07.2.11.3.02.06.05.12.07.18.03.07.05.13.08.19.04.09.08.18.13.28.01.03.03.06.04.09.46.95 1.08 1.84 1.87 2.62.79.79 1.67 1.41 2.62 1.87.03.01.06.03.09.04.09.04.18.09.28.13.06.03.13.06.19.08.06.02.12.05.18.07.1.04.2.08.3.11.03 0 .05.02.08.02 1 .35 2.07.54 3.19.54s2.19-.19 3.19-.54c.03 0 .05-.02.08-.02.1-.04.2-.07.3-.11.06-.02.12-.05.18-.07.07-.03.13-.06.19-.08.09-.04.18-.08.28-.13.03-.01.06-.03.09-.04a9.68 9.68 0 0 0 2.62-1.87c.79-.79 1.41-1.67 1.87-2.62.02-.03.03-.06.04-.09.04-.09.09-.18.13-.28.03-.07.06-.13.08-.19.02-.06.05-.12.07-.18.04-.1.08-.2.11-.3 0-.02.02-.05.02-.08.35-1 .54-2.07.54-3.19s-.19-2.19-.54-3.19c0-.03-.02-.05-.02-.08-.04-.1-.07-.2-.11-.3-.02-.06-.04-.12-.07-.18-.03-.07-.06-.13-.08-.19-.04-.09-.08-.18-.13-.28-.02-.03-.03-.06-.04-.09a9.469 9.469 0 0 0-1.87-2.62 9.664 9.664 0 0 0-2.63-1.87c-.03-.01-.06-.03-.09-.04-.09-.04-.19-.09-.28-.13-.06-.03-.12-.05-.19-.08-.06-.02-.12-.05-.19-.07-.1-.04-.2-.08-.29-.11-.03 0-.05-.02-.08-.03-1-.35-2.07-.53-3.19-.53s-2.19.19-3.19.53l-.08.03c-.1.04-.2.07-.3.11-.06.02-.12.05-.18.07l-.19.08c-.09.04-.19.08-.28.13-.03.01-.06.03-.09.04-.95.46-1.84 1.08-2.62 1.87-.79.79-1.41 1.67-1.87 2.62-.01.03-.03.06-.04.09-.04.09-.09.18-.13.28"
          id="path2219"/>
  </g>
</svg>