<svg version="1.1" viewBox="0 0 113.535 177.028" xmlns="http://www.w3.org/2000/svg">
  <defs id="defs1595">
    <clipPath id="clippath">
      <path class="cls-6" d="M0 .11h113.97v177.47H0Z" id="path1572"/>
    </clipPath>
    <clipPath id="clippath-1">
      <path class="cls-6" d="M10.4.08v113.21c0 28.36 23.17 51.36 51.75 51.36s51.75-22.99 51.75-51.36l-.06.06.05-113.26H10.4Z" id="path1575"/>
    </clipPath>
    <clipPath id="clippath-2">
      <path class="cls-6" d="M26.38 88.87c0 20 16.21 36.21 36.21 36.21S98.8 108.87 98.8 88.87 82.59 52.66 62.59 52.66 26.38 68.87 26.38 88.87" id="path1578"/>
    </clipPath>
    <clipPath id="clippath-3">
      <path class="cls-6" d="M10.4.12V113.3c0 28.36 23.17 51.34 51.75 51.34s51.75-22.99 51.75-51.34l-.06.06.05-113.24H10.4Z" id="path1581"/>
    </clipPath>
    <clipPath id="clippath-4">
      <path class="cls-6" d="M62.15 0v164.65c16.68 0 31.51-7.83 40.97-19.99V0Z" id="path1584"/>
    </clipPath>
    <clipPath id="clippath-5">
      <path class="cls-6" d="M10.4.1v113.2c0 28.36 23.17 51.35 51.75 51.35s51.75-22.99 51.75-51.35l-.06.06.05-113.25H10.4Z" id="path1587"/>
    </clipPath>
    <clipPath id="clippath-6">
      <path class="cls-6" d="M0 .11h113.97v177.47H0Z" id="path1590"/>
    </clipPath>
    <style id="style1593">.cls-1{fill:#fff}.cls-2{fill:#67c1be}.cls-3{fill:#0a9ea0}.cls-5{stroke:#1d1d1b;stroke-linecap:round;stroke-linejoin:round;stroke-width:2.61px}.cls-5,.cls-6{fill:none}.cls-12{fill:#d1d75c}.cls-14{fill:#1d1d1b}</style>
  </defs>
  <path class="cls-12" d="M62.22 164.65c28.58 0 51.75-23.17 51.75-51.75S90.8 61.15 62.22 61.15s-51.75 23.16-51.75 51.74c0 28.58 23.17 51.75 51.75 51.75" clip-path="url(#clippath)" id="path1597" transform="translate(-.435 -.127)"/>
  <g clip-path="url(#clippath-1)" id="g1607" transform="translate(-.435 -.127)">
    <path class="cls-3" d="M53.87 100.39h16.96c3.58 0 6.49 2.91 6.49 6.49v48.19c0 3.58-2.91 6.49-6.49 6.49H53.86c-3.58 0-6.49-2.91-6.49-6.49v-48.19c0-3.58 2.91-6.49 6.49-6.49z" id="path1599"/>
    <path class="cls-3" transform="rotate(-30 43.24 56.206)" d="M40.88 49.11h4.74v14.21h-4.74z" id="path1601"/>
    <path class="cls-3" transform="rotate(-60 81.028 56.215)" d="M73.92 53.85h14.21v4.74H73.92Z" id="path1603"/>
    <path class="cls-2" d="M62.58 125.08c20 0 36.21-16.21 36.21-36.21S82.58 52.66 62.58 52.66 26.37 68.87 26.37 88.87s16.21 36.21 36.21 36.21" id="path1605"/>
  </g>
  <path class="cls-3" d="M62.09 50.2h46.41v78.42H62.09Z" clip-path="url(#clippath-2)" id="path1609" transform="translate(-.435 -.127)"/>
  <g clip-path="url(#clippath-3)" id="g1617" transform="translate(-.435 -.127)">
    <path class="cls-14" d="M60.92 73.57c1.23 0 2.22-1 2.22-2.22 0-1.22-1-2.23-2.22-2.23-1.22 0-2.22 1-2.22 2.23s1 2.22 2.22 2.22m-12.74 0c1.23 0 2.22-1 2.22-2.22 0-1.22-1-2.23-2.22-2.23-1.22 0-2.22 1-2.22 2.23s1 2.22 2.22 2.22m6.37 0c1.23 0 2.22-1 2.22-2.22 0-1.22-1-2.23-2.22-2.23-1.22 0-2.22 1-2.22 2.23s1 2.22 2.22 2.22m12.74 0c1.23 0 2.22-1 2.22-2.22 0-1.22-1-2.23-2.22-2.23-1.22 0-2.22 1-2.22 2.23s1 2.22 2.22 2.22m6.37 0c1.23 0 2.22-1 2.22-2.22 0-1.22-1-2.23-2.22-2.23-1.22 0-2.22 1-2.22 2.23s1 2.22 2.22 2.22" id="path1611"/>
    <path class="cls-3" d="M93.37 101.53c-.73 0-1.46.1-2.18.29a8.362 8.362 0 0 0-5.09 3.9 8.3 8.3 0 0 0-.84 6.35 8.315 8.315 0 0 0 3.9 5.08 8.3 8.3 0 0 0 6.35.84 8.307 8.307 0 0 0 5.08-3.9c2.31-4 .93-9.13-3.06-11.44a8.269 8.269 0 0 0-4.17-1.13m-.03 20.73c-2.14 0-4.25-.56-6.15-1.66a12.24 12.24 0 0 1-5.75-7.49c-.85-3.18-.42-6.51 1.23-9.37 1.65-2.86 4.31-4.9 7.5-5.75 3.19-.85 6.51-.42 9.37 1.23 5.89 3.41 7.92 10.97 4.52 16.86-1.65 2.85-4.31 4.9-7.49 5.75-1.06.29-2.14.43-3.21.43" id="path1613"/>
    <path class="cls-2"
          d="M30.83 101.53c-.73 0-1.46.1-2.18.29a8.315 8.315 0 0 0-5.08 3.9 8.3 8.3 0 0 0-.84 6.35 8.28 8.28 0 0 0 3.9 5.08 8.344 8.344 0 0 0 6.35.84 8.28 8.28 0 0 0 5.08-3.9 8.3 8.3 0 0 0 .84-6.35 8.362 8.362 0 0 0-3.9-5.09 8.269 8.269 0 0 0-4.17-1.13m-.03 20.73c-2.14 0-4.25-.56-6.15-1.66-2.85-1.65-4.9-4.31-5.75-7.49-.85-3.18-.42-6.51 1.23-9.37 1.65-2.86 4.31-4.9 7.5-5.75 3.18-.85 6.51-.42 9.37 1.23 2.86 1.65 4.9 4.31 5.75 7.5.85 3.18.42 6.51-1.23 9.37-1.65 2.85-4.31 4.9-7.5 5.75-1.06.29-2.14.43-3.21.43m58.22-79.91a6.53 6.53 0 0 0-7.99 1.15l-9.65-6.51a9.56 9.56 0 0 0-7.05-12.37V12.91a6.48 6.48 0 0 0 3.75-2.98c1.8-3.12.73-7.12-2.39-8.93a6.547 6.547 0 0 0-8.93 2.39 6.547 6.547 0 0 0 2.39 8.93c.58.33 1.18.56 1.8.71v11.46c-2.03.28-3.92 1.2-5.38 2.64-2.6 2.55-3.48 6.33-2.38 9.76l-8.34 5.62-1.67.94c-2.04-2.1-5.31-2.65-7.96-1.12-3.13 1.8-4.2 5.8-2.39 8.93a6.53 6.53 0 0 0 8.93 2.39c2.54-1.46 3.72-4.37 3.11-7.09l9.89-6.67a9.52 9.52 0 0 0 7.42 3.66c2.94.02 5.72-1.31 7.56-3.6l9.65 6.51c-.66 2.74.51 5.71 3.08 7.19 3.13 1.8 7.12.73 8.93-2.39 1.81-3.12.73-7.12-2.39-8.93M42.34 128.7c-5.08 0-9.25 5.08-9.66 11.54-.04.69-.09 1.37-.21 2.05l-10.36 59.19c-.41 2.34-.35 4.77.39 7.03 1.47 4.51 4.91 7.68 8.93 7.68h62.02c4.01 0 7.46-3.17 8.93-7.68.74-2.26.8-4.69.38-7.04l-10.39-59.19c-.12-.68-.17-1.36-.21-2.05-.4-6.46-4.57-11.54-9.66-11.54H42.34Z"
          id="path1615"/>
  </g>
  <path class="cls-3" d="M42.34 128.7c-5.35 0-9.69 5.63-9.69 12.57l-10.92 62.35c0 6.94 4.34 12.57 9.69 12.57h62.02c5.35 0 9.69-5.63 9.69-12.57l-10.67-62.35c-.08-7.91-4.62-12.57-9.97-12.57Z" clip-path="url(#clippath-4)" id="path1619" transform="translate(-.435 -.127)"/>
  <g clip-path="url(#clippath-5)" id="g1643" transform="translate(-.435 -.127)">
    <path class="cls-3"
          d="M80.67 131.75c-.03.06-.06.13-.08.19-.03.06-.05.12-.07.18-.04.1-.08.2-.11.3 0 .03-.02.05-.03.08a9.76 9.76 0 0 0 0 6.34c0 .03.02.05.03.08.04.1.07.2.11.3.03.06.05.12.07.18.03.06.05.13.08.19l.12.27c.01.03.03.06.04.09a9.705 9.705 0 0 0 4.46 4.47c.03.01.06.03.09.04l.27.12c.06.03.13.06.19.08.06.02.12.05.18.07.1.04.2.08.3.11.03 0 .05.02.08.02a9.76 9.76 0 0 0 6.34 0c.03 0 .05-.02.08-.02.1-.04.2-.07.3-.11.06-.03.12-.05.18-.07.06-.03.13-.06.19-.08l.27-.12c.03-.01.06-.03.09-.04.94-.46 1.83-1.08 2.61-1.86.78-.78 1.4-1.66 1.86-2.61.02-.03.03-.06.04-.09.04-.09.08-.18.13-.27.03-.06.06-.13.08-.19.02-.06.05-.12.07-.18.04-.1.08-.2.11-.3 0-.03.01-.05.02-.08a9.76 9.76 0 0 0 0-6.34c0-.03-.02-.05-.02-.08-.04-.1-.07-.2-.11-.3-.02-.06-.05-.12-.07-.18-.03-.06-.06-.13-.08-.19-.04-.09-.08-.18-.13-.27-.01-.03-.03-.06-.04-.09a9.705 9.705 0 0 0-4.47-4.46c-.03-.01-.06-.03-.08-.04-.09-.04-.18-.08-.28-.13-.06-.03-.12-.05-.18-.08s-.12-.05-.19-.07c-.1-.04-.19-.08-.29-.11-.03 0-.05-.02-.08-.03-.99-.34-2.06-.53-3.16-.53s-2.17.19-3.16.53c-.03 0-.05.02-.08.03-.1.04-.19.07-.29.11-.06.02-.12.05-.18.07-.06.03-.12.05-.19.08-.09.04-.19.08-.28.13-.03.01-.06.03-.08.04a9.705 9.705 0 0 0-4.47 4.46c-.01.03-.03.06-.04.09-.05.09-.08.18-.12.27"
          id="path1621"/>
    <path class="cls-2"
          d="M25.83 131.75c-.03.06-.06.13-.08.19-.03.06-.05.12-.07.18-.04.1-.08.2-.11.3 0 .03-.02.05-.03.08a9.76 9.76 0 0 0 0 6.34c0 .03.02.05.03.08.04.1.07.2.11.3.03.06.05.12.07.18.03.06.05.13.08.19l.12.27c.01.03.03.06.04.09a9.705 9.705 0 0 0 4.46 4.47c.03.01.06.03.09.04l.27.12c.06.03.13.06.19.08.06.02.12.05.18.07.1.04.2.08.3.11.03 0 .05.02.08.02a9.76 9.76 0 0 0 6.34 0c.03 0 .05-.02.08-.02.1-.04.2-.07.3-.11.06-.03.12-.05.18-.07.06-.03.13-.06.19-.08l.27-.12c.03-.01.06-.03.09-.04.94-.46 1.83-1.08 2.61-1.86.78-.78 1.4-1.66 1.86-2.61.02-.03.03-.06.05-.09l.12-.27c.03-.06.06-.13.08-.19.02-.06.05-.12.07-.18.04-.1.08-.2.11-.3 0-.03.01-.05.02-.08a9.76 9.76 0 0 0 0-6.34c0-.03-.02-.05-.02-.08-.04-.1-.07-.2-.11-.3-.02-.06-.05-.12-.07-.18-.03-.06-.06-.13-.08-.19l-.12-.27c-.02-.03-.03-.06-.05-.09a9.705 9.705 0 0 0-4.47-4.46c-.03-.01-.06-.03-.08-.04-.09-.04-.18-.08-.28-.13-.06-.03-.12-.05-.18-.08s-.12-.05-.19-.07c-.1-.04-.19-.08-.29-.11-.03 0-.05-.02-.08-.03-.99-.34-2.06-.53-3.16-.53s-2.17.19-3.16.53c-.03 0-.05.02-.08.03-.1.04-.2.07-.29.11-.06.02-.12.05-.18.07-.06.03-.12.05-.19.08-.09.04-.19.08-.28.13-.03.01-.06.03-.08.04a9.705 9.705 0 0 0-4.47 4.46c-.01.03-.03.06-.04.09-.05.09-.08.18-.12.27"
          id="path1623"/>
    <path class="cls-14" d="M86.98 99.02a26.763 26.763 0 0 0 .58-18.37H36.61a26.763 26.763 0 0 0 .58 18.37h49.8z" id="path1625"/>
    <path class="cls-12" d="M45.67 96.2c3.46 0 6.26-2.8 6.26-6.26s-2.8-6.26-6.26-6.26-6.26 2.8-6.26 6.26 2.8 6.26 6.26 6.26" id="path1627"/>
    <path class="cls-14" d="M48.05 91.33c1.46 0 2.64-1.18 2.64-2.64 0-1.46-1.18-2.64-2.64-2.64-1.46 0-2.64 1.18-2.64 2.64 0 1.46 1.18 2.64 2.64 2.64" id="path1629"/>
    <path class="cls-12" d="M78.5 96.2c3.46 0 6.26-2.8 6.26-6.26s-2.8-6.26-6.26-6.26-6.26 2.8-6.26 6.26 2.8 6.26 6.26 6.26" id="path1631"/>
    <path class="cls-14" d="M80.89 91.33c1.46 0 2.64-1.18 2.64-2.64 0-1.46-1.18-2.64-2.64-2.64-1.46 0-2.64 1.18-2.64 2.64 0 1.46 1.18 2.64 2.64 2.64m-4.97 16.43c.39-.72.63-1.54.63-2.42H66.3c0 .88.24 1.69.63 2.42zM39.1 81.63h12.38v3.47H39.1Z" id="path1633"/>
    <path class="cls-14" transform="rotate(-81.82 44.8 94.7)" d="M43.06 88.51h3.47v12.38h-3.47z" id="path1635"/>
    <path class="cls-14" transform="rotate(-8.18 78.973 94.695)" d="M72.77 92.96h12.38v3.47H72.77Z" id="path1637"/>
    <path class="cls-2" d="m47.82 158.98 11.23-11.23a4.527 4.527 0 0 1 6.39 0l11.23 11.23c2.85 2.85.83 7.71-3.2 7.71H51.02c-4.03 0-6.04-4.87-3.2-7.71z" id="path1639"/>
    <path class="cls-3" d="M73.47 168.19H51.02c-2.48 0-4.61-1.42-5.56-3.72-.95-2.29-.45-4.8 1.31-6.56L58 146.68a6.017 6.017 0 0 1 8.51 0l11.23 11.23c1.75 1.75 2.25 4.27 1.3 6.56s-3.08 3.72-5.56 3.72zm-11.23-20.26c-.77 0-1.55.29-2.13.88l-11.23 11.23c-.89.89-1.14 2.12-.65 3.29.48 1.17 1.53 1.86 2.79 1.86h22.45c1.26 0 2.31-.7 2.79-1.86.48-1.17.24-2.4-.65-3.29l-11.23-11.23c-.59-.59-1.36-.88-2.13-.88z" id="path1641"/>
  </g>
  <g clip-path="url(#clippath-6)" id="g1657" transform="translate(-.435 -.127)">
    <path class="cls-3" d="M107.41 165.71c-.4 0-.79-.16-1.09-.47l-18.59-19.65a1.5 1.5 0 0 1 2.18-2.06l13.01 13.75-9.75-19.33c-.37-.74-.08-1.64.66-2.01.74-.37 1.64-.08 2.01.66l13.49 26.75c.37.74.08 1.64-.66 2.01-.17.08-.35.14-.53.15-.23.13-.48.19-.73.19z" id="path1645"/>
    <path class="cls-2"
          d="m111.52 162.85-.03-.09c0-.03-.02-.05-.03-.08-.02-.04-.03-.09-.05-.13 0-.01 0-.02-.01-.03a4.16 4.16 0 0 0-.77-1.2 4.31 4.31 0 0 0-1.12-.89c-.01 0-.02-.01-.03-.02-.04-.02-.08-.04-.13-.06-.03-.01-.05-.03-.08-.04-.03-.01-.06-.03-.08-.04-.04-.02-.08-.04-.12-.05-.01 0-.03-.01-.04-.02-.43-.18-.9-.28-1.39-.3-.49-.03-.97.03-1.41.16-.01 0-.03 0-.04.01-.04.01-.08.03-.13.04-.03 0-.06.02-.09.03-.03 0-.05.02-.08.03-.04.02-.09.03-.13.05a4.16 4.16 0 0 0-1.23.78c-.37.33-.66.71-.89 1.12 0 0-.01.02-.02.03-.02.04-.04.08-.06.13-.01.03-.03.05-.04.08-.01.03-.03.06-.04.08-.02.04-.04.08-.05.12 0 .01-.01.03-.02.04-.17.43-.28.9-.31 1.39-.02.49.04.97.17 1.41 0 .01 0 .03.01.04.01.04.03.08.04.13l.03.09c.01.03.02.05.03.08.02.05.03.09.05.13a4.348 4.348 0 0 0 1.9 2.13c.01 0 .02.01.03.02.04.02.08.04.13.06.03.01.05.03.08.04.03.01.06.03.08.04.04.02.08.04.12.05.01 0 .03.01.04.02.43.17.9.28 1.39.31.49.02.97-.04 1.42-.17.01 0 .03 0 .04-.01.04-.01.09-.03.13-.04.03 0 .06-.02.09-.03.03-.01.05-.02.08-.03.04-.02.09-.03.13-.05.01 0 .02 0 .03-.02.43-.18.84-.44 1.2-.77s.66-.71.89-1.12c0-.01.01-.02.02-.03l.06-.12c.01-.03.03-.05.04-.08.01-.03.03-.06.04-.08.02-.04.04-.08.05-.13 0-.01.01-.03.02-.04.17-.43.28-.9.3-1.39.03-.49-.03-.97-.16-1.42 0-.01 0-.03-.01-.04-.01-.04-.03-.08-.04-.13m-29.82-35.5c-.99.89-2.51.82-3.4-.17l-8.23-9.11c-.89-.99-.82-2.51.17-3.4.99-.89 2.51-.82 3.4.17l8.23 9.11c.89.99.82 2.51-.17 3.4m-4.66 4.21c-.99.89-2.51.82-3.4-.17l-1.45-1.6c-.89-.99-.82-2.51.17-3.4.99-.89 2.51-.81 3.4.17l1.45 1.6c.89.99.82 2.51-.17 3.4m-4.65 4.21c-.99.89-2.51.82-3.4-.17l-1.45-1.6c-.89-.99-.82-2.51.17-3.4.99-.89 2.51-.81 3.4.17l1.45 1.6c.89.99.82 2.51-.17 3.4m18.02-2.2-5.79-6.4-12.8 11.57 5.79 6.4c3.19 3.53 8.65 3.81 12.19.61 3.53-3.19 3.81-8.65.61-12.18"
          id="path1647"/>
    <path class="cls-1" d="M15.68 136.93c0-4.38 1.38-6.41 4.38-6.41 2.43 0 3.57 1.06 3.57 3.41 0 6.25-8.92 7.54-8.92 19.63h13.55c0-8.52 12.17-10.87 12.17-22.63 0-9.33-6.89-14.76-18.66-14.76-12.65 0-20.03 7.71-20.03 20.76z" id="path1649"/>
    <path class="cls-5" d="M15.68 136.93c0-4.38 1.38-6.41 4.38-6.41 2.43 0 3.57 1.06 3.57 3.41 0 6.25-8.92 7.54-8.92 19.63h13.55c0-8.52 12.17-10.87 12.17-22.63 0-9.33-6.89-14.76-18.66-14.76-12.65 0-20.03 7.71-20.03 20.76z" id="path1651"/>
    <path class="cls-1" d="M30.38 167.73a8.12 8.12 0 0 1-8.12 8.12c-4.49 0-8.12-3.63-8.12-8.12 0-4.49 3.63-8.12 8.12-8.12 4.49 0 8.12 3.63 8.12 8.12" id="path1653"/>
    <circle class="cls-5" cx="22.27" cy="167.73" r="8.12" id="circle1655"/>
  </g>
</svg>