<svg version="1.1" viewBox="0 0 125 162.16" xmlns="http://www.w3.org/2000/svg"><defs id="defs2630"><clipPath id="clippath"><path class="cls-9" d="M104.21 96.57 104.27 0H0v96.51c0 28.79 23.34 52.14 52.14 52.14s52.14-23.34 52.14-52.14l-.06.06z" id="path2619"/></clipPath><clipPath id="clippath-1"><rect class="cls-9" x="16.7" y="39.73" width="69.88" height="63.94" rx="8.32" ry="8.32" id="rect2622"/></clipPath><clipPath id="clippath-2"><path class="cls-9" d="M51.98 105.96h45.05v75.68H51.98Z" id="path2625"/></clipPath><style id="style2628">.cls-1{fill:#fff}.cls-3{fill:#67c1be}.cls-4{fill:#0a9ea0}.cls-6{fill:#e2b847}.cls-9{fill:none}.cls-11{fill:#1d1d1b}</style></defs><path d="M52.13 148.36c28.79 0 52.14-23.34 52.14-52.14S80.93 44.08 52.13 44.08 0 67.43 0 96.22s23.34 52.14 52.14 52.14" style="fill:#784176" id="path2632"/><g clip-path="url(#clippath)" id="g2674" transform="translate(-.13 -.34)"><path style="fill:none;stroke:#0a9ea0;stroke-width:4px;stroke-linecap:round" d="m8.05 153.71 6.49-30.65" id="path2634"/><path class="cls-3" d="M59.48 8.14c0-4.3-3.5-7.8-7.8-7.8s-7.8 3.5-7.8 7.8c0 3.72 2.61 6.83 6.1 7.61v24.83h3.4V15.75c3.48-.78 6.1-3.89 6.1-7.61zm-7.8 4.4a4.4 4.4 0 1 1 0-8.8 4.4 4.4 0 0 1 0 8.8zM37.19 18.2c0-4.3-3.5-7.8-7.8-7.8s-7.8 3.5-7.8 7.8 3.5 7.8 7.8 7.8c1.51 0 2.92-.44 4.12-1.19l8.32 9.1v13.77h3.4V32.59l-9.29-10.17a7.744 7.744 0 0 0 1.25-4.22zm-12.2 0a4.4 4.4 0 1 1 8.8 0 4.4 4.4 0 0 1-8.8 0z" id="path2636"/><path class="cls-4" d="M74.17 10.4c-4.3 0-7.8 3.5-7.8 7.8 0 1.56.46 3.01 1.25 4.22l-9.29 10.16v15.09h3.4V33.9l8.32-9.1a7.75 7.75 0 0 0 4.12 1.19c4.3 0 7.8-3.5 7.8-7.8s-3.5-7.8-7.8-7.8zm0 12.2a4.4 4.4 0 1 1 0-8.8 4.4 4.4 0 0 1 0 8.8zm-36.5 64.48v48.54c0 3.61 2.92 6.53 6.53 6.53h17.09c3.61 0 6.53-2.93 6.53-6.53V87.08M17.43 56.57h69.42c3.67 0 6.65 2.98 6.65 6.65v6.66c0 3.67-2.98 6.66-6.66 6.66H17.43c-3.67 0-6.66-2.98-6.66-6.66v-6.65c0-3.67 2.98-6.66 6.66-6.66z" id="path2638"/><path class="cls-3" d="M25.01 39.73h53.25c4.59 0 8.32 3.73 8.32 8.32v47.3c0 4.59-3.73 8.32-8.32 8.32H25.01c-4.59 0-8.32-3.73-8.32-8.32v-47.3c0-4.59 3.73-8.32 8.32-8.32z" id="path2640"/><path class="cls-4" d="M51.64 36.4h50.96v86.11H51.64Z" clip-path="url(#clippath-1)" id="path2642"/><rect class="cls-11" x="22.27" y="54.98" width="58.1" height="22.05" rx="4.16" ry="4.16" id="rect2644"/><path class="cls-4" d="M74.8 113.22c-.03.07-.06.13-.08.19-.02.06-.05.12-.07.18-.04.1-.08.2-.11.3 0 .03-.02.05-.03.08-.35 1-.53 2.07-.53 3.19s.19 2.19.53 3.19c0 .03.02.05.03.08.04.1.07.2.11.3.02.06.05.12.07.18.03.07.05.13.08.19.04.09.08.18.13.28.01.03.03.06.04.09.46.95 1.08 1.84 1.87 2.62.79.79 1.67 1.41 2.62 1.87.03.01.06.03.09.04.09.04.18.09.28.13.06.03.13.06.19.08.06.02.12.05.18.07.1.04.2.08.3.11.03 0 .05.02.08.02 1 .35 2.07.54 3.19.54s2.19-.19 3.19-.54c.03 0 .05-.02.08-.02.1-.04.2-.07.3-.11.06-.02.12-.05.18-.07.07-.03.13-.06.19-.08.09-.04.18-.08.28-.13.03-.01.06-.03.09-.04a9.68 9.68 0 0 0 2.62-1.87c.79-.79 1.41-1.67 1.87-2.62.02-.03.03-.06.04-.09.04-.09.09-.18.13-.28.03-.07.06-.13.08-.19.02-.06.05-.12.07-.18.04-.1.08-.2.11-.3 0-.02.02-.05.02-.08.35-1 .54-2.07.54-3.19s-.19-2.19-.54-3.19c0-.03-.02-.05-.02-.08-.04-.1-.07-.2-.11-.3-.02-.06-.04-.12-.07-.18-.03-.07-.06-.13-.08-.19-.04-.09-.08-.18-.13-.28-.02-.03-.03-.06-.04-.09a9.469 9.469 0 0 0-1.87-2.62 9.664 9.664 0 0 0-2.63-1.87c-.03-.01-.06-.03-.09-.04-.09-.04-.19-.09-.28-.13-.06-.03-.12-.05-.19-.08-.06-.02-.12-.05-.19-.07-.1-.04-.2-.08-.29-.11-.03 0-.05-.02-.08-.03-1-.35-2.07-.53-3.19-.53s-2.19.19-3.19.53l-.08.03c-.1.04-.2.07-.3.11-.06.02-.12.05-.18.07l-.19.08c-.09.04-.19.08-.28.13-.03.01-.06.03-.09.04-.95.46-1.84 1.08-2.62 1.87-.79.79-1.41 1.67-1.87 2.62-.01.03-.03.06-.04.09-.04.09-.09.18-.13.28" id="path2646"/><path class="cls-3" d="M11.62 113.22c-.03.07-.06.13-.08.19-.02.06-.05.12-.07.18-.04.1-.08.2-.11.3 0 .03-.02.05-.03.08-.35 1-.53 2.07-.53 3.19s.19 2.19.53 3.19c0 .03.02.05.03.08.04.1.07.2.11.3.02.06.05.12.07.18.03.07.05.13.08.19.04.09.08.18.13.28.01.03.03.06.04.09.46.95 1.08 1.84 1.87 2.62.79.79 1.67 1.41 2.62 1.87.03.01.06.03.09.04.09.04.18.09.28.13.06.03.13.06.19.08.06.02.12.05.18.07.1.04.2.08.3.11.03 0 .05.02.08.02 1 .35 2.07.54 3.19.54s2.19-.19 3.19-.54c.03 0 .05-.02.08-.02.1-.04.2-.07.3-.11.06-.02.12-.05.18-.07.07-.03.13-.06.19-.08.09-.04.18-.08.28-.13.03-.01.06-.03.09-.04a9.68 9.68 0 0 0 2.62-1.87c.79-.79 1.41-1.67 1.87-2.62.02-.03.03-.06.04-.09.04-.09.09-.18.13-.28.03-.07.06-.13.08-.19.02-.06.05-.12.07-.18.04-.1.08-.2.11-.3 0-.02.02-.05.02-.08.35-1 .54-2.07.54-3.19s-.19-2.19-.54-3.19c0-.03-.02-.05-.02-.08-.04-.1-.07-.2-.11-.3-.02-.06-.04-.12-.07-.18-.03-.07-.06-.13-.08-.19-.04-.09-.08-.18-.13-.28-.02-.03-.03-.06-.04-.09a9.469 9.469 0 0 0-1.87-2.62 9.664 9.664 0 0 0-2.63-1.87c-.03-.01-.06-.03-.09-.04-.09-.04-.19-.09-.28-.13-.06-.03-.12-.05-.19-.08-.06-.02-.12-.05-.19-.07-.1-.04-.2-.08-.29-.11-.03 0-.05-.02-.08-.03-1-.35-2.07-.53-3.19-.53s-2.19.19-3.19.53l-.08.03c-.1.04-.2.07-.3.11-.06.02-.12.05-.18.07l-.19.08c-.09.04-.19.08-.28.13-.03.01-.06.03-.09.04-.95.46-1.84 1.08-2.62 1.87-.79.79-1.41 1.67-1.87 2.62-.01.03-.03.06-.04.09-.04.09-.09.18-.13.28" id="path2648"/><rect class="cls-3" x="17.05" y="110.49" width="69.53" height="66.23" rx="7.88" ry="7.88" id="rect2650"/><rect class="cls-4" x="17.21" y="110.49" width="69.53" height="66.23" rx="7.88" ry="7.88" clip-path="url(#clippath-2)" id="rect2652"/><path class="cls-4" d="M51.69 135.24c3.67 0 6.64-2.97 6.64-6.64 0-3.67-2.97-6.64-6.64-6.64-3.67 0-6.64 2.97-6.64 6.64 0 3.67 2.97 6.64 6.64 6.64" id="path2654"/><path class="cls-3" d="M51.69 136.63c-4.43 0-8.04-3.61-8.04-8.04s3.61-8.04 8.04-8.04 8.04 3.61 8.04 8.04-3.61 8.04-8.04 8.04zm0-13.29c-2.9 0-5.25 2.36-5.25 5.25s2.36 5.25 5.25 5.25 5.25-2.36 5.25-5.25-2.36-5.25-5.25-5.25z" id="path2656"/><circle class="cls-1" cx="44.77" cy="49.1" r="2.4" id="circle2658"/><circle class="cls-1" cx="51.69" cy="49.1" r="2.4" id="circle2660"/><circle class="cls-1" cx="58.5" cy="49.1" r="2.4" id="circle2662"/><path class="cls-11" d="M51.81 94.35c3.27 0 5.84-2.99 5.13-6.38-.41-1.98-2.02-3.59-4-4a5.246 5.246 0 0 0-6.37 5.13c0 2.9 2.35 5.25 5.25 5.25" id="path2664"/><path class="cls-6" d="M34.74 72.47a6.31 6.31 0 0 0 6.31-6.31c0-3.49-2.82-6.31-6.31-6.31-3.49 0-6.31 2.82-6.31 6.31 0 3.49 2.82 6.31 6.31 6.31" id="path2666"/><path class="cls-11" d="M33.04 71.16c1.47 0 2.66-1.19 2.66-2.66 0-1.47-1.19-2.66-2.66-2.66-1.47 0-2.66 1.19-2.66 2.66 0 1.47 1.19 2.66 2.66 2.66" id="path2668"/><path class="cls-6" d="M67.82 72.47a6.31 6.31 0 0 0 6.31-6.31c0-3.49-2.82-6.31-6.31-6.31-3.49 0-6.31 2.82-6.31 6.31 0 3.49 2.82 6.31 6.31 6.31" id="path2670"/><path class="cls-11" d="M66.12 71.16c1.47 0 2.66-1.19 2.66-2.66 0-1.47-1.19-2.66-2.66-2.66-1.47 0-2.66 1.19-2.66 2.66 0 1.47 1.19 2.66 2.66 2.66" id="path2672"/></g><path class="cls-4" d="M116.26 118.14H84.93c-1.1 0-2-.9-2-2s.9-2 2-2h31.33c1.1 0 2 .9 2 2s-.9 2-2 2z" id="path2676"/><path class="cls-4" d="M116.26 118.14c-1.1 0-2-.9-2-2V87.88c0-1.1.9-2 2-2s2 .9 2 2v28.26c0 1.1-.9 2-2 2z" id="path2678"/><path class="cls-3" d="M112.26 117.89s-.02-.06-.04-.09c-.01-.03-.02-.05-.03-.08-.02-.04-.03-.09-.05-.13 0-.01 0-.02-.01-.04-.15-.45-.24-.92-.24-1.42 0-.5.08-.97.24-1.42 0-.01 0-.02.01-.03.02-.05.03-.09.05-.13.01-.03.02-.05.03-.08.01-.03.02-.06.04-.09l.06-.12c0-.01.01-.03.02-.04.21-.42.48-.82.83-1.17s.75-.63 1.17-.83c.01 0 .03-.01.04-.02l.12-.06c.03-.01.06-.02.09-.04.03-.01.05-.02.08-.03.04-.02.09-.03.13-.05.01 0 .02 0 .04-.01.44-.15.92-.24 1.42-.24.5 0 .97.08 1.42.24.01 0 .02 0 .03.01.04.02.09.03.13.05.03.01.05.02.08.03.03.01.06.02.09.04l.12.06c.01 0 .03.01.04.02.42.21.82.48 1.17.83s.63.75.83 1.17c0 .01.01.03.02.04l.06.12c.01.03.02.06.04.09.01.03.02.05.03.08.02.04.03.09.05.13 0 .01 0 .02.01.03.15.45.24.92.24 1.42 0 .5-.08.98-.24 1.42 0 .01 0 .02-.01.04-.02.04-.03.09-.05.13-.01.03-.02.05-.03.08-.01.03-.02.06-.04.09l-.06.12c0 .01-.01.03-.02.04-.21.42-.48.82-.83 1.17s-.75.63-1.17.83c-.01 0-.03.01-.04.02l-.12.06c-.03.01-.06.02-.08.04-.03.01-.06.02-.08.03-.04.02-.09.03-.13.05-.01 0-.02 0-.04.01-.44.15-.92.24-1.42.24-.5 0-.97-.08-1.42-.24h-.04s-.09-.04-.13-.06a.689.689 0 0 1-.08-.03l-.08-.04-.12-.06c-.01 0-.03-.01-.04-.02-.42-.21-.82-.48-1.17-.83s-.63-.75-.83-1.17c0-.01-.01-.03-.02-.04l-.06-.12M125 80.72v-8.69h-17.38v8.69c0 4.8 3.89 8.69 8.69 8.69 4.8 0 8.69-3.89 8.69-8.69z" id="path2680"/><rect class="cls-3" x="-112.36" y="-70.2" width="4.85" height="17.22" rx="2.43" ry="2.43" transform="scale(-1)" id="rect2682"/><rect class="cls-3" x="-118.68" y="-70.2" width="4.85" height="7.02" rx="2.43" ry="2.43" transform="scale(-1)" id="rect2684"/><rect class="cls-3" x="-125" y="-70.2" width="4.85" height="7.02" rx="2.43" ry="2.43" transform="scale(-1)" id="rect2686"/><path class="cls-1" d="M21.87 117.27v-15.22H3.79v15.22l3.38 21.43h11.32z" id="path2688"/><path d="M19.99 140.45H5.68l-3.63-23.17v-16.97h21.57l-.02 17.24Zm-11.32-3.5H17l3.13-19.81v-13.33H5.54v13.33zm13.21-19.67z" id="path2690"/><g id="g2696" transform="translate(-.13 -.34)"><circle class="cls-1" cx="13.21" cy="152.94" r="7.81" id="circle2692"/><path class="cls-11" d="M13.21 162.5c-5.27 0-9.56-4.29-9.56-9.55 0-5.26 4.29-9.55 9.56-9.55 5.27 0 9.55 4.29 9.55 9.55 0 5.26-4.29 9.55-9.55 9.55zm0-15.62c-3.34 0-6.07 2.72-6.07 6.07s2.72 6.07 6.07 6.07 6.07-2.72 6.07-6.07-2.72-6.07-6.07-6.07z" id="path2694"/></g></svg>