<svg version="1.1" viewBox="0 0 115.918 162.55" xmlns="http://www.w3.org/2000/svg"><defs id="defs3438"><clipPath id="clippath"><path class="cls-9" d="M114.9 96.57 114.96 0H10.69v96.51c0 28.79 23.34 52.14 52.14 52.14s52.14-23.34 52.14-52.14l-.06.06z" id="path3427"/></clipPath><clipPath id="clippath-1"><path class="cls-9" d="M35.86 39.73h53.25c4.59 0 8.32 3.73 8.32 8.32v47.3c0 4.59-3.73 8.32-8.32 8.32H35.86c-4.59 0-8.32-3.73-8.32-8.32V48.04c0-4.59 3.73-8.32 8.32-8.32z" id="path3430"/></clipPath><clipPath id="clippath-2"><path class="cls-9" d="M62.82 105.96h45.05v75.68H62.82Z" id="path3433"/></clipPath><style id="style3436">.cls-1{fill:#fff}.cls-3{fill:#67c1be}.cls-4{fill:#0a9ea0}.cls-6{fill:#e2b847}.cls-9{fill:none}.cls-11{fill:#1d1d1b}</style></defs><path d="M63.11 148.36c28.79 0 52.14-23.34 52.14-52.14S91.91 44.08 63.11 44.08 10.97 67.43 10.97 96.22s23.34 52.14 52.14 52.14" style="fill:#784176" id="path3440"/><g clip-path="url(#clippath)" id="g3486" transform="translate(0 -.34)"><path style="fill:none;stroke:#0a9ea0;stroke-width:4px;stroke-linecap:round" d="m18.89 153.71 6.49-30.65" id="path3442"/><path class="cls-3" d="M70.33 8.14c0-4.3-3.5-7.8-7.8-7.8s-7.8 3.5-7.8 7.8c0 3.72 2.61 6.83 6.1 7.61v24.83h3.4V15.75c3.48-.78 6.1-3.89 6.1-7.61zm-7.8 4.4a4.4 4.4 0 1 1 0-8.8 4.4 4.4 0 0 1 0 8.8zm-14.5 5.66c0-4.3-3.5-7.8-7.8-7.8s-7.8 3.5-7.8 7.8 3.5 7.8 7.8 7.8c1.51 0 2.92-.44 4.12-1.19l8.32 9.1v13.77h3.4V32.59l-9.29-10.16a7.744 7.744 0 0 0 1.25-4.22zm-12.2 0a4.4 4.4 0 1 1 8.8 0 4.4 4.4 0 0 1-8.8 0z" id="path3444"/><path class="cls-4" d="M85.01 10.4c-4.3 0-7.8 3.5-7.8 7.8 0 1.56.46 3.01 1.25 4.22l-9.29 10.16v15.09h3.4V33.9l8.32-9.1a7.75 7.75 0 0 0 4.12 1.19c4.3 0 7.8-3.5 7.8-7.8s-3.5-7.8-7.8-7.8zm0 12.2a4.4 4.4 0 1 1 0-8.8 4.4 4.4 0 0 1 0 8.8zM48.52 87.08v48.54c0 3.61 2.92 6.53 6.53 6.53h17.09c3.61 0 6.53-2.93 6.53-6.53V87.08m-50.4-30.51h69.42c3.67 0 6.65 2.98 6.65 6.65v6.66c0 3.67-2.98 6.66-6.66 6.66H28.27c-3.67 0-6.66-2.98-6.66-6.66v-6.65c0-3.67 2.98-6.66 6.66-6.66z" id="path3446"/><rect class="cls-3" x="27.54" y="39.73" width="69.88" height="63.94" rx="8.32" ry="8.32" id="rect3448"/><path class="cls-4" d="M62.48 36.4h50.96v86.11H62.48Z" clip-path="url(#clippath-1)" id="path3450"/><rect class="cls-11" x="33.12" y="54.98" width="58.1" height="22.05" rx="4.16" ry="4.16" id="rect3452"/><path class="cls-4" d="M85.65 113.22c-.03.07-.06.13-.08.19-.02.06-.05.12-.07.18-.04.1-.08.2-.11.3 0 .03-.02.05-.03.08-.35 1-.53 2.07-.53 3.19s.19 2.19.53 3.19c0 .03.02.05.03.08.04.1.07.2.11.3.02.06.05.12.07.18.03.07.05.13.08.19.04.09.08.18.13.28.01.03.03.06.04.09.46.95 1.08 1.84 1.87 2.62.79.79 1.67 1.41 2.62 1.87.03.01.06.03.09.04.09.04.18.09.28.13.06.03.13.06.19.08.06.02.12.05.18.07.1.04.2.08.3.11.03 0 .05.02.08.02 1 .35 2.07.54 3.19.54s2.19-.19 3.19-.54c.03 0 .05-.02.08-.02.1-.04.2-.07.3-.11.06-.02.12-.05.18-.07.07-.03.13-.06.19-.08.09-.04.18-.08.28-.13.03-.01.06-.03.09-.04a9.68 9.68 0 0 0 2.62-1.87c.79-.79 1.41-1.67 1.87-2.62.02-.03.03-.06.04-.09.04-.09.09-.18.13-.28.03-.07.06-.13.08-.19.02-.06.05-.12.07-.18.04-.1.08-.2.11-.3 0-.02.02-.05.02-.08.35-1 .54-2.07.54-3.19s-.19-2.19-.54-3.19c0-.03-.02-.05-.02-.08-.04-.1-.07-.2-.11-.3-.02-.06-.04-.12-.07-.18-.03-.07-.06-.13-.08-.19-.04-.09-.08-.18-.13-.28-.02-.03-.03-.06-.04-.09a9.469 9.469 0 0 0-1.87-2.62 9.664 9.664 0 0 0-2.63-1.87c-.03-.01-.06-.03-.09-.04-.09-.04-.19-.09-.28-.13-.06-.03-.12-.05-.19-.08-.06-.02-.12-.05-.19-.07-.1-.04-.2-.08-.29-.11-.03 0-.05-.02-.08-.03-1-.35-2.07-.53-3.19-.53s-2.19.19-3.19.53l-.08.03c-.1.04-.2.07-.3.11-.06.02-.12.05-.18.07l-.19.08c-.09.04-.19.08-.28.13-.03.01-.06.03-.09.04-.95.46-1.84 1.08-2.62 1.87-.79.79-1.41 1.67-1.87 2.62-.01.03-.03.06-.04.09-.04.09-.09.18-.13.28" id="path3454"/><path class="cls-3" d="M22.46 113.22c-.03.07-.06.13-.08.19-.02.06-.05.12-.07.18-.04.1-.08.2-.11.3 0 .03-.02.05-.03.08-.35 1-.53 2.07-.53 3.19s.19 2.19.53 3.19c0 .03.02.05.03.08.04.1.07.2.11.3.02.06.05.12.07.18.03.07.05.13.08.19.04.09.08.18.13.28.01.03.03.06.04.09.46.95 1.08 1.84 1.87 2.62.79.79 1.67 1.41 2.62 1.87.03.01.06.03.09.04.09.04.18.09.28.13.06.03.13.06.19.08.06.02.12.05.18.07.1.04.2.08.3.11.03 0 .05.02.08.02 1 .35 2.07.54 3.19.54s2.19-.19 3.19-.54c.03 0 .05-.02.08-.02.1-.04.2-.07.3-.11.06-.02.12-.05.18-.07.07-.03.13-.06.19-.08.09-.04.18-.08.28-.13.03-.01.06-.03.09-.04a9.68 9.68 0 0 0 2.62-1.87c.79-.79 1.41-1.67 1.87-2.62.02-.03.03-.06.04-.09.04-.09.09-.18.13-.28.03-.07.06-.13.08-.19.02-.06.05-.12.07-.18.04-.1.08-.2.11-.3 0-.02.02-.05.02-.08.35-1 .54-2.07.54-3.19s-.19-2.19-.54-3.19c0-.03-.02-.05-.02-.08-.04-.1-.07-.2-.11-.3-.02-.06-.04-.12-.07-.18-.03-.07-.06-.13-.08-.19-.04-.09-.08-.18-.13-.28-.02-.03-.03-.06-.04-.09a9.469 9.469 0 0 0-1.87-2.62 9.664 9.664 0 0 0-2.63-1.87c-.03-.01-.06-.03-.09-.04-.09-.04-.19-.09-.28-.13-.06-.03-.12-.05-.19-.08-.06-.02-.12-.05-.19-.07-.1-.04-.2-.08-.29-.11-.03 0-.05-.02-.08-.03-1-.35-2.07-.53-3.19-.53s-2.19.19-3.19.53l-.08.03c-.1.04-.2.07-.3.11-.06.02-.12.05-.18.07l-.19.08c-.09.04-.19.08-.28.13-.03.01-.06.03-.09.04-.95.46-1.84 1.08-2.62 1.87-.79.79-1.41 1.67-1.87 2.62-.01.03-.03.06-.04.09-.04.09-.09.18-.13.28" id="path3456"/><rect class="cls-3" x="27.89" y="110.49" width="69.53" height="66.23" rx="7.88" ry="7.88" id="rect3458"/><rect class="cls-4" x="28.06" y="110.49" width="69.53" height="66.23" rx="7.88" ry="7.88" clip-path="url(#clippath-2)" id="rect3460"/><path class="cls-4" d="M62.53 135.24c3.67 0 6.64-2.97 6.64-6.64 0-3.67-2.97-6.64-6.64-6.64-3.67 0-6.64 2.97-6.64 6.64 0 3.67 2.97 6.64 6.64 6.64" id="path3462"/><path class="cls-3" d="M62.53 136.63c-4.43 0-8.04-3.61-8.04-8.04s3.61-8.04 8.04-8.04 8.04 3.61 8.04 8.04-3.61 8.04-8.04 8.04zm0-13.29c-2.9 0-5.25 2.36-5.25 5.25s2.36 5.25 5.25 5.25 5.25-2.36 5.25-5.25-2.36-5.25-5.25-5.25z" id="path3464"/><circle class="cls-1" cx="55.61" cy="49.1" r="2.4" id="circle3466"/><circle class="cls-1" cx="62.53" cy="49.1" r="2.4" id="circle3468"/><circle class="cls-1" cx="69.35" cy="49.1" r="2.4" id="circle3470"/><path class="cls-11" d="M80.7 86.58c.5-.77.82-1.65.82-2.59H68.27c0 .94.31 1.81.82 2.59h11.62z" id="path3472"/><path class="cls-6" d="M45.58 72.89a6.31 6.31 0 0 0 6.31-6.31c0-3.49-2.82-6.31-6.31-6.31-3.49 0-6.31 2.82-6.31 6.31 0 3.49 2.82 6.31 6.31 6.31" id="path3474"/><path class="cls-11" d="M47.05 67.77c1.47 0 2.66-1.19 2.66-2.66 0-1.47-1.19-2.66-2.66-2.66-1.47 0-2.66 1.19-2.66 2.66 0 1.47 1.19 2.66 2.66 2.66" id="path3476"/><path class="cls-6" d="M78.66 72.89a6.31 6.31 0 0 0 6.31-6.31c0-3.49-2.82-6.31-6.31-6.31-3.49 0-6.31 2.82-6.31 6.31 0 3.49 2.82 6.31 6.31 6.31" id="path3478"/><path class="cls-11" d="M80.14 67.77c1.47 0 2.66-1.19 2.66-2.66 0-1.47-1.19-2.66-2.66-2.66-1.47 0-2.66 1.19-2.66 2.66 0 1.47 1.19 2.66 2.66 2.66m-40.82-9.51h12.47v3.5H39.32Z" id="path3480"/><path class="cls-11" transform="rotate(8.18 45.047 71.7)" d="M38.83 69.96H51.3v3.5H38.83Z" id="path3482"/><path class="cls-11" transform="rotate(-8.18 79.494 71.68)" d="M73.24 69.96h12.47v3.5H73.24Z" id="path3484"/></g><path class="cls-4" d="M112.14 145.92c-.73 0-1.44-.4-1.79-1.1l-13.59-26.94a2 2 0 0 1 .89-2.69c.98-.5 2.19-.1 2.69.89l13.59 26.94a2 2 0 0 1-1.79 2.9z" id="path3488"/><path class="cls-4" d="M109.04 143.53a2 2 0 0 1-1.45-.62l-18.73-19.8c-.76-.8-.72-2.07.08-2.83.8-.76 2.07-.72 2.83.08l18.73 19.8a2.005 2.005 0 0 1-1.46 3.38z" id="path3490"/><path class="cls-3" d="m115.69 142.73-.03-.09c0-.03-.02-.05-.03-.08-.02-.04-.03-.09-.05-.13 0-.01 0-.02-.01-.03-.18-.43-.44-.84-.78-1.21s-.72-.67-1.13-.89c-.01 0-.02-.01-.03-.02-.04-.02-.08-.04-.13-.07-.03-.01-.05-.03-.08-.04-.03-.01-.06-.03-.09-.04-.04-.02-.08-.04-.12-.05-.01 0-.03-.01-.04-.02-.44-.18-.91-.28-1.4-.31-.49-.02-.97.04-1.43.16-.01 0-.03 0-.04.01-.04.01-.09.03-.13.04-.03 0-.06.02-.09.03-.03 0-.05.02-.08.03-.04.02-.09.03-.13.05-.01 0-.02 0-.03.02-.43.18-.84.44-1.21.77s-.67.72-.89 1.13c0 .01-.01.02-.02.03-.02.04-.04.08-.07.13-.01.03-.03.05-.04.08-.01.03-.03.06-.04.09-.02.04-.04.08-.05.12 0 .01-.01.03-.02.04-.17.44-.28.91-.31 1.4-.02.49.04.97.17 1.43 0 .01 0 .03.01.04.01.04.03.09.04.13l.03.09c0 .03.02.05.03.08.02.04.03.09.05.13a4.167 4.167 0 0 0 .79 1.24c.34.37.72.67 1.13.89.01 0 .02.01.03.02.04.02.08.04.13.06.03.01.05.03.08.04.03.01.06.03.09.04.04.02.08.04.12.05.01 0 .03.01.04.02.44.17.91.28 1.4.31.5.02.98-.04 1.43-.17.01 0 .03 0 .04-.01.04-.01.09-.03.13-.04.03 0 .06-.02.09-.03.03-.01.06-.02.08-.03.04-.02.09-.03.13-.05.01 0 .02-.01.04-.02.43-.18.84-.44 1.21-.78s.67-.72.89-1.13l.02-.03s.04-.08.06-.13c.01-.03.03-.05.04-.08l.04-.08s.04-.08.05-.13c0-.01 0-.03.02-.04.17-.44.28-.91.31-1.4.03-.5-.03-.97-.16-1.43 0-.01 0-.03-.01-.04-.01-.04-.03-.09-.04-.13" id="path3492"/><rect class="cls-3" x="-10.746" y="115.983" width="4.85" height="17.22" rx="2.43" ry="2.43" transform="rotate(-42.11)" id="rect3494"/><rect class="cls-3" x="-17.063" y="126.186" width="4.85" height="7.02" rx="2.43" ry="2.43" transform="rotate(-42.11)" id="rect3496"/><rect class="cls-3" x="-23.38" y="126.173" width="4.85" height="7.02" rx="2.43" ry="2.43" transform="rotate(-42.11)" id="rect3498"/><path class="cls-3" d="m91.93 110.64-5.83-6.45-12.89 11.66 5.83 6.45c3.22 3.56 8.71 3.84 12.27.62a8.696 8.696 0 0 0 .62-12.28z" id="path3500"/><path class="cls-1" d="M15.8 121.61c0-4.41 1.39-6.46 4.41-6.46 2.45 0 3.6 1.06 3.6 3.43 0 6.29-8.99 7.6-8.99 19.77h13.65c0-8.58 12.26-10.95 12.26-22.8 0-9.4-6.94-14.87-18.79-14.87-12.75 0-20.18 7.76-20.18 20.92H15.8Z" id="path3502"/><path class="cls-11" d="M28.46 140.1H14.82c-.96 0-1.74-.78-1.74-1.74 0-7.75 3.34-11.49 6.03-14.5 1.89-2.11 2.96-3.4 2.96-5.28 0-1.29-.26-1.69-1.85-1.69-1 0-2.67 0-2.67 4.71 0 .96-.78 1.74-1.74 1.74H1.74c-.96 0-1.74-.78-1.74-1.74 0-14.19 8.2-22.66 21.93-22.66 12.86 0 20.54 6.21 20.54 16.62 0 7.12-3.91 11.09-7.37 14.6-2.62 2.67-4.89 4.97-4.89 8.2 0 .96-.78 1.74-1.74 1.74zm-11.83-3.49h10.23c.63-3.71 3.23-6.34 5.74-8.9 3.27-3.33 6.37-6.47 6.37-12.15 0-8.34-6.21-13.13-17.05-13.13s-17.77 6.33-18.39 17.43h10.61c.53-5.28 3.52-6.46 6.07-6.46 3.44 0 5.34 1.84 5.34 5.18s-1.96 5.48-3.85 7.6c-2.29 2.56-4.65 5.2-5.07 10.43z" id="path3504"/><g id="g3510" transform="translate(0 -.34)"><circle class="cls-1" cx="22.43" cy="152.97" r="8.18" id="circle3506"/><path class="cls-11" d="M22.43 162.89c-5.47 0-9.92-4.45-9.92-9.92s4.45-9.92 9.92-9.92 9.92 4.45 9.92 9.92-4.45 9.92-9.92 9.92zm0-16.35c-3.55 0-6.43 2.89-6.43 6.43 0 3.54 2.89 6.43 6.43 6.43 3.54 0 6.43-2.89 6.43-6.43 0-3.54-2.89-6.43-6.43-6.43z" id="path3508"/></g></svg>