<svg xmlns="http://www.w3.org/2000/svg" viewBox="0 0 140.97 231.33"><defs><clipPath id="clippath"><path class="cls-9" d="M74.83 97.9h41.28v96.4H74.83z"/></clipPath><clipPath id="clippath-1"><path class="cls-9" d="M56.82 30.4c-4.87 0-8.82 3.95-8.82 8.82L38.06 83c0 4.87 3.95 8.82 8.82 8.82h56.47c4.87 0 8.82-3.95 8.82-8.82l-9.97-43.78c0-4.87-3.95-8.82-8.82-8.82H56.82Z"/></clipPath><style>.cls-2{fill:#fff}.cls-6{fill:#0a9ea0}.cls-8{fill:#66c0be}.cls-10,.cls-9{fill:none}.cls-10{stroke:#0a9ea0;stroke-linecap:round;stroke-width:4px}.cls-12{fill:#1d1d1b}</style></defs><ellipse cx="75.17" cy="215.17" rx="55.14" ry="16.16" style="fill:#00577a" id="Grund"/><path class="cls-6" d="M76.12 216.31c-13.38 0-24.27-10.89-24.27-24.27s10.89-24.27 24.27-24.27 24.27 10.89 24.27 24.27-10.89 24.27-24.27 24.27Zm0-41.54c-9.52 0-17.27 7.75-17.27 17.27s7.75 17.27 17.27 17.27 17.27-7.75 17.27-17.27-7.75-17.27-17.27-17.27Z" id="Rad"/><g id="Arm_L" data-name="Arm L"><rect id="Zeigefinger" class="cls-8" x="12.64" y="49.42" width="4.85" height="17.22" rx="2.43" ry="2.43"/><rect id="Mittelfinger" class="cls-8" x="6.32" y="59.62" width="4.85" height="7.02" rx="2.43" ry="2.43"/><rect id="kleiner_Finger" data-name="kleiner Finger" class="cls-8" x="0" y="59.62" width="4.85" height="7.02" rx="2.43" ry="2.43"/><path id="Oberarm" class="cls-10" d="M8.75 112.57h31.32"/><path id="Unterarm" class="cls-10" d="M8.75 84.31v28.26"/><path id="Ellenbogen" class="cls-8" d="M12.74 114.33s.02-.06.04-.09c.01-.03.02-.05.03-.08.02-.04.03-.09.05-.13 0-.01 0-.02.01-.04.15-.45.24-.92.24-1.42s-.08-.97-.24-1.42c0-.01 0-.02-.01-.03-.02-.05-.03-.09-.05-.13-.01-.03-.02-.05-.03-.08-.01-.03-.02-.06-.04-.09l-.06-.12c0-.01-.01-.03-.02-.04-.21-.42-.48-.82-.83-1.17s-.75-.63-1.17-.83c-.01 0-.03-.01-.04-.02l-.12-.06c-.03-.01-.06-.02-.09-.04-.03-.01-.05-.02-.08-.03-.04-.02-.09-.03-.13-.05-.01 0-.02 0-.04-.01-.44-.15-.92-.24-1.42-.24s-.97.08-1.42.24c-.01 0-.02 0-.03.01-.04.02-.09.03-.13.05-.03.01-.05.02-.08.03-.03.01-.06.02-.09.04l-.12.06c-.01 0-.03.01-.04.02-.42.21-.82.48-1.17.83s-.63.75-.83 1.17c0 .01-.01.03-.02.04l-.06.12c-.01.03-.02.06-.04.09-.01.03-.02.05-.03.08-.02.04-.03.09-.05.13 0 .01 0 .02-.01.03-.15.45-.24.92-.24 1.42s.08.98.24 1.42c0 .01 0 .02.01.04.02.04.03.09.05.13.01.03.02.05.03.08.01.03.02.06.04.09l.06.12c0 .01.01.03.02.04.21.42.48.82.83 1.17s.75.63 1.17.83c.01 0 .03.01.04.02l.12.06c.03.01.06.02.08.04.03.01.06.02.08.03.04.02.09.03.13.05.01 0 .02 0 .04.01.44.15.92.24 1.42.24s.97-.08 1.42-.24h.04s.09-.04.13-.06c.03-.01.06-.02.08-.03l.08-.04.12-.06c.01 0 .03-.01.04-.02.42-.21.82-.48 1.17-.83s.63-.75.83-1.17c0-.01.01-.03.02-.04l.06-.12"/><path id="Handfläche" class="cls-8" d="M17.44 68.47H.06V77.17c0 4.8 3.89 8.69 8.69 8.69s8.61-3.82 8.68-8.56v-8.84Z"/></g><g id="Arm_R" data-name="Arm R"><rect id="Zeigefinger-2" data-name="Zeigefinger" class="cls-8" x="123.48" y="183.92" width="4.85" height="17.22" rx="2.43" ry="2.43" transform="rotate(-180 125.905 192.53)"/><rect id="Mittelfinger-2" data-name="Mittelfinger" class="cls-8" x="129.8" y="183.92" width="4.85" height="7.02" rx="2.43" ry="2.43" transform="rotate(180 132.225 187.43)"/><rect id="kleiner_Finger-2" data-name="kleiner Finger" class="cls-8" x="136.12" y="183.92" width="4.85" height="7.02" rx="2.43" ry="2.43" transform="rotate(-180 138.545 187.43)"/><path id="Unterarm-2" data-name="Unterarm" class="cls-10" d="M132.22 166.25v-28.26"/><path id="Oberarm-2" data-name="Oberarm" class="cls-10" d="m132.38 134.93-22.15-22.15"/><path id="Ellenbogen-2" data-name="Ellenbogen" class="cls-8" d="M127.99 134.61s-.02.06-.02.09-.01.06-.02.08c0 .05-.02.09-.03.14v.04c-.08.46-.08.95 0 1.44s.24.95.47 1.36c0 .01.01.02.02.03.02.04.05.08.07.12.02.02.03.05.04.07.02.03.03.05.05.08.02.04.05.07.08.11 0 .01.02.02.03.04.27.38.61.73 1.02 1.02.4.29.84.5 1.29.63.01 0 .03 0 .04.01l.13.03c.03 0 .06.02.09.02s.06.01.08.02c.05 0 .09.02.14.03h.04c.46.08.95.08 1.44 0s.95-.24 1.36-.47c.01 0 .02-.01.03-.02.04-.02.08-.05.12-.07.02-.02.05-.03.07-.04.03-.02.05-.03.08-.05.04-.02.07-.05.11-.08.01 0 .02-.02.04-.03.38-.27.73-.61 1.02-1.02.29-.4.5-.84.63-1.29 0-.01 0-.03.01-.04l.03-.13c0-.03.02-.06.02-.09s.01-.06.02-.08l.03-.14v-.04c.08-.47.08-.95 0-1.44s-.24-.95-.47-1.36c0-.01-.01-.02-.02-.03-.02-.04-.05-.08-.07-.12-.01-.02-.03-.05-.04-.07-.02-.03-.03-.05-.05-.08-.02-.04-.05-.07-.08-.11 0-.01-.02-.02-.03-.04-.27-.38-.61-.73-1.01-1.01-.4-.29-.84-.5-1.29-.63-.01 0-.03 0-.04-.01-.04-.01-.09-.02-.13-.04-.03 0-.06-.01-.09-.02-.03 0-.06-.01-.09-.02-.05 0-.09-.02-.14-.03h-.04c-.46-.08-.95-.08-1.44 0s-.95.24-1.36.47l-.03.02s-.08.05-.12.07c-.02.01-.05.03-.08.05l-.08.05s-.08.05-.11.08c-.01 0-.02.02-.03.03-.38.27-.73.61-1.02 1.02-.29.4-.5.84-.63 1.29 0 .01 0 .03-.01.04l-.03.13"/><path id="Handfläche-2" data-name="Handfläche" class="cls-8" d="M123.53 182.09h17.38V173.39c0-4.8-3.89-8.69-8.69-8.69s-8.61 3.82-8.68 8.56v8.84Z"/></g><g id="Körper"><path id="Hals" class="cls-6" d="M61.61 73.4v48.55c0 3.61 2.92 6.53 6.53 6.53h17.09c3.61 0 6.53-2.92 6.53-6.53V73.4"/><g id="Rumpf"><path class="cls-8" d="M54.88 102.13c-5.39 0-9.76 5.67-9.76 12.66l-11 62.81c0 6.99 4.37 12.66 9.76 12.66h62.47c5.39 0 9.76-5.67 9.76-12.66l-11.03-62.81c0-6.99-4.37-12.66-9.76-12.66H54.88Z"/><path class="cls-6" d="M54.88 102.13c-5.39 0-9.76 5.67-9.76 12.66l-11 62.81c0 6.99 4.37 12.66 9.76 12.66h62.47c5.39 0 9.76-5.67 9.76-12.66l-10.75-62.81c-.09-7.96-4.65-12.66-10.04-12.66H54.88Z" style="clip-path:url(#clippath)"/><path id="Schulter_L" data-name="Schulter L" class="cls-8" d="m38.8 106.23-1.94 8.15c-.76 3.18 2.05 6.16 5.8 6.16h21.56c3.27 0 5.92-2.3 5.92-5.13v-8.15c0-2.83-2.65-5.13-5.92-5.13H44.6c-2.81 0-5.23 1.71-5.8 4.09Z"/><path id="Schulter_R" data-name="Schulter R" class="cls-6" d="m111.95 106.23 1.94 8.15c.76 3.18-2.05 6.16-5.8 6.16H86.53c-3.27 0-5.92-2.3-5.92-5.13v-8.15c0-2.83 2.65-5.13 5.92-5.13h19.62c2.81 0 5.23 1.71 5.8 4.09Z"/><g><circle class="cls-8" cx="75.36" cy="134.19" r="13.69"/><path class="cls-6" d="M75.36 149.38c-8.37 0-15.19-6.81-15.19-15.19S66.98 119 75.36 119s15.19 6.81 15.19 15.19-6.81 15.19-15.19 15.19Zm0-27.38c-6.72 0-12.19 5.47-12.19 12.19s5.47 12.19 12.19 12.19 12.19-5.47 12.19-12.19S82.08 122 75.36 122Z"/></g></g></g><g id="Kopf"><path id="Ohren" class="cls-6" d="M41.31 48.26c-2.87 0-5.2 3.16-5.2 7.06v7.06c0 3.9 2.33 7.06 5.2 7.06h68.26c2.87 0 5.2-3.16 5.2-7.06v-7.06c0-3.9-2.33-7.06-5.2-7.06H41.31Z"/><g id="Antenne"><path d="m72.4 12.59-.06 18.77h5.62V18.71c-1.3-1.01-3.61-3.89-5.55-6.13Z" style="fill:#0a9ea0"/><path d="M95.47 16.68c.58-.87 1.03-1.82 1.33-2.82.31-1.03.47-2.11.46-3.19 0-1.45-.3-2.86-.87-4.17A10.742 10.742 0 0 0 89.65.47c-1.03-.31-2.12-.48-3.19-.46-.74 0-1.47.09-2.18.26-1.22.29-2.43.82-3.61 1.59-.88.58-1.75 1.29-2.67 2.18-.67.66-2.08 2.29-2.82 3.18.55.68 1.09 1.36 1.62 2.02l.66.83c.7-.85 2.03-2.44 2.62-3.04.53-.55 1.06-1.04 1.57-1.45.8-.65 1.6-1.15 2.37-1.47.4-.17.8-.29 1.21-.38.42-.09.83-.13 1.27-.14.94.01 1.9.18 2.79.54 1.28.53 2.38 1.42 3.17 2.58.4.58.7 1.21.91 1.87.22.69.33 1.4.34 2.13 0 .96-.18 1.9-.54 2.79a7.208 7.208 0 0 1-2.58 3.17 7.245 7.245 0 0 1-4 1.25c-.49 0-.93-.05-1.39-.15-.59-.13-1.16-.34-1.74-.64-.19-.1-.38-.21-.58-.32-.56-.34-1.14-.77-1.72-1.28-.21-.18-.43-.38-.64-.59-.6-.57-1.23-1.24-1.92-2.05-.53-.62-1.06-1.27-1.6-1.94l-1.04-1.3c-.85-1.07-1.73-2.19-2.65-3.24-.79-.91-1.51-1.67-2.2-2.32C70.49 3.5 69.9 3 69.3 2.56c-.12-.09-.24-.17-.36-.26-.91-.63-1.8-1.11-2.73-1.46-.94-.35-1.91-.57-2.88-.63-.21-.01-.41-.02-.62-.02h-.09c-1.45 0-2.86.3-4.17.87-1.91.83-3.54 2.18-4.7 3.92a10.706 10.706 0 0 0-1.79 6.01c0 1.45.3 2.85.87 4.17.83 1.91 2.18 3.54 3.92 4.7.87.58 1.82 1.03 2.82 1.33 1.03.31 2.09.48 3.19.46.73 0 1.47-.09 2.18-.26 1.22-.29 2.44-.82 3.61-1.59.88-.58 1.75-1.29 2.67-2.18.67-.65 2.09-2.2 2.85-3.09-.57-.69-2.08-2.6-2.28-2.85-.71.86-2.06 2.35-2.64 2.95-.53.55-1.06 1.03-1.57 1.45-.8.65-1.6 1.14-2.37 1.47-.41.17-.8.3-1.21.38-.42.09-.84.14-1.27.14-.97.01-1.91-.18-2.79-.54a7.075 7.075 0 0 1-3.17-2.58c-.39-.57-.7-1.2-.91-1.87-.22-.69-.33-1.4-.34-2.13 0-.96.18-1.9.54-2.79a7.208 7.208 0 0 1 2.58-3.17 7.245 7.245 0 0 1 4-1.25c.46 0 .92.05 1.39.15.78.17 1.54.49 2.32.97.56.34 1.14.77 1.72 1.28.79.69 1.63 1.55 2.57 2.64.85.99 1.73 2.09 2.57 3.16l.09.11c.84 1.07 1.72 2.17 2.62 3.22.8.93 1.5 1.66 2.2 2.33.14.14.29.27.44.41.48.42.93.79 1.37 1.12 1.03.76 2.04 1.32 3.08 1.71l.21.08c1.1.39 2.25.59 3.38.58 1.45 0 2.85-.3 4.17-.87 1.91-.83 3.54-2.18 4.69-3.92Z" style="fill:#67c1be"/></g><path class="cls-8" d="M56.82 30.4c-4.87 0-8.82 3.95-8.82 8.82l-9.94 43.77c0 4.87 3.95 8.82 8.82 8.82h56.47c4.87 0 8.82-3.95 8.82-8.82l-9.97-43.77c0-4.87-3.95-8.82-8.82-8.82H56.82Z"/><path class="cls-6" d="M75.14 28.43h50.02v84.53H75.14z" style="clip-path:url(#clippath-1)"/><g id="Punkte"><path class="cls-2" d="M50.85 71.09c.3-1.4-.6-2.78-2-3.07a2.6 2.6 0 0 0-3.08 2c-.3 1.4.6 2.78 2 3.07 1.4.3 2.78-.6 3.07-2M52.4 63.83c.3-1.4-.6-2.78-2-3.07a2.6 2.6 0 0 0-3.08 2c-.3 1.4.6 2.78 2 3.07 1.4.3 2.78-.6 3.07-2M53.94 56.57c.3-1.4-.6-2.78-2-3.07a2.6 2.6 0 0 0-3.08 2c-.3 1.4.6 2.78 2 3.07 1.4.3 2.78-.6 3.07-2M97.88 71.09c-.3-1.4.6-2.78 2-3.07 1.4-.3 2.78.6 3.07 2 .3 1.4-.6 2.78-2 3.07-1.4.3-2.78-.6-3.07-2M96.34 63.83c-.3-1.4.6-2.78 2-3.07 1.4-.3 2.78.6 3.08 2 .3 1.4-.6 2.78-2 3.07-1.4.3-2.78-.6-3.07-2M94.8 56.57c-.3-1.4.6-2.78 2-3.07 1.4-.3 2.78.6 3.07 2 .3 1.4-.6 2.78-2 3.07-1.4.3-2.78-.6-3.07-2"/></g></g><g id="Mund"><path id="Lachend" class="cls-12" d="M83.44 77.99c0 4.42-3.58 8-8 8s-8-3.58-8-8h16Z"/></g><g id="Auge"><path id="Auge-2" data-name="Auge" d="M74.94 71.9c6.96 0 12.6-5.64 12.6-12.6s-5.64-12.6-12.6-12.6-12.6 5.64-12.6 12.6 5.64 12.6 12.6 12.6" style="fill:#f6c349"/><path id="Pupille" class="cls-12" d="M74.79 64.13a5.25 5.25 0 1 0 0-10.5 5.25 5.25 0 1 0 0 10.5"/><g id="Lid_neutral" data-name="Lid neutral"><path id="Schatten_unten" data-name="Schatten unten" class="cls-6" d="M63.19 66.06c3 4.34 7.68 7.14 12.96 7.14s9.96-2.8 12.96-7.14H63.19Z"/><path id="Lid_unten" data-name="Lid unten" class="cls-8" d="M64.25 66.06c2.47 3.22 6.34 5.3 10.71 5.3s8.24-2.08 10.71-5.3H64.26Z"/></g></g></svg>