<svg version="1.1" viewBox="0 0 175 248.7" xmlns="http://www.w3.org/2000/svg"><defs><clipPath clipPathUnits="userSpaceOnUse" id="a"><path d="m1042.14 516.66.55 1117.28H0V517.23C0 232.488 233.422 1.66 521.359 1.66c287.942 0 521.361 230.828 521.361 515.57Z"/></clipPath><clipPath clipPathUnits="userSpaceOnUse" id="b"><path d="m1042.14 516.66.55 1117.28H0V517.23C0 232.488 233.422 1.66 521.359 1.66c287.942 0 521.361 230.828 521.361 515.57Z"/></clipPath><clipPath clipPathUnits="userSpaceOnUse" id="c"><path d="M824.016-318.551H525.68v821.922h298.336z"/></clipPath><clipPath clipPathUnits="userSpaceOnUse" id="o"><path d="m1042.14 516.66.55 1117.28H0V517.23C0 232.488 233.422 1.66 521.359 1.66c287.942 0 521.361 230.828 521.361 515.57Z"/></clipPath><clipPath clipPathUnits="userSpaceOnUse" id="p"><path d="M260.77 1101.79c-45.11 0-81.668-36.56-81.668-81.67V614.949c0-45.109 36.558-81.668 81.668-81.668h522.679c45.102 0 81.672 36.559 81.672 81.668v405.171c0 45.11-36.57 81.67-81.672 81.67z"/></clipPath><clipPath clipPathUnits="userSpaceOnUse" id="q"><path d="m1042.14 516.66.55 1117.28H0V517.23C0 232.488 233.422 1.66 521.359 1.66c287.942 0 521.361 230.828 521.361 515.57Z"/></clipPath><clipPath clipPathUnits="userSpaceOnUse" id="n"><path d="m114.039 51.876.055 111.728H9.825V51.933C9.825 23.459 33.167.376 61.961.376c28.794 0 52.136 23.083 52.136 51.557z" style="stroke-width:.1"/></clipPath><clipPath clipPathUnits="userSpaceOnUse" id="m"><path d="m114.039 51.876.055 111.728H9.825V51.933C9.825 23.459 33.167.376 61.961.376c28.794 0 52.136 23.083 52.136 51.557z" style="stroke-width:.1"/></clipPath><clipPath clipPathUnits="userSpaceOnUse" id="l"><path d="m114.039 51.876.055 111.728H9.825V51.933C9.825 23.459 33.167.376 61.961.376c28.794 0 52.136 23.083 52.136 51.557z" style="stroke-width:.1"/></clipPath><clipPath clipPathUnits="userSpaceOnUse" id="k"><path d="m114.039 51.876.055 111.728H9.825V51.933C9.825 23.459 33.167.376 61.961.376c28.794 0 52.136 23.083 52.136 51.557z" style="stroke-width:.1"/></clipPath><clipPath clipPathUnits="userSpaceOnUse" id="j"><path d="m114.039 51.876.055 111.728H9.825V51.933C9.825 23.459 33.167.376 61.961.376c28.794 0 52.136 23.083 52.136 51.557z" style="stroke-width:.1"/></clipPath><clipPath clipPathUnits="userSpaceOnUse" id="i"><path d="m114.039 51.876.055 111.728H9.825V51.933C9.825 23.459 33.167.376 61.961.376c28.794 0 52.136 23.083 52.136 51.557z" style="stroke-width:.1"/></clipPath><clipPath clipPathUnits="userSpaceOnUse" id="h"><path d="m114.039 51.876.055 111.728H9.825V51.933C9.825 23.459 33.167.376 61.961.376c28.794 0 52.136 23.083 52.136 51.557z" style="stroke-width:.1"/></clipPath><clipPath clipPathUnits="userSpaceOnUse" id="g"><path d="m114.039 51.876.055 111.728H9.825V51.933C9.825 23.459 33.167.376 61.961.376c28.794 0 52.136 23.083 52.136 51.557z" style="stroke-width:.1"/></clipPath><clipPath clipPathUnits="userSpaceOnUse" id="f"><path d="m114.039 51.876.055 111.728H9.825V51.933C9.825 23.459 33.167.376 61.961.376c28.794 0 52.136 23.083 52.136 51.557z" style="stroke-width:.1"/></clipPath><clipPath clipPathUnits="userSpaceOnUse" id="e"><path d="m114.039 51.876.055 111.728H9.825V51.933C9.825 23.459 33.167.376 61.961.376c28.794 0 52.136 23.083 52.136 51.557z" style="stroke-width:.1"/></clipPath><clipPath clipPathUnits="userSpaceOnUse" id="d"><path d="m114.039 51.876.055 111.728H9.825V51.933C9.825 23.459 33.167.376 61.961.376c28.794 0 52.136 23.083 52.136 51.557z" style="stroke-width:.1"/></clipPath></defs><path d="M61.96.21c28.795 0 52.137 23.342 52.137 52.136 0 28.794-23.342 52.136-52.136 52.136-28.794 0-52.136-23.342-52.136-52.136C9.825 23.552 33.167.21 61.961.21" style="fill:#d07435;fill-opacity:1;fill-rule:nonzero;stroke:none;stroke-width:.1" transform="matrix(1.33333 0 0 -1.33333 -3.8 217.853)"/><g clip-path="url(#a)" transform="matrix(.13333 0 0 -.13333 9.3 217.673)"><path d="M157.117-23.57c-.933 0-1.883.058-2.84.199-10.937 1.55-18.543 11.68-16.992 22.61l44.016 310.152c1.551 10.941 11.648 18.57 22.613 16.988 10.941-1.551 18.547-11.668 16.992-22.609L176.895-6.379c-1.415-9.98-9.981-17.191-19.778-17.191M887.102-23.57c-9.797 0-18.36 7.21-19.778 17.191L823.301 303.77c-1.555 10.941 6.054 21.058 16.992 22.609 10.977 1.582 21.066-6.047 22.617-16.988L906.934-.762c1.554-10.93-6.055-21.058-16.993-22.61-.957-.14-1.906-.198-2.839-.198M374.352 702.285V216.828c0-36.078 29.25-65.328 65.332-65.328h170.91c36.078 0 65.328 29.25 65.328 65.328v485.457" style="fill:#0a9ea0;fill-opacity:1;fill-rule:nonzero;stroke:none"/><path d="M809.523 376.641v-597.969c0-53.692-43.523-97.223-97.214-97.223H339.898c-53.687 0-97.21 43.531-97.21 97.223v597.969c0 53.687 43.523 97.211 97.21 97.211h372.411c53.691 0 97.214-43.524 97.214-97.211" style="fill:#67c1be;fill-opacity:1;fill-rule:nonzero;stroke:none"/></g><g clip-path="url(#b)" transform="matrix(.13333 0 0 -.13333 9.3 217.573)"><g clip-path="url(#c)"><path d="M809.102 379.602v-600.93c0-53.692-43.528-97.223-97.215-97.223h-372.41c-53.692 0-97.215 43.531-97.215 97.223v600.93c0 53.687 43.523 97.207 97.215 97.207h372.41c53.687 0 97.215-43.52 97.215-97.207" style="fill:#0a9ea0;fill-opacity:1;fill-rule:nonzero;stroke:none"/></g></g><path d="M52.284 40.845v-6.58a6.957 6.957 0 0 0-6.957-6.956H31.696a6.957 6.957 0 0 0-6.957 6.957v6.58a6.956 6.956 0 0 0 6.957 6.955h13.631a6.956 6.956 0 0 0 6.957-6.956" style="fill:#67c1be;fill-opacity:1;fill-rule:nonzero;stroke:none;stroke-width:.1" clip-path="url(#d)" transform="matrix(1.33333 0 0 -1.33333 -3.8 218.254)"/><path d="M99.183 40.845v-6.58a6.957 6.957 0 0 0-6.956-6.956H78.595a6.957 6.957 0 0 0-6.957 6.957v6.58a6.956 6.956 0 0 0 6.957 6.955h13.632a6.956 6.956 0 0 0 6.956-6.956" style="fill:#0a9ea0;fill-opacity:1;fill-rule:nonzero;stroke:none;stroke-width:.1" clip-path="url(#e)" transform="matrix(1.33333 0 0 -1.33333 -3.8 217.853)"/><path d="M77.7 27.309V4.71a6.956 6.956 0 0 0-6.957-6.956H54.825a6.956 6.956 0 0 0-6.957 6.956V27.31a6.957 6.957 0 0 0 6.957 6.957h15.918a6.957 6.957 0 0 0 6.957-6.957" style="fill:#67c1be;fill-opacity:1;fill-rule:nonzero;stroke:none;stroke-width:.1" clip-path="url(#f)" transform="matrix(1.33333 0 0 -1.33333 -3.8 218.053)"/><path d="M54.825 32.766a5.463 5.463 0 0 1-5.457-5.457V4.71a5.464 5.464 0 0 1 5.457-5.457h15.918A5.464 5.464 0 0 1 76.2 4.711V27.31a5.463 5.463 0 0 1-5.457 5.457zM70.743-3.746H54.825c-4.663 0-8.457 3.794-8.457 8.457V27.31c0 4.663 3.794 8.457 8.457 8.457h15.918c4.663 0 8.457-3.794 8.457-8.457V4.71c0-4.663-3.794-8.457-8.457-8.457" style="fill:#0a9ea0;fill-opacity:1;fill-rule:nonzero;stroke:none;stroke-width:.1" clip-path="url(#g)" transform="matrix(1.33333 0 0 -1.33333 -3.8 218.053)"/><path d="M89.093 121.438a58.57 58.57 0 0 1-4.515 4.488 58.57 58.57 0 0 1 4.515 4.488c6.655 7.437 6.444 11.783 5.096 14.119-1.348 2.336-5.007 4.691-14.774 2.646a58.488 58.488 0 0 1-6.145-1.665 58.601 58.601 0 0 1-1.63 6.154c-3.113 9.481-6.981 11.472-9.679 11.472-2.697 0-6.566-1.991-9.68-11.472a58.701 58.701 0 0 1-1.629-6.154 58.552 58.552 0 0 1-6.143 1.665c-9.768 2.045-13.427-.31-14.775-2.646-1.35-2.336-1.56-6.682 5.095-14.119a58.642 58.642 0 0 1 4.514-4.488 58.642 58.642 0 0 1-4.514-4.488c-6.656-7.437-6.445-11.783-5.095-14.119.986-1.708 3.207-3.427 8.152-3.427 1.816 0 3.998.232 6.623.781 1.95.408 4.009.969 6.143 1.666a58.636 58.636 0 0 1 1.63-6.154c3.113-9.482 6.982-11.472 9.68-11.472 2.697 0 6.565 1.99 9.679 11.472a58.536 58.536 0 0 1 1.63 6.154 58.502 58.502 0 0 1 6.144-1.666c2.623-.549 4.805-.781 6.621-.781 4.945 0 7.166 1.719 8.154 3.427 1.348 2.336 1.558 6.682-5.097 14.119m-9.086 22.905c2.273.476 4.302.71 6.018.71 2.902 0 4.905-.669 5.655-1.969 1.193-2.068-.58-6.082-4.746-10.737-1.334-1.491-2.868-3.004-4.566-4.513a93.2 93.2 0 0 1-7.468 5.562 92.808 92.808 0 0 1-1.084 9.248c2.157.717 4.234 1.289 6.191 1.699m-12.9-27.331a107.493 107.493 0 0 0-5.146-2.789 108.14 108.14 0 0 0-10.136 5.852c-.103 1.914-.157 3.87-.157 5.851 0 1.982.054 3.937.157 5.852a109.008 109.008 0 0 0 10.136 5.851 108.467 108.467 0 0 0 10.135-5.851 108.117 108.117 0 0 0 0-11.703 107.606 107.606 0 0 0-4.989-3.063m4.73-.54a87.96 87.96 0 0 0-.792-6.28 87.616 87.616 0 0 0-5.835 2.455 110.52 110.52 0 0 1 6.626 3.825m-13.125-3.825a87.467 87.467 0 0 0-5.834-2.455 87.838 87.838 0 0 0-.791 6.28 110.986 110.986 0 0 1 6.625-3.825m-9.875 9.454a87.955 87.955 0 0 0-5.043 3.825 87.503 87.503 0 0 0 5.043 3.826 112.708 112.708 0 0 1 0-7.651m3.25 13.279c.196 2.171.462 4.272.791 6.28a87.444 87.444 0 0 0 5.834-2.454 112.988 112.988 0 0 1-6.625-3.826m13.125 3.826a87.594 87.594 0 0 0 5.834 2.454 87.96 87.96 0 0 0 .791-6.28 112.752 112.752 0 0 1-6.626 3.826m9.876-9.454a87.484 87.484 0 0 0 5.044-3.826 87.936 87.936 0 0 0-5.044-3.825 109.366 109.366 0 0 1 0 7.651m-20.052 21.012c1.95 5.935 4.539 9.478 6.927 9.478 2.389 0 4.978-3.543 6.926-9.478a56.521 56.521 0 0 0 1.625-6.212 93.02 93.02 0 0 1-8.55-3.686 93.18 93.18 0 0 1-8.552 3.686c.458 2.227 1 4.311 1.624 6.212M36.99 132.347c-4.166 4.655-5.94 8.669-4.746 10.737 1.193 2.069 5.557 2.539 11.672 1.259 1.958-.41 4.033-.982 6.192-1.699a92.843 92.843 0 0 1-1.084-9.248 93.054 93.054 0 0 1-7.468-5.562 56.198 56.198 0 0 0-4.566 4.513m6.926-24.838c-6.115-1.28-10.477-.809-11.672 1.259-1.195 2.069.58 6.083 4.746 10.738a56.362 56.362 0 0 0 4.567 4.513 93.058 93.058 0 0 1 7.467-5.563 92.843 92.843 0 0 1 1.084-9.248c-2.159-.717-4.234-1.289-6.192-1.699m24.973-6.42c-1.95-5.935-4.538-9.479-6.927-9.479-2.388 0-4.977 3.544-6.927 9.479a56.27 56.27 0 0 0-1.623 6.211 93.195 93.195 0 0 1 8.55 3.687 93.036 93.036 0 0 1 8.552-3.687 56.443 56.443 0 0 0-1.626-6.211m22.793 7.679c-1.195-2.068-5.559-2.539-11.673-1.259-1.957.41-4.034.982-6.191 1.699a92.808 92.808 0 0 1 1.084 9.248 93.204 93.204 0 0 1 7.468 5.563c1.698-1.51 3.232-3.022 4.566-4.513 4.166-4.655 5.94-8.669 4.746-10.738" style="fill:#67c1be;fill-opacity:1;fill-rule:nonzero;stroke:none;stroke-width:.1" clip-path="url(#h)" transform="matrix(1.33333 0 0 -1.33333 -3.8 217.853)"/><path d="M89.093 121.438a58.57 58.57 0 0 1-4.515 4.488 58.57 58.57 0 0 1 4.515 4.488c6.655 7.437 6.444 11.783 5.096 14.119-1.348 2.336-5.007 4.691-14.774 2.646a58.488 58.488 0 0 1-6.145-1.665 58.601 58.601 0 0 1-1.63 6.154c-3.113 9.481-6.981 11.472-9.679 11.472-2.697 0-6.566-1.991-9.68-11.472a58.701 58.701 0 0 1-1.629-6.154 58.552 58.552 0 0 1-6.143 1.665c-9.768 2.045-13.427-.31-14.775-2.646-1.35-2.336-1.56-6.682 5.095-14.119a58.642 58.642 0 0 1 4.514-4.488 58.642 58.642 0 0 1-4.514-4.488c-6.656-7.437-6.445-11.783-5.095-14.119.986-1.708 3.207-3.427 8.152-3.427 1.816 0 3.998.232 6.623.781 1.95.408 4.009.969 6.143 1.666a58.636 58.636 0 0 1 1.63-6.154c3.113-9.482 6.982-11.472 9.68-11.472 2.697 0 6.565 1.99 9.679 11.472a58.536 58.536 0 0 1 1.63 6.154 58.502 58.502 0 0 1 6.144-1.666c2.623-.549 4.805-.781 6.621-.781 4.945 0 7.166 1.719 8.154 3.427 1.348 2.336 1.558 6.682-5.097 14.119m-9.086 22.905c2.273.476 4.302.71 6.018.71 2.902 0 4.905-.669 5.655-1.969 1.193-2.068-.58-6.082-4.746-10.737-1.334-1.491-2.868-3.004-4.566-4.513a93.2 93.2 0 0 1-7.468 5.562 92.808 92.808 0 0 1-1.084 9.248c2.157.717 4.234 1.289 6.191 1.699m-12.9-27.331a107.493 107.493 0 0 0-5.146-2.789 108.14 108.14 0 0 0-10.136 5.852c-.103 1.914-.157 3.87-.157 5.851 0 1.982.054 3.937.157 5.852a109.008 109.008 0 0 0 10.136 5.851 108.467 108.467 0 0 0 10.135-5.851 108.117 108.117 0 0 0 0-11.703 107.606 107.606 0 0 0-4.989-3.063m4.73-.54a87.96 87.96 0 0 0-.792-6.28 87.616 87.616 0 0 0-5.835 2.455 110.52 110.52 0 0 1 6.626 3.825m-13.125-3.825a87.467 87.467 0 0 0-5.834-2.455 87.838 87.838 0 0 0-.791 6.28 110.986 110.986 0 0 1 6.625-3.825m-9.875 9.454a87.955 87.955 0 0 0-5.043 3.825 87.503 87.503 0 0 0 5.043 3.826 112.708 112.708 0 0 1 0-7.651m3.25 13.279c.196 2.171.462 4.272.791 6.28a87.444 87.444 0 0 0 5.834-2.454 112.988 112.988 0 0 1-6.625-3.826m13.125 3.826a87.594 87.594 0 0 0 5.834 2.454 87.96 87.96 0 0 0 .791-6.28 112.752 112.752 0 0 1-6.626 3.826m9.876-9.454a87.484 87.484 0 0 0 5.044-3.826 87.936 87.936 0 0 0-5.044-3.825 109.366 109.366 0 0 1 0 7.651m-20.052 21.012c1.95 5.935 4.539 9.478 6.927 9.478 2.389 0 4.978-3.543 6.926-9.478a56.521 56.521 0 0 0 1.625-6.212 93.02 93.02 0 0 1-8.55-3.686 93.18 93.18 0 0 1-8.552 3.686c.458 2.227 1 4.311 1.624 6.212M36.99 132.347c-4.166 4.655-5.94 8.669-4.746 10.737 1.193 2.069 5.557 2.539 11.672 1.259 1.958-.41 4.033-.982 6.192-1.699a92.843 92.843 0 0 1-1.084-9.248 93.054 93.054 0 0 1-7.468-5.562 56.198 56.198 0 0 0-4.566 4.513m6.926-24.838c-6.115-1.28-10.477-.809-11.672 1.259-1.195 2.069.58 6.083 4.746 10.738a56.362 56.362 0 0 0 4.567 4.513 93.058 93.058 0 0 1 7.467-5.563 92.843 92.843 0 0 1 1.084-9.248c-2.159-.717-4.234-1.289-6.192-1.699m24.973-6.42c-1.95-5.935-4.538-9.479-6.927-9.479-2.388 0-4.977 3.544-6.927 9.479a56.27 56.27 0 0 0-1.623 6.211 93.195 93.195 0 0 1 8.55 3.687 93.036 93.036 0 0 1 8.552-3.687 56.443 56.443 0 0 0-1.626-6.211m22.793 7.679c-1.195-2.068-5.559-2.539-11.673-1.259-1.957.41-4.034.982-6.191 1.699a92.808 92.808 0 0 1 1.084 9.248 93.204 93.204 0 0 1 7.468 5.563c1.698-1.51 3.232-3.022 4.566-4.513 4.166-4.655 5.94-8.669 4.746-10.738" style="fill:none;stroke:#67c1be;stroke-width:.5;stroke-linecap:butt;stroke-linejoin:miter;stroke-miterlimit:4;stroke-dasharray:none;stroke-opacity:1" clip-path="url(#i)" transform="matrix(1.33333 0 0 -1.33333 -3.8 217.853)"/><path d="m65.956 124.99.037.086c.01.026.02.053.032.08l.05.133.011.035a4.334 4.334 0 0 1 0 2.841l-.011.034-.05.134-.032.08a3.98 3.98 0 0 1-.037.086l-.056.123-.02.039a4.37 4.37 0 0 1-2.002 2.003l-.04.019a6.698 6.698 0 0 1-.122.056l-.086.037-.08.032a5.543 5.543 0 0 1-.134.05l-.034.011a4.338 4.338 0 0 1-2.841 0l-.034-.011a4.55 4.55 0 0 1-.134-.05l-.08-.032-.086-.037a6.69 6.69 0 0 1-.123-.056l-.04-.019a4.327 4.327 0 0 1-2.002-2.003c-.006-.013-.012-.026-.02-.039a5.59 5.59 0 0 1-.056-.123c-.011-.029-.025-.057-.036-.086-.012-.027-.021-.053-.032-.08a3.211 3.211 0 0 1-.05-.134c-.005-.011-.007-.022-.012-.034a4.344 4.344 0 0 1 0-2.841l.012-.035.05-.133c.01-.027.02-.054.032-.08.011-.029.025-.057.036-.086a5.59 5.59 0 0 1 .057-.123l.02-.04a4.337 4.337 0 0 1 2.002-2.002l.039-.019c.04-.02.082-.038.125-.057l.082-.036.084-.032.13-.05.038-.012a4.328 4.328 0 0 1 2.838 0l.035.012.132.05.083.032.084.036.125.057.037.019c.423.206.82.483 1.17.834.35.35.628.746.834 1.168.005.014.012.027.019.04.02.041.038.082.056.123" style="fill:#0a9ea0;fill-opacity:1;fill-rule:nonzero;stroke:none;stroke-width:.1" clip-path="url(#j)" transform="matrix(1.33333 0 0 -1.33333 -3.8 217.853)"/><path d="M61.961 103.335v25.781" style="fill:none;stroke:#0a9ea0;stroke-width:3.4;stroke-linecap:butt;stroke-linejoin:miter;stroke-miterlimit:4;stroke-dasharray:none;stroke-opacity:1" clip-path="url(#k)" transform="matrix(1.33333 0 0 -1.33333 -3.8 217.853)"/><path d="M46.882 65.258a6.534 6.534 0 0 1 6.534-6.534h17.09a6.534 6.534 0 0 1 6.533 6.534v48.545a6.533 6.533 0 0 1-6.532 6.534H53.416a6.533 6.533 0 0 1-6.534-6.534V65.258" style="fill:#0a9ea0;fill-opacity:1;fill-rule:nonzero;stroke:none;stroke-width:.1" clip-path="url(#l)" transform="matrix(1.33333 0 0 -1.33333 -3.8 217.853)"/><path d="M19.483 93.85a6.534 6.534 0 0 1-6.534-6.532v-6.534a6.535 6.535 0 0 1 6.534-6.534h85.713a6.534 6.534 0 0 1 6.533 6.534v6.534a6.533 6.533 0 0 1-6.533 6.533H19.483" style="fill:#0a9ea0;fill-opacity:1;fill-rule:nonzero;stroke:none;stroke-width:.1" clip-path="url(#m)" transform="matrix(1.33333 0 0 -1.33333 -3.8 217.853)"/><path d="M35.902 110.389a8.167 8.167 0 0 1-8.167-8.167V61.705a8.168 8.168 0 0 1 8.167-8.167H88.17a8.167 8.167 0 0 1 8.167 8.167v40.517a8.166 8.166 0 0 1-8.167 8.167H35.902" style="fill:#67c1be;fill-opacity:1;fill-rule:nonzero;stroke:none;stroke-width:.1" clip-path="url(#n)" transform="matrix(1.33333 0 0 -1.33333 -3.8 217.853)"/><g clip-path="url(#o)" transform="matrix(.13333 0 0 -.13333 9.3 217.573)"><g clip-path="url(#p)"><path d="M522.109 289.18h500.221v845.27H522.109V289.18" style="fill:#0a9ea0;fill-opacity:1;fill-rule:nonzero;stroke:none"/></g></g><g><g clip-path="url(#q)" transform="matrix(.13333 0 0 -.13333 9.3 217.573)"><path d="M260.172 587.66c13.25 0 23.988 10.738 23.988 23.988s-10.738 23.997-23.988 23.997-23.992-10.747-23.992-23.997 10.742-23.988 23.992-23.988M328.848 587.66c13.25 0 23.988 10.738 23.988 23.988s-10.738 23.997-23.988 23.997-23.993-10.747-23.993-23.997 10.743-23.988 23.993-23.988M730.016 587.66c13.25 0 23.988 10.738 23.988 23.988s-10.738 23.997-23.988 23.997-23.993-10.747-23.993-23.997 10.743-23.988 23.993-23.988M798.691 587.66c13.25 0 23.989 10.738 23.989 23.988s-10.739 23.997-23.989 23.997-23.992-10.747-23.992-23.997 10.742-23.988 23.992-23.988M454.375 986.809c13.25 0 23.988 10.738 23.988 23.991 0 13.25-10.738 23.99-23.988 23.99s-23.988-10.74-23.988-23.99c0-13.253 10.738-23.991 23.988-23.991M523.051 986.809c13.25 0 23.992 10.738 23.992 23.991 0 13.25-10.742 23.99-23.992 23.99s-23.988-10.74-23.988-23.99c0-13.253 10.738-23.991 23.988-23.991M591.727 986.809c13.25 0 23.992 10.738 23.992 23.991 0 13.25-10.742 23.99-23.992 23.99s-23.989-10.74-23.989-23.99c0-13.253 10.739-23.991 23.989-23.991M606.875 667.664c0-44.176-35.812-79.984-79.988-79.984-44.172 0-79.985 35.808-79.985 79.984h159.973" style="fill:#171717;fill-opacity:1;fill-rule:nonzero;stroke:none"/><path d="M701.383 728.141c48.879 0 88.5 39.621 88.5 88.5 0 48.882-39.621 88.5-88.5 88.5s-88.5-39.618-88.5-88.5c0-48.879 39.621-88.5 88.5-88.5M352.969 728.141c48.879 0 88.5 39.621 88.5 88.5 0 48.882-39.621 88.5-88.5 88.5s-88.5-39.618-88.5-88.5c0-48.879 39.621-88.5 88.5-88.5" style="fill:#fff;fill-opacity:1;fill-rule:nonzero;stroke:none"/><path d="M698.609 794.094c12.95 0 23.442 10.5 23.442 23.441 0 12.949-10.492 23.438-23.442 23.438-12.949 0-23.437-10.489-23.437-23.438 0-12.941 10.488-23.441 23.437-23.441M351.664 794.094c12.949 0 23.441 10.5 23.441 23.441 0 12.949-10.492 23.438-23.441 23.438-12.949 0-23.441-10.489-23.441-23.438 0-12.941 10.492-23.441 23.441-23.441" style="fill:#171717;fill-opacity:1;fill-rule:nonzero;stroke:none"/><path d="M259.98 774.563c16.27-39.391 51.723-66.782 92.989-66.782 41.265 0 76.719 27.391 92.992 66.782H259.98" style="fill:#0a9ea0;fill-opacity:1;fill-rule:nonzero;stroke:none"/><path d="M274.891 774.563c15.105-27.633 44.359-46.422 78.078-46.422s62.969 18.789 78.082 46.422h-156.16M623.305 774.563c15.105-27.633 44.359-46.422 78.078-46.422s62.969 18.789 78.082 46.422h-156.16" style="fill:#67c1be;fill-opacity:1;fill-rule:nonzero;stroke:none"/></g></g></svg>