<svg version="1.1" viewBox="0 0 181.468 239.316" xmlns="http://www.w3.org/2000/svg"><defs><clipPath clipPathUnits="userSpaceOnUse" id="a"><path d="M0 0h1046v1486H0Z"/></clipPath><clipPath clipPathUnits="userSpaceOnUse" id="b"><path d="m1044.99 520.781.56 965.649H0V521.363C0 233.422 234.059 0 522.789 0 811.52 0 1045.58 233.422 1045.58 521.363Z"/></clipPath><clipPath clipPathUnits="userSpaceOnUse" id="c"><path d="M0 0h1046v1486H0Z"/></clipPath><clipPath clipPathUnits="userSpaceOnUse" id="d"><path d="m1044.99 520.781.56 965.649H0V521.363C0 233.422 234.059 0 522.789 0 811.52 0 1045.58 233.422 1045.58 521.363Z"/></clipPath><clipPath clipPathUnits="userSpaceOnUse" id="e"><path d="M252.41 1089.18c-46.074 0-83.418-37.25-83.418-83.2V532.996c0-45.949 37.344-83.195 83.418-83.195h533.91c46.078 0 83.43 37.246 83.43 83.195v472.984c0 45.95-37.352 83.2-83.43 83.2z"/></clipPath><clipPath clipPathUnits="userSpaceOnUse" id="f"><path d="M0 0h1046v1486H0Z"/></clipPath><clipPath clipPathUnits="userSpaceOnUse" id="g"><path d="m1044.99 520.781.56 965.649H0V521.363C0 233.422 234.059 0 522.789 0 811.52 0 1045.58 233.422 1045.58 521.363Z"/></clipPath><clipPath clipPathUnits="userSpaceOnUse" id="h"><path d="M0 0h1046v1486H0Z"/></clipPath><clipPath clipPathUnits="userSpaceOnUse" id="i"><path d="m1044.99 520.781.56 965.649H0V521.363C0 233.422 234.059 0 522.789 0 811.52 0 1045.58 233.422 1045.58 521.363Z"/></clipPath><clipPath clipPathUnits="userSpaceOnUse" id="j"><path d="M522.789-329.98h451.723v756.832H522.789Z"/></clipPath><clipPath clipPathUnits="userSpaceOnUse" id="k"><path d="M0 0h1046v1486H0Z"/></clipPath><clipPath clipPathUnits="userSpaceOnUse" id="l"><path d="m1044.99 520.781.56 965.649H0V521.363C0 233.422 234.059 0 522.789 0 811.52 0 1045.58 233.422 1045.58 521.363Z"/></clipPath></defs><g clip-path="url(#a)" transform="matrix(.13333 0 0 -.13333 14.219 197.736)"><g clip-path="url(#b)"><path d="M524.219-.578c287.941 0 521.361 233.418 521.361 521.359 0 287.938-233.42 521.359-521.361 521.359-287.942 0-521.36-233.421-521.36-521.359C2.86 232.84 236.277-.579 524.22-.579" style="fill:#6d397b;fill-opacity:1;fill-rule:nonzero;stroke:none"/><path d="m82.316-50.66 65.043 306.469M893.316 255.809l65.043-306.47" style="fill:none;stroke:#0a9ea0;stroke-width:40.0548;stroke-linecap:round;stroke-linejoin:miter;stroke-miterlimit:4;stroke-dasharray:none;stroke-opacity:1"/><path d="M519.848 1361.03c-24.336 0-44.129 19.72-44.129 43.97s19.793 43.98 44.129 43.98 44.14-19.73 44.14-43.98c0-24.25-19.804-43.97-44.14-43.97zm78.183 43.97c0 43.02-35.066 78.02-78.183 78.02-43.106 0-78.172-35-78.172-78.02 0-37.18 26.215-68.32 61.152-76.1v-248.27h34.043v248.27c34.945 7.78 61.16 38.92 61.16 76.1M252.164 1304.45c0 24.25 19.793 43.98 44.129 43.98s44.141-19.73 44.141-43.98c0-24.25-19.805-43.97-44.141-43.97s-44.129 19.72-44.129 43.97zm122.313 0c0 43.02-35.067 78.02-78.184 78.02-43.105 0-78.172-35-78.172-78.02 0-43.02 35.067-78.02 78.172-78.02 15.18 0 29.316 4.41 41.32 11.91l83.446-91.01v-137.72h34.043v150.96l-93.176 101.63c7.91 12.19 12.551 26.68 12.551 42.25" style="fill:#67c1be;fill-opacity:1;fill-rule:nonzero;stroke:none"/><path d="M745.316 1260.48c-24.336 0-44.14 19.72-44.14 43.97s19.804 43.98 44.14 43.98c24.336 0 44.133-19.73 44.133-43.98 0-24.25-19.797-43.97-44.133-43.97zm0 121.99c-43.113 0-78.183-35-78.183-78.02 0-15.57 4.644-30.06 12.551-42.25l-93.176-101.63v-150.96h34.043v137.72l83.445 91.01c12.008-7.5 26.141-11.91 41.32-11.91 43.106 0 78.176 35 78.176 78.02 0 43.02-35.07 78.02-78.176 78.02M379.348 615.598v-485.45c0-36.078 29.332-65.328 65.507-65.328h171.379c36.18 0 65.508 29.25 65.508 65.328v485.45M176.313 920.707c-36.86 0-66.743-29.801-66.743-66.559v-66.562c0-36.75 29.883-66.551 66.743-66.551H872.43c36.859 0 66.742 29.801 66.742 66.551v66.562c0 36.758-29.883 66.559-66.742 66.559H176.313" style="fill:#0a9ea0;fill-opacity:1;fill-rule:nonzero;stroke:none"/><path d="M252.41 1089.18c-46.074 0-83.426-37.25-83.426-83.2V532.996c0-45.949 37.352-83.187 83.426-83.187h533.91c46.078 0 83.43 37.238 83.43 83.187v472.984c0 45.95-37.352 83.2-83.43 83.2H252.41" style="fill:#67c1be;fill-opacity:1;fill-rule:nonzero;stroke:none"/></g></g><g clip-path="url(#c)" transform="matrix(.13333 0 0 -.13333 14.219 197.736)"><g clip-path="url(#d)"><g clip-path="url(#e)"><path d="M519.371 261.379h510.969v861.071H519.371V261.379" style="fill:#0a9ea0;fill-opacity:1;fill-rule:nonzero;stroke:none"/></g></g></g><g clip-path="url(#f)" transform="matrix(.13333 0 0 -.13333 14.219 197.736)"><g clip-path="url(#g)"><path d="M266.641 936.59c-23.032 0-41.715-18.629-41.715-41.598V757.723c0-22.981 18.683-41.602 41.715-41.602h499.195c23.031 0 41.715 18.621 41.715 41.602v137.269c0 22.969-18.684 41.598-41.715 41.598H266.641" style="fill:#171717;fill-opacity:1;fill-rule:nonzero;stroke:none"/><path d="M751.656 354.219a66.004 66.004 0 0 1-.832-1.93c-.25-.578-.472-1.187-.719-1.789-.382-.988-.765-1.98-1.128-2.988-.09-.274-.18-.524-.27-.782a97.231 97.231 0 0 1-5.355-31.89c0-11.18 1.89-21.891 5.355-31.899.09-.269.18-.519.27-.761.363-1.008.746-2.02 1.128-3.008.247-.613.469-1.192.719-1.801.27-.652.539-1.281.832-1.93a81.31 81.31 0 0 1 1.262-2.761c.137-.289.293-.578.426-.871a96.96 96.96 0 0 1 18.777-26.25c7.879-7.86 16.797-14.079 26.297-18.719.312-.141.605-.301.898-.43.922-.43 1.844-.851 2.77-1.262.629-.269 1.281-.558 1.937-.828.582-.25 1.192-.468 1.801-.718.989-.383 1.981-.762 2.992-1.122.27-.089.52-.179.789-.25a98.079 98.079 0 0 1 63.958 0c.269.071.519.161.765.25 1.016.36 2.027.739 3.016 1.122.609.25 1.195.468 1.801.718.656.27 1.285.559 1.937.828.926.411 1.848.832 2.77 1.262.293.129.586.289.878.43 9.5 4.64 18.438 10.859 26.317 18.719a97.393 97.393 0 0 1 18.754 26.25c.156.293.293.582.449.871.43.922.855 1.84 1.262 2.761.269.649.562 1.278.832 1.93.25.609.472 1.188.699 1.801.402.988.785 2 1.148 3.008.09.242.157.492.247.761a97.165 97.165 0 0 1 5.378 31.899c0 11.16-1.91 21.89-5.378 31.89-.09.258-.157.508-.247.782a78.38 78.38 0 0 1-1.148 2.988c-.227.602-.449 1.211-.699 1.789-.27.652-.563 1.281-.832 1.93-.407.922-.832 1.84-1.262 2.769-.156.293-.293.582-.449.891a97.55 97.55 0 0 1-18.754 26.23 97.5 97.5 0 0 1-26.34 18.723c-.269.137-.562.289-.855.43-.922.449-1.868.847-2.813 1.277a67.43 67.43 0 0 1-1.871.801c-.629.25-1.238.5-1.867.719-.969.39-1.957.773-2.949 1.132-.27.09-.539.18-.832.27a97.944 97.944 0 0 1-31.946 5.34 98.01 98.01 0 0 1-31.945-5.34l-.813-.27c-1.011-.359-1.98-.742-2.972-1.132a44.653 44.653 0 0 1-1.844-.719c-.633-.258-1.262-.531-1.891-.801-.949-.43-1.871-.828-2.816-1.277-.293-.141-.563-.293-.855-.43-9.5-4.621-18.438-10.844-26.317-18.723a97.115 97.115 0 0 1-18.777-26.23c-.133-.309-.289-.598-.426-.891a87.408 87.408 0 0 1-1.262-2.769" style="fill:#0a9ea0;fill-opacity:1;fill-rule:nonzero;stroke:none"/><path d="M118.098 354.219a63.395 63.395 0 0 1-.832-1.93c-.25-.578-.477-1.187-.723-1.789-.383-.988-.766-1.98-1.125-2.988-.09-.274-.18-.524-.27-.782a97.155 97.155 0 0 1-5.359-31.89 97.155 97.155 0 0 1 5.359-31.899c.09-.269.18-.519.27-.761.359-1.008.742-2.02 1.125-3.008.246-.613.473-1.192.723-1.801.269-.652.539-1.281.832-1.93.406-.921.808-1.839 1.257-2.761.137-.289.293-.578.43-.871a96.878 96.878 0 0 1 18.778-26.25 98.082 98.082 0 0 1 26.292-18.719c.317-.141.61-.301.903-.43.922-.43 1.844-.851 2.765-1.262.633-.269 1.286-.558 1.938-.828.586-.25 1.191-.468 1.801-.718.992-.383 1.98-.762 2.996-1.122.269-.089.515-.179.785-.25a98.092 98.092 0 0 1 31.969-5.359c11.211 0 21.949 1.91 31.992 5.359.269.071.516.161.766.25 1.011.36 2.027.739 3.015 1.122.61.25 1.192.468 1.801.718.652.27 1.281.559 1.937.828.922.411 1.844.832 2.766 1.262.297.129.59.289.879.43 9.504 4.64 18.437 10.859 26.32 18.719a97.269 97.269 0 0 1 18.75 26.25c.16.293.293.582.453.871.426.922.856 1.84 1.258 2.761.274.649.567 1.278.836 1.93.246.609.473 1.188.695 1.801.407.988.79 2 1.149 3.008.09.242.156.492.25.761a97.244 97.244 0 0 1 0 63.789c-.094.258-.16.508-.25.782a65.73 65.73 0 0 1-1.149 2.988 39.534 39.534 0 0 1-.695 1.789c-.269.652-.562 1.281-.836 1.93-.402.922-.832 1.84-1.258 2.769-.16.293-.293.582-.453.891a97.425 97.425 0 0 1-18.75 26.23 97.485 97.485 0 0 1-26.34 18.723c-.269.137-.562.289-.859.43-.922.449-1.867.847-2.812 1.277-.61.27-1.239.543-1.868.801-.632.25-1.238.5-1.871.719-.965.39-1.957.773-2.949 1.132-.269.09-.539.18-.832.27a97.925 97.925 0 0 1-31.945 5.34 98.052 98.052 0 0 1-31.946-5.34l-.808-.27c-1.016-.359-1.985-.742-2.973-1.132a45.333 45.333 0 0 1-1.847-.719c-.629-.258-1.258-.531-1.891-.801-.945-.43-1.867-.828-2.813-1.277-.293-.141-.562-.293-.855-.43-9.5-4.621-18.438-10.844-26.316-18.723a97.033 97.033 0 0 1-18.778-26.23c-.137-.309-.293-.598-.43-.891-.449-.929-.851-1.847-1.257-2.769" style="fill:#67c1be;fill-opacity:1;fill-rule:nonzero;stroke:none"/><path d="M790.961-280.828H251.305c-43.512 0-78.785 35.269-78.785 78.789v504.738c0 43.512 35.273 78.789 78.785 78.789h539.656c43.516 0 78.789-35.277 78.789-78.789v-504.738c0-43.52-35.273-78.789-78.789-78.789" style="fill:#67c1be;fill-opacity:1;fill-rule:nonzero;stroke:none"/></g></g><g clip-path="url(#h)" transform="matrix(.13333 0 0 -.13333 14.219 197.736)"><g clip-path="url(#i)"><g clip-path="url(#j)"><path d="M792.617-280.828H252.961c-43.512 0-78.785 35.269-78.785 78.789v504.738c0 43.512 35.273 78.789 78.785 78.789h539.656c43.516 0 78.789-35.277 78.789-78.789v-504.738c0-43.52-35.273-78.789-78.789-78.789" style="fill:#0a9ea0;fill-opacity:1;fill-rule:nonzero;stroke:none"/></g></g></g><g clip-path="url(#k)" transform="matrix(.13333 0 0 -.13333 14.219 197.736)"><g clip-path="url(#l)"><path d="M519.852 134.051c36.8 0 66.628 29.75 66.628 66.437 0 36.703-29.828 66.453-66.628 66.453-36.797 0-66.629-29.75-66.629-66.453 0-36.687 29.832-66.437 66.629-66.437" style="fill:#0a9ea0;fill-opacity:1;fill-rule:nonzero;stroke:none"/><path d="M519.852 134.051c36.8 0 66.628 29.75 66.628 66.437 0 36.703-29.828 66.453-66.628 66.453-36.797 0-66.629-29.75-66.629-66.453 0-36.687 29.832-66.437 66.629-66.437" style="fill:none;stroke:#67c1be;stroke-width:27.9177;stroke-linecap:butt;stroke-linejoin:miter;stroke-miterlimit:4;stroke-dasharray:none;stroke-opacity:1"/><path d="M352.129 648.711c23.453-67.539 87.699-116.078 163.406-116.078 75.719 0 139.961 48.539 163.414 116.078h-326.82" style="fill:#171717;fill-opacity:1;fill-rule:nonzero;stroke:none"/><path d="M349.691 758.504c34.934 0 63.239 28.242 63.239 63.062 0 34.84-28.305 63.067-63.239 63.067-34.933 0-63.238-28.227-63.238-63.067 0-34.82 28.305-63.062 63.238-63.062" style="fill:#d8b039;fill-opacity:1;fill-rule:nonzero;stroke:none"/><path d="M349.691 794.969c14.735 0 26.668 11.918 26.668 26.597 0 14.696-11.933 26.602-26.668 26.602-14.734 0-26.671-11.906-26.671-26.602 0-14.679 11.937-26.597 26.671-26.597" style="fill:#171717;fill-opacity:1;fill-rule:nonzero;stroke:none"/><path d="M681.398 758.504c34.934 0 63.239 28.242 63.239 63.062 0 34.84-28.305 63.067-63.239 63.067-34.933 0-63.238-28.227-63.238-63.067 0-34.82 28.305-63.062 63.238-63.062" style="fill:#d8b039;fill-opacity:1;fill-rule:nonzero;stroke:none"/><path d="M681.398 794.969c14.735 0 26.672 11.918 26.672 26.597 0 14.696-11.937 26.602-26.672 26.602-14.734 0-26.671-11.906-26.671-26.602 0-14.679 11.937-26.597 26.671-26.597M763.332 741.141H252.98v43.703h510.352v-43.703" style="fill:#171717;fill-opacity:1;fill-rule:nonzero;stroke:none"/><path d="M474.559 995.383c0-13.25-10.774-23.988-24.059-23.988-13.285 0-24.055 10.738-24.055 23.988 0 13.247 10.77 23.997 24.055 23.997s24.059-10.75 24.059-23.997M543.906 995.383c0-13.25-10.769-23.988-24.054-23.988-13.286 0-24.055 10.738-24.055 23.988 0 13.247 10.769 23.997 24.055 23.997 13.285 0 24.054-10.75 24.054-23.997M612.285 995.383c0-13.25-10.769-23.988-24.055-23.988-13.285 0-24.054 10.738-24.054 23.988 0 13.247 10.769 23.997 24.054 23.997 13.286 0 24.055-10.75 24.055-23.997" style="fill:#fff;fill-opacity:1;fill-rule:nonzero;stroke:none"/></g></g></svg>