<svg version="1.1" viewBox="0 0 104.28 195.384" xmlns="http://www.w3.org/2000/svg"><defs id="defs2546"><clipPath id="clippath"><path class="cls-7" d="M104.35 114.09 104.41 0H.14v114.03c0 28.57 23.34 51.73 52.14 51.73s52.14-23.16 52.14-51.73l-.06.06z" id="path2535"/></clipPath><clipPath id="clippath-1"><path class="cls-7" d="M16.03 89.42c0 20.14 16.33 36.47 36.47 36.47s36.47-16.33 36.47-36.47S72.64 52.94 52.5 52.94 16.03 69.27 16.03 89.42" id="path2538"/></clipPath><clipPath id="clippath-2"><path class="cls-7" d="M52.07 125.3h41.28v96.4H52.07Z" id="path2541"/></clipPath><style id="style2544">.cls-2{fill:#67c1be}.cls-3{fill:#32b4b5}.cls-4{fill:#0a9ea0}.cls-7{fill:none}.cls-10{fill:#d0d65c}.cls-11{fill:#1d1d1b}</style></defs><path class="cls-10" d="M52.14 165.733c28.79 0 52.14-23.34 52.14-52.14s-23.34-52.14-52.14-52.14S0 84.803 0 113.593s23.34 52.14 52.14 52.14" id="path2548"/><path class="cls-4" d="M99.77 165.013c-.66 0-1.3-.32-1.68-.91l-17.02-26.3c-.6-.93-.33-2.17.59-2.77.93-.6 2.17-.33 2.77.59l17.02 26.3c.6.93.33 2.17-.59 2.77-.34.22-.71.32-1.08.32z" id="path2550"/><path class="cls-4" d="M75.02 178.673c-.71 0-1.39-.37-1.75-1.03-.53-.97-.18-2.18.78-2.72l24.75-13.66a2 2 0 0 1 2.72.78c.53.97.18 2.18-.78 2.72l-24.75 13.66c-.31.17-.64.25-.96.25z" id="path2552"/><path class="cls-2" d="M99.07 158.713s-.06 0-.09.02c-.03 0-.06.01-.08.02-.05 0-.09.02-.14.03h-.04c-.46.11-.9.3-1.32.57-.42.27-.77.6-1.06.97 0 0-.01.02-.02.03-.03.04-.06.08-.09.11-.02.02-.03.05-.05.07-.02.03-.03.05-.05.08-.02.04-.05.07-.07.11 0 .01-.01.03-.02.04-.24.4-.43.85-.53 1.34-.1.48-.12.97-.07 1.43v.04c0 .04.01.09.02.13 0 .03 0 .06.02.09 0 .03.01.06.02.08 0 .05.02.09.03.14v.04c.11.46.3.9.57 1.32a4.29 4.29 0 0 0 1 1.08c.04.03.08.06.11.09.02.02.05.03.07.05.03.02.05.03.08.05.04.02.08.05.11.07.01 0 .03.01.04.02.4.24.85.42 1.34.53.48.1.97.12 1.43.06h.04c.04 0 .09-.01.13-.02.03 0 .06 0 .09-.02.03 0 .06-.01.08-.02.05 0 .09-.02.14-.03h.03c.46-.11.9-.3 1.32-.57.42-.27.77-.6 1.06-.97 0 0 .02-.02.02-.03.03-.04.06-.08.08-.12.02-.02.03-.05.05-.07.02-.03.03-.05.05-.08.02-.04.05-.08.07-.11 0-.01.01-.03.02-.04.24-.4.42-.85.53-1.33.1-.49.12-.97.06-1.44v-.04c0-.05-.01-.09-.02-.14 0-.03 0-.06-.01-.09 0-.03-.01-.06-.02-.09 0-.05-.02-.09-.03-.14 0-.01 0-.02-.01-.04-.11-.46-.3-.9-.57-1.32-.27-.42-.6-.77-.97-1.06l-.03-.02s-.08-.06-.11-.08c-.02-.02-.05-.03-.07-.05l-.08-.05s-.08-.05-.12-.07c-.01 0-.02-.01-.04-.02-.4-.24-.85-.43-1.34-.53-.48-.1-.97-.12-1.43-.07h-.04c-.05 0-.09.01-.13.02" id="path2554"/><g clip-path="url(#clippath)" id="g2600" transform="translate(0 -.027)"><path class="cls-4" d="M43.73 101.03h17.09c3.61 0 6.53 2.93 6.53 6.53v48.55c0 3.61-2.93 6.53-6.53 6.53H43.73c-3.61 0-6.53-2.93-6.53-6.53v-48.54c0-3.61 2.93-6.53 6.53-6.53z" id="path2556"/><path class="cls-4" transform="rotate(-30 33.014 56.526)" d="M30.63 49.36h4.77v14.31h-4.77Z" id="path2558"/><path class="cls-4" transform="rotate(-60 71.073 56.518)" d="M63.92 54.13h14.31v4.77H63.92Z" id="path2560"/><path class="cls-2" d="M52.5 125.89c20.14 0 36.47-16.33 36.47-36.47S72.64 52.95 52.5 52.95 16.03 69.28 16.03 89.42s16.33 36.47 36.47 36.47" id="path2562"/><path class="cls-4" d="M52 50.46h46.75v79H52Z" clip-path="url(#clippath-1)" id="path2564"/><path class="cls-11" d="M50.83 74.01c1.24 0 2.24-1 2.24-2.24 0-1.24-1-2.24-2.24-2.24-1.24 0-2.24 1-2.24 2.24 0 1.24 1 2.24 2.24 2.24m-12.84 0c1.24 0 2.24-1 2.24-2.24 0-1.24-1-2.24-2.24-2.24-1.24 0-2.24 1-2.24 2.24 0 1.24 1 2.24 2.24 2.24m6.42 0c1.24 0 2.24-1 2.24-2.24 0-1.24-1-2.24-2.24-2.24-1.24 0-2.24 1-2.24 2.24 0 1.24 1 2.24 2.24 2.24m12.84 0c1.24 0 2.24-1 2.24-2.24 0-1.24-1-2.24-2.24-2.24-1.24 0-2.24 1-2.24 2.24 0 1.24 1 2.24 2.24 2.24m6.41 0c1.24 0 2.24-1 2.24-2.24 0-1.24-1-2.24-2.24-2.24-1.24 0-2.24 1-2.24 2.24 0 1.24 1 2.24 2.24 2.24" id="path2566"/><path class="cls-4" d="M83.48 123.06c-2.15 0-4.28-.56-6.2-1.67a12.329 12.329 0 0 1-5.79-7.55c-.86-3.21-.42-6.56 1.24-9.44 3.43-5.94 11.05-7.98 16.99-4.55 5.94 3.43 7.98 11.05 4.55 16.99a12.329 12.329 0 0 1-7.55 5.79c-1.07.29-2.16.43-3.24.43zm.04-20.87c-2.92 0-5.76 1.51-7.32 4.22a8.329 8.329 0 0 0-.84 6.4c.58 2.18 1.98 4 3.93 5.12a8.373 8.373 0 0 0 6.4.84c2.18-.58 4-1.98 5.12-3.93 2.33-4.03.94-9.2-3.09-11.52a8.438 8.438 0 0 0-4.2-1.13z" id="path2568"/><path class="cls-2" d="M20.48 123.06c-2.15 0-4.28-.56-6.2-1.67a12.329 12.329 0 0 1-5.79-7.55c-.86-3.21-.42-6.56 1.24-9.44s4.34-4.93 7.55-5.79c3.21-.86 6.56-.42 9.44 1.24s4.93 4.34 5.79 7.55c.86 3.21.42 6.56-1.24 9.44a12.329 12.329 0 0 1-7.55 5.79c-1.07.29-2.16.43-3.24.43zm.04-20.87c-2.92 0-5.76 1.51-7.32 4.22a8.329 8.329 0 0 0-.84 6.4c.58 2.18 1.98 4 3.93 5.12 4.03 2.33 9.2.94 11.52-3.09a8.329 8.329 0 0 0 .84-6.4c-.58-2.18-1.98-4-3.93-5.12a8.438 8.438 0 0 0-4.2-1.13zm58.62-59.63c-2.69-1.55-6-.99-8.05 1.16l-9.72-6.55c.32-.95.48-1.94.49-2.94a9.635 9.635 0 0 0-7.59-9.52V12.9a6.534 6.534 0 0 0 3.78-3c1.82-3.15.74-7.17-2.41-8.99a6.577 6.577 0 0 0-8.99 2.41 6.577 6.577 0 0 0 4.22 9.7v11.55a9.58 9.58 0 0 0-5.42 2.66c-2.62 2.57-3.51 6.38-2.39 9.83l-8.4 5.67-1.68.95c-2.05-2.12-5.35-2.67-8.02-1.12a6.577 6.577 0 0 0-2.41 8.99 6.577 6.577 0 0 0 8.99 2.41 6.567 6.567 0 0 0 3.13-7.14l9.96-6.72a9.62 9.62 0 0 0 7.48 3.69c2.96.02 5.77-1.32 7.62-3.63l9.72 6.55c-.67 2.76.52 5.75 3.11 7.24 3.15 1.82 7.17.74 8.99-2.41 1.82-3.15.74-7.17-2.41-8.99z" id="path2570"/><path class="cls-3" d="M32.11 129.54c-5.12 0-9.32 5.12-9.73 11.62-.04.69-.09 1.38-.21 2.06l-10.44 59.63c-.41 2.36-.35 4.8.39 7.08 1.48 4.55 4.95 7.74 8.99 7.74h62.47c4.04 0 7.51-3.19 8.99-7.73.74-2.28.8-4.73.39-7.09l-10.47-59.63c-.12-.68-.17-1.37-.21-2.06-.41-6.51-4.61-11.62-9.73-11.62z" id="path2572"/><path class="cls-4" d="M32.11 129.54c-5.39 0-9.76 5.67-9.76 12.66l-11 62.81c0 6.99 4.37 12.66 9.76 12.66h62.47c5.39 0 9.76-5.67 9.76-12.66L82.59 142.2c-.09-7.96-4.65-12.66-10.04-12.66Z" clip-path="url(#clippath-2)" id="path2574"/><path class="cls-4" d="M70.72 132.62c-.03.07-.06.13-.08.19-.02.06-.05.12-.07.18-.04.1-.08.2-.11.3 0 .03-.02.05-.03.08-.35 1-.53 2.07-.53 3.19s.19 2.19.53 3.19c0 .03.02.05.03.08.04.1.07.2.11.3.02.06.05.12.07.18.03.07.05.13.08.19.04.09.08.18.13.28.01.03.03.06.04.09.46.95 1.08 1.84 1.87 2.62.79.79 1.67 1.41 2.62 1.87.03.01.06.03.09.04.09.04.18.09.28.13.06.03.13.06.19.08.06.02.12.05.18.07.1.04.2.08.3.11.03 0 .05.02.08.02 1 .35 2.07.54 3.19.54s2.19-.19 3.19-.54c.03 0 .05-.02.08-.02.1-.04.2-.07.3-.11.06-.02.12-.05.18-.07.07-.03.13-.06.19-.08.09-.04.18-.08.28-.13.03-.01.06-.03.09-.04a9.68 9.68 0 0 0 2.62-1.87c.79-.79 1.41-1.67 1.87-2.62.02-.03.03-.06.04-.09.04-.09.09-.18.13-.28.03-.07.06-.13.08-.19.02-.06.05-.12.07-.18.04-.1.08-.2.11-.3 0-.02.02-.05.02-.08.35-1 .54-2.07.54-3.19s-.19-2.19-.54-3.19c0-.03-.02-.05-.02-.08-.04-.1-.07-.2-.11-.3-.02-.06-.04-.12-.07-.18-.03-.07-.06-.13-.08-.19-.04-.09-.08-.18-.13-.28-.02-.03-.03-.06-.04-.09a9.469 9.469 0 0 0-1.87-2.62 9.664 9.664 0 0 0-2.63-1.87c-.03-.01-.06-.03-.09-.04-.09-.04-.19-.09-.28-.13-.06-.03-.12-.05-.19-.08-.06-.02-.12-.05-.19-.07-.1-.04-.2-.08-.29-.11-.03 0-.05-.02-.08-.03-1-.35-2.07-.53-3.19-.53s-2.19.19-3.19.53l-.08.03c-.1.04-.2.07-.3.11-.06.02-.12.05-.18.07l-.19.08c-.09.04-.19.08-.28.13-.03.01-.06.03-.09.04-.95.46-1.84 1.08-2.62 1.87-.79.79-1.41 1.67-1.87 2.62-.01.03-.03.06-.04.09-.04.09-.09.18-.13.28" id="path2576"/><path class="cls-2" d="m38.65 159.59 11.23-11.23a4.527 4.527 0 0 1 6.39 0l11.23 11.23c2.85 2.85.83 7.71-3.2 7.71H41.85c-4.03 0-6.04-4.87-3.2-7.71z" id="path2578"/><path class="cls-4" d="M64.29 168.8H41.84c-2.48 0-4.61-1.42-5.56-3.71-.95-2.29-.45-4.81 1.3-6.56l11.23-11.23a6.017 6.017 0 0 1 8.51 0l11.23 11.23c1.75 1.75 2.25 4.27 1.3 6.56s-3.08 3.71-5.56 3.71zm-11.23-20.26c-.77 0-1.55.29-2.13.88L39.7 160.65c-.89.89-1.14 2.12-.65 3.29.49 1.17 1.53 1.86 2.79 1.86h22.45c1.26 0 2.31-.7 2.79-1.86.48-1.16.24-2.4-.65-3.29L55.2 149.42c-.59-.59-1.36-.88-2.13-.88z" id="path2580"/><path style="fill:none;stroke:#357d8a;stroke-width:4px;stroke-linecap:round" d="m11.48 170.45 6.33-30.68" id="path2582"/><path class="cls-3" d="M15.47 132.62c-.03.07-.06.13-.08.19-.02.06-.05.12-.07.18-.04.1-.08.2-.11.3 0 .03-.02.05-.03.08-.35 1-.53 2.07-.53 3.19s.19 2.19.53 3.19c0 .03.02.05.03.08.04.1.07.2.11.3.02.06.05.12.07.18.03.07.05.13.08.19.04.09.08.18.13.28.01.03.03.06.04.09.46.95 1.08 1.84 1.87 2.62.79.79 1.67 1.41 2.62 1.87.03.01.06.03.09.04.09.04.18.09.28.13.06.03.13.06.19.08.06.02.12.05.18.07.1.04.2.08.3.11.03 0 .05.02.08.02 1 .35 2.07.54 3.19.54s2.19-.19 3.19-.54c.03 0 .05-.02.08-.02.1-.04.2-.07.3-.11.06-.02.12-.05.18-.07.07-.03.13-.06.19-.08.09-.04.18-.08.28-.13.03-.01.06-.03.09-.04a9.68 9.68 0 0 0 2.62-1.87c.79-.79 1.41-1.67 1.87-2.62.02-.03.03-.06.04-.09.04-.09.09-.18.13-.28.03-.07.06-.13.08-.19.02-.06.05-.12.07-.18.04-.1.08-.2.11-.3 0-.02.02-.05.02-.08.35-1 .54-2.07.54-3.19s-.19-2.19-.54-3.19c0-.03-.02-.05-.02-.08-.04-.1-.07-.2-.11-.3-.02-.06-.04-.12-.07-.18-.03-.07-.06-.13-.08-.19-.04-.09-.08-.18-.13-.28-.02-.03-.03-.06-.04-.09a9.469 9.469 0 0 0-1.87-2.62 9.664 9.664 0 0 0-2.63-1.87c-.03-.01-.06-.03-.09-.04-.09-.04-.19-.09-.28-.13-.06-.03-.12-.05-.19-.08-.06-.02-.12-.05-.19-.07-.1-.04-.2-.08-.29-.11-.03 0-.05-.02-.08-.03-1-.35-2.07-.53-3.19-.53s-2.19.19-3.19.53l-.08.03c-.1.04-.2.07-.3.11-.06.02-.12.05-.18.07l-.19.08c-.09.04-.19.08-.28.13-.03.01-.06.03-.09.04-.95.46-1.84 1.08-2.62 1.87-.79.79-1.41 1.67-1.87 2.62-.01.03-.03.06-.04.09-.04.09-.09.18-.13.28" id="path2584"/><path class="cls-11" d="M77.1 99.58c1.25-3.11 1.94-6.5 1.94-10.06 0-2.95-.48-5.79-1.36-8.46H26.35c-.88 2.66-1.36 5.5-1.36 8.46 0 3.56.69 6.95 1.94 10.06h50.16zm-45.91 5.05c2.81 4.49 7.2 8.02 12.69 9.6 5.49 1.58 11.08.93 15.85-1.39z" id="path2586"/><path class="cls-10" d="M35.48 96.74a6.31 6.31 0 0 0 6.31-6.31c0-3.49-2.82-6.31-6.31-6.31-3.49 0-6.31 2.82-6.31 6.31 0 3.49 2.82 6.31 6.31 6.31" id="path2588"/><path class="cls-11" d="M34.11 95.6c1.47 0 2.66-1.19 2.66-2.66 0-1.47-1.19-2.66-2.66-2.66-1.47 0-2.66 1.19-2.66 2.66 0 1.47 1.19 2.66 2.66 2.66" id="path2590"/><path class="cls-10" d="M68.56 96.74a6.31 6.31 0 0 0 6.31-6.31c0-3.49-2.82-6.31-6.31-6.31-3.49 0-6.31 2.82-6.31 6.31 0 3.49 2.82 6.31 6.31 6.31" id="path2592"/><path class="cls-11" d="M67.19 95.6c1.47 0 2.66-1.19 2.66-2.66 0-1.47-1.19-2.66-2.66-2.66-1.47 0-2.66 1.19-2.66 2.66 0 1.47 1.19 2.66 2.66 2.66" id="path2594"/><path class="cls-11" transform="rotate(4.01 35.418 96.714)" d="M27.28 95.08h16.29v3.33H27.28Z" id="path2596"/><path class="cls-11" transform="rotate(-4.01 69.83 96.681)" d="M61.65 95.08h16.29v3.33H61.65Z" id="path2598"/></g><path style="fill:#fff" d="m4.2 127.973-1.71 52.1h40.92l-.68-52.25z" id="path2602"/><path d="M35.01 144.003H10.84c-1.04 0-1.85-.81-1.85-1.85s.81-1.85 1.85-1.85h24.17c1.03 0 1.85.81 1.85 1.85s-.81 1.85-1.85 1.85m0 9.61H10.84c-1.04 0-1.85-.81-1.85-1.85s.81-1.85 1.85-1.85h24.17c1.03 0 1.85.81 1.85 1.85s-.81 1.85-1.85 1.85m0 9.61H10.84c-1.04 0-1.85-.81-1.85-1.85s.81-1.85 1.85-1.85h24.17c1.03 0 1.85.81 1.85 1.85s-.81 1.85-1.85 1.85" id="path2604"/><path d="M8.03 128.803c-1.85 0-3.33 1.43-3.33 3.22v43.12c0 1.79 1.48 3.22 3.33 3.22h30.46c1.85 0 3.33-1.43 3.33-3.22v-43.12c0-1.79-1.48-3.22-3.33-3.22zm30.53 53.13H8.03c-3.84 0-7.02-3.07-7.02-6.79v-43.12c0-3.72 3.18-6.79 7.02-6.79h30.46c3.84 0 7.02 3.07 7.02 6.79v43.12c.07 3.79-3.1 6.79-6.95 6.79" id="path2606"/><path class="cls-2" d="M76.4 175.973c-2.32-4.2-7.61-5.73-11.81-3.41l-7.61 4.2 8.4 15.22 7.61-4.2c4.2-2.32 5.73-7.61 3.41-11.81z" id="path2608"/><rect class="cls-2" x="-187.023" y="-54.597" width="4.85" height="17.22" rx="2.43" ry="2.43" transform="rotate(-118.9)" id="rect2610"/><rect class="cls-2" x="-193.335" y="-44.409" width="4.85" height="7.02" rx="2.43" ry="2.43" transform="rotate(-118.9)" id="rect2612"/><rect class="cls-2" x="-199.66" y="-44.4" width="4.85" height="7.02" rx="2.43" ry="2.43" transform="rotate(-118.9)" id="rect2614"/></svg>