<svg version="1.1" viewBox="0 0 123.12 179.904" xmlns="http://www.w3.org/2000/svg"><defs id="defs657"><clipPath id="clippath"><path class="cls-6" d="m104.21 115.46.06-111.76H0v111.7c0 27.99 23.34 50.67 52.14 50.67s52.14-22.69 52.14-50.67l-.06.06z" id="path646"/></clipPath><clipPath id="clippath-1"><path class="cls-6" d="M16.1 89.74c0 20.14 16.33 36.47 36.47 36.47s36.47-16.33 36.47-36.47-16.33-36.48-36.47-36.48S16.1 69.59 16.1 89.74" id="path649"/></clipPath><clipPath id="clippath-2"><path class="cls-6" d="M52.14 125.62h41.28v96.4H52.14Z" id="path652"/></clipPath><style id="style655">.cls-1{fill:#fff}.cls-2{fill:#67c1be}.cls-3{fill:#0a9ea0}.cls-6{fill:none}.cls-9{fill:#d0d65c}.cls-10{fill:#1d1d1b}</style></defs><path class="cls-9" d="M52.14 166.074c28.79 0 52.14-23.34 52.14-52.14s-23.34-52.14-52.14-52.14S0 85.144 0 113.944c0 28.8 23.34 52.14 52.14 52.14" id="path659"/><path class="cls-3" d="M114.38 139.044H83.05c-1.1 0-2-.9-2-2s.9-2 2-2h31.33c1.1 0 2 .9 2 2s-.9 2-2 2z" id="path661"/><path class="cls-3" d="M114.38 139.044c-1.1 0-2-.9-2-2v-28.27c0-1.1.9-2 2-2s2 .9 2 2v28.27c0 1.1-.9 2-2 2z" id="path663"/><path class="cls-2" d="M110.38 138.794s-.02-.06-.04-.09c-.01-.03-.02-.05-.03-.08-.02-.04-.03-.09-.05-.13 0-.01 0-.02-.01-.04-.15-.45-.24-.92-.24-1.42 0-.5.08-.97.24-1.42 0-.01 0-.02.01-.03.02-.05.03-.09.05-.13.01-.03.02-.05.03-.08.01-.03.02-.06.04-.09l.06-.12c0-.01.01-.03.02-.04.21-.42.48-.82.83-1.17s.75-.63 1.17-.83c.01 0 .03-.01.04-.02l.12-.06c.03-.01.06-.02.09-.04.03-.01.05-.02.08-.03.04-.02.09-.03.13-.05.01 0 .02 0 .04-.01.44-.15.92-.24 1.42-.24.5 0 .97.08 1.42.24.01 0 .02 0 .03.01.04.02.09.03.13.05.03.01.05.02.08.03.03.01.06.02.09.04l.12.06c.01 0 .03.01.04.02.42.21.82.48 1.17.83s.63.75.83 1.17c0 .01.01.03.02.04l.06.12c.01.03.02.06.04.09.01.03.02.05.03.08.02.04.03.09.05.13 0 .01 0 .02.01.03.15.45.24.92.24 1.42 0 .5-.08.98-.24 1.42 0 .01 0 .02-.01.04-.02.04-.03.09-.05.13-.01.03-.02.05-.03.08-.01.03-.02.06-.04.09l-.06.12c0 .01-.01.03-.02.04-.21.42-.48.82-.83 1.17s-.75.63-1.17.83c-.01 0-.03.01-.04.02-.04.02-.08.04-.13.06-.03.01-.06.02-.08.04-.03.01-.06.02-.08.03-.04.02-.09.03-.13.05-.01 0-.02 0-.04.01-.44.15-.92.24-1.42.24-.5 0-.97-.08-1.42-.24h-.04s-.09-.04-.13-.06a.689.689 0 0 1-.08-.03l-.08-.04-.12-.06c-.01 0-.03-.01-.04-.02-.42-.21-.82-.48-1.17-.83s-.63-.75-.83-1.17c0-.01-.01-.03-.02-.04l-.06-.12" id="path665"/><g clip-path="url(#clippath)" id="g705" transform="translate(-.07 .004)"><path class="cls-3" d="M43.8 101.34h17.09c3.61 0 6.53 2.93 6.53 6.53v48.55c0 3.61-2.93 6.53-6.53 6.53H43.8c-3.61 0-6.53-2.93-6.53-6.53v-48.54c0-3.61 2.93-6.53 6.53-6.53z" id="path667"/><path class="cls-3" transform="rotate(-30 33.088 56.846)" d="M30.7 49.68h4.77v14.31H30.7Z" id="path669"/><path class="cls-3" transform="rotate(-60 71.143 56.836)" d="M63.99 54.45H78.3v4.77H63.99Z" id="path671"/><path class="cls-2" d="M52.57 126.21c20.14 0 36.47-16.33 36.47-36.47S72.71 53.27 52.57 53.27 16.1 69.6 16.1 89.74s16.33 36.47 36.47 36.47" id="path673"/><path class="cls-3" d="M52.07 50.78h46.75v79H52.07Z" clip-path="url(#clippath-1)" id="path675"/><path class="cls-10" d="M77.82 99.96c1.25-3.11 1.94-6.5 1.94-10.06 0-2.95-.48-5.79-1.36-8.46H27.07c-.88 2.66-1.36 5.5-1.36 8.46 0 3.56.69 6.95 1.94 10.06h50.16ZM50.9 74.33c1.24 0 2.24-1 2.24-2.24 0-1.24-1-2.24-2.24-2.24-1.24 0-2.24 1-2.24 2.24 0 1.24 1 2.24 2.24 2.24m-12.84 0c1.24 0 2.24-1 2.24-2.24 0-1.24-1-2.24-2.24-2.24-1.24 0-2.24 1-2.24 2.24 0 1.24 1 2.24 2.24 2.24m6.42 0c1.24 0 2.24-1 2.24-2.24 0-1.24-1-2.24-2.24-2.24-1.24 0-2.24 1-2.24 2.24 0 1.24 1 2.24 2.24 2.24m12.84 0c1.24 0 2.24-1 2.24-2.24 0-1.24-1-2.24-2.24-2.24-1.24 0-2.24 1-2.24 2.24 0 1.24 1 2.24 2.24 2.24m6.41 0c1.24 0 2.24-1 2.24-2.24 0-1.24-1-2.24-2.24-2.24-1.24 0-2.24 1-2.24 2.24 0 1.24 1 2.24 2.24 2.24" id="path677"/><path class="cls-3" d="M83.55 123.37c-2.16 0-4.28-.57-6.2-1.67a12.329 12.329 0 0 1-5.79-7.55c-.86-3.21-.42-6.56 1.24-9.44s4.34-4.93 7.55-5.79c3.21-.86 6.56-.42 9.44 1.24 5.94 3.43 7.98 11.05 4.55 16.99a12.329 12.329 0 0 1-7.55 5.79c-1.07.29-2.16.43-3.24.43zm.03-20.88c-.73 0-1.47.1-2.2.29-2.18.58-4 1.98-5.12 3.93a8.329 8.329 0 0 0-.84 6.4c.58 2.18 1.98 4 3.93 5.12a8.329 8.329 0 0 0 6.4.84c2.18-.58 4-1.98 5.12-3.93 2.33-4.03.94-9.2-3.09-11.52a8.377 8.377 0 0 0-4.2-1.13z" id="path679"/><path class="cls-2" d="M20.55 123.37c-2.16 0-4.28-.57-6.2-1.67a12.329 12.329 0 0 1-5.79-7.55c-.86-3.21-.42-6.56 1.24-9.44s4.34-4.93 7.55-5.79c3.21-.86 6.56-.42 9.44 1.24 5.94 3.43 7.98 11.05 4.55 16.99a12.329 12.329 0 0 1-7.55 5.79c-1.07.29-2.16.43-3.24.43zm.03-20.88c-.73 0-1.47.1-2.2.29-2.18.58-4 1.98-5.12 3.93a8.329 8.329 0 0 0-.84 6.4c.58 2.18 1.98 4 3.93 5.12a8.329 8.329 0 0 0 6.4.84c2.18-.58 4-1.98 5.12-3.93a8.329 8.329 0 0 0 .84-6.4c-.58-2.18-1.98-4-3.93-5.12a8.377 8.377 0 0 0-4.2-1.13zm11.6 27.37c-5.12 0-9.32 5.12-9.73 11.62-.04.69-.09 1.38-.21 2.06L11.8 203.17c-.41 2.36-.35 4.8.39 7.08 1.48 4.55 4.95 7.74 8.99 7.74h62.47c4.04 0 7.51-3.19 8.99-7.73.74-2.28.8-4.73.39-7.09l-10.47-59.63c-.12-.68-.17-1.37-.21-2.06-.41-6.51-4.61-11.62-9.73-11.62z" id="path681"/><path class="cls-3" d="M32.18 129.86c-5.39 0-9.76 5.67-9.76 12.66l-11 62.81c0 6.99 4.37 12.66 9.76 12.66h62.47c5.39 0 9.76-5.67 9.76-12.66l-10.75-62.81c-.09-7.96-4.65-12.66-10.04-12.66z" clip-path="url(#clippath-2)" id="path683"/><path class="cls-3" d="M70.79 132.93c-.03.07-.06.13-.08.19-.02.06-.05.12-.07.18-.04.1-.08.2-.11.3 0 .03-.02.05-.03.08-.35 1-.53 2.07-.53 3.19s.19 2.19.53 3.19c0 .03.02.05.03.08.04.1.07.2.11.3.02.06.05.12.07.18.03.07.05.13.08.19.04.09.08.18.13.28.01.03.03.06.04.09.46.95 1.08 1.84 1.87 2.62.79.79 1.67 1.41 2.62 1.87.03.01.06.03.09.04.09.04.18.09.28.13.06.03.13.06.19.08.06.02.12.05.18.07.1.04.2.08.3.11.03 0 .05.02.08.02 1 .35 2.07.54 3.19.54s2.19-.19 3.19-.54c.03 0 .05-.02.08-.02.1-.04.2-.07.3-.11.06-.02.12-.05.18-.07.07-.03.13-.06.19-.08.09-.04.18-.08.28-.13.03-.01.06-.03.09-.04a9.68 9.68 0 0 0 2.62-1.87c.79-.79 1.41-1.67 1.87-2.62.02-.03.03-.06.04-.09.04-.09.09-.18.13-.28.03-.07.06-.13.08-.19.02-.06.05-.12.07-.18.04-.1.08-.2.11-.3 0-.02.02-.05.02-.08.35-1 .54-2.07.54-3.19s-.19-2.19-.54-3.19c0-.03-.02-.05-.02-.08-.04-.1-.07-.2-.11-.3-.02-.06-.04-.12-.07-.18-.03-.07-.06-.13-.08-.19-.04-.09-.08-.18-.13-.28-.02-.03-.03-.06-.04-.09a9.469 9.469 0 0 0-1.87-2.62 9.664 9.664 0 0 0-2.63-1.87c-.03-.01-.06-.03-.09-.04-.09-.04-.19-.09-.28-.13-.06-.03-.12-.05-.19-.08-.06-.02-.12-.05-.19-.07-.1-.04-.2-.08-.29-.11-.03 0-.05-.02-.08-.03-1-.35-2.07-.53-3.19-.53s-2.19.19-3.19.53l-.08.03c-.1.04-.2.07-.3.11-.06.02-.12.05-.18.07l-.19.08c-.09.04-.19.08-.28.13-.03.01-.06.03-.09.04-.95.46-1.84 1.08-2.62 1.87-.79.79-1.41 1.67-1.87 2.62-.01.03-.03.06-.04.09-.04.09-.09.18-.13.28" id="path685"/><path class="cls-2" d="m38.72 159.91 11.23-11.23a4.527 4.527 0 0 1 6.39 0l11.23 11.23c2.85 2.85.83 7.71-3.2 7.71H41.92c-4.03 0-6.04-4.87-3.2-7.71z" id="path687"/><path class="cls-3" d="M64.37 169.12H41.92c-2.48 0-4.61-1.42-5.56-3.72-.95-2.29-.45-4.8 1.31-6.56l11.23-11.23a6.017 6.017 0 0 1 8.51 0l11.23 11.23c1.75 1.75 2.25 4.27 1.3 6.56s-3.08 3.72-5.56 3.72zm-11.23-20.26c-.77 0-1.55.29-2.13.88l-11.23 11.23c-.89.89-1.14 2.12-.65 3.29.48 1.17 1.53 1.86 2.79 1.86h22.45c1.26 0 2.31-.7 2.79-1.86.48-1.17.24-2.4-.65-3.29l-11.23-11.23c-.59-.59-1.36-.88-2.13-.88z" id="path689"/><path class="cls-9" d="M35.87 97.25a6.31 6.31 0 0 0 6.31-6.31c0-3.49-2.82-6.31-6.31-6.31-3.49 0-6.31 2.82-6.31 6.31 0 3.49 2.82 6.31 6.31 6.31" id="path691"/><path class="cls-10" d="M34.87 95.6c1.47 0 2.66-1.19 2.66-2.66 0-1.47-1.19-2.66-2.66-2.66-1.47 0-2.66 1.19-2.66 2.66 0 1.47 1.19 2.66 2.66 2.66" id="path693"/><path class="cls-9" d="M68.95 97.25a6.31 6.31 0 0 0 6.31-6.31c0-3.49-2.82-6.31-6.31-6.31-3.49 0-6.31 2.82-6.31 6.31 0 3.49 2.82 6.31 6.31 6.31" id="path695"/><path class="cls-10" d="M67.95 95.6c1.47 0 2.66-1.19 2.66-2.66 0-1.47-1.19-2.66-2.66-2.66-1.47 0-2.66 1.19-2.66 2.66 0 1.47 1.19 2.66 2.66 2.66" id="path697"/><path style="fill:none;stroke:#357d8a;stroke-width:4px;stroke-linecap:round" d="m11.55 170.76 6.33-30.68" id="path699"/><path class="cls-2" d="M15.54 132.93c-.03.07-.06.13-.08.19-.02.06-.05.12-.07.18-.04.1-.08.2-.11.3 0 .03-.02.05-.03.08-.35 1-.53 2.07-.53 3.19s.19 2.19.53 3.19c0 .03.02.05.03.08.04.1.07.2.11.3.02.06.05.12.07.18.03.07.05.13.08.19.04.09.08.18.13.28.01.03.03.06.04.09.46.95 1.08 1.84 1.87 2.62.79.79 1.67 1.41 2.62 1.87.03.01.06.03.09.04.09.04.18.09.28.13.06.03.13.06.19.08.06.02.12.05.18.07.1.04.2.08.3.11.03 0 .05.02.08.02 1 .35 2.07.54 3.19.54s2.19-.19 3.19-.54c.03 0 .05-.02.08-.02.1-.04.2-.07.3-.11.06-.02.12-.05.18-.07.07-.03.13-.06.19-.08.09-.04.18-.08.28-.13.03-.01.06-.03.09-.04a9.68 9.68 0 0 0 2.62-1.87c.79-.79 1.41-1.67 1.87-2.62.02-.03.03-.06.04-.09.04-.09.09-.18.13-.28.03-.07.06-.13.08-.19.02-.06.05-.12.07-.18.04-.1.08-.2.11-.3 0-.02.02-.05.02-.08.35-1 .54-2.07.54-3.19s-.19-2.19-.54-3.19c0-.03-.02-.05-.02-.08-.04-.1-.07-.2-.11-.3-.02-.06-.04-.12-.07-.18-.03-.07-.06-.13-.08-.19-.04-.09-.08-.18-.13-.28-.02-.03-.03-.06-.04-.09a9.469 9.469 0 0 0-1.87-2.62 9.664 9.664 0 0 0-2.63-1.87c-.03-.01-.06-.03-.09-.04-.09-.04-.19-.09-.28-.13-.06-.03-.12-.05-.19-.08-.06-.02-.12-.05-.19-.07-.1-.04-.2-.08-.29-.11-.03 0-.05-.02-.08-.03-1-.35-2.07-.53-3.19-.53s-2.19.19-3.19.53l-.08.03c-.1.04-.2.07-.3.11-.06.02-.12.05-.18.07l-.19.08c-.09.04-.19.08-.28.13-.03.01-.06.03-.09.04-.95.46-1.84 1.08-2.62 1.87-.79.79-1.41 1.67-1.87 2.62-.01.03-.03.06-.04.09-.04.09-.09.18-.13.28" id="path701"/><path class="cls-10" d="M52.74 115.97c3.27 0 5.84-2.99 5.13-6.38-.41-1.98-2.02-3.59-4-4a5.246 5.246 0 0 0-6.37 5.13c0 2.9 2.35 5.25 5.25 5.25" id="path703"/></g><path class="cls-2" d="M123.12 101.624v-8.69h-17.38v8.69c0 4.8 3.89 8.69 8.69 8.69 4.8 0 8.69-3.89 8.69-8.69v-.01z" id="path707"/><rect class="cls-2" x="-110.48" y="-91.104" width="4.85" height="17.22" rx="2.43" ry="2.43" transform="scale(-1)" id="rect709"/><rect class="cls-2" x="-116.8" y="-91.104" width="4.85" height="7.02" rx="2.43" ry="2.43" transform="scale(-1)" id="rect711"/><rect class="cls-2" x="-123.12" y="-91.104" width="4.85" height="7.02" rx="2.43" ry="2.43" transform="scale(-1)" id="rect713"/><path class="cls-1" d="M23.28 135.024v-15.22H5.2v15.22l3.38 21.42H19.9Z" id="path715"/><path d="M21.4 158.194H7.08l-3.63-23.17v-16.97h21.58l-.02 17.24zm-11.32-3.5h8.33l3.13-19.81v-13.33H6.95v13.33zm13.21-19.67z" id="path717"/><g id="g723" transform="translate(-.07 .004)"><circle class="cls-1" cx="14.56" cy="170.35" r="7.81" id="circle719"/><path class="cls-10" d="M14.56 179.9c-5.27 0-9.55-4.29-9.55-9.55 0-5.26 4.29-9.55 9.55-9.55 5.26 0 9.56 4.29 9.56 9.55 0 5.26-4.29 9.55-9.56 9.55zm0-15.62c-3.34 0-6.07 2.72-6.07 6.07s2.72 6.07 6.07 6.07 6.07-2.72 6.07-6.07-2.72-6.07-6.07-6.07z" id="path721"/></g><path class="cls-2" d="M78.64 42.534c-2.69-1.55-6-.99-8.05 1.16l-9.72-6.55c.32-.95.48-1.94.49-2.94a9.635 9.635 0 0 0-7.59-9.52v-11.81a6.534 6.534 0 0 0 3.78-3c1.82-3.15.74-7.17-2.41-8.99a6.577 6.577 0 0 0-8.99 2.41c-1.82 3.15-.74 7.18 2.41 8.99.58.34 1.19.57 1.81.71v11.55a9.58 9.58 0 0 0-5.42 2.66c-2.62 2.57-3.51 6.38-2.39 9.83l-8.4 5.67-1.68.95c-2.05-2.12-5.35-2.67-8.02-1.12a6.577 6.577 0 0 0-2.41 8.99 6.577 6.577 0 0 0 8.99 2.41 6.567 6.567 0 0 0 3.13-7.14l9.96-6.72a9.62 9.62 0 0 0 7.48 3.69c2.96.02 5.77-1.32 7.62-3.63l9.72 6.55c-.67 2.76.52 5.75 3.11 7.24 3.15 1.82 7.17.74 8.99-2.41 1.82-3.15.74-7.17-2.41-8.99z" id="path725"/></svg>