<svg version="1.1" viewBox="0 0 179.313 228.804" xmlns="http://www.w3.org/2000/svg"><defs><clipPath clipPathUnits="userSpaceOnUse" id="a"><path d="m1042.14 520.777.55 948.193H0V521.363C0 233.422 233.422 0 521.359 0c287.942 0 521.361 233.422 521.361 521.363Z"/></clipPath><clipPath clipPathUnits="userSpaceOnUse" id="b"><path d="m1042.14 520.777.55 948.193H0V521.363C0 233.422 233.422 0 521.359 0c287.942 0 521.361 233.422 521.361 521.363Z"/></clipPath><clipPath clipPathUnits="userSpaceOnUse" id="c"><path d="M341.215 1150.89c-48.719 0-88.231-39.5-88.231-88.23l-99.418-437.758c0-48.726 39.508-88.226 88.239-88.226h564.711c48.742 0 88.242 39.5 88.242 88.226l-99.684 437.758c0 48.73-39.5 88.23-88.226 88.23z"/></clipPath><clipPath clipPathUnits="userSpaceOnUse" id="d"><path d="m1042.14 520.777.55 948.193H0V521.363C0 233.422 233.422 0 521.359 0c287.942 0 521.361 233.422 521.361 521.363Z"/></clipPath><clipPath clipPathUnits="userSpaceOnUse" id="e"><path d="m1042.14 520.777.55 948.193H0V521.363C0 233.422 233.422 0 521.359 0c287.942 0 521.361 233.422 521.361 521.363Z"/></clipPath><clipPath clipPathUnits="userSpaceOnUse" id="f"><path d="M934.137-488.07H521.359v963.957h412.778z"/></clipPath><clipPath clipPathUnits="userSpaceOnUse" id="p"><path d="m114.639 52.513.055 94.82H10.425V52.572C10.425 23.778 33.767.436 62.561.436c28.794 0 52.136 23.342 52.136 52.136z" style="stroke-width:.1"/></clipPath><clipPath clipPathUnits="userSpaceOnUse" id="o"><path d="m114.639 52.513.055 94.82H10.425V52.572C10.425 23.778 33.767.436 62.561.436c28.794 0 52.136 23.342 52.136 52.136z" style="stroke-width:.1"/></clipPath><clipPath clipPathUnits="userSpaceOnUse" id="n"><path d="m114.639 52.513.055 94.82H10.425V52.572C10.425 23.778 33.767.436 62.561.436c28.794 0 52.136 23.342 52.136 52.136z" style="stroke-width:.1"/></clipPath><clipPath clipPathUnits="userSpaceOnUse" id="m"><path d="m114.639 52.513.055 94.82H10.425V52.572C10.425 23.778 33.767.436 62.561.436c28.794 0 52.136 23.342 52.136 52.136z" style="stroke-width:.1"/></clipPath><clipPath clipPathUnits="userSpaceOnUse" id="l"><path d="m114.639 52.513.055 94.82H10.425V52.572C10.425 23.778 33.767.436 62.561.436c28.794 0 52.136 23.342 52.136 52.136z" style="stroke-width:.1"/></clipPath><clipPath clipPathUnits="userSpaceOnUse" id="k"><path d="m114.639 52.513.055 94.82H10.425V52.572C10.425 23.778 33.767.436 62.561.436c28.794 0 52.136 23.342 52.136 52.136z" style="stroke-width:.1"/></clipPath><clipPath clipPathUnits="userSpaceOnUse" id="j"><path d="m114.639 52.513.055 94.82H10.425V52.572C10.425 23.778 33.767.436 62.561.436c28.794 0 52.136 23.342 52.136 52.136z" style="stroke-width:.1"/></clipPath><clipPath clipPathUnits="userSpaceOnUse" id="i"><path d="m114.639 52.513.055 94.82H10.425V52.572C10.425 23.778 33.767.436 62.561.436c28.794 0 52.136 23.342 52.136 52.136z" style="stroke-width:.1"/></clipPath><clipPath clipPathUnits="userSpaceOnUse" id="h"><path d="m114.639 52.513.055 94.82H10.425V52.572C10.425 23.778 33.767.436 62.561.436c28.794 0 52.136 23.342 52.136 52.136z" style="stroke-width:.1"/></clipPath><clipPath clipPathUnits="userSpaceOnUse" id="g"><path d="m114.639 52.513.055 94.82H10.425V52.572C10.425 23.778 33.767.436 62.561.436c28.794 0 52.136 23.342 52.136 52.136z" style="stroke-width:.1"/></clipPath></defs><g clip-path="url(#a)" transform="matrix(.13333 0 0 -.133 13.7 194.894)"><path d="M519.949 0c287.938 0 521.361 233.422 521.361 521.363 0 287.938-233.423 521.357-521.361 521.357-287.941 0-521.363-233.419-521.363-521.357C-1.414 233.422 232.008 0 519.949 0" style="fill:#23577d;fill-opacity:1;fill-rule:nonzero;stroke:none"/><path d="M389.141 720.836V235.391c0-36.082 29.25-65.332 65.332-65.332h170.91c36.078 0 65.328 29.25 65.328 65.332v485.445M186.125 972.223c-28.742 0-52.031-31.602-52.031-70.59v-70.594c0-38.976 23.289-70.59 52.031-70.59h682.617c28.742 0 52.043 31.614 52.043 70.59v70.594c0 38.988-23.301 70.59-52.043 70.59H186.125" style="fill:#0a9ea0;fill-opacity:1;fill-rule:nonzero;stroke:none"/><path d="M341.223 1150.9c-48.731 0-88.243-39.5-88.243-88.24l-99.41-437.754c0-48.726 39.5-88.238 88.231-88.238H806.52c48.73 0 88.23 39.512 88.23 88.238l-99.668 437.754c0 48.74-39.5 88.24-88.242 88.24H341.223M321.777 433.52c-53.91 0-97.617-56.68-97.617-126.61L114.184-321.211c0-69.918 43.699-126.609 97.609-126.609h624.738c53.907 0 97.606 56.691 97.606 126.609L823.875 306.91c0 69.93-43.699 126.61-97.617 126.61H321.777" style="fill:#67c1be;fill-opacity:1;fill-rule:nonzero;stroke:none"/></g><g clip-path="url(#b)" transform="matrix(.13333 0 0 -.13333 13.7 195.286)"><g clip-path="url(#c)"><path d="M524.406 325.238h500.224v845.282H524.406V325.238" style="fill:#0a9ea0;fill-opacity:1;fill-rule:nonzero;stroke:none"/></g></g><g clip-path="url(#d)" transform="matrix(.13333 0 0 -.13333 13.5 194.785)"><path d="M530.395 735.828c69.589 0 126 56.41 126 125.992 0 69.59-56.411 126-126 126-69.59 0-126-56.41-126-126 0-69.582 56.41-125.992 126-125.992" style="fill:#f2ba38;fill-opacity:1;fill-rule:nonzero;stroke:none"/><path d="M281.555 743.957c2.976 14-5.961 27.77-19.961 30.738-14 2.981-27.77-5.961-30.75-19.961-2.973-14 5.969-27.769 19.969-30.738 14-2.98 27.761 5.961 30.742 19.961M296.98 816.535c2.981 14-5.957 27.77-19.957 30.738-14.011 2.981-27.769-5.96-30.75-19.96-2.972-14 5.969-27.77 19.969-30.739 14-2.98 27.762 5.961 30.738 19.961M312.406 889.113c2.981 14-5.957 27.77-19.957 30.739-14 2.98-27.769-5.961-30.75-19.961-2.972-14 5.969-27.77 19.969-30.739 14-2.98 27.762 5.961 30.738 19.961M751.871 743.953c-2.98 14 5.961 27.774 19.969 30.742 14 2.981 27.762-5.961 30.742-19.961 2.969-14-5.973-27.769-19.973-30.738-14-2.98-27.757 5.957-30.738 19.957M736.441 816.535c-2.976 14 5.961 27.77 19.961 30.738 14 2.981 27.77-5.96 30.75-19.96 2.969-14-5.968-27.77-19.968-30.739-14-2.98-27.762 5.961-30.743 19.961M721.016 889.109c-2.981 14 5.961 27.774 19.968 30.743 14 2.98 27.762-5.961 30.743-19.961 2.968-14-5.969-27.77-19.969-30.739-14-2.98-27.762 5.957-30.742 19.957" style="fill:#fff;fill-opacity:1;fill-rule:nonzero;stroke:none"/></g><g clip-path="url(#e)" transform="matrix(.13333 0 0 -.13294 13.6 194.862)"><g clip-path="url(#f)"><path d="M321.777 433.52c-53.91 0-97.617-56.68-97.617-126.61L114.184-321.211c0-69.918 43.699-126.609 97.609-126.609h624.738c53.907 0 97.606 56.691 97.606 126.609L826.676 306.91c-.856 79.649-46.5 126.61-100.418 126.61H321.777" style="fill:#0a9ea0;fill-opacity:1;fill-rule:nonzero;stroke:none"/></g></g><path d="M21.614-2.241 28.1 28.406" style="fill:none;stroke:#0a9ea0;stroke-width:4;stroke-linecap:round;stroke-linejoin:miter;stroke-miterlimit:4;stroke-dasharray:none;stroke-opacity:1" clip-path="url(#g)" transform="matrix(1.33333 0 0 -1.33333 -.2 195.567)"/><path d="m97.988 28.406 6.486-30.647" style="fill:none;stroke:#0a9ea0;stroke-width:4;stroke-linecap:round;stroke-linejoin:miter;stroke-miterlimit:4;stroke-dasharray:none;stroke-opacity:1" clip-path="url(#h)" transform="matrix(1.33333 0 0 -1.33333 -.3 195.467)"/><path d="m26.527 39.762-1.938-7.964c-.757-3.108 2.048-6.023 5.797-6.023h21.563c3.269 0 5.919 2.243 5.919 5.012v7.963c0 2.768-2.65 5.012-5.92 5.012H32.326c-2.809 0-5.23-1.671-5.798-4" style="fill:#67c1be;fill-opacity:1;fill-rule:nonzero;stroke:none;stroke-width:.1" clip-path="url(#i)" transform="matrix(1.33333 0 0 -1.33333 -.2 195.566)"/><path d="m99.7 39.762 1.94-7.964c.756-3.108-2.048-6.023-5.797-6.023H74.279c-3.268 0-5.918 2.243-5.918 5.012v7.963c0 2.768 2.65 5.012 5.918 5.012h19.625c2.808 0 5.23-1.671 5.797-4" style="fill:#0a9ea0;fill-opacity:1;fill-rule:nonzero;stroke:none;stroke-width:.1" clip-path="url(#j)" transform="matrix(1.33333 0 0 -1.34849 -.2 196.257)"/><path d="M76.777 11.729c0-7.56-6.129-13.69-13.69-13.69-7.559 0-13.687 6.13-13.687 13.69 0 7.559 6.128 13.688 13.688 13.688 7.56 0 13.689-6.13 13.689-13.688" style="fill:#67c1be;fill-opacity:1;fill-rule:nonzero;stroke:none;stroke-width:.1" clip-path="url(#k)" transform="matrix(1.33333 0 0 -1.33333 -.2 195.467)"/><path d="M63.088 23.917c-6.72 0-12.188-5.468-12.188-12.19 0-6.72 5.468-12.186 12.188-12.186 6.72 0 12.188 5.467 12.188 12.187s-5.468 12.189-12.188 12.189zm0-27.376C54.713-3.46 47.9 3.354 47.9 11.728c0 8.375 6.813 15.189 15.188 15.189 8.374 0 15.188-6.814 15.188-15.19 0-8.373-6.814-15.186-15.188-15.186" style="fill:#0a9ea0;fill-opacity:1;fill-rule:nonzero;stroke:none;stroke-width:.1" clip-path="url(#l)" transform="matrix(1.33333 0 0 -1.33333 -.2 195.467)"/><path d="M63.31 81.795a5.246 5.246 0 0 1 5.245 5.246 5.246 5.246 0 1 1-10.492 0 5.246 5.246 0 0 1 5.246-5.246" style="fill:#171717;fill-opacity:1;fill-rule:nonzero;stroke:none;stroke-width:.1" clip-path="url(#m)" transform="matrix(1.33333 0 0 -1.33333 -.2 195.867)"/><path d="M71.172 66.933a7.999 7.999 0 1 0-15.998 0h15.998" style="fill:#171717;fill-opacity:1;fill-rule:nonzero;stroke:none;stroke-width:.1" clip-path="url(#n)" transform="matrix(1.33333 0 0 -1.33333 -.2 195.867)"/><path d="M52.323 79.386c2.798-4.052 7.17-6.665 12.095-6.665 4.925 0 9.296 2.613 12.094 6.665h-24.19" style="fill:#0a9ea0;fill-opacity:1;fill-rule:nonzero;stroke:none;stroke-width:.1" clip-path="url(#o)" transform="matrix(1.33333 0 0 -1.33333 -.2 195.867)"/><path d="M53.316 79.386c2.302-3.002 5.917-4.944 9.993-4.944 4.076 0 7.691 1.942 9.993 4.944H53.316" style="fill:#67c1be;fill-opacity:1;fill-rule:nonzero;stroke:none;stroke-width:.1" clip-path="url(#p)" transform="matrix(1.33333 0 0 -1.33333 -.2 195.867)"/><path d="m60.207 134.315-.064-18.773h5.618v12.646c-1.305 1.01-3.605 3.886-5.554 6.127" style="fill:#0a9ea0;fill-opacity:1;fill-rule:nonzero;stroke:none;stroke-width:.1" transform="matrix(1.33333 0 0 -1.33333 0 195.867)"/><path d="M83.275 130.222a10.69 10.69 0 0 1 1.795 6.015 10.63 10.63 0 0 1-.87 4.172 10.736 10.736 0 0 1-6.735 6.027 10.408 10.408 0 0 1-3.195.463 9.803 9.803 0 0 1-2.183-.26c-1.22-.285-2.433-.82-3.608-1.588-.88-.577-1.752-1.288-2.667-2.176-.674-.66-2.076-2.293-2.824-3.18.553-.675 1.092-1.354 1.62-2.02l.657-.827c.7.853 2.033 2.44 2.618 3.042.533.55 1.06 1.037 1.565 1.447.803.65 1.6 1.145 2.37 1.469.396.166.801.294 1.206.382.42.089.834.134 1.269.138.94-.011 1.901-.177 2.788-.544a7.153 7.153 0 0 0 3.169-2.575 7.143 7.143 0 0 0 1.248-3.994 7.173 7.173 0 0 0-.542-2.788 7.17 7.17 0 0 0-6.57-4.42 6.94 6.94 0 0 0-1.392.149 7.193 7.193 0 0 0-1.742.642c-.192.1-.383.207-.575.324-.562.342-1.142.772-1.723 1.28-.215.185-.43.382-.645.589a29.688 29.688 0 0 0-1.924 2.047 69.641 69.641 0 0 0-1.604 1.942l-1.036 1.303c-.85 1.075-1.73 2.185-2.647 3.244-.789.91-1.508 1.67-2.202 2.325a19.032 19.032 0 0 1-2.165 1.783c-.908.632-1.8 1.109-2.727 1.459a10 10 0 0 1-3.5.65l-.09-.001a10.647 10.647 0 0 1-4.174-.87 10.737 10.737 0 0 1-5.618-14.1 10.739 10.739 0 0 1 6.736-6.028 10.23 10.23 0 0 1 3.194-.462 9.928 9.928 0 0 1 2.183.259c1.223.287 2.437.822 3.609 1.589.88.577 1.752 1.289 2.665 2.176.67.654 2.094 2.197 2.848 3.089-.567.692-2.08 2.599-2.276 2.847a65.47 65.47 0 0 0-2.64-2.952 18.596 18.596 0 0 0-1.567-1.447c-.801-.651-1.599-1.145-2.37-1.47a6.615 6.615 0 0 0-1.208-.382 6.245 6.245 0 0 0-1.266-.138 6.966 6.966 0 0 0-2.79.545 7.135 7.135 0 0 0-3.168 2.575 7.148 7.148 0 0 0-.913 1.865 7.205 7.205 0 0 0 .207 4.918 7.17 7.17 0 0 0 6.57 4.417c.455.007.925-.045 1.391-.147.777-.173 1.536-.49 2.318-.967a12.605 12.605 0 0 0 1.723-1.281c.788-.684 1.628-1.547 2.568-2.636.855-.99 1.728-2.092 2.573-3.16l.089-.112c.843-1.065 1.715-2.167 2.625-3.217a32.27 32.27 0 0 1 2.2-2.326 19.442 19.442 0 0 1 1.809-1.526c1.028-.76 2.037-1.32 3.083-1.714l.208-.076a9.914 9.914 0 0 1 3.385-.575c1.448.009 2.852.302 4.173.87a10.753 10.753 0 0 1 4.694 3.917M64.255 137.395Z" style="fill:#67c1be;fill-opacity:1;fill-rule:nonzero;stroke:none;stroke-width:.1" transform="matrix(1.33333 0 0 -1.33333 0 195.867)"/></svg>