<svg version="1.1" viewBox="0 0 178 260.6" xmlns="http://www.w3.org/2000/svg">
  <defs>
    <clipPath clipPathUnits="userSpaceOnUse" id="a">
      <path d="m1042.14 644.461.55 1117.579H0V645.031c0-279.859 233.422-506.742 521.359-506.742 287.942 0 521.361 226.883 521.361 506.742z"/>
    </clipPath>
    <clipPath clipPathUnits="userSpaceOnUse" id="b">
      <path d="m1042.14 644.461.55 1117.579H0V645.031c0-279.859 233.422-506.742 521.359-506.742 287.942 0 521.361 226.883 521.361 506.742z"/>
    </clipPath>
    <clipPath clipPathUnits="userSpaceOnUse" id="c">
      <path d="M160.969 901.648c0-201.449 163.312-364.738 364.75-364.738 201.429 0 364.742 163.289 364.742 364.738 0 201.442-163.313 364.752-364.742 364.752-201.438 0-364.75-163.31-364.75-364.752"/>
    </clipPath>
    <clipPath clipPathUnits="userSpaceOnUse" id="m">
      <path d="m1042.14 644.461.55 1117.579H0V645.031c0-279.859 233.422-506.742 521.359-506.742 287.942 0 521.361 226.883 521.361 506.742z"/>
    </clipPath>
    <clipPath clipPathUnits="userSpaceOnUse" id="n">
      <path d="M934.137-421.141H521.359V542.82h412.778z"/>
    </clipPath>
    <clipPath clipPathUnits="userSpaceOnUse" id="l">
      <path d="m114.643 64.446.055 111.758H10.43v-111.7c0-27.987 23.342-50.675 52.136-50.675 28.794 0 52.136 22.688 52.136 50.674z" style="stroke-width:.1"/>
    </clipPath>
    <clipPath clipPathUnits="userSpaceOnUse" id="k">
      <path d="m114.643 64.446.055 111.758H10.43v-111.7c0-27.987 23.342-50.675 52.136-50.675 28.794 0 52.136 22.688 52.136 50.674z" style="stroke-width:.1"/>
    </clipPath>
    <clipPath clipPathUnits="userSpaceOnUse" id="j">
      <path d="m114.643 64.446.055 111.758H10.43v-111.7c0-27.987 23.342-50.675 52.136-50.675 28.794 0 52.136 22.688 52.136 50.674z" style="stroke-width:.1"/>
    </clipPath>
    <clipPath clipPathUnits="userSpaceOnUse" id="i">
      <path d="m114.643 64.446.055 111.758H10.43v-111.7c0-27.987 23.342-50.675 52.136-50.675 28.794 0 52.136 22.688 52.136 50.674z" style="stroke-width:.1"/>
    </clipPath>
    <clipPath clipPathUnits="userSpaceOnUse" id="h">
      <path d="m114.643 64.446.055 111.758H10.43v-111.7c0-27.987 23.342-50.675 52.136-50.675 28.794 0 52.136 22.688 52.136 50.674z" style="stroke-width:.1"/>
    </clipPath>
    <clipPath clipPathUnits="userSpaceOnUse" id="g">
      <path d="m114.643 64.446.055 111.758H10.43v-111.7c0-27.987 23.342-50.675 52.136-50.675 28.794 0 52.136 22.688 52.136 50.674z" style="stroke-width:.1"/>
    </clipPath>
    <clipPath clipPathUnits="userSpaceOnUse" id="f">
      <path d="m114.643 64.446.055 111.758H10.43v-111.7c0-27.987 23.342-50.675 52.136-50.675 28.794 0 52.136 22.688 52.136 50.674z" style="stroke-width:.1"/>
    </clipPath>
    <clipPath clipPathUnits="userSpaceOnUse" id="e">
      <path d="m114.643 64.446.055 111.758H10.43v-111.7c0-27.987 23.342-50.675 52.136-50.675 28.794 0 52.136 22.688 52.136 50.674z" style="stroke-width:.1"/>
    </clipPath>
    <clipPath clipPathUnits="userSpaceOnUse" id="d">
      <path d="m114.643 64.446.055 111.758H10.43v-111.7c0-27.987 23.342-50.675 52.136-50.675 28.794 0 52.136 22.688 52.136 50.674z" style="stroke-width:.1"/>
    </clipPath>
    <clipPath clipPathUnits="userSpaceOnUse" id="x">
      <path d="m114.643 64.446.055 111.758H10.43v-111.7c0-27.987 23.342-50.675 52.136-50.675 28.794 0 52.136 22.688 52.136 50.674z" style="stroke-width:.1"/>
    </clipPath>
    <clipPath clipPathUnits="userSpaceOnUse" id="w">
      <path d="m114.643 64.446.055 111.758H10.43v-111.7c0-27.987 23.342-50.675 52.136-50.675 28.794 0 52.136 22.688 52.136 50.674z" style="stroke-width:.1"/>
    </clipPath>
    <clipPath clipPathUnits="userSpaceOnUse" id="v">
      <path d="m114.643 64.446.055 111.758H10.43v-111.7c0-27.987 23.342-50.675 52.136-50.675 28.794 0 52.136 22.688 52.136 50.674z" style="stroke-width:.1"/>
    </clipPath>
    <clipPath clipPathUnits="userSpaceOnUse" id="u">
      <path d="m114.643 64.446.055 111.758H10.43v-111.7c0-27.987 23.342-50.675 52.136-50.675 28.794 0 52.136 22.688 52.136 50.674z" style="stroke-width:.1"/>
    </clipPath>
    <clipPath clipPathUnits="userSpaceOnUse" id="t">
      <path d="m114.643 64.446.055 111.758H10.43v-111.7c0-27.987 23.342-50.675 52.136-50.675 28.794 0 52.136 22.688 52.136 50.674z" style="stroke-width:.1"/>
    </clipPath>
    <clipPath clipPathUnits="userSpaceOnUse" id="s">
      <path d="m114.643 64.446.055 111.758H10.43v-111.7c0-27.987 23.342-50.675 52.136-50.675 28.794 0 52.136 22.688 52.136 50.674z" style="stroke-width:.1"/>
    </clipPath>
    <clipPath clipPathUnits="userSpaceOnUse" id="r">
      <path d="m114.643 64.446.055 111.758H10.43v-111.7c0-27.987 23.342-50.675 52.136-50.675 28.794 0 52.136 22.688 52.136 50.674z" style="stroke-width:.1"/>
    </clipPath>
    <clipPath clipPathUnits="userSpaceOnUse" id="q">
      <path d="m114.643 64.446.055 111.758H10.43v-111.7c0-27.987 23.342-50.675 52.136-50.675 28.794 0 52.136 22.688 52.136 50.674z" style="stroke-width:.1"/>
    </clipPath>
    <clipPath clipPathUnits="userSpaceOnUse" id="p">
      <path d="m114.643 64.446.055 111.758H10.43v-111.7c0-27.987 23.342-50.675 52.136-50.675 28.794 0 52.136 22.688 52.136 50.674z" style="stroke-width:.1"/>
    </clipPath>
    <clipPath clipPathUnits="userSpaceOnUse" id="o">
      <path d="m114.643 64.446.055 111.758H10.43v-111.7c0-27.987 23.342-50.675 52.136-50.675 28.794 0 52.136 22.688 52.136 50.674z" style="stroke-width:.1"/>
    </clipPath>
  </defs>
  <path d="M62.636 14.204c28.794 0 52.136 23.342 52.136 52.136 0 28.794-23.342 52.136-52.136 52.136-28.794 0-52.136-23.342-52.136-52.136 0-28.794 23.342-52.136 52.136-52.136" style="fill:#beda4e;fill-opacity:1;fill-rule:nonzero;stroke:none;stroke-width:.1" transform="matrix(1.33333 0 0 -1.33333 0 239.867)"/>
  <path d="M124.875 40.866H93.55a2 2 0 1 0 0 4h31.326a2 2 0 0 0 0-4" style="fill:#0a9ea0;fill-opacity:1;fill-rule:nonzero;stroke:none;stroke-width:.1" transform="matrix(1.33333 0 0 -1.33333 0 239.867)"/>
  <path d="M124.875 40.866a2 2 0 0 0-2 2v28.265a2 2 0 0 0 4 0V42.866a2 2 0 0 0-2-2" style="fill:#0a9ea0;fill-opacity:1;fill-rule:nonzero;stroke:none;stroke-width:.1" transform="matrix(1.33333 0 0 -1.33333 0 239.867)"/>
  <path d="M120.881 41.112a3.175 3.175 0 0 0-.037.086c-.01.026-.02.053-.032.08a5.072 5.072 0 0 0-.05.133l-.012.035a4.342 4.342 0 0 0 .062 3.009l.032.08.037.086c.018.041.036.082.056.123l.02.039a4.368 4.368 0 0 0 2.002 2.003l.04.02.122.055.086.037.08.032.133.05.035.011a4.339 4.339 0 0 0 2.841 0l.034-.01.134-.05.08-.033.086-.037.123-.056.04-.02a4.331 4.331 0 0 0 2.002-2.003c.006-.012.012-.025.02-.038a6.69 6.69 0 0 0 .055-.123l.037-.086a3.27 3.27 0 0 0 .031-.08c.018-.044.035-.089.051-.134l.011-.034a4.342 4.342 0 0 0 0-2.84l-.01-.036a2.983 2.983 0 0 0-.052-.133l-.03-.08-.038-.086a6.69 6.69 0 0 0-.056-.123l-.02-.04a4.345 4.345 0 0 0-2.003-2.002l-.038-.019c-.04-.02-.083-.038-.125-.057a3.567 3.567 0 0 0-.334-.13 4.332 4.332 0 0 0-2.838 0 4.499 4.499 0 0 0-.25.094l-.084.036-.125.057-.038.019a4.338 4.338 0 0 0-2.003 2.002l-.019.04c-.02.041-.038.082-.056.123" style="fill:#67c1be;fill-opacity:1;fill-rule:nonzero;stroke:none;stroke-width:.1" transform="matrix(1.33333 0 0 -1.33333 0 239.867)"/>
  <g clip-path="url(#a)" transform="matrix(.13333 0 0 -.13333 13.906 239.867)">
    <path d="M372.633 234.82c0-36.082 29.25-65.34 65.332-65.34h170.91c36.078 0 65.328 29.258 65.328 65.34v485.45c0 36.082-29.25 65.332-65.328 65.332h-170.91c-36.082 0-65.332-29.25-65.332-65.332V234.82M274.453 1280.7l71.563-123.94 41.308 23.85-71.558 123.94-41.313-23.85M767.898 1280.7l-71.558-123.94-41.309 23.85 71.559 123.94 41.308-23.85" style="fill:#0a9ea0;fill-opacity:1;fill-rule:nonzero;stroke:none"/>
    <path d="M525.715 536.91c201.441 0 364.738 163.301 364.738 364.738 0 201.442-163.297 364.742-364.738 364.742-201.442 0-364.738-163.3-364.738-364.742 0-201.437 163.296-364.738 364.738-364.738" style="fill:#67c1be;fill-opacity:1;fill-rule:nonzero;stroke:none"/>
  </g>
  <g clip-path="url(#b)" transform="matrix(.13333 0 0 -.13333 13.906 239.867)">
    <g clip-path="url(#c)">
      <path d="M520.738 501.289h467.5v789.981h-467.5V501.289" style="fill:#0a9ea0;fill-opacity:1;fill-rule:nonzero;stroke:none"/>
    </g>
  </g>
  <path d="M88.248 79.941a26.943 26.943 0 0 1 1.943 10.058c0 2.954-.481 5.795-1.357 8.456H37.5A26.987 26.987 0 0 1 36.143 90c0-3.556.694-6.948 1.942-10.058h50.163" style="fill:#171717;fill-opacity:1;fill-rule:nonzero;stroke:none;stroke-width:.1" clip-path="url(#d)" transform="matrix(1.33333 0 0 -1.33333 0 239.867)"/>
  <path d="M61.327 105.576a2.242 2.242 0 1 1 0 4.484 2.242 2.242 0 0 1 0-4.484" style="fill:#171717;fill-opacity:1;fill-rule:nonzero;stroke:none;stroke-width:.1" clip-path="url(#e)" transform="matrix(1.33333 0 0 -1.33333 0 239.867)"/>
  <path d="M48.49 105.576a2.242 2.242 0 1 1 0 4.484 2.242 2.242 0 0 1 0-4.484" style="fill:#171717;fill-opacity:1;fill-rule:nonzero;stroke:none;stroke-width:.1" clip-path="url(#f)" transform="matrix(1.33333 0 0 -1.33333 0 239.867)"/>
  <path d="M54.909 105.576a2.242 2.242 0 1 1-.001 4.484 2.242 2.242 0 0 1 0-4.484" style="fill:#171717;fill-opacity:1;fill-rule:nonzero;stroke:none;stroke-width:.1" clip-path="url(#g)" transform="matrix(1.33333 0 0 -1.33333 0 239.867)"/>
  <path d="M67.745 105.576a2.242 2.242 0 1 1 0 4.484 2.242 2.242 0 0 1 0-4.484" style="fill:#171717;fill-opacity:1;fill-rule:nonzero;stroke:none;stroke-width:.1" clip-path="url(#h)" transform="matrix(1.33333 0 0 -1.33333 0 239.867)"/>
  <path d="M74.164 105.576a2.243 2.243 0 1 1 0 4.485 2.243 2.243 0 0 1 0-4.485" style="fill:#171717;fill-opacity:1;fill-rule:nonzero;stroke:none;stroke-width:.1" clip-path="url(#i)" transform="matrix(1.33333 0 0 -1.33333 0 239.867)"/>
  <path d="M94.012 77.41c-.732 0-1.47-.097-2.196-.29a8.38 8.38 0 0 1-5.121-3.932 8.372 8.372 0 0 1-.844-6.4 8.372 8.372 0 0 1 3.93-5.12v-.002a8.386 8.386 0 0 1 6.4-.843 8.373 8.373 0 0 1 5.121 3.93c2.326 4.028.942 9.197-3.086 11.522a8.38 8.38 0 0 1-4.204 1.135zm-.033-20.88c-2.155 0-4.282.565-6.198 1.672a12.351 12.351 0 0 0-5.794 7.551 12.347 12.347 0 0 0 1.244 9.435 12.347 12.347 0 0 0 7.55 5.794c3.206.858 6.56.42 9.435-1.242 5.938-3.43 7.979-11.05 4.551-16.987a12.351 12.351 0 0 0-7.55-5.793 12.443 12.443 0 0 0-3.238-.43" style="fill:#0a9ea0;fill-opacity:1;fill-rule:nonzero;stroke:none;stroke-width:.1" clip-path="url(#j)" transform="matrix(1.33333 0 0 -1.33333 0 239.867)"/>
  <path d="M31.01 77.41c-.732 0-1.47-.097-2.196-.29a8.379 8.379 0 0 1-5.121-3.932 8.377 8.377 0 0 1-.844-6.4 8.377 8.377 0 0 1 3.93-5.12v-.002a8.386 8.386 0 0 1 6.401-.843 8.372 8.372 0 0 1 5.121 3.93 8.377 8.377 0 0 1 .844 6.4 8.381 8.381 0 0 1-3.93 5.122 8.38 8.38 0 0 1-4.205 1.135zm-.033-20.88c-2.155 0-4.281.565-6.197 1.673a12.345 12.345 0 0 0-5.794 7.55 12.355 12.355 0 0 0 1.242 9.435 12.35 12.35 0 0 0 7.55 5.794c3.208.858 6.56.42 9.436-1.242 5.939-3.43 7.98-11.049 4.552-16.987a12.352 12.352 0 0 0-7.55-5.793 12.449 12.449 0 0 0-3.239-.43" style="fill:#67c1be;fill-opacity:1;fill-rule:nonzero;stroke:none;stroke-width:.1" clip-path="url(#k)" transform="matrix(1.33333 0 0 -1.33333 0 239.867)"/>
  <path d="M42.607 50.045c-5.121 0-9.322-5.115-9.73-11.622-.043-.691-.091-1.38-.211-2.062l-10.44-59.633c-.414-2.359-.354-4.804.388-7.082 1.481-4.545 4.95-7.735 8.995-7.735h62.473c4.043 0 7.512 3.189 8.994 7.733.743 2.28.802 4.728.388 7.089L92.996 36.36c-.12.681-.169 1.371-.212 2.062-.407 6.507-4.607 11.622-9.729 11.622H42.607" style="fill:#67c1be;fill-opacity:1;fill-rule:nonzero;stroke:none;stroke-width:.1" clip-path="url(#l)" transform="matrix(1.33333 0 0 -1.33333 0 239.067)"/>
  <g clip-path="url(#m)" transform="matrix(.13257 0 0 -.13386 14.416 239.33)">
    <g clip-path="url(#n)">
      <path d="M321.777 500.449c-53.91 0-97.617-56.668-97.617-126.609L114.184-254.281c0-69.918 43.699-126.61 97.609-126.61h624.738c53.907 0 97.606 56.692 97.606 126.61L826.676 373.84c-.856 79.648-46.5 126.609-100.418 126.609H321.777" style="fill:#0a9ea0;fill-opacity:1;fill-rule:nonzero;stroke:none"/>
    </g>
  </g>
  <path d="M81.222 46.967a7.856 7.856 0 0 1-.083-.193c-.024-.058-.047-.119-.071-.18a10.214 10.214 0 0 1-.113-.298l-.027-.079a9.736 9.736 0 0 1-.534-3.188c0-1.118.188-2.19.534-3.19l.027-.076c.036-.1.074-.202.113-.3l.071-.181.083-.193c.04-.092.081-.184.126-.276.014-.029.03-.058.043-.088a9.804 9.804 0 0 1 4.495-4.497c.031-.013.06-.03.09-.042.092-.043.183-.086.276-.126l.192-.083.18-.072c.1-.038.198-.076.299-.112.027-.009.051-.018.079-.025a9.738 9.738 0 0 1 6.378 0c.027.007.051.016.076.025.101.036.202.074.301.112l.18.072c.065.027.127.056.193.083.092.04.184.083.276.126.03.013.058.029.087.042a9.744 9.744 0 0 1 4.495 4.497l.045.088.126.276.083.193.07.18c.04.099.078.2.114.3.009.025.015.05.025.077a9.743 9.743 0 0 1 0 6.378c-.01.027-.016.052-.025.08-.036.1-.074.2-.115.298-.022.06-.045.121-.07.179-.026.065-.055.128-.082.193-.04.092-.083.184-.126.276l-.045.09a9.753 9.753 0 0 1-4.497 4.495l-.085.043c-.092.044-.187.085-.281.128-.06.027-.123.053-.186.08-.063.025-.124.05-.187.072-.096.038-.195.077-.294.112l-.083.027c-.999.346-2.07.535-3.186.535a9.722 9.722 0 0 1-3.266-.562c-.101-.035-.198-.074-.296-.112a4.833 4.833 0 0 1-.184-.072l-.19-.08-.28-.128c-.03-.014-.056-.03-.085-.043a9.73 9.73 0 0 1-2.625-1.872 9.71 9.71 0 0 1-1.872-2.623c-.014-.031-.03-.06-.043-.09-.045-.092-.085-.184-.126-.276"
        style="fill:#0a9ea0;fill-opacity:1;fill-rule:nonzero;stroke:none;stroke-width:.1"
        clip-path="url(#o)"
        transform="matrix(1.33333 0 0 -1.33333 0 239.867)"/>
  <path d="M49.148 19.995 60.374 31.22a4.52 4.52 0 0 0 6.39 0L77.99 19.995c2.847-2.847.83-7.714-3.195-7.714h-22.45c-4.026 0-6.042 4.867-3.196 7.714" style="fill:#67c1be;fill-opacity:1;fill-rule:nonzero;stroke:none;stroke-width:.1" clip-path="url(#p)" transform="matrix(1.33333 0 0 -1.33333 0 239.267)"/>
  <path d="M63.57 31.042a3.013 3.013 0 0 1-2.136-.881L50.21 18.934c-.893-.893-1.138-2.122-.654-3.29.482-1.166 1.525-1.862 2.788-1.862h22.451c1.263 0 2.306.697 2.79 1.864.483 1.166.238 2.395-.655 3.288L65.703 30.161a3.013 3.013 0 0 1-2.134.881zm11.224-20.26H52.343c-2.48 0-4.611 1.423-5.56 3.715-.949 2.29-.449 4.805 1.305 6.558l11.225 11.227a6.028 6.028 0 0 0 8.512 0L79.05 21.055c1.754-1.753 2.254-4.266 1.305-6.558-.95-2.292-3.08-3.715-5.56-3.715" style="fill:#0a9ea0;fill-opacity:1;fill-rule:nonzero;stroke:none;stroke-width:.1" clip-path="url(#q)" transform="matrix(1.33333 0 0 -1.33333 0 239.267)"/>
  <path d="M46.294 82.654a6.306 6.306 0 1 1 0 12.613 6.306 6.306 0 0 1 0-12.613" style="fill:#beda4e;fill-opacity:1;fill-rule:nonzero;stroke:none;stroke-width:.1" clip-path="url(#r)" transform="matrix(1.33333 0 0 -1.33333 0 239.867)"/>
  <path d="M45.294 84.301a2.66 2.66 0 1 1 0 5.32 2.66 2.66 0 0 1 0-5.32" style="fill:#171717;fill-opacity:1;fill-rule:nonzero;stroke:none;stroke-width:.1" clip-path="url(#s)" transform="matrix(1.33333 0 0 -1.33333 0 239.867)"/>
  <path d="M79.375 82.654a6.306 6.306 0 1 1 0 12.613 6.306 6.306 0 0 1 0-12.613" style="fill:#beda4e;fill-opacity:1;fill-rule:nonzero;stroke:none;stroke-width:.1" clip-path="url(#t)" transform="matrix(1.33333 0 0 -1.33333 0 239.867)"/>
  <path d="M78.375 84.301a2.66 2.66 0 1 1 0 5.32 2.66 2.66 0 0 1 0-5.32" style="fill:#171717;fill-opacity:1;fill-rule:nonzero;stroke:none;stroke-width:.1" clip-path="url(#u)" transform="matrix(1.33333 0 0 -1.33333 0 239.867)"/>
  <path d="m21.976 9.14 6.338 30.677" style="fill:none;stroke:#3d7b86;stroke-width:4;stroke-linecap:round;stroke-linejoin:miter;stroke-miterlimit:4;stroke-dasharray:none;stroke-opacity:1" clip-path="url(#v)" transform="matrix(1.33333 0 0 -1.33333 0 239.867)"/>
  <path d="M25.973 46.967a8.26 8.26 0 0 1-.082-.193c-.025-.058-.048-.119-.072-.18a11.516 11.516 0 0 1-.113-.298l-.027-.079a9.736 9.736 0 0 1-.534-3.188 9.742 9.742 0 0 1 .674-3.567l.072-.18c.027-.065.053-.128.082-.193.041-.092.081-.184.126-.276.014-.029.03-.058.043-.088a9.793 9.793 0 0 1 4.495-4.497c.031-.013.06-.03.09-.042.091-.043.184-.086.276-.126.063-.027.127-.056.193-.083.058-.025.119-.047.18-.072.098-.038.197-.076.298-.112.027-.009.051-.018.078-.025a9.738 9.738 0 0 1 6.755.137l.18.072c.066.027.129.056.194.083.092.04.184.083.276.126l.087.042a9.74 9.74 0 0 1 4.495 4.497l.045.088.126.276.083.193c.025.061.047.12.07.18.04.099.078.2.114.3l.025.077a9.744 9.744 0 0 1 0 6.378c-.01.027-.016.052-.025.08-.036.1-.074.2-.115.298-.022.06-.044.121-.069.179l-.083.193c-.04.092-.083.184-.126.276l-.045.09a9.75 9.75 0 0 1-4.497 4.495l-.085.043c-.092.044-.187.085-.28.128l-.187.08c-.063.025-.124.05-.187.072-.096.038-.195.077-.294.112l-.082.027c-1 .346-2.07.535-3.186.535a9.722 9.722 0 0 1-3.186-.535l-.081-.027c-.1-.035-.198-.074-.297-.112a5.18 5.18 0 0 1-.184-.072l-.188-.08c-.094-.043-.187-.084-.28-.128-.03-.014-.057-.03-.086-.043a9.724 9.724 0 0 1-2.625-1.872 9.701 9.701 0 0 1-1.872-2.623c-.014-.031-.03-.06-.043-.09-.045-.092-.085-.184-.126-.276"
        style="fill:#67c1be;fill-opacity:1;fill-rule:nonzero;stroke:none;stroke-width:.1"
        clip-path="url(#w)"
        transform="matrix(1.33333 0 0 -1.33333 0 239.867)"/>
  <path d="M63.166 63.928a5.253 5.253 0 0 1 5.128 6.377 5.223 5.223 0 0 1-3.999 3.999 5.253 5.253 0 0 1-6.374-5.13 5.246 5.246 0 0 1 5.245-5.246" style="fill:#171717;fill-opacity:1;fill-rule:nonzero;stroke:none;stroke-width:.1" clip-path="url(#x)" transform="matrix(1.33333 0 0 -1.33333 0 239.867)"/>
  <path d="M133.621 78.282v8.69h-17.38V78.27a8.691 8.691 0 0 1 17.38 0v.012M118.555 88.799a2.426 2.426 0 0 1 2.426 2.426v12.364a2.426 2.426 0 1 1-4.852 0V91.225a2.426 2.426 0 0 1 2.426-2.426M124.875 88.8a2.426 2.426 0 0 1 2.426 2.425v2.172a2.426 2.426 0 0 1-4.852 0v-2.172a2.426 2.426 0 0 1 2.426-2.426M131.195 88.8a2.426 2.426 0 0 1 2.426 2.425v2.172a2.426 2.426 0 0 1-4.852 0v-2.172a2.426 2.426 0 0 1 2.426-2.426" style="fill:#67c1be;fill-opacity:1;fill-rule:nonzero;stroke:none;stroke-width:.1" transform="matrix(1.33333 0 0 -1.33333 0 239.867)"/>
  <path d="M33.78 44.886v15.22H15.698v-15.22l3.38-21.422H30.4l3.38 21.422" style="fill:#fff;fill-opacity:1;fill-rule:nonzero;stroke:none;stroke-width:.1" transform="matrix(1.33333 0 0 -1.33333 0 239.867)"/>
  <path d="M33.78 44.886h.01zM20.574 25.214h8.33l3.126 19.81v13.331H17.448V45.024Zm11.322-3.5H17.583l-3.635 23.172v16.97H35.53l-.02-17.242-3.614-22.9" style="fill:#040606;fill-opacity:1;fill-rule:nonzero;stroke:none;stroke-width:.1" transform="matrix(1.33333 0 0 -1.33333 0 239.867)"/>
  <path d="M32.8 9.555a7.81 7.81 0 1 0-15.622 0 7.81 7.81 0 0 0 15.621 0" style="fill:#fff;fill-opacity:1;fill-rule:nonzero;stroke:none;stroke-width:.1" transform="matrix(1.33333 0 0 -1.33333 0 239.867)"/>
  <path d="M24.989 15.621a6.072 6.072 0 0 1-6.066-6.066 6.072 6.072 0 0 1 6.066-6.066 6.073 6.073 0 0 1 6.066 6.066 6.073 6.073 0 0 1-6.066 6.066zm0-15.621c-5.27 0-9.555 4.287-9.555 9.555 0 5.269 4.286 9.555 9.555 9.555 5.268 0 9.555-4.286 9.555-9.555C34.544 4.287 30.257 0 24.989 0" style="fill:#171717;fill-opacity:1;fill-rule:nonzero;stroke:none;stroke-width:.1" transform="matrix(1.33333 0 0 -1.33333 0 239.867)"/>
  <path d="M89.14 137.373c-2.686 1.551-6.004.988-8.052-1.162l-9.718 6.555c.317.949.485 1.942.491 2.945a9.649 9.649 0 0 1-7.594 9.525v11.792a6.556 6.556 0 0 1 3.782 2.999 6.584 6.584 0 1 1-7.182-3.124v-11.549a9.526 9.526 0 0 1-5.419-2.664c-2.621-2.57-3.509-6.38-2.393-9.828l-8.402-5.667-1.68-.946c-2.05 2.119-5.345 2.666-8.014 1.124a6.583 6.583 0 1 1 9.717-4.263l9.964 6.721a9.614 9.614 0 0 1 7.478-3.687 9.663 9.663 0 0 1 7.616 3.626l9.717-6.555a6.583 6.583 0 0 1 3.106-7.244 6.583 6.583 0 1 1 6.583 11.402" style="fill:#67c1be;fill-opacity:1;fill-rule:nonzero;stroke:none;stroke-width:.1" transform="matrix(1.33333 0 0 -1.33333 0 239.867)"/>
</svg>