<svg version="1.1" viewBox="0 0 179.313 228.804" xmlns="http://www.w3.org/2000/svg"><defs><clipPath clipPathUnits="userSpaceOnUse" id="a"><path d="m1143.97 633.527.55 948.193H101.832V634.113c0-287.941 233.418-521.363 521.359-521.363 287.942 0 521.359 233.422 521.359 521.363z"/></clipPath><clipPath clipPathUnits="userSpaceOnUse" id="b"><path d="m1143.97 633.527.55 948.193H101.832V634.113c0-287.941 233.418-521.363 521.359-521.363 287.942 0 521.359 233.422 521.359 521.363z"/></clipPath><clipPath clipPathUnits="userSpaceOnUse" id="c"><path d="M445.027 1261.55c-48.566 0-87.949-39.37-87.949-87.95l-99.105-436.373c0-48.575 39.382-87.95 87.961-87.95h562.918c48.586 0 87.961 39.375 87.961 87.95L897.445 1173.6c0 48.58-39.375 87.95-87.949 87.95z"/></clipPath><clipPath clipPathUnits="userSpaceOnUse" id="d"><path d="m1143.97 633.527.55 948.193H101.832V634.113c0-287.941 233.418-521.363 521.359-521.363 287.942 0 521.359 233.422 521.359 521.363z"/></clipPath><clipPath clipPathUnits="userSpaceOnUse" id="e"><path d="m1143.97 633.527.55 948.193H101.832V634.113c0-287.941 233.418-521.363 521.359-521.363 287.942 0 521.359 233.422 521.359 521.363z"/></clipPath><clipPath clipPathUnits="userSpaceOnUse" id="f"><path d="m1037.17-414.34-412.572 42.129v960.895l412.572-42.125z"/></clipPath><clipPath clipPathUnits="userSpaceOnUse" id="g"><path d="m1143.97 633.527.55 948.193H101.832V634.113c0-287.941 233.418-521.363 521.359-521.363 287.942 0 521.359 233.422 521.359 521.363z"/></clipPath></defs><path d="m60.353 145.543-.064-18.835h5.636v12.688c-1.309 1.014-3.616 3.9-5.572 6.147" style="fill:#0a9ea0;fill-opacity:1;fill-rule:nonzero;stroke:none;stroke-width:.100331" transform="matrix(1.33333 0 0 -1.33333 0 210.893)"/><path d="M83.497 141.437a10.712 10.712 0 0 1 1.8 6.034 10.662 10.662 0 0 1-.872 4.186 10.767 10.767 0 0 1-6.757 6.047 10.44 10.44 0 0 1-3.205.465 9.83 9.83 0 0 1-2.19-.26c-1.225-.287-2.442-.823-3.62-1.594-.883-.578-1.76-1.293-2.676-2.184-.677-.662-2.084-2.3-2.834-3.188.554-.678 1.095-1.36 1.625-2.029l.66-.83c.701.856 2.04 2.45 2.626 3.052.535.552 1.064 1.04 1.57 1.452.806.653 1.606 1.15 2.378 1.474.397.167.804.295 1.21.383.42.09.837.136 1.273.139.943-.011 1.908-.178 2.798-.546a7.171 7.171 0 0 0 3.179-2.583 7.144 7.144 0 0 0 1.252-4.008 7.199 7.199 0 0 0-.543-2.797 7.202 7.202 0 0 0-4.458-4.095 7.158 7.158 0 0 0-2.135-.338 6.96 6.96 0 0 0-1.396.148 7.226 7.226 0 0 0-1.748.644c-.192.101-.384.208-.577.325-.563.343-1.145.776-1.728 1.285-.216.186-.431.383-.647.59-.597.571-1.23 1.243-1.931 2.054a71.563 71.563 0 0 0-1.609 1.949l-1.04 1.307c-.853 1.078-1.736 2.193-2.656 3.256a32.218 32.218 0 0 1-2.208 2.331 19.043 19.043 0 0 1-2.172 1.79 12.375 12.375 0 0 1-2.737 1.463 10.032 10.032 0 0 1-3.512.652h-.089a10.683 10.683 0 0 1-4.188-.873 10.806 10.806 0 0 1-4.711-3.93 10.756 10.756 0 0 1-1.8-6.032c.01-1.452.304-2.861.874-4.184a10.77 10.77 0 0 1 6.759-6.048 10.235 10.235 0 0 1 3.204-.464 9.9 9.9 0 0 1 2.19.259c1.227.288 2.445.825 3.62 1.594.884.58 1.76 1.294 2.675 2.183.672.657 2.1 2.205 2.857 3.1-.569.694-2.086 2.607-2.283 2.856a65.566 65.566 0 0 0-2.65-2.96 18.527 18.527 0 0 0-1.572-1.453c-.803-.653-1.603-1.148-2.377-1.475a6.797 6.797 0 0 0-1.212-.384 6.272 6.272 0 0 0-1.27-.138 7.007 7.007 0 0 0-2.8.547 7.159 7.159 0 0 0-3.178 2.583 7.158 7.158 0 0 0-1.253 4.008 7.187 7.187 0 0 0 .545 2.798 7.193 7.193 0 0 0 6.592 4.431c.457.007.928-.045 1.395-.147.78-.174 1.541-.49 2.326-.97A12.809 12.809 0 0 0 56 152.028c.79-.687 1.633-1.552 2.576-2.645.858-.993 1.734-2.1 2.581-3.17l.09-.112c.846-1.07 1.721-2.175 2.633-3.229a32.159 32.159 0 0 1 2.208-2.332 19.505 19.505 0 0 1 1.815-1.532c1.031-.763 2.044-1.325 3.093-1.72l.209-.075a9.898 9.898 0 0 1 3.396-.577c1.453.008 2.862.302 4.187.873a10.776 10.776 0 0 1 4.71 3.93M64.415 148.633" style="fill:#67c1be;fill-opacity:1;fill-rule:nonzero;stroke:none;stroke-width:.100331" transform="matrix(1.33333 0 0 -1.33333 0 210.893)"/><path d="M62.525 11.932c28.798 0 52.143 23.267 52.143 51.97s-23.345 51.971-52.143 51.971c-28.797 0-52.142-23.268-52.142-51.971 0-28.703 23.345-51.97 52.142-51.97" style="fill:#23577d;fill-opacity:1;fill-rule:nonzero;stroke:none;stroke-width:.100166" transform="matrix(1.33333 0 0 -1.33333 0 210.893)"/><g clip-path="url(#a)" transform="matrix(.13377 0 0 -.13334 0 209.983)"><path d="M492.801 832.855V348.949c0-35.969 29.156-65.129 65.121-65.129h170.371c35.965 0 65.121 29.16 65.121 65.129v483.906" style="fill:#2f8283;fill-opacity:1;fill-rule:nonzero;stroke:none"/><path d="M290.426 1083.44c-28.649 0-51.863-31.5-51.863-70.37v-70.359c0-38.856 23.214-70.367 51.863-70.367h680.457c28.648 0 51.877 31.511 51.877 70.367v70.359c0 38.87-23.229 70.37-51.877 70.37H290.426" style="fill:#0a9ea0;fill-opacity:1;fill-rule:nonzero;stroke:none"/><path d="M445.031 1261.55c-48.574 0-87.961-39.37-87.961-87.96l-99.093-436.36c0-48.574 39.375-87.96 87.949-87.96h562.929c48.575 0 87.95 39.386 87.95 87.96l-99.352 436.36c0 48.59-39.375 87.96-87.961 87.96H445.031M425.652 546.449c-53.738 0-97.308-56.5-97.308-126.211L218.715-205.879c0-69.699 43.558-126.223 97.297-126.223H938.77c53.738 0 97.3 56.524 97.3 126.223L926.152 420.238c0 69.711-43.558 126.211-97.308 126.211H425.652" style="fill:#67c1be;fill-opacity:1;fill-rule:nonzero;stroke:none"/></g><g clip-path="url(#b)" transform="matrix(.13377 0 0 -.13344 0 210.006)"><g clip-path="url(#c)"><path d="M627.637 438.52h498.633v842.59H627.637V438.52" style="fill:#0a9ea0;fill-opacity:1;fill-rule:nonzero;stroke:none"/></g></g><g clip-path="url(#d)" transform="matrix(.13377 0 0 -.13377 0 211.027)"><path d="M633.605 847.832c69.368 0 125.598 56.231 125.598 125.594 0 69.364-56.23 125.594-125.598 125.594-69.371 0-125.601-56.23-125.601-125.594 0-69.363 56.23-125.594 125.601-125.594" style="fill:#f2ba38;fill-opacity:1;fill-rule:nonzero;stroke:none"/><path d="M385.555 855.902c2.968 13.953-5.942 27.68-19.899 30.641-13.957 2.973-27.683-5.941-30.652-19.895-2.961-13.957 5.949-27.683 19.906-30.644 13.957-2.969 27.672 5.941 30.645 19.898M400.934 928.25c2.968 13.953-5.942 27.68-19.899 30.641-13.965 2.972-27.68-5.942-30.652-19.895-2.961-13.957 5.953-27.683 19.906-30.644 13.957-2.969 27.676 5.941 30.645 19.898M416.309 1000.6c2.972 13.95-5.942 27.68-19.895 30.64-13.957 2.97-27.684-5.94-30.652-19.9-2.961-13.953 5.949-27.68 19.906-30.641 13.953-2.969 27.672 5.942 30.641 19.901M854.379 855.902c-2.973 13.953 5.941 27.68 19.906 30.641 13.957 2.973 27.672-5.941 30.645-19.898 2.957-13.954-5.953-27.68-19.91-30.641-13.954-2.973-27.672 5.941-30.641 19.898M839 928.25c-2.973 13.953 5.941 27.68 19.895 30.641 13.957 2.972 27.683-5.942 30.656-19.895 2.957-13.957-5.953-27.683-19.91-30.644-13.953-2.969-27.672 5.941-30.641 19.898M823.621 1000.6c-2.969 13.95 5.942 27.68 19.906 30.64 13.957 2.97 27.672-5.94 30.645-19.9 2.961-13.953-5.953-27.68-19.906-30.641-13.957-2.969-27.672 5.942-30.645 19.901" style="fill:#fff;fill-opacity:1;fill-rule:nonzero;stroke:none"/></g><g clip-path="url(#e)" transform="matrix(.13377 0 0 -.13295 0 209.778)"><g clip-path="url(#f)"><path d="M425.652 546.449c-53.738 0-97.308-56.5-97.308-126.211L218.715-205.879c0-69.699 43.558-126.223 97.297-126.223H938.77c53.738 0 97.3 56.524 97.3 126.223L928.945 420.238c-.851 79.391-46.351 126.211-100.101 126.211H425.652" style="fill:#0a9ea0;fill-opacity:1;fill-rule:nonzero;stroke:none"/></g></g><g clip-path="url(#g)" transform="matrix(.13377 0 0 -.13327 0 210.082)"><path d="m216.43 87.621 64.656 305.5" style="fill:none;stroke:#0a9ea0;stroke-width:39.8731;stroke-linecap:round;stroke-linejoin:miter;stroke-miterlimit:4;stroke-dasharray:none;stroke-opacity:1"/><path d="m265.406 499.102-19.324-93.774c-7.547-36.609 20.41-70.906 57.785-70.906h214.949c32.586 0 59 26.406 59 59v93.769c0 32.579-26.414 59-59 59H323.195c-27.996 0-52.136-19.671-57.789-47.089" style="fill:#67c1be;fill-opacity:1;fill-rule:nonzero;stroke:none"/><path d="m994.82 506.32 19.33-79.379c7.54-30.992-20.42-60.043-57.795-60.043H741.41c-32.586 0-59 22.372-59 49.954v79.386c0 27.59 26.414 49.953 59 49.953h195.621c27.996 0 52.137-16.66 57.789-39.871" style="fill:#0a9ea0;fill-opacity:1;fill-rule:nonzero;stroke:none"/><path d="M766.301 226.809c0-75.36-61.09-136.45-136.449-136.45-75.36 0-136.45 61.09-136.45 136.45 0 75.363 61.09 136.453 136.45 136.453 75.359 0 136.449-61.09 136.449-136.453" style="fill:#67c1be;fill-opacity:1;fill-rule:nonzero;stroke:none"/><path d="M629.855 348.262c-66.968 0-121.453-54.481-121.453-121.453 0-66.969 54.485-121.45 121.453-121.45 66.961 0 121.446 54.481 121.446 121.45 0 66.972-54.485 121.453-121.446 121.453zm0-272.903c-83.511 0-151.453 67.942-151.453 151.45 0 83.511 67.942 151.453 151.453 151.453 83.504 0 151.446-67.942 151.446-151.453 0-83.508-67.942-151.45-151.446-151.45" style="fill:#0a9ea0;fill-opacity:1;fill-rule:nonzero;stroke:none"/><path d="M680.184 973.027c28.886 0 52.293 23.414 52.293 52.293 0 28.89-23.407 52.31-52.293 52.31-28.879 0-52.293-23.42-52.293-52.31 0-28.879 23.414-52.293 52.293-52.293M800.445 773.129c3.91 7.258 6.34 15.437 6.34 24.262H703.836c0-8.825 2.426-17.004 6.34-24.262h90.269" style="fill:#171717;fill-opacity:1;fill-rule:nonzero;stroke:none"/><path d="M502.934 943.652c15.511-63.621 72.726-114.636 141.132-114.636 68.407 0 125.622 51.015 141.133 114.636H502.934" style="fill:#0a9ea0;fill-opacity:1;fill-rule:nonzero;stroke:none"/><path d="M511.859 943.223c13.399-54.95 62.813-95.789 121.895-95.789 59.078 0 108.492 40.839 121.891 95.789H511.859" style="fill:#67c1be;fill-opacity:1;fill-rule:nonzero;stroke:none"/></g><path d="M109.612 14.003a2 2 0 0 0-1.871 1.294L95.636 47.356a2 2 0 1 0 3.743 1.412l12.104-32.058a2 2 0 0 0-1.871-2.707" style="fill:#0a9ea0;fill-opacity:1;fill-rule:nonzero;stroke:none;stroke-width:.100331" transform="matrix(1.33333 0 0 -1.33333 0 210.893)"/><path d="M109.614 14.003a2 2 0 0 0-1.64.85L87.548 43.966a2 2 0 1 0 3.274 2.298l20.427-29.11a2 2 0 0 0-1.635-3.15" style="fill:#0a9ea0;fill-opacity:1;fill-rule:nonzero;stroke:none;stroke-width:.100331" transform="matrix(1.33333 0 0 -1.33333 0 210.893)"/><path d="m114.113 16.82-.03.09a7.252 7.252 0 0 1-.082.213l-.016.033a4.363 4.363 0 0 1-1.905 2.108l-.031.017-.128.067-.077.037c-.028.014-.056.026-.085.039a2.818 2.818 0 0 1-.125.054l-.04.016a4.363 4.363 0 0 1-2.828.143l-.042-.012-.13-.042c-.028-.01-.059-.019-.088-.03l-.081-.03a2.564 2.564 0 0 1-.132-.052c-.012-.005-.023-.009-.034-.015a4.319 4.319 0 0 1-1.213-.775 4.307 4.307 0 0 1-.978-1.288c-.012-.027-.025-.05-.038-.078l-.038-.085c-.02-.04-.036-.083-.055-.124l-.016-.04a4.346 4.346 0 0 1-.142-2.83l.012-.041a5.2 5.2 0 0 1 .04-.129c.011-.03.02-.06.031-.088a3.034 3.034 0 0 1 .082-.215l.016-.032a4.347 4.347 0 0 1 1.905-2.108l.031-.018a2.92 2.92 0 0 1 .204-.103l.085-.04.124-.053a4.355 4.355 0 0 1 2.912-.147l.13.042.086.028.083.032.131.051c.011.005.024.01.036.017a4.368 4.368 0 0 1 2.124 1.936c.023.042.043.083.064.125.014.025.027.053.04.079l.038.083.054.126c.006.013.01.026.015.04.176.436.284.907.308 1.403.026.495-.034.974-.164 1.426l-.012.042c-.013.044-.027.086-.041.128M85.698 60.778a2.426 2.426 0 0 0-3.39.527l-7.3 9.982a2.426 2.426 0 1 0 3.916 2.864l7.3-9.983c.792-1.081.556-2.6-.526-3.39M80.596 57.048a2.425 2.425 0 0 0-3.39.526l-1.282 1.754a2.426 2.426 0 1 0 3.917 2.864l1.281-1.754c.791-1.081.555-2.6-.526-3.39M75.494 53.317a2.427 2.427 0 0 0-3.39.526l-1.283 1.754a2.426 2.426 0 1 0 3.916 2.863l1.283-1.753c.79-1.082.555-2.6-.526-3.39M93.783 53.646a.014.014 0 0 0-.004.004l-5.133 7.02-14.031-10.26 5.13-7.017.006-.01a8.692 8.692 0 0 1 14.032 10.263" style="fill:#67c1be;fill-opacity:1;fill-rule:nonzero;stroke:none;stroke-width:.100331" transform="matrix(1.33333 0 0 -1.33333 0 210.893)"/><path d="M15.851 41.204c0 4.426 1.393 6.477 4.427 6.477 2.46 0 3.607-1.067 3.607-3.443 0-6.313-9.018-7.624-9.018-19.84H28.56c0 8.608 12.296 10.986 12.296 22.873 0 9.428-6.967 14.92-18.855 14.92-12.79 0-20.25-7.789-20.25-20.987h14.101" style="fill:#fff;fill-opacity:1;fill-rule:nonzero;stroke:none;stroke-width:.100331" transform="matrix(1.33333 0 0 -1.33333 0 210.893)"/><path d="M16.686 26.148h10.269c.636 3.72 3.237 6.362 5.763 8.928 3.285 3.338 6.387 6.49 6.387 12.195 0 8.37-6.234 13.171-17.105 13.171-11.183 0-17.83-6.346-18.452-17.488h10.636c.533 5.301 3.537 6.477 6.094 6.477 3.455 0 5.357-1.844 5.357-5.193 0-3.308-1.961-5.505-3.858-7.626-2.295-2.569-4.66-5.216-5.09-10.464zm11.873-3.5H14.867a1.75 1.75 0 0 0-1.75 1.75c0 7.775 3.355 11.53 6.05 14.546 1.895 2.12 2.967 3.414 2.967 5.294 0 1.29-.255 1.693-1.856 1.693-1.001 0-2.677 0-2.677-4.727a1.75 1.75 0 0 0-1.75-1.75h-14.1A1.75 1.75 0 0 0 0 41.204c0 14.239 8.224 22.738 22 22.738 12.903 0 20.606-6.233 20.606-16.671 0-7.14-3.928-11.13-7.392-14.65-2.632-2.674-4.905-4.982-4.905-8.223a1.75 1.75 0 0 0-1.75-1.75" style="fill:#171717;fill-opacity:1;fill-rule:nonzero;stroke:none;stroke-width:.100331" transform="matrix(1.33333 0 0 -1.33333 0 210.893)"/><path d="M30.71 10.078a8.203 8.203 0 0 0-8.203-8.203 8.203 8.203 0 1 0 0 16.406 8.203 8.203 0 0 0 8.203-8.203" style="fill:#fff;fill-opacity:1;fill-rule:nonzero;stroke:none;stroke-width:.100331" transform="matrix(1.33333 0 0 -1.33333 0 210.893)"/><path d="M22.506 16.531a6.46 6.46 0 0 1-6.452-6.453 6.46 6.46 0 0 1 6.452-6.453 6.46 6.46 0 0 1 6.453 6.453 6.46 6.46 0 0 1-6.453 6.453zm0-16.406c-5.488 0-9.953 4.465-9.953 9.953 0 5.488 4.465 9.954 9.953 9.954 5.489 0 9.954-4.466 9.954-9.954S27.995.125 22.506.125" style="fill:#171717;fill-opacity:1;fill-rule:nonzero;stroke:none;stroke-width:.100331" transform="matrix(1.33333 0 0 -1.33333 0 210.893)"/></svg>