<svg version="1.1" viewBox="0 0 181.468 239.316" xmlns="http://www.w3.org/2000/svg"><defs><clipPath clipPathUnits="userSpaceOnUse" id="a"><path d="m1042.14 659.328.55 965.652H0V659.914c0-287.945 233.422-521.363 521.359-521.363 287.942 0 521.361 233.418 521.361 521.363z"/></clipPath><clipPath clipPathUnits="userSpaceOnUse" id="b"><path d="m1042.14 659.328.55 965.652H0V659.914c0-287.945 233.422-521.363 521.359-521.363 287.942 0 521.361 233.418 521.361 521.363z"/></clipPath><clipPath clipPathUnits="userSpaceOnUse" id="c"><path d="M250.145 1227.73c-45.95 0-83.192-37.25-83.192-83.2V671.547c0-45.949 37.242-83.195 83.192-83.195h532.449c45.949 0 83.199 37.246 83.199 83.195v472.983c0 45.95-37.25 83.2-83.199 83.2z"/></clipPath><clipPath clipPathUnits="userSpaceOnUse" id="h"><path d="m1042.14 659.328.55 965.652H0V659.914c0-287.945 233.422-521.363 521.359-521.363 287.942 0 521.361 233.418 521.361 521.363z"/></clipPath><clipPath clipPathUnits="userSpaceOnUse" id="i"><path d="M519.781-191.43H970.27v756.828H519.781Z"/></clipPath><clipPath clipPathUnits="userSpaceOnUse" id="j"><path d="m1042.14 659.328.55 965.652H0V659.914c0-287.945 233.422-521.363 521.359-521.363 287.942 0 521.361 233.418 521.361 521.363z"/></clipPath><clipPath clipPathUnits="userSpaceOnUse" id="g"><path d="m115.036 66.278.055 96.565H10.82V66.336c0-28.794 23.343-52.136 52.137-52.136s52.136 23.342 52.136 52.136z" style="stroke-width:.1"/></clipPath><clipPath clipPathUnits="userSpaceOnUse" id="f"><path d="m115.036 66.278.055 96.565H10.82V66.336c0-28.794 23.343-52.136 52.137-52.136s52.136 23.342 52.136 52.136z" style="stroke-width:.1"/></clipPath><clipPath clipPathUnits="userSpaceOnUse" id="e"><path d="m115.036 66.278.055 96.565H10.82V66.336c0-28.794 23.343-52.136 52.137-52.136s52.136 23.342 52.136 52.136z" style="stroke-width:.1"/></clipPath><clipPath clipPathUnits="userSpaceOnUse" id="d"><path d="m115.036 66.278.055 96.565H10.82V66.336c0-28.794 23.343-52.136 52.137-52.136s52.136 23.342 52.136 52.136z" style="stroke-width:.1"/></clipPath></defs><path d="M63.086 14.142c28.794 0 52.136 23.342 52.136 52.136 0 28.794-23.342 52.136-52.136 52.136-28.794 0-52.136-23.342-52.136-52.136 0-28.794 23.342-52.136 52.136-52.136" style="fill:#6d397b;fill-opacity:1;fill-rule:nonzero;stroke:none;stroke-width:.1" transform="matrix(1.33333 0 0 -1.33333 0 216.667)"/><g clip-path="url(#a)" transform="matrix(.13333 0 0 -.13333 14.43 216.207)"><path d="m80.516 87.89 64.863 306.469" style="fill:none;stroke:#0a9ea0;stroke-width:40;stroke-linecap:round;stroke-linejoin:miter;stroke-miterlimit:4;stroke-dasharray:none;stroke-opacity:1"/><path d="M516.855 1499.56c-24.257 0-43.996 19.73-43.996 43.99s19.739 44 43.996 44c24.258 0 43.985-19.74 43.985-44s-19.727-43.99-43.985-43.99zm77.989 43.99c0 43-34.992 78-77.989 78-43.007 0-78-35-78-78 0-37.16 26.149-68.28 60.997-76.07v-248.3h34.003v248.3c34.844 7.79 60.989 38.91 60.989 76.07M249.922 1443c0 24.26 19.726 44 43.984 44 24.258 0 43.985-19.74 43.985-44s-19.727-43.99-43.985-43.99-43.984 19.73-43.984 43.99zm121.973 0c0 43-34.993 78-77.989 78-43 0-77.988-35-77.988-78 0-43.01 34.988-78 77.988-78 15.133 0 29.231 4.41 41.199 11.9l83.204-91v-137.74h34.004v150.95l-92.946 101.64c7.891 12.19 12.528 26.68 12.528 42.25" style="fill:#67c1be;fill-opacity:1;fill-rule:nonzero;stroke:none"/><path d="M741.699 1399.01c-24.258 0-43.984 19.73-43.984 43.99s19.726 44 43.984 44c24.258 0 43.992-19.74 43.992-44s-19.734-43.99-43.992-43.99zm0 121.99c-43 0-77.988-35-77.988-78 0-15.57 4.637-30.06 12.531-42.25l-92.941-101.64v-150.95h34.004v137.74l83.199 90.99c11.973-7.48 26.062-11.89 41.195-11.89 43.008 0 77.996 34.99 77.996 78 0 43-34.988 78-77.996 78M376.734 754.148V268.699c0-36.078 29.25-65.328 65.329-65.328h170.91c36.082 0 65.332 29.25 65.332 65.328v485.449M174.254 1059.26c-36.758 0-66.559-29.8-66.559-66.565v-66.558c0-36.75 29.801-66.551 66.559-66.551h694.211c36.762 0 66.558 29.801 66.558 66.551v66.558c0 36.765-29.796 66.565-66.558 66.565H174.254" style="fill:#0a9ea0;fill-opacity:1;fill-rule:nonzero;stroke:none"/><path d="M250.145 1227.73c-45.95 0-83.2-37.25-83.2-83.2V671.547c0-45.949 37.25-83.188 83.2-83.188h532.449c45.949 0 83.199 37.239 83.199 83.188v472.983c0 45.95-37.25 83.2-83.199 83.2H250.145" style="fill:#67c1be;fill-opacity:1;fill-rule:nonzero;stroke:none"/></g><g clip-path="url(#b)" transform="matrix(.13333 0 0 -.13333 14.43 216.207)"><g clip-path="url(#c)"><path d="M516.375 399.93h509.565V1261H516.375V399.93" style="fill:#0a9ea0;fill-opacity:1;fill-rule:nonzero;stroke:none"/></g></g><path d="M37.255 107.859a4.16 4.16 0 0 1-4.16-4.16V89.972a4.16 4.16 0 0 1 4.16-4.16h49.783a4.16 4.16 0 0 1 4.16 4.16v13.727a4.16 4.16 0 0 1-4.16 4.16H37.255" style="fill:#171717;fill-opacity:1;fill-rule:nonzero;stroke:none;stroke-width:.1" clip-path="url(#d)" transform="matrix(1.33333 0 0 -1.33333 0 216.667)"/><path d="M85.624 49.622a8.614 8.614 0 0 1-.083-.193c-.025-.058-.047-.12-.071-.179-.039-.1-.077-.198-.113-.3l-.027-.077a9.733 9.733 0 0 1-.534-3.189 9.737 9.737 0 0 1 .674-3.567l.071-.18.083-.193c.04-.092.081-.184.126-.276.014-.029.03-.058.043-.087a9.785 9.785 0 0 1 4.495-4.497c.03-.014.06-.03.09-.043.091-.043.183-.085.275-.126l.193-.083c.059-.025.12-.047.18-.072.099-.038.198-.076.299-.112.027-.009.052-.018.078-.025a9.746 9.746 0 0 1 6.379 0 13.639 13.639 0 0 1 .377.137l.18.072c.064.027.127.056.193.083.091.04.184.083.276.126.029.013.058.029.087.043a9.73 9.73 0 0 1 4.495 4.497l.045.087.126.276c.026.065.056.128.083.193l.07.18c.04.1.078.2.114.301.009.024.015.049.024.076a9.749 9.749 0 0 1 0 6.38c-.009.025-.015.05-.024.077-.036.101-.075.2-.115.3-.022.059-.045.12-.07.178-.026.065-.056.128-.082.193-.04.092-.084.184-.126.277-.016.029-.03.058-.045.089a9.75 9.75 0 0 1-4.582 4.538c-.092.045-.187.085-.281.128-.06.027-.124.054-.186.08-.063.025-.124.05-.187.072a8.68 8.68 0 0 1-.294.113l-.083.027a9.753 9.753 0 0 1-6.372 0l-.08-.027a9.219 9.219 0 0 1-.297-.113 4.374 4.374 0 0 1-.184-.072l-.188-.08c-.095-.043-.187-.083-.281-.128-.03-.014-.056-.029-.085-.043a9.695 9.695 0 0 1-2.625-1.872 9.708 9.708 0 0 1-1.872-2.623c-.014-.03-.03-.06-.043-.09-.045-.092-.085-.184-.126-.276" style="fill:#0a9ea0;fill-opacity:1;fill-rule:nonzero;stroke:none;stroke-width:.1" clip-path="url(#e)" transform="matrix(1.33333 0 0 -1.33333 0 216.667)"/><path d="M22.441 49.622a8.614 8.614 0 0 1-.082-.193c-.025-.058-.048-.12-.072-.179-.039-.1-.077-.198-.113-.3l-.026-.077a9.733 9.733 0 0 1-.535-3.189 9.737 9.737 0 0 1 .674-3.567l.072-.18c.027-.065.053-.128.082-.193.041-.092.081-.184.126-.276.014-.029.03-.058.043-.087a9.792 9.792 0 0 1 4.494-4.497c.032-.014.061-.03.09-.043.092-.043.184-.085.277-.126.063-.027.127-.056.193-.083.058-.025.119-.047.18-.072.098-.038.197-.076.298-.112.027-.009.052-.018.078-.025a9.748 9.748 0 0 1 6.379 0 13.639 13.639 0 0 1 .377.137l.18.072.193.083c.092.04.184.083.276.126.029.013.058.029.087.043a9.73 9.73 0 0 1 4.495 4.497l.045.087.126.276.083.193c.025.061.047.119.07.18.04.1.078.2.114.301.009.024.016.049.025.076a9.749 9.749 0 0 1 0 6.38c-.01.025-.016.05-.025.077-.036.101-.074.2-.115.3-.022.059-.044.12-.069.178l-.083.193c-.04.092-.083.184-.126.277-.016.029-.029.058-.045.089a9.75 9.75 0 0 1-4.582 4.538c-.092.045-.186.085-.28.128l-.187.08c-.063.025-.124.05-.187.072a8.68 8.68 0 0 1-.294.113l-.082.027a9.753 9.753 0 0 1-6.372 0l-.081-.027a9.13 9.13 0 0 1-.296-.113 4.598 4.598 0 0 1-.185-.072l-.188-.08c-.095-.043-.187-.083-.28-.128l-.086-.043a9.703 9.703 0 0 1-2.625-1.872 9.71 9.71 0 0 1-1.872-2.623c-.014-.03-.03-.06-.043-.09-.045-.092-.085-.184-.126-.276" style="fill:#67c1be;fill-opacity:1;fill-rule:nonzero;stroke:none;stroke-width:.1" clip-path="url(#f)" transform="matrix(1.33333 0 0 -1.33333 0 216.667)"/><path d="M89.523-13.883H35.748a7.878 7.878 0 0 0-7.88 7.88V44.47a7.879 7.879 0 0 0 7.88 7.879h53.775A7.879 7.879 0 0 0 97.4 44.47V-6.004a7.878 7.878 0 0 0-7.878-7.88" style="fill:#67c1be;fill-opacity:1;fill-rule:nonzero;stroke:none;stroke-width:.1" clip-path="url(#g)" transform="matrix(1.33333 0 0 -1.33998 0 217.014)"/><g clip-path="url(#h)" transform="matrix(.13333 0 0 -.13376 14.43 216.43)"><g clip-path="url(#i)"><path d="M788.656-142.281h-537.75c-43.511 0-78.785 35.269-78.785 78.793V441.25c0 43.512 35.274 78.789 78.785 78.789h537.75c43.516 0 78.789-35.277 78.789-78.789V-63.488c0-43.524-35.273-78.793-78.789-78.793" style="fill:#0a9ea0;fill-opacity:1;fill-rule:nonzero;stroke:none"/></g></g><g clip-path="url(#j)" transform="matrix(.13333 0 0 -.13333 14.43 216.207)"><path d="M516.855 272.602c36.696 0 66.446 29.75 66.446 66.437 0 36.699-29.75 66.449-66.446 66.449-36.699 0-66.449-29.75-66.449-66.449 0-36.687 29.75-66.437 66.449-66.437" style="fill:#0a9ea0;fill-opacity:1;fill-rule:nonzero;stroke:none"/><path d="M516.855 391.559c-28.953 0-52.507-23.571-52.507-52.52 0-28.961 23.554-52.508 52.507-52.508 28.95 0 52.504 23.547 52.504 52.508 0 28.949-23.554 52.52-52.504 52.52zm0-132.899c-44.324 0-80.39 36.051-80.39 80.379 0 44.332 36.066 80.391 80.39 80.391 44.329 0 80.387-36.059 80.387-80.391 0-44.328-36.058-80.379-80.387-80.379" style="fill:#67c1be;fill-opacity:1;fill-rule:nonzero;stroke:none"/><path d="M471.684 1133.93c0-13.25-10.743-23.98-23.993-23.98-13.25 0-23.988 10.73-23.988 23.98s10.738 23.99 23.988 23.99 23.993-10.74 23.993-23.99M540.844 1133.93c0-13.25-10.739-23.98-23.989-23.98s-23.992 10.73-23.992 23.98 10.742 23.99 23.992 23.99 23.989-10.74 23.989-23.99M609.035 1133.93c0-13.25-10.738-23.98-23.988-23.98s-23.992 10.73-23.992 23.98 10.742 23.99 23.992 23.99 23.988-10.74 23.988-23.99" style="fill:#fff;fill-opacity:1;fill-rule:nonzero;stroke:none"/><path d="M518.133 681.508c32.672 0 58.355 29.855 51.277 63.765-4.137 19.825-20.164 35.852-39.992 39.985-33.898 7.066-63.746-18.625-63.746-51.293 0-28.969 23.488-52.457 52.461-52.457" style="fill:#171717;fill-opacity:1;fill-rule:nonzero;stroke:none"/><path d="M347.367 900.293c34.84 0 63.067 28.238 63.067 63.062 0 34.84-28.227 63.065-63.067 63.065-34.836 0-63.062-28.225-63.062-63.065 0-34.824 28.226-63.062 63.062-63.062" style="fill:#d8b039;fill-opacity:1;fill-rule:nonzero;stroke:none"/><path d="M330.441 913.355c14.696 0 26.598 11.915 26.598 26.598 0 14.695-11.902 26.598-26.598 26.598-14.695 0-26.597-11.903-26.597-26.598 0-14.683 11.902-26.598 26.597-26.598" style="fill:#171717;fill-opacity:1;fill-rule:nonzero;stroke:none"/><path d="M678.172 900.293c34.836 0 63.062 28.238 63.062 63.062 0 34.84-28.226 63.065-63.062 63.065-34.84 0-63.067-28.225-63.067-63.065 0-34.824 28.227-63.062 63.067-63.062" style="fill:#d8b039;fill-opacity:1;fill-rule:nonzero;stroke:none"/><path d="M661.242 913.355c14.696 0 26.598 11.915 26.598 26.598 0 14.695-11.902 26.598-26.598 26.598-14.695 0-26.597-11.903-26.597-26.598 0-14.683 11.902-26.598 26.597-26.598" style="fill:#171717;fill-opacity:1;fill-rule:nonzero;stroke:none"/></g><path d="M127.208 44.367H95.882a2 2 0 0 0 0 4h31.326a2 2 0 0 0 0-4" style="fill:#0a9ea0;fill-opacity:1;fill-rule:nonzero;stroke:none;stroke-width:.1" transform="matrix(1.33333 0 0 -1.33333 0 216.667)"/><path d="M127.208 44.367a2 2 0 0 0-2 2v28.265a2 2 0 1 0 4 0V46.367a2 2 0 0 0-2-2" style="fill:#0a9ea0;fill-opacity:1;fill-rule:nonzero;stroke:none;stroke-width:.1" transform="matrix(1.33333 0 0 -1.33333 0 216.667)"/><path d="M123.213 44.612a2.709 2.709 0 0 0-.037.086l-.032.08-.05.133-.012.035a4.342 4.342 0 0 0 0 2.841l.012.034.05.134a3.203 3.203 0 0 0 .125.289l.019.039a4.369 4.369 0 0 0 2.002 2.003l.04.02.123.055.086.037c.026.011.053.02.08.032l.133.05.035.011a4.339 4.339 0 0 0 2.84 0l.035-.01.134-.05.08-.033.086-.037.123-.056.039-.019a4.332 4.332 0 0 0 2.002-2.003l.02-.04c.019-.04.038-.08.056-.122l.037-.086a3.235 3.235 0 0 0 .082-.214l.01-.034a4.343 4.343 0 0 0 0-2.84l-.01-.036a3.202 3.202 0 0 0-.051-.133l-.031-.08-.037-.086-.056-.123-.02-.04a4.344 4.344 0 0 0-2.003-2.002l-.038-.02c-.041-.02-.083-.037-.125-.056l-.083-.036-.083-.032-.131-.05a4.332 4.332 0 0 0-2.875-.012 1.268 1.268 0 0 0-.036.012l-.132.05a3.96 3.96 0 0 0-.082.032l-.084.036-.125.057-.038.019a4.331 4.331 0 0 0-1.17.834c-.35.35-.627.746-.833 1.168l-.02.04c-.02.041-.037.082-.055.123M135.953 81.78v8.693h-17.381V81.77a8.692 8.692 0 0 1 17.382 0l-.001.01M120.888 92.3a2.425 2.425 0 0 1 2.425 2.426v12.364a2.426 2.426 0 1 1-4.851 0V94.726a2.426 2.426 0 0 1 2.426-2.426M127.208 92.3a2.425 2.425 0 0 1 2.425 2.426v2.172a2.426 2.426 0 0 1-4.851 0v-2.172a2.426 2.426 0 0 1 2.426-2.426M133.527 92.3a2.426 2.426 0 0 1 2.426 2.426v2.172a2.425 2.425 0 1 1-4.851 0v-2.172a2.425 2.425 0 0 1 2.425-2.426" style="fill:#67c1be;fill-opacity:1;fill-rule:nonzero;stroke:none;stroke-width:.1" transform="matrix(1.33333 0 0 -1.33333 0 216.667)"/><path d="M32.826 45.23V60.45H14.744V45.23l3.38-21.423h11.322l3.38 21.423" style="fill:#fff;fill-opacity:1;fill-rule:nonzero;stroke:none;stroke-width:.1" transform="matrix(1.33333 0 0 -1.33333 0 216.667)"/><path d="M32.826 45.229h.01zM19.619 25.558h8.331l3.126 19.809v13.331H16.494V45.367zm11.322-3.5H16.628l-3.634 23.171v16.97h21.582l-.022-17.242-3.613-22.9" style="fill:#040606;fill-opacity:1;fill-rule:nonzero;stroke:none;stroke-width:.1" transform="matrix(1.33333 0 0 -1.33333 0 216.667)"/><path d="M31.845 9.899a7.81 7.81 0 1 0-15.622 0 7.81 7.81 0 0 0 15.622 0" style="fill:#fff;fill-opacity:1;fill-rule:nonzero;stroke:none;stroke-width:.1" transform="matrix(1.33333 0 0 -1.33333 0 216.667)"/><path d="M24.034 15.965a6.073 6.073 0 0 1-6.066-6.067 6.073 6.073 0 0 1 6.066-6.065A6.072 6.072 0 0 1 30.1 9.898a6.073 6.073 0 0 1-6.066 6.067zm0-15.62c-5.268 0-9.555 4.285-9.555 9.553 0 5.269 4.287 9.555 9.555 9.555 5.269 0 9.555-4.286 9.555-9.555 0-5.268-4.286-9.553-9.555-9.553" style="fill:#171717;fill-opacity:1;fill-rule:nonzero;stroke:none;stroke-width:.1" transform="matrix(1.33333 0 0 -1.33333 0 216.667)"/></svg>