<svg version="1.1" viewBox="0 0 105.584 186.518" xmlns="http://www.w3.org/2000/svg"><defs id="defs5127"><clipPath id="clippath"><path class="cls-6" d="M104.59 111.71 104.65.16H.37v111.49c0 28.43 23.34 51.47 52.14 51.47s52.14-23.05 52.14-51.47z" id="path5116"/></clipPath><clipPath id="clippath-1"><path class="cls-6" d="M52.98 112.84h29.83v82.19H52.98Z" id="path5119"/></clipPath><clipPath id="clippath-2"><rect class="cls-6" x="18.32" y="53" width="68.6" height="56.85" rx="8.17" ry="8.17" id="rect5122"/></clipPath><style id="style5125">.cls-1{fill:#fff}.cls-2{fill:#67c1be}.cls-4{fill:#0a9ea0}.cls-6{fill:none}.cls-11{fill:#1d1d1b}</style></defs><path d="M52.54 163.02c28.79 0 52.14-23.34 52.14-52.14S81.34 58.74 52.54 58.74.41 82.09.41 110.88s23.34 52.14 52.14 52.14" style="fill:#d4803a" id="path5129"/><path class="cls-4" d="M101.27 153.34c-.66 0-1.3-.32-1.68-.91l-17.02-26.3c-.6-.93-.33-2.17.59-2.77.93-.6 2.17-.33 2.77.59l17.02 26.3c.6.93.33 2.17-.59 2.77-.34.22-.71.32-1.08.32z" id="path5131"/><path class="cls-4" d="M77.54 168.7c-.66 0-1.3-.32-1.68-.91-.6-.93-.33-2.17.59-2.77l23.73-15.36c.93-.6 2.17-.33 2.77.59.6.93.33 2.17-.59 2.77l-23.73 15.36c-.34.22-.71.32-1.08.32z" id="path5133"/><path class="cls-2" d="M100.57 147.04s-.06 0-.09.02c-.03 0-.06.01-.08.02-.05 0-.09.02-.14.03h-.04c-.46.11-.9.3-1.32.57-.42.27-.77.6-1.06.97 0 0-.01.02-.02.03-.03.04-.06.08-.09.11-.02.02-.03.05-.05.07-.02.03-.03.05-.05.08-.02.04-.05.07-.07.11 0 .01-.01.03-.02.04-.24.4-.43.85-.53 1.34-.1.48-.12.97-.07 1.43v.04c0 .04.01.09.02.13 0 .03 0 .06.02.09 0 .03.01.06.02.08 0 .05.02.09.03.14v.04c.11.46.3.9.57 1.32a4.29 4.29 0 0 0 1 1.08c.04.03.08.06.11.09.02.02.05.03.07.05.03.02.05.03.08.05.04.02.08.05.11.07.01 0 .03.01.04.02.4.24.85.42 1.34.53.48.1.97.12 1.43.06h.04c.04 0 .09-.01.13-.02.03 0 .06 0 .09-.02.03 0 .06-.01.08-.02.05 0 .09-.02.14-.03h.03c.46-.11.9-.3 1.32-.57.42-.27.77-.6 1.06-.97 0 0 .02-.02.02-.03.03-.04.06-.08.08-.12.02-.02.03-.05.05-.07.02-.03.03-.05.05-.08.02-.04.05-.08.07-.11 0-.01.01-.03.02-.04.24-.4.42-.85.53-1.33.1-.49.12-.97.06-1.44v-.04c0-.05-.01-.09-.02-.14 0-.03 0-.06-.01-.09 0-.03-.01-.06-.02-.09 0-.05-.02-.09-.03-.14 0-.01 0-.02-.01-.04-.11-.46-.3-.9-.57-1.32-.27-.42-.6-.77-.97-1.06l-.03-.02s-.08-.06-.11-.08c-.02-.02-.05-.03-.07-.05l-.08-.05s-.08-.05-.12-.07c-.01 0-.02-.01-.04-.02-.4-.24-.85-.43-1.34-.53-.48-.1-.97-.12-1.43-.07h-.04c-.05 0-.09.01-.13.02" id="path5135"/><g clip-path="url(#clippath)" id="g5177" transform="translate(0 -.16)"><path class="cls-4" d="M37.84 92.95v48.55c0 3.61 2.92 6.53 6.53 6.53h17.09c3.61 0 6.53-2.92 6.53-6.53V92.95" id="path5137"/><rect class="cls-2" x="13.4" y="127.07" width="79.24" height="56.68" rx="9.72" ry="9.72" transform="rotate(-90 53.015 155.415)" id="rect5139"/><rect class="cls-4" x="13.21" y="126.92" width="79.54" height="56.68" rx="9.72" ry="9.72" transform="rotate(-90 52.975 155.265)" clip-path="url(#clippath-1)" id="rect5141"/><rect class="cls-4" x="65.75" y="112.06" width="20.49" height="27.54" rx="6.96" ry="6.96" transform="rotate(-90 75.995 125.835)" id="rect5143"/><path class="cls-2" d="M79.86 41.79a56.95 56.95 0 0 0-4.33-4.32c1.61-1.45 3.06-2.91 4.33-4.32 6.76-7.55 6.52-12 5.12-14.41-1.39-2.41-5.13-4.84-15.04-2.77-1.86.39-3.85.92-5.91 1.59-.46-2.12-.99-4.11-1.58-5.91C59.3 2.02 55.33 0 52.55 0c-2.78 0-6.76 2.02-9.92 11.64-.59 1.82-1.13 3.8-1.58 5.91-2.06-.66-4.04-1.2-5.91-1.59-9.91-2.08-13.65.36-15.04 2.77-1.39 2.41-1.63 6.86 5.12 14.41 1.26 1.41 2.72 2.87 4.33 4.32a60.877 60.877 0 0 0-4.33 4.32c-6.76 7.55-6.52 12-5.12 14.41.94 1.62 3.15 3.55 8.37 3.55 1.94 0 4.18-.26 6.67-.79 1.85-.39 3.84-.92 5.91-1.59.45 2.11.98 4.1 1.58 5.91 3.16 9.62 7.14 11.64 9.92 11.64 2.78 0 6.76-2.02 9.92-11.64.59-1.8 1.12-3.79 1.58-5.91 2.07.67 4.05 1.2 5.91 1.59 2.49.52 4.74.79 6.67.79 5.22 0 7.43-1.93 8.37-3.55 1.39-2.41 1.63-6.86-5.13-14.41zm-13.93-7.65c1.54 1.1 3.01 2.21 4.38 3.33a88.01 88.01 0 0 1-4.38 3.33c.03-1.11.05-2.22.05-3.33 0-1.11-.02-2.23-.05-3.33zm7.01 1.09a94.034 94.034 0 0 0-7.22-5.37c-.22-3.1-.57-6.11-1.04-8.94 2.09-.69 4.09-1.23 5.96-1.62 2.23-.47 4.24-.7 5.97-.7 2.82 0 4.75.65 5.44 1.84 1.14 1.97-.62 5.87-4.71 10.45a54.84 54.84 0 0 1-4.39 4.35zm-7.22 9.85c2.58-1.74 5.01-3.55 7.22-5.37 1.64 1.47 3.11 2.93 4.39 4.35 4.09 4.57 5.85 8.48 4.71 10.45-1.12 1.94-5.49 2.38-11.4 1.14-1.87-.39-3.87-.94-5.96-1.62.48-2.83.83-5.84 1.04-8.94zm-3.6 2.32c-.18 1.88-.41 3.71-.69 5.46-1.65-.63-3.35-1.34-5.08-2.13.99-.54 1.97-1.08 2.91-1.62.95-.55 1.91-1.12 2.86-1.71zm-16.3 1.71c.94.55 1.92 1.09 2.91 1.62-1.72.78-3.42 1.5-5.07 2.13-.28-1.75-.51-3.59-.69-5.46.94.58 1.9 1.15 2.86 1.71zm-2.86-21.57c.18-1.87.41-3.71.69-5.46 1.66.63 3.36 1.35 5.07 2.13-.97.52-1.95 1.07-2.91 1.62a98.2 98.2 0 0 0-2.86 1.71zm16.3-1.71c-.95-.55-1.93-1.1-2.91-1.62 1.72-.78 3.42-1.5 5.08-2.13.28 1.75.51 3.58.69 5.46a98.2 98.2 0 0 0-2.86-1.71zm-6.72 45.71c-2.27 0-4.78-3.48-6.69-9.31a53.78 53.78 0 0 1-1.57-5.97c2.68-1 5.46-2.2 8.26-3.57 2.8 1.37 5.58 2.57 8.26 3.57-.45 2.15-.98 4.16-1.57 5.97-1.91 5.83-4.41 9.31-6.69 9.31zm0-22.64c-1.68-.86-3.37-1.77-5.02-2.73-1.65-.96-3.29-1.96-4.87-2.99-.1-1.87-.15-3.79-.15-5.71s.05-3.84.15-5.71c1.58-1.03 3.22-2.03 4.87-2.99 1.65-.96 3.34-1.87 5.02-2.73 1.68.85 3.37 1.77 5.02 2.73 1.66.96 3.3 1.96 4.87 2.99a107.96 107.96 0 0 1 0 11.42c-1.57 1.02-3.21 2.03-4.87 2.99-1.65.95-3.34 1.87-5.02 2.73zm0-45.49c2.27 0 4.77 3.48 6.69 9.31.59 1.81 1.12 3.82 1.57 5.97-2.69 1-5.47 2.2-8.26 3.57-2.8-1.37-5.58-2.56-8.26-3.57.45-2.15.98-4.15 1.57-5.97 1.91-5.83 4.42-9.31 6.69-9.31zm-13.39 37.4c-1.54-1.1-3.01-2.21-4.38-3.33 1.37-1.12 2.84-2.23 4.38-3.33-.03 1.12-.05 2.24-.05 3.33 0 1.09.02 2.21.05 3.33zm-7.01-5.57c-1.63-1.46-3.11-2.92-4.39-4.35-4.09-4.57-5.85-8.48-4.72-10.45.71-1.22 2.62-1.85 5.4-1.85 1.7 0 3.73.23 6.01.71 1.87.39 3.87.94 5.96 1.62-.47 2.82-.82 5.83-1.04 8.94-2.57 1.73-5 3.54-7.22 5.37zm0 4.47c2.21 1.83 4.64 3.63 7.22 5.37.22 3.11.57 6.12 1.04 8.94-2.09.69-4.1 1.23-5.96 1.62-6 1.26-10.27.83-11.4-1.14-1.14-1.97.63-5.88 4.72-10.45 1.27-1.42 2.75-2.88 4.39-4.35z" id="path5145"/><path class="cls-4" d="M56.54 38.4s.02-.06.04-.09c.01-.03.02-.05.03-.08.02-.04.03-.09.05-.13 0-.01 0-.02.01-.04.15-.45.24-.92.24-1.42 0-.5-.08-.97-.24-1.42 0-.01 0-.02-.01-.03-.02-.05-.03-.09-.05-.13-.01-.03-.02-.05-.03-.08-.01-.03-.02-.06-.04-.09l-.06-.12c0-.01-.01-.03-.02-.04-.21-.42-.48-.82-.83-1.17s-.75-.63-1.17-.83c-.01 0-.03-.01-.04-.02l-.12-.06c-.03-.01-.06-.02-.09-.04-.03-.01-.05-.02-.08-.03-.04-.02-.09-.03-.13-.05-.01 0-.02 0-.04-.01-.44-.15-.92-.24-1.42-.24-.5 0-.97.08-1.42.24-.01 0-.02 0-.03.01-.04.02-.09.03-.13.05-.03.01-.05.02-.08.03-.03.01-.06.02-.09.04l-.12.06c-.01 0-.03.01-.04.02-.42.21-.82.48-1.17.83s-.63.75-.83 1.17c0 .01-.01.03-.02.04l-.06.12c-.01.03-.02.06-.04.09-.01.03-.02.05-.03.08-.02.04-.03.09-.05.13 0 .01 0 .02-.01.03-.15.45-.24.92-.24 1.42 0 .5.08.98.24 1.42 0 .01 0 .02.01.04.02.04.03.09.05.13.01.03.02.05.03.08.01.03.02.06.04.09l.06.12c0 .01.01.03.02.04.21.42.48.82.83 1.17s.75.63 1.17.83c.01 0 .03.01.04.02l.12.06c.03.01.06.02.08.04.03.01.06.02.08.03.04.02.09.03.13.05.01 0 .02 0 .04.01.44.15.92.24 1.42.24.5 0 .97-.08 1.42-.24H54s.09-.04.13-.06c.03-.01.06-.02.08-.03l.08-.04.12-.06c.01 0 .03-.01.04-.02.42-.21.82-.48 1.17-.83s.63-.75.83-1.17c0-.01.01-.03.02-.04l.06-.12" id="path5147"/><path style="fill:none;stroke:#0a9ea0;stroke-width:3.4px" d="M52.55 60.05V34.27" id="path5149"/><path class="cls-4" d="M44 43.05h17.09c3.61 0 6.53 2.93 6.53 6.53v48.55c0 3.61-2.93 6.53-6.53 6.53H44c-3.61 0-6.53-2.93-6.53-6.53V49.59c0-3.61 2.93-6.53 6.53-6.53z" id="path5151"/><path class="cls-4" d="M10.07 69.54h85.71c3.61 0 6.53 2.93 6.53 6.53v6.53c0 3.61-2.93 6.53-6.53 6.53H10.07c-3.61 0-6.53-2.93-6.53-6.53v-6.53c0-3.61 2.93-6.53 6.53-6.53z" id="path5153"/><rect class="cls-2" x="18.32" y="53" width="68.6" height="56.85" rx="8.17" ry="8.17" id="rect5155"/><path class="cls-4" d="M52.62 49.74h50.02v84.53H52.62Z" clip-path="url(#clippath-2)" id="path5157"/><path class="cls-11" d="M26.43 104.41a2.4 2.4 0 1 0-.001-4.801 2.4 2.4 0 0 0 .001 4.801m6.86 0a2.4 2.4 0 1 0-.001-4.801 2.4 2.4 0 0 0 .001 4.801m40.12 0a2.4 2.4 0 1 0-.001-4.801 2.4 2.4 0 0 0 .001 4.801m6.87 0a2.4 2.4 0 1 0-.001-4.801 2.4 2.4 0 0 0 .001 4.801M45.85 64.5a2.4 2.4 0 1 0-.001-4.801 2.4 2.4 0 0 0 .001 4.801m6.86 0a2.4 2.4 0 1 0-.001-4.801 2.4 2.4 0 0 0 .001 4.801m6.87 0a2.4 2.4 0 1 0-.001-4.801 2.4 2.4 0 0 0 .001 4.801" id="path5159"/><path d="M35.91 136.08H22.28c-3.84 0-6.96-3.11-6.96-6.96v-6.58c0-3.84 3.11-6.96 6.96-6.96h13.63c3.84 0 6.96 3.11 6.96 6.96v6.58" style="fill:#32b4b5" id="path5161"/><rect class="cls-2" x="35.11" y="132.46" width="36.51" height="29.83" rx="6.96" ry="6.96" transform="rotate(-90 53.37 147.38)" id="rect5163"/><path class="cls-4" d="M61.33 167.14H45.41c-4.66 0-8.46-3.79-8.46-8.46v-22.6c0-4.66 3.79-8.46 8.46-8.46h15.92c4.66 0 8.46 3.79 8.46 8.46v22.6c0 4.66-3.79 8.46-8.46 8.46zm-15.92-36.51c-3.01 0-5.46 2.45-5.46 5.46v22.6c0 3.01 2.45 5.46 5.46 5.46h15.92c3.01 0 5.46-2.45 5.46-5.46v-22.6c0-3.01-2.45-5.46-5.46-5.46z" id="path5165"/><path class="cls-1" d="M69.46 91.38c4.89 0 8.85-3.96 8.85-8.85s-3.96-8.85-8.85-8.85-8.85 3.96-8.85 8.85 3.96 8.85 8.85 8.85m-34.84 0c4.89 0 8.85-3.96 8.85-8.85s-3.96-8.85-8.85-8.85-8.85 3.96-8.85 8.85 3.96 8.85 8.85 8.85" id="path5167"/><path class="cls-11" d="M68.47 88.56c1.29 0 2.34-1.05 2.34-2.34 0-1.29-1.05-2.34-2.34-2.34-1.29 0-2.34 1.05-2.34 2.34 0 1.29 1.05 2.34 2.34 2.34m-34.84.67c1.29 0 2.34-1.05 2.34-2.34 0-1.29-1.05-2.34-2.34-2.34-1.29 0-2.34 1.05-2.34 2.34 0 1.29 1.05 2.34 2.34 2.34" id="path5169"/><path class="cls-4" d="M43.29 76.7c-1.95-2.99-5.09-4.93-8.65-4.92-3.6.02-6.76 2.04-8.68 5.11z" id="path5171"/><path class="cls-2" d="M41.37 76.7a9.058 9.058 0 0 0-6.71-2.93c-2.7.01-5.12 1.2-6.78 3.08zm21.35-.05a9.07 9.07 0 0 1 13.48.06l-13.49-.07Z" id="path5173"/><path class="cls-11" d="M57.99 97.76a5.16 5.16 0 1 1-10.32 0H58Z" id="path5175"/></g><path class="cls-1" d="m3.19 118.12-1.71 52.1H42.4l-.68-52.25z" id="path5179"/><path d="M34.01 134.15H9.83c-1.04 0-1.85-.81-1.85-1.85s.81-1.85 1.85-1.85H34c1.03 0 1.85.81 1.85 1.85s-.81 1.85-1.85 1.85m.01 9.61H9.83c-1.04 0-1.85-.81-1.85-1.85s.81-1.85 1.85-1.85H34c1.03 0 1.85.81 1.85 1.85s-.81 1.85-1.85 1.85m.01 9.61H9.83c-1.04 0-1.85-.81-1.85-1.85s.81-1.85 1.85-1.85H34c1.03 0 1.85.81 1.85 1.85s-.81 1.85-1.85 1.85" id="path5181"/><path d="M7.02 118.95c-1.85 0-3.33 1.43-3.33 3.22v43.12c0 1.79 1.48 3.22 3.33 3.22h30.46c1.85 0 3.33-1.43 3.33-3.22v-43.12c0-1.79-1.48-3.22-3.33-3.22zm30.53 53.13H7.02c-3.84 0-7.02-3.07-7.02-6.79v-43.12c0-3.72 3.18-6.79 7.02-6.79h30.46c3.84 0 7.02 3.07 7.02 6.79v43.12c.07 3.79-3.1 6.79-6.95 6.79" id="path5183"/><path class="cls-2" d="M78.87 165.9c-2.61-4.03-7.99-5.18-12.02-2.58l-7.3 4.72 9.44 14.59 7.3-4.72c4.03-2.61 5.18-7.99 2.58-12.02z" id="path5185"/><rect class="cls-2" x="-178.165" y="-60.361" width="4.85" height="17.22" rx="2.43" ry="2.43" transform="rotate(-122.91)" id="rect5187"/><rect class="cls-2" x="-184.485" y="-50.173" width="4.85" height="7.02" rx="2.43" ry="2.43" transform="rotate(-122.91)" id="rect5189"/><rect class="cls-2" x="-190.804" y="-50.174" width="4.85" height="7.02" rx="2.43" ry="2.43" transform="rotate(-122.91)" id="rect5191"/></svg>