<svg version="1.1" viewBox="0 0 175 248.7" xmlns="http://www.w3.org/2000/svg"><defs><clipPath clipPathUnits="userSpaceOnUse" id="a"><path d="m1042.75 624.359.56 1115.251H.617V624.941c0-284.23 233.418-514.632 521.36-514.632 287.941 0 521.363 230.402 521.363 514.632z"/></clipPath><clipPath clipPathUnits="userSpaceOnUse" id="b"><path d="m1042.75 624.359.56 1115.251H.617V624.941c0-284.23 233.418-514.632 521.36-514.632 287.941 0 521.363 230.402 521.363 514.632z"/></clipPath><clipPath clipPathUnits="userSpaceOnUse" id="c"><path d="M824.016-208.57H525.68v821.922h298.336z"/></clipPath><clipPath clipPathUnits="userSpaceOnUse" id="d"><path d="m1042.75 624.359.56 1115.251H.617V624.941c0-284.23 233.418-514.632 521.36-514.632 287.941 0 521.363 230.402 521.363 514.632z"/></clipPath><clipPath clipPathUnits="userSpaceOnUse" id="e"><path d="m1042.75 624.359.56 1115.251H.617V624.941c0-284.23 233.418-514.632 521.36-514.632 287.941 0 521.363 230.402 521.363 514.632z"/></clipPath><clipPath clipPathUnits="userSpaceOnUse" id="f"><path d="M260.77 1211.77c-45.11 0-81.668-36.56-81.668-81.67V724.93c0-45.11 36.558-81.668 81.668-81.668h522.679c45.102 0 81.672 36.558 81.672 81.668v405.17c0 45.11-36.57 81.67-81.672 81.67z"/></clipPath><clipPath clipPathUnits="userSpaceOnUse" id="g"><path d="m1042.75 624.359.56 1115.251H.617V624.941c0-284.23 233.418-514.632 521.36-514.632 287.941 0 521.363 230.402 521.363 514.632z"/></clipPath></defs><path d="M521.359 109.969c287.942 0 521.361 233.422 521.361 521.359 0 287.945-233.419 521.372-521.361 521.372C233.422 1152.7 0 919.273 0 631.328c0-287.937 233.422-521.359 521.359-521.359" style="fill:#d07435;fill-opacity:1;fill-rule:nonzero;stroke:none" transform="matrix(.13333 0 0 -.13333 9.3 231.947)"/><path d="M1155.62 463.488H842.355c-11.046 0-20 8.953-20 20 0 11.043 8.954 20 20 20h313.265c11.04 0 20-8.957 20-20 0-11.047-8.96-20-20-20" style="fill:#0a9ea0;fill-opacity:1;fill-rule:nonzero;stroke:none" transform="matrix(.13333 0 0 -.13333 9.3 231.947)"/><path d="M1155.62 463.488c-11.05 0-20 8.953-20 20v282.653c0 11.043 8.95 20 20 20 11.04 0 20-8.957 20-20V483.488c0-11.047-8.96-20-20-20" style="fill:#0a9ea0;fill-opacity:1;fill-rule:nonzero;stroke:none" transform="matrix(.13333 0 0 -.13333 9.3 231.947)"/><path d="M1115.68 465.949c-.13.289-.25.571-.37.86-.11.261-.21.531-.32.8-.17.442-.34.879-.5 1.332l-.12.348a43.352 43.352 0 0 0-2.38 14.199 43.419 43.419 0 0 0 3 15.891c.11.269.21.531.32.801.12.289.24.57.37.859.18.41.36.82.56 1.231.06.128.13.261.19.39a43.132 43.132 0 0 0 8.34 11.692c3.5 3.5 7.46 6.269 11.68 8.339.14.059.27.129.4.188.41.191.82.383 1.23.562.28.118.57.25.86.368.26.113.53.211.8.32.44.172.88.34 1.33.5.12.043.23.082.35.109a43.28 43.28 0 0 0 14.2 2.391c4.98 0 9.75-.848 14.21-2.391.12-.027.23-.066.34-.109.45-.16.9-.328 1.34-.5.27-.109.53-.207.8-.32.29-.118.57-.25.86-.368.41-.179.82-.371 1.23-.562.13-.059.26-.129.39-.188a43.728 43.728 0 0 0 11.69-8.339 43.31 43.31 0 0 0 8.33-11.692c.07-.129.13-.262.2-.39.19-.411.38-.821.56-1.231.12-.289.25-.57.37-.859.11-.27.21-.532.31-.801.18-.438.35-.891.51-1.34.04-.109.07-.219.11-.34a43.424 43.424 0 0 0 0-28.41c-.04-.117-.07-.23-.11-.348-.16-.453-.33-.89-.51-1.332-.1-.269-.2-.539-.31-.8-.12-.289-.25-.571-.37-.86-.18-.41-.37-.82-.56-1.23-.07-.129-.13-.258-.2-.399a43.452 43.452 0 0 0-8.33-11.679 43.25 43.25 0 0 0-11.7-8.34c-.12-.063-.25-.129-.38-.192-.41-.199-.83-.379-1.25-.57l-.83-.359c-.28-.11-.55-.219-.83-.321-.43-.168-.87-.339-1.31-.5l-.37-.121a43.32 43.32 0 0 0-14.19-2.379c-4.96 0-9.74.84-14.19 2.379-.12.043-.24.082-.36.121-.45.161-.88.332-1.32.5-.27.102-.55.211-.82.321-.28.121-.56.242-.84.359-.42.191-.83.371-1.25.57-.13.063-.25.129-.38.192a43.205 43.205 0 0 0-11.69 8.34 43.272 43.272 0 0 0-8.34 11.679c-.06.141-.13.27-.19.399-.2.41-.38.82-.56 1.23" style="fill:#67c1be;fill-opacity:1;fill-rule:nonzero;stroke:none" transform="matrix(.13333 0 0 -.13333 9.3 231.947)"/><g clip-path="url(#a)" transform="matrix(.13333 0 0 -.13333 9.3 231.947)"><path d="M374.352 812.262V326.809c0-36.079 29.25-65.329 65.332-65.329h170.91c36.078 0 65.328 29.25 65.328 65.329v485.453" style="fill:#0a9ea0;fill-opacity:1;fill-rule:nonzero;stroke:none"/><path d="M809.523 486.621v-597.98c0-53.692-43.523-97.211-97.214-97.211H339.898c-53.687 0-97.214 43.519-97.214 97.211v597.98c0 53.688 43.527 97.207 97.214 97.207h372.411c53.691 0 97.214-43.519 97.214-97.207" style="fill:#67c1be;fill-opacity:1;fill-rule:nonzero;stroke:none"/></g><g clip-path="url(#b)" transform="matrix(.13333 0 0 -.13333 9.3 231.947)"><g clip-path="url(#c)"><path d="M809.102 489.578v-600.937c0-53.692-43.528-97.211-97.215-97.211h-372.41c-53.692 0-97.215 43.519-97.215 97.211v600.937c0 53.692 43.523 97.211 97.215 97.211h372.41c53.687 0 97.215-43.519 97.215-97.211" style="fill:#0a9ea0;fill-opacity:1;fill-rule:nonzero;stroke:none"/></g></g><g clip-path="url(#d)" transform="matrix(.13333 0 0 -.13333 9.3 231.947)"><path d="M893.578 516.32v-65.781c0-38.43-31.144-69.57-69.562-69.57H687.699c-38.418 0-69.566 31.14-69.566 69.57v65.781c0 38.418 31.148 69.571 69.566 69.571h136.317c38.418 0 69.562-31.153 69.562-69.571" style="fill:#0a9ea0;fill-opacity:1;fill-rule:nonzero;stroke:none"/><path d="M317.363 1344.77c22.117-18.25 46.395-36.31 72.207-53.72 2.176-31.11 5.676-61.16 10.422-89.39-20.933-6.88-40.976-12.34-59.609-16.24-60.039-12.55-102.656-8.3-114.043 11.39-11.371 19.7 6.254 58.75 47.152 104.46 12.762 14.25 27.512 28.88 43.871 43.5zm0 44.74c-16.347 14.61-31.097 29.24-43.867 43.51-40.902 45.7-58.527 84.75-47.156 104.45 11.371 19.7 54.027 23.95 114.043 11.39 18.68-3.91 38.726-9.37 59.609-16.24-4.746-28.23-8.246-58.28-10.422-89.39-25.734-17.34-50.011-35.41-72.207-53.72zm70.09-55.67c-15.336 10.93-30.051 22.11-43.824 33.3 13.73 11.16 28.441 22.34 43.824 33.31-.332-11.2-.5-22.39-.5-33.31 0-10.92.168-22.1.5-33.3zM438.738 1555c4.485 21.5 9.774 41.59 15.731 59.74 19.136 58.26 44.14 93.06 66.894 93.06 22.746 0 47.75-34.79 66.891-93.06 5.945-18.13 11.238-38.22 15.738-59.74-26.894-10.05-54.683-22.04-82.629-35.68-27.933 13.63-55.711 25.62-82.625 35.68zm82.625-302.09a1081.606 1081.606 0 0 0-50.218 27.25 1087.917 1087.917 0 0 0-48.711 29.87c-.996 18.76-1.5 37.96-1.5 57.11s.504 38.36 1.5 57.12a1108.137 1108.137 0 0 0 48.711 29.86c16.574 9.56 33.46 18.73 50.218 27.24 16.778-8.52 33.664-17.69 50.211-27.24a1098.047 1098.047 0 0 0 48.715-29.86 1085.498 1085.498 0 0 0 0-114.23 1080.406 1080.406 0 0 0-48.715-29.87 1085.643 1085.643 0 0 0-50.211-27.25zm0-37.94c28-13.67 55.782-25.67 82.629-35.68-4.5-21.54-9.793-41.63-15.738-59.74-19.141-58.27-44.145-93.07-66.891-93.07-22.75 0-47.758 34.79-66.894 93.07-5.957 18.14-11.246 38.22-15.731 59.74 26.86 10.02 54.645 22.02 82.625 35.68zm67.203 268.57a1122.428 1122.428 0 0 1-29.097 16.23c17.172 7.82 34.215 14.97 50.758 21.28 2.808-17.55 5.136-35.88 6.929-54.59a1127.062 1127.062 0 0 1-28.59 17.08zm-163.003-17.08c1.808 18.79 4.136 37.12 6.941 54.59 16.59-6.33 33.625-13.48 50.746-21.28a1129.737 1129.737 0 0 1-29.094-16.23 1141.263 1141.263 0 0 1-28.593-17.08zm28.593-215.72c9.379-5.42 19.149-10.86 29.094-16.22-17.148-7.82-34.187-14.97-50.746-21.3-2.805 17.48-5.133 35.81-6.941 54.6 9.453-5.84 19.054-11.57 28.593-17.08zm163 17.08c-1.793-18.71-4.121-37.04-6.929-54.6-16.52 6.31-33.555 13.46-50.758 21.3 9.886 5.32 19.66 10.77 29.097 16.22 9.606 5.55 19.2 11.28 28.59 17.08zm36 23.23c25.86 17.44 50.137 35.5 72.207 53.72 16.414-14.68 31.172-29.31 43.867-43.49 40.899-45.71 58.516-84.76 47.149-104.47-11.199-19.41-54.883-23.78-114.043-11.39-18.621 3.89-38.672 9.36-59.609 16.24 4.765 28.33 8.269 58.39 10.429 89.39zm72.207 98.46c-22.148 18.28-46.425 36.34-72.207 53.72-2.16 31-5.664 61.06-10.429 89.39 20.886 6.87 40.937 12.33 59.609 16.24 22.324 4.68 42.391 7.05 59.668 7.05 28.203 0 47.519-6.55 54.375-18.44 11.379-19.7-6.25-58.75-47.149-104.45-12.707-14.22-27.46-28.84-43.867-43.51zm-70.09 10.94c15.403-10.99 30.11-22.17 43.821-33.31-13.75-11.17-28.465-22.35-43.821-33.3a1123.558 1123.558 0 0 1 0 66.61zm139.282-76.53c-12.641 14.13-27.2 28.65-43.293 43.22 16.093 14.56 30.644 29.08 43.293 43.21 67.539 75.49 65.144 120.03 51.25 144.11-13.899 24.07-51.223 48.41-150.422 27.66-18.606-3.9-38.457-9.23-59.063-15.87-4.558 21.21-9.875 41.07-15.793 59.09-31.597 96.24-71.367 116.44-99.164 116.44-27.8 0-67.57-20.2-99.175-116.44-5.93-18.11-11.239-37.97-15.782-59.09-20.617 6.64-40.476 11.97-59.058 15.87-99.157 20.76-136.528-3.58-150.426-27.66-13.906-24.08-16.305-68.62 51.254-144.11 12.672-14.16 27.222-28.69 43.277-43.21-16.062-14.53-30.609-29.06-43.281-43.22-67.551-75.48-65.156-120.03-51.25-144.1 9.355-16.21 31.473-35.52 83.695-35.52 19.348 0 41.797 2.65 66.731 7.86 18.535 3.88 38.386 9.22 59.058 15.88 4.547-21.15 9.856-41.01 15.789-59.09 31.59-96.24 71.368-116.438 99.168-116.438 27.797 0 67.571 20.198 99.164 116.438 5.914 17.99 11.223 37.86 15.793 59.09 20.653-6.66 40.508-12 59.063-15.88 24.922-5.21 47.375-7.86 66.726-7.86 52.207 0 74.329 19.31 83.704 35.52 13.886 24.08 16.269 68.63-51.258 144.1" style="fill:#67c1be;fill-opacity:1;fill-rule:nonzero;stroke:none"/><path d="M561.305 1357.78c.129.29.25.57.371.86.109.26.211.53.32.8.168.44.34.88.5 1.33.039.12.078.23.117.35a43.276 43.276 0 0 1 2.383 14.2 43.336 43.336 0 0 1-2.5 14.55c-.16.45-.332.9-.5 1.34l-.32.8c-.121.29-.242.57-.371.86-.18.41-.36.82-.559 1.23-.062.13-.133.26-.191.39a43.073 43.073 0 0 1-8.34 11.69c-3.5 3.5-7.461 6.27-11.68 8.34-.14.06-.269.13-.398.19-.41.19-.821.38-1.231.56-.281.12-.57.25-.859.37-.262.11-.531.21-.801.32-.441.17-.883.34-1.332.5-.117.04-.23.08-.348.11a43.405 43.405 0 0 1-28.41 0c-.121-.03-.23-.07-.34-.11-.453-.16-.902-.33-1.339-.5-.274-.11-.532-.21-.801-.32-.289-.12-.571-.25-.86-.37-.41-.18-.82-.37-1.23-.56-.133-.06-.262-.13-.391-.19a43.768 43.768 0 0 1-11.691-8.34c-3.5-3.5-6.27-7.46-8.328-11.69-.071-.13-.129-.26-.199-.39-.192-.41-.383-.82-.563-1.23-.117-.29-.25-.57-.367-.86-.113-.27-.211-.53-.313-.8-.179-.44-.347-.89-.507-1.34-.043-.11-.071-.22-.114-.34a43.442 43.442 0 0 1-2.386-14.21c0-4.97.847-9.75 2.386-14.2.043-.12.071-.23.114-.35.16-.45.328-.89.507-1.33.102-.27.2-.54.313-.8.117-.29.25-.57.367-.86.18-.41.371-.82.563-1.23.07-.13.128-.26.199-.4a43.426 43.426 0 0 1 20.027-20.02c.121-.06.25-.13.383-.19.41-.2.828-.38 1.25-.57.269-.12.551-.24.828-.36.281-.11.551-.22.832-.32.43-.17.867-.34 1.309-.5.121-.04.242-.08.371-.12a43.28 43.28 0 0 1 14.187-2.38c4.961 0 9.742.84 14.192 2.38l.359.12c.449.16.883.33 1.32.5.27.1.551.21.821.32l.84.36c.421.19.832.37 1.25.57.128.06.25.13.378.19a43.255 43.255 0 0 1 11.692 8.34 43.18 43.18 0 0 1 8.34 11.68c.058.14.129.27.191.4.199.41.379.82.559 1.23" style="fill:#0a9ea0;fill-opacity:1;fill-rule:nonzero;stroke:none"/><path d="M521.363 1141.23v257.81" style="fill:none;stroke:#0a9ea0;stroke-width:34;stroke-linecap:butt;stroke-linejoin:miter;stroke-miterlimit:4;stroke-dasharray:none;stroke-opacity:1"/><path d="M370.574 760.461c0-36.082 29.25-65.34 65.332-65.34h170.91c36.079 0 65.329 29.258 65.329 65.34v485.449c0 36.08-29.25 65.33-65.329 65.33h-170.91c-36.082 0-65.332-29.25-65.332-65.33V760.461" style="fill:#0a9ea0;fill-opacity:1;fill-rule:nonzero;stroke:none"/><path d="M96.578 1046.39c-36.082 0-65.34-29.25-65.34-65.335v-65.34c0-36.078 29.258-65.34 65.34-65.34h857.129c36.078 0 65.333 29.262 65.333 65.34v65.34c0 36.085-29.255 65.335-65.333 65.335H96.578" style="fill:#0a9ea0;fill-opacity:1;fill-rule:nonzero;stroke:none"/><path d="M260.77 1211.77c-45.102 0-81.672-36.56-81.672-81.67V724.93c0-45.102 36.57-81.668 81.672-81.668h522.679c45.11 0 81.668 36.566 81.668 81.668v405.17c0 45.11-36.558 81.67-81.668 81.67H260.77" style="fill:#67c1be;fill-opacity:1;fill-rule:nonzero;stroke:none"/></g><g clip-path="url(#e)" transform="matrix(.13333 0 0 -.13333 9.3 231.947)"><g clip-path="url(#f)"><path d="M522.109 399.16h500.221v845.27H522.109V399.16" style="fill:#0a9ea0;fill-opacity:1;fill-rule:nonzero;stroke:none"/></g></g><g clip-path="url(#g)" transform="matrix(.13333 0 0 -.13333 9.3 231.947)"><path d="M260.172 697.641c13.25 0 23.988 10.738 23.988 23.988s-10.738 23.992-23.988 23.992-23.992-10.742-23.992-23.992 10.742-23.988 23.992-23.988M328.848 697.641c13.25 0 23.988 10.738 23.988 23.988s-10.738 23.992-23.988 23.992-23.993-10.742-23.993-23.992 10.743-23.988 23.993-23.988M730.016 697.641c13.25 0 23.988 10.738 23.988 23.988s-10.738 23.992-23.988 23.992-23.993-10.742-23.993-23.992 10.743-23.988 23.993-23.988M798.691 697.641c13.25 0 23.989 10.738 23.989 23.988s-10.739 23.992-23.989 23.992-23.992-10.742-23.992-23.992 10.742-23.988 23.992-23.988M454.375 1096.79c13.25 0 23.988 10.73 23.988 23.98s-10.738 24-23.988 24-23.988-10.75-23.988-24 10.738-23.98 23.988-23.98M523.051 1096.79c13.25 0 23.992 10.73 23.992 23.98s-10.742 24-23.992 24-23.988-10.75-23.988-24 10.738-23.98 23.988-23.98M591.727 1096.79c13.25 0 23.992 10.73 23.992 23.98s-10.742 24-23.992 24-23.989-10.75-23.989-24 10.739-23.98 23.989-23.98" style="fill:#171717;fill-opacity:1;fill-rule:nonzero;stroke:none"/><path d="M694.414 837.594c48.883 0 88.5 39.621 88.5 88.5s-39.617 88.496-88.5 88.496c-48.879 0-88.5-39.617-88.5-88.496s39.621-88.5 88.5-88.5M346 837.594c48.883 0 88.5 39.621 88.5 88.5s-39.617 88.496-88.5 88.496c-48.879 0-88.5-39.617-88.5-88.496s39.621-88.5 88.5-88.5" style="fill:#fff;fill-opacity:1;fill-rule:nonzero;stroke:none"/><path d="M680.32 862.52c12.95 0 23.442 10.5 23.442 23.441 0 12.949-10.492 23.437-23.442 23.437-12.949 0-23.437-10.488-23.437-23.437 0-12.941 10.488-23.441 23.437-23.441M326.586 862.52c12.949 0 23.437 10.5 23.437 23.441 0 12.949-10.488 23.437-23.437 23.437-12.953 0-23.441-10.488-23.441-23.437 0-12.941 10.488-23.441 23.441-23.441M525.238 695.539c28.981 0 52.457 23.492 52.457 52.457 0 28.981-23.476 52.473-52.457 52.473-28.968 0-52.461-23.492-52.461-52.473 0-28.965 23.493-52.457 52.461-52.457" style="fill:#171717;fill-opacity:1;fill-rule:nonzero;stroke:none"/><path d="M355.02 380.969H218.707c-38.422 0-69.566 31.14-69.566 69.57v65.781c0 38.418 31.144 69.571 69.566 69.571H355.02c38.421 0 69.566-31.153 69.566-69.571v-65.781" style="fill:#67c1be;fill-opacity:1;fill-rule:nonzero;stroke:none"/><path d="M678.75 380.969V154.988c0-38.418-31.145-69.566-69.566-69.566H449.996c-38.418 0-69.566 31.148-69.566 69.566v225.981c0 38.422 31.148 69.57 69.566 69.57h159.188c38.421 0 69.566-31.148 69.566-69.57" style="fill:#67c1be;fill-opacity:1;fill-rule:nonzero;stroke:none"/><path d="M449.996 435.539c-30.086 0-54.562-24.48-54.562-54.57V154.988c0-30.09 24.476-54.566 54.562-54.566h159.192c30.082 0 54.566 24.476 54.566 54.566v225.981c0 30.09-24.484 54.57-54.566 54.57zM609.188 70.422H449.996c-46.629 0-84.562 37.937-84.562 84.566v225.981c0 46.633 37.933 84.57 84.562 84.57h159.192c46.625 0 84.566-37.937 84.566-84.57V154.988c0-46.629-37.941-84.566-84.566-84.566" style="fill:#0a9ea0;fill-opacity:1;fill-rule:nonzero;stroke:none"/></g><path d="M1243.07 837.629v86.918h-173.8v-86.942c0-.023-.01-.046-.01-.074 0-47.992 38.92-86.906 86.91-86.906 48 0 86.91 38.914 86.91 86.906 0 .035-.01.067-.01.098M1092.42 942.82c13.4 0 24.26 10.86 24.26 24.254v123.646c0 13.4-10.86 24.26-24.26 24.26-13.4 0-24.26-10.86-24.26-24.26V967.074c0-13.394 10.86-24.254 24.26-24.254M1155.62 942.82c13.4 0 24.26 10.864 24.26 24.258v21.723c0 13.399-10.86 24.259-24.26 24.259-13.4 0-24.26-10.86-24.26-24.259v-21.723c0-13.394 10.86-24.258 24.26-24.258M1218.82 942.82c13.39 0 24.25 10.864 24.25 24.258v21.723c0 13.399-10.86 24.259-24.25 24.259-13.4 0-24.26-10.86-24.26-24.259v-21.723c0-13.394 10.86-24.258 24.26-24.258" style="fill:#67c1be;fill-opacity:1;fill-rule:nonzero;stroke:none" transform="matrix(.13333 0 0 -.13333 9.3 231.947)"/><path d="M232.211 448.852v152.187H51.387V448.852l33.8-214.223H198.41l33.801 214.223" style="fill:#fff;fill-opacity:1;fill-rule:nonzero;stroke:none" transform="matrix(.13333 0 0 -.13333 9.3 231.947)"/><path d="M232.211 448.859h.094zm-132.066-196.73h83.308l31.258 198.109v133.313H68.887V450.238Zm113.222-35H70.231l-36.344 231.73v169.692H249.71l-.219-172.422-36.125-229" style="fill:#040606;fill-opacity:1;fill-rule:nonzero;stroke:none" transform="matrix(.13333 0 0 -.13333 9.3 231.947)"/><path d="M222.395 95.55c0-43.14-34.965-78.109-78.102-78.109s-78.106 34.97-78.106 78.11c0 43.129 34.969 78.097 78.106 78.097 43.137 0 78.102-34.968 78.102-78.097" style="fill:#fff;fill-opacity:1;fill-rule:nonzero;stroke:none" transform="matrix(.13333 0 0 -.13333 9.3 231.947)"/><path d="M144.293 156.211c-33.445 0-60.66-27.211-60.66-60.66 0-33.45 27.215-60.672 60.66-60.672 33.449 0 60.656 27.223 60.656 60.672s-27.207 60.66-60.656 60.66zm0-156.211c-52.684 0-95.55 42.86-95.55 95.55 0 52.68 42.866 95.552 95.55 95.552 52.687 0 95.547-42.872 95.547-95.551C239.84 42.859 196.98 0 144.293 0" style="fill:#171717;fill-opacity:1;fill-rule:nonzero;stroke:none" transform="matrix(.13333 0 0 -.13333 9.3 231.947)"/></svg>