<svg version="1.1" viewBox="0 0 178 260.6" xmlns="http://www.w3.org/2000/svg"><defs><clipPath clipPathUnits="userSpaceOnUse" id="a"><path d="m1042.14 517.32.55 1141.42H0V517.898C0 231.871 233.422 0 521.359 0c287.942 0 521.361 231.871 521.361 517.898Z"/></clipPath><clipPath clipPathUnits="userSpaceOnUse" id="b"><path d="m1042.14 517.32.55 1141.42H0V517.898C0 231.871 233.422 0 521.359 0c287.942 0 521.361 231.871 521.361 517.898Z"/></clipPath><clipPath clipPathUnits="userSpaceOnUse" id="c"><path d="M161.152 763.645c0-201.454 163.309-364.747 364.75-364.747 201.43 0 364.739 163.293 364.739 364.747 0 201.441-163.309 364.745-364.739 364.745-201.441 0-364.75-163.304-364.75-364.745"/></clipPath><clipPath clipPathUnits="userSpaceOnUse" id="d"><path d="m1042.14 517.32.55 1141.42H0V517.898C0 231.871 233.422 0 521.359 0c287.942 0 521.361 231.871 521.361 517.898Z"/></clipPath><clipPath clipPathUnits="userSpaceOnUse" id="e"><path d="m1042.14 517.32.55 1141.42H0V517.898C0 231.871 233.422 0 521.359 0c287.942 0 521.361 231.871 521.361 517.898Z"/></clipPath><clipPath clipPathUnits="userSpaceOnUse" id="f"><path d="M934.32-559.141H521.543v963.95H934.32Z"/></clipPath><clipPath clipPathUnits="userSpaceOnUse" id="g"><path d="m1042.14 517.32.55 1141.42H0V517.898C0 231.871 233.422 0 521.359 0c287.942 0 521.361 231.871 521.361 517.898Z"/></clipPath></defs><g clip-path="url(#a)" transform="matrix(.13333 0 0 -.13333 13.882 221.16)"><path d="M522.246.29c287.942 0 521.364 233.421 521.364 521.358 0 287.942-233.422 521.362-521.364 521.362-287.937 0-521.36-233.42-521.36-521.362C.887 233.711 234.31.289 522.247.289" style="fill:#beda4e;fill-opacity:1;fill-rule:nonzero;stroke:none"/><path d="M372.816 96.809c0-36.078 29.25-65.34 65.329-65.34h170.91c36.082 0 65.332 29.262 65.332 65.34v485.453c0 36.078-29.25 65.328-65.332 65.328h-170.91c-36.079 0-65.329-29.25-65.329-65.328V96.809M274.637 1142.7l71.558-123.94 41.313 23.85-71.563 123.94-41.308-23.85M768.082 1142.7l-71.559-123.94-41.312 23.85 71.562 123.94 41.309-23.85" style="fill:#0a9ea0;fill-opacity:1;fill-rule:nonzero;stroke:none"/><path d="M525.898 398.898c201.438 0 364.739 163.301 364.739 364.747 0 201.441-163.301 364.735-364.739 364.735-201.441 0-364.742-163.294-364.742-364.735 0-201.446 163.301-364.747 364.742-364.747" style="fill:#67c1be;fill-opacity:1;fill-rule:nonzero;stroke:none"/></g><g clip-path="url(#b)" transform="matrix(.13333 0 0 -.13333 13.882 221.16)"><g clip-path="url(#c)"><path d="M520.922 363.281h467.5v789.989h-467.5V363.281" style="fill:#0a9ea0;fill-opacity:1;fill-rule:nonzero;stroke:none"/></g></g><g clip-path="url(#d)" transform="matrix(.13333 0 0 -.13333 13.882 221.16)"><path d="M778.375 661.41a269.416 269.416 0 0 1 19.422 100.578c0 29.539-4.813 57.95-13.57 84.563h-513.34a269.907 269.907 0 0 1-13.571-84.563c0-35.558 6.938-69.48 19.418-100.578h501.641M509.156 917.754c12.383 0 22.422 10.043 22.422 22.422 0 12.379-10.039 22.418-22.422 22.418-12.379 0-22.418-10.039-22.418-22.418s10.039-22.422 22.418-22.422M380.789 917.754c12.383 0 22.422 10.043 22.422 22.422 0 12.379-10.039 22.418-22.422 22.418-12.379 0-22.418-10.039-22.418-22.418s10.039-22.422 22.418-22.422M444.973 917.754c12.382 0 22.422 10.043 22.422 22.422 0 12.379-10.04 22.418-22.422 22.418-12.379 0-22.418-10.039-22.418-22.418s10.039-22.422 22.418-22.422M573.344 917.754c12.379 0 22.418 10.043 22.418 22.422 0 12.379-10.039 22.418-22.418 22.418-12.383 0-22.422-10.039-22.422-22.418s10.039-22.422 22.422-22.422M637.527 917.754c12.379 0 22.418 10.043 22.418 22.422 0 12.379-10.039 22.418-22.418 22.418-12.382 0-22.422-10.039-22.422-22.418s10.04-22.422 22.422-22.422" style="fill:#171717;fill-opacity:1;fill-rule:nonzero;stroke:none"/><path d="M836.012 636.09a84.688 84.688 0 0 1-21.961-2.91c-21.77-5.84-39.953-19.789-51.211-39.301-11.281-19.508-14.27-42.25-8.438-64.008 5.828-21.762 19.786-39.949 39.297-51.211v-.012c19.52-11.257 42.254-14.25 64-8.429 21.77 5.832 39.953 19.793 51.211 39.301 23.266 40.281 9.414 91.968-30.855 115.23-13 7.512-27.422 11.34-42.043 11.34zm-.332-208.789c-21.551 0-42.821 5.648-61.981 16.711-28.769 16.617-49.347 43.418-57.941 75.508-8.594 32.082-4.18 65.601 12.441 94.359 16.602 28.769 43.41 49.344 75.5 57.937 32.047 8.586 65.594 4.192 94.356-12.421 59.375-34.293 79.785-110.497 45.508-169.875-16.614-28.758-43.418-49.329-75.508-57.93a124.924 124.924 0 0 0-32.375-4.289" style="fill:#0a9ea0;fill-opacity:1;fill-rule:nonzero;stroke:none"/><path d="M205.992 636.09a84.694 84.694 0 0 1-21.961-2.91c-21.769-5.84-39.953-19.789-51.211-39.301-11.269-19.508-14.269-42.25-8.437-64.008 5.84-21.762 19.793-39.949 39.305-51.211v-.012c19.503-11.257 42.246-14.25 64.003-8.429 21.758 5.832 39.954 19.793 51.211 39.301 11.27 19.511 14.27 42.25 8.438 64.011-5.84 21.758-19.793 39.957-39.305 51.219-13 7.512-27.422 11.34-42.043 11.34zm-.332-208.789c-21.551 0-42.812 5.648-61.972 16.719-28.77 16.609-49.344 43.41-57.938 75.5-8.594 32.082-4.18 65.589 12.422 94.359 16.609 28.769 43.418 49.344 75.508 57.937 32.058 8.586 65.593 4.192 94.355-12.421 59.383-34.286 79.793-110.485 45.516-169.875-16.61-28.758-43.43-49.329-75.508-57.93-10.715-2.871-21.582-4.289-32.383-4.289M792.266 1232.29c-26.856 15.51-60.039 9.88-80.52-11.62l-97.176 65.55c3.164 9.48 4.848 19.42 4.91 29.45.469 46.1-31.636 85.62-75.937 95.24v117.93c15.395 4.7 29.133 14.95 37.812 29.98 18.18 31.48 7.391 71.75-24.097 89.93-31.492 18.18-71.75 7.39-89.934-24.09-18.168-31.5-7.386-71.75 24.102-89.93a65.71 65.71 0 0 1 18.109-7.14V1412.1c-20.441-2.8-39.488-12.08-54.183-26.64-26.219-25.7-35.09-63.81-23.938-98.28l-84.016-56.67-16.793-9.47c-20.503 21.19-53.457 26.66-80.152 11.25-31.488-18.18-42.281-58.44-24.101-89.92 18.179-31.49 58.441-42.28 89.929-24.1 25.555 14.75 37.465 44.04 31.34 71.39l99.649 67.21c18.031-22.95 45.472-36.63 74.781-36.87 29.64-.25 57.652 13.19 76.156 36.26l97.172-65.55c-6.676-27.64 5.176-57.5 31.059-72.44 31.488-18.18 71.75-7.39 89.929 24.1 18.18 31.48 7.391 71.74-24.101 89.92M321.961 362.449c-51.215 0-93.223-51.148-97.293-116.23-.434-6.899-.926-13.797-2.117-20.617L118.145-370.719c-4.133-23.59-3.536-48.051 3.886-70.82 14.813-45.461 49.504-77.359 89.942-77.359h624.738c40.434 0 75.121 31.886 89.937 77.339 7.434 22.789 8.024 47.27 3.879 70.891l-104.675 596.27c-1.196 6.82-1.688 13.718-2.122 20.617-4.07 65.082-46.07 116.23-97.292 116.23H321.961" style="fill:#67c1be;fill-opacity:1;fill-rule:nonzero;stroke:none"/></g><g clip-path="url(#e)" transform="matrix(.13333 0 0 -.13333 13.882 221.16)"><g clip-path="url(#f)"><path d="M321.961 362.449c-53.91 0-97.617-56.679-97.617-126.609L114.367-392.281c0-69.918 43.699-126.617 97.606-126.617h624.738c53.91 0 97.609 56.699 97.609 126.617L826.855 235.84c-.851 79.64-46.496 126.609-100.417 126.609H321.961" style="fill:#0a9ea0;fill-opacity:1;fill-rule:nonzero;stroke:none"/></g></g><g clip-path="url(#g)" transform="matrix(.13333 0 0 -.13333 13.882 221.16)"><path d="M708.113 331.672a82.784 82.784 0 0 1-.832-1.934c-.246-.59-.468-1.187-.715-1.797-.382-.992-.765-1.972-1.125-2.98-.089-.27-.179-.52-.269-.789a97.358 97.358 0 0 1-5.344-31.883 97.425 97.425 0 0 1 5.344-31.898c.09-.27.18-.52.269-.77.36-1.012.743-2.019 1.125-3.012.247-.597.469-1.187.715-1.789.274-.648.539-1.281.832-1.929.407-.922.809-1.84 1.258-2.762.137-.301.293-.59.426-.879a96.573 96.573 0 0 1 18.726-26.238c7.856-7.864 16.747-14.082 26.223-18.731.313-.133.606-.293.899-.429.918-.422 1.839-.852 2.757-1.25.629-.274 1.282-.563 1.934-.832.582-.25 1.187-.469 1.797-.719.984-.379 1.972-.77 2.984-1.121.27-.09.516-.18.785-.25a97.386 97.386 0 0 1 63.786 0c.269.07.515.16.761.25 1.012.351 2.024.742 3.012 1.121.605.25 1.187.469 1.793.719.652.269 1.281.558 1.93.832.921.398 1.843.828 2.761 1.25.293.136.586.296.879.429 9.473 4.649 18.387 10.867 26.242 18.731a96.964 96.964 0 0 1 18.704 26.238c.156.289.293.578.449.879.426.922.851 1.84 1.258 2.762.269.648.558 1.281.832 1.929.246.602.468 1.192.695 1.789.402.993.785 2 1.144 3.012.09.25.157.5.247.77a97.437 97.437 0 0 1 0 63.781c-.09.269-.157.519-.247.789a74.04 74.04 0 0 1-1.144 2.98c-.227.61-.449 1.207-.695 1.797-.274.653-.563 1.282-.832 1.934-.407.918-.832 1.84-1.258 2.758-.156.289-.293.582-.449.898a97.514 97.514 0 0 1-18.704 26.223 97.49 97.49 0 0 1-26.265 18.73c-.27.129-.563.289-.856.418-.918.449-1.863.86-2.804 1.281-.606.27-1.235.54-1.864.809-.629.25-1.234.492-1.863.723-.965.379-1.953.758-2.941 1.117-.27.09-.539.18-.832.269-9.989 3.461-20.7 5.34-31.856 5.34a97.21 97.21 0 0 1-31.859-5.34l-.809-.269c-1.012-.359-1.976-.738-2.965-1.117a73.61 73.61 0 0 1-1.839-.723l-1.887-.809c-.942-.421-1.863-.832-2.805-1.281-.293-.129-.562-.289-.855-.418-9.473-4.633-18.387-10.851-26.243-18.73a97.118 97.118 0 0 1-18.726-26.223c-.133-.316-.289-.609-.426-.898-.449-.918-.851-1.84-1.258-2.758" style="fill:#0a9ea0;fill-opacity:1;fill-rule:nonzero;stroke:none"/><path d="m387.371 61.95 112.258 112.249c17.644 17.653 46.254 17.653 63.898 0l112.258-112.25c28.465-28.468 8.305-77.14-31.949-77.14H419.32c-40.254 0-60.414 48.672-31.949 77.14" style="fill:#67c1be;fill-opacity:1;fill-rule:nonzero;stroke:none"/><path d="M531.582 172.422c-7.734 0-15.465-2.953-21.348-8.832L397.98 51.34c-8.933-8.93-11.378-21.219-6.542-32.89C396.266 6.78 406.691-.192 419.32-.192h224.512c12.629 0 23.059 6.98 27.891 18.652 4.836 11.66 2.382 23.95-6.543 32.879L552.926 163.59a30.129 30.129 0 0 1-21.344 8.832zm112.25-202.613H419.32c-24.804 0-46.113 14.242-55.605 37.16-9.485 22.91-4.485 48.05 13.055 65.582L489.023 184.8c23.461 23.469 61.645 23.488 85.114 0l112.254-112.25c17.539-17.532 22.539-42.66 13.047-65.582-9.493-22.918-30.801-37.16-55.606-37.16" style="fill:#0a9ea0;fill-opacity:1;fill-rule:nonzero;stroke:none"/><path d="M358.836 688.539c34.836 0 63.062 28.242 63.062 63.066 0 34.836-28.226 63.063-63.062 63.063-34.84 0-63.066-28.227-63.066-63.063 0-34.824 28.226-63.066 63.066-63.066" style="fill:#beda4e;fill-opacity:1;fill-rule:nonzero;stroke:none"/><path d="M361.746 596.59c23.391-67.539 87.457-116.078 162.957-116.078 75.512 0 139.582 48.539 162.973 116.078h-325.93M358.836 725.008c14.691 0 26.594 11.914 26.594 26.597 0 14.696-11.903 26.598-26.594 26.598-14.695 0-26.602-11.902-26.602-26.598 0-14.683 11.907-26.597 26.602-26.597" style="fill:#171717;fill-opacity:1;fill-rule:nonzero;stroke:none"/><path d="M689.637 688.539c34.836 0 63.062 28.242 63.062 63.066 0 34.836-28.226 63.063-63.062 63.063-34.84 0-63.067-28.227-63.067-63.063 0-34.824 28.227-63.066 63.067-63.066" style="fill:#beda4e;fill-opacity:1;fill-rule:nonzero;stroke:none"/><path d="M689.637 725.008c14.691 0 26.597 11.914 26.597 26.597 0 14.696-11.906 26.598-26.597 26.598-14.696 0-26.602-11.902-26.602-26.598 0-14.683 11.906-26.597 26.602-26.597M759.355 670.395H290.164v43.699h469.191v-43.699" style="fill:#171717;fill-opacity:1;fill-rule:nonzero;stroke:none"/><path d="M115.668-66.61c-1.344 0-2.699.122-4.066.41-10.817 2.231-17.774 12.821-15.536 23.63l63.383 306.789c2.235 10.82 12.817 17.812 23.633 15.543 10.816-2.231 17.773-12.821 15.535-23.633l-63.383-306.79c-1.953-9.448-10.277-15.948-19.566-15.948M919.418-9.93c-9.188 0-17.469 6.36-19.52 15.72L832.875 311.8c-2.363 10.789 4.473 21.449 15.266 23.808 10.742 2.352 21.453-4.461 23.816-15.257L938.98 14.34c2.364-10.79-4.472-21.45-15.265-23.809a19.71 19.71 0 0 0-4.297-.46" style="fill:#0a9ea0;fill-opacity:1;fill-rule:nonzero;stroke:none"/><path d="M155.625 331.672a68.652 68.652 0 0 1-.832-1.934c-.246-.59-.473-1.187-.719-1.797-.379-.992-.761-1.972-1.121-2.98-.09-.27-.18-.52-.269-.789a97.358 97.358 0 0 1-5.344-31.883 97.425 97.425 0 0 1 5.344-31.898c.089-.27.179-.52.269-.77.36-1.012.742-2.019 1.121-3.012.246-.597.473-1.187.719-1.789.27-.648.539-1.281.832-1.929.402-.922.809-1.84 1.258-2.762.133-.301.293-.59.426-.879a96.622 96.622 0 0 1 18.722-26.238c7.86-7.864 16.75-14.082 26.227-18.731.312-.133.605-.293.894-.429.922-.422 1.844-.852 2.762-1.25.629-.274 1.281-.563 1.934-.832.582-.25 1.187-.469 1.793-.719.988-.379 1.976-.77 2.988-1.121.269-.09.516-.18.785-.25a97.394 97.394 0 0 1 63.785 0c.27.07.516.16.762.25 1.012.351 2.019.742 3.008 1.121.605.25 1.191.469 1.797.719.652.269 1.281.558 1.929.832.922.398 1.84.828 2.762 1.25.293.136.586.296.879.429 9.473 4.649 18.387 10.867 26.242 18.731a96.96 96.96 0 0 1 18.703 26.238c.157.289.293.578.449.879.426.922.852 1.84 1.258 2.762.27.648.559 1.281.828 1.929.25.602.473 1.192.7 1.789.402.993.785 2 1.144 3.012.09.25.156.5.246.77a97.437 97.437 0 0 1 0 63.781c-.09.269-.156.519-.246.789a74.04 74.04 0 0 1-1.144 2.98c-.227.61-.45 1.207-.7 1.797-.269.653-.558 1.282-.828 1.934-.406.918-.832 1.84-1.258 2.758-.156.289-.292.582-.449.898a97.51 97.51 0 0 1-18.703 26.223 97.505 97.505 0 0 1-26.265 18.73c-.27.129-.563.289-.856.418-.922.449-1.863.86-2.805 1.281-.605.27-1.234.54-1.863.809-.629.25-1.234.492-1.863.723-.965.379-1.953.758-2.942 1.117-.269.09-.539.18-.832.269a97.101 97.101 0 0 1-31.855 5.34 97.192 97.192 0 0 1-31.859-5.34l-.809-.269c-1.012-.359-1.977-.738-2.965-1.117a75.229 75.229 0 0 1-1.84-.723l-1.886-.809c-.942-.421-1.864-.832-2.805-1.281-.293-.129-.563-.289-.856-.418-9.472-4.633-18.386-10.851-26.246-18.73a97.168 97.168 0 0 1-18.722-26.223c-.133-.316-.293-.609-.426-.898a71.637 71.637 0 0 1-1.258-2.758" style="fill:#67c1be;fill-opacity:1;fill-rule:nonzero;stroke:none"/></g></svg>