<svg version="1.1" viewBox="0 0 178 260.6" xmlns="http://www.w3.org/2000/svg"><defs><clipPath clipPathUnits="userSpaceOnUse" id="a"><path d="M0 0h1044v1954H0Z"/></clipPath><clipPath clipPathUnits="userSpaceOnUse" id="b"><path d="m1043.49 813.352.55 1140.848H1.352V813.93c0-285.7 233.421-517.289 521.363-517.289 287.937 0 521.355 231.589 521.355 517.289z"/></clipPath><clipPath clipPathUnits="userSpaceOnUse" id="c"><path d="M0 0h1044v1954H0Z"/></clipPath><clipPath clipPathUnits="userSpaceOnUse" id="d"><path d="m1043.49 813.352.55 1140.848H1.352V813.93c0-285.7 233.421-517.289 521.363-517.289 287.937 0 521.355 231.589 521.355 517.289z"/></clipPath><clipPath clipPathUnits="userSpaceOnUse" id="e"><path d="M160.266 1059.99c0-201.451 163.308-364.74 364.75-364.74 201.429 0 364.738 163.289 364.738 364.74 0 201.44-163.309 364.75-364.738 364.75-201.442 0-364.75-163.31-364.75-364.75"/></clipPath><clipPath clipPathUnits="userSpaceOnUse" id="f"><path d="M0 0h1044v1954H0Z"/></clipPath><clipPath clipPathUnits="userSpaceOnUse" id="g"><path d="m1043.49 813.352.55 1140.848H1.352V813.93c0-285.7 233.421-517.289 521.363-517.289 287.937 0 521.355 231.589 521.355 517.289z"/></clipPath><clipPath clipPathUnits="userSpaceOnUse" id="h"><path d="M0 0h1044v1954H0Z"/></clipPath><clipPath clipPathUnits="userSpaceOnUse" id="i"><path d="m1043.49 813.352.55 1140.848H1.352V813.93c0-285.7 233.421-517.289 521.363-517.289 287.937 0 521.355 231.589 521.355 517.289z"/></clipPath><clipPath clipPathUnits="userSpaceOnUse" id="j"><path d="M933.43-262.789H520.652V701.16H933.43Z"/></clipPath><clipPath clipPathUnits="userSpaceOnUse" id="k"><path d="M0 0h1044v1954H0Z"/></clipPath><clipPath clipPathUnits="userSpaceOnUse" id="l"><path d="m1043.49 813.352.55 1140.848H1.352V813.93c0-285.7 233.421-517.289 521.363-517.289 287.937 0 521.355 231.589 521.355 517.289z"/></clipPath></defs><path d="M521.359 296.641c287.942 0 521.361 233.418 521.361 521.359 0 287.94-233.419 521.36-521.361 521.36C233.422 1339.36 0 1105.94 0 818c0-287.941 233.422-521.359 521.359-521.359" style="fill:#beda4e;fill-opacity:1;fill-rule:nonzero;stroke:none" transform="matrix(.13333 0 0 -.13333 14 260.523)"/><path d="M997.66 303.77c-6.562 0-12.98 3.218-16.808 9.128l-170.184 263c-6.008 9.274-3.352 21.661 5.918 27.653 9.289 6.027 21.66 3.34 27.656-5.91l170.188-263c6-9.282 3.35-21.661-5.92-27.661a19.877 19.877 0 0 0-10.85-3.21" style="fill:#0a9ea0;fill-opacity:1;fill-rule:nonzero;stroke:none" transform="matrix(.13333 0 0 -.13333 14 260.523)"/><path d="M750.199 167.191c-7.051 0-13.886 3.731-17.527 10.329-5.344 9.679-1.828 21.832 7.84 27.179l247.461 136.582c9.687 5.348 21.857 1.809 27.177-7.84 5.34-9.679 1.83-21.839-7.84-27.179L759.848 169.68a19.93 19.93 0 0 0-9.649-2.489" style="fill:#0a9ea0;fill-opacity:1;fill-rule:nonzero;stroke:none" transform="matrix(.13333 0 0 -.13333 14 260.523)"/><path d="M990.668 366.828c-.313-.047-.613-.098-.922-.148-.277-.051-.558-.121-.844-.168-.464-.102-.925-.192-1.39-.301-.121-.031-.235-.063-.36-.09a43.488 43.488 0 0 1-13.214-5.723c-4.18-2.699-7.727-6-10.637-9.718l-.219-.282c-.293-.378-.578-.769-.855-1.148-.164-.238-.329-.461-.497-.699a30.205 30.205 0 0 1-.519-.781c-.246-.372-.496-.75-.731-1.141-.078-.117-.148-.25-.222-.367a43.203 43.203 0 0 1-5.285-13.352 43.778 43.778 0 0 1-.657-14.34c.028-.148.039-.3.059-.441.063-.449.125-.891.195-1.34.055-.301.102-.609.16-.918.047-.281.11-.562.165-.84.097-.472.191-.929.3-1.39.035-.129.059-.243.102-.36a43.372 43.372 0 0 1 15.433-23.851c.09-.078.184-.149.278-.219.379-.301.765-.582 1.144-.859.243-.161.465-.332.703-.5.258-.172.524-.34.782-.524.371-.238.754-.476 1.136-.719.122-.078.25-.148.372-.23 4.031-2.418 8.511-4.25 13.351-5.277a43.47 43.47 0 0 1 14.344-.653c.14.02.29.039.43.051.45.059.9.121 1.34.199l.92.153c.29.058.56.109.84.179.47.09.94.188 1.41.297.11.024.22.063.34.094a43.542 43.542 0 0 1 13.23 5.707 43.377 43.377 0 0 1 10.62 9.723c.08.097.16.187.24.289.29.371.56.757.84 1.148.17.231.34.461.5.691.18.258.34.52.52.782.25.367.49.758.73 1.136.07.133.15.25.23.383a43.66 43.66 0 0 1 5.28 13.34 43.331 43.331 0 0 1 .64 14.359c-.01.129-.02.282-.04.418-.06.454-.14.903-.2 1.364-.05.289-.1.59-.15.886-.06.293-.12.582-.19.872-.09.449-.18.921-.29 1.371-.03.121-.06.25-.1.379a43.12 43.12 0 0 1-5.71 13.199c-2.69 4.172-6 7.722-9.71 10.621-.09.082-.19.16-.29.238-.38.293-.76.563-1.14.844-.23.168-.47.348-.71.508-.26.172-.51.34-.76.511-.39.25-.76.5-1.16.739-.12.082-.24.14-.37.218a43.291 43.291 0 0 1-13.35 5.282 43.247 43.247 0 0 1-14.335.66c-.148-.031-.297-.039-.437-.059-.453-.051-.899-.133-1.34-.203" style="fill:#67c1be;fill-opacity:1;fill-rule:nonzero;stroke:none" transform="matrix(.13333 0 0 -.13333 14 260.523)"/><g clip-path="url(#a)" transform="matrix(.13333 0 0 -.13333 14 260.523)"><g clip-path="url(#b)"><path d="M371.93 393.16c0-36.082 29.25-65.34 65.328-65.34h170.91c36.078 0 65.328 29.258 65.328 65.34v485.449c0 36.082-29.25 65.332-65.328 65.332h-170.91c-36.078 0-65.328-29.25-65.328-65.332V393.16M273.746 1439.05l71.563-123.94 41.308 23.85-71.558 123.94-41.313-23.85M767.195 1439.05l-71.562-123.94-41.309 23.85 71.559 123.94 41.312-23.85" style="fill:#0a9ea0;fill-opacity:1;fill-rule:nonzero;stroke:none"/><path d="M525.008 695.25c201.441 0 364.742 163.301 364.742 364.74 0 201.44-163.301 364.74-364.742 364.74-201.438 0-364.738-163.3-364.738-364.74 0-201.439 163.3-364.74 364.738-364.74" style="fill:#67c1be;fill-opacity:1;fill-rule:nonzero;stroke:none"/></g></g><g clip-path="url(#c)" transform="matrix(.13333 0 0 -.13333 14 260.523)"><g clip-path="url(#d)"><g clip-path="url(#e)"><path d="M520.035 659.629h467.5v789.981h-467.5V659.629" style="fill:#0a9ea0;fill-opacity:1;fill-rule:nonzero;stroke:none"/></g></g></g><g clip-path="url(#f)" transform="matrix(.13333 0 0 -.13333 14 260.523)"><g clip-path="url(#g)"><path d="M508.27 1214.1c12.378 0 22.421 10.04 22.421 22.42 0 12.38-10.043 22.42-22.421 22.42-12.379 0-22.418-10.04-22.418-22.42 0-12.38 10.039-22.42 22.418-22.42M379.902 1214.1c12.379 0 22.418 10.04 22.418 22.42 0 12.38-10.039 22.42-22.418 22.42s-22.422-10.04-22.422-22.42c0-12.38 10.043-22.42 22.422-22.42M444.086 1214.1c12.379 0 22.422 10.04 22.422 22.42 0 12.38-10.043 22.42-22.422 22.42-12.379 0-22.422-10.04-22.422-22.42 0-12.38 10.043-22.42 22.422-22.42M572.453 1214.1c12.383 0 22.422 10.04 22.422 22.42 0 12.38-10.039 22.42-22.422 22.42-12.379 0-22.418-10.04-22.418-22.42 0-12.38 10.039-22.42 22.418-22.42M636.637 1214.1c12.383 0 22.422 10.04 22.422 22.42 0 12.38-10.039 22.42-22.422 22.42-12.379 0-22.418-10.04-22.418-22.42 0-12.38 10.039-22.42 22.418-22.42" style="fill:#171717;fill-opacity:1;fill-rule:nonzero;stroke:none"/><path d="M835.145 932.379c-29.18 0-57.598-15.129-73.204-42.16-11.269-19.508-14.269-42.239-8.437-64 5.84-21.77 19.793-39.949 39.305-51.207 19.504-11.274 42.238-14.25 64.004-8.442 21.769 5.84 39.953 19.789 51.21 39.309 23.262 40.269 9.415 91.973-30.855 115.223-13.254 7.648-27.727 11.277-42.023 11.277zm-.364-208.731c-21.543 0-42.812 5.641-61.972 16.711-28.766 16.61-49.344 43.422-57.938 75.512-8.594 32.078-4.18 65.578 12.422 94.348 34.297 59.367 110.516 79.777 169.875 45.531 59.383-34.301 79.793-110.5 45.504-169.871-16.609-28.77-43.418-49.348-75.504-57.938-10.707-2.871-21.586-4.293-32.387-4.293" style="fill:#0a9ea0;fill-opacity:1;fill-rule:nonzero;stroke:none"/><path d="M205.113 932.379c-29.168 0-57.586-15.129-73.183-42.16-11.27-19.508-14.266-42.239-8.438-64 5.832-21.77 19.785-39.949 39.297-51.207 40.305-23.293 91.973-9.41 115.227 30.867 11.269 19.512 14.265 42.23 8.437 64-5.84 21.769-19.797 39.961-39.308 51.223-13.25 7.648-27.735 11.277-42.032 11.277zm-.351-208.731c-21.543 0-42.813 5.641-61.973 16.711-28.758 16.61-49.336 43.422-57.93 75.512-8.593 32.078-4.18 65.578 12.422 94.348 16.602 28.761 43.418 49.347 75.5 57.941 32.11 8.613 65.594 4.192 94.364-12.41 28.773-16.609 49.347-43.43 57.941-75.52 8.594-32.082 4.18-65.589-12.422-94.351-16.613-28.77-43.43-49.348-75.508-57.938-10.715-2.871-21.593-4.293-32.394-4.293M791.379 1528.64c-26.856 15.5-60.039 9.88-80.516-11.62l-97.179 65.55c3.164 9.48 4.847 19.41 4.906 29.45.473 46.09-31.633 85.62-75.938 95.24v117.93c15.395 4.69 29.133 14.95 37.817 29.98 18.179 31.48 7.39 71.74-24.102 89.92-31.488 18.18-71.75 7.39-89.929-24.09-18.168-31.49-7.391-71.75 24.097-89.93a65.716 65.716 0 0 1 18.113-7.13v-115.49c-20.441-2.8-39.488-12.08-54.187-26.64-26.215-25.7-35.086-63.81-23.934-98.28l-84.031-56.68-16.777-9.46c-20.504 21.19-53.457 26.66-80.153 11.25-31.492-18.18-42.281-58.44-24.101-89.92 18.18-31.49 58.441-42.28 89.93-24.1 25.55 14.75 37.464 44.04 31.339 71.39l99.645 67.21c18.035-22.95 45.473-36.63 74.781-36.87 29.645-.25 57.656 13.19 76.16 36.26l97.172-65.55c-6.676-27.65 5.176-57.5 31.059-72.44 31.488-18.18 71.75-7.39 89.929 24.1 18.18 31.48 7.387 71.74-24.101 89.92" style="fill:#67c1be;fill-opacity:1;fill-rule:nonzero;stroke:none"/><path d="M321.074 658.801c-51.215 0-93.222-51.153-97.297-116.231-.429-6.898-.922-13.8-2.113-20.621l-104.41-596.32c-4.133-23.598-3.535-48.051 3.887-70.82 14.816-45.457 49.507-77.36 89.945-77.36h624.738c40.434 0 75.121 31.891 89.938 77.332 7.433 22.797 8.019 47.278 3.875 70.899L824.965 521.949c-1.195 6.821-1.688 13.723-2.121 20.621-4.071 65.078-46.071 116.231-97.293 116.231H321.074" style="fill:#4bbfb3;fill-opacity:1;fill-rule:nonzero;stroke:none"/></g></g><g clip-path="url(#h)" transform="matrix(.13333 0 0 -.13333 14 260.523)"><g clip-path="url(#i)"><g clip-path="url(#j)"><path d="M321.074 658.801c-53.91 0-97.621-56.68-97.621-126.621L113.48-95.93c0-69.929 43.696-126.621 97.606-126.621h624.738c53.91 0 97.606 56.692 97.606 126.621L825.969 532.18c-.856 79.648-46.5 126.621-100.418 126.621H321.074" style="fill:#0a9ea0;fill-opacity:1;fill-rule:nonzero;stroke:none"/></g></g></g><g clip-path="url(#k)" transform="matrix(.13333 0 0 -.13333 14 260.523)"><g clip-path="url(#l)"><path d="M707.227 628.02a68.032 68.032 0 0 1-.832-1.93c-.247-.59-.473-1.192-.719-1.801-.379-.988-.762-1.98-1.121-2.988-.09-.27-.18-.512-.27-.781a97.32 97.32 0 0 1-5.344-31.879 97.56 97.56 0 0 1 5.344-31.911c.09-.261.18-.511.27-.761.359-1.008.742-2.02 1.121-3.008.246-.602.472-1.191.719-1.789.269-.652.539-1.281.832-1.934a80.59 80.59 0 0 1 1.257-2.769c.133-.289.289-.578.426-.867a96.865 96.865 0 0 1 18.723-26.25c7.859-7.852 16.75-14.071 26.222-18.723.317-.141.61-.289.899-.43.922-.418 1.844-.847 2.762-1.25.629-.269 1.281-.57 1.929-.84.586-.238 1.192-.468 1.797-.711.988-.386 1.977-.769 2.988-1.128.27-.09.516-.18.786-.239a97.256 97.256 0 0 1 31.879-5.371c11.179 0 21.89 1.91 31.906 5.371.265.059.515.149.762.239 1.007.359 2.019.742 3.007 1.128.606.243 1.192.473 1.797.711.653.27 1.278.571 1.93.84.922.403 1.84.832 2.762 1.25.293.141.586.289.875.43 9.476 4.652 18.386 10.871 26.246 18.723a97.222 97.222 0 0 1 18.703 26.25c.156.289.293.578.449.867.426.929.852 1.851 1.258 2.769.269.653.558 1.282.828 1.934.25.598.473 1.187.695 1.789.407.988.785 2 1.149 3.008.09.25.156.5.246.761a97.57 97.57 0 0 1 5.363 31.911 97.33 97.33 0 0 1-5.363 31.879c-.09.269-.156.511-.246.781a72.21 72.21 0 0 1-1.149 2.988 37.691 37.691 0 0 1-.695 1.801c-.27.648-.559 1.281-.828 1.93-.406.921-.832 1.839-1.258 2.761-.156.289-.293.578-.449.899a97.572 97.572 0 0 1-18.703 26.218 97.09 97.09 0 0 1-26.27 18.723c-.265.141-.558.301-.851.43-.922.449-1.864.847-2.805 1.277-.609.274-1.234.543-1.863.813-.629.25-1.239.488-1.864.718-.968.379-1.957.762-2.941 1.121-.27.09-.539.18-.832.27-9.992 3.461-20.699 5.34-31.859 5.34a97.233 97.233 0 0 1-31.86-5.34c-.265-.09-.535-.18-.805-.27-1.011-.359-1.976-.742-2.964-1.121-.606-.23-1.235-.468-1.84-.718-.629-.27-1.258-.539-1.887-.813-.941-.43-1.863-.828-2.809-1.277-.289-.129-.558-.289-.851-.43-9.473-4.621-18.387-10.84-26.246-18.723a97.211 97.211 0 0 1-18.723-26.218c-.137-.321-.293-.61-.426-.899a72.424 72.424 0 0 1-1.257-2.761" style="fill:#0a9ea0;fill-opacity:1;fill-rule:nonzero;stroke:none"/><path d="m386.484 358.289 112.254 112.262c17.649 17.648 46.258 17.648 63.903 0l112.257-112.262c28.465-28.461 8.305-77.129-31.953-77.129H418.434c-40.254 0-60.418 48.668-31.95 77.129" style="fill:#67c1be;fill-opacity:1;fill-rule:nonzero;stroke:none"/><path d="M530.691 468.781c-7.734 0-15.464-2.953-21.347-8.832L397.09 347.691c-8.934-8.929-11.379-21.23-6.543-32.902 4.832-11.668 15.258-18.629 27.883-18.629h224.511c12.637 0 23.059 6.961 27.895 18.629 4.832 11.672 2.383 23.973-6.543 32.902L552.035 459.949c-5.883 5.879-13.613 8.832-21.344 8.832zm112.25-202.621H418.43c-24.801 0-46.106 14.238-55.598 37.149-9.492 22.921-4.496 48.062 13.047 65.589L488.133 481.16c23.469 23.481 61.644 23.481 85.113 0l112.258-112.262c17.539-17.527 22.539-42.668 13.047-65.589-9.496-22.911-30.801-37.149-55.61-37.149" style="fill:#0a9ea0;fill-opacity:1;fill-rule:nonzero;stroke:none"/><path d="m114.762 249.738 63.383 306.782" style="fill:none;stroke:#3d7b86;stroke-width:40;stroke-linecap:round;stroke-linejoin:miter;stroke-miterlimit:4;stroke-dasharray:none;stroke-opacity:1"/><path d="M154.734 628.02a86.145 86.145 0 0 1-.828-1.93c-.246-.59-.472-1.192-.718-1.801a118.89 118.89 0 0 1-1.122-2.988c-.089-.27-.179-.512-.269-.781a97.32 97.32 0 0 1-5.344-31.879 97.56 97.56 0 0 1 5.344-31.911c.09-.261.18-.511.269-.761.36-1.008.739-2.02 1.122-3.008.246-.602.472-1.191.718-1.789.27-.652.539-1.281.828-1.934.407-.918.813-1.84 1.258-2.769.137-.289.293-.578.43-.867a96.865 96.865 0 0 1 18.723-26.25c7.859-7.852 16.75-14.071 26.222-18.723.317-.141.606-.289.899-.43.922-.418 1.839-.847 2.761-1.25.629-.269 1.282-.57 1.93-.84.586-.238 1.191-.468 1.797-.711.988-.386 1.976-.769 2.984-1.128.27-.09.52-.18.789-.239a97.386 97.386 0 0 1 63.782 0c.269.059.515.149.765.239a106.5 106.5 0 0 1 3.008 1.128c.606.243 1.188.473 1.797.711.648.27 1.277.571 1.93.84.921.403 1.839.832 2.761 1.25.293.141.582.289.875.43 9.477 4.652 18.387 10.871 26.246 18.723a97.204 97.204 0 0 1 18.704 26.25c.156.289.289.578.449.867.426.929.851 1.851 1.254 2.769.269.653.562 1.282.832 1.934.246.598.472 1.187.695 1.789.406.988.785 2 1.145 3.008.089.25.16.5.25.761a97.57 97.57 0 0 1 5.363 31.911 97.33 97.33 0 0 1-5.363 31.879c-.09.269-.161.511-.25.781-.36 1.008-.739 2-1.145 2.988a43.902 43.902 0 0 1-.695 1.801c-.27.648-.563 1.281-.832 1.93-.403.921-.828 1.839-1.254 2.761-.16.289-.293.578-.449.899a97.553 97.553 0 0 1-18.704 26.218 97.132 97.132 0 0 1-26.269 18.723c-.27.141-.559.301-.852.43-.922.449-1.863.847-2.808 1.277-.606.274-1.235.543-1.864.813-.628.25-1.234.488-1.863.718-.965.379-1.953.762-2.941 1.121-.27.09-.535.18-.828.27-9.993 3.461-20.7 5.34-31.86 5.34a97.214 97.214 0 0 1-31.859-5.34l-.809-.27c-1.008-.359-1.972-.742-2.961-1.121-.605-.23-1.234-.468-1.839-.718-.629-.27-1.258-.539-1.887-.813-.946-.43-1.863-.828-2.809-1.277-.293-.129-.558-.289-.851-.43-9.473-4.621-18.387-10.84-26.246-18.723a97.211 97.211 0 0 1-18.723-26.218c-.137-.321-.293-.61-.43-.899a89.82 89.82 0 0 1-1.258-2.761" style="fill:#4bbfb3;fill-opacity:1;fill-rule:nonzero;stroke:none"/><path d="M771.012 958.438a269.517 269.517 0 0 1 19.418 100.582c0 29.54-4.809 57.95-13.571 84.56H263.52c-8.758-26.61-13.571-55.02-13.571-84.56a269.44 269.44 0 0 1 19.422-100.582h501.641M311.906 907.852c28.071-44.922 71.969-80.161 126.875-95.961 54.922-15.801 110.84-9.282 158.485 13.859l-285.36 82.102" style="fill:#171717;fill-opacity:1;fill-rule:nonzero;stroke:none"/><path d="M354.789 986.828c34.84 0 63.066 28.242 63.066 63.062 0 34.84-28.226 63.07-63.066 63.07-34.836 0-63.062-28.23-63.062-63.07 0-34.82 28.226-63.062 63.062-63.062" style="fill:#beda4e;fill-opacity:1;fill-rule:nonzero;stroke:none"/><path d="M341.121 998.203c14.695 0 26.602 11.917 26.602 26.597 0 14.7-11.907 26.6-26.602 26.6-14.691 0-26.598-11.9-26.598-26.6 0-14.68 11.907-26.597 26.598-26.597" style="fill:#171717;fill-opacity:1;fill-rule:nonzero;stroke:none"/><path d="M685.59 986.828c34.84 0 63.066 28.242 63.066 63.062 0 34.84-28.226 63.07-63.066 63.07-34.836 0-63.063-28.23-63.063-63.07 0-34.82 28.227-63.062 63.063-63.062" style="fill:#beda4e;fill-opacity:1;fill-rule:nonzero;stroke:none"/><path d="M671.926 998.211c14.691 0 26.597 11.919 26.597 26.589 0 14.7-11.906 26.6-26.597 26.6-14.696 0-26.598-11.9-26.598-26.6 0-14.67 11.902-26.589 26.598-26.589M434.418 964.52l-162.547 11.394 2.324 33.176 162.547-11.399-2.324-33.171" style="fill:#171717;fill-opacity:1;fill-rule:nonzero;stroke:none"/><path d="m778.043 1009.09-162.547-11.399 2.328-33.171 162.543 11.394-2.324 33.176" style="fill:#171717;fill-opacity:1;fill-rule:nonzero;stroke:none"/></g></g><path d="M41.965 674.211 24.863 153.172h409.25l-6.832 522.547-385.316-1.508" style="fill:#fff;fill-opacity:1;fill-rule:nonzero;stroke:none" transform="matrix(.13333 0 0 -.13333 14 260.523)"/><path d="M350.133 513.859H108.391c-10.348 0-18.48 8.129-18.48 18.481 0 10.351 8.132 18.48 18.48 18.48h241.742c10.347 0 18.48-8.129 18.48-18.48 0-10.352-8.133-18.481-18.48-18.481M350.133 417.762H108.391c-10.348 0-18.48 8.129-18.48 18.476 0 10.352 8.132 18.481 18.48 18.481h241.742c10.347 0 18.48-8.129 18.48-18.481 0-10.347-8.133-18.476-18.48-18.476M350.133 321.66H108.391c-10.348 0-18.48 8.129-18.48 18.481 0 10.347 8.132 18.48 18.48 18.48h241.742c10.347 0 18.48-8.133 18.48-18.48 0-10.352-8.133-18.481-18.48-18.481" style="fill:#040606;fill-opacity:1;fill-rule:nonzero;stroke:none" transform="matrix(.13333 0 0 -.13333 14 260.523)"/><path d="M385.617 134.602H80.305c-38.438 0-70.23 30.75-70.23 67.929v431.168c0 37.192 31.792 67.93 70.23 67.93h304.57c38.441 0 70.23-30.738 70.23-67.93V202.531c.743-37.89-31.05-67.929-69.488-67.929M80.305 665.891c-18.48 0-33.27-14.309-33.27-32.192V202.531c0-17.871 14.79-32.179 33.27-32.179h304.57c18.48 0 33.27 14.308 33.27 32.179v431.168c0 17.883-14.79 32.192-33.27 32.192H80.305" style="fill:#040606;fill-opacity:1;fill-rule:nonzero;stroke:none" transform="matrix(.13333 0 0 -.13333 14 260.523)"/><path d="M764.031 194.199c-23.191 42.02-76.066 57.281-118.086 34.09-.023-.008-.043-.027-.066-.039l-76.113-42.012L653.754 34.07l76.098 42c.027.02.058.032.086.051 42.019 23.188 57.285 76.059 34.093 118.078M564.961 157.141c6.473-11.731 2.211-26.481-9.516-32.961L447.191 64.43c-11.73-6.47-26.484-2.211-32.961 9.52-6.472 11.73-2.21 26.48 9.516 32.96L532 166.66c11.73 6.469 26.484 2.211 32.961-9.519M595.496 101.809c6.473-11.73 2.215-26.477-9.516-32.957l-19.019-10.5c-11.727-6.473-26.484-2.211-32.957 9.52-6.473 11.73-2.211 26.48 9.516 32.956l19.015 10.5c11.731 6.473 26.488 2.211 32.961-9.519M626.035 46.48c6.473-11.73 2.215-26.492-9.515-32.96l-19.016-10.5c-11.731-6.47-26.488-2.211-32.961 9.52-6.473 11.73-2.215 26.48 9.516 32.96l19.019 10.488c11.727 6.48 26.485 2.223 32.957-9.507" style="fill:#67c1be;fill-opacity:1;fill-rule:nonzero;stroke:none" transform="matrix(.13333 0 0 -.13333 14 260.523)"/></svg>