<?xml version="1.0" encoding="UTF-8" standalone="no"?>
<!-- Created with Inkscape (http://www.inkscape.org/) -->

<svg
   xmlns:dc="http://purl.org/dc/elements/1.1/"
   xmlns:cc="http://creativecommons.org/ns#"
   xmlns:rdf="http://www.w3.org/1999/02/22-rdf-syntax-ns#"
   xmlns:svg="http://www.w3.org/2000/svg"
   xmlns="http://www.w3.org/2000/svg"
   xmlns:sodipodi="http://sodipodi.sourceforge.net/DTD/sodipodi-0.dtd"
   xmlns:inkscape="http://www.inkscape.org/namespaces/inkscape"
   width="219.96851"
   height="115.49606"
   viewBox="0 0 219.96839 115.49599"
   id="svg3343"
   version="1.1"
   inkscape:version="0.91 r13725"
   sodipodi:docname="auswaertiges-amt.svg">
  <defs
     id="defs3345">
    <clipPath
       id="XMLID_3_">
      <polygon
         points="41.061,9.005 163.748,8.748 163.748,81.04 42.122,81.04 41.527,40.645 57.267,40.902 55.981,18.78 41.201,18.52 "
         id="use121" />
    </clipPath>
    <radialGradient
       gradientTransform="matrix(14.925,0,0,14.927,86.4659,30.9041)"
       gradientUnits="userSpaceOnUse"
       r="1"
       cy="0"
       cx="0"
       id="_Radial1">
      <stop
         id="stop3456"
         style="stop-color:#d61919;stop-opacity:1"
         offset="0" />
      <stop
         id="stop3458"
         style="stop-color:#00afe5;stop-opacity:0.498039"
         offset="1" />
    </radialGradient>
    <linearGradient
       gradientTransform="matrix(202.5,-115.5,115.5,202.5,47.6994,109.903)"
       gradientUnits="userSpaceOnUse"
       y2="0"
       x2="1"
       y1="0"
       x1="0"
       id="_Linear2">
      <stop
         id="stop3461"
         style="stop-color:#d61919;stop-opacity:1"
         offset="0" />
      <stop
         id="stop3463"
         style="stop-color:#fff;stop-opacity:1"
         offset="1" />
    </linearGradient>
    <linearGradient
       gradientTransform="matrix(208.161,-82.1255,82.1255,208.161,71.288,98.2784)"
       gradientUnits="userSpaceOnUse"
       y2="0"
       x2="1"
       y1="0"
       x1="0"
       id="_Linear3">
      <stop
         id="stop3466"
         style="stop-color:#00519b;stop-opacity:1"
         offset="0" />
      <stop
         id="stop3468"
         style="stop-color:#2a6eab;stop-opacity:0.835294"
         offset="0.62" />
      <stop
         id="stop3470"
         style="stop-color:#90b3d3;stop-opacity:0.435294"
         offset="0.82" />
      <stop
         id="stop3472"
         style="stop-color:#fff;stop-opacity:0"
         offset="1" />
    </linearGradient>
    <linearGradient
       gradientTransform="matrix(207.75,-141.75,141.75,207.75,55.9494,142.153)"
       gradientUnits="userSpaceOnUse"
       y2="0"
       x2="1"
       y1="0"
       x1="0"
       id="_Linear4">
      <stop
         id="stop3475"
         style="stop-color:#00afe5;stop-opacity:0.498039"
         offset="0" />
      <stop
         id="stop3477"
         style="stop-color:#3ac1eb;stop-opacity:0.384314"
         offset="0.53" />
      <stop
         id="stop3479"
         style="stop-color:#fff;stop-opacity:0"
         offset="1" />
    </linearGradient>
  </defs>
  <sodipodi:namedview
     id="base"
     pagecolor="#ffffff"
     bordercolor="#666666"
     borderopacity="1.0"
     inkscape:pageopacity="0.0"
     inkscape:pageshadow="2"
     inkscape:zoom="1"
     inkscape:cx="126.65627"
     inkscape:cy="189.40948"
     inkscape:document-units="px"
     inkscape:current-layer="layer1"
     showgrid="false"
     inkscape:window-width="1920"
     inkscape:window-height="1018"
     inkscape:window-x="-8"
     inkscape:window-y="-8"
     inkscape:window-maximized="1"
     borderlayer="false"
     inkscape:showpageshadow="false"
     units="px" />
  <metadata
     id="metadata3348">
    <rdf:RDF>
      <cc:Work
         rdf:about="">
        <dc:format>image/svg+xml</dc:format>
        <dc:type
           rdf:resource="http://purl.org/dc/dcmitype/StillImage" />
        <dc:title></dc:title>
      </cc:Work>
    </rdf:RDF>
  </metadata>
  <g
     inkscape:label="Ebene 1"
     inkscape:groupmode="layer"
     id="layer1"
     transform="translate(0,-936.86715)">
    <g
       id="g3616"
       transform="matrix(0.30235776,0,0,0.3170226,-1.6169333,934.58087)">
      <path
         id="path28"
         style="fill:#000000;fill-rule:evenodd;stroke:none"
         d="m 245.0855,70.252728 6.04113,0 3.51088,-11.176922 18.13495,0 3.37745,11.176922 6.69691,0 -15.27399,-46.924515 -7.60797,0 -14.87936,46.924515 z m 26.05628,-16.382359 -15.01283,0 7.34685,-25.017525 0.13348,0 7.5325,25.017525"
         inkscape:connector-curvature="0" />
      <path
         id="path32"
         style="fill:#000000;fill-rule:nonzero;stroke:none"
         d="m 304.71899,59.203476 c 0,5.460786 -3.56896,7.602161 -6.42991,7.602161 -3.77209,0 -5.58847,-2.669436 -5.58847,-6.627227 l 0,-22.754292 -5.3273,0 0,25.02914 c 0,5.588457 3.11049,8.449455 8.83824,8.449455 3.44129,0 6.56339,-1.624911 8.32173,-4.613541 l 0.18571,0 0,3.963556 5.6581,0 c -0.19732,-2.280651 -0.33079,-4.555499 -0.33079,-6.824544 l 0,-26.004066 -5.32731,0 0,21.779358"
         inkscape:connector-curvature="0" />
      <path
         id="path36"
         style="fill:#000000;fill-rule:nonzero;stroke:none"
         d="m 340.14742,60.892183 c 0,-10.004679 -16.37659,-9.882812 -16.37659,-15.662783 0,-2.860951 2.20521,-4.422026 5.0604,-4.422026 3.38906,0 5.21124,1.822228 5.13579,5.263516 l 5.91927,0 c 0.45265,-6.493791 -4.54971,-9.290906 -10.39932,-9.290906 -9.23287,0 -11.3104,5.52463 -11.3104,8.965918 0,9.813165 16.3766,9.946648 16.3766,15.796266 0,3.383247 -2.46636,5.008119 -5.6523,5.008119 -5.39115,0 -5.46079,-4.422026 -5.46079,-6.308041 l -6.04113,0 c -0.19732,7.538316 4.21891,10.660467 11.3046,10.660467 6.49956,0 11.44387,-2.797163 11.44387,-10.01053"
         inkscape:connector-curvature="0" />
      <path
         id="path40"
         style="fill:#000000;fill-rule:nonzero;stroke:none"
         d="m 351.96271,70.252728 7.14371,0 7.34683,-27.948114 0.13348,0 7.02185,27.948114 7.14372,0 8.78021,-32.82861 -5.6581,0 -6.49956,28.273111 -0.13348,0 -6.69107,-28.273111 -7.53833,0 -7.28299,28.273111 -0.12767,0 -5.91345,-28.273111 -5.91345,0 8.1883,32.82861"
         inkscape:connector-curvature="0" />
      <path
         id="path42"
         style="fill:#000000;fill-rule:evenodd;stroke:none"
         d="m 403.06554,25.132985 -6.15138,0 0,6.789724 6.15138,0 0,-6.789724 z m 11.43227,0 -6.09334,0 0,6.789724 6.09334,0 0,-6.789724 z m -3.59797,28.783809 c 0.52227,10.619798 -3.48191,12.650903 -6.7317,12.650903 -3.59797,0 -5.16483,-2.901573 -5.16483,-6.093315 0,-6.905798 6.84776,-6.499556 11.89653,-6.557588 z m 0.11606,16.36495 5.86121,0 c -0.40622,-2.55341 -0.63834,-5.222847 -0.63834,-7.834289 l 0,-15.784659 c 0,-5.513015 -2.20522,-9.865394 -10.67786,-9.865394 -6.96382,0 -10.85196,2.495379 -11.08408,9.865394 l 5.74515,0 c -0.29016,-3.48191 1.56686,-5.861225 5.16483,-5.861225 5.68711,0 5.62909,4.75862 5.51303,9.110998 -7.48611,-0.174095 -17.23546,0.232137 -17.23546,10.213603 0,6.267467 2.03112,10.79395 8.99494,10.79395 4.06222,0 6.61562,-1.62491 8.24052,-5.396998 l 0.11606,0 0,4.75862"
         inkscape:connector-curvature="0" />
      <path
         id="path46"
         style="fill:#000000;fill-rule:nonzero;stroke:none"
         d="m 430.21282,37.424118 -5.32732,0 0,32.82861 5.32732,0 0,-19.365224 c 0,-4.427829 1.49142,-8.91369 7.40487,-8.91369 0.97493,0 1.88603,0.203121 2.85516,0.3308 l 0,-5.52463 c -5.18804,0 -7.92133,0.580299 -10.13236,5.588465 l -0.12767,0 0,-4.944331"
         inkscape:connector-curvature="0" />
      <path
         id="path50"
         style="fill:#000000;fill-rule:nonzero;stroke:none"
         d="m 442.45754,37.424118 0,4.033241 5.39116,0 0,23.334582 c 0,3.772079 2.28065,5.849619 7.34683,5.849619 1.75256,0 3.51092,-0.388832 5.26349,-0.522315 l 0,-4.091225 c -1.16644,0.127679 -2.01371,0.261152 -2.40833,0.261152 -4.86306,0 -4.86306,-2.669474 -4.86306,-4.747004 l 0,-20.084809 7.13791,0 0,-4.033241 -7.13791,0 0,-8.704757 -5.33893,2.402528 0,6.302229 -5.39116,0"
         inkscape:connector-curvature="0" />
      <path
         id="path52"
         style="fill:#000000;fill-rule:evenodd;stroke:none"
         d="m 472.12341,37.435724 -5.28089,0 0,32.787988 5.28089,0 0,-32.787988 z m -5.62908,-8.414588 5.97728,0 0,-5.68712 -5.97728,0 0,5.68712 z"
         inkscape:connector-curvature="0" />
      <path
         id="path56"
         style="fill:#000000;fill-rule:evenodd;stroke:none"
         d="m 498.19711,53.678854 c 0,4.549696 0.20312,12.151848 -6.23262,12.151848 -3.96357,0 -6.37189,-2.46055 -6.37189,-12.9933 0,-4.358229 0.19151,-11.635393 6.23843,-11.635393 6.69686,0 6.36608,7.602152 6.36608,12.476845 z m -0.12767,-12.221495 -0.12766,0 c -1.49142,-3.180182 -4.22473,-4.677375 -7.67182,-4.677375 -2.65785,0 -10.26582,0.969131 -10.26582,16.057418 0,9.743527 1.75256,17.415326 10.65464,17.415326 2.86097,0 5.8496,-1.49724 7.21335,-4.097029 l 0.19731,0 0,6.824544 c 0,3.377453 -2.0079,5.658104 -5.71614,5.658104 -2.93059,0 -4.9501,-1.694558 -5.00814,-4.747014 l -5.97147,0 c -0.45845,6.041133 4.48005,8.774405 9.94084,8.774405 7.21336,0 12.08804,-1.752543 12.08804,-9.099392 l 0,-36.142228 -5.33313,0 0,4.033241"
         inkscape:connector-curvature="0" />
      <path
         id="path60"
         style="fill:#000000;fill-rule:evenodd;stroke:none"
         d="m 517.12129,51.531676 c 0.058,-9.093588 2.85517,-10.724302 6.23842,-10.724302 3.89394,0 6.5634,1.16644 6.5634,10.724302 l -12.80182,0 z m 18.44832,4.027391 0,-2.791303 c 0,-10.851982 -2.33868,-15.98778 -11.69922,-15.98778 -11.36843,0 -12.47104,7.927148 -12.47104,17.543005 0,14.496343 5.51883,16.579724 12.47104,16.579724 6.89999,0 11.38585,-3.313618 11.43808,-10.590829 l -5.84381,0 c -0.1915,3.307814 -2.08334,6.238403 -5.72194,6.238403 -4.15508,0 -6.62143,-1.822181 -6.62143,-10.99122 l 18.44832,0"
         inkscape:connector-curvature="0" />
      <path
         id="path64"
         style="fill:#000000;fill-rule:nonzero;stroke:none"
         d="m 564.8931,60.892183 c 0,-10.004679 -16.38239,-9.882812 -16.38239,-15.662783 0,-2.860951 2.21101,-4.422026 5.07198,-4.422026 3.37746,0 5.19966,1.822228 5.14162,5.263516 l 5.90764,0 c 0.44684,-6.493791 -4.5497,-9.290906 -10.3993,-9.290906 -9.22706,0 -11.3104,5.52463 -11.3104,8.965918 0,9.813165 16.38237,9.946648 16.38237,15.796266 0,3.383247 -2.47214,5.008119 -5.6581,5.008119 -5.39695,0 -5.4608,-4.422026 -5.4608,-6.308041 l -6.0411,0 c -0.19731,7.538316 4.22471,10.660467 11.3104,10.660467 6.49376,0 11.43808,-2.797163 11.43808,-10.01053"
         inkscape:connector-curvature="0" />
      <path
         id="path68"
         style="fill:#000000;fill-rule:evenodd;stroke:none"
         d="m 580.71837,70.252728 6.05272,0 3.51093,-11.176922 18.13495,0 3.38325,11.176922 6.69107,0 -15.27398,-46.924515 -7.60217,0 -14.89677,46.924515 z m 26.07371,-16.382359 -15.01864,0 7.34683,-25.017525 0.13347,0 7.53834,25.017525"
         inkscape:connector-curvature="0" />
      <path
         id="path72"
         style="fill:#000000;fill-rule:nonzero;stroke:none"
         d="m 644.91318,70.252728 0,-22.098495 c 0,-1.230285 0.26114,-4.485861 1.8222,-5.785784 1.42758,-1.16644 2.01951,-1.236078 4.02741,-1.236078 4.29435,0 5.20545,3.058259 5.20545,6.371877 l 0,22.74848 5.32733,0 0,-24.959493 c 0,-7.735634 -5.53044,-8.513251 -8.97173,-8.513251 -2.98863,0 -5.97727,0.713782 -7.79947,4.224708 -1.24189,-2.988621 -4.67737,-4.224708 -7.666,-4.224708 -3.83591,0 -6.63885,1.236087 -8.1883,4.74121 l -0.12767,0 0,-4.097076 -5.66391,0 c 0.19731,2.280651 0.33078,4.549696 0.33078,6.830347 l 0,25.998263 5.33313,0 0,-22.098495 c 0,-1.230285 0.25535,-3.185986 1.23027,-4.816661 0.77763,-1.236079 2.98865,-2.205201 4.61353,-2.205201 4.28857,0 5.19966,3.058259 5.19966,6.371877 l 0,22.74848 5.32732,0"
         inkscape:connector-curvature="0" />
      <path
         id="path76"
         style="fill:#000000;fill-rule:nonzero;stroke:none"
         d="m 666.23408,37.424118 0,4.033241 5.38535,0 0,23.334582 c 0,3.772079 2.27485,5.849619 7.34683,5.849619 1.75837,0 3.51093,-0.388832 5.26349,-0.522315 l 0,-4.091225 c -1.16644,0.127679 -2.0079,0.261152 -2.40252,0.261152 -4.87467,0 -4.87467,-2.669474 -4.87467,-4.747004 l 0,-20.084809 7.14952,0 0,-4.033241 -7.14952,0 0,-8.704757 -5.33313,2.402528 0,6.302229 -5.38535,0"
         inkscape:connector-curvature="0" />
      <path
         id="path78"
         style="fill:#f7d100;fill-opacity:1;fill-rule:nonzero;stroke:none"
         d="m 188.27233,372.04724 20.56068,0 0,-116.06364 -20.56068,0 0,116.06364 z"
         inkscape:connector-curvature="0" />
      <path
         id="path80"
         style="fill:#e3001b;fill-opacity:1;fill-rule:nonzero;stroke:none"
         d="m 188.27233,255.9836 20.56068,0 0,-116.46988 -20.56068,0 0,116.46988 z"
         inkscape:connector-curvature="0" />
      <path
         id="path82"
         style="fill:#000000;fill-rule:nonzero;stroke:none"
         d="m 188.27233,139.91996 20.56068,0 0,-116.063676 -20.56068,0 0,116.063676 z"
         inkscape:connector-curvature="0" />
      <path
         id="path86"
         style="fill:#000000;fill-rule:evenodd;stroke:none"
         d="m 70.862349,139.91415 0,0 z m 0.0058,0.0464 0,0 z m -0.01161,0.0116 0,0 z m 0,-0.0813 0,0 z M 124.13557,43.453645 c 0,-6.609817 -4.81085,-11.844317 -6.49956,-13.318297 l -1.21867,0.278515 c 1.79897,2.199406 4.9733,5.878634 4.9733,10.747524 0,9.586831 -10.13816,17.926025 -21.703916,18.082711 0.08706,0.986541 0.08125,1.851206 0.08125,2.599845 0,1.369514 -0.08706,2.715862 -0.249499,4.015784 13.126785,-0.23794 24.617095,-10.909966 24.617095,-22.406082 z M 106.03544,122.8586 c -5.60587,0 -6.818745,-0.58614 -8.298567,-0.58614 -0.945909,0 -1.845393,0.0928 -1.845393,1.43339 0,0.93431 1.044563,2.29226 1.990473,3.01184 1.317332,-1.31734 3.127907,-1.59585 6.052737,-1.59585 1.36371,0 3.22656,0.26691 4.05061,0.37718 -0.11608,0.80667 -0.27857,1.84544 -0.27857,3.31361 0,0.77766 0.029,1.67714 0.029,2.62886 0,3.30201 -0.48744,5.06039 -1.64227,6.38348 0.24954,0.15089 0.91689,0.29017 1.31152,0.29017 2.14717,0 2.69265,-1.09679 2.69265,-6.66785 0,-1.6829 0.13928,-3.23817 0.13928,-3.63861 2.99442,2.28646 6.05274,6.36612 6.05274,9.31993 0.98073,-0.4991 2.12976,-1.97888 2.12976,-3.09309 0,-2.00788 -3.36004,-5.00236 -6.92321,-8.61775 0.4933,-0.11607 1.81638,-0.49905 2.90738,-0.49905 2.79716,0 5.06621,0.47003 6.38353,2.0195 0.51646,-0.56869 0.95172,-2.26905 0.95172,-3.23237 0,-1.68294 -0.96333,-1.6191 -1.66554,-1.6191 -2.97702,0 -6.66205,0.45847 -9.30247,0.89372 -0.95756,-1.27671 -7.06248,-9.54045 -8.64677,-13.94506 -0.45842,-0.1625 -0.81243,-0.29597 -1.56103,-0.29597 -1.468212,0 -1.851241,1.02716 -2.234223,2.43154 3.371653,4.08542 6.609823,8.53066 7.706623,11.68762 z M 72.585876,111.17098 c -0.382982,-1.40438 -0.754405,-2.43154 -2.22262,-2.43154 -0.760198,0 -1.114211,0.13347 -1.555225,0.29597 -1.595894,4.40461 -7.700819,12.66835 -8.664185,13.94506 -2.628814,-0.43525 -6.319648,-0.89372 -9.296662,-0.89372 -0.702214,0 -1.665533,-0.0638 -1.665533,1.6191 0,0.96332 0.429454,2.66368 0.957516,3.23237 1.311529,-1.54947 3.580574,-2.0195 6.377727,-2.0195 1.090998,0 2.408284,0.38298 2.901573,0.49905 -3.563164,3.61539 -6.923208,6.60987 -6.923208,8.61775 0,1.11421 1.160637,2.59399 2.135572,3.09309 0,-2.95381 3.058306,-7.03347 6.05273,-9.31993 0,0.40044 0.139286,1.95571 0.139286,3.63861 0,5.57106 0.551274,6.66785 2.692653,6.66785 0.394635,0 1.056179,-0.13928 1.311528,-0.29017 -1.154833,-1.32309 -1.642282,-3.08147 -1.642282,-6.38348 0,-0.95172 0.04063,-1.8512 0.04063,-2.62886 0,-1.46817 -0.174109,-2.50694 -0.284379,-3.31361 0.81244,-0.11027 2.681094,-0.37718 4.050608,-0.37718 2.913226,0 4.7238,0.27851 6.046936,1.59585 0.945909,-0.71958 1.996285,-2.07753 1.996285,-3.01184 0,-1.34054 -0.899484,-1.43339 -1.857009,-1.43339 -1.479821,0 -2.686883,0.58614 -8.292759,0.58614 1.102605,-3.15696 4.334969,-7.6022 7.700816,-11.68762 z M 49.535655,41.161387 c 0,-4.86889 3.174332,-8.548118 4.967497,-10.747524 l -1.207063,-0.278515 c -1.706117,1.47398 -6.505359,6.70848 -6.505359,13.318297 0,11.57736 11.646999,22.324828 24.901465,22.411885 -0.145089,-1.2593 -0.226334,-2.594041 -0.226334,-4.021587 0,-0.893728 0.03482,-1.769999 0.116064,-2.588239 -11.710791,0 -22.04627,-8.414635 -22.04627,-18.094317 z m 35.596694,-8.91369 c 0.603559,-1.38697 1.415996,-3.035093 1.415996,-4.851471 0,-5.019772 -4.166677,-7.410647 -9.737724,-7.410647 -2.860988,0 -4.305999,0.922707 -4.305999,1.851207 0,0.9285 0.945966,2.971211 1.311528,3.597974 1.027164,-0.458471 2.890014,-0.998139 3.963603,-0.998139 3.830064,0 6.685249,4.28274 7.352596,7.811076 z m 2.739122,-6.418349 c 3.255586,0.632575 5.478205,-3.528289 2.379314,-4.271134 0.429408,1.375364 -1.653926,2.344496 -1.653926,2.344496 0,0 -0.795027,-1.839591 0.23794,-2.889967 -1.897632,-0.922744 -2.373511,0.203074 -2.414134,1.369514 0.748592,0.998185 1.230275,2.158831 1.450806,3.447091 z m 10.544403,28.51105 c 0.516455,0.03482 1.015548,0.06383 1.537816,0.06383 9.16323,0 18.26262,-5.930863 18.26262,-13.533014 0,-4.050604 -1.82218,-6.882586 -4.07382,-10.022099 -1.32313,0.220531 -2.5302,0.342407 -3.4761,0.342407 -4.14931,0 -6.40675,-2.222619 -6.5692,-4.410419 0,-1.973111 1.60165,-3.458698 4.08542,-3.458698 3.85909,0 10.88676,3.609543 17.97245,3.609543 -0.69636,0.528108 -1.857,1.085195 -3.25557,1.6075 4.15506,3.737269 6.929,8.745389 7.98518,14.101755 l 10.85774,17.374704 c 1.82222,2.90162 5.67551,8.606149 11.4845,13.057182 -7.02187,0 -11.68182,0.162498 -17.61844,-9.227062 l -5.55945,-8.902084 c -0.41205,1.14904 -0.92275,2.274858 -1.51464,3.37165 l 11.06085,17.717101 c 1.84544,2.930589 5.6523,8.588693 11.49031,13.062947 -7.02186,0 -11.67022,0.168302 -17.61264,-9.227024 l -9.52885,-15.250785 c -0.71377,0.754395 -1.46241,1.49724 -2.25744,2.211013 l 13.44598,21.512401 c 1.8512,2.948046 5.64649,8.577124 11.4903,13.057174 -7.02766,0 -11.68182,0.16826 -17.62424,-9.232866 L 115.90084,71.198637 c -0.87047,0.545528 -1.75254,1.067786 -2.65788,1.572682 l 15.98778,25.592021 c 1.84544,2.94224 5.64069,8.57713 11.49031,13.05718 -7.02187,0 -11.68763,0.1683 -17.61264,-9.23286 L 106.63895,75.835391 c -0.97493,0.377216 -1.96727,0.731229 -2.97121,1.050366 l 18.61078,29.793553 c 1.81062,2.88416 5.70453,8.61191 11.4787,13.05134 -7.01605,0 -11.67597,0.1625 -17.60684,-9.23282 L 96.315084,78.748608 95.705769,78.858877 c -0.533912,1.717715 -0.911091,3.319412 -0.911091,4.921072 0,9.969851 6.545982,18.779121 14.403482,25.580451 -0.50489,0.21468 -1.38117,0.30174 -2.18779,0.30174 -1.61911,0 -2.66948,-0.0987 -3.40647,-0.22048 1.82799,4.13765 5.73355,9.47656 7.70662,12.24469 2.57662,-0.45847 6.31969,-0.82409 8.76279,-0.82409 2.56502,0 2.84939,1.50305 2.84939,2.84359 0,2.32128 -1.091,4.18988 -2.3503,5.22285 -0.47588,-1.20126 -1.43339,-2.7913 -6.1688,-2.7913 l -0.48164,0.0232 c 1.39278,1.54362 5.72194,5.04874 5.72194,7.87491 0,1.86281 -2.04851,4.66577 -4.75282,4.66577 0.16831,-0.60356 0.13929,-1.16064 0.13929,-1.57268 0,-2.28646 -2.0195,-4.95594 -3.73146,-6.82455 0.0464,0.55713 0.0232,0.4991 0.0232,1.14323 0,5.40275 -0.48164,7.88653 -3.91713,7.88653 -1.68295,0 -2.84358,-0.9227 -3.24402,-1.19546 2.22842,-2.06013 2.3503,-3.67343 2.3503,-6.69687 l -0.0232,-2.62886 c -0.006,-0.69056 0.006,-1.60165 0.11027,-2.26905 -1.23029,-0.17405 -1.71773,-0.16824 -2.66364,-0.16824 0,0 -4.880485,-0.38303 -6.052737,2.15297 -1.317323,-1.20706 -3.232364,-2.91903 -3.232364,-4.82246 0,-1.24769 0.586103,-2.65787 3.087284,-2.65787 0.951713,0 3.946187,0.58615 6.447317,0.58615 -0.66735,-1.49724 -3.66757,-5.87284 -6.249999,-9.05297 -0.394635,1.23028 -1.009754,2.57078 -2.373511,3.65598 -0.185712,-2.04852 -1.381168,-8.49585 -4.572909,-12.26792 -0.371413,2.5476 -0.876272,5.16485 -0.876272,10.67787 0,13.42855 3.232364,23.34618 10.085931,25.24385 -0.893678,1.56103 -2.773947,2.948 -4.735405,2.948 -2.506984,0 -3.870695,-2.83778 -5.263468,-5.51302 -0.725436,1.97888 -2.727515,6.81294 -4.741211,6.81294 -2.007892,0 -4.009981,-4.83406 -4.729604,-6.81294 -1.398567,2.67524 -2.762287,5.51302 -5.275075,5.51302 -1.949851,0 -3.841717,-1.38697 -4.723791,-2.948 6.847756,-1.89767 10.080111,-11.8153 10.080111,-25.24385 0,-5.51302 -0.504849,-8.13027 -0.876272,-10.67787 -3.191732,3.77207 -4.392991,10.2194 -4.578702,12.26792 -1.357954,-1.0852 -1.973073,-2.4257 -2.367699,-3.65598 -2.588239,3.18013 -5.576859,7.55573 -6.255813,9.05297 2.512741,0 5.495605,-0.58615 6.447318,-0.58615 2.512788,0 3.104694,1.41018 3.104694,2.65787 0,1.90343 -1.926638,3.6154 -3.24397,4.82246 -1.178047,-2.536 -6.046936,-2.15297 -6.046936,-2.15297 -0.951713,0 -1.439152,-0.006 -2.669437,0.16824 0.104467,0.6674 0.12768,1.57849 0.11027,2.26905 l -0.01741,2.62886 c 0,3.02344 0.116016,4.63674 2.344486,6.69687 -0.394636,0.27276 -1.561075,1.19546 -3.244017,1.19546 -3.429686,0 -3.922928,-2.48378 -3.922928,-7.88653 0,-0.64413 -0.01742,-0.5861 0.02902,-1.14323 -1.711968,1.86861 -3.731466,4.53809 -3.731466,6.82455 0,0.41204 -0.02902,0.96912 0.133482,1.57268 -2.692696,0 -4.747013,-2.80296 -4.747013,-4.66577 0,-2.82617 4.334969,-6.33129 5.716136,-7.87491 l -0.475833,-0.0232 c -4.735407,0 -5.698726,1.59004 -6.168803,2.7913 -1.265104,-1.03297 -2.350299,-2.90157 -2.350299,-5.22285 0,-1.34054 0.284375,-2.84359 2.849392,-2.84359 2.454709,0 6.191968,0.36562 8.762797,0.82409 1.967261,-2.76813 5.878639,-8.10704 7.706623,-12.24469 -0.736995,0.12181 -1.781559,0.22048 -3.400666,0.22048 -0.81244,0 -1.694515,-0.0871 -2.187804,-0.30174 7.851711,-6.80133 14.39188,-15.6106 14.39188,-25.580451 0,-1.60166 -0.365563,-3.203357 -0.91109,-4.921072 l -0.5977,-0.110269 -19.835313,31.749222 c -5.936667,9.39532 -10.596623,9.23282 -17.612634,9.23282 5.77997,-4.43943 9.662272,-10.16718 11.472894,-13.05134 L 67.252759,76.885757 C 66.248818,76.56662 65.262286,76.212607 64.281548,75.835391 L 47.817893,102.18766 c -5.936619,9.40116 -10.602388,9.23286 -17.612643,9.23286 5.843815,-4.48005 9.633266,-10.11494 11.478707,-13.05718 L 57.683334,72.771319 c -0.916941,-0.504896 -1.799015,-1.027154 -2.66368,-1.572682 L 41.916046,92.165559 c -5.936619,9.401131 -10.590782,9.232871 -17.612643,9.232871 5.838012,-4.480055 9.639116,-10.109133 11.48451,-13.057179 L 49.228076,66.82885 C 48.438853,66.115077 47.684411,65.372232 46.976441,64.617837 L 37.453398,79.868622 C 31.510976,89.263948 26.856813,89.095646 19.834951,89.095646 25.66716,84.621392 29.479824,78.963288 31.325264,76.032699 L 42.386123,58.315598 c -0.586103,-1.096792 -1.096802,-2.22261 -1.508847,-3.37165 l -5.565243,8.902084 c -5.936629,9.38956 -10.596585,9.227062 -17.612644,9.227062 5.808996,-4.451033 9.656479,-10.155562 11.48451,-13.057182 L 40.035824,42.641208 c 1.05618,-5.356366 3.83012,-10.364486 7.98519,-14.101755 -1.392783,-0.522305 -2.553419,-1.079392 -3.255586,-1.6075 7.085697,0 14.113315,-3.60374 17.966647,-3.60374 2.495382,0 4.085427,1.479784 4.085427,3.452895 -0.156639,2.1878 -2.414078,4.410419 -6.569199,4.410419 -0.940106,0 -2.147168,-0.121876 -3.470303,-0.342407 -2.245833,3.139513 -4.068013,5.971495 -4.068013,10.022099 0,7.602151 9.087785,13.533014 18.268435,13.533014 0.510652,0 1.009744,-0.02902 1.5262,-0.06383 1.816424,-6.157149 5.687129,-10.196193 8.774441,-14.148133 -3.702431,-1.346348 -7.834279,-4.863087 -7.834279,-6.458981 0.47003,-0.272712 7.567324,1.95571 8.304309,2.158831 0.150892,0.04058 0.301775,0.04638 0.47588,0 0.858862,-0.261162 1.58425,-1.526256 1.58425,-1.653935 -0.760207,-0.121867 -5.21124,-0.702167 -8.257892,-1.810575 -2.309668,-0.847293 -3.481911,-2.379305 -3.481911,-2.959652 0.736986,-0.121867 3.557352,1.357955 7.695003,1.357955 1.526247,0 1.827975,-0.06383 3.342624,-0.249547 -1.067785,-2.541803 -3.069865,-4.688972 -5.327294,-4.688972 -0.905287,0 -2.890014,0.568731 -4.549696,1.398577 -1.154833,-1.793165 -2.170391,-4.15507 -2.170391,-5.44918 0,-1.520453 1.502997,-3.307815 5.750955,-3.307815 1.189662,0 2.298071,0.104467 3.331018,0.295972 0.829846,0.156648 1.526209,0.342359 2.274848,0.638331 -0.05803,-0.104457 -0.09285,-0.330791 -0.09285,-0.539668 0,-0.586149 0.533865,-1.207071 2.530198,-1.207071 3.493479,0 7.079846,1.149039 11.472856,1.149039 1.137424,0 1.909276,-0.04063 2.57082,-0.319193 -0.284365,0.876271 -1.520453,2.164587 -2.652074,3.214954 0.696411,0.951722 2.518591,3.255586 2.518591,6.975436 0,5.983092 -3.946136,10.91577 -3.946136,16.962706 0,3.586377 2.76809,6.754905 3.597983,8.640921"
         inkscape:connector-curvature="0" />
    </g>
  </g>
</svg>
