<svg id="Ebene_1" data-name="Ebene 1" xmlns="http://www.w3.org/2000/svg" xmlns:xlink="http://www.w3.org/1999/xlink" viewBox="0 0 283.46 106.3"><defs><style>.cls-1{fill:none;}.cls-2{fill:#fff;}.cls-3{fill:#1a171b;}.cls-4{fill:#006ab1;}.cls-5{clip-path:url(#clip-path);}</style><clipPath id="clip-path" transform="translate(-279 -245.28)"><rect class="cls-1" x="359.82" y="273.06" width="201.14" height="26.86"/></clipPath></defs><polygon class="cls-2" points="0 0 0 106.3 283.46 106.3 283.46 0 0 0 0 0"/><path class="cls-3" d="M371.11,304.53h1.47a2.71,2.71,0,0,1,2.07.75,3.07,3.07,0,0,1,.71,2.16,4,4,0,0,1-.18,1.25,2.49,2.49,0,0,1-.53.93,2.28,2.28,0,0,1-.86.59,3.26,3.26,0,0,1-1.17.2h-1.51v-5.88Zm1.42,5.27a1.9,1.9,0,0,0,1.54-.62,2.6,2.6,0,0,0,.52-1.74,2.52,2.52,0,0,0-.52-1.71,2,2,0,0,0-1.54-.59h-.68v4.66Z" transform="translate(-279 -245.28)"/><path class="cls-3" d="M376.27,308.24a2.61,2.61,0,0,1,.17-1,2,2,0,0,1,.44-.72,2,2,0,0,1,.62-.46,1.79,1.79,0,0,1,.72-.15,1.75,1.75,0,0,1,.74.14,1.5,1.5,0,0,1,.55.41,1.74,1.74,0,0,1,.33.65,2.75,2.75,0,0,1,.12.84,2.17,2.17,0,0,1,0,.4H377a1.72,1.72,0,0,0,.43,1.12,1.32,1.32,0,0,0,1,.41,1.81,1.81,0,0,0,.58-.09,2.13,2.13,0,0,0,.5-.25l.26.49a3.69,3.69,0,0,1-.63.31,2.26,2.26,0,0,1-1.62,0,1.8,1.8,0,0,1-.66-.45,2.05,2.05,0,0,1-.45-.71,2.61,2.61,0,0,1-.16-1Zm3.05-.33a1.62,1.62,0,0,0-.29-1,1,1,0,0,0-.79-.35,1.12,1.12,0,0,0-.44.09,1.46,1.46,0,0,0-.38.27,1.28,1.28,0,0,0-.28.43,1.76,1.76,0,0,0-.15.59Z" transform="translate(-279 -245.28)"/><path class="cls-3" d="M381,306.05h.74v2.66a1.7,1.7,0,0,0,.19.9.72.72,0,0,0,.63.27,1.13,1.13,0,0,0,.6-.17,3.26,3.26,0,0,0,.57-.56v-3.1h.74v4.36h-.61l-.07-.68h0a3,3,0,0,1-.64.57,1.5,1.5,0,0,1-.8.22,1.19,1.19,0,0,1-1-.43,2.09,2.09,0,0,1-.32-1.28v-2.76Z" transform="translate(-279 -245.28)"/><path class="cls-3" d="M386.12,306.66h-.64v-.56l.68-.05.09-1.21h.62v1.21H388v.61h-1.17v2.41a1.13,1.13,0,0,0,.15.63.58.58,0,0,0,.52.22,1.18,1.18,0,0,0,.25,0l.24-.08.15.55a3.59,3.59,0,0,1-.39.12,2.09,2.09,0,0,1-.42,0,1.48,1.48,0,0,1-.59-.11.94.94,0,0,1-.38-.3,1.1,1.1,0,0,1-.21-.45,2.25,2.25,0,0,1-.07-.6v-2.4Z" transform="translate(-279 -245.28)"/><path class="cls-3" d="M389,309.42a3.26,3.26,0,0,0,.59.38,1.68,1.68,0,0,0,.7.14.92.92,0,0,0,.64-.19.68.68,0,0,0,.22-.49A.48.48,0,0,0,391,309a.8.8,0,0,0-.23-.22,1.62,1.62,0,0,0-.32-.17l-.36-.14-.46-.19a1.46,1.46,0,0,1-.42-.25,1.38,1.38,0,0,1-.3-.34.9.9,0,0,1-.12-.48,1.13,1.13,0,0,1,.11-.48,1,1,0,0,1,.29-.4,1.43,1.43,0,0,1,.47-.26,2.08,2.08,0,0,1,.63-.09,1.82,1.82,0,0,1,.75.14,2.49,2.49,0,0,1,.6.35l-.35.47a2,2,0,0,0-.46-.28,1.36,1.36,0,0,0-.53-.11.83.83,0,0,0-.61.19.58.58,0,0,0-.19.44.45.45,0,0,0,.08.26.71.71,0,0,0,.22.2,1.4,1.4,0,0,0,.3.15l.37.14.47.19a1.71,1.71,0,0,1,.42.24,1.12,1.12,0,0,1,.31.37,1,1,0,0,1,.12.52,1.21,1.21,0,0,1-.1.5,1.31,1.31,0,0,1-.3.41,1.56,1.56,0,0,1-.51.28,2,2,0,0,1-.68.11,2.43,2.43,0,0,1-.89-.17,3.06,3.06,0,0,1-.73-.43l.36-.5Z" transform="translate(-279 -245.28)"/><path class="cls-3" d="M392.55,308.24a2.47,2.47,0,0,1,.17-1,2.1,2.1,0,0,1,.45-.72,1.89,1.89,0,0,1,.67-.45,2.15,2.15,0,0,1,.8-.15,1.65,1.65,0,0,1,.74.15,2.16,2.16,0,0,1,.53.37l-.36.47a2.71,2.71,0,0,0-.41-.28,1,1,0,0,0-.47-.1,1.23,1.23,0,0,0-1,.46,1.78,1.78,0,0,0-.28.53,2.17,2.17,0,0,0-.1.69,2.07,2.07,0,0,0,.1.68,1.56,1.56,0,0,0,.27.53,1.3,1.3,0,0,0,.43.34,1.19,1.19,0,0,0,.54.12,1.33,1.33,0,0,0,.57-.13,2.11,2.11,0,0,0,.45-.31l.33.48a2.31,2.31,0,0,1-.65.41,1.85,1.85,0,0,1-.76.16,2,2,0,0,1-.81-.16,1.83,1.83,0,0,1-.65-.44,2.12,2.12,0,0,1-.43-.72,2.85,2.85,0,0,1-.15-1Z" transform="translate(-279 -245.28)"/><path class="cls-3" d="M397,304h.73v1.74l0,.89a3.88,3.88,0,0,1,.65-.5,1.49,1.49,0,0,1,.8-.21,1.14,1.14,0,0,1,1,.43,2.05,2.05,0,0,1,.32,1.27v2.76h-.73v-2.66a1.56,1.56,0,0,0-.2-.89.71.71,0,0,0-.63-.28,1.13,1.13,0,0,0-.6.17,4,4,0,0,0-.59.51v3.15H397V304Z" transform="translate(-279 -245.28)"/><path class="cls-3" d="M401.59,308.24a2.61,2.61,0,0,1,.17-1,2.14,2.14,0,0,1,.44-.72,2,2,0,0,1,.62-.46,1.8,1.8,0,0,1,.73-.15,1.7,1.7,0,0,1,.73.14,1.5,1.5,0,0,1,.55.41,1.91,1.91,0,0,1,.34.65,3.11,3.11,0,0,1,.11.84c0,.16,0,.3,0,.4h-2.94a1.72,1.72,0,0,0,.43,1.12,1.32,1.32,0,0,0,1,.41,1.81,1.81,0,0,0,.58-.09,2.13,2.13,0,0,0,.5-.25l.26.49a3.69,3.69,0,0,1-.63.31,2.26,2.26,0,0,1-1.62,0,2,2,0,0,1-.66-.45,2.05,2.05,0,0,1-.45-.71,2.84,2.84,0,0,1-.16-1Zm3.05-.33a1.68,1.68,0,0,0-.28-1,1,1,0,0,0-.8-.35,1.12,1.12,0,0,0-.44.09,1.31,1.31,0,0,0-.66.7,1.76,1.76,0,0,0-.15.59Z" transform="translate(-279 -245.28)"/><path class="cls-3" d="M406.4,306.05H407l.07.79h0a2.06,2.06,0,0,1,.54-.65,1.16,1.16,0,0,1,.7-.24,1.11,1.11,0,0,1,.46.09l-.14.64-.2-.05-.22,0a1,1,0,0,0-.58.22,1.79,1.79,0,0,0-.52.78v2.8h-.74v-4.36Z" transform="translate(-279 -245.28)"/><path class="cls-3" d="M414.17,308.62H412l-.57,1.79h-.76l2-5.88h.84l2,5.88h-.8l-.55-1.79ZM414,308l-.28-.9c-.1-.33-.21-.65-.3-1s-.19-.66-.29-1h0c-.09.34-.19.67-.28,1s-.2.65-.31,1l-.27.9Z" transform="translate(-279 -245.28)"/><polygon class="cls-3" points="137.33 58.75 138.05 58.75 138.05 63.07 138.08 63.07 139.93 60.78 140.75 60.78 139.29 62.53 140.95 65.13 140.14 65.13 138.87 63.04 138.05 63.99 138.05 65.13 137.33 65.13 137.33 58.75 137.33 58.75"/><path class="cls-3" d="M420.5,309.28a1.23,1.23,0,0,1,.64-1.1,5.38,5.38,0,0,1,2-.53,1.75,1.75,0,0,0,0-.4.92.92,0,0,0-.14-.35.68.68,0,0,0-.28-.25.93.93,0,0,0-.44-.09,1.7,1.7,0,0,0-.71.14,2.91,2.91,0,0,0-.58.32l-.3-.51a4.6,4.6,0,0,1,.74-.38,2.58,2.58,0,0,1,1-.18,1.34,1.34,0,0,1,1.16.49,2.13,2.13,0,0,1,.36,1.3v2.67h-.61l-.07-.52h0a3.76,3.76,0,0,1-.68.44,1.72,1.72,0,0,1-.77.19,1.29,1.29,0,0,1-.91-.33,1.13,1.13,0,0,1-.37-.91Zm.73,0a.59.59,0,0,0,.22.53.85.85,0,0,0,.54.16,1.31,1.31,0,0,0,.59-.14,3,3,0,0,0,.6-.44v-1.21c-.36.05-.67.11-.92.17a2.77,2.77,0,0,0-.61.24.85.85,0,0,0-.32.3.76.76,0,0,0-.1.39Z" transform="translate(-279 -245.28)"/><path class="cls-3" d="M425,308.24a2.83,2.83,0,0,1,.15-.95,2.11,2.11,0,0,1,.42-.72,1.79,1.79,0,0,1,.6-.46,1.61,1.61,0,0,1,.72-.16,1.48,1.48,0,0,1,.65.13,2.84,2.84,0,0,1,.56.37l0-.74V304h.74v6.38h-.61l-.06-.51h0a2.56,2.56,0,0,1-.59.43,1.55,1.55,0,0,1-.72.19,1.62,1.62,0,0,1-1.32-.6,2.59,2.59,0,0,1-.48-1.68Zm.76,0a2.07,2.07,0,0,0,.31,1.23,1,1,0,0,0,.89.44,1.16,1.16,0,0,0,.57-.15,2.15,2.15,0,0,0,.54-.45V307a1.76,1.76,0,0,0-.54-.35,1.34,1.34,0,0,0-.52-.1,1,1,0,0,0-.49.12,1.27,1.27,0,0,0-.4.34,1.59,1.59,0,0,0-.26.52,2.07,2.07,0,0,0-.1.68Z" transform="translate(-279 -245.28)"/><path class="cls-3" d="M430,308.24a2.61,2.61,0,0,1,.17-1,2,2,0,0,1,.44-.72,2,2,0,0,1,.62-.46A1.79,1.79,0,0,1,432,306a1.72,1.72,0,0,1,.74.14,1.5,1.5,0,0,1,.55.41,1.91,1.91,0,0,1,.34.65,3.11,3.11,0,0,1,.11.84c0,.16,0,.3,0,.4h-2.94a1.72,1.72,0,0,0,.43,1.12,1.32,1.32,0,0,0,1,.41,1.81,1.81,0,0,0,.58-.09,2.13,2.13,0,0,0,.5-.25l.26.49a3.69,3.69,0,0,1-.63.31,2.26,2.26,0,0,1-1.62,0,1.89,1.89,0,0,1-.66-.45,2.05,2.05,0,0,1-.45-.71,2.84,2.84,0,0,1-.16-1Zm3-.33a1.68,1.68,0,0,0-.28-1,1,1,0,0,0-.8-.35,1.12,1.12,0,0,0-.44.09,1.31,1.31,0,0,0-.66.7,1.76,1.76,0,0,0-.15.59Z" transform="translate(-279 -245.28)"/><path class="cls-3" d="M434.85,306.05h.61l.06.63h0a3,3,0,0,1,.62-.52,1.37,1.37,0,0,1,.73-.21,1.12,1.12,0,0,1,1.2.83,3.7,3.7,0,0,1,.69-.6,1.28,1.28,0,0,1,.75-.23,1.18,1.18,0,0,1,1,.43,2.12,2.12,0,0,1,.32,1.27v2.76h-.73v-2.66a1.56,1.56,0,0,0-.2-.89.68.68,0,0,0-.61-.28,1.62,1.62,0,0,0-1.09.68v3.15h-.73v-2.66a1.56,1.56,0,0,0-.2-.89.7.7,0,0,0-.62-.28,1.62,1.62,0,0,0-1.09.68v3.15h-.74v-4.36Z" transform="translate(-279 -245.28)"/><path class="cls-3" d="M442.7,305.16a.51.51,0,0,1-.36-.14.42.42,0,0,1-.15-.34.43.43,0,0,1,.15-.34.5.5,0,0,1,.36-.13.52.52,0,0,1,.36.13.43.43,0,0,1,.15.34.42.42,0,0,1-.15.34.52.52,0,0,1-.36.14Zm-.38.89h.74v4.36h-.74v-4.36Z" transform="translate(-279 -245.28)"/><path class="cls-3" d="M444.45,309.42a3.26,3.26,0,0,0,.59.38,1.68,1.68,0,0,0,.7.14.92.92,0,0,0,.64-.19.68.68,0,0,0,.22-.49.48.48,0,0,0-.09-.29.8.8,0,0,0-.23-.22,1.62,1.62,0,0,0-.32-.17l-.36-.14-.46-.19a1.46,1.46,0,0,1-.42-.25,1.38,1.38,0,0,1-.3-.34.9.9,0,0,1-.12-.48,1.13,1.13,0,0,1,.11-.48,1,1,0,0,1,.29-.4,1.43,1.43,0,0,1,.47-.26,2.08,2.08,0,0,1,.63-.09,1.86,1.86,0,0,1,.75.14,2.49,2.49,0,0,1,.6.35l-.35.47a2,2,0,0,0-.46-.28,1.36,1.36,0,0,0-.53-.11.83.83,0,0,0-.61.19.58.58,0,0,0-.19.44.45.45,0,0,0,.08.26.8.8,0,0,0,.21.2,1.35,1.35,0,0,0,.32.15l.36.14.47.19a1.71,1.71,0,0,1,.42.24,1.12,1.12,0,0,1,.31.37,1,1,0,0,1,.12.52,1.21,1.21,0,0,1-.1.5,1.31,1.31,0,0,1-.3.41,1.56,1.56,0,0,1-.51.28,2,2,0,0,1-.68.11,2.43,2.43,0,0,1-.89-.17,3.06,3.06,0,0,1-.73-.43l.36-.5Z" transform="translate(-279 -245.28)"/><path class="cls-3" d="M448.05,308.24a2.47,2.47,0,0,1,.17-1,2.1,2.1,0,0,1,.45-.72,1.89,1.89,0,0,1,.67-.45,2.18,2.18,0,0,1,.8-.15,1.65,1.65,0,0,1,.74.15,2.37,2.37,0,0,1,.53.37l-.36.47a2.71,2.71,0,0,0-.41-.28,1,1,0,0,0-.47-.1,1.23,1.23,0,0,0-1,.46,1.78,1.78,0,0,0-.28.53,2.17,2.17,0,0,0-.1.69,2.07,2.07,0,0,0,.1.68,1.56,1.56,0,0,0,.27.53,1.37,1.37,0,0,0,.42.34,1.3,1.3,0,0,0,.55.12,1.33,1.33,0,0,0,.57-.13,2.11,2.11,0,0,0,.45-.31l.33.48a2.31,2.31,0,0,1-.65.41,1.85,1.85,0,0,1-.76.16,2,2,0,0,1-.81-.16,1.83,1.83,0,0,1-.65-.44,2.12,2.12,0,0,1-.43-.72,2.85,2.85,0,0,1-.15-1Z" transform="translate(-279 -245.28)"/><path class="cls-3" d="M452.5,304h.73v1.74l0,.89a4.33,4.33,0,0,1,.65-.5,1.49,1.49,0,0,1,.8-.21,1.14,1.14,0,0,1,1,.43,2.05,2.05,0,0,1,.32,1.27v2.76h-.73v-2.66a1.56,1.56,0,0,0-.2-.89.71.71,0,0,0-.63-.28,1.13,1.13,0,0,0-.6.17,4,4,0,0,0-.59.51v3.15h-.73V304Z" transform="translate(-279 -245.28)"/><path class="cls-3" d="M457.09,308.24a2.61,2.61,0,0,1,.17-1,2.14,2.14,0,0,1,.44-.72,2,2,0,0,1,.62-.46,1.83,1.83,0,0,1,.73-.15,1.7,1.7,0,0,1,.73.14,1.5,1.5,0,0,1,.55.41,1.91,1.91,0,0,1,.34.65,3.11,3.11,0,0,1,.11.84,2.3,2.3,0,0,1,0,.4h-2.94a1.72,1.72,0,0,0,.43,1.12,1.32,1.32,0,0,0,1,.41,1.81,1.81,0,0,0,.58-.09,2.13,2.13,0,0,0,.5-.25l.26.49a3.69,3.69,0,0,1-.63.31,2.24,2.24,0,0,1-.8.14,2.26,2.26,0,0,1-.82-.16,2,2,0,0,1-.66-.45,1.9,1.9,0,0,1-.44-.71,2.61,2.61,0,0,1-.17-1Zm3.05-.33a1.62,1.62,0,0,0-.28-1,1,1,0,0,0-.8-.35,1.12,1.12,0,0,0-.44.09,1.31,1.31,0,0,0-.66.7,1.76,1.76,0,0,0-.15.59Z" transform="translate(-279 -245.28)"/><path class="cls-3" d="M461.9,306.05h.61l.07.79h0a2.06,2.06,0,0,1,.54-.65,1.16,1.16,0,0,1,.7-.24,1.11,1.11,0,0,1,.46.09l-.14.64-.2-.05-.22,0a1,1,0,0,0-.58.22,1.79,1.79,0,0,0-.52.78v2.8h-.74v-4.36Z" transform="translate(-279 -245.28)"/><path class="cls-3" d="M469.67,308.62h-2.14l-.57,1.79h-.76l2-5.88H469l2,5.88h-.8l-.55-1.79Zm-.19-.6-.28-.9c-.1-.33-.21-.65-.3-1s-.19-.66-.29-1h0c-.09.34-.19.67-.28,1s-.2.65-.31,1l-.27.9Z" transform="translate(-279 -245.28)"/><path class="cls-3" d="M471.71,306.05h.75v2.66a1.61,1.61,0,0,0,.19.9.7.7,0,0,0,.62.27,1.08,1.08,0,0,0,.6-.17,3.26,3.26,0,0,0,.57-.56v-3.1h.74v4.36h-.61l-.06-.68h0a2.79,2.79,0,0,1-.64.57,1.46,1.46,0,0,1-.79.22,1.2,1.2,0,0,1-1-.43,2.16,2.16,0,0,1-.32-1.28v-2.76Z" transform="translate(-279 -245.28)"/><path class="cls-3" d="M476.58,309.42a2.89,2.89,0,0,0,.58.38,1.68,1.68,0,0,0,.7.14.92.92,0,0,0,.64-.19.68.68,0,0,0,.22-.49.48.48,0,0,0-.09-.29.8.8,0,0,0-.23-.22,1.38,1.38,0,0,0-.32-.17l-.36-.14-.46-.19a1.46,1.46,0,0,1-.42-.25,1.38,1.38,0,0,1-.3-.34.9.9,0,0,1-.12-.48,1.13,1.13,0,0,1,.11-.48,1.06,1.06,0,0,1,.29-.4,1.43,1.43,0,0,1,.47-.26,2.08,2.08,0,0,1,.63-.09,1.9,1.9,0,0,1,.76.14,2.42,2.42,0,0,1,.59.35l-.35.47a2,2,0,0,0-.46-.28,1.32,1.32,0,0,0-.53-.11.83.83,0,0,0-.61.19.58.58,0,0,0-.19.44.45.45,0,0,0,.08.26.71.71,0,0,0,.22.2,1.28,1.28,0,0,0,.31.15l.36.14.47.19a1.71,1.71,0,0,1,.42.24,1.12,1.12,0,0,1,.31.37,1,1,0,0,1,.12.52,1.21,1.21,0,0,1-.1.5,1.31,1.31,0,0,1-.3.41,1.56,1.56,0,0,1-.51.28,2,2,0,0,1-.68.11,2.43,2.43,0,0,1-.89-.17,3.06,3.06,0,0,1-.73-.43l.37-.5Z" transform="translate(-279 -245.28)"/><path class="cls-3" d="M480.61,306.66H480v-.56l.68-.05.09-1.21h.62v1.21h1.17v.61h-1.17v2.41a1.13,1.13,0,0,0,.15.63.6.6,0,0,0,.52.22,1.18,1.18,0,0,0,.25,0,1.35,1.35,0,0,0,.24-.08l.15.55a3.59,3.59,0,0,1-.39.12,2,2,0,0,1-.42,0,1.48,1.48,0,0,1-.59-.11,1,1,0,0,1-.38-.3,1.1,1.1,0,0,1-.21-.45,2.74,2.74,0,0,1-.07-.6v-2.4Z" transform="translate(-279 -245.28)"/><path class="cls-3" d="M483.19,309.28a1.21,1.21,0,0,1,.64-1.1,5.27,5.27,0,0,1,2-.53,1.75,1.75,0,0,0,0-.4.78.78,0,0,0-.14-.35.72.72,0,0,0-.27-.25,1,1,0,0,0-.44-.09,1.64,1.64,0,0,0-.71.14,3,3,0,0,0-.59.32l-.3-.51a4.74,4.74,0,0,1,.75-.38,2.5,2.5,0,0,1,1-.18,1.32,1.32,0,0,1,1.15.49,2.13,2.13,0,0,1,.36,1.3v2.67H486l-.06-.52h0a3.44,3.44,0,0,1-.68.44,1.68,1.68,0,0,1-.76.19,1.31,1.31,0,0,1-.92-.33,1.15,1.15,0,0,1-.36-.91Zm.72,0a.59.59,0,0,0,.22.53.89.89,0,0,0,.54.16,1.39,1.39,0,0,0,.6-.14,3,3,0,0,0,.59-.44v-1.21c-.36.05-.67.11-.92.17a2.48,2.48,0,0,0-.6.24.89.89,0,0,0-.33.3.87.87,0,0,0-.1.39Z" transform="translate(-279 -245.28)"/><path class="cls-3" d="M488,306.05h.74v2.66a1.6,1.6,0,0,0,.2.9.69.69,0,0,0,.62.27,1.13,1.13,0,0,0,.6-.17,3.26,3.26,0,0,0,.57-.56v-3.1h.74v4.36h-.61l-.07-.68h0a3,3,0,0,1-.64.57,1.5,1.5,0,0,1-.8.22,1.19,1.19,0,0,1-1-.43,2.16,2.16,0,0,1-.32-1.28v-2.76Z" transform="translate(-279 -245.28)"/><path class="cls-3" d="M492.83,309.42a3,3,0,0,0,.59.38,1.67,1.67,0,0,0,.69.14.94.94,0,0,0,.65-.19.67.67,0,0,0,.21-.49.48.48,0,0,0-.09-.29.66.66,0,0,0-.22-.22,1.62,1.62,0,0,0-.32-.17l-.36-.14-.47-.19a1.55,1.55,0,0,1-.41-.25,1.38,1.38,0,0,1-.3-.34.9.9,0,0,1-.12-.48,1.29,1.29,0,0,1,.1-.48,1.08,1.08,0,0,1,.3-.4,1.33,1.33,0,0,1,.47-.26,2.08,2.08,0,0,1,.63-.09,1.86,1.86,0,0,1,.75.14,2.49,2.49,0,0,1,.6.35l-.35.47a2,2,0,0,0-.46-.28,1.36,1.36,0,0,0-.53-.11.83.83,0,0,0-.61.19.58.58,0,0,0-.19.44.45.45,0,0,0,.08.26.8.8,0,0,0,.21.2,1.48,1.48,0,0,0,.31.15l.37.14.47.19a1.71,1.71,0,0,1,.42.24,1.12,1.12,0,0,1,.31.37,1,1,0,0,1,.12.52,1.21,1.21,0,0,1-.1.5,1.31,1.31,0,0,1-.3.41,1.56,1.56,0,0,1-.51.28,2,2,0,0,1-.68.11,2.43,2.43,0,0,1-.89-.17,3.06,3.06,0,0,1-.73-.43l.36-.5Z" transform="translate(-279 -245.28)"/><path class="cls-3" d="M496.43,308.24a2.47,2.47,0,0,1,.17-1,2.1,2.1,0,0,1,.45-.72,1.89,1.89,0,0,1,.67-.45,2.15,2.15,0,0,1,.8-.15,1.68,1.68,0,0,1,.74.15,2.37,2.37,0,0,1,.53.37l-.36.47a3.32,3.32,0,0,0-.41-.28,1,1,0,0,0-.47-.1,1.26,1.26,0,0,0-.55.12,1.18,1.18,0,0,0-.43.34,1.78,1.78,0,0,0-.28.53,2.17,2.17,0,0,0-.1.69,2.38,2.38,0,0,0,.09.68,1.78,1.78,0,0,0,.28.53,1.2,1.2,0,0,0,1,.46,1.33,1.33,0,0,0,.57-.13,2.11,2.11,0,0,0,.45-.31l.33.48a2.31,2.31,0,0,1-.65.41,1.85,1.85,0,0,1-.76.16,2,2,0,0,1-.81-.16,1.83,1.83,0,0,1-.65-.44,2.12,2.12,0,0,1-.43-.72,2.85,2.85,0,0,1-.15-1Z" transform="translate(-279 -245.28)"/><path class="cls-3" d="M500.88,304h.73v1.74l0,.89a4.41,4.41,0,0,1,.66-.5,1.49,1.49,0,0,1,.8-.21,1.14,1.14,0,0,1,1,.43,2.05,2.05,0,0,1,.32,1.27v2.76h-.73v-2.66a1.56,1.56,0,0,0-.2-.89.71.71,0,0,0-.63-.28,1.13,1.13,0,0,0-.6.17,4,4,0,0,0-.59.51v3.15h-.73V304Z" transform="translate(-279 -245.28)"/><path class="cls-3" d="M505.48,308.24a2.59,2.59,0,0,1,.16-.95,2.09,2.09,0,0,1,.41-.72,2,2,0,0,1,.6-.46,1.64,1.64,0,0,1,.72-.16,1.53,1.53,0,0,1,.66.13,2.84,2.84,0,0,1,.56.37l0-.74V304h.75v6.38h-.61l-.06-.51h0a2.42,2.42,0,0,1-.6.43,1.49,1.49,0,0,1-.72.19,1.59,1.59,0,0,1-1.31-.6,2.53,2.53,0,0,1-.49-1.68Zm.76,0a2.07,2.07,0,0,0,.32,1.23,1,1,0,0,0,.88.44,1.17,1.17,0,0,0,.58-.15,2.12,2.12,0,0,0,.53-.45V307a1.73,1.73,0,0,0-.53-.35,1.34,1.34,0,0,0-.52-.1,1,1,0,0,0-.49.12,1.17,1.17,0,0,0-.4.34,1.82,1.82,0,0,0-.27.52,2.07,2.07,0,0,0-.1.68Z" transform="translate(-279 -245.28)"/><path class="cls-3" d="M511.19,305.16a.53.53,0,0,1-.37-.14.44.44,0,0,1-.14-.34.46.46,0,0,1,.14-.34.52.52,0,0,1,.37-.13.52.52,0,0,1,.36.13.43.43,0,0,1,.15.34.42.42,0,0,1-.15.34.52.52,0,0,1-.36.14Zm-.38.89h.73v4.36h-.73v-4.36Z" transform="translate(-279 -245.28)"/><path class="cls-3" d="M512.74,308.24a2.61,2.61,0,0,1,.16-1,2.14,2.14,0,0,1,.44-.72,2,2,0,0,1,.62-.46,1.87,1.87,0,0,1,.73-.15,1.78,1.78,0,0,1,.74.14,1.39,1.39,0,0,1,.54.41,1.91,1.91,0,0,1,.34.65,2.75,2.75,0,0,1,.12.84,2.17,2.17,0,0,1,0,.4h-2.94a1.73,1.73,0,0,0,.44,1.12,1.31,1.31,0,0,0,1,.41,1.76,1.76,0,0,0,.58-.09,2,2,0,0,0,.51-.25l.26.49a3.8,3.8,0,0,1-.64.31,2.2,2.2,0,0,1-.8.14,2.26,2.26,0,0,1-.82-.16,2,2,0,0,1-.66-.45,2,2,0,0,1-.44-.71,2.61,2.61,0,0,1-.16-1Zm3-.33a1.62,1.62,0,0,0-.28-1,1,1,0,0,0-.79-.35,1.13,1.13,0,0,0-.45.09,1.65,1.65,0,0,0-.38.27,1.68,1.68,0,0,0-.28.43,2.42,2.42,0,0,0-.15.59Z" transform="translate(-279 -245.28)"/><path class="cls-3" d="M517.55,306.05h.61l.06.63h0a3.16,3.16,0,0,1,.65-.52,1.53,1.53,0,0,1,.81-.21,1.14,1.14,0,0,1,1,.43,2.05,2.05,0,0,1,.32,1.27v2.76h-.73v-2.66a1.56,1.56,0,0,0-.2-.89.71.71,0,0,0-.63-.28,1.13,1.13,0,0,0-.6.17,4,4,0,0,0-.59.51v3.15h-.73v-4.36Z" transform="translate(-279 -245.28)"/><path class="cls-3" d="M522.38,309.42a2.89,2.89,0,0,0,.58.38,1.68,1.68,0,0,0,.7.14.92.92,0,0,0,.64-.19.68.68,0,0,0,.22-.49.48.48,0,0,0-.09-.29.8.8,0,0,0-.23-.22,1.62,1.62,0,0,0-.32-.17l-.36-.14-.46-.19a1.46,1.46,0,0,1-.42-.25,1.38,1.38,0,0,1-.3-.34.9.9,0,0,1-.12-.48,1.13,1.13,0,0,1,.11-.48,1,1,0,0,1,.29-.4,1.43,1.43,0,0,1,.47-.26,2.08,2.08,0,0,1,.63-.09,1.9,1.9,0,0,1,.76.14,2.63,2.63,0,0,1,.59.35l-.35.47a2,2,0,0,0-.46-.28,1.36,1.36,0,0,0-.53-.11.83.83,0,0,0-.61.19.58.58,0,0,0-.19.44.45.45,0,0,0,.08.26.85.85,0,0,0,.22.2,1.28,1.28,0,0,0,.31.15l.36.14.47.19a1.71,1.71,0,0,1,.42.24,1.12,1.12,0,0,1,.31.37,1,1,0,0,1,.12.52,1.21,1.21,0,0,1-.1.5,1.31,1.31,0,0,1-.3.41,1.56,1.56,0,0,1-.51.28,2,2,0,0,1-.68.11,2.43,2.43,0,0,1-.89-.17,3.06,3.06,0,0,1-.73-.43l.37-.5Z" transform="translate(-279 -245.28)"/><path class="cls-3" d="M526.41,306.66h-.64v-.56l.68-.05.09-1.21h.62v1.21h1.17v.61h-1.17v2.41a1.13,1.13,0,0,0,.15.63.58.58,0,0,0,.52.22,1.18,1.18,0,0,0,.25,0l.24-.08.15.55a3.59,3.59,0,0,1-.39.12,2,2,0,0,1-.42,0,1.48,1.48,0,0,1-.59-.11.94.94,0,0,1-.38-.3,1.1,1.1,0,0,1-.21-.45,2.74,2.74,0,0,1-.07-.6v-2.4Z" transform="translate(-279 -245.28)"/><path class="cls-3" d="M370.77,318.14a3.89,3.89,0,0,1,.2-1.27,2.85,2.85,0,0,1,.57-1,2.43,2.43,0,0,1,.85-.6,2.75,2.75,0,0,1,1.09-.21,2.07,2.07,0,0,1,1,.22,3.07,3.07,0,0,1,.67.5l-.42.48a1.82,1.82,0,0,0-.52-.39,1.48,1.48,0,0,0-.74-.16,1.91,1.91,0,0,0-.8.17,1.64,1.64,0,0,0-.61.47,2.23,2.23,0,0,0-.39.75,3.31,3.31,0,0,0-.14,1,3.41,3.41,0,0,0,.13,1,2.17,2.17,0,0,0,.38.76,1.52,1.52,0,0,0,.61.48,1.84,1.84,0,0,0,.83.17,2,2,0,0,0,.6-.09,1.21,1.21,0,0,0,.46-.26v-1.53h-1.24V318h1.92v2.48a2.15,2.15,0,0,1-.75.48,2.79,2.79,0,0,1-1.07.2,2.64,2.64,0,0,1-1.06-.21,2.36,2.36,0,0,1-.84-.6,2.66,2.66,0,0,1-.54-.95,4,4,0,0,1-.2-1.29Z" transform="translate(-279 -245.28)"/><path class="cls-3" d="M376.29,318.91a2.42,2.42,0,0,1,.17-1,2.22,2.22,0,0,1,.43-.72,1.83,1.83,0,0,1,.63-.45,1.64,1.64,0,0,1,.72-.16,1.91,1.91,0,0,1,.74.14,1.5,1.5,0,0,1,.55.41,1.9,1.9,0,0,1,.33.65,2.75,2.75,0,0,1,.12.84,2.17,2.17,0,0,1,0,.4H377a1.65,1.65,0,0,0,.43,1.12,1.33,1.33,0,0,0,1,.42,1.75,1.75,0,0,0,.57-.1,2.38,2.38,0,0,0,.51-.24l.26.48a3.46,3.46,0,0,1-.64.31,2.24,2.24,0,0,1-1.61,0,1.8,1.8,0,0,1-.67-.45,2.19,2.19,0,0,1-.44-.71,2.61,2.61,0,0,1-.16-1Zm3-.33a1.62,1.62,0,0,0-.28-1,1,1,0,0,0-.79-.35,1,1,0,0,0-.44.1,1.22,1.22,0,0,0-.38.26,1.48,1.48,0,0,0-.29.43,2,2,0,0,0-.14.59Z" transform="translate(-279 -245.28)"/><path class="cls-3" d="M381.1,316.73h.61l.06.78h0a2.06,2.06,0,0,1,.54-.65,1.11,1.11,0,0,1,.69-.24,1.16,1.16,0,0,1,.47.09l-.14.64-.2-.05-.23,0a1,1,0,0,0-.57.22,1.8,1.8,0,0,0-.53.78v2.8h-.73v-4.35Z" transform="translate(-279 -245.28)"/><path class="cls-3" d="M384.25,316.73h.61l.06.62h0a3,3,0,0,1,.62-.52,1.37,1.37,0,0,1,.73-.21,1.24,1.24,0,0,1,.79.22,1.29,1.29,0,0,1,.41.61,3.7,3.7,0,0,1,.69-.6,1.28,1.28,0,0,1,.75-.23,1.18,1.18,0,0,1,1,.43,2.14,2.14,0,0,1,.32,1.27v2.76h-.73v-2.66a1.56,1.56,0,0,0-.2-.89.7.7,0,0,0-.61-.28,1.62,1.62,0,0,0-1.09.68v3.15h-.74v-2.66a1.57,1.57,0,0,0-.19-.89.72.72,0,0,0-.62-.28,1.62,1.62,0,0,0-1.09.68v3.15h-.74v-4.35Z" transform="translate(-279 -245.28)"/><path class="cls-3" d="M391.51,320a1.21,1.21,0,0,1,.64-1.1,5.27,5.27,0,0,1,2-.53,1.75,1.75,0,0,0-.05-.4.83.83,0,0,0-.14-.35.81.81,0,0,0-.27-.25,1,1,0,0,0-.44-.09,1.83,1.83,0,0,0-.71.14,3.63,3.63,0,0,0-.59.32l-.3-.51a5.22,5.22,0,0,1,.75-.38,2.5,2.5,0,0,1,1-.18,1.32,1.32,0,0,1,1.15.49,2.13,2.13,0,0,1,.36,1.3v2.67h-.61l-.06-.52h0a3.44,3.44,0,0,1-.68.44,1.56,1.56,0,0,1-.76.19,1.31,1.31,0,0,1-.92-.33,1.15,1.15,0,0,1-.36-.91Zm.72-.05a.62.62,0,0,0,.22.53.89.89,0,0,0,.54.17,1.27,1.27,0,0,0,.6-.15,3,3,0,0,0,.6-.44V318.8a9.41,9.41,0,0,0-.93.17,2.48,2.48,0,0,0-.6.24.9.9,0,0,0-.33.31.8.8,0,0,0-.1.38Z" transform="translate(-279 -245.28)"/><path class="cls-3" d="M396.35,316.73H397l.06.62h0a3.5,3.5,0,0,1,.66-.52,1.52,1.52,0,0,1,.8-.21,1.16,1.16,0,0,1,1,.43,2.14,2.14,0,0,1,.32,1.27v2.76h-.74v-2.66a1.57,1.57,0,0,0-.19-.89.76.76,0,0,0-.63-.28,1.08,1.08,0,0,0-.6.17,4.68,4.68,0,0,0-.59.51v3.15h-.74v-4.35Z" transform="translate(-279 -245.28)"/><path class="cls-3" d="M405.91,319.29h-2.14l-.56,1.79h-.77l2-5.88h.84l2,5.88h-.79l-.56-1.79Zm-.19-.6-.28-.9-.3-1c-.1-.32-.19-.66-.29-1h0c-.09.34-.18.68-.28,1l-.3,1-.28.9Z" transform="translate(-279 -245.28)"/><path class="cls-3" d="M407.75,318.91a2.47,2.47,0,0,1,.17-1,2.2,2.2,0,0,1,.45-.72,1.89,1.89,0,0,1,.67-.45,2.15,2.15,0,0,1,.8-.15,1.53,1.53,0,0,1,.74.16,2.12,2.12,0,0,1,.54.36l-.37.47a2.07,2.07,0,0,0-.41-.27.93.93,0,0,0-.47-.11,1.23,1.23,0,0,0-1,.46,1.72,1.72,0,0,0-.28.54,2.36,2.36,0,0,0,0,1.36,1.47,1.47,0,0,0,.27.53,1.3,1.3,0,0,0,.43.34,1.19,1.19,0,0,0,.54.12,1.33,1.33,0,0,0,.57-.13,2.11,2.11,0,0,0,.45-.31l.33.48a2.1,2.1,0,0,1-.65.41,1.85,1.85,0,0,1-.76.16A2,2,0,0,1,409,321a1.79,1.79,0,0,1-.65-.44,2.12,2.12,0,0,1-.43-.72,2.85,2.85,0,0,1-.15-1Z" transform="translate(-279 -245.28)"/><path class="cls-3" d="M411.9,320a1.22,1.22,0,0,1,.63-1.1,5.38,5.38,0,0,1,2-.53,1.75,1.75,0,0,0,0-.4.83.83,0,0,0-.14-.35.81.81,0,0,0-.27-.25,1,1,0,0,0-.44-.09,1.89,1.89,0,0,0-.72.14,4,4,0,0,0-.58.32l-.3-.51a4.74,4.74,0,0,1,.75-.38,2.49,2.49,0,0,1,1-.18,1.34,1.34,0,0,1,1.16.49,2.13,2.13,0,0,1,.36,1.3v2.67h-.61l-.07-.52h0a3.76,3.76,0,0,1-.68.44,1.59,1.59,0,0,1-.76.19,1.3,1.3,0,0,1-.92-.33,1.15,1.15,0,0,1-.36-.91Zm.72-.05a.59.59,0,0,0,.22.53.89.89,0,0,0,.54.17,1.27,1.27,0,0,0,.6-.15,3.32,3.32,0,0,0,.59-.44V318.8c-.36.05-.67.11-.92.17a2.77,2.77,0,0,0-.61.24.8.8,0,0,0-.32.31.7.7,0,0,0-.1.38Z" transform="translate(-279 -245.28)"/><path class="cls-3" d="M416.43,318.91a2.83,2.83,0,0,1,.15-1,2.28,2.28,0,0,1,.42-.72,1.79,1.79,0,0,1,.6-.46,1.64,1.64,0,0,1,.72-.16,1.48,1.48,0,0,1,.65.13,2.58,2.58,0,0,1,.56.37l0-.74V314.7h.74v6.38h-.61l-.06-.51h0a2.56,2.56,0,0,1-.59.43,1.44,1.44,0,0,1-.72.19,1.65,1.65,0,0,1-1.32-.59,2.64,2.64,0,0,1-.48-1.69Zm.76,0a2.07,2.07,0,0,0,.31,1.23,1,1,0,0,0,.89.44,1.16,1.16,0,0,0,.57-.15,2.15,2.15,0,0,0,.54-.45v-2.28a2.1,2.1,0,0,0-.53-.35,1.39,1.39,0,0,0-.53-.1,1.07,1.07,0,0,0-.49.12,1.27,1.27,0,0,0-.4.34,1.59,1.59,0,0,0-.26.52,2.07,2.07,0,0,0-.1.68Z" transform="translate(-279 -245.28)"/><path class="cls-3" d="M421.43,318.91a2.61,2.61,0,0,1,.17-1,2.24,2.24,0,0,1,.44-.72,1.79,1.79,0,0,1,.62-.45,1.69,1.69,0,0,1,.73-.16,2,2,0,0,1,.74.14,1.46,1.46,0,0,1,.54.41,1.91,1.91,0,0,1,.34.65,2.76,2.76,0,0,1,.11.84,2.3,2.3,0,0,1,0,.4h-2.94a1.7,1.7,0,0,0,.43,1.12,1.33,1.33,0,0,0,1,.42,1.81,1.81,0,0,0,.58-.1,2.55,2.55,0,0,0,.5-.24l.26.48a3.69,3.69,0,0,1-.63.31,2.2,2.2,0,0,1-.8.14,2.26,2.26,0,0,1-.82-.16,1.85,1.85,0,0,1-.66-.45,1.9,1.9,0,0,1-.44-.71,2.61,2.61,0,0,1-.17-1Zm3.05-.33a1.62,1.62,0,0,0-.28-1,1.06,1.06,0,0,0-1.24-.25,1.22,1.22,0,0,0-.38.26,1.45,1.45,0,0,0-.28.43,1.76,1.76,0,0,0-.15.59Z" transform="translate(-279 -245.28)"/><path class="cls-3" d="M426.24,316.73h.61l.07.62h0a2.81,2.81,0,0,1,.63-.52,1.32,1.32,0,0,1,.73-.21,1.23,1.23,0,0,1,.78.22,1.24,1.24,0,0,1,.42.61,3.37,3.37,0,0,1,.68-.6,1.28,1.28,0,0,1,.75-.23,1.17,1.17,0,0,1,1,.43,2.07,2.07,0,0,1,.32,1.27v2.76h-.73v-2.66a1.56,1.56,0,0,0-.2-.89.7.7,0,0,0-.61-.28,1.64,1.64,0,0,0-1.09.68v3.15h-.73v-2.66a1.56,1.56,0,0,0-.2-.89.72.72,0,0,0-.62-.28,1.62,1.62,0,0,0-1.09.68v3.15h-.74v-4.35Z" transform="translate(-279 -245.28)"/><path class="cls-3" d="M434.09,315.83a.52.52,0,0,1-.36-.13.45.45,0,0,1-.15-.34.44.44,0,0,1,.15-.35.52.52,0,0,1,.36-.13.48.48,0,0,1,.36.13.44.44,0,0,1,.15.35.45.45,0,0,1-.15.34.48.48,0,0,1-.36.13Zm-.38.9h.74v4.35h-.74v-4.35Z" transform="translate(-279 -245.28)"/><path class="cls-3" d="M435.64,318.91a2.66,2.66,0,0,1,.17-1,2.22,2.22,0,0,1,.46-.72,1.85,1.85,0,0,1,.66-.45,2.24,2.24,0,0,1,.81-.15,1.58,1.58,0,0,1,.74.16,2.25,2.25,0,0,1,.53.36l-.37.47a2.07,2.07,0,0,0-.41-.27.91.91,0,0,0-.47-.11,1.22,1.22,0,0,0-.54.12,1.18,1.18,0,0,0-.43.34,1.74,1.74,0,0,0-.29.54,2.37,2.37,0,0,0-.1.68,2.07,2.07,0,0,0,.1.68,1.88,1.88,0,0,0,.27.53,1.3,1.3,0,0,0,.43.34,1.26,1.26,0,0,0,.55.12,1.28,1.28,0,0,0,.56-.13,2.18,2.18,0,0,0,.46-.31l.33.48a2.28,2.28,0,0,1-.66.41,1.79,1.79,0,0,1-.76.16,2,2,0,0,1-.8-.16,1.71,1.71,0,0,1-.65-.44,1.85,1.85,0,0,1-.43-.72,2.61,2.61,0,0,1-.16-1Z" transform="translate(-279 -245.28)"/><polygon class="cls-3" points="163.02 69.93 166.4 69.93 166.4 70.56 163.76 70.56 163.76 72.4 165.99 72.4 165.99 73.04 163.76 73.04 163.76 75.17 166.49 75.17 166.49 75.8 163.02 75.8 163.02 69.93 163.02 69.93"/><path class="cls-3" d="M447.53,318.8l-1.32-2.07h.8l.58.95c.07.12.13.25.21.37s.14.24.22.36h0l.19-.36.2-.37.53-.95h.77l-1.32,2.15,1.42,2.2h-.8l-.64-1-.23-.4-.24-.38h0l-.22.38-.22.4-.59,1h-.77l1.43-2.28Z" transform="translate(-279 -245.28)"/><path class="cls-3" d="M450.28,318.91a2.47,2.47,0,0,1,.17-1,2.2,2.2,0,0,1,.45-.72,2,2,0,0,1,.67-.45,2.18,2.18,0,0,1,.8-.15,1.53,1.53,0,0,1,.74.16,1.9,1.9,0,0,1,.53.36l-.36.47a2.07,2.07,0,0,0-.41-.27.93.93,0,0,0-.47-.11,1.23,1.23,0,0,0-1,.46,1.72,1.72,0,0,0-.28.54,2.36,2.36,0,0,0,0,1.36,1.47,1.47,0,0,0,.27.53,1.3,1.3,0,0,0,.43.34,1.22,1.22,0,0,0,.54.12,1.33,1.33,0,0,0,.57-.13,2.11,2.11,0,0,0,.45-.31l.34.48a2.28,2.28,0,0,1-.66.41,1.85,1.85,0,0,1-.76.16,2,2,0,0,1-.81-.16,1.79,1.79,0,0,1-.65-.44,2.12,2.12,0,0,1-.43-.72,2.85,2.85,0,0,1-.15-1Z" transform="translate(-279 -245.28)"/><path class="cls-3" d="M454.73,314.7h.73v1.74l0,.9a3.83,3.83,0,0,1,.65-.51,1.49,1.49,0,0,1,.8-.21,1.14,1.14,0,0,1,1,.43,2.07,2.07,0,0,1,.32,1.27v2.76h-.73v-2.66a1.56,1.56,0,0,0-.2-.89.73.73,0,0,0-.63-.28,1.13,1.13,0,0,0-.6.17,4.68,4.68,0,0,0-.59.51v3.15h-.73V314.7Z" transform="translate(-279 -245.28)"/><path class="cls-3" d="M459.43,320a1.21,1.21,0,0,1,.64-1.1,5.38,5.38,0,0,1,2-.53,1.75,1.75,0,0,0,0-.4,1.22,1.22,0,0,0-.14-.35.76.76,0,0,0-.28-.25.93.93,0,0,0-.44-.09,1.87,1.87,0,0,0-.71.14,4.1,4.1,0,0,0-.59.32l-.29-.51a4.6,4.6,0,0,1,.74-.38,2.58,2.58,0,0,1,1-.18,1.34,1.34,0,0,1,1.16.49,2.2,2.2,0,0,1,.36,1.3v2.67h-.62l-.06-.52h0a3.37,3.37,0,0,1-.67.44,1.6,1.6,0,0,1-.77.19,1.33,1.33,0,0,1-.92-.33,1.15,1.15,0,0,1-.36-.91Zm.73-.05a.59.59,0,0,0,.22.53.85.85,0,0,0,.54.17,1.2,1.2,0,0,0,.59-.15,3,3,0,0,0,.6-.44V318.8c-.36.05-.67.11-.92.17a2.58,2.58,0,0,0-.61.24.8.8,0,0,0-.32.31.7.7,0,0,0-.1.38Z" transform="translate(-279 -245.28)"/><path class="cls-3" d="M464.28,316.73h.61l.06.62h0a3.21,3.21,0,0,1,.66-.52,1.47,1.47,0,0,1,.8-.21,1.14,1.14,0,0,1,1,.43,2.07,2.07,0,0,1,.32,1.27v2.76H467v-2.66a1.56,1.56,0,0,0-.2-.89.73.73,0,0,0-.63-.28,1.13,1.13,0,0,0-.6.17,4.68,4.68,0,0,0-.59.51v3.15h-.73v-4.35Z" transform="translate(-279 -245.28)"/><path class="cls-3" d="M468.89,321.91a1,1,0,0,1,.17-.53,1.69,1.69,0,0,1,.47-.45v0a.9.9,0,0,1-.28-.27.84.84,0,0,1-.11-.44.81.81,0,0,1,.15-.48,1.41,1.41,0,0,1,.33-.32v0a1.58,1.58,0,0,1-.39-.48,1.31,1.31,0,0,1-.18-.69,1.67,1.67,0,0,1,.13-.65,1.6,1.6,0,0,1,.36-.49,1.48,1.48,0,0,1,.52-.3,1.67,1.67,0,0,1,.63-.11,1.87,1.87,0,0,1,.34,0l.28.08h1.51v.56h-.89a1.25,1.25,0,0,1,.25.39,1.19,1.19,0,0,1,.11.51,1.61,1.61,0,0,1-.13.63,1.35,1.35,0,0,1-.34.47,1.44,1.44,0,0,1-.51.3,1.8,1.8,0,0,1-.62.11,1.24,1.24,0,0,1-.33,0,1.73,1.73,0,0,1-.32-.11.83.83,0,0,0-.2.22.56.56,0,0,0-.08.3.43.43,0,0,0,.16.34,1,1,0,0,0,.61.13h.84a2.05,2.05,0,0,1,1.14.25.86.86,0,0,1,.38.79,1.19,1.19,0,0,1-.15.58,1.53,1.53,0,0,1-.44.48,2.46,2.46,0,0,1-.69.33,3.49,3.49,0,0,1-1.65,0,1.84,1.84,0,0,1-.57-.23,1.09,1.09,0,0,1-.37-.37.91.91,0,0,1-.13-.5Zm.65-.1a.63.63,0,0,0,.33.56,1.76,1.76,0,0,0,.93.21,2,2,0,0,0,.57-.08,1.56,1.56,0,0,0,.43-.2.93.93,0,0,0,.28-.28.7.7,0,0,0,.1-.33.43.43,0,0,0-.23-.42,1.39,1.39,0,0,0-.65-.12h-1l-.29-.06a1.15,1.15,0,0,0-.34.36.74.74,0,0,0-.1.37Zm1.15-2.6a1,1,0,0,0,.35-.07.81.81,0,0,0,.3-.21.91.91,0,0,0,.2-.33,1.18,1.18,0,0,0,.07-.43,1.05,1.05,0,0,0-.26-.75.89.89,0,0,0-.66-.26.87.87,0,0,0-.65.26,1,1,0,0,0-.27.75,1.18,1.18,0,0,0,.07.43.91.91,0,0,0,.2.33,1,1,0,0,0,.3.21,1,1,0,0,0,.35.07Z" transform="translate(-279 -245.28)"/><path class="cls-3" d="M473.33,318.91a2.61,2.61,0,0,1,.17-1,2.24,2.24,0,0,1,.44-.72,1.79,1.79,0,0,1,.62-.45,1.69,1.69,0,0,1,.73-.16,1.86,1.86,0,0,1,.73.14,1.42,1.42,0,0,1,.55.41,1.91,1.91,0,0,1,.34.65,3.11,3.11,0,0,1,.11.84,2.3,2.3,0,0,1,0,.4h-2.94a1.7,1.7,0,0,0,.43,1.12,1.33,1.33,0,0,0,1,.42,1.81,1.81,0,0,0,.58-.1,2.55,2.55,0,0,0,.5-.24l.26.48a3.69,3.69,0,0,1-.63.31,2.24,2.24,0,0,1-.8.14,2.26,2.26,0,0,1-.82-.16,1.85,1.85,0,0,1-.66-.45,1.9,1.9,0,0,1-.44-.71,2.61,2.61,0,0,1-.17-1Zm3.05-.33a1.62,1.62,0,0,0-.28-1,1,1,0,0,0-.8-.35,1,1,0,0,0-.44.1,1.22,1.22,0,0,0-.38.26,1.45,1.45,0,0,0-.28.43,1.76,1.76,0,0,0-.15.59Z" transform="translate(-279 -245.28)"/><path class="cls-3" d="M480.09,319.8a2.33,2.33,0,0,0,.74.53,1.92,1.92,0,0,0,.88.2,1.4,1.4,0,0,0,.9-.26.86.86,0,0,0,.33-.7.92.92,0,0,0-.08-.38.75.75,0,0,0-.21-.26,1.34,1.34,0,0,0-.3-.21l-.39-.18-.84-.37a2.82,2.82,0,0,1-.42-.22,1.45,1.45,0,0,1-.39-.3,1.68,1.68,0,0,1-.28-.43,1.42,1.42,0,0,1-.1-.57,1.39,1.39,0,0,1,.13-.61,1.73,1.73,0,0,1,.39-.5,1.83,1.83,0,0,1,.58-.33,2.21,2.21,0,0,1,.74-.11,2.29,2.29,0,0,1,1,.2,2.44,2.44,0,0,1,.76.52l-.4.48a2.17,2.17,0,0,0-.6-.4,1.75,1.75,0,0,0-.74-.15,1.28,1.28,0,0,0-.79.23.74.74,0,0,0-.3.63.8.8,0,0,0,.08.36,1,1,0,0,0,.23.26,1.73,1.73,0,0,0,.32.2l.34.16.84.35c.16.08.32.16.47.25a1.76,1.76,0,0,1,.39.32,1.43,1.43,0,0,1,.25.43,1.48,1.48,0,0,1,.1.57,1.66,1.66,0,0,1-.14.66,1.58,1.58,0,0,1-.4.53,1.93,1.93,0,0,1-.63.36,2.63,2.63,0,0,1-.83.13,2.79,2.79,0,0,1-1.15-.24,2.75,2.75,0,0,1-.91-.63l.45-.52Z" transform="translate(-279 -245.28)"/><path class="cls-3" d="M484.5,318.91a2.61,2.61,0,0,1,.17-1,2.24,2.24,0,0,1,.44-.72,1.79,1.79,0,0,1,.62-.45,1.66,1.66,0,0,1,.73-.16,2,2,0,0,1,.74.14,1.46,1.46,0,0,1,.54.41,1.91,1.91,0,0,1,.34.65,3.11,3.11,0,0,1,.11.84c0,.16,0,.3,0,.4h-2.94a1.7,1.7,0,0,0,.43,1.12,1.33,1.33,0,0,0,1,.42,1.81,1.81,0,0,0,.58-.1,2.55,2.55,0,0,0,.5-.24l.26.48a3.69,3.69,0,0,1-.63.31,2.26,2.26,0,0,1-1.62,0,1.85,1.85,0,0,1-.66-.45,2.05,2.05,0,0,1-.45-.71,2.84,2.84,0,0,1-.16-1Zm3.05-.33a1.68,1.68,0,0,0-.28-1,1.06,1.06,0,0,0-1.24-.25,1.22,1.22,0,0,0-.38.26,1.45,1.45,0,0,0-.28.43,1.76,1.76,0,0,0-.15.59Z" transform="translate(-279 -245.28)"/><path class="cls-3" d="M489.31,316.73h.61l.07.78h0a2.06,2.06,0,0,1,.54-.65,1.16,1.16,0,0,1,.7-.24,1.11,1.11,0,0,1,.46.09l-.14.64-.2-.05-.22,0a1,1,0,0,0-.58.22,1.79,1.79,0,0,0-.52.78v2.8h-.74v-4.35Z" transform="translate(-279 -245.28)"/><path class="cls-3" d="M492,316.73h.76l.83,2.47c.06.21.13.43.2.64s.13.43.2.64h0c.07-.21.14-.42.2-.64s.13-.43.2-.64l.82-2.47H496l-1.54,4.35h-.86L492,316.73Z" transform="translate(-279 -245.28)"/><path class="cls-3" d="M497.24,315.83a.52.52,0,0,1-.36-.13.45.45,0,0,1-.15-.34.44.44,0,0,1,.15-.35.52.52,0,0,1,.36-.13.5.5,0,0,1,.36.13.44.44,0,0,1,.15.35.45.45,0,0,1-.15.34.5.5,0,0,1-.36.13Zm-.38.9h.74v4.35h-.74v-4.35Z" transform="translate(-279 -245.28)"/><path class="cls-3" d="M498.79,318.91a2.66,2.66,0,0,1,.17-1,2.22,2.22,0,0,1,.46-.72,1.85,1.85,0,0,1,.66-.45,2.24,2.24,0,0,1,.81-.15,1.58,1.58,0,0,1,.74.16,2.25,2.25,0,0,1,.53.36l-.37.47a2.07,2.07,0,0,0-.41-.27.91.91,0,0,0-.47-.11,1.25,1.25,0,0,0-.54.12,1.18,1.18,0,0,0-.43.34,1.74,1.74,0,0,0-.29.54,2.37,2.37,0,0,0-.1.68,2.07,2.07,0,0,0,.1.68,1.88,1.88,0,0,0,.27.53,1.3,1.3,0,0,0,.43.34,1.26,1.26,0,0,0,.55.12,1.32,1.32,0,0,0,.56-.13,2.18,2.18,0,0,0,.46-.31l.33.48a2.28,2.28,0,0,1-.66.41,1.79,1.79,0,0,1-.76.16,2,2,0,0,1-.8-.16,1.71,1.71,0,0,1-.65-.44,2,2,0,0,1-.43-.72,2.61,2.61,0,0,1-.16-1Z" transform="translate(-279 -245.28)"/><path class="cls-3" d="M502.73,318.91a2.61,2.61,0,0,1,.17-1,2.08,2.08,0,0,1,.44-.72,1.79,1.79,0,0,1,.62-.45,1.64,1.64,0,0,1,.72-.16,1.88,1.88,0,0,1,.74.14,1.5,1.5,0,0,1,.55.41,1.91,1.91,0,0,1,.34.65,3.11,3.11,0,0,1,.11.84c0,.16,0,.3,0,.4h-2.94a1.7,1.7,0,0,0,.43,1.12,1.33,1.33,0,0,0,1,.42,1.81,1.81,0,0,0,.58-.1,2.55,2.55,0,0,0,.5-.24l.26.48a3.69,3.69,0,0,1-.63.31,2.26,2.26,0,0,1-1.62,0,1.69,1.69,0,0,1-.66-.45,2.05,2.05,0,0,1-.45-.71,2.84,2.84,0,0,1-.16-1Zm3-.33a1.68,1.68,0,0,0-.28-1,1,1,0,0,0-.8-.35,1,1,0,0,0-.44.1,1.22,1.22,0,0,0-.38.26,1.28,1.28,0,0,0-.28.43,1.76,1.76,0,0,0-.15.59Z" transform="translate(-279 -245.28)"/><path class="cls-4" d="M362.62,298.43A30.47,30.47,0,1,1,332.15,268a30.47,30.47,0,0,1,30.47,30.48Z" transform="translate(-279 -245.28)"/><path class="cls-2" d="M313.11,304a.72.72,0,0,1-.53-.21.73.73,0,0,1-.22-.53v-9.67a.74.74,0,0,1,.22-.54.76.76,0,0,1,.53-.2h2.58a6,6,0,0,1,2.24.4,5.35,5.35,0,0,1,1.75,1.16,5.28,5.28,0,0,1,1.14,1.77,6,6,0,0,1,.4,2.24,6,6,0,0,1-.4,2.25,5.28,5.28,0,0,1-1.14,1.77,5.35,5.35,0,0,1-1.75,1.16,6,6,0,0,1-2.24.4Zm.74-1.31h1.84a4,4,0,0,0,2.12-.55,3.9,3.9,0,0,0,1.45-1.51,4.89,4.89,0,0,0,0-4.43,3.94,3.94,0,0,0-1.45-1.5,4.1,4.1,0,0,0-2.12-.54h-1.84v8.53Z" transform="translate(-279 -245.28)"/><path class="cls-2" d="M322.69,304a.66.66,0,0,1-.61-.34.73.73,0,0,1-.05-.73l4-9.58a.71.71,0,0,1,.7-.5.69.69,0,0,1,.7.5l4,9.61a.79.79,0,0,1-.05.72.68.68,0,0,1-.62.32.75.75,0,0,1-.41-.12.69.69,0,0,1-.28-.33l-3.54-8.8h.4l-3.6,8.8a.77.77,0,0,1-.3.34.7.7,0,0,1-.39.11Zm.76-2.45.57-1.23h5.6l.57,1.23Z" transform="translate(-279 -245.28)"/><path class="cls-2" d="M333.31,304a.68.68,0,0,1-.62-.34.73.73,0,0,1,0-.73l4-9.58a.72.72,0,0,1,.7-.5.68.68,0,0,1,.7.5l4,9.61a.76.76,0,0,1,0,.72.68.68,0,0,1-.62.32.78.78,0,0,1-.41-.12.69.69,0,0,1-.28-.33l-3.54-8.8h.4l-3.6,8.8a.75.75,0,0,1-.29.34.72.72,0,0,1-.39.11Zm.75-2.45.57-1.23h5.6l.57,1.23Z" transform="translate(-279 -245.28)"/><path class="cls-2" d="M344.46,304a.74.74,0,0,1-.53-.21.72.72,0,0,1-.21-.53v-9.67a.73.73,0,0,1,.21-.54.78.78,0,0,1,.53-.2h2.59a5.94,5.94,0,0,1,2.23.4,5.25,5.25,0,0,1,1.75,1.16,5,5,0,0,1,1.14,1.77,6,6,0,0,1,.4,2.24,6,6,0,0,1-.4,2.25,5,5,0,0,1-1.14,1.77,5.25,5.25,0,0,1-1.75,1.16,5.94,5.94,0,0,1-2.23.4Zm.74-1.31h1.85a4,4,0,0,0,2.12-.55,4,4,0,0,0,1.45-1.51,4.89,4.89,0,0,0,0-4.43,4,4,0,0,0-1.45-1.5,4.13,4.13,0,0,0-2.12-.54H345.2v8.53Z" transform="translate(-279 -245.28)"/><g class="cls-5"><path class="cls-3" d="M372.21,293.24V277.43h3.67a8.33,8.33,0,0,1,3.18.55,5.77,5.77,0,0,1,2.24,1.58,6.46,6.46,0,0,1,1.32,2.47,11.19,11.19,0,0,1,.44,3.24,11.57,11.57,0,0,1-.44,3.28,6.6,6.6,0,0,1-1.32,2.52,5.8,5.8,0,0,1-2.23,1.61,8.24,8.24,0,0,1-3.17.56Zm1.1-.93h2.45a6.85,6.85,0,0,0,2.77-.52,5,5,0,0,0,1.91-1.45,6.25,6.25,0,0,0,1.1-2.22,10.59,10.59,0,0,0,.36-2.85,10.21,10.21,0,0,0-.36-2.8,6,6,0,0,0-1.1-2.19,4.87,4.87,0,0,0-1.91-1.41,6.85,6.85,0,0,0-2.77-.51h-2.45Z" transform="translate(-279 -245.28)"/><path class="cls-3" d="M386.58,293.24V276h1.06v7.53a10.32,10.32,0,0,1,1.85-1.5,3.92,3.92,0,0,1,2.13-.59,3.14,3.14,0,0,1,2.64,1.08,5.44,5.44,0,0,1,.84,3.34v7.39h-1.05V286a4.86,4.86,0,0,0-.61-2.72,2.32,2.32,0,0,0-2-.88,3.38,3.38,0,0,0-1.87.54,11.27,11.27,0,0,0-1.9,1.62v8.69Z" transform="translate(-279 -245.28)"/><path class="cls-3" d="M403.46,293.53a4.94,4.94,0,0,1-3.62-1.58,5.78,5.78,0,0,1-1.12-1.89,7.18,7.18,0,0,1-.42-2.55,7.43,7.43,0,0,1,.42-2.58,5.67,5.67,0,0,1,1.12-1.91,4.9,4.9,0,0,1,3.62-1.59,5.05,5.05,0,0,1,2,.41,4.81,4.81,0,0,1,1.65,1.18,5.69,5.69,0,0,1,1.13,1.91,7.43,7.43,0,0,1,.42,2.58,7.18,7.18,0,0,1-.42,2.55,5.8,5.8,0,0,1-1.13,1.89,4.78,4.78,0,0,1-1.65,1.17A5.05,5.05,0,0,1,403.46,293.53Zm0-.94a3.63,3.63,0,0,0,1.62-.37,3.8,3.8,0,0,0,1.29-1,5,5,0,0,0,.85-1.61,6.4,6.4,0,0,0,.32-2.06,6.5,6.5,0,0,0-.32-2.09,5,5,0,0,0-.85-1.62,3.75,3.75,0,0,0-1.29-1.06,3.63,3.63,0,0,0-1.62-.37,3.5,3.5,0,0,0-1.61.37,3.75,3.75,0,0,0-1.29,1.06,5.19,5.19,0,0,0-.85,1.62,6.51,6.51,0,0,0-.31,2.09,6.41,6.41,0,0,0,.31,2.06,5.25,5.25,0,0,0,.85,1.61,3.8,3.8,0,0,0,1.29,1A3.5,3.5,0,0,0,403.46,292.59Z" transform="translate(-279 -245.28)"/><path class="cls-3" d="M416.37,293.53a5.25,5.25,0,0,1-2.08-.41,4.78,4.78,0,0,1-1.65-1.17,5.43,5.43,0,0,1-1.11-1.89,7.68,7.68,0,0,1-.39-2.55,7.2,7.2,0,0,1,.43-2.58,5.73,5.73,0,0,1,1.15-1.91,5,5,0,0,1,1.67-1.18,5,5,0,0,1,2-.41,4.07,4.07,0,0,1,2,.44,6.59,6.59,0,0,1,1.4,1l-.63.74a5.22,5.22,0,0,0-1.22-.87,3.26,3.26,0,0,0-1.51-.35,3.66,3.66,0,0,0-1.65.37,4,4,0,0,0-1.32,1.06,5.26,5.26,0,0,0-.89,1.62,6.5,6.5,0,0,0-.32,2.09,6.7,6.7,0,0,0,.3,2.06,5,5,0,0,0,.84,1.61,3.72,3.72,0,0,0,1.32,1,3.9,3.9,0,0,0,1.72.37,3.74,3.74,0,0,0,1.69-.38,5.89,5.89,0,0,0,1.38-.94l.55.75a7.4,7.4,0,0,1-1.66,1.08A4.59,4.59,0,0,1,416.37,293.53Z" transform="translate(-279 -245.28)"/><path class="cls-3" d="M422.87,293.24V276h1.06v7.53a10.32,10.32,0,0,1,1.85-1.5,3.92,3.92,0,0,1,2.13-.59,3.14,3.14,0,0,1,2.64,1.08,5.44,5.44,0,0,1,.84,3.34v7.39h-1.05V286a4.77,4.77,0,0,0-.62-2.72,2.29,2.29,0,0,0-2-.88,3.41,3.41,0,0,0-1.88.54,11.25,11.25,0,0,0-1.89,1.62v8.69Z" transform="translate(-279 -245.28)"/><path class="cls-3" d="M438.9,293.53a6.5,6.5,0,0,1-1.65-.19,5.94,5.94,0,0,1-1.33-.51,5.87,5.87,0,0,1-1.06-.69,9,9,0,0,1-.83-.77l.63-.74a7.31,7.31,0,0,0,.74.73,5.1,5.1,0,0,0,.92.62,5.49,5.49,0,0,0,1.16.45,5.66,5.66,0,0,0,1.42.16,4.13,4.13,0,0,0,1.43-.24,3.27,3.27,0,0,0,1.14-.68,3.14,3.14,0,0,0,.75-1.07,3.62,3.62,0,0,0,.26-1.39,3.37,3.37,0,0,0-.3-1.44,2.93,2.93,0,0,0-.94-1.12,4.86,4.86,0,0,0-1.65-.73,10.25,10.25,0,0,0-2.46-.26v-.94a8.46,8.46,0,0,0,2.24-.26,4.31,4.31,0,0,0,1.49-.71,2.61,2.61,0,0,0,.82-1.06,3.5,3.5,0,0,0,.25-1.3,2.7,2.7,0,0,0-.84-2.08,3.18,3.18,0,0,0-2.26-.78,4,4,0,0,0-2,.49,6.85,6.85,0,0,0-1.56,1.19l-.62-.72a8.52,8.52,0,0,1,1.8-1.32,4.8,4.8,0,0,1,2.35-.55,5.25,5.25,0,0,1,1.66.25,4.15,4.15,0,0,1,1.33.72,3.36,3.36,0,0,1,.89,1.15,3.73,3.73,0,0,1,.32,1.57,3.49,3.49,0,0,1-.83,2.44,4.82,4.82,0,0,1-2.1,1.36v.09a4.51,4.51,0,0,1,2.45,1.35,3.82,3.82,0,0,1,.76,1.16,3.86,3.86,0,0,1,.27,1.48,4.4,4.4,0,0,1-.36,1.81,4.12,4.12,0,0,1-1,1.37,4.58,4.58,0,0,1-1.49.86A5.5,5.5,0,0,1,438.9,293.53Z" transform="translate(-279 -245.28)"/></g></svg>