<?xml version="1.0" encoding="UTF-8" standalone="no"?>
<!-- Generator: Adobe Illustrator 25.3.0, SVG Export Plug-In . SVG Version: 6.00 Build 0)  -->

<svg
   version="1.1"
   id="Ebene_1"
   x="0px"
   y="0px"
   viewBox="0 0 283.45999 106.29"
   xml:space="preserve"
   width="283.45999"
   height="106.29"
   xmlns:xlink="http://www.w3.org/1999/xlink"
   xmlns="http://www.w3.org/2000/svg"
   xmlns:svg="http://www.w3.org/2000/svg"><defs
   id="defs983" />
<style
   type="text/css"
   id="style824">
	.st0{fill:#FFFFFF;}
	.st1{fill:#1A171B;}
	.st2{fill:#006AB1;}
	.st3{clip-path:url(#SVGID_2_);}
	.st4{font-family:'SourceSansPro-Light';}
	.st5{font-size:24px;}
</style>
<polygon
   class="st0"
   points="562.46,351.57 562.46,245.28 279,245.28 279,351.57 "
   id="polygon826"
   transform="translate(-279,-245.28)" />
<path
   class="st1"
   d="m 92.11,59.25 h 1.47 c 0.91,0 1.6,0.25 2.07,0.75 0.47,0.5 0.71,1.22 0.71,2.16 0,0.47 -0.06,0.88 -0.18,1.25 -0.12,0.37 -0.3,0.68 -0.53,0.93 -0.23,0.25 -0.52,0.45 -0.86,0.58 -0.34,0.13 -0.73,0.2 -1.17,0.2 h -1.5 v -5.87 z m 1.42,5.27 c 0.69,0 1.2,-0.21 1.55,-0.62 0.34,-0.41 0.51,-0.99 0.51,-1.74 0,-0.75 -0.17,-1.32 -0.51,-1.71 -0.34,-0.39 -0.86,-0.59 -1.55,-0.59 h -0.67 v 4.66 z"
   id="path828" />
<path
   class="st1"
   d="m 97.27,62.96 c 0,-0.36 0.05,-0.68 0.17,-0.96 0.11,-0.28 0.26,-0.52 0.44,-0.72 0.18,-0.2 0.39,-0.35 0.62,-0.45 0.23,-0.1 0.47,-0.16 0.73,-0.16 0.27,0 0.52,0.05 0.74,0.14 0.22,0.1 0.4,0.23 0.55,0.41 0.15,0.18 0.26,0.39 0.34,0.65 0.08,0.25 0.12,0.53 0.12,0.84 0,0.16 -0.01,0.3 -0.03,0.4 H 98 c 0.03,0.47 0.17,0.85 0.43,1.12 0.26,0.28 0.6,0.41 1.02,0.41 0.21,0 0.4,-0.03 0.58,-0.09 0.17,-0.06 0.34,-0.14 0.51,-0.25 l 0.26,0.48 c -0.19,0.12 -0.4,0.22 -0.64,0.31 -0.23,0.09 -0.5,0.13 -0.8,0.13 -0.29,0 -0.57,-0.05 -0.82,-0.16 -0.25,-0.1 -0.47,-0.25 -0.66,-0.45 -0.19,-0.19 -0.34,-0.43 -0.44,-0.71 -0.12,-0.26 -0.17,-0.58 -0.17,-0.94 z m 3.05,-0.33 c 0,-0.45 -0.09,-0.79 -0.28,-1.03 -0.19,-0.24 -0.45,-0.35 -0.79,-0.35 -0.16,0 -0.3,0.03 -0.44,0.09 -0.14,0.06 -0.27,0.15 -0.38,0.27 -0.11,0.12 -0.21,0.26 -0.28,0.43 -0.07,0.17 -0.12,0.37 -0.15,0.59 z"
   id="path830" />
<path
   class="st1"
   d="m 102.02,60.77 h 0.74 v 2.66 c 0,0.41 0.06,0.71 0.19,0.89 0.13,0.18 0.33,0.27 0.62,0.27 0.23,0 0.43,-0.06 0.6,-0.17 0.17,-0.12 0.36,-0.3 0.57,-0.56 v -3.09 h 0.74 v 4.35 h -0.61 l -0.06,-0.68 h -0.03 c -0.2,0.24 -0.42,0.43 -0.64,0.57 -0.22,0.14 -0.49,0.21 -0.79,0.21 -0.47,0 -0.8,-0.14 -1.02,-0.43 -0.21,-0.29 -0.32,-0.71 -0.32,-1.27 v -2.75 z"
   id="path832" />
<path
   class="st1"
   d="m 107.12,61.37 h -0.64 v -0.56 l 0.68,-0.04 0.09,-1.22 h 0.62 v 1.22 h 1.17 v 0.6 h -1.17 v 2.42 c 0,0.27 0.05,0.48 0.15,0.62 0.1,0.14 0.27,0.22 0.52,0.22 0.08,0 0.16,-0.01 0.25,-0.04 0.09,-0.02 0.17,-0.05 0.24,-0.08 l 0.14,0.56 c -0.12,0.04 -0.25,0.08 -0.39,0.11 -0.14,0.03 -0.28,0.05 -0.42,0.05 -0.23,0 -0.43,-0.04 -0.59,-0.11 -0.16,-0.07 -0.29,-0.17 -0.38,-0.3 -0.1,-0.12 -0.17,-0.28 -0.21,-0.46 -0.04,-0.18 -0.06,-0.38 -0.06,-0.59 z"
   id="path834" />
<path
   class="st1"
   d="m 109.95,64.14 c 0.19,0.16 0.39,0.28 0.59,0.38 0.2,0.1 0.43,0.14 0.69,0.14 0.29,0 0.5,-0.07 0.65,-0.2 0.14,-0.13 0.22,-0.29 0.22,-0.48 0,-0.11 -0.03,-0.21 -0.09,-0.3 -0.06,-0.08 -0.14,-0.16 -0.23,-0.22 -0.09,-0.06 -0.2,-0.12 -0.32,-0.17 -0.12,-0.05 -0.24,-0.1 -0.36,-0.14 -0.16,-0.05 -0.31,-0.11 -0.47,-0.18 -0.16,-0.07 -0.29,-0.15 -0.42,-0.25 -0.12,-0.1 -0.22,-0.21 -0.3,-0.34 -0.08,-0.13 -0.12,-0.29 -0.12,-0.47 0,-0.17 0.03,-0.34 0.1,-0.49 0.07,-0.15 0.17,-0.28 0.29,-0.39 0.13,-0.11 0.28,-0.2 0.47,-0.26 0.18,-0.06 0.39,-0.09 0.63,-0.09 0.27,0 0.53,0.05 0.76,0.14 0.23,0.1 0.43,0.21 0.6,0.35 l -0.35,0.47 c -0.15,-0.11 -0.3,-0.21 -0.47,-0.28 -0.16,-0.07 -0.34,-0.11 -0.53,-0.11 -0.28,0 -0.48,0.06 -0.6,0.19 -0.13,0.12 -0.19,0.27 -0.19,0.44 0,0.1 0.03,0.19 0.08,0.26 0.05,0.07 0.13,0.14 0.21,0.2 0.09,0.06 0.19,0.11 0.31,0.15 0.12,0.04 0.24,0.09 0.36,0.14 0.16,0.06 0.31,0.12 0.47,0.19 0.16,0.07 0.3,0.15 0.42,0.25 0.13,0.1 0.23,0.22 0.31,0.36 0.08,0.14 0.12,0.32 0.12,0.52 0,0.18 -0.03,0.35 -0.1,0.5 -0.07,0.16 -0.17,0.29 -0.3,0.41 -0.13,0.12 -0.3,0.21 -0.5,0.28 -0.2,0.07 -0.43,0.1 -0.68,0.1 -0.31,0 -0.61,-0.06 -0.89,-0.17 -0.28,-0.11 -0.53,-0.26 -0.73,-0.43 z"
   id="path836" />
<path
   class="st1"
   d="m 113.55,62.96 c 0,-0.36 0.06,-0.69 0.17,-0.97 0.11,-0.28 0.27,-0.52 0.46,-0.72 0.19,-0.2 0.41,-0.35 0.67,-0.45 0.25,-0.1 0.52,-0.15 0.8,-0.15 0.29,0 0.53,0.05 0.74,0.16 0.21,0.1 0.38,0.23 0.53,0.36 l -0.37,0.47 c -0.13,-0.11 -0.27,-0.21 -0.41,-0.28 -0.14,-0.07 -0.3,-0.11 -0.47,-0.11 -0.2,0 -0.38,0.04 -0.55,0.12 -0.17,0.08 -0.31,0.2 -0.43,0.35 -0.12,0.15 -0.21,0.33 -0.28,0.53 -0.07,0.21 -0.1,0.43 -0.1,0.69 0,0.26 0.03,0.48 0.1,0.68 0.07,0.2 0.16,0.38 0.27,0.52 0.12,0.15 0.26,0.26 0.43,0.34 0.17,0.08 0.35,0.12 0.55,0.12 0.21,0 0.4,-0.04 0.57,-0.13 0.17,-0.09 0.32,-0.19 0.45,-0.31 l 0.33,0.48 c -0.2,0.17 -0.42,0.31 -0.66,0.41 -0.24,0.1 -0.49,0.15 -0.76,0.15 -0.29,0 -0.56,-0.05 -0.81,-0.15 -0.25,-0.1 -0.47,-0.25 -0.65,-0.44 -0.18,-0.19 -0.33,-0.43 -0.43,-0.72 -0.1,-0.27 -0.15,-0.59 -0.15,-0.95 z"
   id="path838" />
<path
   class="st1"
   d="m 118,58.75 h 0.73 v 1.74 l -0.03,0.9 c 0.21,-0.2 0.43,-0.37 0.65,-0.51 0.23,-0.14 0.49,-0.21 0.8,-0.21 0.46,0 0.8,0.14 1.01,0.43 0.21,0.29 0.32,0.71 0.32,1.27 v 2.76 h -0.73 v -2.66 c 0,-0.41 -0.07,-0.71 -0.2,-0.89 -0.13,-0.18 -0.34,-0.27 -0.63,-0.27 -0.23,0 -0.43,0.06 -0.6,0.17 -0.17,0.11 -0.37,0.28 -0.59,0.5 v 3.15 H 118 Z"
   id="path840" />
<path
   class="st1"
   d="m 122.59,62.96 c 0,-0.36 0.05,-0.68 0.17,-0.96 0.11,-0.28 0.26,-0.52 0.44,-0.72 0.18,-0.2 0.39,-0.35 0.62,-0.45 0.23,-0.1 0.47,-0.16 0.73,-0.16 0.27,0 0.52,0.05 0.74,0.14 0.22,0.1 0.4,0.23 0.55,0.41 0.15,0.18 0.26,0.39 0.34,0.65 0.08,0.25 0.12,0.53 0.12,0.84 0,0.16 -0.01,0.3 -0.03,0.4 h -2.94 c 0.03,0.47 0.18,0.85 0.44,1.12 0.26,0.28 0.6,0.41 1.02,0.41 0.21,0 0.4,-0.03 0.58,-0.09 0.18,-0.06 0.35,-0.14 0.51,-0.25 l 0.26,0.48 c -0.19,0.12 -0.4,0.22 -0.64,0.31 -0.23,0.09 -0.5,0.13 -0.8,0.13 -0.29,0 -0.57,-0.05 -0.82,-0.16 -0.25,-0.1 -0.47,-0.25 -0.66,-0.45 -0.19,-0.19 -0.34,-0.43 -0.44,-0.71 -0.13,-0.26 -0.19,-0.58 -0.19,-0.94 z m 3.05,-0.33 c 0,-0.45 -0.09,-0.79 -0.28,-1.03 -0.19,-0.24 -0.45,-0.35 -0.79,-0.35 -0.15,0 -0.3,0.03 -0.44,0.09 -0.14,0.06 -0.27,0.15 -0.38,0.27 -0.11,0.12 -0.21,0.26 -0.28,0.43 -0.08,0.17 -0.12,0.37 -0.15,0.59 z"
   id="path842" />
<path
   class="st1"
   d="m 127.4,60.77 h 0.61 l 0.06,0.79 h 0.03 c 0.15,-0.27 0.33,-0.49 0.54,-0.65 0.21,-0.16 0.44,-0.24 0.69,-0.24 0.17,0 0.33,0.03 0.47,0.09 l -0.14,0.64 c -0.07,-0.02 -0.14,-0.04 -0.2,-0.05 -0.06,-0.01 -0.14,-0.02 -0.22,-0.02 -0.18,0 -0.38,0.07 -0.58,0.22 -0.2,0.15 -0.38,0.41 -0.52,0.78 v 2.79 h -0.73 v -4.35 z"
   id="path844" />
<path
   class="st1"
   d="m 135.17,63.34 h -2.14 l -0.56,1.79 h -0.76 l 1.99,-5.88 h 0.84 l 1.99,5.88 h -0.8 z m -0.19,-0.6 -0.28,-0.9 c -0.11,-0.33 -0.21,-0.65 -0.3,-0.98 -0.1,-0.33 -0.19,-0.66 -0.29,-1 h -0.04 c -0.09,0.34 -0.18,0.67 -0.28,1 -0.1,0.33 -0.2,0.65 -0.3,0.98 l -0.28,0.9 z"
   id="path846" />
<polygon
   class="st1"
   points="417.05,308.35 417.08,308.35 418.93,306.05 419.75,306.05 418.29,307.8 419.95,310.41 419.14,310.41 417.87,308.31 417.05,309.26 417.05,310.41 416.33,310.41 416.33,304.03 417.05,304.03 "
   id="polygon848"
   transform="translate(-279,-245.28)" />
<path
   class="st1"
   d="m 141.5,64 c 0,-0.48 0.21,-0.84 0.64,-1.1 0.43,-0.25 1.11,-0.43 2.04,-0.53 0,-0.14 -0.01,-0.27 -0.04,-0.4 -0.03,-0.13 -0.08,-0.25 -0.14,-0.35 -0.07,-0.1 -0.16,-0.18 -0.27,-0.25 -0.11,-0.06 -0.26,-0.09 -0.44,-0.09 -0.26,0 -0.49,0.05 -0.71,0.14 -0.22,0.1 -0.41,0.2 -0.59,0.32 l -0.3,-0.51 c 0.2,-0.13 0.45,-0.26 0.74,-0.38 0.29,-0.12 0.61,-0.18 0.97,-0.18 0.53,0 0.92,0.16 1.16,0.49 0.24,0.33 0.36,0.76 0.36,1.3 v 2.67 h -0.61 l -0.06,-0.52 h -0.02 c -0.21,0.17 -0.43,0.32 -0.68,0.44 -0.24,0.12 -0.5,0.18 -0.76,0.18 -0.37,0 -0.68,-0.11 -0.92,-0.32 C 141.62,64.7 141.5,64.39 141.5,64 Z m 0.73,-0.05 c 0,0.25 0.07,0.43 0.22,0.54 0.15,0.11 0.33,0.16 0.54,0.16 0.21,0 0.41,-0.05 0.6,-0.15 0.19,-0.1 0.39,-0.24 0.6,-0.43 v -1.21 c -0.36,0.05 -0.67,0.1 -0.92,0.17 -0.25,0.07 -0.45,0.14 -0.61,0.23 -0.15,0.09 -0.26,0.19 -0.33,0.31 -0.07,0.11 -0.1,0.24 -0.1,0.38 z"
   id="path850" />
<path
   class="st1"
   d="m 146.04,62.96 c 0,-0.35 0.05,-0.67 0.16,-0.95 0.1,-0.28 0.24,-0.52 0.42,-0.72 0.17,-0.2 0.37,-0.35 0.6,-0.46 0.23,-0.11 0.47,-0.16 0.72,-0.16 0.25,0 0.47,0.04 0.65,0.13 0.18,0.09 0.37,0.21 0.56,0.37 l -0.04,-0.74 v -1.68 h 0.74 v 6.38 h -0.61 l -0.06,-0.51 h -0.03 c -0.17,0.17 -0.37,0.31 -0.6,0.43 -0.23,0.12 -0.46,0.18 -0.72,0.18 -0.55,0 -0.99,-0.2 -1.31,-0.59 -0.32,-0.39 -0.48,-0.95 -0.48,-1.68 z m 0.76,-0.01 c 0,0.53 0.1,0.93 0.31,1.23 0.21,0.29 0.5,0.44 0.89,0.44 0.2,0 0.4,-0.05 0.57,-0.15 0.18,-0.1 0.36,-0.25 0.54,-0.45 v -2.28 c -0.18,-0.17 -0.36,-0.29 -0.53,-0.35 -0.17,-0.07 -0.34,-0.1 -0.52,-0.1 -0.17,0 -0.34,0.04 -0.49,0.12 -0.15,0.08 -0.29,0.19 -0.4,0.34 -0.11,0.15 -0.2,0.32 -0.27,0.52 -0.07,0.2 -0.1,0.43 -0.1,0.68 z"
   id="path852" />
<path
   class="st1"
   d="m 151.04,62.96 c 0,-0.36 0.05,-0.68 0.17,-0.96 0.11,-0.28 0.26,-0.52 0.44,-0.72 0.18,-0.2 0.39,-0.35 0.62,-0.45 0.23,-0.1 0.47,-0.16 0.73,-0.16 0.27,0 0.52,0.05 0.74,0.14 0.22,0.1 0.4,0.23 0.55,0.41 0.15,0.18 0.26,0.39 0.33,0.65 0.08,0.25 0.12,0.53 0.12,0.84 0,0.16 -0.01,0.3 -0.03,0.4 h -2.94 c 0.03,0.47 0.17,0.85 0.43,1.12 0.26,0.28 0.6,0.41 1.02,0.41 0.21,0 0.4,-0.03 0.58,-0.09 0.18,-0.06 0.34,-0.14 0.51,-0.25 l 0.26,0.48 c -0.19,0.12 -0.4,0.22 -0.64,0.31 -0.23,0.09 -0.5,0.13 -0.8,0.13 -0.29,0 -0.57,-0.05 -0.82,-0.16 -0.25,-0.1 -0.48,-0.25 -0.66,-0.45 -0.19,-0.19 -0.34,-0.43 -0.44,-0.71 -0.11,-0.26 -0.17,-0.58 -0.17,-0.94 z m 3.05,-0.33 c 0,-0.45 -0.09,-0.79 -0.28,-1.03 -0.19,-0.24 -0.45,-0.35 -0.79,-0.35 -0.16,0 -0.3,0.03 -0.44,0.09 -0.14,0.06 -0.27,0.15 -0.38,0.27 -0.11,0.12 -0.21,0.26 -0.28,0.43 -0.08,0.17 -0.12,0.37 -0.15,0.59 z"
   id="path854" />
<path
   class="st1"
   d="m 155.85,60.77 h 0.61 l 0.06,0.63 h 0.03 c 0.19,-0.21 0.4,-0.38 0.62,-0.52 0.22,-0.14 0.47,-0.21 0.73,-0.21 0.34,0 0.6,0.07 0.78,0.22 0.19,0.15 0.33,0.35 0.42,0.61 0.23,-0.25 0.46,-0.45 0.69,-0.6 0.23,-0.15 0.48,-0.23 0.75,-0.23 0.45,0 0.78,0.14 1,0.43 0.22,0.29 0.33,0.71 0.33,1.27 v 2.76 h -0.73 v -2.66 c 0,-0.41 -0.07,-0.71 -0.2,-0.89 -0.13,-0.18 -0.34,-0.27 -0.61,-0.27 -0.33,0 -0.69,0.22 -1.09,0.67 v 3.15 h -0.73 v -2.66 c 0,-0.41 -0.07,-0.71 -0.2,-0.89 -0.13,-0.18 -0.34,-0.27 -0.62,-0.27 -0.33,0 -0.69,0.22 -1.09,0.67 v 3.15 h -0.73 v -4.36 z"
   id="path856" />
<path
   class="st1"
   d="m 163.7,59.88 c -0.14,0 -0.26,-0.04 -0.36,-0.13 -0.1,-0.09 -0.15,-0.2 -0.15,-0.34 0,-0.14 0.05,-0.26 0.15,-0.34 0.1,-0.09 0.22,-0.13 0.36,-0.13 0.14,0 0.27,0.04 0.36,0.13 0.1,0.09 0.15,0.2 0.15,0.34 0,0.14 -0.05,0.25 -0.15,0.34 -0.1,0.08 -0.22,0.13 -0.36,0.13 z m -0.38,0.89 h 0.73 v 4.35 h -0.73 z"
   id="path858" />
<path
   class="st1"
   d="m 165.45,64.14 c 0.19,0.16 0.39,0.28 0.59,0.38 0.2,0.1 0.43,0.14 0.69,0.14 0.29,0 0.5,-0.07 0.64,-0.2 0.14,-0.13 0.21,-0.29 0.21,-0.48 0,-0.11 -0.03,-0.21 -0.09,-0.3 -0.06,-0.08 -0.14,-0.16 -0.23,-0.22 -0.09,-0.06 -0.2,-0.12 -0.32,-0.17 -0.12,-0.05 -0.24,-0.1 -0.36,-0.14 -0.15,-0.05 -0.31,-0.11 -0.46,-0.18 -0.16,-0.07 -0.29,-0.15 -0.42,-0.25 -0.12,-0.1 -0.22,-0.21 -0.3,-0.34 -0.08,-0.13 -0.12,-0.29 -0.12,-0.47 0,-0.17 0.03,-0.34 0.1,-0.49 0.07,-0.15 0.17,-0.28 0.29,-0.39 0.13,-0.11 0.28,-0.2 0.47,-0.26 0.18,-0.06 0.39,-0.09 0.63,-0.09 0.28,0 0.53,0.05 0.76,0.14 0.23,0.1 0.43,0.21 0.6,0.35 l -0.35,0.47 c -0.15,-0.11 -0.31,-0.21 -0.47,-0.28 -0.16,-0.07 -0.34,-0.11 -0.53,-0.11 -0.27,0 -0.48,0.06 -0.6,0.19 -0.13,0.12 -0.19,0.27 -0.19,0.44 0,0.1 0.03,0.19 0.08,0.26 0.05,0.07 0.12,0.14 0.21,0.2 0.09,0.06 0.19,0.11 0.31,0.15 0.12,0.04 0.24,0.09 0.36,0.14 0.16,0.06 0.31,0.12 0.47,0.19 0.16,0.07 0.3,0.15 0.42,0.25 0.13,0.1 0.23,0.22 0.31,0.36 0.08,0.14 0.12,0.32 0.12,0.52 0,0.18 -0.03,0.35 -0.1,0.5 -0.07,0.16 -0.17,0.29 -0.3,0.41 -0.14,0.12 -0.3,0.21 -0.5,0.28 -0.2,0.07 -0.43,0.1 -0.68,0.1 -0.31,0 -0.61,-0.06 -0.89,-0.17 -0.28,-0.11 -0.53,-0.26 -0.73,-0.43 z"
   id="path860" />
<path
   class="st1"
   d="m 169.05,62.96 c 0,-0.36 0.06,-0.69 0.17,-0.97 0.11,-0.28 0.27,-0.52 0.46,-0.72 0.19,-0.2 0.41,-0.35 0.67,-0.45 0.25,-0.1 0.52,-0.15 0.8,-0.15 0.29,0 0.53,0.05 0.74,0.16 0.21,0.1 0.38,0.23 0.53,0.36 l -0.37,0.47 c -0.13,-0.11 -0.27,-0.21 -0.41,-0.28 -0.14,-0.07 -0.3,-0.11 -0.47,-0.11 -0.2,0 -0.38,0.04 -0.55,0.12 -0.17,0.08 -0.31,0.2 -0.43,0.35 -0.12,0.15 -0.21,0.33 -0.28,0.53 -0.07,0.21 -0.1,0.43 -0.1,0.69 0,0.26 0.03,0.48 0.1,0.68 0.07,0.2 0.16,0.38 0.27,0.52 0.12,0.15 0.26,0.26 0.43,0.34 0.17,0.08 0.35,0.12 0.55,0.12 0.21,0 0.4,-0.04 0.57,-0.13 0.17,-0.09 0.32,-0.19 0.45,-0.31 l 0.33,0.48 c -0.2,0.17 -0.42,0.31 -0.66,0.41 -0.24,0.1 -0.49,0.15 -0.76,0.15 -0.29,0 -0.55,-0.05 -0.81,-0.15 -0.25,-0.1 -0.47,-0.25 -0.65,-0.44 -0.18,-0.19 -0.33,-0.43 -0.43,-0.72 -0.1,-0.27 -0.15,-0.59 -0.15,-0.95 z"
   id="path862" />
<path
   class="st1"
   d="m 173.5,58.75 h 0.73 v 1.74 l -0.03,0.9 c 0.21,-0.2 0.43,-0.37 0.65,-0.51 0.23,-0.14 0.49,-0.21 0.8,-0.21 0.46,0 0.8,0.14 1.01,0.43 0.21,0.29 0.32,0.71 0.32,1.27 v 2.76 h -0.73 v -2.66 c 0,-0.41 -0.07,-0.71 -0.2,-0.89 -0.13,-0.18 -0.34,-0.27 -0.63,-0.27 -0.23,0 -0.43,0.06 -0.6,0.17 -0.17,0.11 -0.37,0.28 -0.59,0.5 v 3.15 h -0.73 z"
   id="path864" />
<path
   class="st1"
   d="m 178.09,62.96 c 0,-0.36 0.05,-0.68 0.17,-0.96 0.11,-0.28 0.26,-0.52 0.44,-0.72 0.18,-0.2 0.39,-0.35 0.62,-0.45 0.23,-0.1 0.48,-0.16 0.73,-0.16 0.27,0 0.52,0.05 0.74,0.14 0.22,0.1 0.4,0.23 0.55,0.41 0.15,0.18 0.26,0.39 0.34,0.65 0.08,0.25 0.12,0.53 0.12,0.84 0,0.16 -0.01,0.3 -0.03,0.4 h -2.94 c 0.03,0.47 0.17,0.85 0.43,1.12 0.26,0.28 0.6,0.41 1.02,0.41 0.21,0 0.4,-0.03 0.58,-0.09 0.17,-0.06 0.34,-0.14 0.51,-0.25 l 0.26,0.48 c -0.19,0.12 -0.4,0.22 -0.64,0.31 -0.23,0.09 -0.5,0.13 -0.8,0.13 -0.29,0 -0.57,-0.05 -0.82,-0.16 -0.25,-0.1 -0.47,-0.25 -0.66,-0.45 -0.19,-0.19 -0.34,-0.43 -0.44,-0.71 -0.12,-0.26 -0.18,-0.58 -0.18,-0.94 z m 3.05,-0.33 c 0,-0.45 -0.09,-0.79 -0.28,-1.03 -0.19,-0.24 -0.45,-0.35 -0.79,-0.35 -0.15,0 -0.3,0.03 -0.44,0.09 -0.14,0.06 -0.27,0.15 -0.38,0.27 -0.11,0.12 -0.21,0.26 -0.28,0.43 -0.07,0.17 -0.12,0.37 -0.15,0.59 z"
   id="path866" />
<path
   class="st1"
   d="m 182.9,60.77 h 0.61 l 0.06,0.79 h 0.03 c 0.15,-0.27 0.33,-0.49 0.54,-0.65 0.21,-0.16 0.44,-0.24 0.69,-0.24 0.17,0 0.33,0.03 0.47,0.09 l -0.14,0.64 c -0.07,-0.02 -0.14,-0.04 -0.2,-0.05 -0.06,-0.01 -0.13,-0.02 -0.22,-0.02 -0.19,0 -0.38,0.07 -0.58,0.22 -0.2,0.15 -0.38,0.41 -0.52,0.78 v 2.79 h -0.73 v -4.35 z"
   id="path868" />
<path
   class="st1"
   d="m 190.67,63.34 h -2.14 l -0.57,1.79 h -0.76 l 1.99,-5.88 h 0.84 l 1.99,5.88 h -0.8 z m -0.19,-0.6 -0.28,-0.9 c -0.11,-0.33 -0.21,-0.65 -0.3,-0.98 -0.1,-0.33 -0.19,-0.66 -0.29,-1 h -0.04 c -0.09,0.34 -0.18,0.67 -0.28,1 -0.1,0.33 -0.2,0.65 -0.3,0.98 l -0.28,0.9 z"
   id="path870" />
<path
   class="st1"
   d="m 192.71,60.77 h 0.74 v 2.66 c 0,0.41 0.06,0.71 0.19,0.89 0.13,0.18 0.34,0.27 0.62,0.27 0.23,0 0.43,-0.06 0.6,-0.17 0.17,-0.12 0.36,-0.3 0.57,-0.56 v -3.09 h 0.73 v 4.35 h -0.61 l -0.06,-0.68 h -0.03 c -0.2,0.24 -0.42,0.43 -0.64,0.57 -0.22,0.14 -0.49,0.21 -0.79,0.21 -0.47,0 -0.8,-0.14 -1.02,-0.43 -0.21,-0.29 -0.32,-0.71 -0.32,-1.27 v -2.75 z"
   id="path872" />
<path
   class="st1"
   d="m 197.58,64.14 c 0.19,0.16 0.39,0.28 0.59,0.38 0.2,0.1 0.43,0.14 0.69,0.14 0.29,0 0.5,-0.07 0.64,-0.2 0.14,-0.13 0.22,-0.29 0.22,-0.48 0,-0.11 -0.03,-0.21 -0.09,-0.3 -0.06,-0.08 -0.13,-0.16 -0.23,-0.22 -0.09,-0.06 -0.2,-0.12 -0.32,-0.17 -0.12,-0.05 -0.24,-0.1 -0.36,-0.14 -0.15,-0.05 -0.31,-0.11 -0.46,-0.18 -0.16,-0.07 -0.29,-0.15 -0.42,-0.25 -0.12,-0.1 -0.22,-0.21 -0.3,-0.34 -0.08,-0.13 -0.12,-0.29 -0.12,-0.47 0,-0.17 0.03,-0.34 0.1,-0.49 0.07,-0.15 0.17,-0.28 0.3,-0.39 0.13,-0.11 0.29,-0.2 0.47,-0.26 0.18,-0.06 0.39,-0.09 0.63,-0.09 0.27,0 0.53,0.05 0.76,0.14 0.23,0.1 0.43,0.21 0.6,0.35 l -0.35,0.47 c -0.15,-0.11 -0.31,-0.21 -0.47,-0.28 -0.16,-0.07 -0.34,-0.11 -0.53,-0.11 -0.27,0 -0.48,0.06 -0.61,0.19 -0.13,0.12 -0.19,0.27 -0.19,0.44 0,0.1 0.03,0.19 0.08,0.26 0.05,0.07 0.13,0.14 0.22,0.2 0.09,0.06 0.19,0.11 0.31,0.15 0.12,0.04 0.24,0.09 0.36,0.14 0.16,0.06 0.31,0.12 0.47,0.19 0.16,0.07 0.3,0.15 0.42,0.25 0.13,0.1 0.23,0.22 0.31,0.36 0.08,0.14 0.12,0.32 0.12,0.52 0,0.18 -0.03,0.35 -0.1,0.5 -0.07,0.16 -0.17,0.29 -0.3,0.41 -0.13,0.12 -0.3,0.21 -0.5,0.28 -0.2,0.07 -0.43,0.1 -0.68,0.1 -0.31,0 -0.61,-0.06 -0.89,-0.17 -0.28,-0.11 -0.53,-0.26 -0.73,-0.43 z"
   id="path874" />
<path
   class="st1"
   d="m 201.61,61.37 h -0.64 v -0.56 l 0.68,-0.04 0.09,-1.22 h 0.62 v 1.22 h 1.17 v 0.6 h -1.17 v 2.42 c 0,0.27 0.05,0.48 0.15,0.62 0.1,0.15 0.27,0.22 0.52,0.22 0.08,0 0.16,-0.01 0.25,-0.04 0.09,-0.02 0.17,-0.05 0.24,-0.08 l 0.14,0.56 c -0.12,0.04 -0.25,0.08 -0.39,0.11 -0.14,0.03 -0.28,0.05 -0.42,0.05 -0.23,0 -0.43,-0.04 -0.59,-0.11 -0.16,-0.07 -0.29,-0.17 -0.39,-0.3 -0.1,-0.12 -0.17,-0.28 -0.21,-0.46 -0.04,-0.18 -0.06,-0.38 -0.06,-0.59 v -2.4 z"
   id="path876" />
<path
   class="st1"
   d="m 204.19,64 c 0,-0.48 0.21,-0.84 0.64,-1.1 0.43,-0.25 1.11,-0.43 2.04,-0.53 0,-0.14 -0.01,-0.27 -0.04,-0.4 -0.03,-0.13 -0.07,-0.25 -0.14,-0.35 -0.07,-0.1 -0.16,-0.18 -0.27,-0.25 -0.11,-0.06 -0.26,-0.09 -0.44,-0.09 -0.26,0 -0.49,0.05 -0.71,0.14 -0.22,0.1 -0.41,0.2 -0.59,0.32 l -0.3,-0.51 c 0.2,-0.13 0.45,-0.26 0.74,-0.38 0.29,-0.12 0.62,-0.18 0.97,-0.18 0.53,0 0.92,0.16 1.15,0.49 0.24,0.33 0.36,0.76 0.36,1.3 v 2.67 h -0.61 l -0.06,-0.52 h -0.02 c -0.21,0.17 -0.43,0.32 -0.68,0.44 -0.24,0.12 -0.5,0.18 -0.77,0.18 -0.37,0 -0.68,-0.11 -0.92,-0.32 -0.23,-0.21 -0.35,-0.52 -0.35,-0.91 z m 0.72,-0.05 c 0,0.25 0.07,0.43 0.22,0.54 0.15,0.11 0.33,0.16 0.54,0.16 0.21,0 0.41,-0.05 0.6,-0.15 0.19,-0.1 0.39,-0.24 0.6,-0.43 v -1.21 c -0.36,0.05 -0.67,0.1 -0.92,0.17 -0.25,0.07 -0.45,0.14 -0.61,0.23 -0.15,0.09 -0.26,0.19 -0.33,0.31 -0.06,0.11 -0.1,0.24 -0.1,0.38 z"
   id="path878" />
<path
   class="st1"
   d="m 208.97,60.77 h 0.74 v 2.66 c 0,0.41 0.06,0.71 0.19,0.89 0.13,0.18 0.34,0.27 0.62,0.27 0.23,0 0.43,-0.06 0.6,-0.17 0.17,-0.12 0.36,-0.3 0.57,-0.56 v -3.09 h 0.74 v 4.35 h -0.61 l -0.06,-0.68 h -0.03 c -0.2,0.24 -0.42,0.43 -0.64,0.57 -0.22,0.14 -0.49,0.21 -0.79,0.21 -0.47,0 -0.8,-0.14 -1.02,-0.43 -0.21,-0.29 -0.32,-0.71 -0.32,-1.27 v -2.75 z"
   id="path880" />
<path
   class="st1"
   d="m 213.83,64.14 c 0.19,0.16 0.39,0.28 0.59,0.38 0.2,0.1 0.43,0.14 0.69,0.14 0.29,0 0.5,-0.07 0.64,-0.2 0.14,-0.13 0.21,-0.29 0.21,-0.48 0,-0.11 -0.03,-0.21 -0.09,-0.3 -0.06,-0.08 -0.13,-0.16 -0.23,-0.22 -0.09,-0.06 -0.2,-0.12 -0.32,-0.17 -0.12,-0.05 -0.24,-0.1 -0.36,-0.14 -0.15,-0.05 -0.31,-0.11 -0.47,-0.18 -0.16,-0.07 -0.29,-0.15 -0.42,-0.25 -0.12,-0.1 -0.22,-0.21 -0.3,-0.34 -0.08,-0.13 -0.12,-0.29 -0.12,-0.47 0,-0.17 0.03,-0.34 0.1,-0.49 0.07,-0.15 0.17,-0.28 0.3,-0.39 0.13,-0.11 0.29,-0.2 0.47,-0.26 0.18,-0.06 0.39,-0.09 0.63,-0.09 0.28,0 0.53,0.05 0.76,0.14 0.23,0.1 0.43,0.21 0.6,0.35 l -0.35,0.47 c -0.15,-0.11 -0.3,-0.21 -0.46,-0.28 -0.16,-0.07 -0.34,-0.11 -0.53,-0.11 -0.27,0 -0.48,0.06 -0.61,0.19 -0.13,0.12 -0.19,0.27 -0.19,0.44 0,0.1 0.03,0.19 0.08,0.26 0.05,0.07 0.13,0.14 0.21,0.2 0.09,0.06 0.19,0.11 0.31,0.15 0.12,0.04 0.24,0.09 0.36,0.14 0.16,0.06 0.31,0.12 0.47,0.19 0.16,0.07 0.3,0.15 0.43,0.25 0.12,0.1 0.23,0.22 0.31,0.36 0.08,0.14 0.12,0.32 0.12,0.52 0,0.18 -0.03,0.35 -0.1,0.5 -0.07,0.16 -0.17,0.29 -0.3,0.41 -0.14,0.12 -0.3,0.21 -0.5,0.28 -0.2,0.07 -0.43,0.1 -0.69,0.1 -0.31,0 -0.61,-0.06 -0.89,-0.17 -0.28,-0.11 -0.53,-0.26 -0.73,-0.43 z"
   id="path882" />
<path
   class="st1"
   d="m 217.43,62.96 c 0,-0.36 0.06,-0.69 0.17,-0.97 0.11,-0.28 0.27,-0.52 0.46,-0.72 0.19,-0.2 0.41,-0.35 0.67,-0.45 0.25,-0.1 0.52,-0.15 0.8,-0.15 0.29,0 0.53,0.05 0.74,0.16 0.21,0.1 0.38,0.23 0.53,0.36 l -0.37,0.47 c -0.13,-0.11 -0.27,-0.21 -0.41,-0.28 -0.14,-0.07 -0.3,-0.11 -0.47,-0.11 -0.2,0 -0.38,0.04 -0.55,0.12 -0.17,0.08 -0.31,0.2 -0.43,0.35 -0.12,0.15 -0.21,0.33 -0.28,0.53 -0.07,0.21 -0.1,0.43 -0.1,0.69 0,0.26 0.03,0.48 0.1,0.68 0.07,0.2 0.16,0.38 0.27,0.52 0.12,0.15 0.26,0.26 0.43,0.34 0.17,0.08 0.35,0.12 0.55,0.12 0.21,0 0.4,-0.04 0.57,-0.13 0.17,-0.09 0.32,-0.19 0.45,-0.31 l 0.33,0.48 c -0.2,0.17 -0.42,0.31 -0.66,0.41 -0.24,0.1 -0.5,0.15 -0.76,0.15 -0.29,0 -0.55,-0.05 -0.81,-0.15 -0.25,-0.1 -0.47,-0.25 -0.65,-0.44 -0.18,-0.19 -0.33,-0.43 -0.43,-0.72 -0.1,-0.27 -0.15,-0.59 -0.15,-0.95 z"
   id="path884" />
<path
   class="st1"
   d="m 221.88,58.75 h 0.73 v 1.74 l -0.03,0.9 c 0.21,-0.2 0.43,-0.37 0.65,-0.51 0.23,-0.14 0.49,-0.21 0.8,-0.21 0.46,0 0.8,0.14 1.01,0.43 0.21,0.29 0.32,0.71 0.32,1.27 v 2.76 h -0.73 v -2.66 c 0,-0.41 -0.07,-0.71 -0.2,-0.89 -0.13,-0.18 -0.34,-0.27 -0.63,-0.27 -0.23,0 -0.43,0.06 -0.6,0.17 -0.17,0.11 -0.37,0.28 -0.59,0.5 v 3.15 h -0.73 z"
   id="path886" />
<path
   class="st1"
   d="m 226.48,62.96 c 0,-0.35 0.05,-0.67 0.16,-0.95 0.1,-0.28 0.24,-0.52 0.42,-0.72 0.17,-0.2 0.37,-0.35 0.6,-0.46 0.23,-0.11 0.47,-0.16 0.72,-0.16 0.25,0 0.47,0.04 0.65,0.13 0.18,0.09 0.37,0.21 0.56,0.37 l -0.04,-0.74 v -1.68 h 0.74 v 6.38 h -0.61 l -0.06,-0.51 h -0.03 c -0.17,0.17 -0.37,0.31 -0.6,0.43 -0.23,0.12 -0.46,0.18 -0.72,0.18 -0.55,0 -0.99,-0.2 -1.31,-0.59 -0.32,-0.39 -0.48,-0.95 -0.48,-1.68 z m 0.76,-0.01 c 0,0.53 0.11,0.93 0.31,1.23 0.21,0.29 0.5,0.44 0.89,0.44 0.2,0 0.39,-0.05 0.57,-0.15 0.18,-0.1 0.36,-0.25 0.54,-0.45 v -2.28 c -0.18,-0.17 -0.36,-0.29 -0.53,-0.35 -0.17,-0.07 -0.34,-0.1 -0.52,-0.1 -0.17,0 -0.34,0.04 -0.49,0.12 -0.15,0.08 -0.28,0.19 -0.4,0.34 -0.11,0.15 -0.2,0.32 -0.27,0.52 -0.07,0.2 -0.1,0.43 -0.1,0.68 z"
   id="path888" />
<path
   class="st1"
   d="m 232.19,59.88 c -0.14,0 -0.26,-0.04 -0.36,-0.13 -0.1,-0.09 -0.15,-0.2 -0.15,-0.34 0,-0.14 0.05,-0.26 0.15,-0.34 0.1,-0.09 0.22,-0.13 0.36,-0.13 0.14,0 0.26,0.04 0.36,0.13 0.1,0.09 0.15,0.2 0.15,0.34 0,0.14 -0.05,0.25 -0.15,0.34 -0.1,0.08 -0.22,0.13 -0.36,0.13 z m -0.38,0.89 h 0.73 v 4.35 h -0.73 z"
   id="path890" />
<path
   class="st1"
   d="m 233.74,62.96 c 0,-0.36 0.05,-0.68 0.17,-0.96 0.11,-0.28 0.26,-0.52 0.44,-0.72 0.18,-0.2 0.39,-0.35 0.62,-0.45 0.23,-0.1 0.47,-0.16 0.73,-0.16 0.27,0 0.52,0.05 0.74,0.14 0.22,0.1 0.4,0.23 0.55,0.41 0.15,0.18 0.26,0.39 0.34,0.65 0.08,0.25 0.12,0.53 0.12,0.84 0,0.16 -0.01,0.3 -0.03,0.4 h -2.94 c 0.03,0.47 0.17,0.85 0.43,1.12 0.26,0.28 0.6,0.41 1.02,0.41 0.21,0 0.4,-0.03 0.58,-0.09 0.17,-0.06 0.34,-0.14 0.5,-0.25 l 0.26,0.48 c -0.19,0.12 -0.4,0.22 -0.64,0.31 -0.23,0.09 -0.5,0.13 -0.8,0.13 -0.29,0 -0.57,-0.05 -0.82,-0.16 -0.25,-0.1 -0.47,-0.25 -0.66,-0.45 -0.19,-0.19 -0.34,-0.43 -0.44,-0.71 -0.12,-0.26 -0.17,-0.58 -0.17,-0.94 z m 3.04,-0.33 c 0,-0.45 -0.09,-0.79 -0.28,-1.03 -0.19,-0.24 -0.45,-0.35 -0.79,-0.35 -0.16,0 -0.3,0.03 -0.44,0.09 -0.14,0.06 -0.27,0.15 -0.38,0.27 -0.11,0.12 -0.21,0.26 -0.28,0.43 -0.07,0.17 -0.12,0.37 -0.15,0.59 z"
   id="path892" />
<path
   class="st1"
   d="m 238.55,60.77 h 0.61 l 0.06,0.63 h 0.03 c 0.21,-0.21 0.43,-0.38 0.66,-0.52 0.23,-0.14 0.5,-0.21 0.8,-0.21 0.46,0 0.8,0.14 1.01,0.43 0.21,0.29 0.32,0.71 0.32,1.27 v 2.76 h -0.73 v -2.66 c 0,-0.41 -0.07,-0.71 -0.2,-0.89 -0.13,-0.18 -0.34,-0.27 -0.63,-0.27 -0.23,0 -0.43,0.06 -0.6,0.17 -0.17,0.11 -0.37,0.28 -0.59,0.5 v 3.15 h -0.73 v -4.36 z"
   id="path894" />
<path
   class="st1"
   d="m 243.38,64.14 c 0.19,0.16 0.39,0.28 0.59,0.38 0.2,0.1 0.43,0.14 0.7,0.14 0.29,0 0.5,-0.07 0.64,-0.2 0.14,-0.13 0.21,-0.29 0.21,-0.48 0,-0.11 -0.03,-0.21 -0.09,-0.3 -0.06,-0.08 -0.13,-0.16 -0.23,-0.22 -0.09,-0.06 -0.2,-0.12 -0.32,-0.17 -0.12,-0.05 -0.24,-0.1 -0.36,-0.14 -0.15,-0.05 -0.31,-0.11 -0.47,-0.18 -0.16,-0.07 -0.29,-0.15 -0.42,-0.25 -0.12,-0.1 -0.22,-0.21 -0.3,-0.34 -0.08,-0.13 -0.12,-0.29 -0.12,-0.47 0,-0.17 0.03,-0.34 0.1,-0.49 0.07,-0.15 0.17,-0.28 0.29,-0.39 0.13,-0.11 0.29,-0.2 0.47,-0.26 0.18,-0.06 0.39,-0.09 0.63,-0.09 0.27,0 0.53,0.05 0.76,0.14 0.23,0.1 0.43,0.21 0.6,0.35 l -0.35,0.47 c -0.15,-0.11 -0.3,-0.21 -0.47,-0.28 -0.16,-0.07 -0.34,-0.11 -0.53,-0.11 -0.27,0 -0.48,0.06 -0.6,0.19 -0.13,0.12 -0.19,0.27 -0.19,0.44 0,0.1 0.03,0.19 0.08,0.26 0.05,0.07 0.13,0.14 0.21,0.2 0.09,0.06 0.19,0.11 0.31,0.15 0.12,0.04 0.24,0.09 0.36,0.14 0.16,0.06 0.31,0.12 0.47,0.19 0.16,0.07 0.3,0.15 0.43,0.25 0.13,0.1 0.23,0.22 0.31,0.36 0.08,0.14 0.12,0.32 0.12,0.52 0,0.18 -0.03,0.35 -0.1,0.5 -0.07,0.16 -0.17,0.29 -0.3,0.41 -0.14,0.12 -0.3,0.21 -0.5,0.28 -0.2,0.07 -0.43,0.1 -0.68,0.1 -0.31,0 -0.61,-0.06 -0.89,-0.17 -0.28,-0.11 -0.53,-0.26 -0.73,-0.43 z"
   id="path896" />
<path
   class="st1"
   d="m 247.41,61.37 h -0.65 v -0.56 l 0.68,-0.04 0.09,-1.22 h 0.62 v 1.22 h 1.17 v 0.6 h -1.17 v 2.42 c 0,0.27 0.05,0.48 0.15,0.62 0.1,0.15 0.27,0.22 0.52,0.22 0.08,0 0.16,-0.01 0.25,-0.04 0.09,-0.02 0.17,-0.05 0.24,-0.08 l 0.14,0.56 c -0.12,0.04 -0.25,0.08 -0.39,0.11 -0.14,0.03 -0.28,0.05 -0.42,0.05 -0.23,0 -0.43,-0.04 -0.59,-0.11 -0.16,-0.07 -0.29,-0.17 -0.38,-0.3 -0.1,-0.12 -0.17,-0.28 -0.21,-0.46 -0.04,-0.18 -0.06,-0.38 -0.06,-0.59 v -2.4 z"
   id="path898" />
<path
   class="st1"
   d="m 91.77,72.86 c 0,-0.47 0.07,-0.9 0.2,-1.27 0.13,-0.38 0.32,-0.7 0.56,-0.96 0.24,-0.26 0.53,-0.46 0.86,-0.6 0.33,-0.14 0.69,-0.21 1.08,-0.21 0.41,0 0.74,0.08 1.02,0.23 0.27,0.15 0.49,0.32 0.67,0.5 l -0.42,0.48 c -0.15,-0.16 -0.32,-0.29 -0.51,-0.39 -0.19,-0.1 -0.44,-0.16 -0.74,-0.16 -0.3,0 -0.57,0.06 -0.81,0.17 -0.24,0.11 -0.44,0.27 -0.61,0.47 -0.17,0.21 -0.3,0.46 -0.39,0.75 -0.09,0.29 -0.14,0.62 -0.14,0.99 0,0.37 0.04,0.7 0.13,1 0.09,0.3 0.21,0.55 0.38,0.76 0.16,0.21 0.37,0.37 0.61,0.48 0.24,0.11 0.52,0.17 0.84,0.17 0.21,0 0.41,-0.03 0.6,-0.09 0.19,-0.06 0.34,-0.15 0.46,-0.26 v -1.53 h -1.25 v -0.62 h 1.93 v 2.47 c -0.19,0.2 -0.44,0.36 -0.76,0.49 -0.31,0.13 -0.67,0.19 -1.06,0.19 -0.39,0 -0.74,-0.07 -1.07,-0.21 -0.32,-0.14 -0.6,-0.34 -0.83,-0.6 -0.23,-0.26 -0.42,-0.58 -0.55,-0.96 -0.13,-0.38 -0.2,-0.81 -0.2,-1.29 z"
   id="path900" />
<path
   class="st1"
   d="m 97.29,73.63 c 0,-0.36 0.05,-0.68 0.17,-0.96 0.11,-0.28 0.26,-0.52 0.44,-0.72 0.18,-0.2 0.39,-0.35 0.62,-0.45 0.23,-0.11 0.47,-0.16 0.73,-0.16 0.27,0 0.52,0.05 0.74,0.14 0.22,0.1 0.4,0.23 0.55,0.41 0.15,0.18 0.26,0.39 0.33,0.64 0.08,0.25 0.12,0.53 0.12,0.84 0,0.16 -0.01,0.3 -0.03,0.4 h -2.94 c 0.03,0.47 0.17,0.85 0.43,1.12 0.26,0.28 0.6,0.41 1.02,0.41 0.21,0 0.4,-0.03 0.58,-0.09 0.18,-0.06 0.34,-0.14 0.51,-0.25 l 0.26,0.48 c -0.19,0.12 -0.4,0.22 -0.64,0.31 -0.23,0.09 -0.5,0.13 -0.8,0.13 -0.29,0 -0.57,-0.05 -0.82,-0.16 -0.25,-0.1 -0.47,-0.25 -0.66,-0.45 -0.19,-0.19 -0.34,-0.43 -0.44,-0.71 -0.12,-0.25 -0.17,-0.57 -0.17,-0.93 z m 3.04,-0.33 c 0,-0.45 -0.09,-0.79 -0.28,-1.03 -0.19,-0.24 -0.45,-0.35 -0.79,-0.35 -0.16,0 -0.3,0.03 -0.44,0.09 -0.14,0.06 -0.27,0.15 -0.38,0.27 -0.11,0.12 -0.21,0.26 -0.28,0.43 -0.07,0.17 -0.12,0.37 -0.15,0.59 z"
   id="path902" />
<path
   class="st1"
   d="m 102.1,71.45 h 0.61 l 0.06,0.79 h 0.03 c 0.15,-0.27 0.33,-0.49 0.54,-0.65 0.21,-0.16 0.44,-0.24 0.69,-0.24 0.17,0 0.33,0.03 0.47,0.09 l -0.14,0.65 c -0.07,-0.02 -0.14,-0.04 -0.2,-0.05 -0.06,-0.01 -0.14,-0.02 -0.22,-0.02 -0.18,0 -0.38,0.07 -0.58,0.22 -0.2,0.15 -0.38,0.41 -0.52,0.78 v 2.79 h -0.73 v -4.36 z"
   id="path904" />
<path
   class="st1"
   d="m 105.25,71.45 h 0.61 l 0.06,0.63 h 0.03 c 0.19,-0.21 0.4,-0.38 0.62,-0.52 0.22,-0.14 0.47,-0.21 0.73,-0.21 0.34,0 0.6,0.07 0.78,0.22 0.19,0.15 0.33,0.35 0.42,0.61 0.23,-0.25 0.46,-0.45 0.69,-0.6 0.23,-0.15 0.48,-0.23 0.75,-0.23 0.45,0 0.78,0.14 1,0.43 0.22,0.29 0.33,0.71 0.33,1.27 v 2.76 h -0.73 v -2.66 c 0,-0.41 -0.07,-0.71 -0.2,-0.89 -0.13,-0.18 -0.34,-0.27 -0.61,-0.27 -0.33,0 -0.69,0.22 -1.09,0.67 v 3.15 h -0.73 v -2.66 c 0,-0.41 -0.07,-0.71 -0.2,-0.89 -0.13,-0.18 -0.34,-0.27 -0.62,-0.27 -0.33,0 -0.69,0.22 -1.09,0.67 v 3.15 h -0.73 v -4.36 z"
   id="path906" />
<path
   class="st1"
   d="m 112.51,74.67 c 0,-0.48 0.21,-0.84 0.64,-1.1 0.43,-0.25 1.11,-0.43 2.04,-0.53 0,-0.14 -0.01,-0.27 -0.04,-0.4 -0.03,-0.13 -0.07,-0.25 -0.14,-0.35 -0.07,-0.1 -0.16,-0.18 -0.27,-0.25 -0.11,-0.06 -0.26,-0.09 -0.44,-0.09 -0.26,0 -0.49,0.05 -0.71,0.14 -0.22,0.1 -0.41,0.2 -0.59,0.32 l -0.3,-0.51 c 0.2,-0.13 0.45,-0.26 0.74,-0.38 0.29,-0.12 0.62,-0.18 0.97,-0.18 0.53,0 0.92,0.16 1.15,0.49 0.24,0.33 0.36,0.76 0.36,1.3 v 2.67 h -0.61 l -0.06,-0.52 h -0.02 c -0.21,0.17 -0.43,0.32 -0.68,0.44 -0.24,0.12 -0.5,0.18 -0.77,0.18 -0.37,0 -0.68,-0.11 -0.92,-0.32 -0.23,-0.21 -0.35,-0.52 -0.35,-0.91 z m 0.72,-0.05 c 0,0.25 0.07,0.43 0.22,0.54 0.15,0.11 0.33,0.16 0.54,0.16 0.21,0 0.41,-0.05 0.6,-0.15 0.19,-0.1 0.39,-0.24 0.6,-0.43 v -1.21 c -0.36,0.05 -0.67,0.1 -0.92,0.17 -0.25,0.07 -0.45,0.14 -0.61,0.23 -0.15,0.09 -0.26,0.19 -0.33,0.31 -0.06,0.11 -0.1,0.24 -0.1,0.38 z"
   id="path908" />
<path
   class="st1"
   d="m 117.35,71.45 h 0.61 l 0.06,0.63 h 0.03 c 0.21,-0.21 0.43,-0.38 0.66,-0.52 0.23,-0.14 0.5,-0.21 0.8,-0.21 0.46,0 0.8,0.14 1.01,0.43 0.21,0.29 0.32,0.71 0.32,1.27 v 2.76 h -0.73 v -2.66 c 0,-0.41 -0.07,-0.71 -0.2,-0.89 -0.13,-0.18 -0.34,-0.27 -0.63,-0.27 -0.23,0 -0.43,0.06 -0.6,0.17 -0.17,0.11 -0.37,0.28 -0.59,0.5 v 3.15 h -0.73 v -4.36 z"
   id="path910" />
<path
   class="st1"
   d="m 126.91,74.01 h -2.14 l -0.56,1.79 h -0.76 l 1.99,-5.88 h 0.84 l 1.99,5.88 h -0.8 z m -0.19,-0.6 -0.28,-0.9 c -0.11,-0.33 -0.21,-0.65 -0.3,-0.98 -0.1,-0.33 -0.19,-0.66 -0.29,-1 h -0.04 c -0.09,0.34 -0.18,0.67 -0.28,1 -0.09,0.33 -0.2,0.65 -0.3,0.98 l -0.28,0.9 z"
   id="path912" />
<path
   class="st1"
   d="m 128.75,73.63 c 0,-0.36 0.06,-0.69 0.17,-0.97 0.11,-0.28 0.27,-0.52 0.46,-0.72 0.19,-0.2 0.41,-0.35 0.67,-0.45 0.25,-0.1 0.52,-0.15 0.8,-0.15 0.29,0 0.53,0.05 0.74,0.16 0.21,0.1 0.38,0.23 0.53,0.36 l -0.37,0.47 c -0.13,-0.11 -0.27,-0.21 -0.41,-0.28 -0.14,-0.07 -0.3,-0.11 -0.47,-0.11 -0.2,0 -0.38,0.04 -0.55,0.12 -0.17,0.08 -0.31,0.2 -0.43,0.35 -0.12,0.15 -0.21,0.33 -0.28,0.53 -0.07,0.21 -0.1,0.43 -0.1,0.69 0,0.25 0.03,0.48 0.1,0.68 0.07,0.2 0.16,0.38 0.27,0.52 0.12,0.15 0.26,0.26 0.43,0.34 0.17,0.08 0.35,0.12 0.55,0.12 0.21,0 0.4,-0.04 0.57,-0.13 0.17,-0.09 0.32,-0.19 0.45,-0.31 l 0.33,0.48 c -0.2,0.17 -0.42,0.31 -0.66,0.41 -0.24,0.1 -0.49,0.15 -0.76,0.15 -0.29,0 -0.55,-0.05 -0.81,-0.15 -0.25,-0.1 -0.47,-0.25 -0.65,-0.44 -0.18,-0.19 -0.33,-0.43 -0.43,-0.72 -0.1,-0.27 -0.15,-0.59 -0.15,-0.95 z"
   id="path914" />
<path
   class="st1"
   d="m 132.9,74.67 c 0,-0.48 0.21,-0.84 0.64,-1.1 0.43,-0.25 1.11,-0.43 2.04,-0.53 0,-0.14 -0.01,-0.27 -0.04,-0.4 -0.03,-0.13 -0.08,-0.25 -0.14,-0.35 -0.07,-0.1 -0.16,-0.18 -0.27,-0.25 -0.11,-0.06 -0.26,-0.09 -0.44,-0.09 -0.26,0 -0.49,0.05 -0.71,0.14 -0.22,0.1 -0.41,0.2 -0.59,0.32 l -0.3,-0.51 c 0.2,-0.13 0.45,-0.26 0.74,-0.38 0.29,-0.12 0.61,-0.18 0.97,-0.18 0.53,0 0.92,0.16 1.15,0.49 0.24,0.33 0.36,0.76 0.36,1.3 v 2.67 h -0.61 l -0.06,-0.52 h -0.02 c -0.21,0.17 -0.43,0.32 -0.68,0.44 -0.24,0.12 -0.5,0.18 -0.77,0.18 -0.37,0 -0.68,-0.11 -0.92,-0.32 -0.23,-0.21 -0.35,-0.52 -0.35,-0.91 z m 0.72,-0.05 c 0,0.25 0.07,0.43 0.22,0.54 0.15,0.11 0.33,0.16 0.54,0.16 0.21,0 0.41,-0.05 0.6,-0.15 0.19,-0.1 0.39,-0.24 0.6,-0.43 v -1.21 c -0.36,0.05 -0.67,0.1 -0.92,0.17 -0.25,0.07 -0.45,0.14 -0.6,0.23 -0.15,0.09 -0.26,0.19 -0.33,0.31 -0.08,0.11 -0.11,0.24 -0.11,0.38 z"
   id="path916" />
<path
   class="st1"
   d="m 137.43,73.63 c 0,-0.35 0.05,-0.67 0.16,-0.95 0.1,-0.28 0.24,-0.52 0.42,-0.72 0.17,-0.2 0.37,-0.35 0.6,-0.46 0.23,-0.11 0.47,-0.16 0.72,-0.16 0.25,0 0.47,0.04 0.65,0.13 0.19,0.09 0.37,0.21 0.56,0.37 l -0.03,-0.74 v -1.68 h 0.74 v 6.38 h -0.61 l -0.06,-0.51 h -0.03 c -0.17,0.17 -0.37,0.31 -0.6,0.43 -0.22,0.12 -0.46,0.18 -0.72,0.18 -0.55,0 -0.99,-0.2 -1.31,-0.59 -0.33,-0.39 -0.49,-0.95 -0.49,-1.68 z m 0.76,-0.01 c 0,0.53 0.1,0.93 0.31,1.23 0.21,0.29 0.5,0.44 0.89,0.44 0.2,0 0.39,-0.05 0.57,-0.15 0.18,-0.1 0.36,-0.25 0.54,-0.45 v -2.28 c -0.19,-0.17 -0.36,-0.29 -0.53,-0.35 -0.17,-0.07 -0.34,-0.1 -0.52,-0.1 -0.17,0 -0.34,0.04 -0.49,0.12 -0.15,0.08 -0.28,0.19 -0.4,0.34 -0.11,0.15 -0.2,0.32 -0.27,0.52 -0.07,0.2 -0.1,0.43 -0.1,0.68 z"
   id="path918" />
<path
   class="st1"
   d="m 142.43,73.63 c 0,-0.36 0.05,-0.68 0.17,-0.96 0.11,-0.28 0.26,-0.52 0.44,-0.72 0.18,-0.2 0.39,-0.35 0.62,-0.45 0.23,-0.11 0.47,-0.16 0.73,-0.16 0.27,0 0.52,0.05 0.74,0.14 0.22,0.1 0.4,0.23 0.55,0.41 0.15,0.18 0.26,0.39 0.34,0.64 0.08,0.25 0.12,0.53 0.12,0.84 0,0.16 -0.01,0.3 -0.03,0.4 h -2.94 c 0.03,0.47 0.17,0.85 0.43,1.12 0.26,0.28 0.6,0.41 1.02,0.41 0.21,0 0.4,-0.03 0.58,-0.09 0.17,-0.06 0.34,-0.14 0.51,-0.25 l 0.26,0.48 c -0.19,0.12 -0.4,0.22 -0.63,0.31 -0.23,0.09 -0.5,0.13 -0.8,0.13 -0.29,0 -0.57,-0.05 -0.82,-0.16 -0.25,-0.1 -0.47,-0.25 -0.66,-0.45 -0.19,-0.19 -0.34,-0.43 -0.44,-0.71 -0.13,-0.25 -0.19,-0.57 -0.19,-0.93 z m 3.05,-0.33 c 0,-0.45 -0.1,-0.79 -0.28,-1.03 -0.19,-0.24 -0.45,-0.35 -0.79,-0.35 -0.15,0 -0.3,0.03 -0.44,0.09 -0.14,0.06 -0.27,0.15 -0.38,0.27 -0.11,0.12 -0.21,0.26 -0.28,0.43 -0.07,0.17 -0.12,0.37 -0.15,0.59 z"
   id="path920" />
<path
   class="st1"
   d="m 147.24,71.45 h 0.61 l 0.06,0.63 h 0.03 c 0.19,-0.21 0.4,-0.38 0.62,-0.52 0.22,-0.14 0.47,-0.21 0.73,-0.21 0.33,0 0.6,0.07 0.78,0.22 0.19,0.15 0.33,0.35 0.42,0.61 0.23,-0.25 0.46,-0.45 0.69,-0.6 0.23,-0.15 0.48,-0.23 0.75,-0.23 0.45,0 0.78,0.14 1,0.43 0.22,0.29 0.33,0.71 0.33,1.27 v 2.76 h -0.73 v -2.66 c 0,-0.41 -0.07,-0.71 -0.2,-0.89 -0.13,-0.18 -0.34,-0.27 -0.61,-0.27 -0.33,0 -0.69,0.22 -1.09,0.67 v 3.15 h -0.73 v -2.66 c 0,-0.41 -0.07,-0.71 -0.2,-0.89 -0.13,-0.18 -0.34,-0.27 -0.62,-0.27 -0.33,0 -0.69,0.22 -1.09,0.67 v 3.15 h -0.73 v -4.36 z"
   id="path922" />
<path
   class="st1"
   d="m 155.09,70.55 c -0.14,0 -0.26,-0.04 -0.36,-0.13 -0.1,-0.09 -0.15,-0.2 -0.15,-0.34 0,-0.14 0.05,-0.26 0.15,-0.34 0.1,-0.09 0.22,-0.13 0.36,-0.13 0.14,0 0.26,0.04 0.36,0.13 0.1,0.09 0.15,0.2 0.15,0.34 0,0.14 -0.05,0.25 -0.15,0.34 -0.09,0.09 -0.22,0.13 -0.36,0.13 z m -0.38,0.9 h 0.73 v 4.35 h -0.73 z"
   id="path924" />
<path
   class="st1"
   d="m 156.64,73.63 c 0,-0.36 0.06,-0.69 0.17,-0.97 0.11,-0.28 0.27,-0.52 0.46,-0.72 0.19,-0.2 0.41,-0.35 0.67,-0.45 0.25,-0.1 0.52,-0.15 0.8,-0.15 0.29,0 0.53,0.05 0.74,0.16 0.21,0.1 0.38,0.23 0.53,0.36 l -0.37,0.47 c -0.13,-0.11 -0.27,-0.21 -0.41,-0.28 -0.14,-0.07 -0.3,-0.11 -0.47,-0.11 -0.2,0 -0.38,0.04 -0.55,0.12 -0.17,0.08 -0.31,0.2 -0.43,0.35 -0.12,0.15 -0.21,0.33 -0.28,0.53 -0.07,0.21 -0.1,0.43 -0.1,0.69 0,0.25 0.03,0.48 0.1,0.68 0.07,0.2 0.16,0.38 0.27,0.52 0.12,0.15 0.26,0.26 0.43,0.34 0.17,0.08 0.35,0.12 0.55,0.12 0.21,0 0.4,-0.04 0.57,-0.13 0.17,-0.09 0.32,-0.19 0.45,-0.31 l 0.33,0.48 c -0.2,0.17 -0.42,0.31 -0.66,0.41 -0.24,0.1 -0.49,0.15 -0.76,0.15 -0.29,0 -0.56,-0.05 -0.81,-0.15 -0.25,-0.1 -0.47,-0.25 -0.65,-0.44 -0.18,-0.19 -0.33,-0.43 -0.43,-0.72 -0.1,-0.27 -0.15,-0.59 -0.15,-0.95 z"
   id="path926" />
<polygon
   class="st1"
   points="445.4,315.83 442.76,315.83 442.76,317.68 444.99,317.68 444.99,318.31 442.76,318.31 442.76,320.44 445.49,320.44 445.49,321.08 442.02,321.08 442.02,315.2 445.4,315.2 "
   id="polygon928"
   transform="translate(-279,-245.28)" />
<path
   class="st1"
   d="m 168.53,73.52 -1.32,-2.08 h 0.8 l 0.58,0.96 c 0.07,0.12 0.13,0.24 0.21,0.36 0.07,0.12 0.15,0.24 0.22,0.36 h 0.04 c 0.07,-0.12 0.13,-0.24 0.2,-0.36 0.07,-0.12 0.13,-0.24 0.2,-0.36 l 0.53,-0.96 h 0.77 l -1.32,2.16 1.41,2.19 h -0.8 l -0.64,-1.01 c -0.08,-0.13 -0.16,-0.26 -0.23,-0.39 -0.08,-0.13 -0.16,-0.26 -0.24,-0.38 h -0.04 c -0.08,0.13 -0.15,0.25 -0.22,0.38 -0.07,0.13 -0.14,0.26 -0.21,0.4 l -0.59,1.01 h -0.77 z"
   id="path930" />
<path
   class="st1"
   d="m 171.28,73.63 c 0,-0.36 0.06,-0.69 0.17,-0.97 0.11,-0.28 0.27,-0.52 0.46,-0.72 0.19,-0.2 0.41,-0.35 0.67,-0.45 0.25,-0.1 0.52,-0.15 0.8,-0.15 0.29,0 0.53,0.05 0.74,0.16 0.21,0.1 0.38,0.23 0.53,0.36 l -0.37,0.47 c -0.13,-0.11 -0.27,-0.21 -0.41,-0.28 -0.14,-0.07 -0.3,-0.11 -0.47,-0.11 -0.2,0 -0.38,0.04 -0.55,0.12 -0.17,0.08 -0.31,0.2 -0.43,0.35 -0.12,0.15 -0.21,0.33 -0.28,0.53 -0.07,0.21 -0.1,0.43 -0.1,0.69 0,0.25 0.03,0.48 0.1,0.68 0.07,0.2 0.16,0.38 0.27,0.52 0.12,0.15 0.26,0.26 0.42,0.34 0.17,0.08 0.35,0.12 0.55,0.12 0.21,0 0.4,-0.04 0.57,-0.13 0.17,-0.09 0.32,-0.19 0.45,-0.31 l 0.33,0.48 c -0.2,0.17 -0.42,0.31 -0.66,0.41 -0.24,0.1 -0.49,0.15 -0.76,0.15 -0.29,0 -0.56,-0.05 -0.81,-0.15 -0.25,-0.1 -0.47,-0.25 -0.65,-0.44 -0.18,-0.19 -0.32,-0.43 -0.43,-0.72 -0.09,-0.27 -0.14,-0.59 -0.14,-0.95 z"
   id="path932" />
<path
   class="st1"
   d="m 175.73,69.42 h 0.73 v 1.74 l -0.03,0.9 c 0.21,-0.2 0.43,-0.37 0.65,-0.51 0.23,-0.14 0.49,-0.21 0.8,-0.21 0.46,0 0.8,0.14 1.01,0.43 0.21,0.29 0.32,0.71 0.32,1.27 v 2.76 h -0.73 v -2.66 c 0,-0.41 -0.07,-0.71 -0.2,-0.89 -0.13,-0.18 -0.34,-0.27 -0.63,-0.27 -0.23,0 -0.43,0.06 -0.6,0.17 -0.17,0.11 -0.37,0.28 -0.59,0.5 v 3.15 h -0.73 z"
   id="path934" />
<path
   class="st1"
   d="m 180.43,74.67 c 0,-0.48 0.21,-0.84 0.64,-1.1 0.43,-0.25 1.11,-0.43 2.04,-0.53 0,-0.14 -0.01,-0.27 -0.04,-0.4 -0.03,-0.13 -0.08,-0.25 -0.14,-0.35 -0.07,-0.1 -0.16,-0.18 -0.27,-0.25 -0.11,-0.06 -0.26,-0.09 -0.44,-0.09 -0.26,0 -0.49,0.05 -0.71,0.14 -0.22,0.1 -0.41,0.2 -0.59,0.32 l -0.29,-0.51 c 0.2,-0.13 0.45,-0.26 0.74,-0.38 0.29,-0.12 0.62,-0.18 0.97,-0.18 0.53,0 0.92,0.16 1.15,0.49 0.24,0.33 0.36,0.76 0.36,1.3 v 2.67 h -0.61 l -0.06,-0.52 h -0.02 c -0.21,0.17 -0.43,0.32 -0.68,0.44 -0.24,0.12 -0.5,0.18 -0.77,0.18 -0.37,0 -0.68,-0.11 -0.92,-0.32 -0.24,-0.21 -0.36,-0.52 -0.36,-0.91 z m 0.73,-0.05 c 0,0.25 0.07,0.43 0.22,0.54 0.15,0.11 0.33,0.16 0.54,0.16 0.21,0 0.41,-0.05 0.59,-0.15 0.19,-0.1 0.39,-0.24 0.6,-0.43 v -1.21 c -0.36,0.05 -0.67,0.1 -0.92,0.17 -0.25,0.07 -0.45,0.14 -0.6,0.23 -0.15,0.09 -0.26,0.19 -0.33,0.31 -0.07,0.11 -0.1,0.24 -0.1,0.38 z"
   id="path936" />
<path
   class="st1"
   d="m 185.28,71.45 h 0.61 l 0.06,0.63 h 0.03 c 0.21,-0.21 0.43,-0.38 0.66,-0.52 0.23,-0.14 0.5,-0.21 0.8,-0.21 0.46,0 0.8,0.14 1.01,0.43 0.21,0.29 0.32,0.71 0.32,1.27 v 2.76 h -0.73 v -2.66 c 0,-0.41 -0.07,-0.71 -0.2,-0.89 -0.13,-0.18 -0.34,-0.27 -0.63,-0.27 -0.23,0 -0.43,0.06 -0.6,0.17 -0.17,0.11 -0.37,0.28 -0.59,0.5 v 3.15 h -0.73 v -4.36 z"
   id="path938" />
<path
   class="st1"
   d="m 189.89,76.63 c 0,-0.18 0.06,-0.36 0.17,-0.53 0.11,-0.17 0.27,-0.32 0.46,-0.46 V 75.6 c -0.11,-0.07 -0.2,-0.16 -0.27,-0.27 -0.07,-0.12 -0.11,-0.26 -0.11,-0.44 0,-0.18 0.05,-0.35 0.15,-0.48 0.1,-0.14 0.21,-0.24 0.32,-0.32 v -0.04 c -0.14,-0.12 -0.27,-0.28 -0.39,-0.48 -0.12,-0.2 -0.17,-0.43 -0.17,-0.69 0,-0.24 0.04,-0.45 0.13,-0.65 0.09,-0.19 0.2,-0.35 0.35,-0.49 0.15,-0.13 0.32,-0.24 0.52,-0.31 0.2,-0.07 0.41,-0.11 0.63,-0.11 0.12,0 0.23,0.01 0.33,0.03 0.11,0.02 0.2,0.05 0.28,0.08 h 1.51 v 0.56 h -0.9 c 0.1,0.1 0.19,0.23 0.26,0.38 0.07,0.16 0.1,0.33 0.1,0.51 0,0.23 -0.04,0.44 -0.12,0.63 -0.08,0.19 -0.2,0.35 -0.34,0.47 -0.14,0.13 -0.31,0.23 -0.51,0.3 -0.2,0.07 -0.4,0.11 -0.62,0.11 -0.11,0 -0.22,-0.01 -0.33,-0.04 -0.11,-0.03 -0.22,-0.06 -0.32,-0.11 -0.08,0.07 -0.14,0.14 -0.2,0.22 -0.05,0.08 -0.08,0.18 -0.08,0.3 0,0.14 0.05,0.25 0.16,0.34 0.11,0.09 0.31,0.13 0.61,0.13 h 0.84 c 0.51,0 0.89,0.08 1.14,0.25 0.25,0.16 0.38,0.43 0.38,0.79 0,0.2 -0.05,0.4 -0.15,0.58 -0.1,0.18 -0.25,0.34 -0.44,0.48 -0.19,0.14 -0.42,0.25 -0.69,0.33 -0.27,0.08 -0.58,0.12 -0.92,0.12 -0.27,0 -0.51,-0.03 -0.74,-0.08 -0.22,-0.05 -0.41,-0.13 -0.57,-0.23 -0.16,-0.1 -0.28,-0.22 -0.37,-0.37 -0.06,-0.11 -0.1,-0.28 -0.1,-0.47 z m 0.65,-0.1 c 0,0.23 0.11,0.42 0.34,0.56 0.22,0.14 0.53,0.21 0.93,0.21 0.21,0 0.4,-0.03 0.57,-0.08 0.17,-0.05 0.32,-0.12 0.43,-0.2 0.12,-0.08 0.21,-0.17 0.28,-0.28 0.07,-0.11 0.1,-0.22 0.1,-0.33 0,-0.2 -0.07,-0.34 -0.23,-0.42 -0.15,-0.08 -0.37,-0.12 -0.65,-0.12 h -0.75 c -0.08,0 -0.17,0 -0.27,-0.01 -0.1,-0.01 -0.2,-0.03 -0.29,-0.06 -0.16,0.11 -0.27,0.23 -0.34,0.36 -0.09,0.12 -0.12,0.25 -0.12,0.37 z m 1.15,-2.6 c 0.12,0 0.24,-0.02 0.35,-0.07 0.11,-0.05 0.21,-0.12 0.3,-0.21 0.09,-0.09 0.15,-0.2 0.2,-0.33 0.05,-0.13 0.07,-0.27 0.07,-0.43 0,-0.32 -0.09,-0.57 -0.27,-0.75 -0.18,-0.18 -0.4,-0.26 -0.65,-0.26 -0.26,0 -0.48,0.09 -0.65,0.26 -0.18,0.18 -0.27,0.43 -0.27,0.75 0,0.16 0.02,0.31 0.07,0.43 0.05,0.13 0.11,0.24 0.2,0.33 0.09,0.09 0.18,0.16 0.3,0.21 0.11,0.04 0.23,0.07 0.35,0.07 z"
   id="path940" />
<path
   class="st1"
   d="m 194.33,73.63 c 0,-0.36 0.05,-0.68 0.17,-0.96 0.11,-0.28 0.26,-0.52 0.44,-0.72 0.18,-0.2 0.39,-0.35 0.62,-0.45 0.23,-0.11 0.48,-0.16 0.73,-0.16 0.27,0 0.52,0.05 0.74,0.14 0.22,0.1 0.4,0.23 0.55,0.41 0.15,0.18 0.26,0.39 0.34,0.64 0.08,0.25 0.12,0.53 0.12,0.84 0,0.16 -0.01,0.3 -0.03,0.4 h -2.94 c 0.03,0.47 0.17,0.85 0.43,1.12 0.26,0.28 0.6,0.41 1.02,0.41 0.21,0 0.4,-0.03 0.58,-0.09 0.18,-0.06 0.34,-0.14 0.51,-0.25 l 0.26,0.48 c -0.19,0.12 -0.4,0.22 -0.64,0.31 -0.23,0.09 -0.5,0.13 -0.8,0.13 -0.29,0 -0.57,-0.05 -0.82,-0.16 -0.26,-0.1 -0.48,-0.25 -0.66,-0.45 -0.19,-0.19 -0.34,-0.43 -0.44,-0.71 -0.12,-0.25 -0.18,-0.57 -0.18,-0.93 z m 3.05,-0.33 c 0,-0.45 -0.09,-0.79 -0.28,-1.03 -0.19,-0.24 -0.45,-0.35 -0.79,-0.35 -0.15,0 -0.3,0.03 -0.44,0.09 -0.14,0.06 -0.27,0.15 -0.38,0.27 -0.11,0.12 -0.21,0.26 -0.28,0.43 -0.07,0.17 -0.12,0.37 -0.15,0.59 z"
   id="path942" />
<path
   class="st1"
   d="m 201.09,74.52 c 0.21,0.22 0.46,0.4 0.74,0.53 0.28,0.13 0.58,0.2 0.88,0.2 0.39,0 0.69,-0.09 0.9,-0.26 0.21,-0.18 0.32,-0.41 0.32,-0.69 0,-0.15 -0.03,-0.28 -0.08,-0.38 -0.05,-0.1 -0.12,-0.19 -0.21,-0.27 -0.09,-0.07 -0.19,-0.14 -0.31,-0.2 -0.12,-0.06 -0.25,-0.12 -0.39,-0.19 l -0.84,-0.37 c -0.14,-0.06 -0.28,-0.13 -0.42,-0.22 -0.14,-0.08 -0.27,-0.18 -0.39,-0.3 -0.11,-0.12 -0.21,-0.26 -0.28,-0.43 -0.07,-0.16 -0.11,-0.35 -0.11,-0.57 0,-0.22 0.05,-0.43 0.14,-0.62 0.09,-0.19 0.22,-0.36 0.38,-0.5 0.17,-0.14 0.36,-0.25 0.58,-0.33 0.22,-0.08 0.47,-0.12 0.74,-0.12 0.35,0 0.68,0.07 0.98,0.2 0.3,0.13 0.55,0.31 0.76,0.52 l -0.4,0.48 c -0.18,-0.17 -0.38,-0.31 -0.6,-0.41 -0.22,-0.1 -0.46,-0.15 -0.74,-0.15 -0.33,0 -0.59,0.08 -0.79,0.23 -0.2,0.15 -0.3,0.36 -0.3,0.63 0,0.14 0.03,0.26 0.09,0.36 0.06,0.1 0.13,0.18 0.23,0.26 0.1,0.07 0.2,0.14 0.31,0.2 0.11,0.06 0.23,0.11 0.35,0.16 l 0.83,0.36 c 0.17,0.07 0.33,0.15 0.48,0.25 0.15,0.09 0.28,0.2 0.39,0.32 0.11,0.12 0.19,0.27 0.25,0.43 0.06,0.16 0.09,0.35 0.09,0.57 0,0.23 -0.05,0.45 -0.14,0.65 -0.09,0.2 -0.23,0.38 -0.4,0.53 -0.17,0.15 -0.38,0.27 -0.63,0.36 -0.25,0.09 -0.52,0.13 -0.83,0.13 -0.41,0 -0.79,-0.08 -1.15,-0.23 -0.35,-0.16 -0.66,-0.37 -0.91,-0.64 z"
   id="path944" />
<path
   class="st1"
   d="m 205.5,73.63 c 0,-0.36 0.06,-0.68 0.17,-0.96 0.11,-0.28 0.26,-0.52 0.44,-0.72 0.18,-0.2 0.39,-0.35 0.62,-0.45 0.23,-0.11 0.47,-0.16 0.73,-0.16 0.27,0 0.52,0.05 0.74,0.14 0.22,0.1 0.4,0.23 0.55,0.41 0.15,0.18 0.26,0.39 0.33,0.64 0.08,0.25 0.12,0.53 0.12,0.84 0,0.16 -0.01,0.3 -0.03,0.4 h -2.94 c 0.03,0.47 0.17,0.85 0.43,1.12 0.26,0.28 0.6,0.41 1.02,0.41 0.21,0 0.4,-0.03 0.58,-0.09 0.18,-0.06 0.35,-0.14 0.51,-0.25 l 0.26,0.48 c -0.19,0.12 -0.4,0.22 -0.64,0.31 -0.23,0.09 -0.5,0.13 -0.8,0.13 -0.29,0 -0.57,-0.05 -0.82,-0.16 -0.25,-0.1 -0.48,-0.25 -0.66,-0.45 -0.19,-0.19 -0.34,-0.43 -0.44,-0.71 -0.11,-0.25 -0.17,-0.57 -0.17,-0.93 z m 3.05,-0.33 c 0,-0.45 -0.09,-0.79 -0.28,-1.03 -0.19,-0.24 -0.45,-0.35 -0.79,-0.35 -0.15,0 -0.3,0.03 -0.44,0.09 -0.14,0.06 -0.27,0.15 -0.38,0.27 -0.11,0.12 -0.21,0.26 -0.28,0.43 -0.07,0.17 -0.12,0.37 -0.15,0.59 z"
   id="path946" />
<path
   class="st1"
   d="m 210.31,71.45 h 0.61 l 0.06,0.79 h 0.03 c 0.15,-0.27 0.33,-0.49 0.54,-0.65 0.21,-0.16 0.44,-0.24 0.69,-0.24 0.17,0 0.33,0.03 0.47,0.09 l -0.14,0.65 c -0.07,-0.02 -0.14,-0.04 -0.2,-0.05 -0.06,-0.01 -0.13,-0.02 -0.22,-0.02 -0.18,0 -0.38,0.07 -0.58,0.22 -0.2,0.15 -0.38,0.41 -0.52,0.78 v 2.79 h -0.73 v -4.36 z"
   id="path948" />
<path
   class="st1"
   d="m 213.01,71.45 h 0.76 l 0.82,2.47 c 0.07,0.22 0.13,0.43 0.2,0.64 0.07,0.22 0.14,0.43 0.2,0.64 h 0.04 c 0.07,-0.21 0.13,-0.42 0.2,-0.64 0.07,-0.22 0.13,-0.43 0.2,-0.64 l 0.82,-2.47 h 0.72 l -1.54,4.35 h -0.86 z"
   id="path950" />
<path
   class="st1"
   d="m 218.24,70.55 c -0.14,0 -0.26,-0.04 -0.36,-0.13 -0.1,-0.09 -0.15,-0.2 -0.15,-0.34 0,-0.14 0.05,-0.26 0.15,-0.34 0.1,-0.09 0.22,-0.13 0.36,-0.13 0.14,0 0.26,0.04 0.36,0.13 0.1,0.09 0.15,0.2 0.15,0.34 0,0.14 -0.05,0.25 -0.15,0.34 -0.09,0.09 -0.22,0.13 -0.36,0.13 z m -0.38,0.9 h 0.73 v 4.35 h -0.73 z"
   id="path952" />
<path
   class="st1"
   d="m 219.79,73.63 c 0,-0.36 0.06,-0.69 0.17,-0.97 0.11,-0.28 0.27,-0.52 0.46,-0.72 0.19,-0.2 0.41,-0.35 0.67,-0.45 0.25,-0.1 0.52,-0.15 0.8,-0.15 0.29,0 0.53,0.05 0.74,0.16 0.21,0.1 0.38,0.23 0.53,0.36 l -0.37,0.47 c -0.13,-0.11 -0.27,-0.21 -0.41,-0.28 -0.14,-0.07 -0.3,-0.11 -0.47,-0.11 -0.2,0 -0.38,0.04 -0.55,0.12 -0.17,0.08 -0.31,0.2 -0.43,0.35 -0.12,0.15 -0.21,0.33 -0.28,0.53 -0.07,0.21 -0.1,0.43 -0.1,0.69 0,0.25 0.03,0.48 0.1,0.68 0.07,0.2 0.16,0.38 0.27,0.52 0.12,0.15 0.26,0.26 0.43,0.34 0.17,0.08 0.35,0.12 0.55,0.12 0.21,0 0.4,-0.04 0.57,-0.13 0.17,-0.09 0.32,-0.19 0.45,-0.31 l 0.33,0.48 c -0.2,0.17 -0.42,0.31 -0.66,0.41 -0.24,0.1 -0.5,0.15 -0.76,0.15 -0.29,0 -0.56,-0.05 -0.81,-0.15 -0.25,-0.1 -0.47,-0.25 -0.65,-0.44 -0.18,-0.19 -0.33,-0.43 -0.43,-0.72 -0.1,-0.27 -0.15,-0.59 -0.15,-0.95 z"
   id="path954" />
<path
   class="st1"
   d="m 223.73,73.63 c 0,-0.36 0.05,-0.68 0.17,-0.96 0.11,-0.28 0.26,-0.52 0.44,-0.72 0.18,-0.2 0.39,-0.35 0.62,-0.45 0.23,-0.11 0.48,-0.16 0.73,-0.16 0.27,0 0.52,0.05 0.74,0.14 0.22,0.1 0.4,0.23 0.55,0.41 0.15,0.18 0.26,0.39 0.34,0.64 0.08,0.25 0.12,0.53 0.12,0.84 0,0.16 -0.01,0.3 -0.03,0.4 h -2.94 c 0.03,0.47 0.17,0.85 0.43,1.12 0.26,0.28 0.6,0.41 1.02,0.41 0.21,0 0.4,-0.03 0.58,-0.09 0.17,-0.06 0.34,-0.14 0.51,-0.25 l 0.26,0.48 c -0.19,0.12 -0.4,0.22 -0.64,0.31 -0.23,0.09 -0.5,0.13 -0.8,0.13 -0.29,0 -0.57,-0.05 -0.82,-0.16 -0.26,-0.1 -0.48,-0.25 -0.66,-0.45 -0.19,-0.19 -0.34,-0.43 -0.44,-0.71 -0.12,-0.25 -0.18,-0.57 -0.18,-0.93 z m 3.05,-0.33 c 0,-0.45 -0.09,-0.79 -0.28,-1.03 -0.19,-0.24 -0.45,-0.35 -0.79,-0.35 -0.15,0 -0.3,0.03 -0.44,0.09 -0.14,0.06 -0.27,0.15 -0.38,0.27 -0.11,0.12 -0.21,0.26 -0.28,0.43 -0.07,0.17 -0.12,0.37 -0.15,0.59 z"
   id="path956" />
<path
   class="st2"
   d="m 83.62,53.15 c 0,16.83 -13.64,30.47 -30.47,30.47 -16.83,0 -30.47,-13.64 -30.47,-30.47 0,-16.83 13.64,-30.47 30.47,-30.47 16.83,-0.01 30.47,13.64 30.47,30.47 z"
   id="path958" />
<path
   class="st0"
   d="m 34.11,58.72 c -0.21,0 -0.39,-0.07 -0.53,-0.21 -0.14,-0.14 -0.21,-0.32 -0.21,-0.53 v -9.67 c 0,-0.22 0.07,-0.4 0.21,-0.54 0.14,-0.14 0.32,-0.21 0.53,-0.21 h 2.59 c 0.82,0 1.56,0.14 2.24,0.41 0.67,0.27 1.25,0.66 1.75,1.16 0.5,0.5 0.88,1.09 1.14,1.76 0.27,0.68 0.4,1.42 0.4,2.24 0,0.82 -0.13,1.57 -0.4,2.25 -0.27,0.68 -0.65,1.27 -1.14,1.77 -0.5,0.5 -1.08,0.89 -1.75,1.16 -0.67,0.27 -1.42,0.41 -2.24,0.41 z m 0.74,-1.31 h 1.84 c 0.8,0 1.51,-0.18 2.12,-0.55 0.61,-0.37 1.1,-0.87 1.45,-1.51 0.35,-0.64 0.53,-1.38 0.53,-2.21 0,-0.84 -0.18,-1.58 -0.53,-2.21 -0.35,-0.64 -0.84,-1.14 -1.45,-1.5 -0.61,-0.36 -1.32,-0.54 -2.12,-0.54 h -1.84 z"
   id="path960" />
<path
   class="st0"
   d="m 43.69,58.72 c -0.27,0 -0.47,-0.11 -0.61,-0.34 -0.14,-0.23 -0.16,-0.47 -0.04,-0.73 l 4.01,-9.58 c 0.14,-0.33 0.38,-0.5 0.7,-0.5 0.34,0 0.58,0.17 0.7,0.5 l 4.03,9.61 c 0.1,0.27 0.09,0.51 -0.05,0.72 -0.14,0.21 -0.35,0.32 -0.62,0.32 -0.14,0 -0.28,-0.04 -0.41,-0.12 -0.13,-0.08 -0.22,-0.19 -0.28,-0.34 l -3.54,-8.8 h 0.4 l -3.6,8.8 c -0.07,0.15 -0.16,0.27 -0.29,0.34 -0.13,0.09 -0.27,0.12 -0.4,0.12 z m 0.76,-2.45 0.57,-1.23 h 5.6 l 0.57,1.23 z"
   id="path962" />
<path
   class="st0"
   d="m 54.31,58.72 c -0.27,0 -0.47,-0.11 -0.61,-0.34 -0.14,-0.23 -0.16,-0.47 -0.04,-0.73 l 4.01,-9.58 c 0.14,-0.33 0.38,-0.5 0.7,-0.5 0.34,0 0.58,0.17 0.7,0.5 l 4.03,9.61 c 0.1,0.27 0.09,0.51 -0.05,0.72 -0.14,0.21 -0.35,0.32 -0.62,0.32 -0.14,0 -0.28,-0.04 -0.41,-0.12 -0.13,-0.08 -0.22,-0.19 -0.28,-0.34 l -3.54,-8.8 h 0.4 l -3.6,8.8 c -0.07,0.15 -0.16,0.27 -0.29,0.34 -0.14,0.09 -0.27,0.12 -0.4,0.12 z m 0.75,-2.45 0.57,-1.23 h 5.6 l 0.57,1.23 z"
   id="path964" />
<path
   class="st0"
   d="m 65.46,58.72 c -0.21,0 -0.39,-0.07 -0.53,-0.21 -0.14,-0.14 -0.21,-0.32 -0.21,-0.53 v -9.67 c 0,-0.22 0.07,-0.4 0.21,-0.54 0.14,-0.14 0.32,-0.21 0.53,-0.21 h 2.59 c 0.82,0 1.56,0.14 2.24,0.41 0.67,0.27 1.25,0.66 1.75,1.16 0.5,0.5 0.88,1.09 1.14,1.76 0.27,0.68 0.4,1.42 0.4,2.24 0,0.82 -0.13,1.57 -0.4,2.25 -0.27,0.68 -0.65,1.27 -1.14,1.77 -0.5,0.5 -1.08,0.89 -1.75,1.16 -0.67,0.27 -1.42,0.41 -2.24,0.41 z m 0.74,-1.31 h 1.84 c 0.8,0 1.51,-0.18 2.12,-0.55 0.61,-0.37 1.1,-0.87 1.45,-1.51 0.35,-0.64 0.53,-1.38 0.53,-2.21 0,-0.84 -0.18,-1.58 -0.53,-2.21 -0.35,-0.64 -0.84,-1.14 -1.45,-1.5 -0.61,-0.36 -1.32,-0.54 -2.12,-0.54 H 66.2 Z"
   id="path966" />
<g
   id="g978"
   transform="translate(-279,-245.28)">
	<defs
   id="defs969">
		<rect
   id="SVGID_1_"
   x="359.82001"
   y="273.06"
   width="201.14"
   height="26.860001" />
	</defs>
	<clipPath
   id="SVGID_2_">
		<use
   xlink:href="#SVGID_1_"
   style="overflow:visible"
   id="use971"
   x="0"
   y="0"
   width="100%"
   height="100%" />
	</clipPath>
	<g
   class="st3"
   clip-path="url(#SVGID_2_)"
   id="g976">
		<text
   transform="translate(369.8805,293.2421)"
   class="st1 st4 st5"
   id="text974">Dhoch3</text>
	</g>
</g>
</svg>
