<?xml version="1.0" encoding="UTF-8" standalone="no"?>
<!-- Generator: Adobe Illustrator 25.0.1, SVG Export Plug-In . SVG Version: 6.00 Build 0)  -->

<svg
   version="1.1"
   x="0px"
   y="0px"
   viewBox="0 0 226.77 226.76999"
   xml:space="preserve"
   id="svg844"
   sodipodi:docname="DAAD_Logo_Kreis_Basic_RGB.svg"
   width="226.77"
   height="226.77"
   inkscape:version="1.1 (c4e8f9e, 2021-05-24)"
   xmlns:inkscape="http://www.inkscape.org/namespaces/inkscape"
   xmlns:sodipodi="http://sodipodi.sourceforge.net/DTD/sodipodi-0.dtd"
   xmlns="http://www.w3.org/2000/svg"
   xmlns:svg="http://www.w3.org/2000/svg"><defs
   id="defs848" /><sodipodi:namedview
   id="namedview846"
   pagecolor="#505050"
   bordercolor="#ffffff"
   borderopacity="1"
   inkscape:pageshadow="0"
   inkscape:pageopacity="0"
   inkscape:pagecheckerboard="1"
   showgrid="false"
   inkscape:lockguides="true"
   inkscape:zoom="1.2649509"
   inkscape:cx="-103.16606"
   inkscape:cy="122.5344"
   inkscape:window-width="2560"
   inkscape:window-height="1336"
   inkscape:window-x="1440"
   inkscape:window-y="25"
   inkscape:window-maximized="1"
   inkscape:current-layer="svg844" />
<style
   type="text/css"
   id="style824">
	.st0{fill:none;}
	.st1{fill:#0060AF;}
	.st2{fill:#FFFFFF;}
</style>
<g
   id="Schutzzone"
   transform="translate(-307.56,-184.25)">
	<rect
   x="307.56"
   y="184.25"
   class="st0"
   width="226.77"
   height="226.77"
   id="rect826" />
</g>
<g
   id="DAAD_Logo_Kreis_Basic_RGB"
   transform="translate(-307.56,-184.25)">
	<g
   id="g841">
		<path
   class="st1"
   d="m 488.98,297.64 c 0,37.57 -30.46,68.03 -68.03,68.03 -37.57,0 -68.03,-30.46 -68.03,-68.03 0,-37.57 30.46,-68.03 68.03,-68.03 37.57,0 68.03,30.45 68.03,68.03"
   id="path829" />
		<g
   id="g839">
			<path
   class="st2"
   d="m 393.76,297.62 c 0,1.84 -0.39,3.47 -1.17,4.89 -0.78,1.42 -1.85,2.54 -3.22,3.36 -1.36,0.81 -2.93,1.22 -4.7,1.22 h -4.09 v -18.91 h 4.09 c 1.77,0 3.34,0.4 4.7,1.2 1.36,0.8 2.43,1.91 3.22,3.33 0.78,1.42 1.17,3.05 1.17,4.91 m 3.17,0 c 0,-1.82 -0.3,-3.47 -0.89,-4.97 -0.59,-1.5 -1.44,-2.8 -2.53,-3.91 -1.1,-1.11 -2.39,-1.97 -3.88,-2.57 -1.49,-0.6 -3.14,-0.9 -4.96,-0.9 h -5.73 c -0.46,0 -0.86,0.15 -1.17,0.46 -0.32,0.31 -0.47,0.7 -0.47,1.19 v 21.44 c 0,0.46 0.16,0.86 0.47,1.17 0.32,0.32 0.71,0.48 1.17,0.48 h 5.73 c 1.82,0 3.47,-0.3 4.96,-0.9 1.49,-0.6 2.78,-1.46 3.88,-2.57 1.1,-1.11 1.94,-2.42 2.53,-3.93 0.59,-1.51 0.89,-3.17 0.89,-4.99"
   id="path831" />
			<path
   class="st2"
   d="m 437.57,301.83 h -9.14 l 4.61,-11.26 z m 5.89,5.86 -8.93,-21.32 c -0.27,-0.74 -0.79,-1.11 -1.55,-1.11 -0.72,0 -1.24,0.37 -1.55,1.11 l -8.9,21.25 c -0.25,0.57 -0.22,1.11 0.09,1.61 0.32,0.51 0.77,0.76 1.36,0.76 0.29,0 0.58,-0.08 0.87,-0.25 0.28,-0.17 0.5,-0.42 0.65,-0.76 l 1.81,-4.44 h 11.35 l 1.79,4.44 c 0.13,0.32 0.33,0.57 0.62,0.74 0.28,0.18 0.59,0.27 0.9,0.27 0.61,0 1.07,-0.24 1.38,-0.71 0.31,-0.46 0.34,-0.99 0.11,-1.59"
   id="path833" />
			<path
   class="st2"
   d="m 413.9,301.83 h -9.14 l 4.61,-11.26 z m 5.89,5.86 -8.93,-21.32 c -0.27,-0.74 -0.79,-1.11 -1.55,-1.11 -0.72,0 -1.24,0.37 -1.55,1.11 l -8.9,21.25 c -0.25,0.57 -0.22,1.11 0.09,1.61 0.32,0.51 0.77,0.76 1.36,0.76 0.29,0 0.58,-0.08 0.87,-0.25 0.28,-0.17 0.5,-0.42 0.65,-0.76 l 1.81,-4.44 h 11.35 l 1.79,4.44 c 0.13,0.32 0.33,0.57 0.62,0.74 0.28,0.18 0.59,0.27 0.9,0.27 0.61,0 1.07,-0.24 1.38,-0.71 0.3,-0.46 0.34,-0.99 0.11,-1.59"
   id="path835" />
			<path
   class="st2"
   d="m 463.68,297.62 c 0,1.84 -0.39,3.47 -1.17,4.89 -0.78,1.42 -1.85,2.54 -3.22,3.36 -1.36,0.81 -2.93,1.22 -4.7,1.22 h -4.09 v -18.91 h 4.09 c 1.77,0 3.34,0.4 4.7,1.2 1.36,0.8 2.43,1.91 3.22,3.33 0.78,1.42 1.17,3.05 1.17,4.91 m 3.17,0 c 0,-1.82 -0.3,-3.47 -0.89,-4.97 -0.59,-1.5 -1.44,-2.8 -2.53,-3.91 -1.1,-1.11 -2.39,-1.97 -3.88,-2.57 -1.49,-0.6 -3.14,-0.9 -4.96,-0.9 h -5.73 c -0.46,0 -0.86,0.15 -1.17,0.46 -0.32,0.31 -0.47,0.7 -0.47,1.19 v 21.44 c 0,0.46 0.16,0.86 0.47,1.17 0.32,0.32 0.71,0.48 1.17,0.48 h 5.73 c 1.82,0 3.47,-0.3 4.96,-0.9 1.49,-0.6 2.78,-1.46 3.88,-2.57 1.1,-1.11 1.94,-2.42 2.53,-3.93 0.59,-1.51 0.89,-3.17 0.89,-4.99"
   id="path837" />
		</g>
	</g>
</g>
</svg>
