<?xml version="1.0" encoding="UTF-8" standalone="no"?>
<!-- Generator: Adobe Illustrator 25.0.1, SVG Export Plug-In . SVG Version: 6.00 Build 0)  -->

<svg
   version="1.1"
   x="0px"
   y="0px"
   viewBox="0 0 311.80999 113.38999"
   xml:space="preserve"
   id="svg978"
   sodipodi:docname="daad-footer-logo.svg"
   width="311.81"
   height="113.39"
   inkscape:version="1.1 (c4e8f9e, 2021-05-24)"
   xmlns:inkscape="http://www.inkscape.org/namespaces/inkscape"
   xmlns:sodipodi="http://sodipodi.sourceforge.net/DTD/sodipodi-0.dtd"
   xmlns="http://www.w3.org/2000/svg"
   xmlns:svg="http://www.w3.org/2000/svg"><defs
   id="defs982" /><sodipodi:namedview
   id="namedview980"
   pagecolor="#505050"
   bordercolor="#ffffff"
   borderopacity="1"
   inkscape:pageshadow="0"
   inkscape:pageopacity="0"
   inkscape:pagecheckerboard="1"
   showgrid="false"
   inkscape:zoom="1.2649509"
   inkscape:cx="-60.476653"
   inkscape:cy="65.615193"
   inkscape:window-width="2560"
   inkscape:window-height="1336"
   inkscape:window-x="1440"
   inkscape:window-y="25"
   inkscape:window-maximized="1"
   inkscape:current-layer="svg978" />
<style
   type="text/css"
   id="style824">
	.st0{fill:#FFFFFF;}
	.st1{fill:#0060AF;}
</style>
<g
   id="Schutzzone"
   transform="translate(-265.04001,-240.94)">
	<rect
   x="265.04001"
   y="240.94"
   class="st0"
   width="311.81"
   height="113.39"
   id="rect826" />
</g>
<g
   id="DAAD_Logo_Supplement_de_x2B_en_H_Basic_CMYK"
   transform="translate(-265.04001,-240.94)">
	<g
   id="g975">
		<g
   id="g841">
			<path
   class="st1"
   d="m 355.75,297.64 c 0,18.79 -15.23,34.02 -34.02,34.02 -18.79,0 -34.02,-15.23 -34.02,-34.02 0,-18.79 15.23,-34.02 34.02,-34.02 18.79,0 34.02,15.23 34.02,34.02"
   id="path829" />
			<g
   id="g839">
				<path
   class="st0"
   d="m 308.14,297.63 c 0,0.92 -0.2,1.73 -0.59,2.45 -0.39,0.71 -0.93,1.27 -1.61,1.68 -0.68,0.41 -1.47,0.61 -2.35,0.61 h -2.04 v -9.46 h 2.04 c 0.89,0 1.67,0.2 2.35,0.6 0.68,0.4 1.22,0.96 1.61,1.66 0.4,0.71 0.59,1.53 0.59,2.46 m 1.58,0 c 0,-0.91 -0.15,-1.74 -0.44,-2.49 -0.3,-0.75 -0.72,-1.4 -1.27,-1.96 -0.55,-0.56 -1.2,-0.98 -1.94,-1.28 -0.74,-0.3 -1.57,-0.45 -2.48,-0.45 h -2.87 c -0.23,0 -0.43,0.08 -0.59,0.23 -0.16,0.15 -0.24,0.35 -0.24,0.59 V 303 c 0,0.23 0.08,0.43 0.24,0.59 0.16,0.16 0.35,0.24 0.59,0.24 h 2.87 c 0.91,0 1.73,-0.15 2.48,-0.45 0.74,-0.3 1.39,-0.73 1.94,-1.28 0.55,-0.55 0.97,-1.21 1.27,-1.96 0.3,-0.77 0.44,-1.6 0.44,-2.51"
   id="path831" />
				<path
   class="st0"
   d="m 330.04,299.74 h -4.57 l 2.3,-5.63 z m 2.95,2.93 -4.47,-10.66 c -0.14,-0.37 -0.4,-0.55 -0.78,-0.55 -0.36,0 -0.62,0.18 -0.78,0.55 l -4.45,10.63 c -0.13,0.28 -0.11,0.55 0.05,0.81 0.16,0.25 0.39,0.38 0.68,0.38 0.15,0 0.29,-0.04 0.44,-0.13 0.14,-0.08 0.25,-0.21 0.32,-0.38 l 0.91,-2.22 h 5.67 l 0.89,2.22 c 0.06,0.16 0.17,0.28 0.31,0.37 0.14,0.09 0.29,0.14 0.45,0.14 0.31,0 0.54,-0.12 0.69,-0.36 0.17,-0.24 0.19,-0.51 0.07,-0.8"
   id="path833" />
				<path
   class="st0"
   d="m 318.21,299.74 h -4.57 l 2.3,-5.63 z m 2.94,2.93 -4.47,-10.66 c -0.14,-0.37 -0.4,-0.55 -0.78,-0.55 -0.36,0 -0.62,0.18 -0.78,0.55 l -4.45,10.63 c -0.13,0.28 -0.11,0.55 0.05,0.81 0.16,0.25 0.39,0.38 0.68,0.38 0.15,0 0.29,-0.04 0.44,-0.13 0.14,-0.08 0.25,-0.21 0.32,-0.38 l 0.91,-2.22 h 5.67 l 0.89,2.22 c 0.06,0.16 0.17,0.28 0.31,0.37 0.14,0.09 0.29,0.14 0.45,0.14 0.31,0 0.54,-0.12 0.69,-0.36 0.17,-0.24 0.19,-0.51 0.07,-0.8"
   id="path835" />
				<path
   class="st0"
   d="m 343.1,297.63 c 0,0.92 -0.2,1.73 -0.59,2.45 -0.39,0.71 -0.93,1.27 -1.61,1.68 -0.68,0.41 -1.47,0.61 -2.35,0.61 h -2.04 v -9.46 h 2.04 c 0.89,0 1.67,0.2 2.35,0.6 0.68,0.4 1.22,0.96 1.61,1.66 0.4,0.71 0.59,1.53 0.59,2.46 m 1.58,0 c 0,-0.91 -0.15,-1.74 -0.44,-2.49 -0.3,-0.75 -0.72,-1.4 -1.27,-1.96 -0.55,-0.56 -1.2,-0.98 -1.94,-1.28 -0.74,-0.3 -1.57,-0.45 -2.48,-0.45 h -2.87 c -0.23,0 -0.43,0.08 -0.59,0.23 -0.16,0.15 -0.24,0.35 -0.24,0.59 V 303 c 0,0.23 0.08,0.43 0.24,0.59 0.16,0.16 0.35,0.24 0.59,0.24 h 2.87 c 0.91,0 1.73,-0.15 2.48,-0.45 0.74,-0.3 1.39,-0.73 1.94,-1.28 0.55,-0.55 0.97,-1.21 1.27,-1.96 0.3,-0.77 0.44,-1.6 0.44,-2.51"
   id="path837" />
			</g>
		</g>
		<g
   id="g973">
			<path
   d="m 365.05,295 v -6.58 h 1.65 c 1.02,0 1.79,0.28 2.32,0.84 0.53,0.56 0.79,1.37 0.79,2.42 0,0.52 -0.07,0.99 -0.2,1.4 -0.13,0.41 -0.33,0.76 -0.59,1.04 -0.26,0.28 -0.58,0.5 -0.96,0.65 -0.38,0.15 -0.82,0.23 -1.31,0.23 z m 0.83,-0.69 h 0.75 c 0.77,0 1.35,-0.23 1.73,-0.69 0.38,-0.46 0.58,-1.11 0.58,-1.95 0,-0.84 -0.19,-1.47 -0.58,-1.92 -0.38,-0.44 -0.96,-0.66 -1.73,-0.66 h -0.75 z"
   id="path843" />
			<path
   d="m 373.17,295.12 c -0.33,0 -0.63,-0.06 -0.92,-0.18 -0.28,-0.12 -0.53,-0.28 -0.74,-0.5 -0.21,-0.22 -0.38,-0.48 -0.5,-0.8 -0.12,-0.31 -0.18,-0.67 -0.18,-1.07 0,-0.4 0.06,-0.76 0.19,-1.08 0.12,-0.32 0.29,-0.59 0.49,-0.81 0.2,-0.22 0.44,-0.39 0.7,-0.51 0.26,-0.12 0.53,-0.18 0.81,-0.18 0.31,0 0.58,0.05 0.83,0.16 0.24,0.11 0.45,0.26 0.61,0.46 0.16,0.2 0.29,0.44 0.38,0.72 0.09,0.28 0.13,0.6 0.13,0.94 0,0.09 0,0.17 0,0.26 0,0.08 -0.01,0.16 -0.03,0.22 h -3.29 c 0.03,0.52 0.2,0.94 0.49,1.24 0.29,0.3 0.67,0.46 1.14,0.46 0.23,0 0.45,-0.04 0.65,-0.11 0.2,-0.07 0.39,-0.16 0.57,-0.28 l 0.29,0.54 c -0.21,0.13 -0.45,0.25 -0.71,0.35 -0.28,0.12 -0.58,0.17 -0.91,0.17 z m -1.54,-2.95 h 2.61 c 0,-0.5 -0.11,-0.87 -0.32,-1.13 -0.21,-0.26 -0.51,-0.39 -0.89,-0.39 -0.17,0 -0.34,0.03 -0.5,0.1 -0.16,0.07 -0.3,0.17 -0.43,0.3 -0.13,0.13 -0.23,0.29 -0.32,0.48 -0.06,0.18 -0.12,0.4 -0.15,0.64 z"
   id="path845" />
			<path
   d="m 377.7,295.12 c -0.52,0 -0.9,-0.16 -1.14,-0.48 -0.24,-0.32 -0.36,-0.8 -0.36,-1.42 v -3.09 h 0.83 v 2.98 c 0,0.46 0.07,0.79 0.22,1 0.14,0.21 0.38,0.31 0.7,0.31 0.25,0 0.48,-0.07 0.67,-0.2 0.19,-0.13 0.41,-0.34 0.64,-0.63 v -3.46 h 0.82 V 295 h -0.68 l -0.07,-0.76 h -0.03 c -0.23,0.27 -0.47,0.48 -0.72,0.64 -0.25,0.16 -0.54,0.24 -0.88,0.24 z"
   id="path847" />
			<path
   d="m 383.32,295.12 c -0.26,0 -0.48,-0.04 -0.66,-0.12 -0.18,-0.08 -0.32,-0.19 -0.43,-0.33 -0.11,-0.14 -0.19,-0.31 -0.24,-0.51 -0.05,-0.2 -0.07,-0.42 -0.07,-0.66 v -2.7 h -0.72 v -0.62 l 0.76,-0.05 0.1,-1.37 h 0.69 v 1.37 h 1.31 v 0.67 h -1.31 v 2.71 c 0,0.3 0.06,0.53 0.17,0.7 0.11,0.16 0.31,0.25 0.59,0.25 0.09,0 0.18,-0.01 0.28,-0.04 0.1,-0.03 0.19,-0.06 0.27,-0.09 l 0.16,0.62 c -0.13,0.05 -0.28,0.09 -0.44,0.12 -0.16,0.03 -0.31,0.05 -0.46,0.05 z"
   id="path849" />
			<path
   d="m 386.7,295.12 c -0.35,0 -0.68,-0.06 -0.99,-0.19 -0.31,-0.13 -0.59,-0.29 -0.82,-0.48 l 0.41,-0.55 c 0.21,0.17 0.43,0.31 0.66,0.42 0.22,0.11 0.48,0.16 0.78,0.16 0.32,0 0.56,-0.07 0.72,-0.22 0.16,-0.15 0.24,-0.33 0.24,-0.54 0,-0.13 -0.03,-0.24 -0.1,-0.33 -0.07,-0.09 -0.15,-0.18 -0.26,-0.25 -0.1,-0.07 -0.22,-0.13 -0.36,-0.19 -0.14,-0.06 -0.27,-0.11 -0.4,-0.16 -0.17,-0.06 -0.35,-0.13 -0.52,-0.21 -0.17,-0.08 -0.33,-0.17 -0.47,-0.28 -0.14,-0.11 -0.25,-0.24 -0.34,-0.39 -0.09,-0.15 -0.13,-0.32 -0.13,-0.53 0,-0.19 0.04,-0.38 0.12,-0.55 0.08,-0.17 0.19,-0.32 0.33,-0.44 0.14,-0.12 0.32,-0.22 0.53,-0.29 0.21,-0.07 0.44,-0.11 0.7,-0.11 0.31,0 0.59,0.05 0.85,0.16 0.26,0.11 0.48,0.24 0.67,0.39 l -0.39,0.52 c -0.17,-0.13 -0.34,-0.23 -0.52,-0.31 -0.18,-0.08 -0.38,-0.12 -0.59,-0.12 -0.31,0 -0.53,0.07 -0.68,0.21 -0.14,0.14 -0.22,0.3 -0.22,0.49 0,0.11 0.03,0.21 0.09,0.3 0.06,0.08 0.14,0.16 0.24,0.22 0.1,0.06 0.22,0.12 0.35,0.17 0.13,0.05 0.27,0.1 0.41,0.16 0.17,0.07 0.35,0.14 0.53,0.21 0.18,0.07 0.34,0.17 0.48,0.28 0.14,0.11 0.26,0.25 0.35,0.41 0.09,0.16 0.14,0.36 0.14,0.58 0,0.2 -0.04,0.39 -0.12,0.56 -0.08,0.17 -0.19,0.33 -0.34,0.46 -0.15,0.13 -0.34,0.24 -0.56,0.32 -0.25,0.08 -0.5,0.12 -0.79,0.12 z"
   id="path851" />
			<path
   d="m 391.61,295.12 c -0.32,0 -0.62,-0.06 -0.9,-0.17 -0.28,-0.11 -0.52,-0.28 -0.73,-0.5 -0.2,-0.22 -0.36,-0.49 -0.48,-0.8 -0.12,-0.31 -0.18,-0.68 -0.18,-1.08 0,-0.41 0.06,-0.77 0.19,-1.09 0.13,-0.32 0.3,-0.59 0.51,-0.81 0.21,-0.22 0.46,-0.39 0.75,-0.5 0.28,-0.11 0.58,-0.17 0.9,-0.17 0.32,0 0.6,0.06 0.82,0.17 0.23,0.11 0.43,0.25 0.6,0.4 l -0.42,0.54 c -0.14,-0.13 -0.29,-0.23 -0.45,-0.31 -0.16,-0.08 -0.33,-0.12 -0.53,-0.12 -0.22,0 -0.42,0.04 -0.61,0.14 -0.19,0.09 -0.35,0.22 -0.48,0.39 -0.13,0.17 -0.24,0.37 -0.32,0.6 -0.08,0.23 -0.12,0.49 -0.12,0.77 0,0.28 0.04,0.54 0.11,0.76 0.07,0.23 0.18,0.42 0.31,0.59 0.13,0.16 0.29,0.29 0.48,0.38 0.19,0.09 0.39,0.14 0.61,0.14 0.23,0 0.44,-0.05 0.63,-0.15 0.19,-0.1 0.36,-0.21 0.52,-0.35 l 0.36,0.55 c -0.22,0.19 -0.47,0.35 -0.73,0.46 -0.27,0.1 -0.55,0.16 -0.84,0.16 z"
   id="path853" />
			<path
   d="m 394.31,295 v -7.15 h 0.82 v 1.95 l -0.03,1 c 0.23,-0.22 0.48,-0.41 0.73,-0.57 0.25,-0.16 0.55,-0.24 0.89,-0.24 0.52,0 0.89,0.16 1.13,0.48 0.24,0.32 0.36,0.8 0.36,1.43 v 3.1 h -0.82 v -2.98 c 0,-0.46 -0.07,-0.79 -0.22,-1 -0.15,-0.2 -0.38,-0.31 -0.7,-0.31 -0.25,0 -0.48,0.06 -0.67,0.19 -0.19,0.13 -0.42,0.31 -0.66,0.56 V 295 Z"
   id="path855" />
			<path
   d="m 401.79,295.12 c -0.33,0 -0.63,-0.06 -0.92,-0.18 -0.28,-0.12 -0.53,-0.28 -0.74,-0.5 -0.21,-0.22 -0.38,-0.48 -0.5,-0.8 -0.12,-0.31 -0.18,-0.67 -0.18,-1.07 0,-0.4 0.06,-0.76 0.19,-1.08 0.12,-0.32 0.29,-0.59 0.49,-0.81 0.2,-0.22 0.44,-0.39 0.7,-0.51 0.26,-0.12 0.53,-0.18 0.81,-0.18 0.31,0 0.58,0.05 0.83,0.16 0.24,0.11 0.45,0.26 0.61,0.46 0.16,0.2 0.29,0.44 0.38,0.72 0.09,0.28 0.13,0.6 0.13,0.94 0,0.09 0,0.17 0,0.26 0,0.08 -0.01,0.16 -0.03,0.22 h -3.29 c 0.03,0.52 0.2,0.94 0.49,1.24 0.29,0.3 0.67,0.46 1.14,0.46 0.23,0 0.45,-0.04 0.65,-0.11 0.2,-0.07 0.39,-0.16 0.57,-0.28 l 0.29,0.54 c -0.21,0.13 -0.45,0.25 -0.71,0.35 -0.28,0.12 -0.57,0.17 -0.91,0.17 z m -1.53,-2.95 h 2.61 c 0,-0.5 -0.11,-0.87 -0.32,-1.13 -0.21,-0.26 -0.51,-0.39 -0.89,-0.39 -0.17,0 -0.34,0.03 -0.5,0.1 -0.16,0.07 -0.3,0.17 -0.43,0.3 -0.13,0.13 -0.23,0.29 -0.32,0.48 -0.07,0.18 -0.13,0.4 -0.15,0.64 z"
   id="path857" />
			<path
   d="m 404.84,295 v -4.88 h 0.68 l 0.07,0.88 h 0.03 c 0.17,-0.31 0.37,-0.55 0.61,-0.73 0.24,-0.18 0.5,-0.27 0.78,-0.27 0.19,0 0.37,0.03 0.52,0.1 l -0.16,0.72 c -0.08,-0.03 -0.15,-0.05 -0.22,-0.06 -0.07,-0.01 -0.15,-0.02 -0.25,-0.02 -0.21,0 -0.42,0.08 -0.65,0.25 -0.22,0.17 -0.42,0.46 -0.59,0.87 V 295 Z"
   id="path859" />
			<path
   d="m 409.64,295 2.23,-6.58 h 0.94 l 2.23,6.58 h -0.89 l -0.62,-2.01 h -2.4 L 410.5,295 Z m 2.01,-3.69 -0.31,1 h 1.98 l -0.31,-1 c -0.12,-0.37 -0.23,-0.73 -0.34,-1.1 -0.11,-0.36 -0.21,-0.74 -0.32,-1.12 h -0.04 c -0.1,0.38 -0.2,0.75 -0.31,1.12 -0.12,0.37 -0.23,0.74 -0.35,1.1 z"
   id="path861" />
			<path
   d="m 415.99,295 v -7.15 h 0.81 v 4.84 h 0.03 l 2.08,-2.57 h 0.91 l -1.64,1.96 1.86,2.92 h -0.9 l -1.43,-2.35 -0.91,1.06 V 295 Z"
   id="path863" />
			<path
   d="m 422.09,295.12 c -0.41,0 -0.75,-0.12 -1.02,-0.36 -0.27,-0.24 -0.41,-0.58 -0.41,-1.02 0,-0.54 0.24,-0.94 0.71,-1.23 0.48,-0.28 1.23,-0.48 2.28,-0.6 0,-0.15 -0.02,-0.3 -0.04,-0.45 -0.03,-0.15 -0.08,-0.28 -0.16,-0.39 -0.07,-0.11 -0.18,-0.21 -0.31,-0.28 -0.13,-0.07 -0.3,-0.11 -0.5,-0.11 -0.28,0 -0.55,0.05 -0.79,0.16 -0.25,0.11 -0.47,0.23 -0.66,0.36 l -0.32,-0.57 c 0.23,-0.15 0.51,-0.29 0.83,-0.43 0.33,-0.14 0.69,-0.21 1.08,-0.21 0.6,0 1.03,0.18 1.29,0.55 0.27,0.37 0.4,0.85 0.4,1.46 v 3 h -0.68 l -0.07,-0.58 h -0.03 c -0.23,0.19 -0.49,0.36 -0.75,0.5 -0.26,0.14 -0.55,0.2 -0.85,0.2 z m 0.24,-0.67 c 0.23,0 0.46,-0.05 0.66,-0.17 0.21,-0.11 0.43,-0.27 0.66,-0.49 v -1.35 c -0.41,0.05 -0.75,0.12 -1.03,0.19 -0.28,0.07 -0.5,0.16 -0.67,0.26 -0.17,0.1 -0.29,0.22 -0.37,0.35 -0.08,0.13 -0.12,0.27 -0.12,0.43 0,0.28 0.08,0.48 0.25,0.6 0.17,0.12 0.38,0.18 0.62,0.18 z"
   id="path865" />
			<path
   d="m 427.79,295.12 c -0.62,0 -1.11,-0.22 -1.47,-0.66 -0.36,-0.44 -0.55,-1.07 -0.55,-1.89 0,-0.39 0.06,-0.75 0.18,-1.07 0.12,-0.32 0.27,-0.59 0.47,-0.81 0.19,-0.22 0.42,-0.39 0.67,-0.51 0.25,-0.12 0.52,-0.18 0.8,-0.18 0.28,0 0.53,0.05 0.73,0.15 0.21,0.1 0.42,0.24 0.63,0.41 l -0.04,-0.83 v -1.88 h 0.83 V 295 h -0.68 l -0.07,-0.57 h -0.03 c -0.19,0.19 -0.42,0.35 -0.67,0.49 -0.25,0.14 -0.52,0.2 -0.8,0.2 z m 0.18,-0.7 c 0.23,0 0.44,-0.05 0.64,-0.17 0.2,-0.12 0.4,-0.28 0.6,-0.51 v -2.55 c -0.21,-0.19 -0.41,-0.32 -0.6,-0.4 -0.19,-0.08 -0.39,-0.12 -0.59,-0.12 -0.19,0 -0.38,0.05 -0.55,0.14 -0.17,0.09 -0.32,0.22 -0.45,0.38 -0.13,0.16 -0.23,0.36 -0.3,0.59 -0.07,0.23 -0.11,0.48 -0.11,0.76 0,0.59 0.12,1.05 0.35,1.38 0.25,0.34 0.58,0.5 1.01,0.5 z"
   id="path867" />
			<path
   d="m 433.72,295.12 c -0.33,0 -0.63,-0.06 -0.92,-0.18 -0.28,-0.12 -0.53,-0.28 -0.74,-0.5 -0.21,-0.22 -0.38,-0.48 -0.5,-0.8 -0.12,-0.31 -0.18,-0.67 -0.18,-1.07 0,-0.4 0.06,-0.76 0.19,-1.08 0.12,-0.32 0.29,-0.59 0.49,-0.81 0.2,-0.22 0.44,-0.39 0.7,-0.51 0.26,-0.12 0.53,-0.18 0.81,-0.18 0.31,0 0.58,0.05 0.83,0.16 0.24,0.11 0.45,0.26 0.61,0.46 0.16,0.2 0.29,0.44 0.38,0.72 0.09,0.28 0.13,0.6 0.13,0.94 0,0.09 0,0.17 0,0.26 0,0.08 -0.01,0.16 -0.03,0.22 h -3.29 c 0.03,0.52 0.2,0.94 0.49,1.24 0.29,0.3 0.67,0.46 1.14,0.46 0.23,0 0.45,-0.04 0.65,-0.11 0.2,-0.07 0.39,-0.16 0.57,-0.28 l 0.29,0.54 c -0.21,0.13 -0.45,0.25 -0.71,0.35 -0.28,0.12 -0.58,0.17 -0.91,0.17 z m -1.54,-2.95 h 2.61 c 0,-0.5 -0.11,-0.87 -0.32,-1.13 -0.21,-0.26 -0.51,-0.39 -0.89,-0.39 -0.17,0 -0.34,0.03 -0.5,0.1 -0.16,0.07 -0.3,0.17 -0.43,0.3 -0.13,0.13 -0.23,0.29 -0.32,0.48 -0.07,0.18 -0.12,0.4 -0.15,0.64 z"
   id="path869" />
			<path
   d="m 436.77,295 v -4.88 h 0.68 l 0.07,0.7 h 0.03 c 0.21,-0.23 0.45,-0.43 0.7,-0.59 0.25,-0.16 0.52,-0.24 0.82,-0.24 0.38,0 0.67,0.08 0.88,0.25 0.21,0.16 0.37,0.39 0.47,0.69 0.25,-0.28 0.51,-0.51 0.77,-0.68 0.26,-0.17 0.54,-0.26 0.84,-0.26 0.5,0 0.87,0.16 1.12,0.48 0.24,0.32 0.37,0.8 0.37,1.43 v 3.1 h -0.82 v -2.98 c 0,-0.46 -0.07,-0.79 -0.22,-1 -0.15,-0.2 -0.38,-0.31 -0.68,-0.31 -0.37,0 -0.78,0.25 -1.22,0.75 V 295 h -0.82 v -2.98 c 0,-0.46 -0.07,-0.79 -0.22,-1 -0.15,-0.2 -0.38,-0.31 -0.69,-0.31 -0.37,0 -0.78,0.25 -1.22,0.75 V 295 Z"
   id="path871" />
			<path
   d="m 445.56,289.12 c -0.16,0 -0.3,-0.05 -0.41,-0.15 -0.11,-0.1 -0.17,-0.23 -0.17,-0.38 0,-0.16 0.05,-0.29 0.17,-0.39 0.11,-0.1 0.25,-0.15 0.41,-0.15 0.16,0 0.3,0.05 0.41,0.15 0.11,0.1 0.17,0.23 0.17,0.39 0,0.15 -0.05,0.28 -0.17,0.38 -0.11,0.09 -0.25,0.15 -0.41,0.15 z m -0.42,5.88 v -4.88 h 0.82 V 295 Z"
   id="path873" />
			<path
   d="m 448.93,295.12 c -0.35,0 -0.68,-0.06 -0.99,-0.19 -0.31,-0.13 -0.59,-0.29 -0.82,-0.48 l 0.41,-0.55 c 0.21,0.17 0.43,0.31 0.66,0.42 0.22,0.11 0.48,0.16 0.78,0.16 0.32,0 0.56,-0.07 0.72,-0.22 0.16,-0.15 0.24,-0.33 0.24,-0.54 0,-0.13 -0.03,-0.24 -0.1,-0.33 -0.07,-0.09 -0.15,-0.18 -0.26,-0.25 -0.1,-0.07 -0.22,-0.13 -0.36,-0.19 -0.14,-0.06 -0.27,-0.11 -0.4,-0.16 -0.17,-0.06 -0.35,-0.13 -0.52,-0.21 -0.17,-0.08 -0.33,-0.17 -0.47,-0.28 -0.14,-0.11 -0.25,-0.24 -0.34,-0.39 -0.09,-0.15 -0.13,-0.32 -0.13,-0.53 0,-0.19 0.04,-0.38 0.12,-0.55 0.08,-0.17 0.19,-0.32 0.33,-0.44 0.14,-0.12 0.32,-0.22 0.53,-0.29 0.21,-0.07 0.44,-0.11 0.7,-0.11 0.31,0 0.59,0.05 0.85,0.16 0.26,0.11 0.48,0.24 0.67,0.39 l -0.39,0.52 c -0.17,-0.13 -0.34,-0.23 -0.52,-0.31 -0.18,-0.08 -0.38,-0.12 -0.59,-0.12 -0.31,0 -0.53,0.07 -0.68,0.21 -0.14,0.14 -0.22,0.3 -0.22,0.49 0,0.11 0.03,0.21 0.09,0.3 0.06,0.08 0.14,0.16 0.24,0.22 0.1,0.06 0.22,0.12 0.35,0.17 0.13,0.05 0.27,0.1 0.41,0.16 0.17,0.07 0.35,0.14 0.53,0.21 0.18,0.07 0.34,0.17 0.48,0.28 0.14,0.11 0.26,0.25 0.35,0.41 0.09,0.16 0.13,0.36 0.13,0.58 0,0.2 -0.04,0.39 -0.12,0.56 -0.08,0.17 -0.19,0.33 -0.34,0.46 -0.15,0.13 -0.34,0.24 -0.56,0.32 -0.23,0.08 -0.49,0.12 -0.78,0.12 z"
   id="path875" />
			<path
   d="m 453.84,295.12 c -0.32,0 -0.62,-0.06 -0.9,-0.17 -0.28,-0.11 -0.52,-0.28 -0.73,-0.5 -0.2,-0.22 -0.37,-0.49 -0.48,-0.8 -0.12,-0.32 -0.18,-0.68 -0.18,-1.08 0,-0.41 0.06,-0.77 0.19,-1.09 0.13,-0.32 0.3,-0.59 0.51,-0.81 0.21,-0.22 0.46,-0.39 0.75,-0.5 0.28,-0.11 0.58,-0.17 0.9,-0.17 0.32,0 0.59,0.06 0.82,0.17 0.23,0.11 0.43,0.25 0.6,0.4 l -0.42,0.54 c -0.14,-0.13 -0.29,-0.23 -0.45,-0.31 -0.16,-0.08 -0.33,-0.12 -0.53,-0.12 -0.22,0 -0.42,0.04 -0.61,0.14 -0.19,0.09 -0.35,0.22 -0.48,0.39 -0.13,0.17 -0.24,0.37 -0.32,0.6 -0.08,0.23 -0.12,0.49 -0.12,0.77 0,0.28 0.04,0.54 0.11,0.76 0.07,0.23 0.18,0.42 0.31,0.59 0.13,0.16 0.29,0.29 0.48,0.38 0.19,0.09 0.39,0.14 0.61,0.14 0.23,0 0.44,-0.05 0.63,-0.15 0.19,-0.1 0.36,-0.21 0.52,-0.35 l 0.36,0.55 c -0.22,0.19 -0.46,0.35 -0.73,0.46 -0.27,0.11 -0.55,0.16 -0.84,0.16 z"
   id="path877" />
			<path
   d="m 456.54,295 v -7.15 h 0.82 v 1.95 l -0.03,1 c 0.23,-0.22 0.48,-0.41 0.73,-0.57 0.25,-0.16 0.55,-0.24 0.89,-0.24 0.51,0 0.89,0.16 1.13,0.48 0.24,0.32 0.36,0.8 0.36,1.43 v 3.1 h -0.82 v -2.98 c 0,-0.46 -0.07,-0.79 -0.22,-1 -0.15,-0.2 -0.38,-0.31 -0.7,-0.31 -0.25,0 -0.48,0.06 -0.67,0.19 -0.19,0.13 -0.42,0.31 -0.66,0.56 V 295 Z"
   id="path879" />
			<path
   d="m 464.03,295.12 c -0.33,0 -0.63,-0.06 -0.92,-0.18 -0.29,-0.12 -0.53,-0.28 -0.74,-0.5 -0.21,-0.22 -0.38,-0.48 -0.5,-0.8 -0.12,-0.31 -0.18,-0.67 -0.18,-1.07 0,-0.4 0.06,-0.76 0.19,-1.08 0.12,-0.32 0.29,-0.59 0.49,-0.81 0.2,-0.22 0.44,-0.39 0.7,-0.51 0.26,-0.12 0.53,-0.18 0.81,-0.18 0.31,0 0.58,0.05 0.83,0.16 0.24,0.11 0.45,0.26 0.61,0.46 0.16,0.2 0.29,0.44 0.38,0.72 0.09,0.28 0.13,0.6 0.13,0.94 0,0.09 0,0.17 0,0.26 0,0.08 -0.01,0.16 -0.03,0.22 h -3.29 c 0.03,0.52 0.2,0.94 0.49,1.24 0.29,0.3 0.67,0.46 1.14,0.46 0.23,0 0.45,-0.04 0.65,-0.11 0.2,-0.07 0.39,-0.16 0.57,-0.28 l 0.29,0.54 c -0.21,0.13 -0.45,0.25 -0.71,0.35 -0.28,0.12 -0.58,0.17 -0.91,0.17 z m -1.54,-2.95 h 2.61 c 0,-0.5 -0.11,-0.87 -0.32,-1.13 -0.21,-0.26 -0.51,-0.39 -0.89,-0.39 -0.17,0 -0.34,0.03 -0.5,0.1 -0.16,0.07 -0.3,0.17 -0.43,0.3 -0.13,0.13 -0.23,0.29 -0.32,0.48 -0.07,0.18 -0.12,0.4 -0.15,0.64 z"
   id="path881" />
			<path
   d="m 467.08,295 v -4.88 h 0.68 l 0.07,0.88 h 0.03 c 0.17,-0.31 0.37,-0.55 0.61,-0.73 0.24,-0.18 0.5,-0.27 0.78,-0.27 0.19,0 0.37,0.03 0.52,0.1 l -0.16,0.72 c -0.08,-0.03 -0.15,-0.05 -0.22,-0.06 -0.07,-0.01 -0.15,-0.02 -0.25,-0.02 -0.21,0 -0.42,0.08 -0.65,0.25 -0.22,0.17 -0.42,0.46 -0.59,0.87 V 295 Z"
   id="path883" />
			<path
   d="m 471.88,295 2.23,-6.58 h 0.94 l 2.23,6.58 h -0.89 l -0.62,-2.01 h -2.4 l -0.63,2.01 z m 2,-3.69 -0.31,1 h 1.98 l -0.31,-1 c -0.12,-0.37 -0.23,-0.73 -0.34,-1.1 -0.11,-0.36 -0.21,-0.74 -0.32,-1.12 h -0.04 c -0.1,0.38 -0.2,0.75 -0.31,1.12 -0.11,0.37 -0.23,0.74 -0.35,1.1 z"
   id="path885" />
			<path
   d="m 479.54,295.12 c -0.52,0 -0.9,-0.16 -1.14,-0.48 -0.24,-0.32 -0.36,-0.8 -0.36,-1.42 v -3.09 h 0.83 v 2.98 c 0,0.46 0.07,0.79 0.22,1 0.14,0.21 0.38,0.31 0.7,0.31 0.25,0 0.48,-0.07 0.67,-0.2 0.19,-0.13 0.41,-0.34 0.64,-0.63 v -3.46 h 0.82 V 295 h -0.68 l -0.07,-0.76 h -0.03 c -0.23,0.27 -0.47,0.48 -0.72,0.64 -0.24,0.16 -0.54,0.24 -0.88,0.24 z"
   id="path887" />
			<path
   d="m 484.85,295.12 c -0.35,0 -0.68,-0.06 -0.99,-0.19 -0.31,-0.13 -0.59,-0.29 -0.82,-0.48 l 0.41,-0.55 c 0.21,0.17 0.43,0.31 0.66,0.42 0.22,0.11 0.48,0.16 0.78,0.16 0.32,0 0.56,-0.07 0.72,-0.22 0.16,-0.15 0.24,-0.33 0.24,-0.54 0,-0.13 -0.03,-0.24 -0.1,-0.33 -0.07,-0.09 -0.15,-0.18 -0.26,-0.25 -0.1,-0.07 -0.22,-0.13 -0.36,-0.19 -0.14,-0.06 -0.27,-0.11 -0.4,-0.16 -0.17,-0.06 -0.35,-0.13 -0.52,-0.21 -0.17,-0.08 -0.33,-0.17 -0.47,-0.28 -0.14,-0.11 -0.25,-0.24 -0.34,-0.39 -0.09,-0.15 -0.13,-0.32 -0.13,-0.53 0,-0.19 0.04,-0.38 0.12,-0.55 0.08,-0.17 0.19,-0.32 0.33,-0.44 0.14,-0.12 0.32,-0.22 0.53,-0.29 0.21,-0.07 0.44,-0.11 0.7,-0.11 0.31,0 0.59,0.05 0.85,0.16 0.26,0.11 0.48,0.24 0.67,0.39 l -0.39,0.52 c -0.17,-0.13 -0.34,-0.23 -0.52,-0.31 -0.18,-0.08 -0.38,-0.12 -0.59,-0.12 -0.31,0 -0.53,0.07 -0.68,0.21 -0.14,0.14 -0.22,0.3 -0.22,0.49 0,0.11 0.03,0.21 0.09,0.3 0.06,0.08 0.14,0.16 0.24,0.22 0.1,0.06 0.22,0.12 0.35,0.17 0.13,0.05 0.27,0.1 0.41,0.16 0.17,0.07 0.35,0.14 0.53,0.21 0.18,0.07 0.34,0.17 0.48,0.28 0.14,0.11 0.26,0.25 0.35,0.41 0.09,0.16 0.13,0.36 0.13,0.58 0,0.2 -0.04,0.39 -0.12,0.56 -0.08,0.17 -0.19,0.33 -0.34,0.46 -0.15,0.13 -0.34,0.24 -0.56,0.32 -0.23,0.08 -0.49,0.12 -0.78,0.12 z"
   id="path889" />
			<path
   d="m 489.42,295.12 c -0.26,0 -0.48,-0.04 -0.66,-0.12 -0.18,-0.08 -0.32,-0.19 -0.43,-0.33 -0.11,-0.14 -0.19,-0.31 -0.24,-0.51 -0.05,-0.2 -0.07,-0.42 -0.07,-0.66 v -2.7 h -0.72 v -0.62 l 0.76,-0.05 0.1,-1.37 h 0.69 v 1.37 h 1.31 v 0.67 h -1.31 v 2.71 c 0,0.3 0.05,0.53 0.17,0.7 0.12,0.17 0.31,0.25 0.59,0.25 0.09,0 0.18,-0.01 0.28,-0.04 0.1,-0.03 0.19,-0.06 0.27,-0.09 l 0.16,0.62 c -0.13,0.05 -0.28,0.09 -0.44,0.12 -0.16,0.03 -0.31,0.05 -0.46,0.05 z"
   id="path891" />
			<path
   d="m 492.49,295.12 c -0.41,0 -0.75,-0.12 -1.02,-0.36 -0.27,-0.24 -0.41,-0.58 -0.41,-1.02 0,-0.54 0.24,-0.94 0.71,-1.23 0.48,-0.28 1.23,-0.48 2.28,-0.6 0,-0.15 -0.01,-0.3 -0.04,-0.45 -0.03,-0.15 -0.08,-0.28 -0.16,-0.39 -0.07,-0.11 -0.17,-0.21 -0.31,-0.28 -0.14,-0.07 -0.3,-0.11 -0.5,-0.11 -0.28,0 -0.54,0.05 -0.79,0.16 -0.25,0.11 -0.47,0.23 -0.66,0.36 l -0.32,-0.57 c 0.23,-0.15 0.5,-0.29 0.83,-0.43 0.33,-0.14 0.69,-0.21 1.08,-0.21 0.6,0 1.03,0.18 1.29,0.55 0.27,0.37 0.4,0.85 0.4,1.46 v 3 h -0.68 l -0.07,-0.58 h -0.03 c -0.23,0.19 -0.48,0.36 -0.75,0.5 -0.27,0.14 -0.54,0.2 -0.85,0.2 z m 0.24,-0.67 c 0.23,0 0.46,-0.05 0.66,-0.17 0.21,-0.11 0.43,-0.27 0.66,-0.49 v -1.35 c -0.41,0.05 -0.75,0.12 -1.03,0.19 -0.28,0.07 -0.5,0.16 -0.67,0.26 -0.17,0.1 -0.29,0.22 -0.37,0.35 -0.08,0.13 -0.12,0.27 -0.12,0.43 0,0.28 0.08,0.48 0.25,0.6 0.18,0.12 0.38,0.18 0.62,0.18 z"
   id="path893" />
			<path
   d="m 497.85,295.12 c -0.52,0 -0.9,-0.16 -1.14,-0.48 -0.24,-0.32 -0.36,-0.8 -0.36,-1.42 v -3.09 h 0.83 v 2.98 c 0,0.46 0.07,0.79 0.22,1 0.14,0.21 0.38,0.31 0.7,0.31 0.25,0 0.48,-0.07 0.67,-0.2 0.19,-0.13 0.41,-0.34 0.64,-0.63 v -3.46 h 0.82 V 295 h -0.68 l -0.07,-0.76 h -0.03 c -0.23,0.27 -0.47,0.48 -0.72,0.64 -0.24,0.16 -0.54,0.24 -0.88,0.24 z"
   id="path895" />
			<path
   d="m 503.21,295.12 c -0.35,0 -0.68,-0.06 -0.99,-0.19 -0.31,-0.13 -0.59,-0.29 -0.82,-0.48 l 0.41,-0.55 c 0.21,0.17 0.43,0.31 0.66,0.42 0.22,0.11 0.48,0.16 0.78,0.16 0.32,0 0.56,-0.07 0.72,-0.22 0.16,-0.15 0.24,-0.33 0.24,-0.54 0,-0.13 -0.03,-0.24 -0.1,-0.33 -0.07,-0.09 -0.15,-0.18 -0.26,-0.25 -0.1,-0.07 -0.22,-0.13 -0.36,-0.19 -0.14,-0.06 -0.27,-0.11 -0.4,-0.16 -0.17,-0.06 -0.35,-0.13 -0.52,-0.21 -0.17,-0.08 -0.33,-0.17 -0.47,-0.28 -0.14,-0.11 -0.25,-0.24 -0.34,-0.39 -0.09,-0.15 -0.13,-0.32 -0.13,-0.53 0,-0.19 0.04,-0.38 0.12,-0.55 0.08,-0.17 0.19,-0.32 0.33,-0.44 0.14,-0.12 0.32,-0.22 0.53,-0.29 0.21,-0.07 0.44,-0.11 0.7,-0.11 0.31,0 0.59,0.05 0.85,0.16 0.26,0.11 0.48,0.24 0.67,0.39 l -0.39,0.52 c -0.17,-0.13 -0.34,-0.23 -0.52,-0.31 -0.18,-0.08 -0.38,-0.12 -0.59,-0.12 -0.31,0 -0.53,0.07 -0.68,0.21 -0.14,0.14 -0.22,0.3 -0.22,0.49 0,0.11 0.03,0.21 0.09,0.3 0.06,0.08 0.14,0.16 0.24,0.22 0.1,0.06 0.22,0.12 0.35,0.17 0.13,0.05 0.27,0.1 0.41,0.16 0.17,0.07 0.35,0.14 0.53,0.21 0.18,0.07 0.34,0.17 0.48,0.28 0.14,0.11 0.26,0.25 0.35,0.41 0.09,0.16 0.13,0.36 0.13,0.58 0,0.2 -0.04,0.39 -0.12,0.56 -0.08,0.17 -0.19,0.33 -0.34,0.46 -0.15,0.13 -0.34,0.24 -0.56,0.32 -0.24,0.08 -0.49,0.12 -0.78,0.12 z"
   id="path897" />
			<path
   d="m 508.17,295.12 c -0.32,0 -0.62,-0.06 -0.9,-0.17 -0.28,-0.11 -0.52,-0.28 -0.73,-0.5 -0.2,-0.22 -0.37,-0.49 -0.48,-0.8 -0.12,-0.32 -0.18,-0.68 -0.18,-1.08 0,-0.41 0.06,-0.77 0.19,-1.09 0.13,-0.32 0.3,-0.59 0.51,-0.81 0.21,-0.22 0.46,-0.39 0.75,-0.5 0.28,-0.11 0.58,-0.17 0.9,-0.17 0.32,0 0.59,0.06 0.82,0.17 0.23,0.11 0.43,0.25 0.6,0.4 l -0.42,0.54 c -0.14,-0.13 -0.29,-0.23 -0.45,-0.31 -0.16,-0.08 -0.33,-0.12 -0.53,-0.12 -0.22,0 -0.42,0.04 -0.61,0.14 -0.19,0.09 -0.35,0.22 -0.48,0.39 -0.13,0.17 -0.24,0.37 -0.32,0.6 -0.08,0.23 -0.12,0.49 -0.12,0.77 0,0.28 0.04,0.54 0.11,0.76 0.07,0.23 0.18,0.42 0.31,0.59 0.13,0.16 0.29,0.29 0.48,0.38 0.19,0.09 0.39,0.14 0.61,0.14 0.23,0 0.44,-0.05 0.63,-0.15 0.19,-0.1 0.36,-0.21 0.52,-0.35 l 0.36,0.55 c -0.22,0.19 -0.46,0.35 -0.73,0.46 -0.27,0.11 -0.55,0.16 -0.84,0.16 z"
   id="path899" />
			<path
   d="m 510.87,295 v -7.15 h 0.82 v 1.95 l -0.03,1 c 0.23,-0.22 0.48,-0.41 0.73,-0.57 0.25,-0.16 0.55,-0.24 0.89,-0.24 0.51,0 0.89,0.16 1.13,0.48 0.24,0.32 0.36,0.8 0.36,1.43 v 3.1 h -0.82 v -2.98 c 0,-0.46 -0.07,-0.79 -0.22,-1 -0.15,-0.2 -0.38,-0.31 -0.7,-0.31 -0.25,0 -0.48,0.06 -0.67,0.19 -0.19,0.13 -0.42,0.31 -0.66,0.56 V 295 Z"
   id="path901" />
			<path
   d="m 517.99,295.12 c -0.62,0 -1.11,-0.22 -1.47,-0.66 -0.36,-0.44 -0.55,-1.07 -0.55,-1.89 0,-0.39 0.06,-0.75 0.18,-1.07 0.12,-0.32 0.27,-0.59 0.47,-0.81 0.19,-0.22 0.42,-0.39 0.67,-0.51 0.25,-0.12 0.52,-0.18 0.8,-0.18 0.28,0 0.52,0.05 0.73,0.15 0.21,0.1 0.42,0.24 0.63,0.41 l -0.04,-0.83 v -1.88 h 0.83 V 295 h -0.68 l -0.07,-0.57 h -0.03 c -0.19,0.19 -0.42,0.35 -0.67,0.49 -0.25,0.14 -0.51,0.2 -0.8,0.2 z m 0.18,-0.7 c 0.23,0 0.44,-0.05 0.64,-0.17 0.2,-0.11 0.4,-0.28 0.6,-0.51 v -2.55 c -0.21,-0.19 -0.41,-0.32 -0.6,-0.4 -0.19,-0.08 -0.39,-0.12 -0.59,-0.12 -0.19,0 -0.38,0.05 -0.55,0.14 -0.17,0.09 -0.32,0.22 -0.45,0.38 -0.13,0.16 -0.23,0.36 -0.3,0.59 -0.07,0.23 -0.11,0.48 -0.11,0.76 0,0.59 0.12,1.05 0.35,1.38 0.23,0.33 0.58,0.5 1.01,0.5 z"
   id="path903" />
			<path
   d="m 522.37,289.12 c -0.16,0 -0.3,-0.05 -0.41,-0.15 -0.11,-0.1 -0.17,-0.23 -0.17,-0.38 0,-0.16 0.05,-0.29 0.17,-0.39 0.11,-0.1 0.25,-0.15 0.41,-0.15 0.16,0 0.3,0.05 0.41,0.15 0.11,0.1 0.17,0.23 0.17,0.39 0,0.15 -0.05,0.28 -0.17,0.38 -0.12,0.09 -0.25,0.15 -0.41,0.15 z m -0.42,5.88 v -4.88 h 0.82 V 295 Z"
   id="path905" />
			<path
   d="m 526.44,295.12 c -0.33,0 -0.63,-0.06 -0.92,-0.18 -0.29,-0.12 -0.53,-0.28 -0.74,-0.5 -0.21,-0.22 -0.38,-0.48 -0.5,-0.8 -0.12,-0.31 -0.18,-0.67 -0.18,-1.07 0,-0.4 0.06,-0.76 0.19,-1.08 0.12,-0.32 0.29,-0.59 0.49,-0.81 0.2,-0.22 0.44,-0.39 0.7,-0.51 0.26,-0.12 0.53,-0.18 0.81,-0.18 0.31,0 0.58,0.05 0.83,0.16 0.24,0.11 0.45,0.26 0.61,0.46 0.16,0.2 0.29,0.44 0.38,0.72 0.09,0.28 0.13,0.6 0.13,0.94 0,0.09 0,0.17 0,0.26 0,0.08 -0.01,0.16 -0.03,0.22 h -3.29 c 0.03,0.52 0.2,0.94 0.49,1.24 0.29,0.3 0.67,0.46 1.14,0.46 0.23,0 0.45,-0.04 0.65,-0.11 0.2,-0.07 0.39,-0.16 0.57,-0.28 l 0.29,0.54 c -0.21,0.13 -0.45,0.25 -0.71,0.35 -0.28,0.12 -0.57,0.17 -0.91,0.17 z m -1.53,-2.95 h 2.61 c 0,-0.5 -0.11,-0.87 -0.32,-1.13 -0.21,-0.26 -0.51,-0.39 -0.89,-0.39 -0.17,0 -0.34,0.03 -0.5,0.1 -0.16,0.07 -0.3,0.17 -0.43,0.3 -0.13,0.13 -0.23,0.29 -0.32,0.48 -0.07,0.18 -0.13,0.4 -0.15,0.64 z"
   id="path907" />
			<path
   d="m 529.49,295 v -4.88 h 0.68 l 0.07,0.7 h 0.03 c 0.23,-0.23 0.48,-0.43 0.74,-0.59 0.26,-0.16 0.56,-0.24 0.9,-0.24 0.51,0 0.89,0.16 1.13,0.48 0.24,0.32 0.36,0.8 0.36,1.43 v 3.1 h -0.82 v -2.98 c 0,-0.46 -0.07,-0.79 -0.22,-1 -0.15,-0.2 -0.38,-0.31 -0.7,-0.31 -0.25,0 -0.48,0.06 -0.67,0.19 -0.19,0.13 -0.42,0.31 -0.66,0.56 V 295 Z"
   id="path909" />
			<path
   d="m 536.21,295.12 c -0.35,0 -0.68,-0.06 -0.99,-0.19 -0.31,-0.13 -0.59,-0.29 -0.82,-0.48 l 0.41,-0.55 c 0.21,0.17 0.43,0.31 0.66,0.42 0.22,0.11 0.48,0.16 0.78,0.16 0.32,0 0.56,-0.07 0.72,-0.22 0.16,-0.15 0.24,-0.33 0.24,-0.54 0,-0.13 -0.03,-0.24 -0.1,-0.33 -0.07,-0.09 -0.15,-0.18 -0.26,-0.25 -0.1,-0.07 -0.22,-0.13 -0.36,-0.19 -0.14,-0.06 -0.27,-0.11 -0.4,-0.16 -0.17,-0.06 -0.35,-0.13 -0.52,-0.21 -0.17,-0.08 -0.33,-0.17 -0.47,-0.28 -0.14,-0.11 -0.25,-0.24 -0.34,-0.39 -0.09,-0.15 -0.13,-0.32 -0.13,-0.53 0,-0.19 0.04,-0.38 0.12,-0.55 0.08,-0.17 0.19,-0.32 0.33,-0.44 0.14,-0.12 0.32,-0.22 0.53,-0.29 0.21,-0.07 0.44,-0.11 0.7,-0.11 0.31,0 0.59,0.05 0.85,0.16 0.26,0.11 0.48,0.24 0.67,0.39 l -0.39,0.52 c -0.17,-0.13 -0.34,-0.23 -0.52,-0.31 -0.18,-0.08 -0.38,-0.12 -0.59,-0.12 -0.31,0 -0.53,0.07 -0.68,0.21 -0.14,0.14 -0.22,0.3 -0.22,0.49 0,0.11 0.03,0.21 0.09,0.3 0.06,0.08 0.14,0.16 0.24,0.22 0.1,0.06 0.22,0.12 0.35,0.17 0.13,0.05 0.27,0.1 0.41,0.16 0.17,0.07 0.35,0.14 0.53,0.21 0.18,0.07 0.34,0.17 0.48,0.28 0.14,0.11 0.26,0.25 0.35,0.41 0.09,0.16 0.13,0.36 0.13,0.58 0,0.2 -0.04,0.39 -0.12,0.56 -0.08,0.17 -0.19,0.33 -0.34,0.46 -0.15,0.13 -0.34,0.24 -0.56,0.32 -0.24,0.08 -0.5,0.12 -0.78,0.12 z"
   id="path911" />
			<path
   d="m 540.77,295.12 c -0.26,0 -0.48,-0.04 -0.66,-0.12 -0.18,-0.08 -0.32,-0.19 -0.43,-0.33 -0.11,-0.14 -0.19,-0.31 -0.24,-0.51 -0.05,-0.2 -0.07,-0.42 -0.07,-0.66 v -2.7 h -0.72 v -0.62 l 0.76,-0.05 0.1,-1.37 h 0.69 v 1.37 h 1.31 v 0.67 h -1.31 v 2.71 c 0,0.3 0.05,0.53 0.17,0.7 0.12,0.17 0.31,0.25 0.59,0.25 0.09,0 0.18,-0.01 0.28,-0.04 0.1,-0.03 0.19,-0.06 0.27,-0.09 l 0.16,0.62 c -0.13,0.05 -0.28,0.09 -0.44,0.12 -0.16,0.03 -0.3,0.05 -0.46,0.05 z"
   id="path913" />
			<path
   d="m 367.64,307.07 c -0.44,0 -0.83,-0.08 -1.2,-0.23 -0.36,-0.15 -0.68,-0.38 -0.94,-0.67 -0.26,-0.29 -0.47,-0.65 -0.61,-1.07 -0.15,-0.42 -0.22,-0.91 -0.22,-1.44 0,-0.53 0.08,-1 0.23,-1.43 0.15,-0.42 0.36,-0.78 0.63,-1.07 0.27,-0.29 0.59,-0.52 0.96,-0.68 0.37,-0.16 0.77,-0.24 1.21,-0.24 0.23,0 0.44,0.02 0.63,0.07 0.19,0.05 0.36,0.11 0.52,0.19 0.16,0.08 0.3,0.16 0.42,0.26 0.12,0.1 0.23,0.2 0.33,0.3 l -0.46,0.54 c -0.17,-0.17 -0.36,-0.32 -0.58,-0.44 -0.22,-0.12 -0.5,-0.18 -0.83,-0.18 -0.33,0 -0.64,0.06 -0.9,0.19 -0.26,0.13 -0.5,0.3 -0.68,0.53 -0.19,0.23 -0.33,0.51 -0.44,0.84 -0.11,0.33 -0.16,0.7 -0.16,1.1 0,0.42 0.05,0.79 0.15,1.12 0.1,0.33 0.24,0.61 0.42,0.85 0.18,0.24 0.41,0.41 0.68,0.54 0.27,0.13 0.58,0.19 0.94,0.19 0.23,0 0.46,-0.04 0.67,-0.11 0.21,-0.07 0.38,-0.17 0.52,-0.29 v -1.72 h -1.4 v -0.69 h 2.16 v 2.77 c -0.21,0.22 -0.5,0.4 -0.84,0.55 -0.37,0.15 -0.77,0.22 -1.21,0.22 z"
   id="path915" />
			<path
   d="m 373.19,307.07 c -0.33,0 -0.63,-0.06 -0.92,-0.18 -0.28,-0.12 -0.53,-0.28 -0.74,-0.5 -0.21,-0.22 -0.38,-0.48 -0.5,-0.8 -0.12,-0.31 -0.18,-0.67 -0.18,-1.07 0,-0.4 0.06,-0.76 0.19,-1.08 0.12,-0.32 0.29,-0.59 0.49,-0.81 0.2,-0.22 0.44,-0.39 0.7,-0.51 0.26,-0.12 0.53,-0.18 0.81,-0.18 0.31,0 0.58,0.05 0.83,0.16 0.24,0.11 0.45,0.26 0.61,0.46 0.16,0.2 0.29,0.44 0.38,0.72 0.09,0.28 0.13,0.6 0.13,0.94 0,0.09 0,0.17 0,0.26 0,0.08 -0.01,0.16 -0.03,0.22 h -3.29 c 0.03,0.52 0.2,0.93 0.49,1.24 0.29,0.31 0.67,0.46 1.14,0.46 0.23,0 0.45,-0.04 0.65,-0.11 0.2,-0.07 0.39,-0.16 0.57,-0.28 l 0.29,0.54 c -0.21,0.13 -0.45,0.25 -0.71,0.35 -0.26,0.1 -0.58,0.17 -0.91,0.17 z m -1.54,-2.95 h 2.61 c 0,-0.5 -0.11,-0.87 -0.32,-1.13 -0.21,-0.26 -0.51,-0.39 -0.89,-0.39 -0.17,0 -0.34,0.03 -0.5,0.1 -0.16,0.07 -0.3,0.17 -0.43,0.3 -0.13,0.13 -0.23,0.29 -0.32,0.48 -0.09,0.19 -0.12,0.4 -0.15,0.64 z"
   id="path917" />
			<path
   d="m 376.24,306.95 v -4.88 h 0.68 l 0.07,0.88 h 0.03 c 0.17,-0.31 0.37,-0.55 0.61,-0.73 0.24,-0.18 0.5,-0.27 0.78,-0.27 0.19,0 0.37,0.03 0.52,0.1 l -0.16,0.72 c -0.08,-0.03 -0.15,-0.05 -0.22,-0.06 -0.07,-0.01 -0.15,-0.02 -0.25,-0.02 -0.21,0 -0.42,0.08 -0.65,0.25 -0.23,0.17 -0.42,0.46 -0.59,0.87 v 3.13 h -0.82 z"
   id="path919" />
			<path
   d="m 379.82,306.95 v -4.88 h 0.68 l 0.07,0.7 h 0.03 c 0.21,-0.23 0.45,-0.43 0.7,-0.59 0.25,-0.16 0.52,-0.24 0.82,-0.24 0.38,0 0.67,0.08 0.88,0.25 0.21,0.16 0.37,0.39 0.47,0.69 0.25,-0.28 0.51,-0.51 0.77,-0.68 0.26,-0.17 0.54,-0.26 0.84,-0.26 0.5,0 0.88,0.16 1.12,0.48 0.24,0.32 0.37,0.8 0.37,1.42 v 3.09 h -0.82 v -2.98 c 0,-0.46 -0.07,-0.79 -0.22,-1 -0.15,-0.2 -0.38,-0.31 -0.68,-0.31 -0.37,0 -0.78,0.25 -1.22,0.75 v 3.53 h -0.82 v -2.98 c 0,-0.46 -0.07,-0.79 -0.22,-1 -0.15,-0.2 -0.38,-0.31 -0.69,-0.31 -0.37,0 -0.78,0.25 -1.22,0.75 v 3.53 h -0.86 z"
   id="path921" />
			<path
   d="m 389.32,307.07 c -0.41,0 -0.75,-0.12 -1.02,-0.36 -0.27,-0.24 -0.41,-0.58 -0.41,-1.02 0,-0.54 0.24,-0.95 0.71,-1.23 0.47,-0.28 1.23,-0.48 2.28,-0.6 0,-0.15 -0.02,-0.3 -0.04,-0.45 -0.03,-0.15 -0.08,-0.28 -0.16,-0.39 -0.07,-0.11 -0.18,-0.21 -0.31,-0.28 -0.13,-0.07 -0.3,-0.1 -0.5,-0.1 -0.28,0 -0.55,0.05 -0.79,0.16 -0.24,0.11 -0.47,0.23 -0.66,0.36 l -0.32,-0.57 c 0.23,-0.15 0.51,-0.29 0.83,-0.43 0.33,-0.14 0.69,-0.21 1.08,-0.21 0.6,0 1.03,0.18 1.29,0.55 0.27,0.36 0.4,0.85 0.4,1.46 v 2.99 h -0.68 l -0.07,-0.58 h -0.03 c -0.23,0.19 -0.49,0.36 -0.75,0.5 -0.26,0.14 -0.54,0.2 -0.85,0.2 z m 0.24,-0.66 c 0.23,0 0.46,-0.06 0.66,-0.17 0.21,-0.11 0.43,-0.27 0.66,-0.49 v -1.36 c -0.41,0.05 -0.75,0.12 -1.03,0.19 -0.28,0.07 -0.5,0.16 -0.67,0.26 -0.17,0.1 -0.29,0.22 -0.37,0.35 -0.08,0.13 -0.12,0.27 -0.12,0.43 0,0.28 0.08,0.48 0.25,0.6 0.17,0.13 0.38,0.19 0.62,0.19 z"
   id="path923" />
			<path
   d="m 393.3,306.95 v -4.88 h 0.68 l 0.07,0.7 h 0.03 c 0.23,-0.23 0.48,-0.43 0.74,-0.59 0.26,-0.16 0.56,-0.24 0.9,-0.24 0.52,0 0.89,0.16 1.13,0.48 0.24,0.32 0.36,0.8 0.36,1.42 v 3.09 h -0.82 v -2.98 c 0,-0.46 -0.07,-0.79 -0.22,-1 -0.15,-0.2 -0.38,-0.31 -0.7,-0.31 -0.25,0 -0.48,0.06 -0.67,0.19 -0.19,0.13 -0.42,0.31 -0.66,0.56 v 3.53 h -0.84 z"
   id="path925" />
			<path
   d="m 400.11,306.95 2.23,-6.58 h 0.94 l 2.23,6.58 h -0.89 L 404,304.94 h -2.4 l -0.63,2.01 z m 2,-3.68 -0.31,1 h 1.98 l -0.31,-1 c -0.12,-0.37 -0.23,-0.73 -0.34,-1.1 -0.11,-0.37 -0.21,-0.74 -0.32,-1.12 h -0.04 c -0.1,0.38 -0.2,0.75 -0.31,1.12 -0.11,0.37 -0.23,0.73 -0.35,1.1 z"
   id="path927" />
			<path
   d="m 408.34,307.07 c -0.32,0 -0.62,-0.06 -0.9,-0.17 -0.28,-0.11 -0.52,-0.28 -0.73,-0.5 -0.2,-0.22 -0.36,-0.49 -0.48,-0.8 -0.12,-0.32 -0.18,-0.68 -0.18,-1.08 0,-0.41 0.06,-0.77 0.19,-1.09 0.13,-0.32 0.3,-0.59 0.51,-0.81 0.21,-0.22 0.46,-0.39 0.75,-0.5 0.28,-0.11 0.58,-0.17 0.9,-0.17 0.32,0 0.6,0.06 0.82,0.17 0.23,0.11 0.43,0.25 0.6,0.4 l -0.42,0.54 c -0.14,-0.13 -0.29,-0.23 -0.45,-0.31 -0.16,-0.08 -0.33,-0.12 -0.53,-0.12 -0.22,0 -0.42,0.04 -0.61,0.13 -0.19,0.09 -0.35,0.22 -0.48,0.39 -0.13,0.17 -0.24,0.37 -0.32,0.6 -0.08,0.23 -0.12,0.49 -0.12,0.77 0,0.28 0.04,0.54 0.11,0.76 0.07,0.23 0.18,0.42 0.31,0.59 0.13,0.16 0.29,0.29 0.48,0.38 0.19,0.09 0.39,0.14 0.61,0.14 0.23,0 0.44,-0.05 0.63,-0.15 0.19,-0.1 0.36,-0.21 0.52,-0.35 l 0.36,0.55 c -0.22,0.19 -0.47,0.35 -0.73,0.46 -0.27,0.12 -0.55,0.17 -0.84,0.17 z"
   id="path929" />
			<path
   d="m 412.16,307.07 c -0.41,0 -0.75,-0.12 -1.02,-0.36 -0.27,-0.24 -0.41,-0.58 -0.41,-1.02 0,-0.54 0.24,-0.95 0.71,-1.23 0.47,-0.28 1.23,-0.48 2.28,-0.6 0,-0.15 -0.02,-0.3 -0.04,-0.45 -0.03,-0.15 -0.08,-0.28 -0.16,-0.39 -0.07,-0.11 -0.18,-0.21 -0.31,-0.28 -0.13,-0.07 -0.3,-0.1 -0.5,-0.1 -0.28,0 -0.55,0.05 -0.79,0.16 -0.24,0.11 -0.47,0.23 -0.66,0.36 l -0.32,-0.57 c 0.23,-0.15 0.51,-0.29 0.83,-0.43 0.33,-0.14 0.69,-0.21 1.08,-0.21 0.6,0 1.03,0.18 1.29,0.55 0.27,0.36 0.4,0.85 0.4,1.46 v 2.99 h -0.68 l -0.07,-0.58 h -0.03 c -0.23,0.19 -0.49,0.36 -0.75,0.5 -0.25,0.14 -0.54,0.2 -0.85,0.2 z m 0.24,-0.66 c 0.23,0 0.46,-0.06 0.66,-0.17 0.21,-0.11 0.43,-0.27 0.66,-0.49 v -1.36 c -0.41,0.05 -0.75,0.12 -1.03,0.19 -0.28,0.07 -0.5,0.16 -0.67,0.26 -0.17,0.1 -0.29,0.22 -0.37,0.35 -0.08,0.13 -0.12,0.27 -0.12,0.43 0,0.28 0.08,0.48 0.25,0.6 0.18,0.13 0.38,0.19 0.62,0.19 z"
   id="path931" />
			<path
   d="m 417.81,307.07 c -0.62,0 -1.11,-0.22 -1.47,-0.66 -0.36,-0.44 -0.55,-1.07 -0.55,-1.89 0,-0.4 0.06,-0.75 0.18,-1.07 0.12,-0.32 0.27,-0.59 0.47,-0.81 0.19,-0.22 0.42,-0.39 0.67,-0.51 0.25,-0.12 0.52,-0.18 0.8,-0.18 0.28,0 0.53,0.05 0.73,0.15 0.21,0.1 0.42,0.24 0.63,0.41 l -0.04,-0.83 v -1.88 h 0.83 v 7.15 h -0.68 l -0.07,-0.57 h -0.03 c -0.19,0.19 -0.42,0.35 -0.67,0.49 -0.24,0.14 -0.51,0.2 -0.8,0.2 z m 0.18,-0.69 c 0.23,0 0.44,-0.06 0.64,-0.17 0.2,-0.11 0.4,-0.28 0.6,-0.51 v -2.55 c -0.21,-0.19 -0.41,-0.32 -0.6,-0.4 -0.19,-0.08 -0.39,-0.12 -0.59,-0.12 -0.19,0 -0.38,0.04 -0.55,0.14 -0.17,0.09 -0.32,0.22 -0.45,0.38 -0.13,0.16 -0.23,0.36 -0.3,0.59 -0.07,0.23 -0.11,0.48 -0.11,0.76 0,0.59 0.12,1.05 0.35,1.38 0.25,0.34 0.58,0.5 1.01,0.5 z"
   id="path933" />
			<path
   d="m 423.74,307.07 c -0.33,0 -0.63,-0.06 -0.92,-0.18 -0.28,-0.12 -0.53,-0.28 -0.74,-0.5 -0.21,-0.22 -0.38,-0.48 -0.5,-0.8 -0.12,-0.31 -0.18,-0.67 -0.18,-1.07 0,-0.4 0.06,-0.76 0.19,-1.08 0.12,-0.32 0.29,-0.59 0.49,-0.81 0.2,-0.22 0.44,-0.39 0.7,-0.51 0.26,-0.12 0.53,-0.18 0.81,-0.18 0.31,0 0.58,0.05 0.83,0.16 0.24,0.11 0.45,0.26 0.61,0.46 0.16,0.2 0.29,0.44 0.38,0.72 0.09,0.28 0.13,0.6 0.13,0.94 0,0.09 0,0.17 0,0.26 0,0.08 -0.01,0.16 -0.03,0.22 h -3.29 c 0.03,0.52 0.2,0.93 0.49,1.24 0.29,0.31 0.67,0.46 1.14,0.46 0.23,0 0.45,-0.04 0.65,-0.11 0.2,-0.07 0.39,-0.16 0.57,-0.28 l 0.29,0.54 c -0.21,0.13 -0.45,0.25 -0.71,0.35 -0.26,0.1 -0.57,0.17 -0.91,0.17 z m -1.53,-2.95 h 2.61 c 0,-0.5 -0.11,-0.87 -0.32,-1.13 -0.21,-0.26 -0.51,-0.39 -0.89,-0.39 -0.17,0 -0.34,0.03 -0.5,0.1 -0.16,0.07 -0.3,0.17 -0.43,0.3 -0.13,0.13 -0.23,0.29 -0.32,0.48 -0.09,0.19 -0.13,0.4 -0.15,0.64 z"
   id="path935" />
			<path
   d="m 426.79,306.95 v -4.88 h 0.68 l 0.07,0.7 h 0.03 c 0.21,-0.23 0.45,-0.43 0.7,-0.59 0.25,-0.16 0.52,-0.24 0.82,-0.24 0.38,0 0.67,0.08 0.88,0.25 0.21,0.16 0.37,0.39 0.47,0.69 0.25,-0.28 0.51,-0.51 0.77,-0.68 0.26,-0.17 0.54,-0.26 0.84,-0.26 0.5,0 0.88,0.16 1.12,0.48 0.24,0.32 0.37,0.8 0.37,1.42 v 3.09 h -0.82 v -2.98 c 0,-0.46 -0.07,-0.79 -0.22,-1 -0.15,-0.2 -0.38,-0.31 -0.68,-0.31 -0.37,0 -0.78,0.25 -1.22,0.75 v 3.53 h -0.82 v -2.98 c 0,-0.46 -0.07,-0.79 -0.22,-1 -0.15,-0.2 -0.38,-0.31 -0.69,-0.31 -0.37,0 -0.78,0.25 -1.22,0.75 v 3.53 h -0.86 z"
   id="path937" />
			<path
   d="m 435.58,301.07 c -0.16,0 -0.3,-0.05 -0.41,-0.15 -0.11,-0.1 -0.17,-0.23 -0.17,-0.38 0,-0.16 0.06,-0.29 0.17,-0.39 0.11,-0.1 0.25,-0.15 0.41,-0.15 0.16,0 0.3,0.05 0.41,0.15 0.11,0.1 0.17,0.23 0.17,0.39 0,0.15 -0.06,0.28 -0.17,0.38 -0.11,0.1 -0.24,0.15 -0.41,0.15 z m -0.42,5.88 v -4.88 h 0.82 v 4.88 z"
   id="path939" />
			<path
   d="m 439.61,307.07 c -0.32,0 -0.62,-0.06 -0.9,-0.17 -0.28,-0.11 -0.52,-0.28 -0.73,-0.5 -0.2,-0.22 -0.36,-0.49 -0.48,-0.8 -0.12,-0.32 -0.18,-0.68 -0.18,-1.08 0,-0.41 0.06,-0.77 0.19,-1.09 0.13,-0.32 0.3,-0.59 0.51,-0.81 0.21,-0.22 0.46,-0.39 0.75,-0.5 0.28,-0.11 0.58,-0.17 0.9,-0.17 0.32,0 0.6,0.06 0.82,0.17 0.23,0.11 0.43,0.25 0.6,0.4 l -0.42,0.54 c -0.14,-0.13 -0.29,-0.23 -0.45,-0.31 -0.16,-0.08 -0.33,-0.12 -0.53,-0.12 -0.22,0 -0.42,0.04 -0.61,0.13 -0.19,0.09 -0.35,0.22 -0.48,0.39 -0.13,0.17 -0.24,0.37 -0.32,0.6 -0.08,0.23 -0.12,0.49 -0.12,0.77 0,0.28 0.04,0.54 0.11,0.76 0.07,0.23 0.18,0.42 0.31,0.59 0.13,0.16 0.29,0.29 0.48,0.38 0.19,0.09 0.39,0.14 0.61,0.14 0.23,0 0.44,-0.05 0.63,-0.15 0.19,-0.1 0.36,-0.21 0.52,-0.35 l 0.36,0.55 c -0.22,0.19 -0.46,0.35 -0.73,0.46 -0.27,0.12 -0.55,0.17 -0.84,0.17 z"
   id="path941" />
			<path
   d="m 444.45,306.95 v -6.58 h 3.79 v 0.7 h -2.96 v 2.07 h 2.5 v 0.71 h -2.5 v 2.39 h 3.06 v 0.71 z"
   id="path943" />
			<path
   d="m 449.01,306.95 1.6,-2.55 -1.48,-2.33 h 0.89 l 0.65,1.07 c 0.07,0.13 0.15,0.27 0.23,0.41 0.08,0.14 0.16,0.27 0.25,0.41 h 0.04 c 0.07,-0.13 0.15,-0.27 0.22,-0.41 0.07,-0.14 0.15,-0.27 0.22,-0.41 l 0.59,-1.07 h 0.86 l -1.48,2.42 1.59,2.46 h -0.89 l -0.71,-1.13 c -0.09,-0.15 -0.17,-0.29 -0.26,-0.44 -0.09,-0.15 -0.18,-0.29 -0.27,-0.43 h -0.04 c -0.09,0.14 -0.17,0.28 -0.25,0.43 -0.08,0.14 -0.16,0.29 -0.24,0.45 l -0.66,1.13 h -0.86 z"
   id="path945" />
			<path
   d="m 456.08,307.07 c -0.32,0 -0.62,-0.06 -0.9,-0.17 -0.28,-0.11 -0.52,-0.28 -0.73,-0.5 -0.2,-0.22 -0.37,-0.49 -0.48,-0.8 -0.12,-0.32 -0.18,-0.68 -0.18,-1.08 0,-0.41 0.06,-0.77 0.19,-1.09 0.13,-0.32 0.3,-0.59 0.51,-0.81 0.21,-0.22 0.46,-0.39 0.75,-0.5 0.28,-0.11 0.58,-0.17 0.9,-0.17 0.32,0 0.59,0.06 0.82,0.17 0.23,0.11 0.43,0.25 0.6,0.4 l -0.42,0.54 c -0.14,-0.13 -0.29,-0.23 -0.45,-0.31 -0.16,-0.08 -0.33,-0.12 -0.53,-0.12 -0.22,0 -0.42,0.04 -0.61,0.13 -0.19,0.09 -0.35,0.22 -0.48,0.39 -0.13,0.17 -0.24,0.37 -0.32,0.6 -0.08,0.23 -0.12,0.49 -0.12,0.77 0,0.28 0.04,0.54 0.11,0.76 0.07,0.23 0.18,0.42 0.31,0.59 0.13,0.16 0.29,0.29 0.48,0.38 0.19,0.09 0.39,0.14 0.61,0.14 0.23,0 0.44,-0.05 0.63,-0.15 0.19,-0.1 0.36,-0.21 0.52,-0.35 l 0.36,0.55 c -0.22,0.19 -0.46,0.35 -0.73,0.46 -0.27,0.12 -0.55,0.17 -0.84,0.17 z"
   id="path947" />
			<path
   d="m 458.78,306.95 v -7.15 h 0.82 v 1.95 l -0.03,1 c 0.23,-0.22 0.48,-0.41 0.73,-0.57 0.25,-0.16 0.55,-0.24 0.89,-0.24 0.51,0 0.89,0.16 1.13,0.48 0.24,0.32 0.36,0.8 0.36,1.42 v 3.09 h -0.82 v -2.98 c 0,-0.46 -0.07,-0.79 -0.22,-1 -0.15,-0.2 -0.38,-0.31 -0.7,-0.31 -0.25,0 -0.48,0.06 -0.67,0.19 -0.19,0.13 -0.42,0.31 -0.66,0.56 v 3.53 h -0.83 z"
   id="path949" />
			<path
   d="m 465.41,307.07 c -0.41,0 -0.75,-0.12 -1.02,-0.36 -0.27,-0.24 -0.41,-0.58 -0.41,-1.02 0,-0.54 0.24,-0.95 0.71,-1.23 0.48,-0.28 1.23,-0.48 2.28,-0.6 0,-0.15 -0.01,-0.3 -0.04,-0.45 -0.03,-0.15 -0.08,-0.28 -0.16,-0.39 -0.07,-0.11 -0.17,-0.21 -0.31,-0.28 -0.13,-0.07 -0.3,-0.1 -0.5,-0.1 -0.28,0 -0.54,0.05 -0.79,0.16 -0.25,0.11 -0.47,0.23 -0.66,0.36 l -0.32,-0.57 c 0.23,-0.15 0.5,-0.29 0.83,-0.43 0.33,-0.14 0.69,-0.21 1.08,-0.21 0.6,0 1.03,0.18 1.29,0.55 0.27,0.36 0.4,0.85 0.4,1.46 v 2.99 h -0.68 l -0.07,-0.58 h -0.03 c -0.23,0.19 -0.48,0.36 -0.75,0.5 -0.25,0.14 -0.54,0.2 -0.85,0.2 z m 0.24,-0.66 c 0.23,0 0.46,-0.06 0.66,-0.17 0.21,-0.11 0.43,-0.27 0.66,-0.49 v -1.36 c -0.41,0.05 -0.75,0.12 -1.03,0.19 -0.28,0.07 -0.5,0.16 -0.67,0.26 -0.17,0.1 -0.29,0.22 -0.37,0.35 -0.08,0.13 -0.12,0.27 -0.12,0.43 0,0.28 0.08,0.48 0.25,0.6 0.18,0.13 0.38,0.19 0.62,0.19 z"
   id="path951" />
			<path
   d="m 469.4,306.95 v -4.88 h 0.68 l 0.07,0.7 h 0.03 c 0.23,-0.23 0.48,-0.43 0.74,-0.59 0.26,-0.16 0.56,-0.24 0.9,-0.24 0.51,0 0.89,0.16 1.13,0.48 0.24,0.32 0.36,0.8 0.36,1.42 v 3.09 h -0.82 v -2.98 c 0,-0.46 -0.07,-0.79 -0.22,-1 -0.15,-0.2 -0.38,-0.31 -0.7,-0.31 -0.25,0 -0.48,0.06 -0.67,0.19 -0.19,0.13 -0.42,0.31 -0.66,0.56 v 3.53 h -0.84 z"
   id="path953" />
			<path
   d="m 476.53,309.2 c -0.3,0 -0.58,-0.03 -0.82,-0.09 -0.25,-0.06 -0.46,-0.14 -0.64,-0.26 -0.18,-0.11 -0.31,-0.25 -0.41,-0.41 -0.1,-0.16 -0.15,-0.35 -0.15,-0.56 0,-0.21 0.06,-0.41 0.19,-0.59 0.13,-0.18 0.3,-0.36 0.52,-0.51 v -0.04 c -0.12,-0.07 -0.22,-0.18 -0.31,-0.31 -0.08,-0.13 -0.13,-0.29 -0.13,-0.49 0,-0.21 0.06,-0.39 0.17,-0.54 0.11,-0.15 0.23,-0.27 0.36,-0.36 V 305 c -0.16,-0.13 -0.31,-0.31 -0.44,-0.54 -0.13,-0.22 -0.2,-0.48 -0.2,-0.78 0,-0.27 0.05,-0.51 0.15,-0.72 0.1,-0.21 0.23,-0.4 0.4,-0.55 0.17,-0.15 0.36,-0.27 0.59,-0.35 0.22,-0.08 0.46,-0.12 0.71,-0.12 0.13,0 0.26,0.01 0.38,0.04 0.12,0.02 0.22,0.05 0.32,0.08 h 1.7 v 0.63 h -1 c 0.11,0.11 0.21,0.26 0.29,0.43 0.08,0.17 0.12,0.37 0.12,0.57 0,0.26 -0.05,0.5 -0.14,0.71 -0.09,0.21 -0.22,0.39 -0.38,0.53 -0.16,0.14 -0.35,0.26 -0.57,0.34 -0.22,0.08 -0.45,0.12 -0.7,0.12 -0.12,0 -0.24,-0.01 -0.37,-0.04 -0.13,-0.03 -0.25,-0.07 -0.36,-0.13 -0.09,0.07 -0.16,0.16 -0.22,0.25 -0.06,0.09 -0.09,0.2 -0.09,0.34 0,0.15 0.06,0.28 0.18,0.38 0.12,0.1 0.35,0.15 0.68,0.15 h 0.94 c 0.57,0 1,0.09 1.28,0.28 0.28,0.18 0.43,0.48 0.43,0.89 0,0.23 -0.06,0.44 -0.17,0.65 -0.11,0.2 -0.28,0.38 -0.49,0.54 -0.21,0.16 -0.47,0.28 -0.78,0.37 -0.31,0.09 -0.66,0.13 -1.04,0.13 z m 0.12,-0.57 c 0.23,0 0.45,-0.03 0.64,-0.08 0.19,-0.06 0.35,-0.13 0.49,-0.22 0.13,-0.09 0.24,-0.2 0.31,-0.32 0.07,-0.12 0.11,-0.24 0.11,-0.37 0,-0.23 -0.08,-0.38 -0.25,-0.47 -0.17,-0.09 -0.41,-0.13 -0.73,-0.13 h -0.84 c -0.09,0 -0.2,0 -0.31,-0.01 -0.11,-0.01 -0.22,-0.03 -0.33,-0.07 -0.17,0.13 -0.3,0.26 -0.38,0.4 -0.08,0.14 -0.12,0.28 -0.12,0.42 0,0.26 0.13,0.47 0.38,0.62 0.25,0.15 0.59,0.23 1.03,0.23 z m -0.12,-3.77 c 0.14,0 0.27,-0.03 0.4,-0.08 0.13,-0.05 0.23,-0.13 0.33,-0.23 0.1,-0.1 0.17,-0.22 0.23,-0.37 0.05,-0.14 0.08,-0.31 0.08,-0.49 0,-0.36 -0.1,-0.64 -0.3,-0.84 -0.2,-0.2 -0.44,-0.3 -0.73,-0.3 -0.29,0 -0.53,0.1 -0.73,0.3 -0.2,0.2 -0.3,0.48 -0.3,0.84 0,0.18 0.03,0.34 0.08,0.49 0.05,0.14 0.13,0.27 0.23,0.37 0.1,0.1 0.21,0.18 0.33,0.23 0.12,0.05 0.24,0.08 0.38,0.08 z"
   id="path955" />
			<path
   d="m 481.88,307.07 c -0.33,0 -0.63,-0.06 -0.92,-0.18 -0.29,-0.12 -0.53,-0.28 -0.74,-0.5 -0.21,-0.22 -0.38,-0.48 -0.5,-0.8 -0.12,-0.31 -0.18,-0.67 -0.18,-1.07 0,-0.4 0.06,-0.76 0.19,-1.08 0.13,-0.32 0.29,-0.59 0.49,-0.81 0.2,-0.22 0.44,-0.39 0.7,-0.51 0.26,-0.12 0.53,-0.18 0.81,-0.18 0.31,0 0.58,0.05 0.83,0.16 0.24,0.11 0.45,0.26 0.61,0.46 0.16,0.2 0.29,0.44 0.38,0.72 0.09,0.28 0.13,0.6 0.13,0.94 0,0.09 0,0.17 0,0.26 0,0.08 -0.01,0.16 -0.03,0.22 h -3.29 c 0.03,0.52 0.2,0.93 0.49,1.24 0.29,0.31 0.67,0.46 1.14,0.46 0.23,0 0.45,-0.04 0.65,-0.11 0.2,-0.07 0.39,-0.16 0.57,-0.28 l 0.29,0.54 c -0.21,0.13 -0.45,0.25 -0.71,0.35 -0.26,0.1 -0.57,0.17 -0.91,0.17 z m -1.53,-2.95 h 2.61 c 0,-0.5 -0.11,-0.87 -0.32,-1.13 -0.21,-0.26 -0.51,-0.39 -0.89,-0.39 -0.17,0 -0.34,0.03 -0.5,0.1 -0.16,0.07 -0.3,0.17 -0.43,0.3 -0.13,0.13 -0.23,0.29 -0.32,0.48 -0.07,0.19 -0.13,0.4 -0.15,0.64 z"
   id="path957" />
			<path
   d="m 488.9,307.07 c -0.46,0 -0.89,-0.09 -1.28,-0.26 -0.39,-0.17 -0.74,-0.41 -1.02,-0.71 l 0.5,-0.58 c 0.23,0.25 0.51,0.45 0.83,0.6 0.32,0.15 0.65,0.23 0.99,0.23 0.43,0 0.77,-0.1 1.01,-0.3 0.24,-0.2 0.36,-0.46 0.36,-0.78 0,-0.17 -0.03,-0.31 -0.09,-0.43 -0.06,-0.12 -0.13,-0.22 -0.23,-0.3 -0.1,-0.08 -0.21,-0.16 -0.35,-0.23 -0.13,-0.07 -0.28,-0.14 -0.43,-0.21 l -0.94,-0.41 c -0.15,-0.07 -0.31,-0.15 -0.47,-0.24 -0.16,-0.09 -0.3,-0.21 -0.43,-0.34 -0.13,-0.13 -0.23,-0.29 -0.31,-0.48 -0.08,-0.18 -0.12,-0.4 -0.12,-0.64 0,-0.25 0.05,-0.48 0.16,-0.69 0.1,-0.21 0.25,-0.4 0.43,-0.56 0.18,-0.16 0.4,-0.28 0.65,-0.37 0.25,-0.09 0.53,-0.13 0.83,-0.13 0.39,0 0.76,0.08 1.09,0.23 0.33,0.15 0.62,0.35 0.85,0.59 l -0.45,0.54 c -0.2,-0.19 -0.42,-0.35 -0.67,-0.46 -0.25,-0.11 -0.52,-0.17 -0.83,-0.17 -0.37,0 -0.66,0.08 -0.89,0.26 -0.23,0.18 -0.34,0.41 -0.34,0.71 0,0.16 0.03,0.3 0.09,0.41 0.06,0.11 0.15,0.21 0.26,0.29 0.11,0.08 0.22,0.16 0.35,0.22 0.13,0.06 0.26,0.12 0.39,0.18 l 0.93,0.4 c 0.19,0.08 0.36,0.17 0.53,0.28 0.17,0.1 0.31,0.22 0.43,0.36 0.12,0.14 0.22,0.3 0.29,0.48 0.07,0.18 0.11,0.4 0.11,0.64 0,0.26 -0.05,0.51 -0.16,0.73 -0.1,0.23 -0.25,0.43 -0.45,0.6 -0.19,0.17 -0.43,0.3 -0.7,0.4 -0.27,0.1 -0.57,0.14 -0.92,0.14 z"
   id="path959" />
			<path
   d="m 494.43,307.07 c -0.33,0 -0.63,-0.06 -0.92,-0.18 -0.29,-0.12 -0.53,-0.28 -0.74,-0.5 -0.21,-0.22 -0.38,-0.48 -0.5,-0.8 -0.12,-0.31 -0.18,-0.67 -0.18,-1.07 0,-0.4 0.06,-0.76 0.19,-1.08 0.13,-0.32 0.29,-0.59 0.49,-0.81 0.2,-0.22 0.44,-0.39 0.7,-0.51 0.26,-0.12 0.53,-0.18 0.81,-0.18 0.31,0 0.58,0.05 0.83,0.16 0.24,0.11 0.45,0.26 0.61,0.46 0.16,0.2 0.29,0.44 0.38,0.72 0.09,0.28 0.13,0.6 0.13,0.94 0,0.09 0,0.17 0,0.26 0,0.08 -0.01,0.16 -0.03,0.22 h -3.29 c 0.03,0.52 0.2,0.93 0.49,1.24 0.29,0.31 0.67,0.46 1.14,0.46 0.23,0 0.45,-0.04 0.65,-0.11 0.2,-0.07 0.39,-0.16 0.57,-0.28 l 0.29,0.54 c -0.21,0.13 -0.45,0.25 -0.71,0.35 -0.26,0.1 -0.58,0.17 -0.91,0.17 z m -1.54,-2.95 h 2.61 c 0,-0.5 -0.11,-0.87 -0.32,-1.13 -0.21,-0.26 -0.51,-0.39 -0.89,-0.39 -0.17,0 -0.34,0.03 -0.5,0.1 -0.16,0.07 -0.3,0.17 -0.43,0.3 -0.13,0.13 -0.23,0.29 -0.32,0.48 -0.07,0.19 -0.12,0.4 -0.15,0.64 z"
   id="path961" />
			<path
   d="m 497.48,306.95 v -4.88 h 0.68 l 0.07,0.88 h 0.03 c 0.17,-0.31 0.37,-0.55 0.61,-0.73 0.24,-0.18 0.5,-0.27 0.78,-0.27 0.19,0 0.37,0.03 0.52,0.1 l -0.16,0.72 c -0.08,-0.03 -0.15,-0.05 -0.22,-0.06 -0.07,-0.01 -0.15,-0.02 -0.25,-0.02 -0.21,0 -0.42,0.08 -0.65,0.25 -0.22,0.17 -0.42,0.46 -0.59,0.87 v 3.13 h -0.82 z"
   id="path963" />
			<path
   d="m 502.37,306.95 -1.76,-4.88 h 0.85 l 0.92,2.77 c 0.07,0.24 0.15,0.48 0.23,0.72 0.08,0.24 0.15,0.48 0.23,0.71 h 0.04 c 0.07,-0.23 0.15,-0.47 0.22,-0.71 0.07,-0.24 0.15,-0.48 0.22,-0.72 l 0.92,-2.77 h 0.81 l -1.73,4.88 z"
   id="path965" />
			<path
   d="m 506.47,301.07 c -0.16,0 -0.3,-0.05 -0.41,-0.15 -0.11,-0.1 -0.17,-0.23 -0.17,-0.38 0,-0.16 0.05,-0.29 0.17,-0.39 0.12,-0.1 0.25,-0.15 0.41,-0.15 0.16,0 0.3,0.05 0.41,0.15 0.11,0.1 0.17,0.23 0.17,0.39 0,0.15 -0.05,0.28 -0.17,0.38 -0.12,0.1 -0.25,0.15 -0.41,0.15 z m -0.42,5.88 v -4.88 h 0.82 v 4.88 z"
   id="path967" />
			<path
   d="m 510.39,307.07 c -0.32,0 -0.62,-0.06 -0.9,-0.17 -0.28,-0.11 -0.52,-0.28 -0.73,-0.5 -0.2,-0.22 -0.37,-0.49 -0.48,-0.8 -0.12,-0.32 -0.18,-0.68 -0.18,-1.08 0,-0.41 0.06,-0.77 0.19,-1.09 0.13,-0.32 0.3,-0.59 0.51,-0.81 0.21,-0.22 0.46,-0.39 0.75,-0.5 0.28,-0.11 0.58,-0.17 0.9,-0.17 0.32,0 0.59,0.06 0.82,0.17 0.23,0.11 0.43,0.25 0.6,0.4 l -0.42,0.54 c -0.14,-0.13 -0.29,-0.23 -0.45,-0.31 -0.16,-0.08 -0.33,-0.12 -0.53,-0.12 -0.22,0 -0.42,0.04 -0.61,0.13 -0.19,0.09 -0.35,0.22 -0.48,0.39 -0.13,0.17 -0.24,0.37 -0.32,0.6 -0.08,0.23 -0.12,0.49 -0.12,0.77 0,0.28 0.04,0.54 0.11,0.76 0.07,0.23 0.18,0.42 0.31,0.59 0.13,0.16 0.29,0.29 0.48,0.38 0.19,0.09 0.39,0.14 0.61,0.14 0.23,0 0.44,-0.05 0.63,-0.15 0.19,-0.1 0.36,-0.21 0.52,-0.35 l 0.36,0.55 c -0.22,0.19 -0.46,0.35 -0.73,0.46 -0.26,0.12 -0.54,0.17 -0.84,0.17 z"
   id="path969" />
			<path
   d="m 515.01,307.07 c -0.33,0 -0.63,-0.06 -0.92,-0.18 -0.29,-0.12 -0.53,-0.28 -0.74,-0.5 -0.21,-0.22 -0.38,-0.48 -0.5,-0.8 -0.12,-0.31 -0.18,-0.67 -0.18,-1.07 0,-0.4 0.06,-0.76 0.19,-1.08 0.13,-0.32 0.29,-0.59 0.49,-0.81 0.2,-0.22 0.44,-0.39 0.7,-0.51 0.26,-0.12 0.53,-0.18 0.81,-0.18 0.31,0 0.58,0.05 0.83,0.16 0.24,0.11 0.45,0.26 0.61,0.46 0.16,0.2 0.29,0.44 0.38,0.72 0.09,0.28 0.13,0.6 0.13,0.94 0,0.09 0,0.17 0,0.26 0,0.08 -0.01,0.16 -0.03,0.22 h -3.29 c 0.03,0.52 0.2,0.93 0.49,1.24 0.29,0.31 0.67,0.46 1.14,0.46 0.23,0 0.45,-0.04 0.65,-0.11 0.2,-0.07 0.39,-0.16 0.57,-0.28 l 0.29,0.54 c -0.21,0.13 -0.45,0.25 -0.71,0.35 -0.26,0.1 -0.57,0.17 -0.91,0.17 z m -1.53,-2.95 h 2.61 c 0,-0.5 -0.11,-0.87 -0.32,-1.13 -0.21,-0.26 -0.51,-0.39 -0.89,-0.39 -0.17,0 -0.34,0.03 -0.5,0.1 -0.16,0.07 -0.3,0.17 -0.43,0.3 -0.13,0.13 -0.23,0.29 -0.32,0.48 -0.07,0.19 -0.13,0.4 -0.15,0.64 z"
   id="path971" />
		</g>
	</g>
</g>
</svg>
