<svg xmlns="http://www.w3.org/2000/svg" viewBox="0 0 232.44 113.39">
  <defs>
    <style>
      .cls-1 {
        fill: none;
      }

      .cls-2 {
        fill: #0060af;
      }

      .cls-3 {
        fill: #fff;
      }

      .cls-4 {
        fill: #1a171b;
      }
    </style>
  </defs>
  <g id="Schutzzone">
    <rect class="cls-1" width="232.44" height="113.39"/>
  </g>
  <g id="iDA_Logo_Basic_RGB" data-name="iDA Logo Basic RGB">
    <g>
      <path class="cls-2" d="M355.75,297.64a34,34,0,1,1-34-34,34,34,0,0,1,34,34" transform="translate(-265.04 -240.94)"/>
      <g>
        <path class="cls-3" d="M306,288.75a1.43,1.43,0,0,0-1,.44,1.4,1.4,0,0,0-.43,1,1.47,1.47,0,0,0,2.51,1,1.46,1.46,0,0,0,.43-1,1.49,1.49,0,0,0-1.47-1.47Z" transform="translate(-265.04 -240.94)"/>
        <path class="cls-3" d="M306,293.83a1.1,1.1,0,0,0-.81.32,1.06,1.06,0,0,0-.33.82V305.2a1.11,1.11,0,0,0,1.14,1.14,1.09,1.09,0,0,0,.82-.32,1.14,1.14,0,0,0,.32-.82V295a1.1,1.1,0,0,0-1.14-1.14Z" transform="translate(-265.04 -240.94)"/>
        <path class="cls-3" d="M322.29,291.38a8,8,0,0,0-2.73-1.81,9.25,9.25,0,0,0-3.48-.63h-4a1.12,1.12,0,0,0-.82.32,1.08,1.08,0,0,0-.34.84v15.08a1.14,1.14,0,0,0,1.16,1.16h4a9.06,9.06,0,0,0,3.48-.64,8,8,0,0,0,4.51-4.56,9.52,9.52,0,0,0,.63-3.51,9.36,9.36,0,0,0-.63-3.5A8,8,0,0,0,322.29,291.38Zm-.64,9.69a6.13,6.13,0,0,1-2.27,2.36,6.32,6.32,0,0,1-3.3.86H313.2V291h2.88a6.4,6.4,0,0,1,3.3.84,6.15,6.15,0,0,1,2.27,2.34,7.67,7.67,0,0,1,0,6.9Z" transform="translate(-265.04 -240.94)"/>
        <path class="cls-3" d="M340.45,304.71l-6.28-15a1.08,1.08,0,0,0-1.09-.78,1.12,1.12,0,0,0-1.09.78l-6.27,14.95a1.16,1.16,0,0,0,.07,1.13,1.06,1.06,0,0,0,1,.54,1.16,1.16,0,0,0,.61-.18,1.2,1.2,0,0,0,.46-.53l1.27-3.12h8l1.26,3.12a1.09,1.09,0,0,0,.43.52,1.14,1.14,0,0,0,.64.19,1.09,1.09,0,0,0,1-.5A1.18,1.18,0,0,0,340.45,304.71Zm-10.57-4.12,3.24-7.92,3.19,7.92Z" transform="translate(-265.04 -240.94)"/>
      </g>
      <path class="cls-4" d="M469.39,307.39a3.29,3.29,0,0,1,.62-1,2.52,2.52,0,0,1,.85-.61,2.38,2.38,0,0,1,1-.21,2.11,2.11,0,0,1,1.72.76,3.59,3.59,0,0,1,.64,2.32h-5.13a4.52,4.52,0,0,1,.31-1.29m4.12,5.76a9.52,9.52,0,0,0,1.06-.53l-.3-.57a3.54,3.54,0,0,1-1,.52,3.36,3.36,0,0,1-1.18.2,3,3,0,0,1-1.24-.26,3,3,0,0,1-.94-.72,3.31,3.31,0,0,1-.61-1.11,4.46,4.46,0,0,1-.24-1.4h5.8a1.53,1.53,0,0,0,0-.3v-.3a4.14,4.14,0,0,0-.82-2.75,2.83,2.83,0,0,0-2.26-1,3,3,0,0,0-1.3.3,3.44,3.44,0,0,0-1.12.83,4.27,4.27,0,0,0-.79,1.33,5.23,5.23,0,0,0-.29,1.78,5.13,5.13,0,0,0,.29,1.77,4,4,0,0,0,.8,1.32,3.37,3.37,0,0,0,1.18.83,3.67,3.67,0,0,0,1.45.28,3.61,3.61,0,0,0,1.46-.25M465.86,303a.7.7,0,0,0,0-1,.68.68,0,0,0-.48-.18.64.64,0,0,0-.47.18.68.68,0,0,0,0,1,.64.64,0,0,0,.47.18.68.68,0,0,0,.48-.18m-.13,2.12H465v8h.73Zm-13.76,8v-6.06a3.58,3.58,0,0,1,2.41-1.51,1.58,1.58,0,0,1,1.37.61,3.33,3.33,0,0,1,.44,1.9v5.06h.74v-6.06a3.56,3.56,0,0,1,2.41-1.51,1.56,1.56,0,0,1,1.35.61,3.33,3.33,0,0,1,.44,1.9v5.06h.75V308c0-2.05-.8-3.08-2.41-3.08a2.38,2.38,0,0,0-1.36.45,7.9,7.9,0,0,0-1.37,1.19,2.37,2.37,0,0,0-.73-1.19,2.23,2.23,0,0,0-1.49-.45,2.58,2.58,0,0,0-1.34.41,5.28,5.28,0,0,0-1.19,1h-.05l-.07-1.24h-.64v8Zm-8.6-5.81a3.29,3.29,0,0,1,.62-1,2.62,2.62,0,0,1,.85-.61,2.38,2.38,0,0,1,1-.21,2.11,2.11,0,0,1,1.72.76,3.59,3.59,0,0,1,.64,2.32h-5.13a4.52,4.52,0,0,1,.31-1.29m4.12,5.76a9.52,9.52,0,0,0,1.06-.53l-.3-.57a3.54,3.54,0,0,1-1,.52,3.36,3.36,0,0,1-1.18.2,3,3,0,0,1-1.24-.26,3,3,0,0,1-.94-.72,3.31,3.31,0,0,1-.61-1.11,4.46,4.46,0,0,1-.24-1.4h5.8a1.53,1.53,0,0,0,0-.3v-.3a4.14,4.14,0,0,0-.82-2.75,2.83,2.83,0,0,0-2.26-1,3,3,0,0,0-1.3.3,3.44,3.44,0,0,0-1.12.83,4.27,4.27,0,0,0-.79,1.33,5.23,5.23,0,0,0-.29,1.78,5.13,5.13,0,0,0,.29,1.77,4,4,0,0,0,.8,1.32,3.37,3.37,0,0,0,1.18.83,3.67,3.67,0,0,0,1.45.28,3.61,3.61,0,0,0,1.46-.25m-12.15-.66a2.3,2.3,0,0,1-.83-.72,3.15,3.15,0,0,1-.51-1.11,5.51,5.51,0,0,1-.18-1.46,4.34,4.34,0,0,1,.22-1.41,3.41,3.41,0,0,1,.59-1.14,2.85,2.85,0,0,1,.9-.76,2.38,2.38,0,0,1,1.12-.27,2.92,2.92,0,0,1,1.15.23,4.68,4.68,0,0,1,1.19.8v4.78a6.09,6.09,0,0,1-1.24,1,2.58,2.58,0,0,1-1.28.34,2.39,2.39,0,0,1-1.13-.26m2.49.54a5.69,5.69,0,0,0,1.15-.87h0l.06,1h.64v-12H439v3.32l0,1.47a7,7,0,0,0-1.15-.73,3,3,0,0,0-1.28-.26,3.22,3.22,0,0,0-1.37.3,3.37,3.37,0,0,0-1.13.84,4.11,4.11,0,0,0-.78,1.34,5.16,5.16,0,0,0-.29,1.76,4.7,4.7,0,0,0,.91,3.12,3,3,0,0,0,2.42,1.08,2.92,2.92,0,0,0,1.47-.37m-11.29-.36a1.55,1.55,0,0,1-.54-.28,1.3,1.3,0,0,1-.37-.49,1.85,1.85,0,0,1-.13-.74,1.63,1.63,0,0,1,.22-.85,2,2,0,0,1,.75-.69,5.31,5.31,0,0,1,1.37-.52,16,16,0,0,1,2.1-.37v2.73a8.47,8.47,0,0,1-1.39,1,2.93,2.93,0,0,1-1.34.34,2.09,2.09,0,0,1-.67-.1m2,.36a9.23,9.23,0,0,0,1.33-.87H430l.07,1h.63v-5.14a5.16,5.16,0,0,0-.13-1.21,2.75,2.75,0,0,0-.44-1,2.09,2.09,0,0,0-.78-.66,2.55,2.55,0,0,0-1.19-.25,4.1,4.1,0,0,0-.94.11,8.33,8.33,0,0,0-.84.26,4,4,0,0,0-.69.34c-.21.12-.39.23-.53.33l.33.55a8.44,8.44,0,0,1,1.09-.62,3.44,3.44,0,0,1,1.48-.31,1.86,1.86,0,0,1,1,.22,1.72,1.72,0,0,1,.58.59,2.16,2.16,0,0,1,.29.82,7.11,7.11,0,0,1,.07.91,10.88,10.88,0,0,0-3.95,1,2.21,2.21,0,0,0-1.25,2,2.5,2.5,0,0,0,.19,1,1.86,1.86,0,0,0,.5.69,2.12,2.12,0,0,0,.74.4,2.92,2.92,0,0,0,.9.13,3.22,3.22,0,0,0,1.52-.37m-10.31.17V311l1.81-2.11,2.66,4.3h.82l-3-4.85,2.61-3.19h-.86l-4,4.88h0v-8.88h-.74v12Zm-10.35,0,1.31-3.78h4.37l1.29,3.78h.8l-3.88-11h-.77l-3.89,11Zm2.88-8.39c.21-.6.4-1.24.59-1.92h.07c.19.68.38,1.32.58,1.92s.42,1.24.64,1.89l.7,2.06h-3.92l.71-2.06q.33-1,.63-1.89m-4.6,3.89h-3.68v.65h3.68ZM394,302.82h1.71a4.89,4.89,0,0,1,1.93.35,3.52,3.52,0,0,1,1.33,1,4,4,0,0,1,.77,1.52,7.16,7.16,0,0,1,.25,2,7.28,7.28,0,0,1-.25,2,4.26,4.26,0,0,1-.77,1.55,3.46,3.46,0,0,1-1.33,1,4.72,4.72,0,0,1-1.93.36H394Zm1.81,10.38a5.74,5.74,0,0,0,2.21-.39,4.22,4.22,0,0,0,1.56-1.12,4.84,4.84,0,0,0,.92-1.76,8.19,8.19,0,0,0,.3-2.29,7.93,7.93,0,0,0-.3-2.26,4.66,4.66,0,0,0-.92-1.72,4.15,4.15,0,0,0-1.57-1.11,6,6,0,0,0-2.22-.38H393.2v11Zm-12,0,1.3-3.78h4.37l1.29,3.78h.81l-3.89-11h-.77l-3.88,11Zm2.88-8.39c.2-.6.39-1.24.58-1.92h.07c.19.68.38,1.32.59,1.92s.41,1.24.63,1.89l.7,2.06H385.3l.7-2.06c.22-.65.43-1.28.64-1.89m-12.38,8.39,1.31-3.78h4.37l1.29,3.78h.8l-3.88-11h-.77l-3.89,11Zm2.88-8.39c.2-.6.4-1.24.59-1.92h.06c.19.68.39,1.32.59,1.92s.41,1.24.64,1.89l.7,2.06H375.8l.71-2.06q.33-1,.63-1.89m-11.33-2h1.7a4.94,4.94,0,0,1,1.94.35,3.6,3.6,0,0,1,1.33,1,4.12,4.12,0,0,1,.77,1.52,7.16,7.16,0,0,1,.25,2,7.28,7.28,0,0,1-.25,2,4.42,4.42,0,0,1-.77,1.55,3.54,3.54,0,0,1-1.33,1,4.77,4.77,0,0,1-1.94.36h-1.7Zm1.8,10.38a5.71,5.71,0,0,0,2.21-.39,4.06,4.06,0,0,0,1.56-1.12,4.84,4.84,0,0,0,.92-1.76,8.19,8.19,0,0,0,.3-2.29,7.93,7.93,0,0,0-.3-2.26,4.66,4.66,0,0,0-.92-1.72,4,4,0,0,0-1.56-1.11,6,6,0,0,0-2.22-.38H365v11Z" transform="translate(-265.04 -240.94)"/>
      <path class="cls-4" d="M454.94,287.3a3.29,3.29,0,0,1,.62-1,2.62,2.62,0,0,1,.85-.61,2.38,2.38,0,0,1,1-.21,2.11,2.11,0,0,1,1.72.76,3.59,3.59,0,0,1,.64,2.32h-5.13a4.52,4.52,0,0,1,.31-1.29m4.12,5.76a10.67,10.67,0,0,0,1.07-.54l-.31-.57a3.57,3.57,0,0,1-1,.53,3.36,3.36,0,0,1-1.18.19,2.81,2.81,0,0,1-1.24-.26,2.75,2.75,0,0,1-.94-.72,3.17,3.17,0,0,1-.61-1.1,4.51,4.51,0,0,1-.24-1.4h5.8a1.53,1.53,0,0,0,0-.3v-.3a4.12,4.12,0,0,0-.82-2.75,2.8,2.8,0,0,0-2.26-1,3.12,3.12,0,0,0-1.3.29A3.62,3.62,0,0,0,455,286a4.15,4.15,0,0,0-.79,1.33,5.23,5.23,0,0,0-.29,1.78,5.07,5.07,0,0,0,.29,1.76,4.1,4.1,0,0,0,.8,1.33,3.22,3.22,0,0,0,1.18.82,3.68,3.68,0,0,0,1.45.29,3.61,3.61,0,0,0,1.46-.25m-7.36.22.24,0-.14-.61a.63.63,0,0,1-.19,0h-.11a.33.33,0,0,1-.25-.13.59.59,0,0,1-.1-.39V281.07h-.74v11c0,.85.33,1.27,1,1.27a1.26,1.26,0,0,0,.3,0m-8.44-.7a1.68,1.68,0,0,1-.55-.28,1.34,1.34,0,0,1-.37-.5,1.77,1.77,0,0,1-.13-.73,1.58,1.58,0,0,1,.23-.86,1.9,1.9,0,0,1,.74-.68,5,5,0,0,1,1.37-.52,16,16,0,0,1,2.1-.37v2.73a8.47,8.47,0,0,1-1.39,1,2.89,2.89,0,0,1-1.34.33,2.29,2.29,0,0,1-.66-.09m2,.35a9.17,9.17,0,0,0,1.33-.86h.05l.07,1h.63V288a5.25,5.25,0,0,0-.13-1.22,2.83,2.83,0,0,0-.44-1,2.29,2.29,0,0,0-.78-.66,2.69,2.69,0,0,0-1.19-.24,4.1,4.1,0,0,0-.94.11,6.37,6.37,0,0,0-.84.26,4.92,4.92,0,0,0-.69.33l-.53.34.34.55a6.76,6.76,0,0,1,1.08-.62,3.45,3.45,0,0,1,1.48-.32,1.86,1.86,0,0,1,1,.23,1.72,1.72,0,0,1,.58.59,2.16,2.16,0,0,1,.29.82,7,7,0,0,1,.07.91,11.13,11.13,0,0,0-3.95,1,2.22,2.22,0,0,0-1.24,2,2.5,2.5,0,0,0,.18,1,1.75,1.75,0,0,0,.5.68,2.14,2.14,0,0,0,.74.41,2.92,2.92,0,0,0,.9.13,3.23,3.23,0,0,0,1.52-.38m-11.61.18v-6.06a8,8,0,0,1,1.32-1.13,2.36,2.36,0,0,1,1.3-.38,1.6,1.6,0,0,1,1.42.61,3.4,3.4,0,0,1,.43,1.9v5.06h.73V288a3.81,3.81,0,0,0-.58-2.33,2.2,2.2,0,0,0-1.84-.75,2.75,2.75,0,0,0-1.49.41,7.41,7.41,0,0,0-1.28,1h-.05l-.06-1.24H433v8Zm-8.06-.71a2.83,2.83,0,0,1-.89-.73,3.74,3.74,0,0,1-.6-1.12,4.89,4.89,0,0,1,0-2.9,3.8,3.8,0,0,1,.6-1.13,2.73,2.73,0,0,1,.89-.74,2.56,2.56,0,0,1,2.25,0,2.61,2.61,0,0,1,.91.74,3.56,3.56,0,0,1,.59,1.13,4.89,4.89,0,0,1,0,2.9,3.51,3.51,0,0,1-.59,1.12,2.7,2.7,0,0,1-.91.73,2.56,2.56,0,0,1-2.25,0m2.51.62a3.2,3.2,0,0,0,1.15-.82,4,4,0,0,0,.79-1.31,5.15,5.15,0,0,0,.29-1.78,5.31,5.31,0,0,0-.29-1.8,4,4,0,0,0-.79-1.33,3.49,3.49,0,0,0-1.15-.83,3.71,3.71,0,0,0-1.39-.28,3.35,3.35,0,0,0-2.52,1.11,3.93,3.93,0,0,0-.78,1.33,5.07,5.07,0,0,0-.3,1.8,4.92,4.92,0,0,0,.3,1.78,3.93,3.93,0,0,0,.78,1.31,3.29,3.29,0,0,0,1.15.82,3.4,3.4,0,0,0,1.37.29,3.53,3.53,0,0,0,1.39-.29M420.68,283a.66.66,0,0,0-.47-1.14.67.67,0,0,0-.48.17.63.63,0,0,0-.19.5.63.63,0,0,0,.19.47.68.68,0,0,0,.48.18.64.64,0,0,0,.47-.18m-.12,2.12h-.74v8h.74Zm-3.33,8.16a6.28,6.28,0,0,0,.7-.22l-.2-.6a4.65,4.65,0,0,1-.49.17,2.06,2.06,0,0,1-.52.08,1.6,1.6,0,0,1-.67-.13.94.94,0,0,1-.41-.35,1.45,1.45,0,0,1-.21-.54,3.54,3.54,0,0,1-.06-.69v-5.24h2.33v-.64h-2.33v-2.33h-.64l-.1,2.33-1.27.07v.57h1.26v5.17a5.06,5.06,0,0,0,.09,1,2,2,0,0,0,.32.77,1.58,1.58,0,0,0,.62.49,2.3,2.3,0,0,0,1,.18,3.1,3.1,0,0,0,.61-.08m-9.77-.65a1.68,1.68,0,0,1-.55-.28,1.45,1.45,0,0,1-.37-.5,1.77,1.77,0,0,1-.13-.73,1.68,1.68,0,0,1,.23-.86,2,2,0,0,1,.74-.68,5.1,5.1,0,0,1,1.37-.52,16,16,0,0,1,2.1-.37v2.73a8.07,8.07,0,0,1-1.39,1,2.89,2.89,0,0,1-1.34.33,2.29,2.29,0,0,1-.66-.09m2,.35a9.17,9.17,0,0,0,1.33-.86h.05l.07,1h.63V288a5.25,5.25,0,0,0-.13-1.22,2.81,2.81,0,0,0-.43-1,2.43,2.43,0,0,0-.79-.66,2.69,2.69,0,0,0-1.19-.24,4.17,4.17,0,0,0-.94.11,6.37,6.37,0,0,0-.84.26,5.53,5.53,0,0,0-.69.33l-.53.34.34.55a6.91,6.91,0,0,1,1.09-.62,3.37,3.37,0,0,1,1.47-.32,1.86,1.86,0,0,1,1,.23,1.75,1.75,0,0,1,.59.59,2.15,2.15,0,0,1,.28.82,7,7,0,0,1,.07.91,11.19,11.19,0,0,0-4,1,2.22,2.22,0,0,0-1.24,2,2.5,2.5,0,0,0,.18,1,1.75,1.75,0,0,0,.5.68,2.23,2.23,0,0,0,.74.41,2.92,2.92,0,0,0,.9.13,3.23,3.23,0,0,0,1.52-.38m-11.61.18v-6.06a8,8,0,0,1,1.32-1.13,2.39,2.39,0,0,1,1.31-.38,1.59,1.59,0,0,1,1.41.61,3.32,3.32,0,0,1,.43,1.9v5.06h.73V288a3.81,3.81,0,0,0-.58-2.33,2.2,2.2,0,0,0-1.84-.75,2.75,2.75,0,0,0-1.49.41,7.41,7.41,0,0,0-1.28,1h0l-.06-1.24h-.64v8Zm-5.48,0v-5.48a3.8,3.8,0,0,1,1.07-1.6,1.9,1.9,0,0,1,1.13-.46,2,2,0,0,1,.38,0,1.53,1.53,0,0,1,.35.11l.17-.67a1.53,1.53,0,0,0-.39-.14,2.54,2.54,0,0,0-.41,0,2,2,0,0,0-1.3.47,3.88,3.88,0,0,0-1,1.22h-.05l-.07-1.49h-.63v8Zm-8.6-5.81a3.51,3.51,0,0,1,.62-1,2.62,2.62,0,0,1,.85-.61,2.38,2.38,0,0,1,1-.21,2.11,2.11,0,0,1,1.72.76,3.53,3.53,0,0,1,.64,2.32H383.5a4.52,4.52,0,0,1,.31-1.29m4.12,5.76a10.67,10.67,0,0,0,1.07-.54l-.3-.57a3.89,3.89,0,0,1-1,.53,3.44,3.44,0,0,1-1.18.19,2.75,2.75,0,0,1-1.24-.26,2.69,2.69,0,0,1-.95-.72,3.17,3.17,0,0,1-.61-1.1,4.83,4.83,0,0,1-.24-1.4h5.8a1.53,1.53,0,0,0,0-.3v-.3a4.12,4.12,0,0,0-.82-2.75,2.8,2.8,0,0,0-2.26-1,3.12,3.12,0,0,0-1.3.29,3.62,3.62,0,0,0-1.12.84,4.15,4.15,0,0,0-.79,1.33,5.23,5.23,0,0,0-.29,1.78,5.07,5.07,0,0,0,.29,1.76,4.1,4.1,0,0,0,.8,1.33A3.22,3.22,0,0,0,385,293a3.68,3.68,0,0,0,1.45.29,3.61,3.61,0,0,0,1.46-.25m-6.92.17a6.28,6.28,0,0,0,.7-.22l-.2-.6a4,4,0,0,1-.49.17,2.05,2.05,0,0,1-.51.08,1.61,1.61,0,0,1-.68-.13,1,1,0,0,1-.41-.35,1.45,1.45,0,0,1-.21-.54,3.54,3.54,0,0,1-.06-.69v-5.24h2.33v-.64h-2.33v-2.33h-.64l-.1,2.33-1.27.07v.57h1.26v5.17a5.06,5.06,0,0,0,.09,1,1.86,1.86,0,0,0,.33.77,1.45,1.45,0,0,0,.62.49,2.27,2.27,0,0,0,1,.18,3,3,0,0,0,.6-.08m-11.14-.12v-6.06a8.44,8.44,0,0,1,1.33-1.13,2.36,2.36,0,0,1,1.3-.38,1.61,1.61,0,0,1,1.42.61,3.4,3.4,0,0,1,.43,1.9v5.06h.73V288a3.81,3.81,0,0,0-.58-2.33,2.22,2.22,0,0,0-1.85-.75,2.8,2.8,0,0,0-1.49.41,7.36,7.36,0,0,0-1.27,1h-.05l-.07-1.24h-.63v8Zm-4.06-11H365v11h.77Z" transform="translate(-265.04 -240.94)"/>
    </g>
  </g>
</svg>
