<?xml version="1.0" encoding="UTF-8" standalone="no"?>
<!-- Created with Inkscape (http://www.inkscape.org/) -->

<svg
   xmlns:dc="http://purl.org/dc/elements/1.1/"
   xmlns:cc="http://creativecommons.org/ns#"
   xmlns:rdf="http://www.w3.org/1999/02/22-rdf-syntax-ns#"
   xmlns:svg="http://www.w3.org/2000/svg"
   xmlns="http://www.w3.org/2000/svg"
   xmlns:sodipodi="http://sodipodi.sourceforge.net/DTD/sodipodi-0.dtd"
   xmlns:inkscape="http://www.inkscape.org/namespaces/inkscape"
   width="237.96851"
   height="115.49606"
   viewBox="0 0 237.96839 115.49599"
   id="svg3343"
   version="1.1"
   inkscape:version="0.91 r13725"
   sodipodi:docname="inccas-logo.svg">
  <defs
     id="defs3345">
    <clipPath
       id="XMLID_3_">
      <polygon
         points="55.981,18.78 41.201,18.52 41.061,9.005 163.748,8.748 163.748,81.04 42.122,81.04 41.527,40.645 57.267,40.902 "
         id="use121" />
    </clipPath>
    <radialGradient
       gradientTransform="matrix(14.925,0,0,14.927,86.4659,30.9041)"
       gradientUnits="userSpaceOnUse"
       r="1"
       cy="0"
       cx="0"
       id="_Radial1">
      <stop
         id="stop3456"
         style="stop-color:#d61919;stop-opacity:1"
         offset="0" />
      <stop
         id="stop3458"
         style="stop-color:#00afe5;stop-opacity:0.498039"
         offset="1" />
    </radialGradient>
    <linearGradient
       gradientTransform="matrix(202.5,-115.5,115.5,202.5,47.6994,109.903)"
       gradientUnits="userSpaceOnUse"
       y2="0"
       x2="1"
       y1="0"
       x1="0"
       id="_Linear2">
      <stop
         id="stop3461"
         style="stop-color:#d61919;stop-opacity:1"
         offset="0" />
      <stop
         id="stop3463"
         style="stop-color:#fff;stop-opacity:1"
         offset="1" />
    </linearGradient>
    <linearGradient
       gradientTransform="matrix(208.161,-82.1255,82.1255,208.161,71.288,98.2784)"
       gradientUnits="userSpaceOnUse"
       y2="0"
       x2="1"
       y1="0"
       x1="0"
       id="_Linear3">
      <stop
         id="stop3466"
         style="stop-color:#00519b;stop-opacity:1"
         offset="0" />
      <stop
         id="stop3468"
         style="stop-color:#2a6eab;stop-opacity:0.835294"
         offset="0.62" />
      <stop
         id="stop3470"
         style="stop-color:#90b3d3;stop-opacity:0.435294"
         offset="0.82" />
      <stop
         id="stop3472"
         style="stop-color:#fff;stop-opacity:0"
         offset="1" />
    </linearGradient>
    <linearGradient
       gradientTransform="matrix(207.75,-141.75,141.75,207.75,55.9494,142.153)"
       gradientUnits="userSpaceOnUse"
       y2="0"
       x2="1"
       y1="0"
       x1="0"
       id="_Linear4">
      <stop
         id="stop3475"
         style="stop-color:#00afe5;stop-opacity:0.498039"
         offset="0" />
      <stop
         id="stop3477"
         style="stop-color:#3ac1eb;stop-opacity:0.384314"
         offset="0.53" />
      <stop
         id="stop3479"
         style="stop-color:#fff;stop-opacity:0"
         offset="1" />
    </linearGradient>
    <clipPath
       id="XMLID_3_-2">
      <polygon
         id="use121-5"
         points="41.527,40.645 57.267,40.902 55.981,18.78 41.201,18.52 41.061,9.005 163.748,8.748 163.748,81.04 42.122,81.04 " />
    </clipPath>
    <radialGradient
       id="_Radial1-5"
       cx="0"
       cy="0"
       r="1"
       gradientUnits="userSpaceOnUse"
       gradientTransform="matrix(14.925,0,0,14.927,86.4659,30.9041)">
      <stop
         offset="0"
         style="stop-color:#d61919;stop-opacity:1"
         id="stop3456-6" />
      <stop
         offset="1"
         style="stop-color:#00afe5;stop-opacity:0.498039"
         id="stop3458-8" />
    </radialGradient>
    <radialGradient
       id="_Radial1-1"
       cx="0"
       cy="0"
       r="1"
       gradientUnits="userSpaceOnUse"
       gradientTransform="matrix(14.925,0,0,14.927,86.4659,30.9041)">
      <stop
         offset="0"
         style="stop-color:#d61919;stop-opacity:1"
         id="stop3733" />
      <stop
         offset="1"
         style="stop-color:#00afe5;stop-opacity:0.498039"
         id="stop3735" />
    </radialGradient>
  </defs>
  <sodipodi:namedview
     id="base"
     pagecolor="#ffffff"
     bordercolor="#666666"
     borderopacity="1.0"
     inkscape:pageopacity="0.0"
     inkscape:pageshadow="2"
     inkscape:zoom="1"
     inkscape:cx="126.65627"
     inkscape:cy="189.40948"
     inkscape:document-units="px"
     inkscape:current-layer="layer1"
     showgrid="false"
     inkscape:window-width="1920"
     inkscape:window-height="1018"
     inkscape:window-x="-8"
     inkscape:window-y="-8"
     inkscape:window-maximized="1"
     borderlayer="false"
     inkscape:showpageshadow="false"
     units="px" />
  <metadata
     id="metadata3348">
    <rdf:RDF>
      <cc:Work
         rdf:about="">
        <dc:format>image/svg+xml</dc:format>
        <dc:type
           rdf:resource="http://purl.org/dc/dcmitype/StillImage" />
        <dc:title></dc:title>
      </cc:Work>
    </rdf:RDF>
  </metadata>
  <g
     inkscape:label="Ebene 1"
     inkscape:groupmode="layer"
     id="layer1"
     transform="translate(0,-936.86715)">
    <g
       transform="matrix(1.0489511,0,0,1.1405466,-4.8986232,-153.80014)"
       id="layer1-8"
       inkscape:label="Ebene 1">
      <g
         transform="matrix(0.83315667,0,0,0.76762709,7.5180795,959.11496)"
         id="g3777"
         style="clip-rule:evenodd;fill-rule:evenodd;stroke-linejoin:round;stroke-miterlimit:1.41420996">
        <g
           id="g3638">
          <rect
             x="0.89899999"
             y="67.153"
             width="0.87599999"
             height="8.25"
             style="fill:#00519b;fill-rule:nonzero"
             id="rect3640" />
          <path
             inkscape:connector-curvature="0"
             d="m 2.785,75.403 0,-6.095 0.824,0 0,0.914 c 0.142,-0.228 0.316,-0.415 0.522,-0.56 0.205,-0.146 0.442,-0.263 0.711,-0.354 0.131,-0.04 0.269,-0.073 0.415,-0.098 0.146,-0.026 0.282,-0.038 0.409,-0.038 0.35,0 0.69,0.059 1.02,0.177 0.33,0.118 0.635,0.297 0.913,0.538 0.279,0.242 0.498,0.537 0.657,0.887 0.16,0.351 0.239,0.745 0.239,1.184 l 0,3.445 -0.847,0 0,-3.445 C 7.648,71.534 7.557,71.179 7.375,70.894 7.192,70.609 6.941,70.387 6.623,70.228 6.304,70.068 5.97,69.988 5.62,69.988 c -0.315,0 -0.624,0.069 -0.928,0.207 -0.303,0.138 -0.553,0.352 -0.749,0.642 -0.088,0.138 -0.157,0.294 -0.207,0.468 -0.05,0.174 -0.075,0.359 -0.075,0.555 l 0,3.543 -0.876,0 z"
             style="fill:#00519b;fill-rule:nonzero"
             id="path3642" />
          <path
             inkscape:connector-curvature="0"
             d="m 10.088,75.403 0,-5.35 -1.354,0 0,-0.745 1.354,0 0,-2.155 0.876,0 0,2.155 1.498,0 0,0.745 -1.498,0 0,5.35 -0.876,0 z"
             style="fill:#00519b;fill-rule:nonzero"
             id="path3644" />
          <path
             inkscape:connector-curvature="0"
             d="m 12.47,72.32 c 0,-0.472 0.098,-0.909 0.294,-1.31 0.196,-0.401 0.45,-0.736 0.763,-1.005 0.313,-0.269 0.675,-0.479 1.086,-0.632 0.2,-0.072 0.4,-0.127 0.599,-0.163 L 15.5,69.166 15.812,69.15 c 0.414,0 0.819,0.071 1.212,0.212 0.394,0.142 0.753,0.351 1.078,0.629 0.324,0.277 0.584,0.624 0.778,1.039 0.194,0.416 0.291,0.899 0.291,1.451 l 0,0.157 -5.825,0 c 0,0.149 0.023,0.297 0.069,0.442 0.046,0.146 0.115,0.304 0.207,0.475 0.085,0.142 0.173,0.262 0.265,0.36 0.092,0.098 0.204,0.198 0.334,0.3 0.123,0.087 0.243,0.162 0.36,0.224 0.118,0.062 0.257,0.122 0.418,0.18 0.277,0.087 0.54,0.131 0.79,0.131 0.457,0 0.918,-0.131 1.382,-0.394 0.465,-0.262 0.774,-0.582 0.928,-0.961 l 0.899,0 c -0.069,0.189 -0.152,0.362 -0.248,0.518 -0.096,0.156 -0.202,0.302 -0.317,0.436 -0.23,0.273 -0.493,0.499 -0.789,0.677 -0.273,0.164 -0.583,0.291 -0.931,0.382 -0.347,0.091 -0.673,0.136 -0.976,0.136 -0.292,0 -0.562,-0.033 -0.81,-0.1 C 14.679,75.376 14.415,75.265 14.135,75.109 13.643,74.84 13.243,74.462 12.934,73.976 12.624,73.489 12.47,72.937 12.47,72.32 Z m 5.854,-0.416 c -0.069,-0.333 -0.218,-0.651 -0.447,-0.953 -0.228,-0.302 -0.523,-0.545 -0.884,-0.73 -0.361,-0.184 -0.747,-0.276 -1.158,-0.276 -0.288,0 -0.544,0.028 -0.767,0.084 -0.222,0.056 -0.43,0.151 -0.622,0.285 -0.357,0.231 -0.621,0.501 -0.792,0.808 -0.171,0.308 -0.274,0.568 -0.308,0.782 l 4.978,0 z"
             style="fill:#00519b;fill-rule:nonzero"
             id="path3646" />
          <path
             inkscape:connector-curvature="0"
             d="m 19.749,75.403 0,-6.117 0.813,0 0,0.914 c 0.18,-0.352 0.438,-0.613 0.772,-0.783 0.161,-0.084 0.337,-0.149 0.527,-0.196 0.19,-0.047 0.387,-0.071 0.591,-0.071 l 0,0.838 c -0.277,0 -0.561,0.073 -0.853,0.218 -0.292,0.145 -0.529,0.344 -0.712,0.596 -0.182,0.252 -0.273,0.53 -0.273,0.835 l 0,3.766 -0.865,0 z"
             style="fill:#00519b;fill-rule:nonzero"
             id="path3648" />
          <path
             inkscape:connector-curvature="0"
             d="m 22.414,72.342 c 0,-0.636 0.16,-1.188 0.481,-1.656 0.32,-0.468 0.736,-0.841 1.247,-1.117 0.238,-0.116 0.499,-0.215 0.784,-0.296 0.284,-0.082 0.553,-0.123 0.806,-0.123 0.438,0 0.891,0.071 1.36,0.212 0.223,0.062 0.429,0.147 0.619,0.256 0.191,0.109 0.378,0.239 0.562,0.392 0.327,0.268 0.599,0.644 0.818,1.126 l -0.991,0 c -0.23,-0.381 -0.551,-0.671 -0.962,-0.87 -0.188,-0.091 -0.404,-0.164 -0.648,-0.218 -0.244,-0.054 -0.496,-0.082 -0.758,-0.082 -0.249,0 -0.473,0.03 -0.671,0.09 -0.198,0.06 -0.402,0.155 -0.614,0.286 -0.368,0.218 -0.653,0.509 -0.852,0.872 -0.092,0.163 -0.166,0.35 -0.222,0.558 -0.056,0.209 -0.084,0.399 -0.084,0.57 0,0.425 0.11,0.821 0.329,1.19 0.219,0.369 0.522,0.66 0.91,0.875 0.165,0.09 0.371,0.176 0.617,0.256 l 0.328,0.065 0.352,0.022 c 0.495,0 0.944,-0.104 1.348,-0.312 0.403,-0.208 0.72,-0.481 0.95,-0.82 l 0.968,0 c -0.038,0.076 -0.079,0.152 -0.123,0.226 -0.045,0.075 -0.093,0.15 -0.144,0.224 -0.052,0.075 -0.104,0.143 -0.156,0.205 -0.052,0.062 -0.11,0.127 -0.176,0.196 -0.23,0.251 -0.475,0.454 -0.734,0.609 -0.26,0.154 -0.553,0.27 -0.879,0.346 l -0.484,0.088 c -0.173,0.021 -0.348,0.032 -0.524,0.032 -0.588,0 -1.147,-0.136 -1.677,-0.408 -0.53,-0.272 -0.963,-0.652 -1.299,-1.139 -0.336,-0.486 -0.505,-1.023 -0.505,-1.612 l 0.024,-0.021 0,-0.022 z"
             style="fill:#00519b;fill-rule:nonzero"
             id="path3650" />
          <path
             inkscape:connector-curvature="0"
             d="m 29.635,72.938 0,-3.63 0.876,0 0,3.51 c 0,0.388 0.086,0.731 0.256,1.028 0.171,0.298 0.414,0.534 0.728,0.708 l 0.219,0.092 0.236,0.077 0.241,0.049 0.248,0.016 c 0.329,0 0.649,-0.08 0.958,-0.24 0.308,-0.159 0.56,-0.406 0.756,-0.74 0.196,-0.333 0.293,-0.723 0.293,-1.17 l 0,-3.33 0.876,0 0,6.095 -0.801,0 0,-0.958 c -0.196,0.359 -0.486,0.637 -0.87,0.833 -0.199,0.094 -0.405,0.165 -0.616,0.212 -0.088,0.018 -0.194,0.034 -0.317,0.049 -0.123,0.014 -0.231,0.022 -0.323,0.022 -0.457,0 -0.894,-0.098 -1.311,-0.294 -0.416,-0.196 -0.762,-0.499 -1.037,-0.909 -0.274,-0.41 -0.412,-0.883 -0.412,-1.42 z"
             style="fill:#00519b;fill-rule:nonzero"
             id="path3652" />
          <rect
             x="36.16"
             y="67.153"
             width="0.87599999"
             height="8.25"
             style="fill:#00519b;fill-rule:nonzero"
             id="rect3654" />
          <path
             inkscape:connector-curvature="0"
             d="m 38.628,75.403 0,-5.35 -1.354,0 0,-0.745 1.354,0 0,-2.155 0.876,0 0,2.155 1.498,0 0,0.745 -1.498,0 0,5.35 -0.876,0 z"
             style="fill:#00519b;fill-rule:nonzero"
             id="path3656" />
          <path
             inkscape:connector-curvature="0"
             d="m 41.247,72.938 0,-3.63 0.875,0 0,3.51 c 0,0.388 0.086,0.731 0.257,1.028 0.17,0.298 0.413,0.534 0.727,0.708 l 0.219,0.092 0.236,0.077 0.241,0.049 0.248,0.016 c 0.33,0 0.649,-0.08 0.958,-0.24 0.309,-0.159 0.561,-0.406 0.756,-0.74 0.196,-0.333 0.294,-0.723 0.294,-1.17 l 0,-3.33 0.876,0 0,6.095 -0.801,0 0,-0.958 c -0.196,0.359 -0.486,0.637 -0.87,0.833 -0.2,0.094 -0.406,0.165 -0.617,0.212 -0.088,0.018 -0.194,0.034 -0.317,0.049 -0.123,0.014 -0.23,0.022 -0.322,0.022 -0.458,0 -0.894,-0.098 -1.311,-0.294 -0.417,-0.196 -0.763,-0.499 -1.037,-0.909 -0.275,-0.41 -0.412,-0.883 -0.412,-1.42 z"
             style="fill:#00519b;fill-rule:nonzero"
             id="path3658" />
          <path
             inkscape:connector-curvature="0"
             d="m 47.783,75.403 0,-6.117 0.812,0 0,0.914 c 0.181,-0.352 0.438,-0.613 0.772,-0.783 0.162,-0.084 0.337,-0.149 0.528,-0.196 0.19,-0.047 0.387,-0.071 0.59,-0.071 l 0,0.838 c -0.276,0 -0.561,0.073 -0.853,0.218 -0.292,0.145 -0.529,0.344 -0.711,0.596 -0.183,0.252 -0.274,0.53 -0.274,0.835 l 0,3.766 -0.864,0 z"
             style="fill:#00519b;fill-rule:nonzero"
             id="path3660" />
          <path
             inkscape:connector-curvature="0"
             d="m 50.424,72.396 c 0,-0.624 0.166,-1.185 0.499,-1.683 0.332,-0.497 0.765,-0.882 1.299,-1.154 0.534,-0.273 1.087,-0.409 1.659,-0.409 0.261,0 0.509,0.028 0.743,0.084 0.235,0.057 0.475,0.139 0.721,0.248 0.441,0.207 0.799,0.542 1.071,1.007 l 0,-1.181 0.853,0 0,6.095 -0.853,0 0,-1.159 c -0.23,0.397 -0.582,0.713 -1.054,0.948 -0.472,0.235 -0.989,0.352 -1.55,0.352 -0.323,0 -0.607,-0.036 -0.853,-0.109 -0.265,-0.065 -0.536,-0.168 -0.812,-0.31 -0.507,-0.261 -0.921,-0.629 -1.242,-1.103 -0.321,-0.474 -0.481,-1.016 -0.481,-1.626 z m 0.899,-0.19 c 0,0.49 0.116,0.929 0.349,1.318 0.232,0.389 0.54,0.69 0.924,0.904 l 0.283,0.131 0.311,0.109 c 0.196,0.055 0.403,0.082 0.622,0.082 l 0.294,0 0.219,-0.038 c 0.161,-0.029 0.328,-0.079 0.501,-0.148 0.323,-0.131 0.606,-0.311 0.85,-0.542 0.244,-0.231 0.428,-0.487 0.553,-0.767 0.125,-0.28 0.187,-0.565 0.187,-0.856 0,-0.342 -0.059,-0.655 -0.178,-0.941 -0.119,-0.285 -0.294,-0.534 -0.525,-0.747 -0.23,-0.213 -0.501,-0.39 -0.812,-0.532 -0.131,-0.051 -0.29,-0.102 -0.478,-0.153 l -0.236,-0.043 -0.26,-0.017 c -0.511,0 -0.959,0.117 -1.345,0.349 -0.386,0.232 -0.692,0.525 -0.919,0.877 -0.227,0.352 -0.34,0.69 -0.34,1.014 z"
             style="fill:#00519b;fill-rule:nonzero"
             id="path3662" />
          <rect
             x="58.118"
             y="67.153"
             width="0.87599999"
             height="8.25"
             style="fill:#00519b;fill-rule:nonzero"
             id="rect3664" />
          <path
             inkscape:connector-curvature="0"
             d="m 62.272,70.703 c 0.057,-0.551 0.219,-1.052 0.484,-1.503 0.265,-0.45 0.61,-0.838 1.037,-1.165 0.426,-0.327 0.901,-0.577 1.426,-0.751 0.524,-0.175 1.049,-0.262 1.576,-0.262 l 0.282,0 c 0.084,0 0.142,0.002 0.173,0.006 0.077,0.018 0.167,0.032 0.271,0.041 0.103,0.009 0.247,0.039 0.432,0.09 0.392,0.091 0.755,0.225 1.089,0.403 0.334,0.178 0.655,0.415 0.962,0.709 0.15,0.139 0.29,0.293 0.421,0.464 0.115,0.149 0.234,0.326 0.357,0.529 l -0.968,0 c -0.231,-0.301 -0.511,-0.561 -0.841,-0.781 -0.331,-0.221 -0.682,-0.388 -1.055,-0.501 -0.184,-0.052 -0.363,-0.09 -0.536,-0.116 l -0.265,-0.027 -0.276,0 c -0.469,0 -0.925,0.08 -1.369,0.242 -0.443,0.161 -0.839,0.394 -1.187,0.697 -0.347,0.303 -0.628,0.674 -0.841,1.114 -0.213,0.439 -0.32,0.911 -0.32,1.416 0,0.512 0.101,0.973 0.303,1.383 0.202,0.41 0.479,0.771 0.832,1.081 0.354,0.311 0.755,0.557 1.205,0.738 0.23,0.087 0.455,0.153 0.674,0.196 l 0.322,0.044 0.358,0.022 c 0.261,0 0.539,-0.033 0.835,-0.099 0.296,-0.065 0.572,-0.165 0.83,-0.3 0.534,-0.251 0.989,-0.625 1.365,-1.12 l 0.968,0 c -0.238,0.393 -0.504,0.733 -0.798,1.02 -0.294,0.288 -0.614,0.523 -0.962,0.707 -0.348,0.183 -0.719,0.324 -1.115,0.422 -0.161,0.041 -0.349,0.075 -0.564,0.104 -0.104,0.011 -0.2,0.02 -0.289,0.027 -0.088,0.008 -0.178,0.011 -0.27,0.011 -0.596,0 -1.166,-0.102 -1.712,-0.307 -0.545,-0.205 -1.032,-0.494 -1.46,-0.866 -0.428,-0.372 -0.77,-0.826 -1.026,-1.362 -0.255,-0.535 -0.383,-1.119 -0.383,-1.75 0,-0.174 0.012,-0.36 0.035,-0.556 z"
             style="fill:#00519b;fill-rule:nonzero"
             id="path3666" />
          <path
             inkscape:connector-curvature="0"
             d="m 71.182,72.249 c 0,-0.41 0.085,-0.793 0.256,-1.149 0.171,-0.356 0.412,-0.682 0.721,-0.978 0.31,-0.296 0.68,-0.529 1.11,-0.7 0.212,-0.08 0.435,-0.141 0.669,-0.185 0.235,-0.043 0.477,-0.065 0.727,-0.065 0.465,0 0.943,0.125 1.433,0.376 0.49,0.25 0.91,0.601 1.26,1.051 0.323,0.417 0.517,0.909 0.582,1.476 l 0,0.234 c 0,0.454 -0.087,0.874 -0.262,1.261 -0.174,0.387 -0.427,0.733 -0.757,1.038 -0.311,0.294 -0.671,0.523 -1.082,0.689 -0.411,0.165 -0.842,0.247 -1.295,0.247 -0.403,0 -0.798,-0.069 -1.183,-0.207 -0.386,-0.138 -0.744,-0.349 -1.074,-0.634 -0.33,-0.285 -0.597,-0.637 -0.8,-1.057 -0.204,-0.419 -0.305,-0.885 -0.305,-1.397 z m 0.852,0.049 c 0,0.487 0.116,0.913 0.346,1.278 0.231,0.365 0.538,0.653 0.922,0.863 0.211,0.106 0.417,0.187 0.617,0.245 l 0.316,0.066 0.335,0.022 c 0.395,0 0.776,-0.094 1.143,-0.281 0.367,-0.187 0.679,-0.469 0.937,-0.847 0.126,-0.185 0.222,-0.39 0.288,-0.613 0.065,-0.224 0.098,-0.468 0.098,-0.733 l -0.018,-0.294 c 0,-0.04 -0.007,-0.084 -0.023,-0.131 l -0.04,-0.152 C 76.909,71.535 76.822,71.35 76.696,71.165 76.481,70.823 76.175,70.538 75.78,70.31 c -0.396,-0.229 -0.799,-0.344 -1.21,-0.344 -0.4,0 -0.796,0.103 -1.19,0.308 -0.394,0.205 -0.717,0.49 -0.968,0.856 -0.252,0.365 -0.378,0.754 -0.378,1.168 z"
             style="fill:#00519b;fill-rule:nonzero"
             id="path3668" />
          <path
             inkscape:connector-curvature="0"
             d="m 78.496,75.403 0,-6.095 0.824,0 0,0.914 c 0.142,-0.228 0.316,-0.415 0.521,-0.56 0.206,-0.146 0.443,-0.263 0.712,-0.354 0.13,-0.04 0.269,-0.073 0.415,-0.098 0.145,-0.026 0.282,-0.038 0.409,-0.038 0.349,0 0.689,0.059 1.019,0.177 0.331,0.118 0.635,0.297 0.914,0.538 0.278,0.242 0.497,0.537 0.657,0.887 0.159,0.351 0.239,0.745 0.239,1.184 l 0,3.445 -0.847,0 0,-3.445 c 0,-0.424 -0.092,-0.779 -0.274,-1.064 -0.182,-0.285 -0.433,-0.507 -0.752,-0.666 -0.319,-0.16 -0.653,-0.24 -1.002,-0.24 -0.315,0 -0.625,0.069 -0.928,0.207 -0.304,0.138 -0.553,0.352 -0.749,0.642 -0.088,0.138 -0.158,0.294 -0.208,0.468 -0.05,0.174 -0.074,0.359 -0.074,0.555 l 0,3.543 -0.876,0 z"
             style="fill:#00519b;fill-rule:nonzero"
             id="path3670" />
          <path
             inkscape:connector-curvature="0"
             d="M 84.761,71.089 84.75,70.844 c 0,-0.131 0.011,-0.259 0.034,-0.384 0.023,-0.125 0.067,-0.239 0.133,-0.34 0.107,-0.207 0.245,-0.375 0.412,-0.504 0.167,-0.129 0.369,-0.241 0.608,-0.335 l 0.316,-0.082 0.179,-0.027 0.121,0 c 0.215,0 0.431,0.033 0.648,0.1 0.217,0.068 0.414,0.168 0.591,0.303 0.177,0.134 0.321,0.306 0.432,0.516 l 0.127,0.332 0.04,0.191 0.017,0.196 -0.887,0 c 0,-0.145 -0.024,-0.27 -0.072,-0.376 -0.048,-0.105 -0.122,-0.194 -0.222,-0.266 -0.188,-0.135 -0.413,-0.202 -0.674,-0.202 -0.204,0 -0.419,0.071 -0.645,0.213 -0.108,0.072 -0.188,0.164 -0.242,0.275 -0.054,0.111 -0.081,0.23 -0.081,0.357 l 0.075,0.305 c 0.058,0.181 0.257,0.348 0.599,0.501 l 1.043,0.387 c 0.35,0.119 0.646,0.302 0.89,0.547 0.244,0.245 0.366,0.591 0.366,1.038 l -0.023,0.337 c -0.069,0.534 -0.306,0.937 -0.711,1.21 -0.406,0.272 -0.837,0.408 -1.294,0.408 -0.376,0 -0.716,-0.081 -1.02,-0.243 -0.303,-0.161 -0.545,-0.393 -0.726,-0.695 -0.18,-0.302 -0.271,-0.632 -0.271,-0.988 l 0.876,-0.022 c 0,0.164 0.029,0.32 0.086,0.468 0.057,0.147 0.15,0.275 0.278,0.382 0.128,0.108 0.261,0.194 0.399,0.26 l 0.206,0.065 0.218,0.022 c 0.149,0 0.287,-0.027 0.413,-0.081 0.126,-0.055 0.248,-0.138 0.367,-0.251 0.217,-0.203 0.326,-0.445 0.326,-0.724 0,-0.247 -0.087,-0.473 -0.261,-0.679 -0.175,-0.205 -0.442,-0.351 -0.803,-0.438 -0.486,-0.131 -0.903,-0.304 -1.25,-0.52 -0.347,-0.216 -0.549,-0.553 -0.607,-1.011 z"
             style="fill:#00519b;fill-rule:nonzero"
             id="path3672" />
          <path
             inkscape:connector-curvature="0"
             d="m 88.998,72.938 0,-3.63 0.876,0 0,3.51 c 0,0.388 0.086,0.731 0.256,1.028 0.171,0.298 0.414,0.534 0.728,0.708 l 0.219,0.092 0.236,0.077 0.241,0.049 0.248,0.016 c 0.329,0 0.649,-0.08 0.958,-0.24 0.308,-0.159 0.56,-0.406 0.756,-0.74 0.196,-0.333 0.293,-0.723 0.293,-1.17 l 0,-3.33 0.876,0 0,6.095 -0.801,0 0,-0.958 c -0.196,0.359 -0.486,0.637 -0.87,0.833 -0.199,0.094 -0.405,0.165 -0.616,0.212 -0.089,0.018 -0.194,0.034 -0.317,0.049 -0.123,0.014 -0.231,0.022 -0.323,0.022 -0.457,0 -0.894,-0.098 -1.311,-0.294 -0.416,-0.196 -0.762,-0.499 -1.037,-0.909 -0.274,-0.41 -0.412,-0.883 -0.412,-1.42 z"
             style="fill:#00519b;fill-rule:nonzero"
             id="path3674" />
          <rect
             x="95.523003"
             y="67.153"
             width="0.87599999"
             height="8.25"
             style="fill:#00519b;fill-rule:nonzero"
             id="rect3676" />
          <path
             inkscape:connector-curvature="0"
             d="m 97.991,75.403 0,-5.35 -1.354,0 0,-0.745 1.354,0 0,-2.155 0.876,0 0,2.155 1.498,0 0,0.745 -1.498,0 0,5.35 -0.876,0 z"
             style="fill:#00519b;fill-rule:nonzero"
             id="path3678" />
          <path
             inkscape:connector-curvature="0"
             d="m 100.35,72.396 c 0,-0.624 0.167,-1.185 0.499,-1.683 0.332,-0.497 0.765,-0.882 1.299,-1.154 0.534,-0.273 1.087,-0.409 1.659,-0.409 0.262,0 0.509,0.028 0.744,0.084 0.234,0.057 0.474,0.139 0.72,0.248 0.442,0.207 0.799,0.542 1.072,1.007 l 0,-1.181 0.852,0 0,6.095 -0.852,0 0,-1.159 c -0.231,0.397 -0.582,0.713 -1.055,0.948 -0.472,0.235 -0.989,0.352 -1.55,0.352 -0.322,0 -0.607,-0.036 -0.852,-0.109 -0.265,-0.065 -0.536,-0.168 -0.813,-0.31 -0.507,-0.261 -0.921,-0.629 -1.242,-1.103 -0.32,-0.474 -0.481,-1.016 -0.481,-1.626 z m 0.899,-0.19 c 0,0.49 0.116,0.929 0.349,1.318 0.232,0.389 0.54,0.69 0.925,0.904 l 0.282,0.131 0.311,0.109 c 0.196,0.055 0.403,0.082 0.622,0.082 l 0.294,0 0.219,-0.038 c 0.161,-0.029 0.329,-0.079 0.501,-0.148 0.323,-0.131 0.606,-0.311 0.85,-0.542 0.244,-0.231 0.429,-0.487 0.553,-0.767 0.125,-0.28 0.188,-0.565 0.188,-0.856 0,-0.342 -0.06,-0.655 -0.179,-0.941 -0.119,-0.285 -0.294,-0.534 -0.524,-0.747 -0.231,-0.213 -0.502,-0.39 -0.813,-0.532 -0.13,-0.051 -0.29,-0.102 -0.478,-0.153 l -0.236,-0.043 -0.259,-0.017 c -0.511,0 -0.96,0.117 -1.346,0.349 -0.386,0.232 -0.692,0.525 -0.919,0.877 -0.226,0.352 -0.34,0.69 -0.34,1.014 z"
             style="fill:#00519b;fill-rule:nonzero"
             id="path3680" />
          <path
             inkscape:connector-curvature="0"
             d="m 108.045,75.403 0,-6.095 0.824,0 0,0.914 c 0.142,-0.228 0.316,-0.415 0.521,-0.56 0.206,-0.146 0.443,-0.263 0.712,-0.354 0.13,-0.04 0.269,-0.073 0.415,-0.098 0.145,-0.026 0.282,-0.038 0.409,-0.038 0.349,0 0.689,0.059 1.019,0.177 0.331,0.118 0.635,0.297 0.914,0.538 0.278,0.242 0.497,0.537 0.657,0.887 0.159,0.351 0.239,0.745 0.239,1.184 l 0,3.445 -0.847,0 0,-3.445 c 0,-0.424 -0.092,-0.779 -0.274,-1.064 -0.182,-0.285 -0.433,-0.507 -0.752,-0.666 -0.319,-0.16 -0.653,-0.24 -1.002,-0.24 -0.315,0 -0.625,0.069 -0.928,0.207 -0.304,0.138 -0.553,0.352 -0.749,0.642 -0.089,0.138 -0.158,0.294 -0.208,0.468 -0.05,0.174 -0.075,0.359 -0.075,0.555 l 0,3.543 -0.875,0 z"
             style="fill:#00519b;fill-rule:nonzero"
             id="path3682" />
          <path
             inkscape:connector-curvature="0"
             d="m 114.356,72.342 c 0,-0.636 0.161,-1.188 0.481,-1.656 0.321,-0.468 0.737,-0.841 1.248,-1.117 0.238,-0.116 0.499,-0.215 0.783,-0.296 0.285,-0.082 0.553,-0.123 0.807,-0.123 0.438,0 0.891,0.071 1.36,0.212 0.223,0.062 0.429,0.147 0.619,0.256 0.19,0.109 0.378,0.239 0.562,0.392 0.326,0.268 0.599,0.644 0.818,1.126 l -0.991,0 c -0.23,-0.381 -0.551,-0.671 -0.962,-0.87 -0.188,-0.091 -0.404,-0.164 -0.648,-0.218 -0.244,-0.054 -0.497,-0.082 -0.758,-0.082 -0.25,0 -0.473,0.03 -0.671,0.09 -0.198,0.06 -0.403,0.155 -0.614,0.286 -0.369,0.218 -0.653,0.509 -0.853,0.872 -0.092,0.163 -0.166,0.35 -0.221,0.558 -0.056,0.209 -0.084,0.399 -0.084,0.57 0,0.425 0.109,0.821 0.328,1.19 0.219,0.369 0.523,0.66 0.911,0.875 0.165,0.09 0.37,0.176 0.616,0.256 l 0.329,0.065 0.351,0.022 c 0.496,0 0.945,-0.104 1.348,-0.312 0.404,-0.208 0.721,-0.481 0.951,-0.82 l 0.968,0 c -0.038,0.076 -0.08,0.152 -0.124,0.226 -0.044,0.075 -0.092,0.15 -0.144,0.224 -0.052,0.075 -0.104,0.143 -0.155,0.205 -0.052,0.062 -0.111,0.127 -0.176,0.196 -0.231,0.251 -0.475,0.454 -0.735,0.609 -0.259,0.154 -0.552,0.27 -0.878,0.346 l -0.484,0.088 c -0.173,0.021 -0.348,0.032 -0.525,0.032 -0.587,0 -1.146,-0.136 -1.676,-0.408 -0.53,-0.272 -0.964,-0.652 -1.3,-1.139 -0.336,-0.486 -0.504,-1.023 -0.504,-1.612 l 0.023,-0.021 0,-0.022 z"
             style="fill:#00519b;fill-rule:nonzero"
             id="path3684" />
          <path
             inkscape:connector-curvature="0"
             d="m 123.424,75.207 -2.474,-5.899 0.923,-0.001 2.081,4.857 2.182,-4.856 0.916,0 -3.728,8.223 -0.922,0 1.022,-2.324 z"
             style="fill:#00519b;fill-rule:nonzero"
             id="path3686" />
          <path
             inkscape:connector-curvature="0"
             d="m 129.626,72.396 c 0,-0.624 0.166,-1.185 0.499,-1.683 0.332,-0.497 0.765,-0.882 1.299,-1.154 0.534,-0.273 1.087,-0.409 1.659,-0.409 0.261,0 0.509,0.028 0.744,0.084 0.234,0.057 0.474,0.139 0.72,0.248 0.441,0.207 0.799,0.542 1.071,1.007 l 0,-1.181 0.853,0 0,6.095 -0.853,0 0,-1.159 c -0.23,0.397 -0.581,0.713 -1.054,0.948 -0.472,0.235 -0.989,0.352 -1.55,0.352 -0.323,0 -0.607,-0.036 -0.853,-0.109 -0.265,-0.065 -0.535,-0.168 -0.812,-0.31 -0.507,-0.261 -0.921,-0.629 -1.242,-1.103 -0.32,-0.474 -0.481,-1.016 -0.481,-1.626 z m 0.899,-0.19 c 0,0.49 0.116,0.929 0.349,1.318 0.232,0.389 0.54,0.69 0.924,0.904 l 0.283,0.131 0.311,0.109 c 0.196,0.055 0.403,0.082 0.622,0.082 l 0.294,0 0.219,-0.038 c 0.161,-0.029 0.328,-0.079 0.501,-0.148 0.323,-0.131 0.606,-0.311 0.85,-0.542 0.244,-0.231 0.428,-0.487 0.553,-0.767 0.125,-0.28 0.187,-0.565 0.187,-0.856 0,-0.342 -0.059,-0.655 -0.178,-0.941 -0.119,-0.285 -0.294,-0.534 -0.524,-0.747 -0.231,-0.213 -0.502,-0.39 -0.813,-0.532 -0.13,-0.051 -0.29,-0.102 -0.478,-0.153 l -0.236,-0.043 -0.26,-0.017 c -0.511,0 -0.959,0.117 -1.345,0.349 -0.386,0.232 -0.692,0.525 -0.919,0.877 -0.227,0.352 -0.34,0.69 -0.34,1.014 z"
             style="fill:#00519b;fill-rule:nonzero"
             id="path3688" />
          <path
             inkscape:connector-curvature="0"
             d="m 137.321,75.403 0,-6.095 0.823,0 0,0.914 c 0.143,-0.228 0.316,-0.415 0.522,-0.56 0.205,-0.146 0.443,-0.263 0.711,-0.354 0.131,-0.04 0.269,-0.073 0.415,-0.098 0.146,-0.026 0.283,-0.038 0.409,-0.038 0.35,0 0.69,0.059 1.02,0.177 0.331,0.118 0.635,0.297 0.913,0.538 0.279,0.242 0.498,0.537 0.657,0.887 0.16,0.351 0.239,0.745 0.239,1.184 l 0,3.445 -0.847,0 0,-3.445 c 0,-0.424 -0.091,-0.779 -0.273,-1.064 -0.183,-0.285 -0.433,-0.507 -0.752,-0.666 -0.319,-0.16 -0.653,-0.24 -1.003,-0.24 -0.315,0 -0.624,0.069 -0.927,0.207 -0.304,0.138 -0.553,0.352 -0.749,0.642 -0.089,0.138 -0.158,0.294 -0.208,0.468 -0.05,0.174 -0.075,0.359 -0.075,0.555 l 0,3.543 -0.875,0 z"
             style="fill:#00519b;fill-rule:nonzero"
             id="path3690" />
          <path
             inkscape:connector-curvature="0"
             d="m 143.632,72.077 c 0.054,-0.574 0.241,-1.078 0.562,-1.512 0.321,-0.435 0.729,-0.777 1.224,-1.028 0.223,-0.105 0.473,-0.2 0.749,-0.283 l 0.208,-0.044 0.219,-0.038 0.195,-0.017 0.133,0 c 0.557,0 1.07,0.099 1.538,0.297 0.469,0.198 0.849,0.507 1.141,0.928 l 0,-3.227 0.876,0 0,8.25 -0.824,0 0,-1.159 c -0.296,0.426 -0.662,0.749 -1.098,0.97 -0.436,0.22 -0.963,0.33 -1.581,0.33 l -0.19,0 c -0.073,0 -0.156,-0.009 -0.248,-0.027 -0.1,-0.011 -0.213,-0.04 -0.34,-0.087 -0.25,-0.076 -0.517,-0.186 -0.801,-0.327 -0.518,-0.273 -0.944,-0.65 -1.276,-1.131 -0.332,-0.482 -0.499,-1.028 -0.499,-1.638 l 0,-0.131 c 0,-0.066 0.004,-0.107 0.012,-0.126 z m 0.899,-0.075 -0.023,0.337 c 0,0.385 0.108,0.762 0.325,1.132 0.217,0.37 0.524,0.677 0.919,0.92 0.181,0.108 0.386,0.197 0.617,0.266 l 0.328,0.066 0.346,0.021 c 0.415,0 0.822,-0.098 1.221,-0.294 0.4,-0.195 0.734,-0.487 1.003,-0.876 0.111,-0.167 0.204,-0.366 0.277,-0.598 0.073,-0.232 0.109,-0.476 0.109,-0.729 0,-0.084 -0.004,-0.156 -0.011,-0.215 -0.008,-0.06 -0.025,-0.134 -0.052,-0.221 -0.039,-0.152 -0.108,-0.321 -0.208,-0.506 -0.173,-0.355 -0.46,-0.668 -0.861,-0.936 -0.402,-0.268 -0.894,-0.403 -1.478,-0.403 l -0.167,0 -0.196,0.022 c -0.108,0.011 -0.232,0.04 -0.375,0.087 -0.253,0.065 -0.502,0.176 -0.746,0.332 -0.244,0.156 -0.462,0.372 -0.654,0.648 -0.169,0.254 -0.293,0.569 -0.374,0.947 z"
             style="fill:#00519b;fill-rule:nonzero"
             id="path3692" />
          <path
             inkscape:connector-curvature="0"
             d="m 154.417,73.095 c 0,0.343 0.096,0.643 0.288,0.901 0.161,0.233 0.386,0.417 0.674,0.552 0.288,0.134 0.58,0.202 0.876,0.202 0.446,0 0.84,-0.157 1.184,-0.471 0.344,-0.314 0.516,-0.686 0.516,-1.114 0,-0.352 -0.09,-0.657 -0.27,-0.915 -0.146,-0.229 -0.468,-0.434 -0.966,-0.615 l -1.402,-0.452 c -0.463,-0.149 -0.838,-0.366 -1.123,-0.651 -0.285,-0.285 -0.428,-0.711 -0.428,-1.277 l 0,-0.098 0,-0.125 c 0,-0.145 0.02,-0.283 0.06,-0.414 0.041,-0.131 0.097,-0.267 0.17,-0.409 0.127,-0.232 0.304,-0.437 0.53,-0.615 0.227,-0.178 0.486,-0.318 0.778,-0.419 0.154,-0.051 0.3,-0.089 0.438,-0.115 0.139,-0.025 0.286,-0.038 0.444,-0.038 0.472,0 0.889,0.105 1.25,0.313 0.361,0.209 0.646,0.482 0.856,0.819 0.209,0.338 0.314,0.662 0.314,0.974 l 0,0.109 -0.876,0 c -0.058,-0.444 -0.224,-0.782 -0.498,-1.013 -0.275,-0.232 -0.616,-0.367 -1.023,-0.407 -0.265,0 -0.512,0.054 -0.74,0.163 -0.229,0.109 -0.426,0.264 -0.591,0.463 -0.115,0.157 -0.194,0.366 -0.236,0.627 0,0.516 0.133,0.869 0.4,1.057 0.267,0.189 0.725,0.375 1.374,0.556 0.311,0.084 0.593,0.177 0.844,0.281 0.252,0.103 0.478,0.221 0.677,0.351 0.392,0.251 0.671,0.678 0.836,1.281 l 0.034,0.289 0,0.234 c 0,0.276 -0.054,0.56 -0.163,0.85 -0.11,0.291 -0.269,0.551 -0.478,0.78 -0.208,0.229 -0.487,0.421 -0.836,0.577 -0.173,0.073 -0.351,0.127 -0.535,0.164 l -0.282,0.038 -0.31,0.016 c -0.383,0 -0.745,-0.06 -1.084,-0.18 -0.339,-0.12 -0.631,-0.293 -0.877,-0.52 -0.245,-0.228 -0.436,-0.493 -0.574,-0.797 -0.138,-0.303 -0.207,-0.621 -0.207,-0.952 l 0.956,0 z"
             style="fill:#00519b;fill-rule:nonzero"
             id="path3694" />
          <path
             inkscape:connector-curvature="0"
             d="m 159.951,75.403 0,-5.35 -1.354,0 0,-0.745 1.354,0 0,-2.155 0.875,0 0,2.155 1.499,0 0,0.745 -1.499,0 0,5.35 -0.875,0 z"
             style="fill:#00519b;fill-rule:nonzero"
             id="path3696" />
          <path
             inkscape:connector-curvature="0"
             d="m 162.569,72.938 0,-3.63 0.876,0 0,3.51 c 0,0.388 0.085,0.731 0.256,1.028 0.17,0.298 0.413,0.534 0.727,0.708 l 0.219,0.092 0.236,0.077 0.242,0.049 0.247,0.016 c 0.33,0 0.649,-0.08 0.958,-0.24 0.309,-0.159 0.561,-0.406 0.757,-0.74 0.195,-0.333 0.293,-0.723 0.293,-1.17 l 0,-3.33 0.876,0 0,6.095 -0.801,0 0,-0.958 c -0.196,0.359 -0.486,0.637 -0.87,0.833 -0.2,0.094 -0.405,0.165 -0.617,0.212 -0.088,0.018 -0.194,0.034 -0.317,0.049 -0.123,0.014 -0.23,0.022 -0.322,0.022 -0.457,0 -0.894,-0.098 -1.311,-0.294 -0.417,-0.196 -0.763,-0.499 -1.037,-0.909 -0.275,-0.41 -0.412,-0.883 -0.412,-1.42 z"
             style="fill:#00519b;fill-rule:nonzero"
             id="path3698" />
          <path
             inkscape:connector-curvature="0"
             d="m 168.857,72.077 c 0.054,-0.574 0.241,-1.078 0.562,-1.512 0.321,-0.435 0.729,-0.777 1.224,-1.028 0.223,-0.105 0.473,-0.2 0.749,-0.283 l 0.208,-0.044 0.219,-0.038 0.196,-0.017 0.132,0 c 0.557,0 1.07,0.099 1.539,0.297 0.468,0.198 0.849,0.507 1.141,0.928 l 0,-3.227 0.875,0 0,8.25 -0.824,0 0,-1.159 c -0.295,0.426 -0.661,0.749 -1.097,0.97 -0.436,0.22 -0.963,0.33 -1.582,0.33 l -0.19,0 c -0.073,0 -0.156,-0.009 -0.248,-0.027 -0.1,-0.011 -0.213,-0.04 -0.34,-0.087 -0.249,-0.076 -0.516,-0.186 -0.801,-0.327 -0.518,-0.273 -0.944,-0.65 -1.276,-1.131 -0.332,-0.482 -0.498,-1.028 -0.498,-1.638 l 0,-0.131 c 0,-0.066 0.004,-0.107 0.011,-0.126 z m 0.899,-0.075 -0.023,0.337 c 0,0.385 0.109,0.762 0.326,1.132 0.217,0.37 0.523,0.677 0.919,0.92 0.18,0.108 0.386,0.197 0.616,0.266 l 0.329,0.066 0.345,0.021 c 0.415,0 0.822,-0.098 1.222,-0.294 0.399,-0.195 0.733,-0.487 1.002,-0.876 0.112,-0.167 0.204,-0.366 0.277,-0.598 0.073,-0.232 0.109,-0.476 0.109,-0.729 0,-0.084 -0.003,-0.156 -0.011,-0.215 -0.008,-0.06 -0.025,-0.134 -0.052,-0.221 -0.038,-0.152 -0.108,-0.321 -0.207,-0.506 -0.173,-0.355 -0.46,-0.668 -0.862,-0.936 -0.401,-0.268 -0.894,-0.403 -1.478,-0.403 l -0.167,0 -0.196,0.022 c -0.107,0.011 -0.232,0.04 -0.374,0.087 -0.254,0.065 -0.502,0.176 -0.746,0.332 -0.244,0.156 -0.462,0.372 -0.654,0.648 -0.169,0.254 -0.294,0.569 -0.375,0.947 z"
             style="fill:#00519b;fill-rule:nonzero"
             id="path3700" />
          <path
             inkscape:connector-curvature="0"
             d="m 176.552,75.403 0,-6.095 0.875,0 0,6.095 -0.875,0 z m 0,-6.83 0,-1.42 0.875,0 0,1.42 -0.875,0 z"
             style="fill:#00519b;fill-rule:nonzero"
             id="path3702" />
          <path
             inkscape:connector-curvature="0"
             d="m 178.029,72.32 c 0,-0.472 0.098,-0.909 0.294,-1.31 0.196,-0.401 0.45,-0.736 0.763,-1.005 0.313,-0.269 0.675,-0.479 1.086,-0.632 0.2,-0.072 0.4,-0.127 0.6,-0.163 l 0.288,-0.044 0.311,-0.016 c 0.415,0 0.819,0.071 1.213,0.212 0.393,0.142 0.753,0.351 1.077,0.629 0.325,0.277 0.584,0.624 0.778,1.039 0.194,0.416 0.291,0.899 0.291,1.451 l 0,0.157 -5.825,0 c 0,0.149 0.023,0.297 0.069,0.442 0.046,0.146 0.115,0.304 0.207,0.475 0.085,0.142 0.173,0.262 0.265,0.36 0.093,0.098 0.204,0.198 0.335,0.3 0.123,0.087 0.243,0.162 0.36,0.224 0.117,0.062 0.256,0.122 0.417,0.18 0.277,0.087 0.54,0.131 0.79,0.131 0.457,0 0.918,-0.131 1.383,-0.394 0.464,-0.262 0.774,-0.582 0.927,-0.961 l 0.899,0 c -0.069,0.189 -0.152,0.362 -0.248,0.518 -0.096,0.156 -0.201,0.302 -0.317,0.436 -0.23,0.273 -0.493,0.499 -0.789,0.677 -0.273,0.164 -0.583,0.291 -0.93,0.382 -0.348,0.091 -0.674,0.136 -0.977,0.136 -0.292,0 -0.562,-0.033 -0.81,-0.1 -0.247,-0.068 -0.511,-0.179 -0.792,-0.335 -0.492,-0.269 -0.892,-0.647 -1.201,-1.133 -0.309,-0.487 -0.464,-1.039 -0.464,-1.656 z m 5.854,-0.416 c -0.069,-0.333 -0.218,-0.651 -0.447,-0.953 -0.228,-0.302 -0.523,-0.545 -0.884,-0.73 -0.361,-0.184 -0.747,-0.276 -1.158,-0.276 -0.288,0 -0.544,0.028 -0.766,0.084 -0.223,0.056 -0.431,0.151 -0.623,0.285 -0.357,0.231 -0.621,0.501 -0.792,0.808 -0.171,0.308 -0.274,0.568 -0.308,0.782 l 4.978,0 z"
             style="fill:#00519b;fill-rule:nonzero"
             id="path3704" />
          <path
             inkscape:connector-curvature="0"
             d="m 185.015,71.089 -0.012,-0.245 c 0,-0.131 0.012,-0.259 0.035,-0.384 0.023,-0.125 0.067,-0.239 0.132,-0.34 0.108,-0.207 0.245,-0.375 0.412,-0.504 0.167,-0.129 0.37,-0.241 0.608,-0.335 l 0.317,-0.082 0.179,-0.027 0.121,0 c 0.215,0 0.431,0.033 0.648,0.1 0.217,0.068 0.414,0.168 0.59,0.303 0.177,0.134 0.321,0.306 0.432,0.516 l 0.127,0.332 0.041,0.191 0.017,0.196 -0.887,0 c 0,-0.145 -0.024,-0.27 -0.073,-0.376 -0.048,-0.105 -0.121,-0.194 -0.221,-0.266 -0.189,-0.135 -0.413,-0.202 -0.674,-0.202 -0.204,0 -0.419,0.071 -0.646,0.213 -0.107,0.072 -0.188,0.164 -0.242,0.275 -0.054,0.111 -0.08,0.23 -0.08,0.357 l 0.074,0.305 c 0.058,0.181 0.258,0.348 0.6,0.501 l 1.043,0.387 c 0.349,0.119 0.646,0.302 0.89,0.547 0.244,0.245 0.366,0.591 0.366,1.038 l -0.023,0.337 c -0.07,0.534 -0.307,0.937 -0.712,1.21 -0.405,0.272 -0.836,0.408 -1.294,0.408 -0.376,0 -0.716,-0.081 -1.019,-0.243 -0.304,-0.161 -0.546,-0.393 -0.726,-0.695 -0.181,-0.302 -0.271,-0.632 -0.271,-0.988 l 0.876,-0.022 c 0,0.164 0.028,0.32 0.086,0.468 0.057,0.147 0.15,0.275 0.278,0.382 0.128,0.108 0.261,0.194 0.398,0.26 l 0.207,0.065 0.217,0.022 c 0.149,0 0.287,-0.027 0.413,-0.081 0.126,-0.055 0.249,-0.138 0.367,-0.251 0.218,-0.203 0.327,-0.445 0.327,-0.724 0,-0.247 -0.087,-0.473 -0.262,-0.679 -0.174,-0.205 -0.442,-0.351 -0.802,-0.438 -0.487,-0.131 -0.904,-0.304 -1.251,-0.52 -0.347,-0.216 -0.549,-0.553 -0.606,-1.011 z"
             style="fill:#00519b;fill-rule:nonzero"
             id="path3706" />
        </g>
        <path
           inkscape:connector-curvature="0"
           d="m 61.39,27.358 c 0.317,-3.253 1.206,-6.208 2.665,-8.862 1.46,-2.654 3.364,-4.945 5.712,-6.871 2.348,-1.926 4.966,-3.403 7.854,-4.431 2.888,-1.027 5.781,-1.541 8.679,-1.541 l 1.555,0 c 0.465,0 0.783,0.011 0.952,0.032 0.423,0.107 0.92,0.188 1.491,0.241 0.571,0.054 1.365,0.231 2.38,0.531 2.158,0.536 4.157,1.33 5.998,2.38 1.84,1.051 3.607,2.445 5.299,4.182 0.825,0.815 1.597,1.726 2.317,2.734 0.634,0.879 1.29,1.919 1.967,3.12 l -5.331,0 c -1.269,-1.774 -2.814,-3.311 -4.633,-4.609 -1.819,-1.299 -3.755,-2.283 -5.807,-2.954 -1.016,-0.303 -1.999,-0.53 -2.951,-0.681 l -1.46,-0.163 -1.523,0 c -2.581,0 -5.093,0.476 -7.537,1.429 -2.443,0.953 -4.622,2.323 -6.537,4.111 -1.914,1.787 -3.458,3.976 -4.633,6.567 -1.174,2.59 -1.761,5.373 -1.761,8.349 0,3.019 0.556,5.738 1.666,8.157 1.111,2.419 2.639,4.544 4.586,6.375 1.946,1.83 4.157,3.28 6.632,4.351 1.269,0.514 2.507,0.899 3.712,1.156 l 1.777,0.257 1.968,0.128 c 1.438,0 2.972,-0.193 4.601,-0.579 1.629,-0.387 3.152,-0.977 4.57,-1.772 2.94,-1.481 5.447,-3.682 7.52,-6.601 l 5.331,0 c -1.311,2.315 -2.776,4.32 -4.395,6.015 -1.618,1.694 -3.384,3.082 -5.299,4.165 -1.914,1.083 -3.961,1.914 -6.14,2.493 -0.889,0.236 -1.925,0.439 -3.11,0.611 -0.571,0.064 -1.1,0.117 -1.587,0.16 -0.486,0.043 -0.983,0.065 -1.491,0.065 -3.279,0 -6.421,-0.605 -9.425,-1.814 -3.004,-1.21 -5.685,-2.912 -8.044,-5.106 -2.359,-2.194 -4.242,-4.869 -5.648,-8.027 -1.407,-3.157 -2.111,-6.598 -2.111,-10.323 0,-1.027 0.064,-2.119 0.191,-3.275 z"
           style="fill:#00519b;fill-rule:nonzero"
           id="path3708" />
        <ellipse
           cx="86.466003"
           cy="30.872999"
           rx="14.925"
           ry="14.927"
           style="fill:url(#_Radial1-1)"
           id="ellipse3710" />
        <path
           inkscape:connector-curvature="0"
           d="m 68.089,28.288 c 0.234,-2.378 0.887,-4.538 1.959,-6.478 1.073,-1.94 2.472,-3.614 4.198,-5.023 1.726,-1.408 3.65,-2.487 5.772,-3.239 2.122,-0.751 4.248,-1.126 6.378,-1.126 l 1.143,0 c 0.342,0 0.575,0.008 0.7,0.023 0.311,0.079 0.676,0.138 1.096,0.177 0.42,0.039 1.003,0.168 1.749,0.388 1.586,0.392 3.055,0.972 4.408,1.74 1.352,0.768 2.65,1.787 3.894,3.056 0.607,0.596 1.174,1.262 1.703,1.999 0.466,0.642 0.948,1.403 1.445,2.281 l -3.917,0 c -0.933,-1.298 -2.068,-2.421 -3.405,-3.37 -1.337,-0.949 -2.76,-1.669 -4.268,-2.159 -0.746,-0.221 -1.469,-0.387 -2.169,-0.498 l -1.073,-0.119 -1.119,0 c -1.897,0 -3.743,0.348 -5.539,1.045 -1.796,0.696 -3.397,1.698 -4.804,3.004 -1.407,1.307 -2.542,2.907 -3.405,4.801 -0.863,1.894 -1.294,3.928 -1.294,6.103 0,2.207 0.408,4.194 1.224,5.963 0.816,1.768 1.94,3.321 3.37,4.659 1.43,1.338 3.055,2.399 4.874,3.181 0.933,0.376 1.843,0.657 2.729,0.845 l 1.306,0.188 1.446,0.094 c 1.057,0 2.184,-0.141 3.381,-0.424 1.197,-0.282 2.317,-0.714 3.358,-1.295 2.161,-1.083 4.004,-2.691 5.527,-4.825 l 3.918,0 c -0.964,1.692 -2.04,3.158 -3.23,4.396 -1.189,1.239 -2.487,2.254 -3.894,3.045 -1.407,0.792 -2.911,1.399 -4.513,1.822 -0.653,0.173 -1.415,0.322 -2.285,0.447 -0.42,0.047 -0.809,0.086 -1.166,0.117 -0.358,0.032 -0.723,0.047 -1.096,0.047 -2.41,0 -4.719,-0.442 -6.927,-1.326 -2.207,-0.884 -4.178,-2.128 -5.912,-3.732 -1.733,-1.603 -3.117,-3.559 -4.151,-5.867 -1.034,-2.308 -1.551,-4.823 -1.551,-7.546 0,-0.751 0.047,-1.549 0.14,-2.394 z"
           style="fill:#00519b;fill-rule:nonzero"
           id="path3712" />
        <g
           id="g3714">
          <rect
             x="0.75"
             y="5.6529999"
             width="4.677"
             height="50.25"
             style="fill:#00519b;fill-rule:nonzero"
             id="rect3716" />
          <path
             inkscape:connector-curvature="0"
             d="m 20.582,55.902 -4.773,0 0,-50.225 6.439,-0.024 26.59,41.615 0,-41.591 4.772,0 0,50.225 -4.773,10e-4 -28.255,-44.097 0,44.096 z"
             style="fill:#00519b;fill-rule:nonzero"
             id="path3718" />
          <path
             inkscape:connector-curvature="0"
             d="m 130.992,5.653 5.165,0 20.012,50.247 -5.022,-0.01 -5.589,-13.69 -24.049,0 -5.511,13.703 L 110.98,55.9 130.992,5.653 Z m 2.582,5.863 -10.33,26.077 20.613,0 -10.283,-26.077 z"
             style="fill:#00519b;fill-rule:nonzero"
             id="path3720" />
          <path
             inkscape:connector-curvature="0"
             d="m 164.262,41.463 c 0,2.018 0.531,3.788 1.591,5.312 0.891,1.374 2.132,2.458 3.723,3.252 1.591,0.794 3.203,1.191 4.837,1.191 2.46,0 4.64,-0.926 6.539,-2.778 1.898,-1.851 2.847,-4.04 2.847,-6.566 0,-2.077 -0.497,-3.875 -1.491,-5.395 -0.804,-1.349 -2.581,-2.558 -5.331,-3.628 l -7.743,-2.666 c -2.559,-0.877 -4.627,-2.156 -6.203,-3.837 -1.576,-1.68 -2.364,-4.19 -2.364,-7.53 l 0,-0.578 0,-0.738 c 0,-0.856 0.111,-1.67 0.334,-2.441 0.222,-0.77 0.535,-1.573 0.938,-2.408 0.7,-1.37 1.676,-2.58 2.928,-3.628 1.251,-1.049 2.683,-1.874 4.295,-2.473 0.849,-0.3 1.655,-0.524 2.419,-0.674 0.763,-0.15 1.58,-0.225 2.45,-0.225 2.609,0 4.911,0.615 6.905,1.845 1.994,1.23 3.569,2.84 4.725,4.829 1.156,1.99 1.734,3.904 1.734,5.744 l 0,0.642 -4.837,0 c -0.318,-2.62 -1.235,-4.612 -2.752,-5.975 -1.517,-1.364 -3.399,-2.164 -5.648,-2.4 -1.464,0 -2.827,0.321 -4.089,0.964 -1.262,0.642 -2.349,1.553 -3.261,2.731 -0.637,0.921 -1.071,2.153 -1.305,3.695 0,3.043 0.737,5.12 2.212,6.234 1.474,1.114 4.004,2.207 7.589,3.278 1.718,0.493 3.272,1.044 4.661,1.655 1.39,0.61 2.636,1.301 3.739,2.072 2.164,1.478 3.702,3.995 4.614,7.552 l 0.191,1.703 0,1.382 c 0,1.628 -0.302,3.299 -0.905,5.012 -0.603,1.714 -1.482,3.246 -2.636,4.595 -1.153,1.35 -2.693,2.485 -4.62,3.406 -0.952,0.429 -1.936,0.75 -2.952,0.964 l -1.556,0.226 -1.715,0.096 c -2.116,0 -4.111,-0.354 -5.985,-1.061 -1.873,-0.708 -3.487,-1.731 -4.842,-3.072 -1.354,-1.34 -2.413,-2.905 -3.175,-4.695 -0.762,-1.79 -1.143,-3.661 -1.143,-5.612 l 5.282,0 z"
             style="fill:#00519b;fill-rule:nonzero"
             id="path3722" />
        </g>
        <path
           inkscape:connector-curvature="0"
           d="m 253.938,9.375 c -0.407,0.832 -0.818,1.664 -1.237,2.49 -0.931,1.838 -1.898,3.658 -2.894,5.461 -1.756,3.182 -3.602,6.315 -5.52,9.402 -2.191,3.527 -4.478,6.995 -6.853,10.401 -2.543,3.648 -5.187,7.226 -7.933,10.725 -2.676,3.409 -5.448,6.743 -8.321,9.987 -5.163,5.826 -10.654,11.371 -16.53,16.48 -5.14,4.469 -10.579,8.608 -16.354,12.224 -1.263,0.79 -2.541,1.555 -3.836,2.292 -1.197,0.681 -2.408,1.339 -3.628,1.979 -2.265,1.189 -4.564,2.314 -6.893,3.371 -7.21,3.272 -14.714,5.889 -22.397,7.804 -7.508,1.87 -15.179,3.069 -22.897,3.61 -6.451,0.453 -12.933,0.448 -19.386,0.017 -5.927,-0.395 -11.829,-1.148 -17.669,-2.229 -12.084,-2.234 -23.898,-5.861 -35.223,-10.618 -2.668,-1.121 -5.31,-2.305 -7.922,-3.55 -1.003,-0.477 -2.001,-0.965 -2.996,-1.46 l 0,-6.721 1.825,0.924 c 1.244,0.626 2.494,1.242 3.751,1.841 2.37,1.129 4.764,2.206 7.18,3.229 11.077,4.692 22.642,8.267 34.476,10.455 5.787,1.071 11.638,1.808 17.512,2.177 6.184,0.389 12.394,0.37 18.572,-0.089 7.373,-0.548 14.699,-1.724 21.865,-3.544 7.142,-1.813 14.119,-4.265 20.829,-7.31 2.225,-1.009 4.42,-2.083 6.583,-3.219 1.16,-0.609 2.312,-1.234 3.451,-1.882 0.976,-0.556 1.942,-1.128 2.899,-1.716 2.921,-1.796 5.752,-3.737 8.499,-5.789 3.157,-2.36 6.202,-4.868 9.146,-7.489 3.199,-2.848 6.279,-5.83 9.25,-8.915 3.06,-3.178 6.005,-6.465 8.845,-9.841 2.951,-3.507 5.787,-7.11 8.515,-10.794 2.737,-3.697 5.365,-7.476 7.878,-11.33 2.026,-3.107 3.978,-6.263 5.844,-9.469 1.702,-2.923 3.332,-5.889 4.866,-8.904 l 6.703,0 z"
           style="fill:url(#_Linear2)"
           id="path3724" />
        <path
           inkscape:connector-curvature="0"
           d="m 270.464,21.75 c -0.091,0.168 -0.182,0.336 -0.274,0.503 -0.426,0.78 -0.859,1.557 -1.297,2.33 -1.575,2.779 -3.224,5.517 -4.941,8.211 -2.456,3.855 -5.05,7.623 -7.777,11.291 -1.812,2.438 -3.683,4.832 -5.612,7.177 -1.403,1.704 -2.836,3.383 -4.301,5.035 -9.567,10.785 -20.498,20.424 -32.731,28.085 -1.988,1.244 -4.009,2.436 -6.061,3.571 -2.58,1.427 -5.21,2.765 -7.886,4.005 -2.954,1.37 -5.963,2.627 -9.022,3.746 -5.381,1.969 -10.914,3.513 -16.522,4.684 -6.725,1.404 -13.558,2.272 -20.414,2.675 -6.794,0.4 -13.614,0.343 -20.403,-0.128 -7.303,-0.507 -14.572,-1.493 -21.747,-2.943 C 105.564,98.797 99.714,97.286 93.969,95.448 87.787,93.47 81.722,91.113 75.854,88.337 74.429,87.663 73.016,86.963 71.616,86.238 70.923,85.88 70.234,85.513 69.547,85.143 l -0.098,-0.053 0,-3.415 1.525,0.829 c 1.891,1.02 3.804,1.996 5.742,2.921 5.733,2.737 11.66,5.062 17.703,7.017 5.631,1.821 11.366,3.32 17.162,4.51 7.206,1.479 14.511,2.481 21.85,2.99 6.991,0.485 14.017,0.523 21.011,0.065 6.699,-0.44 13.372,-1.335 19.934,-2.758 5.449,-1.181 10.821,-2.728 16.041,-4.691 2.078,-0.781 4.133,-1.628 6.162,-2.53 4.988,-2.216 9.82,-4.777 14.469,-7.636 4.379,-2.693 8.596,-5.649 12.639,-8.824 4.963,-3.899 9.666,-8.127 14.105,-12.613 4.35,-4.396 8.449,-9.039 12.299,-13.879 2.35,-2.953 4.608,-5.98 6.773,-9.071 3.188,-4.553 6.178,-9.247 8.945,-14.068 0.416,-0.726 0.827,-1.455 1.234,-2.187 l 3.421,0 z"
           style="fill:url(#_Linear3)"
           id="path3726" />
        <path
           inkscape:connector-curvature="0"
           d="m 264.794,0 c -0.36,0.922 -0.719,1.844 -1.085,2.763 -0.456,1.143 -0.922,2.28 -1.399,3.413 -1.631,3.873 -3.389,7.693 -5.261,11.455 -3.248,6.529 -6.837,12.888 -10.726,19.055 -4.09,6.486 -8.513,12.763 -13.25,18.793 -5.646,7.187 -11.739,14.029 -18.286,20.407 -5.656,5.51 -11.654,10.678 -18.013,15.361 -3.883,2.859 -7.905,5.529 -12.04,8.009 -8.88,5.328 -18.294,9.765 -28.076,13.165 -8.217,2.856 -16.688,4.98 -25.283,6.327 -11.437,1.793 -23.086,2.207 -34.622,1.24 -9.718,-0.815 -19.352,-2.606 -28.716,-5.329 -2.931,-0.853 -5.836,-1.797 -8.708,-2.83 -1.511,-0.543 -3.011,-1.114 -4.505,-1.703 l 0,-4.846 1.637,0.654 c 1.456,0.575 2.918,1.131 4.391,1.661 2.784,1.001 5.6,1.916 8.442,2.743 8.907,2.591 18.067,4.311 27.309,5.12 10.991,0.963 22.092,0.633 33.005,-0.992 9.621,-1.432 19.088,-3.869 28.211,-7.242 8.917,-3.297 17.499,-7.485 25.612,-12.439 2.317,-1.415 4.596,-2.89 6.833,-4.427 6.267,-4.307 12.184,-9.116 17.772,-14.271 6.416,-5.92 12.404,-12.302 17.975,-19.022 6.687,-8.065 12.781,-16.623 18.235,-25.568 4.735,-7.767 8.99,-15.832 12.661,-24.156 1.032,-2.338 2.013,-4.698 2.951,-7.076 L 259.961,0 l 4.833,0 z"
           style="fill:url(#_Linear4)"
           id="path3728" />
      </g>
    </g>
  </g>
</svg>
