<?xml version="1.0" encoding="UTF-8"?>
<svg version="1.1" viewBox="0 0 1016 920" width="254" height="230" xmlns="http://www.w3.org/2000/svg">
<path transform="translate(505,3)" d="m0 0h20l20 4 12 4 16 8 12 9 10 9 10 12 9 16 6 14 4 17 1 7v21l-3 17-5 15-8 16-11 15-11 11-13 9-15 8-13 5h-2l1 195 19 5 17 7 15 8 16 11 15 14 9 9 11 15 9 15 9 21 5 18 3 19v33l-3 19-3 11 1 5 24 16 13 9 77 52 33 22 10 6 9-9 15-10 15-7 13-4 9-2 13-1h10l18 2 17 5 16 8 13 9 10 9 8 9 9 14 6 12 6 19 2 12v25l-4 17-6 17-8 14-10 13-10 10-14 10-16 8-20 6-12 2h-20l-20-4-15-5-15-8-14-11-12-12-10-14-7-15-6-20-1-5v-33l1-9-16-11-86-58-40-27-14-10-3 1-7 8-11 11-13 10-13 8-21 10-15 5-24 5-10 1h-21l-21-3-16-4-16-6-16-8-14-9-16-13-12-12-4-6-5 1-11 7-71 48-12 8-43 29-22 15-3 1 1 7 1 8v18l-2 15-6 19-7 14-9 13-11 12-10 8-13 8-16 7-19 5-7 1h-20l-21-4-16-6-15-8-16-13-8-9-9-13-8-16-5-15-3-11v-30l6-22 5-12 9-16 12-13 10-10 15-10 16-7 14-4 17-2h13l16 2 15 4 19 9 14 10 10 9 4-2 33-22 20-14 36-24 40-27 27-18 5-4-2-11-3-20v-31l3-20 6-20 8-19 10-16 9-12 9-10 10-10 13-10 18-11 18-8 20-6 10-2 1-194-5-1-17-7-13-8-10-8-12-12-9-13-8-16-5-15-2-11v-31l5-21 7-15 7-12 8-10 13-13 10-7 14-8 18-6z" fill="#d1d75b"/>
</svg>
