<?xml version="1.0" encoding="UTF-8"?>
<svg version="1.1" viewBox="0 0 2048 1617" width="252" height="199" xmlns="http://www.w3.org/2000/svg">
<path transform="translate(1006,6)" d="m0 0h33l30 4 25 6 23 7 23 10 17 9 12 8 11 8 14 11 16 15 10 10 9 11 13 17 9 15 12 23 8 19 6 18 6 26 3 25 1 19-1 31-5 32-8 28-10 25-8 16-12 20-14 19-11 13-20 20-14 11-14 10-24 14-21 10-28 10-13 4-2 1-1 918v160l-1 1h-116l-1-1-1-12v-1067l-10-2-24-8-21-9-21-11-21-14-14-11-15-14-13-13-11-14-9-12-10-15-12-22-11-28-8-28-4-23-1-8v-53l4-25 6-25 7-20 9-20 10-19 9-14 9-12 7-9 11-12 19-19 14-11 15-11 20-12 21-10 30-10 21-5 28-4zm4 117-15 2-19 5-21 9-15 9-14 11-20 20-10 15-8 14-9 25-4 17-2 13v17l4 24 9 27 9 17 12 17 11 12 9 8 15 11 18 10 15 6 19 5 22 3h12l23-3 19-6 15-6 16-9 14-10 12-11 7-7 10-13 11-19 8-21 4-17 3-18v-18l-4-24-6-20-9-19-10-15-11-13-14-14-17-12-14-8-24-9-20-4-7-1z" fill="#774075"/>
<path transform="translate(1759,347)" d="m0 0h47l24 3 27 6 23 8 18 8 21 11 15 10 16 12 13 11 11 10 7 8 11 13 13 18 11 19 12 25 9 24 9 36 2 9v67l-1 1-3 18-6 23-11 31-8 16-8 15-12 18-10 13-9 10-25 25-13 10-18 12-21 12-23 10-28 9-23 5-24 3-13 1h-26l-31-4-26-6-27-9-18-8-16-9-6-4-2 5-22 24-7 8-9 10-11 12-7 8-7 7-7 8-9 10-14 15-7 8-9 9-7 8-27 30-14 15-7 8-16 17-7 8-15 16-7 8-11 12-7 8-8 8-7 8-9 10-9 9-7 8-8 9-1 10-1 457-78 1h-37l-2-1-1-3-1-115v-225l1-168 7-8 9-10 12-13 7-8 11-12 7-8 16-17 14-15 7-8 14-15 7-8 11-12 10-11 7-8 7-7 7-8 8-8 7-8 11-12 7-8 7-7 9-11 16-17 7-8 29-31 12-13 7-8 11-12 8-10 13-13 8-10-1-4-9-15-10-21-9-25-5-18-5-29-2-19v-24l5-39 6-24 8-24 12-25 11-19 11-16 11-14 15-16 8-8 11-9 17-13 17-11 16-9 20-9 21-7 20-5zm12 117-17 2-19 5-18 8-18 11-14 11-12 12-11 14-10 17-9 20-5 18-3 20v23l4 22 6 18 11 23 10 14 9 11 9 9 19 14 20 11 15 6 21 5 5 1 20 1 19-1 21-5 19-7 17-9 17-12 15-14 9-11 6-8 12-22 6-16 4-17 3-23-2-23-3-15-5-16-8-18-9-15-10-13-10-11-14-11-15-10-21-10-15-5-16-3-10-1z" fill="#774075"/>
<path transform="translate(244,347)" d="m0 0h45l24 3 24 5 27 9 18 8 21 11 12 8 16 12 14 12 8 8 4 3v2h2l7 8 12 14 12 17 12 21 8 16 9 24 7 25 5 31 1 8v40l-6 39-6 21-7 20-9 20-12 22 3 5 12 13 7 8 14 15 7 8 15 16 7 8 14 15 7 8 15 16 7 8 14 15 7 8 13 14 7 8 16 17 7 8 13 14 7 8 14 15 7 8 15 16 7 8 15 16 7 8 15 16 7 8 7 7 9 11 8 8 8 10 1 2v511h-116l-2-3v-459l-4-8-11-12-7-8-11-12-7-8-15-16-7-8-7-7-7-8-12-13-15-16-7-8-9-10-7-8-12-13-14-15-12-13-11-12-12-13-9-10-10-11-7-8-14-15-9-10-12-13-22-24-7-9-7 1-15 8-26 11-26 8-22 5-25 3-12 1h-24l-28-3-24-5-23-7-26-11-21-11-12-8-19-14-13-12-20-20-11-14-12-17-13-22-9-20-6-17-6-21-5-23-3-22v-39l5-29 6-25 7-21 10-23 8-15 12-18 12-16 9-10 7-8 12-12 11-9 13-10 18-12 16-9 19-9 30-10 24-5zm11 117-17 2-19 5-18 8-14 8-13 10-12 11-7 7-8 10-11 18-8 18-6 19-3 21v27l4 19 8 24 10 19 10 14 11 12 7 7 13 10 18 11 19 8 17 5 12 2 18 1h11l21-3 24-8 16-8 12-7 13-10 13-12 11-14 7-10 8-16 6-16 5-22 1-6v-33l-4-21-7-20-11-21-12-17-19-19-15-10-18-10-21-8-18-4-11-1z" fill="#774075"/>
</svg>
