<?xml version="1.0" encoding="UTF-8"?>
<svg version="1.1" viewBox="0 0 1104 1244" width="276" height="311" xmlns="http://www.w3.org/2000/svg">
<path transform="translate(541)" d="m0 0h20l20 4 19 8 14 9 16 13 10 10 9 11 10 13 13 21 10 18 13 27 13 33 10 28 10 34 9 35 6 25 11-3 42-12 38-9 31-6 34-5 22-2h55l25 3 17 4 18 6 21 11 13 10 11 11 10 15 6 15 4 14 1 7v28l-5 25-8 24-9 20-13 23-12 19-18 24-11 14-11 13-9 10-7 8-12 13-40 40-8 7-4 5 10 10 8 7 41 41 7 8 11 12 9 11 11 13 12 16 12 17 11 17 14 25 11 26 7 23 3 18v30l-4 17-6 15-9 14-9 10-10 9-18 11-19 8-24 6-27 4-14 1h-26l-35-3-36-5-40-8-39-10-44-13-1 9-7 30-10 36-7 23-11 31-11 27-16 33-11 19-12 18-13 16-9 10-8 8-19 14-16 8-15 5-18 3h-12l-22-4-16-6-15-9-12-9-15-14-18-22-13-20-14-25-14-30-9-23-10-28-10-32-10-37-6-27v-4l-40 12-44 11-35 7-41 6-20 2-17 1h-25l-22-2-19-3-19-5-20-8-11-6-11-8-10-9-9-11-8-14-6-16-3-16v-27l5-25 8-24 14-29 10-17 12-18 10-14 10-13 9-11 24-28 11-11 7-8 32-32 8-7 7-6-2-4-13-13-8-7-32-32-7-8-14-15-9-11-11-13-15-20-12-17-13-21-14-27-9-23-5-19-3-17v-27l4-19 7-16 6-10 8-10 9-9 14-10 16-8 16-6 21-5 24-3h54l32 3 32 5 39 8 35 9 40 12h2l9-38 14-49 12-35 11-28 9-20 10-19 9-16 14-21 8-10 10-11 7-8 8-7 15-11 15-8 15-5zm2 58-12 5-9 6-10 9-9 9-11 15-13 21-12 23-12 28-11 30-11 35-10 37-7 31 1 3 36 14 42 18 33 15 21 10h6l25-12 35-16 29-12 30-12 13-5 1-3-7-30-9-35-12-39-10-27-12-28-11-22-10-17-12-17-12-14-10-9-14-8-8-3zm-414 251-19 3-18 5-15 8-6 5-6 8-4 8-2 8v18l6 23 11 25 12 21 15 22 13 17 9 11 11 13 10 11 7 8 8 8 7 8 16 16 8 7 9 9 8 7 4 4 4-1 11-9 14-11 18-14 16-12 18-13 17-12 13-9 9-6 1-3 5-56 8-63 4-25-9-4-22-7-40-11-37-8-35-6-31-3zm796 0-36 4-29 5-40 9-36 10-29 9-2 3 3 17 7 53 5 49 1 11v11l4 6 17 12 20 14 18 13 17 13 13 10 28 22 2 2 4-1 15-14 17-16 24-24 7-8 12-13 9-11 11-13 14-19 9-13 10-16 9-16 8-18 5-15 3-14v-17l-4-13-6-9-10-8-15-7-13-4-17-3-10-1zm-520 58-6 41-5 42v4l6-2 23-14 26-15 21-12 16-9-4-4-32-14-27-11-15-6zm292 0-31 12-48 21-1 2 23 12 48 28 21 13 1-4-8-66-2-15-1-3zm-147 66-22 11-44 24-24 14-32 19-22 14-16 10-1 1-2 33v125l1 30 18 12 21 13 20 12 22 13 25 14 23 13 33 17 7-1 22-12 28-15 23-13 29-17 26-16 24-15 6-5 1-2 2-60v-64l-2-60-4-4-22-14-21-13-32-19-46-26-37-19zm224 134v106l5-2 17-12 13-10 18-14 17-13-2-4-13-11-16-12-18-14-17-12zm-446 1-13 9-16 12-17 13-14 11-8 6 1 4 11 8 15 12 20 15 19 14 4 2v-106zm-115 91-11 11-8 7-17 17-6 5-7 8-15 15-7 8-9 10-9 11-13 16-10 14-10 15-8 13-12 23-7 17-5 21v17l4 13 6 8 7 7 12 7 14 5 22 4 10 1h42l37-4 29-5 36-8 38-10 33-10 1-1-1-13-7-51-5-47-3-35-5-5-15-10-17-12-18-13-21-16-17-13-14-11-10-8zm675 0-13 11-17 13-18 14-19 14-18 13-23 16-9 6-1 2-2 27-4 39-4 32-5 35-2 12 9 4 40 12 40 10 36 7 29 4 23 2h41l22-3 18-5 17-9 8-7 6-10 3-11v-17l-3-14-6-18-10-21-10-17-10-15-10-14-11-14-9-11-9-10-9-11-11-11-7-8-27-27-8-7-14-13zm-494 127 4 38 6 45 1 5 10-3 34-14 23-10 14-7-3-3-29-16-24-14-29-17zm314 1-29 17-24 14-25 14-11 6v3l17 8 38 16 22 9h3l6-42 5-40v-5zm-157 86-27 13-36 16-38 16-31 12-3 2 2 11 10 42 12 40 11 32 12 29 12 25 12 21 10 14 9 11 14 14 15 9 9 3h16l13-5 13-9 8-7 7-8 10-13 7-11 10-17 8-16 12-27 10-27 10-30 12-44 8-34-1-4-35-14-36-15-35-16-26-12z" fill="#FFFFFF"/>
<path transform="translate(548,534)" d="m0 0h10l16 3 12 5 11 7 10 9 9 13 6 14 3 14v16l-3 14-6 14-10 14-9 8-13 8-14 5-14 2h-9l-17-3-14-6-11-8-11-11-8-13-5-15-2-13 1-16 3-12 4-9 7-12 14-14 14-8 11-4z" fill="#FFFFFF"/>
</svg>
