<svg width="101.6" height="101.51" version="1.1" id="svg16" xmlns="http://www.w3.org/2000/svg">
    <rect width="100%" height="100%" fill="none" id="rect2" x="-.06" y="-.05"/>
    <g fill-rule="nonzero" fill="none" id="g14" transform="translate(-.06 -.04)">
        <path d="M101.66 50.8a50.78 50.78 0 0 1-50.8 50.75A50.78 50.78 0 0 1 .06 50.8 50.78 50.78 0 0 1 50.86.04a50.78 50.78 0 0 1 50.8 50.76" fill="#0060af" id="path8"/>
        <g fill="#fff" id="g12">
            <path d="M30.53 50.78a7.46 7.46 0 0 1-.87 3.66 6.54 6.54 0 0 1-2.4 2.5 6.7 6.7 0 0 1-3.52.9h-3.06v-14.1h3.06a6.82 6.82 0 0 1 3.51.9 6.62 6.62 0 0 1 2.4 2.47 7.46 7.46 0 0 1 .88 3.67m2.36 0a9.92 9.92 0 0 0-.66-3.71 8.33 8.33 0 0 0-1.9-2.91 8.22 8.22 0 0 0-2.9-1.93 9.78 9.78 0 0 0-3.69-.67h-4.29a1.26 1.26 0 0 0-.88.34 1.18 1.18 0 0 0-.34.9v16c-.02.32.1.64.34.87.24.23.55.36.88.35h4.3a9.78 9.78 0 0 0 3.68-.67 8.47 8.47 0 0 0 4.8-4.85 9.92 9.92 0 0 0 .66-3.72m30.3 3.15h-6.82l3.44-8.4zm4.4 4.38-6.61-15.93a1.14 1.14 0 0 0-1.15-.84 1.21 1.21 0 0 0-1.17.84l-6.65 15.85c-.19.4-.16.85.08 1.21a1.12 1.12 0 0 0 1.01.57 1.36 1.36 0 0 0 .66-.18 1.27 1.27 0 0 0 .48-.57l1.36-3.31h8.47l1.34 3.31c.1.23.25.42.45.56a1.3 1.3 0 0 0 .69.19 1.18 1.18 0 0 0 1.03-.52c.23-.36.25-.81.08-1.2m-22.09-4.36h-6.83l3.44-8.4zm4.4 4.38L43.3 42.38a1.17 1.17 0 0 0-1.16-.84 1.2 1.2 0 0 0-1.15.84l-6.65 15.85c-.21.38-.21.84 0 1.21.2.37.6.59 1.03.57.22 0 .44-.06.64-.18.21-.14.38-.34.5-.57l1.34-3.31h8.48l1.33 3.31a1.21 1.21 0 0 0 1.14.75 1.15 1.15 0 0 0 1.03-.52 1.25 1.25 0 0 0 0-1.2m32.93-7.5a7.46 7.46 0 0 1-.87 3.65 6.54 6.54 0 0 1-2.4 2.5 6.7 6.7 0 0 1-3.51.9H72.9v-14.1h3.07a6.82 6.82 0 0 1 3.5.9 6.62 6.62 0 0 1 2.41 2.47 7.46 7.46 0 0 1 .87 3.67m2.36 0a9.92 9.92 0 0 0-.66-3.71 8.33 8.33 0 0 0-1.9-2.91 8.22 8.22 0 0 0-2.94-1.93 9.78 9.78 0 0 0-3.69-.67h-4.29a1.26 1.26 0 0 0-.88.34 1.18 1.18 0 0 0-.34.9v16c-.02.32.1.64.34.87.23.23.55.36.88.35h4.3a9.78 9.78 0 0 0 3.68-.67 8.47 8.47 0 0 0 4.8-4.85 9.92 9.92 0 0 0 .66-3.72" id="path10"/>
        </g>
    </g>
</svg>

