<svg version="1.1" id="Ebene_1" x="0" y="0" xml:space="preserve" width="155.576" height="81.85" xmlns="http://www.w3.org/2000/svg"><defs id="defs423"><clipPath clipPathUnits="userSpaceOnUse" id="clipPath427"><path style="fill:none;fill-opacity:1;stroke:none;stroke-opacity:1" id="rect429" d="M32.129 28.632h155.576v81.85H32.129z"/></clipPath><clipPath clipPathUnits="userSpaceOnUse" id="clipPath431"><path style="fill:none;fill-opacity:1;stroke:none;stroke-opacity:1" id="rect433" d="M32.129 28.632h155.576v81.85H32.129z"/></clipPath><clipPath clipPathUnits="userSpaceOnUse" id="clipPath435"><path style="fill:none;fill-opacity:1;stroke:none;stroke-opacity:1" id="rect437" d="M32.129 28.632h155.576v81.85H32.129z"/></clipPath><clipPath clipPathUnits="userSpaceOnUse" id="clipPath439"><path style="fill:none;fill-opacity:1;stroke:none;stroke-opacity:1" id="rect441" d="M32.129 28.632h155.576v81.85H32.129z"/></clipPath></defs><style type="text/css" id="style410">.st1{fill:#e2b947}</style><path d="m86 56 11.1-25.6v-.8h-5.9l-3.5 8.5-2.8 8.4h-.1L81.9 38l-3.5-8.4h-5.9v.8L83.7 56Zm27.9-.4v-5.4c3.2-1.1 5.6-4.2 5.6-7.8 0-4.6-3.7-8.3-8.3-8.3-4.6 0-8.3 3.7-8.3 8.3 0 3.6 2.3 6.7 5.5 7.8v5.4c-6.1-1.3-10.7-6.7-10.7-13.2 0-7.5 6.1-13.5 13.5-13.5 7.5 0 13.5 6.1 13.5 13.5-.1 6.5-4.7 12-10.8 13.2M144 38.4c0 2.2-1.5 4.1-3.9 4.1h-5.6v-8h5.6c2.4 0 3.9 1.7 3.9 3.9m6.7 16.6-5.9-8.7c3-1.5 4.7-4.4 4.7-7.7 0-4.6-3.3-9-9.2-9h-11.2v26.2h5.6v-8.6h4.7l5.4 8.6h6V55Z" id="path412" clip-path="url(#clipPath439)" transform="translate(-32.129 -28.632)" style="fill:#00a0a2"/><path class="st1" d="M43.5 72.1c5.5.5 10.2 1.7 10.2 7.8s-5.3 8-10.5 8.1c-5.2 0-10.6-2.6-10.6-8.3h5.3c.1 2.4 2.7 3.4 5.2 3.4 2.3 0 5-.6 5-3.3 0-3-3.2-3.2-5.7-3.4-4.6-.4-9.4-2-9.4-7.4 0-5.8 4.7-8.2 9.9-8.2 4.9 0 9.9 2 9.9 7.9h-5.2c-.3-2.1-2.5-3-4.7-3s-4.4 1.2-4.4 3.2c0 2.3 2.2 2.9 5 3.2m29.8-1.4c0 2.5-1.6 4.6-3.9 4.6h-5.7v-9h5.7c2.4-.1 3.9 2 3.9 4.4m5.3.2c0-4.9-3.2-9.5-9.3-9.5H58.2v26.4h5.6v-7.7h5.5c6 0 9.3-4.4 9.3-9.2m15.2-4.7h-5.6v8h5.6c2.3 0 3.9-1.8 3.8-4.1.1-2.1-1.4-3.9-3.8-3.9m10.5 21.2h-6L93 78.8h-4.7v8.6h-5.6v-26h11.1c6 0 9.2 4.3 9.2 8.9 0 3.3-1.7 6.2-4.7 7.7l5.9 8.7zm24.7-8.6V61.4h-5.5v17.3c0 2.8-2.2 4.2-4.8 4.2-2.6 0-4.8-1.4-4.8-4.2V61.3h-5.6v17.5c0 5.8 4.9 9 10.4 9s10.3-3.2 10.3-9m8.6 19.5c-2 0-3.6 1.6-3.6 3.6s1.6 3.6 3.6 3.6 3.6-1.6 3.6-3.6-1.6-3.6-3.6-3.6m17.6-10.8-14.7-15V94c3.2 1.2 5.5 4.2 5.5 7.8 0 4.6-3.8 8.4-8.4 8.4-4.6 0-8.4-3.8-8.4-8.4 0-3.7 2.4-6.8 5.7-7.9V61.3h1.7l14.6 14.9V61.4h5.6v26.1zm19.9-9.8h7.1c-1.1 3.9-3.7 5-7.3 5-4.7 0-7.6-3.3-7.6-8.3 0-4.7 2.8-8.3 7.6-8.3 3 0 5.1 1 6.4 3.5h5.5c-1.5-6.1-6.7-8.6-11.8-8.6-6.8 0-13.3 4.7-13.3 13.4s6.4 13.4 13.3 13.4c5 0 9.6-2.2 11.6-7.4.9-2.4.9-4.8.8-7.3h-12.2v4.6z" id="path414" clip-path="url(#clipPath435)" transform="translate(-32.129 -28.632)"/><path class="st1" d="M111.1 46.1c2.1 0 3.7-1.7 3.7-3.7 0-2.1-1.7-3.7-3.7-3.7-2.1 0-3.7 1.7-3.7 3.7 0 2.1 1.7 3.7 3.7 3.7" id="path416" clip-path="url(#clipPath431)" transform="translate(-32.129 -28.632)"/><path id="rect418" clip-path="url(#clipPath427)" transform="translate(-32.129 -28.632)" style="fill:none" d="M0 0h223.4v130.2H0z"/></svg>