<svg width="111.49" height="60.96" version="1.1" viewBox="0 0 111.49 60.96" id="svg210" xmlns="http://www.w3.org/2000/svg">
    <g id="Name" transform="matrix(1 0 0 -1 -23.07 82.96)">
        <path d="M68.74 74h-1.15l-.73 2.63h-2.5L63.63 74h-1.05l2.68 8.21h.8zm-2.11 3.42-.64 2.24c-.09.3-.17.6-.23.87s-.1.5-.1.68h-.03c0-.18-.05-.4-.11-.67l-.23-.85-.68-2.27ZM73.54 74h-.88v.64h-.02a1.55 1.55 0 0 0-.46-.47 2.04 2.04 0 0 0-.45-.22 1.95 1.95 0 0 0-1.27.02c-.2.08-.37.2-.51.36a1.9 1.9 0 0 0-.33.65c-.07.27-.11.6-.11.98v3.75h.96v-3.68c0-.47.08-.81.24-1.01.15-.2.39-.3.72-.3.27 0 .5.06.7.2.19.14.34.28.45.41v4.38h.96zm3.94 4.56a2.4 2.4 0 0 1-.34.29c-.17.12-.39.18-.66.18a.9.9 0 0 1-.58-.17.55.55 0 0 1-.2-.43c0-.22.06-.4.18-.53.12-.14.31-.29.57-.45l.35-.21c.4-.23.7-.48.92-.75.22-.26.33-.6.33-1.03 0-.45-.15-.83-.47-1.14-.31-.3-.76-.46-1.35-.46a2.32 2.32 0 0 0-1.39.44l-.21.21.46.76a8 8 0 0 1 .17-.16 1.56 1.56 0 0 1 .57-.34c.12-.04.26-.06.41-.06.3 0 .5.07.66.2.15.12.23.28.23.46 0 .13-.02.25-.06.35a.8.8 0 0 1-.16.27 1.5 1.5 0 0 1-.26.22l-.36.24-.35.23c-.36.23-.64.47-.84.72-.2.26-.3.58-.3.98a1.38 1.38 0 0 0 .47 1.05 1.84 1.84 0 0 0 1.18.42c.22 0 .41-.02.57-.06a1.7 1.7 0 0 0 .7-.37l.18-.17zm8.24 1.15L83.98 74h-.86l-.58 2c-.09.28-.16.55-.22.8-.06.24-.1.48-.11.7h-.03a3.6 3.6 0 0 0-.13-.72c-.07-.25-.15-.52-.25-.8L81.15 74h-.82l-1.8 5.71h1.04l.85-3.23.21-.84c.06-.26.1-.5.1-.74h.03c.02.23.07.47.14.72l.26.82.62 1.87-.43 1.4h1l.87-3.15.24-.92c.07-.28.1-.53.12-.74h.02a16.78 16.78 0 0 0 .34 1.65l.85 3.16zm.5-4.26a1.56 1.56 0 0 0 .7 1.37c.23.15.48.24.77.3.29.06.6.1.92.1h.3v.54c0 .48-.09.82-.26 1a.94.94 0 0 1-.72.27 1.3 1.3 0 0 1-.71-.18 4.29 4.29 0 0 1-.46-.33l-.4.64a2.04 2.04 0 0 0 .6.44 2.5 2.5 0 0 0 1.11.25c.6 0 1.03-.16 1.34-.48.3-.33.45-.85.45-1.57v-2.61a10.62 10.62 0 0 1 .07-1.19h-.92l-.03.63h-.03a1.52 1.52 0 0 0-.14-.24.82.82 0 0 0-.24-.25 1.25 1.25 0 0 0-.82-.28 1.52 1.52 0 0 0-1.09.45 1.53 1.53 0 0 0-.43 1.14zm1.73-.77a.99.99 0 0 1 .63.2c.07.06.14.12.19.19l.14.17v1.26l-.31-.01c-.46-.02-.81-.1-1.05-.24-.24-.14-.36-.37-.36-.7 0-.28.07-.5.2-.65a.72.72 0 0 1 .56-.22zm-.22 6.67a.6.6 0 0 0-.17-.44.55.55 0 0 0-.4-.16c-.16 0-.3.05-.4.16a.6.6 0 0 0-.17.44c0 .19.05.33.16.44.11.12.25.17.4.17.17 0 .3-.05.41-.17a.6.6 0 0 0 .17-.44zm1.83 0a.6.6 0 0 0-.17-.44.55.55 0 0 0-.4-.16c-.16 0-.3.05-.4.16a.6.6 0 0 0-.17.44c0 .19.05.33.17.44.1.12.24.17.4.17a.5.5 0 0 0 .4-.17.6.6 0 0 0 .17-.44zm4.26-2.48a.69.69 0 0 1-.15.06c-.08.02-.19.03-.32.03a.98.98 0 0 1-.71-.24c-.17-.16-.3-.34-.37-.53V74h-.96v5.71h.88v-.77h.02c.04.11.1.22.16.33a1.13 1.13 0 0 0 1.05.55c.13 0 .24-.01.32-.04l.2-.06zm3.4.06h-1.26v-3.17c0-.4.05-.68.16-.83.1-.14.28-.22.52-.22.14 0 .27.02.37.06l.23.11.13-.77a1.51 1.51 0 0 0-.9-.25c-.49 0-.86.13-1.1.4-.25.28-.37.74-.37 1.37v3.3h-.7v.64l.7.14.1 1.6h.86v-1.6h1.37zM99.26 74h-.96v5.71h.96zm-.47 7.1c-.2 0-.36.06-.48.18a.7.7 0 0 0-.18.5c0 .2.06.36.18.49s.28.2.48.2a.6.6 0 0 0 .46-.2.68.68 0 0 0 .18-.49.7.7 0 0 0-.18-.5.6.6 0 0 0-.46-.19zm6.04-2.14h-.71a2.18 2.18 0 0 0 .12-1.84 1.72 1.72 0 0 0-1.05-.99 2.2 2.2 0 0 0-.78-.13h-.15l-.15.01a1 1 0 0 1-.3-.19.43.43 0 0 1-.16-.34c0-.12.05-.22.14-.3.1-.07.24-.1.45-.1h.72c.27 0 .52-.04.75-.1.23-.05.43-.14.6-.26a1.3 1.3 0 0 0 .54-1.16 1.82 1.82 0 0 0-.75-1.5 2.7 2.7 0 0 0-.86-.43c-.35-.1-.73-.15-1.15-.15-.6 0-1.07.13-1.39.4-.32.26-.47.64-.47 1.14 0 .22.03.4.1.56a1.75 1.75 0 0 0 .85.84v.02a.93.93 0 0 0-.37.8c0 .15.03.28.09.39a1.07 1.07 0 0 0 .43.45l.17.09v.02c-.3.13-.53.35-.7.64a2.1 2.1 0 0 0-.28 1.1c0 .33.05.6.16.85a1.7 1.7 0 0 0 1.03.96 2.34 2.34 0 0 0 1.51-.03h1.74zm-2.65-4.78c-.17 0-.32.01-.44.03a1.4 1.4 0 0 1-.21-.14 1 1 0 0 1-.32-.48c-.04-.1-.06-.23-.06-.38 0-.6.34-.91 1.02-.91.57 0 1 .11 1.28.34.28.22.42.48.42.78 0 .27-.1.47-.27.59-.17.11-.4.17-.7.17zm1.27 3.76c0 .41-.1.7-.3.88a1 1 0 0 1-.68.26c-.27 0-.51-.09-.71-.26-.2-.17-.3-.47-.3-.88 0-.41.1-.7.3-.88a1 1 0 0 1 .7-.26 1 1 0 0 1 .7.26c.2.17.29.47.29.88zm6.07-.16a7.35 7.35 0 0 0-.07-1.1h-2.92c.03-.68.18-1.17.44-1.49.25-.32.63-.48 1.1-.48a1.6 1.6 0 0 1 1.06.37l.15.13.36-.67-.18-.18a1.6 1.6 0 0 0-.32-.22 2.3 2.3 0 0 0-1.2-.28c-.36 0-.68.06-.97.18-.3.11-.54.3-.74.55-.2.25-.36.57-.47.95a5.13 5.13 0 0 0 0 2.7c.12.37.28.67.47.91a1.97 1.97 0 0 0 1.54.7c.55 0 .98-.17 1.29-.51.3-.35.46-.87.46-1.56zm-1.81 1.29a.97.97 0 0 1-.82-.43c-.2-.28-.33-.7-.36-1.24h2.08l.02.18v.24c0 .4-.07.7-.23.92a.8.8 0 0 1-.69.33zm5.56-.51c-.07.07-.18.17-.35.29-.16.12-.38.18-.65.18a.92.92 0 0 1-.59-.17.55.55 0 0 1-.2-.43c0-.22.06-.4.19-.53.12-.14.3-.29.56-.45l.36-.21c.39-.23.7-.48.92-.75.22-.26.33-.6.33-1.03 0-.45-.16-.83-.47-1.14-.31-.3-.76-.46-1.35-.46a2.32 2.32 0 0 0-1.4.44l-.2.21.46.76a8 8 0 0 1 .17-.16 1.56 1.56 0 0 1 .56-.34c.12-.04.26-.06.42-.06.29 0 .5.07.65.2.16.12.23.28.23.46 0 .13-.02.25-.05.35a.8.8 0 0 1-.16.27 1.5 1.5 0 0 1-.27.22l-.35.24-.36.23c-.36.23-.64.47-.84.72-.2.26-.3.58-.3.98a1.38 1.38 0 0 0 .47 1.05 1.84 1.84 0 0 0 1.18.42c.22 0 .41-.02.57-.06a1.7 1.7 0 0 0 .7-.37l.18-.17zm9.48-4.56h-1.14l-.74 2.63h-2.49l-.75-2.63h-1.04l2.68 8.21h.8zm-2.1 3.42-.65 2.24-.22.87c-.07.27-.1.5-.11.68h-.02a12.23 12.23 0 0 0-.35-1.52l-.68-2.27zm5.91-3.42v3.68c0 .47-.07.8-.2 1-.14.21-.36.32-.66.32a1.37 1.37 0 0 1-1-.4 3.48 3.48 0 0 1-.17-.2V74h-.97v5.71h.88v-.64h.03a1.95 1.95 0 0 0 .47.5 1.7 1.7 0 0 0 .95.28c.65 0 1.11-.25 1.38-.76a1.78 1.78 0 0 0 .56.5 1.91 1.91 0 0 0 .96.26c1.15 0 1.73-.67 1.73-2.02V74h-.96v3.68c0 .47-.08.8-.25 1a.9.9 0 0 1-.74.32c-.27 0-.5-.07-.67-.2a2.58 2.58 0 0 1-.42-.37 2.8 2.8 0 0 0 .04-.6V74Zm7.84 4.93h-1.25v-3.17c0-.4.05-.68.16-.83.1-.14.27-.22.52-.22.14 0 .27.02.37.06l.23.11.13-.77a1.51 1.51 0 0 0-.9-.25c-.49 0-.86.13-1.1.4-.25.28-.37.74-.37 1.37v3.3h-.7v.64l.7.14.1 1.6h.86v-1.6h1.37z" id="path198"/>
    </g>
    <g id="Adler-und-Saeulenelement" transform="translate(-23.07 -21.04)">
        <path d="M37.17 29.34c.03-.23.05-.46.05-.7 0-.12 0-.27-.02-.44 2-.03 3.74-1.47 3.74-3.12 0-.84-.55-1.47-.85-1.85l.2-.05c.3.26 1.13 1.16 1.13 2.3 0 1.98-1.99 3.82-4.25 3.86m-2-6.9a1.36 1.36 0 0 0-.25-.6c0-.2.09-.39.41-.23-.18.18-.04.5-.04.5s.36-.17.29-.4c.53.12.15.84-.42.73m-.46 1.02c-.07-.3-.22-.6-.41-.83-.18-.21-.47-.46-.86-.46-.18 0-.48.09-.67.17a1.83 1.83 0 0 1-.21-.59c0-.14.24-.29.71-.29 1.03 0 1.65.47 1.65 1.25 0 .27-.11.52-.2.75m2.64 13.3c.12 0 .18.02.25.04.3.81 1.44 2.34 1.49 2.4l.01.01h.02c.28-.04 1-.15 1.6-.15.07 0 .15 0 .2.04.03.04.05.11.05.2 0 .16-.06.41-.14.52-.2-.23-.55-.33-1.1-.33-.16 0-.35.05-.46.08h-.04l-.05.02.32.31c.48.49.9.9.9 1.19 0 .16-.16.38-.31.48-.03-.51-.55-1.2-1.05-1.58l-.05-.03v.18l-.02.5c0 .97-.1 1.12-.44 1.12a.62.62 0 0 1-.18-.03c.2-.24.27-.55.27-1.09v-.45c0-.23.01-.4.03-.52l.01-.08h-.05a5.46 5.46 0 0 0-.68-.07c-.48 0-.8.05-1.04.27-.16-.13-.32-.34-.32-.48 0-.2.13-.22.3-.22l.27.02c.2.04.51.08 1.16.08h.04l-.02-.04a7.78 7.78 0 0 0-1.32-2c.06-.24.13-.4.35-.4m-6.17 2.4-.02.04h.04c.64 0 .96-.04 1.16-.08l.27-.02c.17 0 .3.02.3.22 0 .14-.16.35-.32.48-.24-.22-.56-.27-1.04-.27-.23 0-.52.04-.68.06h-.02l-.03.01v.08c.03.13.05.3.05.52v.45c0 .54.07.85.26 1.09a.63.63 0 0 1-.18.03c-.34 0-.44-.15-.44-1.12l-.01-.5-.01-.18-.05.03c-.5.39-1.02 1.07-1.05 1.58-.15-.1-.31-.32-.31-.48 0-.28.42-.7.9-1.19l.32-.31-.1-.02c-.1-.03-.3-.08-.46-.08-.54 0-.88.1-1.1.33-.07-.1-.13-.36-.13-.51 0-.1.02-.17.06-.2.04-.05.12-.05.18-.05h.02c.6 0 1.31.1 1.6.15h.01l.01-.01c.05-.06 1.2-1.59 1.5-2.4a.6.6 0 0 1 .24-.04c.22 0 .29.15.35.38a7.76 7.76 0 0 0-1.32 2.01m-3.1-13.67c0-1.14.84-2.04 1.13-2.3l.2.05c-.3.38-.85 1.01-.85 1.85 0 1.67 1.78 3.12 3.8 3.12a4.96 4.96 0 0 0 .02 1.14c-2.29-.02-4.3-1.87-4.3-3.86m15.31 3.51c1.03 1.62 1.83 1.6 3.04 1.6a8.65 8.65 0 0 1-1.98-2.26l-1.87-3a4.43 4.43 0 0 0-1.38-2.42c.24-.1.44-.19.56-.28-1.22 0-2.43-.62-3.1-.62-.42 0-.7.26-.7.6.03.37.42.75 1.13.75.17 0 .37-.02.6-.05.4.54.7 1.03.7 1.72 0 1.31-1.56 2.33-3.14 2.33h-.27c-.14-.33-.62-.88-.62-1.5 0-1.04.68-1.89.68-2.92 0-.64-.31-1.04-.43-1.2.2-.18.4-.4.46-.55a1.4 1.4 0 0 1-.45.05c-.75 0-1.37-.2-1.97-.2-.35 0-.44.11-.44.21l.01.1a3.05 3.05 0 0 0-.96-.16c-.73 0-1 .3-1 .56 0 .23.18.63.38.94.29-.14.63-.24.79-.24.39 0 .73.37.91.8-.26.04-.3.05-.57.05-.71 0-1.2-.25-1.3-.25 0 0-.03 0-.03.02 0 .1.2.36.6.5.53.2 1.31.28 1.45.3 0 .02-.14.27-.29.32a6.56 6.56 0 0 1-1.49-.41c-.02-.01-.03 0-.03.02 0 .28.71.88 1.35 1.12-.53.68-1.2 1.37-1.51 2.43l-.27.01c-1.58 0-3.14-1.02-3.14-2.33 0-.7.31-1.18.7-1.72.23.03.43.05.6.05.71 0 1.1-.38 1.13-.76 0-.33-.28-.59-.7-.59-.67 0-1.88.62-3.1.62.12.1.32.19.56.28-.72.64-1.2 1.5-1.38 2.43l-1.87 3c-.31.5-.98 1.48-1.98 2.24 1.21 0 2.01.03 3.04-1.59l.96-1.53c.07.2.16.39.26.58l-1.9 3.05c-.33.5-.98 1.48-1.99 2.25 1.21 0 2.01.03 3.04-1.59l1.64-2.62.39.38-2.32 3.7a8.49 8.49 0 0 1-1.98 2.25c1.21 0 2.01.03 3.04-1.59l2.26-3.61c.14.1.3.18.45.27l-2.75 4.41a8.6 8.6 0 0 1-1.98 2.25c1.2 0 2.01.03 3.03-1.59l2.84-4.54.51.18-3.2 5.13c-.32.5-.99 1.49-1.98 2.25 1.2 0 2.01.03 3.03-1.59l3.42-5.47.1.02c.1.3.16.57.16.85 0 1.72-1.13 3.23-2.48 4.4.09.04.24.06.38.06.28 0 .46-.02.58-.04-.31.71-.98 1.63-1.32 2.11a9.88 9.88 0 0 0-1.51-.14c-.45 0-.5.26-.5.49 0 .4.2.72.41.9.08-.21.25-.48 1.06-.48h.08c-.23.27-.98.87-.98 1.36 0 .32.35.8.82.8-.03-.1-.03-.2-.03-.27 0-.4.35-.85.65-1.18v.2c0 .93.08 1.36.67 1.36.29 0 .49-.16.56-.2-.39-.36-.4-.64-.4-1.16a115.9 115.9 0 0 1-.02-.84c.2-.03.3-.03.46-.03 0 0 .84-.07 1.04.37.23-.21.56-.5.56-.83 0-.22-.1-.46-.54-.46-.16 0-.68.1-1.1.1.11-.26.62-1.01 1.07-1.56.07.21.18.44.4.63.04-.35.25-1.46.8-2.12.06.44.15.9.15 1.85 0 2.31-.56 4.02-1.74 4.35.15.26.48.5.82.5.43 0 .66-.49.9-.95.13.34.47 1.18.82 1.18s.7-.84.82-1.18c.24.46.47.95.9.95.34 0 .67-.24.82-.5-1.18-.33-1.74-2.04-1.74-4.35 0-.95.09-1.4.15-1.85.55.66.76 1.77.8 2.12.23-.19.33-.42.4-.63a11 11 0 0 1 1.08 1.56c-.43 0-.95-.1-1.11-.1-.43 0-.54.24-.54.46 0 .32.33.62.56.83.2-.44 1.04-.37 1.04-.37.17 0 .25 0 .46.03-.02.11-.02.27-.02.39v.45c0 .52-.01.8-.4 1.15.07.05.27.21.56.21.6 0 .68-.43.68-1.36v-.2c.29.32.64.79.64 1.18 0 .07 0 .17-.03.27.47 0 .82-.48.82-.8 0-.49-.74-1.1-.98-1.36h.08c.81 0 .98.27 1.06.47.22-.17.4-.5.4-.9 0-.22-.04-.48-.49-.48a9.9 9.9 0 0 0-1.5.14c-.35-.48-1.02-1.4-1.33-2.11.12.02.3.04.58.04.14 0 .3-.02.38-.05-1.35-1.18-2.48-2.7-2.48-4.41 0-.28.06-.55.16-.85l.1-.02 3.42 5.47c1.02 1.62 1.82 1.6 3.03 1.6a8.65 8.65 0 0 1-1.97-2.26l-3.21-5.13.51-.18 2.84 4.54c1.02 1.62 1.82 1.6 3.03 1.6a8.6 8.6 0 0 1-1.98-2.26l-2.75-4.41.45-.27 2.26 3.61c1.03 1.62 1.83 1.6 3.04 1.6a8.58 8.58 0 0 1-1.98-2.26l-2.32-3.7.4-.38 1.63 2.62c1.03 1.62 1.83 1.6 3.04 1.6a8.62 8.62 0 0 1-1.98-2.26l-1.9-3.05c.1-.19.18-.38.25-.58z" id="path201"/>
        <path d="M56 42h-3.5V22H56Z" id="path203"/>
        <path d="M56 62h-3.5V42H56Z" fill="red" id="path205"/>
        <path d="M56 82h-3.5V62H56Z" fill="#fc0" id="path207"/>
    </g>
</svg>

