<svg version="1.1" viewBox="0 0 111.26 173.67" xmlns="http://www.w3.org/2000/svg"><defs id="defs4983"><clipPath id="clippath"><path class="cls-7" d="M111.2 111.74 111.26.13H6.98v111.55c0 28.44 23.34 51.5 52.14 51.5s52.14-23.06 52.14-51.5z" id="path4972"/></clipPath><clipPath id="clippath-1"><path class="cls-7" d="M59.55 112.84h29.83v82.19H59.55Z" id="path4975"/></clipPath><clipPath id="clippath-2"><rect class="cls-7" x="24.89" y="53" width="68.6" height="56.85" rx="8.17" ry="8.17" id="rect4978"/></clipPath><style id="style4981">.cls-1{fill:#fff}.cls-2{fill:#67c1be}.cls-3{fill:#0a9ea0}.cls-7{fill:none}.cls-9{fill:#1d1d1b}</style></defs><path d="M59.12 163.05c28.79 0 52.14-23.34 52.14-52.14S87.92 58.77 59.12 58.77 6.98 82.12 6.98 110.91s23.34 52.14 52.14 52.14" style="fill:#d4803a" id="path4985"/><g clip-path="url(#clippath)" id="g5031" transform="translate(0 -.13)"><path class="cls-3" d="M44.42 92.95v48.55c0 3.61 2.92 6.53 6.53 6.53h17.09c3.61 0 6.53-2.92 6.53-6.53V92.95" id="path4987"/><rect class="cls-2" x="19.97" y="127.07" width="79.24" height="56.68" rx="9.72" ry="9.72" transform="rotate(-90 59.595 155.415)" id="rect4989"/><rect class="cls-3" x="19.78" y="126.93" width="79.54" height="56.68" rx="9.72" ry="9.72" transform="rotate(-90 59.555 155.265)" clip-path="url(#clippath-1)" id="rect4991"/><rect class="cls-3" x="72.32" y="112.06" width="20.49" height="27.54" rx="6.96" ry="6.96" transform="rotate(-90 82.565 125.835)" id="rect4993"/><rect class="cls-2" x="41.69" y="132.46" width="36.51" height="29.83" rx="6.96" ry="6.96" transform="rotate(-90 59.94 147.38)" id="rect4995"/><path class="cls-3" d="M67.9 167.14H51.98c-4.66 0-8.46-3.79-8.46-8.46v-22.6c0-4.66 3.79-8.46 8.46-8.46H67.9c4.66 0 8.46 3.79 8.46 8.46v22.6c0 4.66-3.79 8.46-8.46 8.46zm-15.92-36.51c-3.01 0-5.46 2.45-5.46 5.46v22.6c0 3.01 2.45 5.46 5.46 5.46H67.9c3.01 0 5.46-2.45 5.46-5.46v-22.6c0-3.01-2.45-5.46-5.46-5.46z" id="path4997"/><path class="cls-2" d="M86.44 41.79c-1.26-1.41-2.72-2.86-4.33-4.32 1.61-1.46 3.06-2.91 4.33-4.32 6.75-7.55 6.52-12 5.13-14.41-1.39-2.41-5.13-4.84-15.04-2.77-1.86.39-3.84.92-5.91 1.59-.46-2.12-.99-4.11-1.58-5.91C65.88 2.02 61.9 0 59.12 0c-2.78 0-6.76 2.02-9.92 11.64-.59 1.81-1.12 3.8-1.58 5.91-2.06-.66-4.05-1.2-5.91-1.59-9.92-2.07-13.65.36-15.04 2.77-1.39 2.41-1.63 6.86 5.12 14.41a56.95 56.95 0 0 0 4.33 4.32 58.848 58.848 0 0 0-4.33 4.32c-6.75 7.55-6.52 12-5.12 14.41.94 1.62 3.15 3.55 8.37 3.55 1.93 0 4.18-.26 6.67-.79 1.85-.39 3.84-.92 5.91-1.59.45 2.11.98 4.1 1.58 5.91 3.16 9.62 7.14 11.64 9.92 11.64 2.78 0 6.76-2.02 9.92-11.64.59-1.8 1.12-3.79 1.58-5.91 2.07.67 4.05 1.2 5.91 1.59 2.49.52 4.74.79 6.67.79 5.22 0 7.43-1.93 8.37-3.55 1.39-2.41 1.63-6.86-5.13-14.41zm-13.93-7.65c1.54 1.1 3.01 2.21 4.38 3.33a88.01 88.01 0 0 1-4.38 3.33c.03-1.1.05-2.22.05-3.33 0-1.11-.02-2.23-.05-3.33zm7.01 1.09c-2.21-1.83-4.64-3.63-7.22-5.37-.22-3.11-.57-6.11-1.04-8.94 2.09-.69 4.1-1.23 5.96-1.62 2.23-.47 4.24-.71 5.97-.71 2.82 0 4.75.65 5.44 1.84 1.14 1.97-.62 5.88-4.71 10.45a54.849 54.849 0 0 1-4.39 4.35zm-7.22 9.85c2.59-1.75 5.02-3.55 7.22-5.37 1.64 1.47 3.12 2.93 4.39 4.35 4.09 4.57 5.85 8.48 4.71 10.45-1.14 1.97-5.4 2.4-11.41 1.14-1.86-.39-3.87-.94-5.96-1.62.47-2.82.83-5.83 1.04-8.94zm-3.6 2.32c-.18 1.86-.41 3.7-.69 5.46a90.9 90.9 0 0 1-5.08-2.13 108.58 108.58 0 0 0 5.77-3.33Zm-16.3 1.71c.93.54 1.91 1.08 2.91 1.62-1.71.78-3.42 1.5-5.07 2.13-.28-1.75-.51-3.59-.69-5.46.94.58 1.9 1.16 2.86 1.71zm-2.86-21.57c.18-1.87.41-3.71.69-5.46 1.66.64 3.37 1.35 5.07 2.13-.99.53-1.96 1.08-2.91 1.62-.96.56-1.92 1.13-2.86 1.71zm16.3-1.71c-.95-.55-1.93-1.09-2.91-1.62 1.71-.78 3.42-1.5 5.08-2.13.28 1.76.51 3.59.69 5.46-.93-.57-1.89-1.15-2.86-1.71zm1.54 30.43c-.45 2.15-.98 4.15-1.57 5.97-1.91 5.83-4.42 9.31-6.69 9.31-2.27 0-4.78-3.48-6.69-9.31-.6-1.81-1.12-3.82-1.57-5.97 2.69-1 5.46-2.2 8.26-3.57 2.8 1.37 5.58 2.56 8.26 3.57zm-8.26-7.36c-1.67-.85-3.36-1.77-5.02-2.73-1.65-.95-3.29-1.96-4.87-2.99-.1-1.87-.15-3.79-.15-5.71s.05-3.84.15-5.71c1.58-1.03 3.22-2.03 4.87-2.99 1.66-.96 3.35-1.87 5.02-2.73 1.68.86 3.37 1.77 5.02 2.73 1.66.96 3.3 1.96 4.87 2.99a108.526 108.526 0 0 1 0 11.42c-1.57 1.02-3.21 2.03-4.87 2.99-1.65.95-3.34 1.87-5.02 2.73zm0-26.64a97.23 97.23 0 0 0-8.26-3.57c.45-2.15.98-4.16 1.57-5.97 1.91-5.83 4.42-9.31 6.69-9.31 2.27 0 4.77 3.48 6.69 9.31.6 1.82 1.13 3.83 1.57 5.98-2.69 1-5.47 2.2-8.26 3.57zM45.73 40.81c-1.53-1.09-3-2.21-4.38-3.33a88.01 88.01 0 0 1 4.38-3.33c-.03 1.13-.05 2.25-.05 3.33s.02 2.2.05 3.33zm-7.01-5.57c-1.63-1.46-3.11-2.92-4.39-4.35-4.09-4.57-5.85-8.48-4.72-10.45.71-1.22 2.62-1.85 5.4-1.85 1.7 0 3.73.23 6.01.71 1.86.39 3.87.94 5.96 1.62a89.86 89.86 0 0 0-1.04 8.94c-2.58 1.74-5.01 3.54-7.22 5.37zm0 4.47c2.21 1.82 4.64 3.63 7.22 5.37.22 3.11.57 6.11 1.04 8.94-2.09.69-4.1 1.23-5.96 1.62-6 1.26-10.27.83-11.4-1.14-1.14-1.97.63-5.88 4.72-10.45 1.27-1.42 2.75-2.88 4.39-4.35z" id="path4999"/><path class="cls-3" d="M63.11 38.4s.02-.06.04-.09c.01-.03.02-.05.03-.08.02-.04.03-.09.05-.13 0-.01 0-.02.01-.04.15-.45.24-.92.24-1.42 0-.5-.08-.97-.24-1.42 0-.01 0-.02-.01-.03-.02-.05-.03-.09-.05-.13-.01-.03-.02-.05-.03-.08-.01-.03-.02-.06-.04-.09l-.06-.12c0-.01-.01-.03-.02-.04-.21-.42-.48-.82-.83-1.17s-.75-.63-1.17-.83c-.01 0-.03-.01-.04-.02l-.12-.06c-.03-.01-.06-.02-.09-.04-.03-.01-.05-.02-.08-.03-.04-.02-.09-.03-.13-.05-.01 0-.02 0-.04-.01-.44-.15-.92-.24-1.42-.24-.5 0-.97.08-1.42.24-.01 0-.02 0-.03.01-.04.02-.09.03-.13.05-.03.01-.05.02-.08.03-.03.01-.06.02-.09.04l-.12.06c-.01 0-.03.01-.04.02-.42.21-.82.48-1.17.83s-.63.75-.83 1.17c0 .01-.01.03-.02.04l-.06.12c-.01.03-.02.06-.04.09-.01.03-.02.05-.03.08-.02.04-.03.09-.05.13 0 .01 0 .02-.01.03-.15.45-.24.92-.24 1.42 0 .5.08.98.24 1.42 0 .01 0 .02.01.04.02.04.03.09.05.13.01.03.02.05.03.08.01.03.02.06.04.09l.06.12c0 .01.01.03.02.04.21.42.48.82.83 1.17s.75.63 1.17.83c.01 0 .03.01.04.02l.12.06c.03.01.06.02.08.04.03.01.06.02.08.03.04.02.09.03.13.05.01 0 .02 0 .04.01.44.15.92.24 1.42.24.5 0 .97-.08 1.42-.24h.04s.09-.04.13-.06c.03-.01.06-.02.08-.03l.08-.04.12-.06c.01 0 .03-.01.04-.02.42-.21.82-.48 1.17-.83s.63-.75.83-1.17c0-.01.01-.03.02-.04l.06-.12" id="path5001"/><path class="cls-3" d="M57.42 34.27h3.4v25.78h-3.4z" id="path5003"/><path class="cls-3" d="M50.58 43.05h17.09c3.61 0 6.53 2.93 6.53 6.53v48.55c0 3.61-2.93 6.53-6.53 6.53H50.58c-3.61 0-6.53-2.93-6.53-6.53V49.59c0-3.61 2.93-6.53 6.53-6.53z" id="path5005"/><path class="cls-3" d="M16.64 69.54h85.71c3.61 0 6.53 2.93 6.53 6.53v6.53c0 3.61-2.93 6.53-6.53 6.53H16.64c-3.61 0-6.53-2.93-6.53-6.53v-6.53c0-3.61 2.93-6.53 6.53-6.53z" id="path5007"/><rect class="cls-2" x="24.89" y="53" width="68.6" height="56.85" rx="8.17" ry="8.17" id="rect5009"/><path class="cls-3" d="M59.19 49.74h50.02v84.53H59.19Z" clip-path="url(#clippath-2)" id="path5011"/><path class="cls-9" d="M33 104.41a2.4 2.4 0 1 0-.001-4.801A2.4 2.4 0 0 0 33 104.41m6.87 0a2.4 2.4 0 1 0-.001-4.801 2.4 2.4 0 0 0 .001 4.801m40.12 0a2.4 2.4 0 1 0-.001-4.801 2.4 2.4 0 0 0 .001 4.801m6.86 0a2.4 2.4 0 1 0-.001-4.801 2.4 2.4 0 0 0 .001 4.801M52.42 64.5a2.4 2.4 0 1 0-.001-4.801 2.4 2.4 0 0 0 .001 4.801m6.87 0a2.4 2.4 0 1 0-.001-4.801 2.4 2.4 0 0 0 .001 4.801m6.87 0a2.4 2.4 0 1 0-.001-4.801 2.4 2.4 0 0 0 .001 4.801" id="path5013"/><path class="cls-1" d="M76.2 90.43c4.89 0 8.85-3.96 8.85-8.85s-3.96-8.85-8.85-8.85-8.85 3.96-8.85 8.85 3.96 8.85 8.85 8.85m-34.84 0c4.89 0 8.85-3.96 8.85-8.85s-3.96-8.85-8.85-8.85-8.85 3.96-8.85 8.85 3.96 8.85 8.85 8.85" id="path5015"/><path class="cls-9" d="M77.54 81.27c1.29 0 2.34-1.05 2.34-2.34 0-1.29-1.05-2.34-2.34-2.34-1.29 0-2.34 1.05-2.34 2.34 0 1.29 1.05 2.34 2.34 2.34m-34.84 0c1.29 0 2.34-1.05 2.34-2.34 0-1.29-1.05-2.34-2.34-2.34-1.29 0-2.34 1.05-2.34 2.34 0 1.29 1.05 2.34 2.34 2.34" id="path5017"/><path class="cls-3" d="M31.34 83.45c1.01 5.16 5.11 9.02 10.01 9.02 4.9 0 9-3.86 10.01-9.02z" id="path5019"/><path class="cls-2" d="M32.66 83.45c.88 3.99 4.43 6.99 8.69 6.99s7.81-2.99 8.69-6.99H32.65Zm34.86 0c.88 3.99 4.43 6.99 8.69 6.99s7.81-2.99 8.69-6.99H67.51Z" id="path5021"/><path class="cls-3" d="M49.82 76.06c-1.93-3-5.07-4.96-8.62-4.96-3.6 0-6.78 2-8.71 5.06z" id="path5023"/><path class="cls-2" d="M48.33 76.15a9.55 9.55 0 0 0-7.06-3.12c-2.85 0-5.4 1.24-7.16 3.21l14.22-.08zm21.14-.36a9.04 9.04 0 0 1 6.65-3.05c2.7-.04 5.14 1.1 6.83 2.95l-13.49.11Z" id="path5025"/><path class="cls-9" d="M72.16 96.72c.39-.73.64-1.55.64-2.43H62.47c0 .89.24 1.71.64 2.43h9.06z" id="path5027"/><path class="cls-3" d="m109.92 151.38-.03-.09c0-.03-.02-.05-.03-.08-.02-.04-.03-.09-.05-.13 0-.01 0-.02-.01-.03-.18-.43-.44-.84-.78-1.21s-.72-.67-1.13-.89c-.01 0-.02-.01-.03-.02-.04-.02-.08-.04-.13-.07-.03-.01-.05-.03-.08-.04-.03-.01-.06-.03-.09-.04-.04-.02-.08-.04-.12-.05-.01 0-.03-.01-.04-.02-.44-.18-.91-.28-1.4-.31-.49-.02-.97.04-1.43.16-.01 0-.03 0-.04.01-.04.01-.09.03-.13.04-.03 0-.06.02-.09.03-.03 0-.05.02-.08.03-.04.02-.09.03-.13.05-.01 0-.02 0-.03.02-.43.18-.84.44-1.21.77s-.67.72-.89 1.13c0 .01-.01.02-.02.03-.02.04-.04.08-.07.13-.01.03-.03.05-.04.08-.01.03-.03.06-.04.09-.02.04-.04.08-.05.12 0 .01-.01.03-.02.04-.17.44-.28.91-.31 1.4-.02.49.04.97.17 1.43 0 .01 0 .03.01.04.01.04.03.09.04.13l.03.09c0 .03.02.05.03.08.02.04.03.09.05.13a4.167 4.167 0 0 0 .79 1.24c.34.37.72.67 1.13.89.01 0 .02.01.03.02.04.02.08.04.13.06.03.01.05.03.08.04.03.01.06.03.09.04.04.02.08.04.12.05.01 0 .03.01.04.02.44.17.91.28 1.4.31.5.02.98-.04 1.43-.17.01 0 .03 0 .04-.01.04-.01.09-.03.13-.04.03 0 .06-.02.09-.03.03-.01.06-.02.08-.03.04-.02.09-.03.13-.05.01 0 .02-.01.04-.02.43-.18.84-.44 1.21-.78s.67-.72.89-1.13l.02-.03s.04-.08.06-.13c.01-.03.03-.05.04-.08l.04-.08s.04-.08.05-.13c0-.01 0-.03.02-.04.17-.44.28-.91.31-1.4.03-.5-.03-.97-.16-1.43 0-.01 0-.03-.01-.04-.01-.04-.03-.09-.04-.13" id="path5029"/></g><path class="cls-3" d="M106.52 155.16c-.74 0-1.45-.41-1.8-1.12l-13.81-28.12a2.002 2.002 0 0 1 3.59-1.77l13.81 28.12c.49.99.08 2.19-.91 2.68-.28.14-.58.21-.88.21z" id="path5033"/><path class="cls-3" d="M105.93 155.35c-.55 0-1.09-.22-1.48-.66L85.5 133.72c-.74-.82-.68-2.08.14-2.82.82-.74 2.08-.68 2.82.14l18.95 20.97c.74.82.68 2.08-.14 2.82-.38.35-.86.52-1.34.52z" id="path5035"/><rect class="cls-2" x="-20.356" y="121.65" width="4.85" height="17.22" rx="2.43" ry="2.43" transform="rotate(-42.11)" id="rect5037"/><rect class="cls-2" x="-26.681" y="131.846" width="4.85" height="7.02" rx="2.43" ry="2.43" transform="rotate(-42.11)" id="rect5039"/><rect class="cls-2" x="-33" y="131.849" width="4.85" height="7.02" rx="2.43" ry="2.43" transform="rotate(-42.11)" id="rect5041"/><path class="cls-2" d="m88.6 121.29-5.83-6.45-12.89 11.66 5.83 6.45c3.22 3.56 8.71 3.84 12.27.62a8.696 8.696 0 0 0 .62-12.28z" id="path5043"/><path class="cls-1" d="M15.8 132.73c0-4.41 1.39-6.46 4.41-6.46 2.45 0 3.6 1.06 3.6 3.43 0 6.29-8.99 7.6-8.99 19.77h13.65c0-8.58 12.26-10.95 12.26-22.8 0-9.4-6.94-14.87-18.79-14.87-12.75 0-20.18 7.76-20.18 20.92H15.8Z" id="path5045"/><path class="cls-9" d="M28.46 151.22H14.82c-.96 0-1.74-.78-1.74-1.74 0-7.75 3.34-11.49 6.03-14.5 1.89-2.11 2.96-3.4 2.96-5.28 0-1.29-.26-1.69-1.85-1.69-1 0-2.67 0-2.67 4.71 0 .96-.78 1.74-1.74 1.74H1.74c-.96 0-1.74-.78-1.74-1.74 0-14.19 8.2-22.66 21.93-22.66 12.86 0 20.54 6.21 20.54 16.62 0 7.12-3.91 11.09-7.37 14.6-2.62 2.67-4.89 4.97-4.89 8.2 0 .96-.78 1.74-1.74 1.74zm-11.83-3.49h10.23c.63-3.71 3.23-6.34 5.74-8.9 3.27-3.33 6.37-6.47 6.37-12.15 0-8.34-6.21-13.13-17.05-13.13s-17.77 6.33-18.39 17.43h10.61c.53-5.28 3.52-6.46 6.07-6.46 3.44 0 5.34 1.84 5.34 5.18s-1.96 5.48-3.85 7.6c-2.29 2.56-4.65 5.2-5.07 10.43z" id="path5047"/><g id="g5053" transform="translate(0 -.13)"><circle class="cls-1" cx="21.9" cy="163.88" r="8.18" id="circle5049"/><path class="cls-9" d="M21.9 173.8c-5.47 0-9.92-4.45-9.92-9.92s4.45-9.92 9.92-9.92 9.92 4.45 9.92 9.92-4.45 9.92-9.92 9.92zm0-16.35c-3.55 0-6.43 2.89-6.43 6.43 0 3.54 2.89 6.43 6.43 6.43 3.54 0 6.43-2.89 6.43-6.43 0-3.54-2.89-6.43-6.43-6.43z" id="path5051"/></g></svg>