<svg version="1.1" viewBox="0 0 106.99 171.597" xmlns="http://www.w3.org/2000/svg"><defs id="defs4370"><clipPath id="clippath"><path class="cls-8" d="M106.92 94.82 106.98 0H2.71v94.76c0 28.79 23.34 52.14 52.14 52.14s52.14-23.34 52.14-52.14l-.06.06z" id="path4359"/></clipPath><clipPath id="clippath-1"><path class="cls-8" d="M37.28 32.02a8.8 8.8 0 0 0-8.8 8.8l-9.91 43.64a8.8 8.8 0 0 0 8.8 8.8h56.29a8.8 8.8 0 0 0 8.8-8.8l-9.94-43.64a8.8 8.8 0 0 0-8.8-8.8H37.28Z" id="path4362"/></clipPath><clipPath id="clippath-2"><path class="cls-8" d="M55.24 99.3h41.15v96.09H55.24Z" id="path4365"/></clipPath><style id="style4368">.cls-2{fill:#fff}.cls-3{fill:#67c1be}.cls-4{fill:#0a9ea0}.cls-8{fill:none}</style></defs><path d="M54.85 146.212c28.79 0 52.14-23.34 52.14-52.14s-23.34-52.14-52.14-52.14-52.14 23.35-52.14 52.14 23.34 52.14 52.14 52.14" style="fill:#00577a" id="path4372"/><path class="cls-4" d="M102.36 138.422c-.66 0-1.3-.32-1.68-.91l-17.02-26.3c-.6-.93-.33-2.17.59-2.77.93-.6 2.17-.33 2.77.59l17.02 26.3c.6.93.33 2.17-.59 2.77-.34.22-.71.32-1.08.32z" id="path4374"/><path class="cls-4" d="M78.63 153.772c-.66 0-1.3-.32-1.68-.91-.6-.93-.33-2.17.59-2.77l23.73-15.35c.93-.6 2.17-.33 2.77.59.6.93.33 2.17-.59 2.77l-23.73 15.35c-.34.22-.71.32-1.08.32z" id="path4376"/><path class="cls-3" d="M101.66 132.112s-.06 0-.09.02c-.03 0-.06.01-.08.02-.05 0-.09.02-.14.03h-.04c-.46.11-.9.3-1.32.57-.42.27-.77.6-1.06.97 0 0-.01.02-.02.03-.03.04-.06.08-.09.11-.02.02-.03.05-.05.07-.02.03-.03.05-.05.08-.02.04-.05.07-.07.11 0 .01-.01.03-.02.04-.24.4-.43.85-.53 1.34-.1.48-.12.97-.07 1.43v.04c0 .04.01.09.02.13 0 .03 0 .06.02.09 0 .03.01.06.02.08 0 .05.02.09.03.14v.04c.11.46.3.9.57 1.32a4.29 4.29 0 0 0 1 1.08c.04.03.08.06.11.09.02.02.05.03.07.05.03.02.05.03.08.05.04.02.08.05.11.07.01 0 .03.01.04.02.4.24.85.42 1.34.53.48.1.97.12 1.43.06h.04c.04 0 .09-.01.13-.02.03 0 .06 0 .09-.02.03 0 .06-.01.08-.02.05 0 .09-.02.14-.03h.03c.46-.11.9-.3 1.32-.57.42-.27.77-.6 1.06-.97 0 0 .02-.02.02-.03.03-.04.06-.08.08-.12.02-.02.03-.05.05-.07.02-.03.03-.05.05-.08.02-.04.05-.08.07-.11 0-.01.01-.03.02-.04.24-.4.42-.85.53-1.33.1-.49.12-.97.06-1.44v-.04c0-.05-.01-.09-.02-.14 0-.03 0-.06-.01-.09 0-.03-.01-.06-.02-.09 0-.05-.02-.09-.03-.14 0-.01 0-.02-.01-.04-.11-.46-.3-.9-.57-1.32-.27-.42-.6-.77-.97-1.06l-.03-.02s-.08-.06-.11-.08c-.02-.02-.05-.03-.07-.05l-.08-.05s-.08-.05-.12-.07c-.01 0-.02-.01-.04-.02-.4-.24-.85-.43-1.34-.53-.48-.1-.97-.12-1.43-.07h-.04c-.05 0-.09.01-.13.02" id="path4378"/><g clip-path="url(#clippath)" id="g4408" transform="translate(0 -.688)"><path class="cls-4" d="M42.06 74.89v48.39c0 3.6 2.92 6.51 6.51 6.51h17.04c3.6 0 6.51-2.92 6.51-6.51V74.89M21.83 49.83c-2.86 0-5.19 3.15-5.19 7.04v7.04c0 3.89 2.32 7.04 5.19 7.04h68.04c2.86 0 5.19-3.15 5.19-7.04v-7.04c0-3.89-2.32-7.04-5.19-7.04H21.83Z" id="path4380"/><path class="cls-3" d="M37.29 32.02a8.8 8.8 0 0 0-8.8 8.8l-9.91 43.64a8.8 8.8 0 0 0 8.8 8.8h56.29a8.8 8.8 0 0 0 8.8-8.8l-9.94-43.64a8.8 8.8 0 0 0-8.8-8.8zm-1.94 71.51c-5.37 0-9.73 5.65-9.73 12.62l-10.96 62.61c0 6.97 4.36 12.62 9.73 12.62h62.28c5.37 0 9.73-5.65 9.73-12.62l-10.99-62.61c0-6.97-4.36-12.62-9.73-12.62z" id="path4382"/><path class="cls-4" d="M55.55 30.06h49.86v84.26H55.55Z" clip-path="url(#clippath-1)" id="path4384"/><path class="cls-2" d="M31.34 72.58c.3-1.4-.59-2.77-1.99-3.06a2.583 2.583 0 1 0-1.08 5.05c1.4.3 2.77-.59 3.06-1.99m1.55-7.23c.3-1.4-.59-2.77-1.99-3.06a2.583 2.583 0 1 0-1.08 5.05c1.4.3 2.77-.59 3.06-1.99m1.54-7.24c.3-1.4-.59-2.77-1.99-3.06a2.583 2.583 0 1 0-1.08 5.05c1.4.3 2.77-.59 3.06-1.99m43.82 14.47c-.3-1.4.59-2.77 1.99-3.06 1.4-.3 2.77.59 3.06 1.99.3 1.4-.6 2.77-1.99 3.06-1.4.3-2.77-.59-3.06-1.99m-1.54-7.23c-.3-1.4.59-2.77 1.99-3.06a2.583 2.583 0 1 1 1.08 5.05c-1.4.3-2.77-.59-3.06-1.99m-1.55-7.24c-.3-1.4.59-2.77 1.99-3.06 1.4-.3 2.77.59 3.06 1.99.3 1.4-.6 2.77-1.99 3.06-1.4.3-2.77-.59-3.06-1.99" id="path4386"/><path class="cls-4" d="M35.35 103.53c-5.37 0-9.73 5.65-9.73 12.62l-10.96 62.61c0 6.97 4.36 12.62 9.73 12.62h62.28c5.37 0 9.73-5.65 9.73-12.62l-10.71-62.61c-.09-7.94-4.64-12.62-10.01-12.62Z" clip-path="url(#clippath-2)" id="path4388"/><path style="fill:none;stroke:#0a9ea0;stroke-width:3.99px;stroke-linecap:round" d="m14.43 149.41 6.46-30.55" id="path4390"/><path class="cls-3" d="m19.32 108.26-1.93 9.38c-.75 3.66 2.04 7.09 5.78 7.09h21.49c3.26 0 5.9-2.64 5.9-5.9v-9.38c0-3.26-2.64-5.9-5.9-5.9H25.1c-2.8 0-5.21 1.97-5.78 4.71z" id="path4392"/><path class="cls-4" d="m92.26 107.54 1.93 7.94c.75 3.1-2.04 6-5.78 6H66.92c-3.26 0-5.9-2.24-5.9-5v-7.94c0-2.76 2.64-5 5.9-5h19.56c2.8 0 5.21 1.67 5.78 3.99z" id="path4394"/><circle class="cls-3" cx="55.77" cy="135.49" r="13.64" id="circle4396"/><path class="cls-4" d="M55.77 150.64c-8.35 0-15.15-6.79-15.15-15.14 0-8.35 6.79-15.15 15.15-15.15s15.14 6.79 15.14 15.15-6.79 15.14-15.14 15.14zm0-27.29c-6.7 0-12.15 5.45-12.15 12.15s5.45 12.14 12.15 12.14 12.14-5.45 12.14-12.14-5.45-12.15-12.14-12.15z" id="path4398"/><path d="M56.34 73.27c6.96 0 12.6-5.64 12.6-12.6s-5.64-12.6-12.6-12.6-12.6 5.64-12.6 12.6 5.64 12.6 12.6 12.6" style="fill:#f6c349" id="path4400"/><path d="M53.13 69.5a5.25 5.25 0 1 0 0-10.5 5.25 5.25 0 1 0 0 10.5m7.82 10.68a5.16 5.16 0 1 1-10.32 0h10.33z" id="path4402" style="fill:#1d1d1b"/><path class="cls-4" d="M42.78 57.86c1.51-7.7 7.63-13.47 14.95-13.47 7.32 0 13.44 5.77 14.95 13.47H42.77Z" id="path4404"/><path class="cls-3" d="M42.78 57.86c1.36-6.17 6.85-10.79 13.43-10.79s12.07 4.62 13.43 10.79H42.77Z" id="path4406"/></g><path class="cls-2" d="m3.19 100.972-1.71 52.11H42.4l-.68-52.26z" id="path4410"/><path d="M34.01 117.012H9.83c-1.04 0-1.85-.81-1.85-1.85s.81-1.85 1.85-1.85H34c1.03 0 1.85.81 1.85 1.85s-.81 1.85-1.85 1.85m.01 9.61H9.83c-1.04 0-1.85-.81-1.85-1.85s.81-1.85 1.85-1.85H34c1.03 0 1.85.81 1.85 1.85s-.81 1.85-1.85 1.85m.01 9.61H9.83c-1.04 0-1.85-.81-1.85-1.85s.81-1.85 1.85-1.85H34c1.03 0 1.85.81 1.85 1.85s-.81 1.85-1.85 1.85" id="path4412"/><path d="M7.02 101.812c-1.85 0-3.33 1.43-3.33 3.22v43.12c0 1.79 1.48 3.22 3.33 3.22h30.46c1.85 0 3.33-1.43 3.33-3.22v-43.12c0-1.79-1.48-3.22-3.33-3.22zm30.53 53.13H7.02c-3.84 0-7.02-3.07-7.02-6.79v-43.12c0-3.72 3.18-6.79 7.02-6.79h30.46c3.84 0 7.02 3.07 7.02 6.79v43.12c.07 3.79-3.1 6.79-6.95 6.79" id="path4414"/><path class="cls-3" d="M79.96 150.972c-2.61-4.03-7.99-5.18-12.02-2.58l-7.3 4.72 9.44 14.59 7.3-4.72c4.03-2.61 5.18-7.99 2.58-12.02z" id="path4416"/><rect class="cls-3" x="-166.23" y="-51.342" width="4.85" height="17.22" rx="2.43" ry="2.43" transform="rotate(-122.91)" id="rect4418"/><rect class="cls-3" x="-172.552" y="-41.153" width="4.85" height="7.02" rx="2.43" ry="2.43" transform="rotate(-122.91)" id="rect4420"/><rect class="cls-3" x="-178.875" y="-41.143" width="4.85" height="7.02" rx="2.43" ry="2.43" transform="rotate(-122.91)" id="rect4422"/><g id="g4428" transform="translate(0 -.688)"><path class="cls-4" d="m52.93 13.27-.06 18.77h5.62V19.39c-1.3-1.01-3.61-3.89-5.55-6.13z" id="path4424"/><path class="cls-3" d="M76 17.36c.58-.87 1.03-1.82 1.33-2.82.31-1.03.47-2.11.46-3.19 0-1.45-.3-2.86-.87-4.17a10.742 10.742 0 0 0-6.74-6.03C69.15.84 68.06.67 66.99.69c-.74 0-1.47.09-2.18.26-1.22.29-2.43.82-3.61 1.59-.88.58-1.75 1.29-2.67 2.18-.67.66-2.08 2.29-2.82 3.18.55.68 1.09 1.36 1.62 2.02l.66.83c.7-.85 2.03-2.44 2.62-3.04.53-.55 1.06-1.04 1.57-1.45.8-.65 1.6-1.15 2.37-1.47.4-.17.8-.29 1.21-.38.42-.09.83-.13 1.27-.14.94.01 1.9.18 2.79.54 1.28.53 2.38 1.42 3.17 2.58.4.58.7 1.21.91 1.87.22.69.33 1.4.34 2.13 0 .96-.18 1.9-.54 2.79a7.208 7.208 0 0 1-2.58 3.17 7.245 7.245 0 0 1-4 1.25c-.49 0-.93-.05-1.39-.15-.59-.13-1.16-.34-1.74-.64-.19-.1-.38-.21-.58-.32-.56-.34-1.14-.77-1.72-1.28-.21-.18-.43-.38-.64-.59-.6-.57-1.23-1.24-1.92-2.05-.53-.62-1.06-1.27-1.6-1.94l-1.04-1.3c-.85-1.07-1.73-2.19-2.65-3.24-.79-.91-1.51-1.67-2.2-2.32-.62-.59-1.21-1.09-1.81-1.53-.12-.09-.24-.17-.36-.26-.91-.63-1.8-1.11-2.73-1.46-.94-.35-1.91-.57-2.88-.63-.21-.01-.41-.02-.62-.02h-.09c-1.45 0-2.86.3-4.17.87-1.91.83-3.54 2.18-4.7 3.92a10.706 10.706 0 0 0-1.79 6.01c0 1.45.3 2.85.87 4.17.83 1.91 2.18 3.54 3.92 4.7.87.58 1.82 1.03 2.82 1.33 1.03.31 2.09.48 3.19.46.73 0 1.47-.09 2.18-.26 1.22-.29 2.44-.82 3.61-1.59.88-.58 1.75-1.29 2.67-2.18.67-.65 2.09-2.2 2.85-3.09-.57-.69-2.08-2.6-2.28-2.85-.71.86-2.06 2.35-2.64 2.95-.53.55-1.06 1.03-1.57 1.45-.8.65-1.6 1.14-2.37 1.47-.41.17-.8.3-1.21.38-.42.09-.84.14-1.27.14-.97.01-1.91-.18-2.79-.54a7.075 7.075 0 0 1-3.17-2.58c-.39-.57-.7-1.2-.91-1.87-.22-.69-.33-1.4-.34-2.13 0-.96.18-1.9.54-2.79a7.208 7.208 0 0 1 2.58-3.17 7.245 7.245 0 0 1 4-1.25c.46 0 .92.05 1.39.15.78.17 1.54.49 2.32.97.56.34 1.14.77 1.72 1.28.79.69 1.63 1.55 2.57 2.64.85.99 1.73 2.09 2.57 3.16l.09.11c.84 1.07 1.72 2.17 2.62 3.22.8.93 1.5 1.66 2.2 2.33.14.14.29.27.44.41.48.42.93.79 1.37 1.12 1.03.76 2.04 1.32 3.08 1.71l.21.08c1.1.39 2.25.59 3.38.58 1.45 0 2.85-.3 4.17-.87 1.91-.83 3.54-2.18 4.69-3.92zm-19.02-7.17Z" id="path4426"/></g></svg>