<svg version="1.1" viewBox="0 0 182.573 340.973" xmlns="http://www.w3.org/2000/svg">
  <defs>
    <clipPath clipPathUnits="userSpaceOnUse" id="a">
      <path d="M1157.71 340.629H744.93v963.961h412.78z"/>
    </clipPath>
    <clipPath clipPathUnits="userSpaceOnUse" id="b">
      <path d="M384.539 1663.42c0-201.45 163.313-364.74 364.75-364.74 201.43 0 364.741 163.29 364.741 364.74 0 201.44-163.311 364.75-364.741 364.75-201.437 0-364.75-163.31-364.75-364.75"/>
    </clipPath>
  </defs>
  <path d="M1299.12 161.629C1299.12 72.359 1052.26 0 747.73 0 443.199 0 196.332 72.36 196.332 161.629c0 89.262 246.867 161.621 551.398 161.621 304.53 0 551.39-72.359 551.39-161.621" style="fill:#beda4e;fill-opacity:1;fill-rule:nonzero;stroke:none" transform="matrix(.13333 0 0 -.13333 0 340.973)"/>
  <path d="M615.262 661.129c-10.465 0-16.25-6.629-18.25-9.488-2.004-2.852-6.278-10.551-2.723-20.391l139.707-386.488c4.801-13.27 16.266-14.711 20.969-14.711 4.711 0 16.176 1.441 20.98 14.719l139.696 386.492c3.554 9.828-.719 17.539-2.723 20.386-1.992 2.852-7.781 9.481-18.242 9.481zm139.707-501.078h-.004c-39.352 0-73.418 23.91-86.797 60.918L528.461 607.461c-10.215 28.25-6.008 59.809 11.254 84.398 17.262 24.59 45.504 39.27 75.547 39.27h279.414c30.051 0 58.293-14.68 75.547-39.27 17.254-24.589 21.465-56.148 11.242-84.41l-139.692-386.48c-13.386-37.008-47.46-60.918-86.804-60.918" style="fill:#0a9ea0;fill-opacity:1;fill-rule:nonzero;stroke:none" transform="matrix(.13333 0 0 -.13333 0 340.973)"/>
  <path d="M150.668 1648.2c-13.395 0-24.258 10.86-24.258 24.26v123.65c0 13.39 10.863 24.25 24.258 24.25 13.398 0 24.258-10.86 24.258-24.25v-123.65c0-13.4-10.86-24.26-24.258-24.26M87.469 1648.2c-13.395 0-24.258 10.86-24.258 24.26v21.72c0 13.4 10.863 24.26 24.258 24.26 13.398 0 24.258-10.86 24.258-24.26v-21.72c0-13.4-10.86-24.26-24.258-24.26M24.27 1648.2c-13.395 0-24.258 10.86-24.258 24.26v21.72c0 13.4 10.863 24.26 24.258 24.26 13.398 0 24.257-10.86 24.257-24.26v-21.72c0-13.4-10.859-24.26-24.258-24.26" style="fill:#67c1be;fill-opacity:1;fill-rule:nonzero;stroke:none" transform="matrix(.13333 0 0 -.13333 0 340.973)"/>
  <path d="M87.465 1188.87h325.828M87.465 1471.52v-282.65" style="fill:none;stroke:#0a9ea0;stroke-width:40;stroke-linecap:round;stroke-linejoin:miter;stroke-miterlimit:4;stroke-dasharray:none;stroke-opacity:1" transform="matrix(.13333 0 0 -.13333 0 340.973)"/>
  <path d="M127.41 1171.33c.129.29.25.57.371.86.11.26.211.53.321.8.171.44.339.88.5 1.33.039.12.082.23.121.35a43.379 43.379 0 0 1 2.379 14.2c0 4.98-.84 9.75-2.379 14.21-.039.12-.082.23-.121.34-.161.45-.329.9-.5 1.34-.11.27-.211.53-.321.8-.121.29-.242.57-.371.86-.18.41-.359.82-.558 1.23-.059.13-.129.26-.192.39a43.052 43.052 0 0 1-8.34 11.69c-3.5 3.5-7.461 6.27-11.679 8.34-.137.06-.27.13-.399.19-.41.19-.82.38-1.23.56-.282.12-.571.25-.86.37-.261.11-.531.21-.8.32-.442.17-.879.34-1.329.5-.121.04-.23.08-.351.11a43.427 43.427 0 0 1-28.41 0c-.121-.03-.23-.07-.34-.11-.45-.16-.899-.33-1.34-.5-.27-.11-.531-.21-.8-.32-.29-.12-.571-.25-.86-.37-.41-.18-.82-.37-1.23-.56-.13-.06-.262-.13-.391-.19a43.74 43.74 0 0 1-11.688-8.34c-3.5-3.5-6.273-7.46-8.332-11.69-.07-.13-.129-.26-.199-.39-.191-.41-.379-.82-.559-1.23-.12-.29-.25-.57-.37-.86-.11-.27-.212-.53-.313-.8-.18-.44-.348-.89-.508-1.34-.039-.11-.07-.22-.11-.34a43.34 43.34 0 0 1-2.39-14.21c0-4.97.848-9.75 2.39-14.2.04-.12.071-.23.11-.35.16-.45.328-.89.508-1.33.101-.27.203-.54.312-.8.121-.29.25-.57.371-.86.18-.41.368-.82.559-1.23.07-.13.129-.26.2-.4a43.4 43.4 0 0 1 8.331-11.68 43.293 43.293 0 0 1 11.7-8.34c.117-.06.25-.13.378-.19.41-.2.832-.38 1.25-.57.27-.12.551-.24.832-.36.278-.11.547-.22.829-.32.43-.17.87-.34 1.308-.5.121-.04.242-.08.371-.12a43.286 43.286 0 0 1 14.192-2.38c4.957 0 9.738.84 14.187 2.38l.363.12c.45.16.879.33 1.317.5.269.1.551.21.82.32.281.12.563.24.84.36.422.19.832.37 1.25.57.133.06.254.13.383.19a43.294 43.294 0 0 1 11.687 8.34 43.16 43.16 0 0 1 8.34 11.68c.063.14.133.27.192.4.199.41.378.82.558 1.23M173.832 1629.88H.078v-85.47c-.008-.52-.078-1.03-.078-1.55 0-48 38.914-86.91 86.906-86.91 47.535 0 86.11 38.19 86.84 85.55h.086v88.38M1218.68 480.711c13.4 0 24.26-10.859 24.26-24.262v-123.64c0-13.399-10.86-24.258-24.26-24.258-13.39 0-24.25 10.859-24.25 24.258v123.64c0 13.403 10.86 24.262 24.25 24.262M1281.88 480.711c13.4 0 24.26-10.859 24.26-24.262V434.73c0-13.398-10.86-24.261-24.26-24.261-13.39 0-24.25 10.863-24.25 24.261v21.719c0 13.403 10.86 24.262 24.25 24.262M1345.08 480.711c13.4 0 24.26-10.859 24.26-24.262V434.73c0-13.398-10.86-24.261-24.26-24.261-13.39 0-24.25 10.863-24.25 24.261v21.719c0 13.403 10.86 24.262 24.25 24.262"
        style="fill:#67c1be;fill-opacity:1;fill-rule:nonzero;stroke:none"
        transform="matrix(.13333 0 0 -.13333 0 340.973)"/>
  <path d="M1281.89 657.391v282.648M1283.44 970.582l-221.51 221.508" style="fill:none;stroke:#0a9ea0;stroke-width:40;stroke-linecap:round;stroke-linejoin:miter;stroke-miterlimit:4;stroke-dasharray:none;stroke-opacity:1" transform="matrix(.13333 0 0 -.13333 0 340.973)"/>
  <path d="M1239.6 973.801c-.09-.313-.16-.602-.23-.91-.06-.27-.12-.559-.18-.84-.1-.461-.19-.922-.27-1.391-.02-.129-.05-.25-.07-.371a43.48 43.48 0 0 1 0-14.398 43.208 43.208 0 0 1 4.7-13.621c.06-.11.11-.211.17-.321.23-.41.47-.828.71-1.23.16-.25.3-.489.45-.739.17-.269.33-.519.51-.789.24-.371.49-.75.76-1.121.08-.121.17-.23.25-.351a43.135 43.135 0 0 1 10.15-10.149 43.497 43.497 0 0 1 12.9-6.3c.15-.04.29-.079.43-.122.43-.117.87-.238 1.3-.347.3-.071.6-.153.91-.219.27-.07.56-.121.84-.191.46-.09.93-.192 1.4-.27.12-.019.24-.039.36-.051 4.64-.789 9.5-.84 14.4-.011 4.91.82 9.48 2.441 13.62 4.703.11.047.21.109.32.16.41.238.83.476 1.24.719.24.148.48.289.73.449.27.16.52.34.79.5.37.25.75.5 1.12.762.12.078.23.168.35.25a43.853 43.853 0 0 1 10.16 10.16 43.25 43.25 0 0 1 6.28 12.898c.05.141.09.281.13.422.12.43.24.867.35 1.297.07.312.16.609.23.91.06.293.12.563.17.84.1.473.2.941.28 1.41.02.109.03.231.05.352.79 4.66.84 9.5.01 14.41a43.156 43.156 0 0 1-4.7 13.609c-.06.11-.1.219-.16.328-.24.422-.48.821-.73 1.231-.14.25-.28.5-.43.742-.17.258-.35.519-.51.777-.25.383-.5.75-.76 1.121-.09.121-.17.243-.26.36a43.441 43.441 0 0 1-10.14 10.152 43.467 43.467 0 0 1-12.92 6.289c-.13.04-.27.09-.41.13-.43.13-.88.23-1.32.35-.29.08-.59.15-.88.22-.3.06-.58.13-.87.18-.46.1-.92.19-1.38.28-.12.02-.25.04-.38.05-4.65.79-9.49.83-14.39.01-4.89-.82-9.47-2.44-13.6-4.69-.12-.06-.23-.12-.34-.18-.42-.23-.81-.47-1.22-.71-.25-.15-.51-.3-.75-.45-.26-.17-.52-.33-.77-.498-.39-.25-.76-.5-1.14-.77-.12-.082-.23-.16-.35-.25a43.166 43.166 0 0 1-10.15-10.152 43.243 43.243 0 0 1-6.29-12.899c-.04-.152-.09-.293-.13-.422-.13-.437-.23-.879-.34-1.308M1194.97 499.031h173.75V584.5c.01.52.08 1.031.08 1.551 0 47.988-38.91 86.91-86.91 86.91-47.53 0-86.1-38.191-86.84-85.551h-.08v-88.379"
        style="fill:#67c1be;fill-opacity:1;fill-rule:nonzero;stroke:none"
        transform="matrix(.13333 0 0 -.13333 0 340.973)"/>
  <path d="M596.203 996.582c0-36.082 29.25-65.34 65.332-65.34h170.91c36.078 0 65.328 29.258 65.328 65.34v485.448c0 36.08-29.25 65.33-65.328 65.33h-170.91c-36.082 0-65.332-29.25-65.332-65.33V996.582M931.855 1231.44c-.292-.65-.562-1.28-.832-1.93-.246-.58-.468-1.19-.718-1.79-.379-.99-.762-1.98-1.121-2.99-.09-.27-.18-.52-.27-.79a97.33 97.33 0 0 1-5.344-31.88 97.45 97.45 0 0 1 5.344-31.9c.09-.27.18-.52.27-.76.359-1.01.742-2.02 1.121-3.01.25-.61.472-1.19.718-1.8.27-.65.54-1.28.832-1.93.403-.92.809-1.84 1.258-2.76.133-.29.289-.58.426-.88a96.988 96.988 0 0 1 18.723-26.24c7.859-7.86 16.75-14.08 26.222-18.73.317-.13.61-.29.899-.42.922-.43 1.844-.86 2.762-1.26.628-.27 1.281-.56 1.933-.83.582-.25 1.188-.47 1.797-.72.984-.38 1.973-.76 2.984-1.12.27-.09.516-.18.786-.25a97.3 97.3 0 0 1 31.885-5.36c11.18 0 21.89 1.9 31.9 5.36.27.07.51.16.76.25 1.01.36 2.02.74 3.01 1.12.61.25 1.19.47 1.8.72.65.27 1.28.56 1.93.83.92.4 1.84.83 2.76 1.26.29.13.58.29.87.42 9.48 4.65 18.39 10.87 26.25 18.73a97.204 97.204 0 0 1 18.7 26.24c.16.3.29.59.45.88.43.92.85 1.84 1.26 2.76.27.65.56 1.28.83 1.93.25.61.47 1.19.69 1.8.41.99.79 2 1.15 3.01.09.24.16.49.25.76a97.643 97.643 0 0 1 5.36 31.9c0 11.16-1.91 21.89-5.36 31.88-.09.27-.16.52-.25.79-.36 1.01-.74 2-1.15 2.99-.22.6-.44 1.21-.69 1.79-.27.65-.56 1.28-.83 1.93-.41.92-.83 1.84-1.26 2.76-.16.3-.29.59-.45.9a97.111 97.111 0 0 1-18.7 26.22 97.394 97.394 0 0 1-26.27 18.73c-.27.13-.56.29-.85.43-.92.44-1.86.85-2.81 1.28-.6.26-1.23.53-1.86.8-.63.25-1.24.5-1.86.72-.97.38-1.96.77-2.95 1.12-.27.09-.53.18-.83.27a97.12 97.12 0 0 1-31.85 5.35 97.228 97.228 0 0 1-31.862-5.35l-.809-.27c-1.011-.35-1.976-.74-2.964-1.12-.606-.22-1.235-.47-1.84-.72-.629-.27-1.258-.54-1.887-.8-.941-.43-1.863-.84-2.805-1.28-.293-.14-.562-.3-.855-.43-9.473-4.63-18.387-10.85-26.246-18.73a96.896 96.896 0 0 1-18.723-26.22c-.137-.31-.293-.6-.426-.9-.449-.92-.855-1.84-1.258-2.76"
        style="fill:#0a9ea0;fill-opacity:1;fill-rule:nonzero;stroke:none"
        transform="matrix(.13333 0 0 -.13333 0 340.973)"/>
  <path d="M379.367 1231.44c-.293-.65-.562-1.28-.832-1.93-.246-.58-.472-1.19-.719-1.79-.382-.99-.761-1.98-1.121-2.99-.09-.27-.179-.52-.269-.79a97.33 97.33 0 0 1-5.344-31.88 97.45 97.45 0 0 1 5.344-31.9c.09-.27.179-.52.269-.76.36-1.01.739-2.02 1.121-3.01.247-.61.473-1.19.719-1.8.27-.65.539-1.28.832-1.93.403-.92.809-1.84 1.258-2.76.133-.29.289-.58.426-.88a97.006 97.006 0 0 1 18.722-26.24 98.168 98.168 0 0 1 26.223-18.73c.317-.13.606-.29.899-.42.921-.43 1.839-.86 2.761-1.26.629-.27 1.282-.56 1.934-.83.582-.25 1.187-.47 1.793-.72.988-.38 1.976-.76 2.988-1.12.27-.09.516-.18.785-.25a97.268 97.268 0 0 1 31.879-5.36c11.184 0 21.891 1.9 31.903 5.36.273.07.519.16.765.25 1.012.36 2.02.74 3.008 1.12.605.25 1.191.47 1.797.72.648.27 1.277.56 1.93.83.921.4 1.839.83 2.761 1.26.293.13.582.29.875.42 9.477 4.65 18.391 10.87 26.246 18.73a97.325 97.325 0 0 1 18.703 26.24c.157.3.29.59.45.88.425.92.851 1.84 1.257 2.76.266.65.559 1.28.829 1.93.246.61.472 1.19.695 1.8.406.99.789 2 1.144 3.01.09.24.161.49.25.76a97.46 97.46 0 0 1 5.364 31.9c0 11.16-1.907 21.89-5.364 31.88-.089.27-.16.52-.25.79-.355 1.01-.738 2-1.144 2.99-.223.6-.449 1.21-.695 1.79-.27.65-.563 1.28-.829 1.93-.406.92-.832 1.84-1.257 2.76-.16.3-.293.59-.45.9a97.232 97.232 0 0 1-18.703 26.22 97.418 97.418 0 0 1-26.265 18.73c-.274.13-.563.29-.856.43-.922.44-1.863.85-2.804 1.28-.61.26-1.239.53-1.864.8-.629.25-1.234.5-1.867.72-.965.38-1.949.77-2.937 1.12-.27.09-.539.18-.832.27a97.15 97.15 0 0 1-31.86 5.35 97.2 97.2 0 0 1-31.855-5.35l-.809-.27c-1.012-.35-1.976-.74-2.965-1.12a47.2 47.2 0 0 1-1.84-.72c-.628-.27-1.257-.54-1.886-.8-.946-.43-1.864-.84-2.809-1.28-.289-.14-.558-.3-.851-.43-9.473-4.63-18.387-10.85-26.247-18.73a96.914 96.914 0 0 1-18.722-26.22c-.137-.31-.293-.6-.426-.9-.449-.92-.855-1.84-1.258-2.76"
        style="fill:#67c1be;fill-opacity:1;fill-rule:nonzero;stroke:none"
        transform="matrix(.13333 0 0 -.13333 0 340.973)"/>
  <path d="M545.348 1262.22c-51.211 0-93.219-51.15-97.293-116.22-.434-6.91-.922-13.81-2.117-20.62L341.531 529.051c-4.133-23.59-3.535-48.039 3.887-70.821 14.812-45.449 49.508-77.351 89.945-77.351H1060.1c40.43 0 75.12 31.891 89.94 77.332 7.43 22.801 8.02 47.277 3.87 70.891l-104.67 596.278c-1.2 6.81-1.69 13.71-2.12 20.62-4.07 65.07-46.07 116.22-97.296 116.22H545.348" style="fill:#67c1be;fill-opacity:1;fill-rule:nonzero;stroke:none" transform="matrix(.13333 0 0 -.13333 0 340.973)"/>
  <g clip-path="url(#a)" transform="matrix(.13333 0 0 -.13333 0 340.973)">
    <path d="M545.348 1262.22c-53.91 0-97.618-56.67-97.618-126.61L337.754 507.492c0-69.922 43.699-126.613 97.609-126.613H1060.1c53.91 0 97.61 56.691 97.61 126.613l-107.47 628.118c-.85 79.65-46.49 126.61-100.416 126.61H545.348" style="fill:#0a9ea0;fill-opacity:1;fill-rule:nonzero;stroke:none"/>
  </g>
  <path d="m610.758 945.281 112.258 112.259c17.644 17.64 46.254 17.64 63.902 0l112.254-112.259c28.465-28.461 8.305-77.133-31.949-77.133H642.711c-40.258 0-60.418 48.672-31.953 77.133" style="fill:#67c1be;fill-opacity:1;fill-rule:nonzero;stroke:none" transform="matrix(.13333 0 0 -.13333 0 340.973)"/>
  <path d="M754.969 1055.78c-8.067 0-15.645-3.15-21.348-8.85L621.363 934.68c-8.929-8.93-11.375-21.231-6.543-32.899 4.836-11.672 15.262-18.633 27.887-18.633h224.52c12.625 0 23.043 6.961 27.878 18.633 4.833 11.668 2.395 23.969-6.535 32.899l-112.261 112.25c-5.707 5.71-13.286 8.85-21.34 8.85zm112.258-202.632h-224.52c-24.805 0-46.105 14.231-55.602 37.153-9.492 22.918-4.496 48.051 13.047 65.59L712.41 1068.15c11.367 11.36 26.481 17.63 42.559 17.63 16.074 0 31.191-6.27 42.547-17.63l112.265-112.259c17.539-17.539 22.539-42.68 13.039-65.602-9.492-22.91-30.793-37.141-55.593-37.141M498.023 2042.47l71.563-123.94 41.309 23.85-71.559 123.94-41.313-23.85M991.469 2042.47l-71.559-123.94-41.308 23.85 71.558 123.94 41.309-23.85" style="fill:#0a9ea0;fill-opacity:1;fill-rule:nonzero;stroke:none" transform="matrix(.13333 0 0 -.13333 0 340.973)"/>
  <path d="M1015.65 2132.06c-26.849 15.51-60.033 9.89-80.509-11.61l-94.375 63.66c3.593 10.1 5.652 20.93 5.652 32.27 0 47.48-34.324 86.86-79.496 94.91v116.62c16.293 4.36 30.922 14.93 40.016 30.69 18.179 31.48 7.39 71.74-24.098 89.92-31.488 18.18-71.75 7.39-89.93-24.09-18.172-31.49-7.39-71.75 24.102-89.93 5.113-2.95 10.468-5.06 15.91-6.52v-116.69c-45.164-8.05-79.484-47.43-79.484-94.91 0-9.6 1.449-18.85 4.058-27.61L555.09 2119.7c-20.41 22.13-54.078 28.05-81.25 12.36-31.488-18.18-42.281-58.43-24.098-89.92 18.18-31.49 58.438-42.28 89.93-24.1 25.551 14.76 37.461 44.05 31.34 71.39l102.031 68.82c17.617-23.26 45.453-38.36 76.883-38.36 29.719 0 56.277 13.46 73.976 34.59l94.864-63.99c-6.676-27.65 5.175-57.5 31.058-72.45 31.489-18.18 71.746-7.39 89.926 24.1 18.18 31.49 7.39 71.74-24.1 89.92" style="fill:#67c1be;fill-opacity:1;fill-rule:nonzero;stroke:none" transform="matrix(.13333 0 0 -.13333 0 340.973)"/>
  <path d="M749.285 1298.68c201.442 0 364.735 163.3 364.735 364.74s-163.293 364.74-364.735 364.74c-201.441 0-364.738-163.3-364.738-364.74s163.297-364.74 364.738-364.74" style="fill:#67c1be;fill-opacity:1;fill-rule:nonzero;stroke:none" transform="matrix(.13333 0 0 -.13333 0 340.973)"/>
  <g clip-path="url(#b)" transform="matrix(.13333 0 0 -.13333 0 340.973)">
    <path d="M744.309 1263.06h467.501v789.98H744.309v-789.98" style="fill:#0a9ea0;fill-opacity:1;fill-rule:nonzero;stroke:none"/>
  </g>
  <path d="M1007.09 1361.11c-49.914 28.81-67.012 92.63-38.192 142.54 28.809 49.91 92.632 67.01 142.542 38.2 49.91-28.82 67.01-92.64 38.19-142.55-28.81-49.91-92.63-67.01-142.54-38.19z" style="fill:none;stroke:#0a9ea0;stroke-width:40;stroke-linecap:butt;stroke-linejoin:miter;stroke-miterlimit:4;stroke-dasharray:none;stroke-opacity:1" transform="matrix(.13333 0 0 -.13333 0 340.973)"/>
  <path d="M377.07 1361.11c-49.91 28.81-67.007 92.63-38.187 142.54 28.808 49.91 92.629 67.01 142.539 38.2 49.91-28.82 67.008-92.64 38.187-142.55-28.808-49.91-92.629-67.01-142.539-38.19z" style="fill:none;stroke:#67c1be;stroke-width:40;stroke-linecap:butt;stroke-linejoin:miter;stroke-miterlimit:4;stroke-dasharray:none;stroke-opacity:1" transform="matrix(.13333 0 0 -.13333 0 340.973)"/>
  <path d="M995.566 1561.18c12.484 31.1 19.424 65.02 19.424 100.58 0 29.54-4.81 57.95-13.57 84.56H488.078a269.869 269.869 0 0 1-13.57-84.56c0-35.56 6.941-69.48 19.422-100.58h501.636M744.746 1817.53c12.383 0 22.422 10.04 22.422 22.42 0 12.38-10.039 22.42-22.422 22.42-12.379 0-22.418-10.04-22.418-22.42 0-12.38 10.039-22.42 22.418-22.42M616.379 1817.53c12.383 0 22.422 10.04 22.422 22.42 0 12.38-10.039 22.42-22.422 22.42-12.379 0-22.418-10.04-22.418-22.42 0-12.38 10.039-22.42 22.418-22.42M680.563 1817.53c12.382 0 22.421 10.04 22.421 22.42 0 12.38-10.039 22.42-22.421 22.42-12.379 0-22.418-10.04-22.418-22.42 0-12.38 10.039-22.42 22.418-22.42M808.934 1817.53c12.379 0 22.418 10.04 22.418 22.42 0 12.38-10.039 22.42-22.418 22.42-12.383 0-22.422-10.04-22.422-22.42 0-12.38 10.039-22.42 22.422-22.42M873.117 1817.53c12.379 0 22.418 10.04 22.418 22.42 0 12.38-10.039 22.42-22.418 22.42-12.383 0-22.422-10.04-22.422-22.42 0-12.38 10.039-22.42 22.422-22.42M581.289 1496.37c23.391-67.54 87.461-116.08 162.961-116.08 75.508 0 139.578 48.54 162.969 116.08h-325.93"
        style="fill:#171717;fill-opacity:1;fill-rule:nonzero;stroke:none"
        transform="matrix(.13333 0 0 -.13333 0 340.973)"/>
  <path d="M579.891 1588.31c34.839 0 63.066 28.24 63.066 63.07s-28.227 63.06-63.066 63.06c-34.836 0-63.063-28.23-63.063-63.06s28.227-63.07 63.063-63.07" style="fill:#beda4e;fill-opacity:1;fill-rule:nonzero;stroke:none" transform="matrix(.13333 0 0 -.13333 0 340.973)"/>
  <path d="M579.891 1624.78c14.695 0 26.597 11.92 26.597 26.6 0 14.69-11.902 26.6-26.597 26.6-14.696 0-26.598-11.91-26.598-26.6 0-14.68 11.902-26.6 26.598-26.6" style="fill:#171717;fill-opacity:1;fill-rule:nonzero;stroke:none" transform="matrix(.13333 0 0 -.13333 0 340.973)"/>
  <path d="M910.691 1588.31c34.84 0 63.067 28.24 63.067 63.07s-28.227 63.06-63.067 63.06c-34.836 0-63.062-28.23-63.062-63.06s28.226-63.07 63.062-63.07" style="fill:#beda4e;fill-opacity:1;fill-rule:nonzero;stroke:none" transform="matrix(.13333 0 0 -.13333 0 340.973)"/>
  <path d="M910.691 1624.78c14.696 0 26.598 11.92 26.598 26.6 0 14.69-11.902 26.6-26.598 26.6-14.695 0-26.597-11.91-26.597-26.6 0-14.68 11.902-26.6 26.597-26.6M648.844 1570.17H510.938v43.7h137.906v-43.7M981.453 1570.17h-137.91v43.7h137.91v-43.7" style="fill:#171717;fill-opacity:1;fill-rule:nonzero;stroke:none" transform="matrix(.13333 0 0 -.13333 0 340.973)"/>
</svg>