<svg version="1.1" viewBox="0 0 124.31 158.102" xmlns="http://www.w3.org/2000/svg"><defs id="defs4164"><clipPath id="clippath"><path class="cls-8" d="M104.32 94.82 104.38 0H.11v94.76c0 28.79 23.34 52.14 52.14 52.14s52.14-23.34 52.14-52.14l-.06.06z" id="path4153"/></clipPath><clipPath id="clippath-1"><path class="cls-8" d="M34.57 32.02a8.8 8.8 0 0 0-8.8 8.8l-9.91 43.64a8.8 8.8 0 0 0 8.8 8.8h56.29a8.8 8.8 0 0 0 8.8-8.8l-9.94-43.64a8.8 8.8 0 0 0-8.8-8.8H34.57Z" id="path4156"/></clipPath><clipPath id="clippath-2"><path class="cls-8" d="M52.53 99.3h41.15v96.09H52.53Z" id="path4159"/></clipPath><style id="style4162">.cls-2{fill:#fff}.cls-3{fill:#67c1be}.cls-4{fill:#0a9ea0}.cls-8{fill:none}.cls-11{fill:#1d1d1b}</style></defs><path d="M52.14 146.242c28.79 0 52.14-23.34 52.14-52.14s-23.34-52.14-52.14-52.14S0 65.312 0 94.102s23.34 52.14 52.14 52.14" style="fill:#00577a" id="path4166"/><path class="cls-4" d="M115.56 112.872H84.23c-1.1 0-2-.9-2-2s.9-2 2-2h31.33c1.1 0 2 .9 2 2s-.9 2-2 2z" id="path4168"/><path class="cls-4" d="M115.56 112.872c-1.1 0-2-.9-2-2v-28.26c0-1.1.9-2 2-2s2 .9 2 2v28.26c0 1.1-.9 2-2 2z" id="path4170"/><path class="cls-3" d="M111.57 112.622s-.02-.06-.04-.09c-.01-.03-.02-.05-.03-.08-.02-.04-.03-.09-.05-.13 0-.01 0-.02-.01-.04-.15-.45-.24-.92-.24-1.42 0-.5.08-.97.24-1.42 0-.01 0-.02.01-.03.02-.05.03-.09.05-.13.01-.03.02-.05.03-.08.01-.03.02-.06.04-.09l.06-.12c0-.01.01-.03.02-.04.21-.42.48-.82.83-1.17s.75-.63 1.17-.83c.01 0 .03-.01.04-.02l.12-.06c.03-.01.06-.02.09-.04.03-.01.05-.02.08-.03.04-.02.09-.03.13-.05.01 0 .02 0 .04-.01.44-.15.92-.24 1.42-.24.5 0 .97.08 1.42.24.01 0 .02 0 .03.01.04.02.09.03.13.05.03.01.05.02.08.03.03.01.06.02.09.04l.12.06c.01 0 .03.01.04.02.42.21.82.48 1.17.83s.63.75.83 1.17c0 .01.01.03.02.04l.06.12c.01.03.02.06.04.09.01.03.02.05.03.08.02.04.03.09.05.13 0 .01 0 .02.01.03.15.45.24.92.24 1.42 0 .5-.08.98-.24 1.42 0 .01 0 .02-.01.04-.02.04-.03.09-.05.13-.01.03-.02.05-.03.08-.01.03-.02.06-.04.09l-.06.12c0 .01-.01.03-.02.04-.21.42-.48.82-.83 1.17s-.75.63-1.17.83c-.01 0-.03.01-.04.02l-.12.06c-.03.01-.06.02-.08.04-.03.01-.06.02-.08.03-.04.02-.09.03-.13.05-.01 0-.02 0-.04.01-.44.15-.92.24-1.42.24-.5 0-.97-.08-1.42-.24h-.04s-.09-.04-.13-.06a.689.689 0 0 1-.08-.03l-.08-.04-.12-.06c-.01 0-.03-.01-.04-.02-.42-.21-.82-.48-1.17-.83s-.63-.75-.83-1.17c0-.01-.01-.03-.02-.04l-.06-.12" id="path4172"/><g clip-path="url(#clippath)" id="g4198" transform="translate(0 -.658)"><path class="cls-4" d="M39.35 74.89v48.39c0 3.6 2.92 6.51 6.51 6.51H62.9c3.6 0 6.51-2.92 6.51-6.51V74.89m-50.3-25.06c-2.86 0-5.19 3.15-5.19 7.04v7.04c0 3.89 2.32 7.04 5.19 7.04h68.05c2.86 0 5.19-3.15 5.19-7.04v-7.04c0-3.89-2.32-7.04-5.19-7.04H19.11Z" id="path4174"/><path class="cls-3" d="M34.58 32.02a8.8 8.8 0 0 0-8.8 8.8l-9.91 43.64a8.8 8.8 0 0 0 8.8 8.8h56.29a8.8 8.8 0 0 0 8.8-8.8l-9.94-43.64a8.8 8.8 0 0 0-8.8-8.8zm-1.94 71.51c-5.37 0-9.73 5.65-9.73 12.62l-10.96 62.61c0 6.97 4.36 12.62 9.73 12.62h62.28c5.37 0 9.73-5.65 9.73-12.62L82.7 116.15c0-6.97-4.36-12.62-9.73-12.62z" id="path4176"/><path class="cls-4" d="M52.84 30.06h49.86v84.26H52.84Z" clip-path="url(#clippath-1)" id="path4178"/><path d="M53.43 73.39c6.94 0 12.56-5.62 12.56-12.56s-5.62-12.56-12.56-12.56-12.56 5.62-12.56 12.56 5.62 12.56 12.56 12.56" style="fill:#f6c349" id="path4180"/><path class="cls-2" d="M28.63 72.58c.3-1.4-.59-2.77-1.99-3.06a2.583 2.583 0 1 0-1.08 5.05c1.4.3 2.77-.59 3.06-1.99m1.55-7.23c.3-1.4-.59-2.77-1.99-3.06a2.583 2.583 0 1 0-1.08 5.05c1.4.3 2.77-.59 3.06-1.99m1.54-7.24c.3-1.4-.59-2.77-1.99-3.06a2.583 2.583 0 1 0-1.08 5.05c1.4.3 2.77-.59 3.06-1.99m43.82 14.47c-.3-1.4.59-2.77 1.99-3.06 1.4-.3 2.77.59 3.06 1.99.3 1.4-.6 2.77-1.99 3.06-1.4.3-2.77-.59-3.06-1.99m-1.54-7.23c-.3-1.4.59-2.77 1.99-3.06a2.583 2.583 0 1 1 1.08 5.05c-1.4.3-2.77-.59-3.06-1.99m-1.55-7.24c-.3-1.4.59-2.77 1.99-3.06 1.4-.3 2.77.59 3.06 1.99.3 1.4-.6 2.77-1.99 3.06-1.4.3-2.77-.59-3.06-1.99" id="path4182"/><path class="cls-4" d="M32.64 103.53c-5.37 0-9.73 5.65-9.73 12.62l-10.96 62.61c0 6.97 4.36 12.62 9.73 12.62h62.28c5.37 0 9.73-5.65 9.73-12.62l-10.71-62.61c-.09-7.94-4.64-12.62-10.01-12.62z" clip-path="url(#clippath-2)" id="path4184"/><path style="fill:none;stroke:#0a9ea0;stroke-width:3.99px;stroke-linecap:round" d="m11.72 149.41 6.46-30.55" id="path4186"/><path class="cls-3" d="m16.61 108.26-1.93 9.38c-.75 3.66 2.04 7.09 5.78 7.09h21.49c3.26 0 5.9-2.64 5.9-5.9v-9.38c0-3.26-2.64-5.9-5.9-5.9H22.39c-2.8 0-5.21 1.97-5.78 4.71z" id="path4188"/><path class="cls-4" d="m89.55 107.54 1.93 7.94c.75 3.1-2.04 6-5.78 6H64.21c-3.26 0-5.9-2.24-5.9-5v-7.94c0-2.76 2.64-5 5.9-5h19.56c2.8 0 5.21 1.67 5.78 3.99z" id="path4190"/><circle class="cls-3" cx="53.06" cy="135.49" r="13.64" id="circle4192"/><path class="cls-4" d="M53.06 150.64c-8.35 0-15.15-6.79-15.15-15.14 0-8.35 6.79-15.15 15.15-15.15s15.15 6.79 15.15 15.15-6.79 15.14-15.15 15.14zm0-27.29c-6.7 0-12.15 5.45-12.15 12.15s5.45 12.14 12.15 12.14 12.15-5.45 12.15-12.14-5.45-12.15-12.15-12.15z" id="path4194"/><path class="cls-11" d="M50.3 69.11a5.25 5.25 0 1 0 0-10.5 5.25 5.25 0 1 0 0 10.5m12.13 17a5.25 5.25 0 1 0 0-10.5 5.25 5.25 0 1 0 0 10.5" id="path4196"/></g><path class="cls-3" d="M124.31 75.462v-8.69h-17.38v8.69c0 4.8 3.89 8.69 8.69 8.69 4.8 0 8.69-3.89 8.69-8.69z" id="path4200"/><rect class="cls-3" x="-111.66" y="-64.942" width="4.85" height="17.22" rx="2.43" ry="2.43" transform="scale(-1)" id="rect4202"/><rect class="cls-3" x="-117.98" y="-64.942" width="4.85" height="7.02" rx="2.43" ry="2.43" transform="scale(-1)" id="rect4204"/><rect class="cls-3" x="-124.3" y="-64.942" width="4.85" height="7.02" rx="2.43" ry="2.43" transform="scale(-1)" id="rect4206"/><path class="cls-2" d="M21.18 113.222v-15.22H3.1v15.22l3.38 21.42H17.8Z" id="path4208"/><path d="M19.3 136.392H4.98l-3.63-23.17v-16.97h21.58l-.02 17.24zm-11.32-3.5h8.33l3.13-19.81v-13.33H4.85v13.33zm13.21-19.67z" id="path4210"/><g id="g4216" transform="translate(0 -.658)"><circle class="cls-2" cx="12.39" cy="149.21" r="7.81" id="circle4212"/><path class="cls-11" d="M12.39 158.76c-5.27 0-9.55-4.29-9.55-9.55 0-5.26 4.29-9.55 9.55-9.55 5.26 0 9.56 4.29 9.56 9.55 0 5.26-4.29 9.55-9.56 9.55zm0-15.62c-3.34 0-6.07 2.72-6.07 6.07s2.72 6.07 6.07 6.07 6.07-2.72 6.07-6.07-2.72-6.07-6.07-6.07z" id="path4214"/></g><g id="g4222" transform="translate(0 -.658)"><path class="cls-4" d="m50.4 13.24-.06 18.77h5.62V19.36c-1.3-1.01-3.61-3.89-5.55-6.13z" id="path4218"/><path class="cls-3" d="M73.47 17.33c.58-.87 1.03-1.82 1.33-2.82.31-1.03.47-2.11.46-3.19 0-1.45-.3-2.86-.87-4.17a10.742 10.742 0 0 0-6.74-6.03C66.62.81 65.53.64 64.46.66c-.74 0-1.47.09-2.18.26-1.22.29-2.43.82-3.61 1.59-.88.58-1.75 1.29-2.67 2.18-.67.66-2.08 2.29-2.82 3.18.55.68 1.09 1.36 1.62 2.02l.66.83c.7-.85 2.03-2.44 2.62-3.04.53-.55 1.06-1.04 1.57-1.45.8-.65 1.6-1.15 2.37-1.47.4-.17.8-.29 1.21-.38.42-.09.83-.13 1.27-.14.94.01 1.9.18 2.79.54 1.28.53 2.38 1.42 3.17 2.58.4.58.7 1.21.91 1.87.22.69.33 1.4.34 2.13 0 .96-.18 1.9-.54 2.79a7.208 7.208 0 0 1-2.58 3.17 7.245 7.245 0 0 1-4 1.25c-.49 0-.93-.05-1.39-.15-.59-.13-1.16-.34-1.74-.64-.19-.1-.38-.21-.58-.32-.56-.34-1.14-.77-1.72-1.28-.21-.18-.43-.38-.64-.59-.6-.57-1.23-1.24-1.92-2.05-.53-.62-1.06-1.27-1.6-1.94l-1.04-1.3c-.85-1.07-1.73-2.19-2.65-3.24-.79-.91-1.51-1.67-2.2-2.32-.62-.59-1.21-1.09-1.81-1.53-.12-.09-.24-.17-.36-.26-.91-.63-1.8-1.11-2.73-1.46-.94-.35-1.91-.57-2.88-.63-.21-.01-.41-.02-.62-.02h-.09c-1.45 0-2.86.3-4.17.87-1.91.83-3.54 2.18-4.7 3.92a10.706 10.706 0 0 0-1.79 6.01c0 1.45.3 2.85.87 4.17.83 1.91 2.18 3.54 3.92 4.7.87.58 1.82 1.03 2.82 1.33 1.03.31 2.09.48 3.19.46.73 0 1.47-.09 2.18-.26 1.22-.29 2.44-.82 3.61-1.59.88-.58 1.75-1.29 2.67-2.18.67-.65 2.09-2.2 2.85-3.09-.57-.69-2.08-2.6-2.28-2.85-.71.86-2.06 2.35-2.64 2.95-.53.55-1.06 1.03-1.57 1.45-.8.65-1.6 1.14-2.37 1.47-.41.17-.8.3-1.21.38-.42.09-.84.14-1.27.14-.97.01-1.91-.18-2.79-.54a7.075 7.075 0 0 1-3.17-2.58c-.39-.57-.7-1.2-.91-1.87-.22-.69-.33-1.4-.34-2.13 0-.96.18-1.9.54-2.79a7.208 7.208 0 0 1 2.58-3.17 7.245 7.245 0 0 1 4-1.25c.46 0 .92.05 1.39.15.78.17 1.54.49 2.32.97.56.34 1.14.77 1.72 1.28.79.69 1.63 1.55 2.57 2.64.85.99 1.73 2.09 2.57 3.16l.09.11c.84 1.07 1.72 2.17 2.62 3.22.8.93 1.5 1.66 2.2 2.33.14.14.29.27.44.41.48.42.93.79 1.37 1.12 1.03.76 2.04 1.32 3.08 1.71l.21.08c1.1.39 2.25.59 3.38.58 1.45 0 2.85-.3 4.17-.87 1.91-.83 3.54-2.18 4.69-3.92zm-19.02-7.17Z" id="path4220"/></g></svg>