<svg version="1.1" viewBox="0 0 179.313 228.404" xmlns="http://www.w3.org/2000/svg"><defs><clipPath clipPathUnits="userSpaceOnUse" id="a"><path d="m1043.24 639.438.56 948.192H1.11V640.023c0-287.945 233.417-521.363 521.359-521.363 287.937 0 521.361 233.418 521.361 521.363z"/></clipPath><clipPath clipPathUnits="userSpaceOnUse" id="b"><path d="m1043.24 639.438.56 948.192H1.11V640.023c0-287.945 233.417-521.363 521.359-521.363 287.937 0 521.361 233.418 521.361 521.363z"/></clipPath><clipPath clipPathUnits="userSpaceOnUse" id="c"><path d="M345.75 1267.46c-48.566 0-87.949-39.37-87.949-87.95l-99.106-436.373c0-48.574 39.383-87.949 87.961-87.949h562.918c48.586 0 87.957 39.375 87.957 87.949l-99.363 436.373c0 48.58-39.371 87.95-87.949 87.95z"/></clipPath><clipPath clipPathUnits="userSpaceOnUse" id="d"><path d="m1043.24 639.438.56 948.192H1.11V640.023c0-287.945 233.417-521.363 521.359-521.363 287.937 0 521.361 233.418 521.361 521.363z"/></clipPath><clipPath clipPathUnits="userSpaceOnUse" id="e"><path d="m1043.24 639.438.56 948.192H1.11V640.023c0-287.945 233.417-521.363 521.359-521.363 287.937 0 521.361 233.418 521.361 521.363z"/></clipPath><clipPath clipPathUnits="userSpaceOnUse" id="f"><path d="M936.789-366.301H525.32v960.895h411.469z"/></clipPath><clipPath clipPathUnits="userSpaceOnUse" id="m"><path d="m114.449 64.711.056 94.505H10.235V64.77c0-28.7 23.343-51.964 52.137-51.964s52.136 23.264 52.136 51.964z" style="stroke-width:.0998343"/></clipPath><clipPath clipPathUnits="userSpaceOnUse" id="l"><path d="m114.449 64.711.056 94.505H10.235V64.77c0-28.7 23.343-51.964 52.137-51.964s52.136 23.264 52.136 51.964z" style="stroke-width:.0998343"/></clipPath><clipPath clipPathUnits="userSpaceOnUse" id="k"><path d="m114.449 64.711.056 94.505H10.235V64.77c0-28.7 23.343-51.964 52.137-51.964s52.136 23.264 52.136 51.964z" style="stroke-width:.0998343"/></clipPath><clipPath clipPathUnits="userSpaceOnUse" id="j"><path d="m114.449 64.711.056 94.505H10.235V64.77c0-28.7 23.343-51.964 52.137-51.964s52.136 23.264 52.136 51.964z" style="stroke-width:.0998343"/></clipPath><clipPath clipPathUnits="userSpaceOnUse" id="i"><path d="m114.449 64.711.056 94.505H10.235V64.77c0-28.7 23.343-51.964 52.137-51.964s52.136 23.264 52.136 51.964z" style="stroke-width:.0998343"/></clipPath><clipPath clipPathUnits="userSpaceOnUse" id="h"><path d="m114.449 64.711.056 94.505H10.235V64.77c0-28.7 23.343-51.964 52.137-51.964s52.136 23.264 52.136 51.964z" style="stroke-width:.0998343"/></clipPath><clipPath clipPathUnits="userSpaceOnUse" id="g"><path d="m114.449 64.711.056 94.505H10.235V64.77c0-28.7 23.343-51.964 52.137-51.964s52.136 23.264 52.136 51.964z" style="stroke-width:.0998343"/></clipPath></defs><path d="M62.26 12.814c28.795 0 52.137 23.275 52.137 51.986 0 28.71-23.342 51.986-52.136 51.986-28.794 0-52.136-23.275-52.136-51.986s23.342-51.986 52.136-51.986" style="fill:#23577d;fill-opacity:1;fill-rule:nonzero;stroke:none;stroke-width:.0998558" transform="matrix(1.33333 0 0 -1.33333 0 211.68)"/><path d="M125.687 45.882H94.361a2 2 0 1 0 0 4h31.326a2 2 0 0 0 0-4" style="fill:#0a9ea0;fill-opacity:1;fill-rule:nonzero;stroke:none;stroke-width:.1" transform="matrix(1.33333 0 0 -1.33333 0 211.68)"/><path d="M125.687 45.882a2 2 0 0 0-2 2v28.264a2 2 0 1 0 4 0V47.882a2 2 0 0 0-2-2" style="fill:#0a9ea0;fill-opacity:1;fill-rule:nonzero;stroke:none;stroke-width:.1" transform="matrix(1.33333 0 0 -1.33333 0 211.68)"/><path d="m121.693 46.126-.037.086-.032.08c-.017.045-.034.088-.05.134l-.012.034a4.337 4.337 0 0 0 .012 2.875l.05.134.032.08.037.086c.018.041.036.082.056.123l.019.04a4.369 4.369 0 0 0 2.002 2.003l.04.018.123.057c.028.011.057.025.086.036.026.012.053.021.08.032a4.562 4.562 0 0 0 .168.061 4.328 4.328 0 0 0 2.875-.01l.134-.05.08-.033c.029-.011.057-.025.086-.036l.123-.057.039-.018a4.332 4.332 0 0 0 2.002-2.003l.02-.04a6.69 6.69 0 0 0 .056-.123l.037-.085.031-.08c.018-.044.035-.09.051-.135l.011-.034a4.342 4.342 0 0 0 0-2.84l-.011-.035a3 3 0 0 0-.051-.134l-.031-.08-.037-.086a6.69 6.69 0 0 0-.056-.123l-.02-.04a4.344 4.344 0 0 0-2.041-2.02l-.125-.058a91.293 91.293 0 0 0-.083-.035l-.083-.033-.131-.05a4.332 4.332 0 0 0-2.875-.012l-.036.012-.132.05a3.47 3.47 0 0 0-.082.033l-.084.035-.125.057-.038.02a4.322 4.322 0 0 0-1.169.834c-.351.35-.628.746-.834 1.168l-.019.04c-.02.04-.038.081-.056.122" style="fill:#67c1be;fill-opacity:1;fill-rule:nonzero;stroke:none;stroke-width:.1" transform="matrix(1.33333 0 0 -1.33333 0 211.68)"/><g clip-path="url(#a)" transform="matrix(.13333 0 0 -.13295 13.5 210.327)"><path d="M393.523 838.766V354.859c0-35.968 29.157-65.129 65.122-65.129h170.371c35.964 0 65.121 29.161 65.121 65.129v483.907M191.148 1089.35c-28.648 0-51.863-31.5-51.863-70.37v-70.359c0-38.855 23.215-70.367 51.863-70.367h680.457c28.649 0 51.875 31.512 51.875 70.367v70.359c0 38.87-23.226 70.37-51.875 70.37H191.148" style="fill:#0a9ea0;fill-opacity:1;fill-rule:nonzero;stroke:none"/><path d="M345.754 1267.46c-48.574 0-87.961-39.37-87.961-87.96l-99.094-436.359c0-48.575 39.375-87.961 87.949-87.961h562.93c48.574 0 87.949 39.386 87.949 87.961L798.176 1179.5c0 48.59-39.375 87.96-87.961 87.96H345.754M326.371 552.359c-53.734 0-97.305-56.5-97.305-126.211L119.438-199.969c0-69.699 43.558-126.222 97.296-126.222h622.758c53.738 0 97.297 56.523 97.297 126.222L826.875 426.148c0 69.711-43.559 126.211-97.309 126.211H326.371" style="fill:#67c1be;fill-opacity:1;fill-rule:nonzero;stroke:none"/></g><g clip-path="url(#b)" transform="matrix(.13333 0 0 -.13333 13.5 210.817)"><g clip-path="url(#c)"><path d="M528.359 444.43h498.631v842.59H528.359V444.43" style="fill:#0a9ea0;fill-opacity:1;fill-rule:nonzero;stroke:none"/></g></g><g clip-path="url(#d)" transform="matrix(.13333 0 0 -.13333 13.5 210.817)"><path d="M534.324 853.742c69.371 0 125.602 56.231 125.602 125.594 0 69.364-56.231 125.594-125.602 125.594-69.367 0-125.597-56.23-125.597-125.594 0-69.363 56.23-125.594 125.597-125.594" style="fill:#f2ba38;fill-opacity:1;fill-rule:nonzero;stroke:none"/><path d="M286.277 861.813c2.969 13.953-5.941 27.679-19.898 30.64-13.957 2.973-27.684-5.941-30.652-19.894-2.961-13.957 5.949-27.684 19.906-30.645 13.957-2.969 27.672 5.941 30.644 19.899M301.656 934.16c2.969 13.953-5.941 27.68-19.898 30.641-13.965 2.972-27.68-5.942-30.653-19.895-2.96-13.957 5.954-27.683 19.907-30.644 13.957-2.969 27.672 5.941 30.644 19.898M317.031 1006.51c2.973 13.95-5.937 27.68-19.894 30.64-13.957 2.97-27.684-5.94-30.653-19.9-2.961-13.95 5.95-27.68 19.907-30.641 13.957-2.968 27.672 5.942 30.64 19.901M755.102 861.813c-2.969 13.953 5.941 27.679 19.906 30.64 13.957 2.973 27.672-5.941 30.64-19.898 2.961-13.953-5.949-27.68-19.906-30.641-13.953-2.973-27.672 5.941-30.64 19.899M739.723 934.16c-2.969 13.953 5.941 27.68 19.894 30.641 13.957 2.972 27.684-5.942 30.656-19.895 2.957-13.957-5.953-27.683-19.91-30.644-13.953-2.969-27.672 5.941-30.64 19.898M724.344 1006.51c-2.969 13.95 5.941 27.68 19.906 30.64 13.957 2.97 27.672-5.94 30.645-19.9 2.96-13.95-5.954-27.68-19.907-30.641-13.957-2.968-27.672 5.942-30.644 19.901" style="fill:#fff;fill-opacity:1;fill-rule:nonzero;stroke:none"/></g><g clip-path="url(#e)" transform="matrix(.13333 0 0 -.13311 13.5 210.372)"><g clip-path="url(#f)"><path d="M326.371 552.359c-53.734 0-97.305-56.5-97.305-126.211L119.438-199.969c0-69.699 43.558-126.222 97.296-126.222h622.758c53.738 0 97.297 56.523 97.297 126.222L829.668 426.148c-.852 79.391-46.352 126.211-100.102 126.211H326.371" style="fill:#0a9ea0;fill-opacity:1;fill-rule:nonzero;stroke:none"/></g></g><path d="m21.84 10.301 6.466 30.45" style="fill:none;stroke:#0a9ea0;stroke-width:3.9807;stroke-linecap:round;stroke-linejoin:miter;stroke-miterlimit:4;stroke-dasharray:none;stroke-opacity:1" clip-path="url(#g)" transform="matrix(1.33333 0 0 -1.33333 0 211.68)"/><path d="m26.738 51.313-1.932-9.346c-.755-3.649 2.04-7.068 5.778-7.068h21.494c3.26 0 5.9 2.632 5.9 5.88v9.347c0 3.247-2.64 5.88-5.9 5.88H32.517c-2.8 0-5.214-1.96-5.78-4.693" style="fill:#67c1be;fill-opacity:1;fill-rule:nonzero;stroke:none;stroke-width:.0998343" clip-path="url(#h)" transform="matrix(1.33333 0 0 -1.33333 0 211.68)"/><path d="m99.68 52.033 1.932-7.912c.754-3.089-2.042-5.984-5.78-5.984H74.339c-3.258 0-5.9 2.23-5.9 4.978v7.913c0 2.75 2.642 4.979 5.9 4.979H93.9c2.8 0 5.214-1.661 5.78-3.974" style="fill:#0a9ea0;fill-opacity:1;fill-rule:nonzero;stroke:none;stroke-width:.0998343" clip-path="url(#i)" transform="matrix(1.33333 0 0 -1.33333 0 211.48)"/><path d="M76.827 24.174c0-7.511-6.109-13.6-13.645-13.6s-13.645 6.089-13.645 13.6c0 7.51 6.11 13.6 13.645 13.6 7.536 0 13.645-6.09 13.645-13.6" style="fill:#67c1be;fill-opacity:1;fill-rule:nonzero;stroke:none;stroke-width:.0998343" clip-path="url(#j)" transform="matrix(1.33333 0 0 -1.33333 0 211.58)"/><path d="M63.182 36.279c-6.697 0-12.145-5.43-12.145-12.105 0-6.674 5.449-12.105 12.145-12.105 6.697 0 12.145 5.431 12.145 12.105 0 6.675-5.448 12.105-12.145 12.105zm0-27.2c-8.35 0-15.145 6.772-15.145 15.095 0 8.324 6.794 15.095 15.145 15.095 8.352 0 15.145-6.77 15.145-15.095 0-8.323-6.793-15.095-15.145-15.095" style="fill:#0a9ea0;fill-opacity:1;fill-rule:nonzero;stroke:none;stroke-width:.0998343" clip-path="url(#k)" transform="matrix(1.33333 0 0 -1.33333 0 211.58)"/><path d="M60.427 90.34c2.898 0 5.246 2.34 5.246 5.228 0 2.889-2.348 5.23-5.246 5.23-2.897 0-5.246-2.341-5.246-5.23 0-2.887 2.349-5.228 5.246-5.228" style="fill:#171717;fill-opacity:1;fill-rule:nonzero;stroke:none;stroke-width:.0998343" clip-path="url(#l)" transform="matrix(1.33333 0 0 -1.33333 0 211.68)"/><path d="M72.556 73.396c2.897 0 5.246 2.341 5.246 5.228 0 2.889-2.349 5.23-5.246 5.23-2.897 0-5.246-2.341-5.246-5.23 0-2.887 2.349-5.228 5.246-5.228" style="fill:#171717;fill-opacity:1;fill-rule:nonzero;stroke:none;stroke-width:.0998343" clip-path="url(#m)" transform="matrix(1.33333 0 0 -1.33333 0 211.68)"/><path d="M134.432 83.295v8.692h-17.38v-8.695l-.001-.007a8.692 8.692 0 0 1 17.382 0l-.001.01M119.367 93.814a2.426 2.426 0 0 1 2.426 2.426v12.365a2.426 2.426 0 0 1-4.852 0V96.24a2.426 2.426 0 0 1 2.426-2.426M125.687 93.814a2.426 2.426 0 0 1 2.426 2.426v2.172a2.425 2.425 0 0 1-4.852 0V96.24a2.426 2.426 0 0 1 2.426-2.426M132.007 93.814a2.425 2.425 0 0 1 2.425 2.426v2.172a2.425 2.425 0 0 1-4.851 0V96.24a2.426 2.426 0 0 1 2.426-2.426" style="fill:#67c1be;fill-opacity:1;fill-rule:nonzero;stroke:none;stroke-width:.1" transform="matrix(1.33333 0 0 -1.33333 0 211.68)"/><path d="M31.305 45.533v15.22H13.223v-15.22l3.38-21.421h11.322l3.38 21.421" style="fill:#fff;fill-opacity:1;fill-rule:nonzero;stroke:none;stroke-width:.1" transform="matrix(1.33333 0 0 -1.33333 0 211.68)"/><path d="M31.305 45.533h.01zM18.1 25.86h8.33l3.126 19.81v13.333H14.973V45.67zm11.322-3.5H15.108l-3.635 23.173v16.97h21.582l-.021-17.243-3.613-22.9" style="fill:#040606;fill-opacity:1;fill-rule:nonzero;stroke:none;stroke-width:.1" transform="matrix(1.33333 0 0 -1.33333 0 211.68)"/><path d="M30.324 10.203a7.81 7.81 0 1 0-15.621-.001 7.81 7.81 0 0 0 15.62 0" style="fill:#fff;fill-opacity:1;fill-rule:nonzero;stroke:none;stroke-width:.1" transform="matrix(1.33333 0 0 -1.33333 0 211.68)"/><path d="M22.514 16.269a6.072 6.072 0 0 1-6.066-6.066 6.072 6.072 0 0 1 6.066-6.066 6.073 6.073 0 0 1 6.065 6.066 6.073 6.073 0 0 1-6.065 6.066zm0-15.621c-5.27 0-9.555 4.287-9.555 9.555s4.286 9.554 9.555 9.554c5.268 0 9.555-4.286 9.555-9.554 0-5.268-4.287-9.555-9.555-9.555" style="fill:#171717;fill-opacity:1;fill-rule:nonzero;stroke:none;stroke-width:.1" transform="matrix(1.33333 0 0 -1.33333 0 211.68)"/><path d="m60.527 146.175-.064-18.773h5.618v12.646c-1.305 1.012-3.605 3.887-5.554 6.127" style="fill:#0a9ea0;fill-opacity:1;fill-rule:nonzero;stroke:none;stroke-width:.1" transform="matrix(1.33333 0 0 -1.33333 0 211.68)"/><path d="M83.594 142.083c.583.874 1.031 1.823 1.333 2.82.314 1.03.47 2.105.462 3.194a10.628 10.628 0 0 1-.87 4.173 10.737 10.737 0 0 1-6.735 6.026 10.376 10.376 0 0 1-3.194.463 9.74 9.74 0 0 1-2.184-.26c-1.22-.285-2.433-.82-3.607-1.588-.88-.576-1.753-1.288-2.667-2.176-.675-.66-2.077-2.292-2.825-3.178.553-.676 1.092-1.356 1.62-2.022l.657-.826c.7.852 2.033 2.44 2.618 3.04.533.55 1.06 1.038 1.566 1.448.802.65 1.6 1.146 2.369 1.469.396.166.801.295 1.207.382.419.09.834.135 1.268.138.94-.011 1.902-.177 2.788-.543a7.153 7.153 0 0 0 3.17-2.575 7.127 7.127 0 0 0 1.247-3.995 7.179 7.179 0 0 0-.542-2.788 7.184 7.184 0 0 0-4.443-4.082 7.166 7.166 0 0 0-2.127-.336 6.945 6.945 0 0 0-1.392.147 7.2 7.2 0 0 0-1.742.642 10.72 10.72 0 0 0-.575.324 12.62 12.62 0 0 0-1.723 1.28c-.214.186-.43.383-.644.589a29.685 29.685 0 0 0-1.925 2.047 71.504 71.504 0 0 0-1.604 1.942l-1.035 1.303c-.851 1.075-1.731 2.186-2.648 3.245a32.355 32.355 0 0 1-2.201 2.325 19.28 19.28 0 0 1-1.808 1.526c-.118.088-.237.174-.357.256-.908.633-1.8 1.11-2.728 1.459a9.998 9.998 0 0 1-3.5.65h-.089a10.667 10.667 0 0 1-4.175-.87 10.764 10.764 0 0 1-4.695-3.917 10.715 10.715 0 0 1-1.793-6.012c.01-1.448.302-2.852.87-4.171a10.738 10.738 0 0 1 6.737-6.028 10.202 10.202 0 0 1 3.193-.462 9.87 9.87 0 0 1 2.184.258c1.222.288 2.436.822 3.608 1.589.88.577 1.753 1.289 2.665 2.176.67.654 2.094 2.197 2.848 3.09-.566.69-2.08 2.599-2.275 2.847a65.413 65.413 0 0 0-2.641-2.952 18.695 18.695 0 0 0-1.567-1.448c-.8-.65-1.598-1.144-2.37-1.47a6.695 6.695 0 0 0-1.208-.382 6.25 6.25 0 0 0-1.265-.138 6.983 6.983 0 0 0-2.79.545 7.135 7.135 0 0 0-3.169 2.575 7.137 7.137 0 0 0-1.248 3.994 7.154 7.154 0 0 0 .543 2.789 7.164 7.164 0 0 0 2.577 3.169 7.075 7.075 0 0 0 1.865.912c.685.218 1.4.33 2.128.336.455.007.925-.045 1.39-.147.778-.173 1.536-.49 2.319-.966a12.689 12.689 0 0 0 1.723-1.281c.787-.685 1.627-1.547 2.568-2.636.854-.99 1.727-2.093 2.572-3.161l.089-.111c.844-1.066 1.716-2.168 2.625-3.218a32.03 32.03 0 0 1 2.201-2.325 19.446 19.446 0 0 1 1.809-1.527c1.028-.76 2.037-1.32 3.083-1.714l.208-.075a9.869 9.869 0 0 1 3.384-.575c1.449.008 2.853.3 4.173.87a10.74 10.74 0 0 1 4.695 3.917M64.575 149.255" style="fill:#67c1be;fill-opacity:1;fill-rule:nonzero;stroke:none;stroke-width:.1" transform="matrix(1.33333 0 0 -1.33333 0 211.68)"/></svg>