<svg version="1.1" viewBox="0 0 179.313 228.404" xmlns="http://www.w3.org/2000/svg"><defs><clipPath clipPathUnits="userSpaceOnUse" id="a"><path d="m1069.24 774.699.55 948.191H27.102V775.281c0-287.941 233.418-521.359 521.359-521.359 287.937 0 521.359 233.418 521.359 521.359z"/></clipPath><clipPath clipPathUnits="userSpaceOnUse" id="b"><path d="m1069.24 774.699.55 948.191H27.102V775.281c0-287.941 233.418-521.359 521.359-521.359 287.937 0 521.359 233.418 521.359 521.359z"/></clipPath><clipPath clipPathUnits="userSpaceOnUse" id="c"><path d="M372.852 1402.72c-48.567 0-87.954-39.38-87.954-87.95l-99.101-436.372c0-48.578 39.383-87.949 87.957-87.949h562.922c48.582 0 87.957 39.371 87.957 87.949L825.27 1314.77c0 48.57-39.375 87.95-87.95 87.95z"/></clipPath><clipPath clipPathUnits="userSpaceOnUse" id="d"><path d="m1069.24 774.699.55 948.191H27.102V775.281c0-287.941 233.418-521.359 521.359-521.359 287.937 0 521.359 233.418 521.359 521.359z"/></clipPath><clipPath clipPathUnits="userSpaceOnUse" id="e"><path d="m1069.24 774.699.55 948.191H27.102V775.281c0-287.941 233.418-521.359 521.359-521.359 287.937 0 521.359 233.418 521.359 521.359z"/></clipPath><clipPath clipPathUnits="userSpaceOnUse" id="f"><path d="M963.891-231.039H552.422v960.891h411.469z"/></clipPath><clipPath clipPathUnits="userSpaceOnUse" id="g"><path d="m1069.24 774.699.55 948.191H27.102V775.281c0-287.941 233.418-521.359 521.359-521.359 287.937 0 521.359 233.418 521.359 521.359z"/></clipPath></defs><path d="M54.846 25.392c28.794 0 52.136 23.342 52.136 52.136 0 28.794-23.342 52.136-52.136 52.136-28.794 0-52.136-23.342-52.136-52.136 0-28.794 23.342-52.136 52.136-52.136" style="fill:#23577d;fill-opacity:1;fill-rule:nonzero;stroke:none;stroke-width:.1" transform="matrix(1.33046 0 0 -1.33046 10.294 228.31)"/><path d="M102.36 33.183a2 2 0 0 0-1.68.913l-17.018 26.3a2 2 0 0 0 3.358 2.175l17.017-26.301a1.998 1.998 0 0 0-1.677-3.087" style="fill:#0a9ea0;fill-opacity:1;fill-rule:nonzero;stroke:none;stroke-width:.1" transform="matrix(1.33046 0 0 -1.33046 10.294 228.31)"/><path d="M78.63 17.829a1.998 1.998 0 0 0-1.089 3.678l23.731 15.355a1.998 1.998 0 0 0 2.765-.592 1.998 1.998 0 0 0-.592-2.765L79.715 18.15a1.986 1.986 0 0 0-1.085-.321" style="fill:#0a9ea0;fill-opacity:1;fill-rule:nonzero;stroke:none;stroke-width:.1" transform="matrix(1.33046 0 0 -1.33046 10.294 228.31)"/><path d="M101.662 39.49c-.032-.004-.062-.01-.093-.015-.027-.005-.055-.01-.084-.017a4.987 4.987 0 0 1-.139-.03l-.036-.009a4.323 4.323 0 0 1-1.321-.572 4.34 4.34 0 0 1-1.064-.97l-.022-.03c-.03-.038-.058-.077-.085-.115l-.05-.07-.052-.078a2.923 2.923 0 0 1-.073-.114l-.023-.037a4.363 4.363 0 0 1-.594-2.769l.006-.044.02-.133.016-.093.016-.084.03-.139.01-.035a4.328 4.328 0 0 1 1.544-2.386 4.51 4.51 0 0 1 .143-.108l.07-.049.077-.052.114-.073.037-.023a4.402 4.402 0 0 1 1.336-.528 4.31 4.31 0 0 1 1.434-.064c.014 0 .028.003.043.004l.134.02.092.016a3.155 3.155 0 0 1 .224.047l.035.009a4.34 4.34 0 0 1 2.385 1.544l.023.028c.03.038.057.076.084.115.018.023.035.046.051.07l.052.077.073.114.022.039a4.331 4.331 0 0 1 .588 2.81c-.005.046-.013.091-.02.137a1.428 1.428 0 0 1-.033.176c-.009.046-.018.092-.029.137a4.331 4.331 0 0 1-1.552 2.421l-.029.023c-.038.03-.076.056-.114.084a2.624 2.624 0 0 1-.147.102c-.039.025-.076.05-.116.074l-.037.022c-.402.242-.85.425-1.335.528a4.321 4.321 0 0 1-1.434.066l-.044-.006a1.877 1.877 0 0 1-.133-.02" style="fill:#67c1be;fill-opacity:1;fill-rule:nonzero;stroke:none;stroke-width:.1" transform="matrix(1.33046 0 0 -1.33046 10.294 228.31)"/><g clip-path="url(#a)" transform="matrix(.13305 0 0 -.13305 10.294 228.31)"><path d="M420.625 974.027V490.121c0-35.973 29.156-65.133 65.121-65.133h170.367c35.965 0 65.125 29.16 65.125 65.133v483.906M218.25 1224.61c-28.648 0-51.863-31.5-51.863-70.36v-70.37c0-38.86 23.215-70.36 51.863-70.36h680.453c28.649 0 51.875 31.5 51.875 70.36v70.37c0 38.86-23.226 70.36-51.875 70.36H218.25" style="fill:#0a9ea0;fill-opacity:1;fill-rule:nonzero;stroke:none"/><path d="M372.855 1402.72c-48.578 0-87.96-39.37-87.96-87.96l-99.094-436.358c0-48.578 39.375-87.961 87.949-87.961h562.93c48.574 0 87.949 39.383 87.949 87.961l-99.356 436.358c0 48.59-39.375 87.96-87.957 87.96H372.855M353.473 687.621c-53.739 0-97.309-56.5-97.309-126.211L146.539-64.71c0-69.7 43.559-126.22 97.297-126.22h622.758c53.734 0 97.297 56.52 97.297 126.22L853.977 561.41c0 69.711-43.559 126.211-97.309 126.211H353.473" style="fill:#67c1be;fill-opacity:1;fill-rule:nonzero;stroke:none"/></g><g clip-path="url(#b)" transform="matrix(.13305 0 0 -.13305 10.294 228.31)"><g clip-path="url(#c)"><path d="M555.461 579.691h498.629v842.589H555.461V579.691" style="fill:#0a9ea0;fill-opacity:1;fill-rule:nonzero;stroke:none"/></g></g><g clip-path="url(#d)" transform="matrix(.13305 0 0 -.13305 10.294 228.31)"><path d="M313.375 997.07c2.973 13.96-5.941 27.68-19.895 30.64-13.957 2.97-27.683-5.94-30.652-19.89-2.961-13.957 5.949-27.683 19.906-30.644 13.954-2.973 27.672 5.941 30.641 19.894M328.758 1069.42c2.969 13.96-5.942 27.68-19.899 30.64-13.964 2.97-27.679-5.94-30.652-19.9-2.961-13.95 5.949-27.68 19.906-30.64 13.957-2.97 27.672 5.94 30.645 19.9M344.133 1141.77c2.972 13.95-5.942 27.68-19.895 30.64-13.957 2.97-27.683-5.94-30.652-19.9-2.965-13.95 5.949-27.68 19.906-30.64 13.953-2.97 27.672 5.94 30.641 19.9M782.203 997.07c-2.973 13.96 5.942 27.68 19.906 30.64 13.954 2.97 27.672-5.94 30.641-19.89 2.961-13.961-5.949-27.683-19.906-30.644-13.953-2.973-27.672 5.937-30.641 19.894M766.824 1069.42c-2.972 13.96 5.942 27.68 19.895 30.64 13.957 2.97 27.683-5.94 30.652-19.9 2.961-13.95-5.949-27.68-19.906-30.64-13.953-2.97-27.672 5.94-30.641 19.9M751.445 1141.77c-2.972 13.95 5.942 27.68 19.907 30.64 13.957 2.97 27.671-5.94 30.64-19.9 2.961-13.96-5.949-27.68-19.906-30.64-13.953-2.97-27.672 5.94-30.641 19.9" style="fill:#fff;fill-opacity:1;fill-rule:nonzero;stroke:none"/></g><g clip-path="url(#e)" transform="matrix(.13305 0 0 -.13305 10.294 228.31)"><g clip-path="url(#f)"><path d="M353.473 687.621c-53.739 0-97.309-56.5-97.309-126.211L146.539-64.71c0-69.7 43.559-126.22 97.297-126.22h622.758c53.734 0 97.297 56.52 97.297 126.22L856.77 561.41c-.852 79.391-46.352 126.211-100.102 126.211H353.473" style="fill:#0a9ea0;fill-opacity:1;fill-rule:nonzero;stroke:none"/></g></g><g clip-path="url(#g)" transform="matrix(.13305 0 0 -.13305 10.294 228.31)"><path d="m144.254 228.789 64.656 305.5" style="fill:none;stroke:#0a9ea0;stroke-width:39.8731;stroke-linecap:round;stroke-linejoin:miter;stroke-miterlimit:4;stroke-dasharray:none;stroke-opacity:1"/><path d="m193.23 640.27-19.328-93.77c-7.543-36.609 20.414-70.91 57.789-70.91h214.946c32.586 0 59.004 26.41 59.004 59v93.769c0 32.582-26.418 59-59.004 59H251.02c-27.997 0-52.141-19.668-57.79-47.089" style="fill:#67c1be;fill-opacity:1;fill-rule:nonzero;stroke:none"/><path d="m922.645 647.488 19.324-79.379c7.543-30.988-20.414-60.039-57.789-60.039H669.234c-32.586 0-59.004 22.371-59.004 49.95v79.39c0 27.59 26.418 49.949 59.004 49.949h195.621c27.997 0 52.137-16.66 57.79-39.871" style="fill:#0a9ea0;fill-opacity:1;fill-rule:nonzero;stroke:none"/><path d="M694.125 367.98c0-75.359-61.09-136.449-136.449-136.449-75.36 0-136.449 61.09-136.449 136.449 0 75.36 61.089 136.45 136.449 136.45 75.359 0 136.449-61.09 136.449-136.45" style="fill:#67c1be;fill-opacity:1;fill-rule:nonzero;stroke:none"/><path d="M557.676 489.43c-66.965 0-121.449-54.481-121.449-121.45 0-66.968 54.484-121.449 121.449-121.449s121.445 54.481 121.445 121.449c0 66.969-54.48 121.45-121.445 121.45zm0-272.899c-83.512 0-151.449 67.938-151.449 151.449 0 83.508 67.937 151.45 151.449 151.45 83.508 0 151.445-67.942 151.445-151.45 0-83.511-67.937-151.449-151.445-151.449" style="fill:#0a9ea0;fill-opacity:1;fill-rule:nonzero;stroke:none"/><path d="M563.383 990.219c69.59 0 126 56.411 126 125.991 0 69.59-56.41 126-126 126s-126-56.41-126-126c0-69.58 56.41-125.991 126-125.991" style="fill:#f2ba38;fill-opacity:1;fill-rule:nonzero;stroke:none"/><path d="M531.348 1027.92c28.98 0 52.461 23.49 52.461 52.46 0 28.98-23.481 52.47-52.461 52.47-28.969 0-52.457-23.49-52.457-52.47 0-28.97 23.488-52.46 52.457-52.46M609.457 921.133c0-28.52-23.121-51.637-51.637-51.637-28.519 0-51.636 23.117-51.636 51.637h103.273" style="fill:#171717;fill-opacity:1;fill-rule:nonzero;stroke:none"/><path d="M427.844 1144.25c15.121 77.03 76.277 134.72 149.535 134.72 73.262 0 134.418-57.69 149.539-134.72H427.844" style="fill:#0a9ea0;fill-opacity:1;fill-rule:nonzero;stroke:none"/><path d="M427.844 1144.25c13.582 61.71 68.519 107.93 134.332 107.93 65.804 0 120.746-46.22 134.328-107.93h-268.66" style="fill:#67c1be;fill-opacity:1;fill-rule:nonzero;stroke:none"/></g><path d="M3.19 70.626 1.478 18.522h40.925l-.684 52.255-38.53-.15" style="fill:#fff;fill-opacity:1;fill-rule:nonzero;stroke:none;stroke-width:.1" transform="matrix(1.33046 0 0 -1.33046 14.286 228.31)"/><path d="M34.005 54.591H9.832a1.83 1.83 0 0 0-1.848 1.848 1.83 1.83 0 0 0 1.848 1.848h24.173a1.83 1.83 0 0 0 1.848-1.848 1.83 1.83 0 0 0-1.848-1.848M34.005 44.98H9.832a1.83 1.83 0 0 0-1.848 1.849 1.83 1.83 0 0 0 1.848 1.848h24.173a1.83 1.83 0 0 0 1.848-1.848 1.83 1.83 0 0 0-1.848-1.848M34.005 35.371H9.832a1.83 1.83 0 0 0-1.848 1.848 1.83 1.83 0 0 0 1.848 1.848h24.173a1.83 1.83 0 0 0 1.848-1.848 1.83 1.83 0 0 0-1.848-1.848" style="fill:#040606;fill-opacity:1;fill-rule:nonzero;stroke:none;stroke-width:.1" transform="matrix(1.33046 0 0 -1.33046 14.286 228.31)"/><path d="M37.554 16.665H7.023C3.179 16.665 0 19.74 0 23.458v43.117c0 3.72 3.179 6.793 7.023 6.793H37.48c3.844 0 7.023-3.074 7.023-6.793V23.458c.074-3.789-3.105-6.793-6.95-6.793M7.024 69.793c-1.848 0-3.327-1.43-3.327-3.218V23.458c0-1.787 1.479-3.218 3.327-3.218H37.48c1.848 0 3.327 1.431 3.327 3.218v43.117c0 1.788-1.479 3.218-3.327 3.218H7.023" style="fill:#040606;fill-opacity:1;fill-rule:nonzero;stroke:none;stroke-width:.1" transform="matrix(1.33046 0 0 -1.33046 14.286 228.31)"/><path d="M79.96 20.625A8.692 8.692 0 0 1 67.944 23.2l-.006-.004-7.298-4.723L70.08 3.881l7.297 4.721.008.005a8.692 8.692 0 0 1 2.575 12.018M60.362 15.536a2.425 2.425 0 0 0-.719-3.354l-10.38-6.717a2.426 2.426 0 0 0-2.635 4.073l10.38 6.717a2.426 2.426 0 0 0 3.354-.72M63.795 10.23a2.425 2.425 0 0 0-.719-3.354l-1.824-1.18a2.427 2.427 0 0 0-2.635 4.073l1.824 1.18a2.425 2.425 0 0 0 3.354-.719M67.228 4.924a2.425 2.425 0 0 0-.719-3.354L64.686.39a2.425 2.425 0 1 0-2.636 4.073l1.824 1.18a2.425 2.425 0 0 0 3.354-.72" style="fill:#67c1be;fill-opacity:1;fill-rule:nonzero;stroke:none;stroke-width:.1" transform="matrix(1.33046 0 0 -1.33046 10.294 228.31)"/><path d="m52.93 159.018-.064-18.773h5.618v12.646c-1.305 1.011-3.605 3.886-5.554 6.127" style="fill:#0a9ea0;fill-opacity:1;fill-rule:nonzero;stroke:none;stroke-width:.1" transform="matrix(1.33046 0 0 -1.33046 10.294 228.31)"/><path d="M75.998 154.925c.582.875 1.03 1.823 1.332 2.82a10.68 10.68 0 0 1 .463 3.195 10.623 10.623 0 0 1-.87 4.172 10.731 10.731 0 0 1-3.918 4.695c-.871.582-1.82 1.03-2.817 1.332a10.408 10.408 0 0 1-3.195.463 9.742 9.742 0 0 1-2.183-.26c-1.22-.285-2.433-.82-3.608-1.588-.88-.577-1.753-1.289-2.667-2.176-.675-.66-2.076-2.292-2.824-3.179.553-.676 1.092-1.355 1.62-2.021l.657-.827c.7.853 2.033 2.441 2.617 3.041a17.92 17.92 0 0 0 1.566 1.447c.803.652 1.6 1.147 2.37 1.47.396.166.801.294 1.206.382a6.31 6.31 0 0 0 1.269.138c.94-.011 1.901-.177 2.788-.544a7.143 7.143 0 0 0 3.169-2.575 7.112 7.112 0 0 0 1.248-3.994 7.19 7.19 0 0 0-.542-2.789 7.182 7.182 0 0 0-4.444-4.081 7.134 7.134 0 0 0-2.126-.337c-.493.01-.926.046-1.392.148a7.24 7.24 0 0 0-1.742.641c-.191.102-.383.207-.575.325-.562.341-1.142.772-1.723 1.281-.215.184-.43.381-.645.588a29.685 29.685 0 0 0-1.925 2.047 69.289 69.289 0 0 0-1.603 1.942l-1.036 1.303c-.85 1.075-1.73 2.186-2.648 3.245a32.026 32.026 0 0 1-2.2 2.324 19.128 19.128 0 0 1-2.166 1.783 12.4 12.4 0 0 1-2.727 1.459 9.965 9.965 0 0 1-3.5.65l-.09-.001a10.628 10.628 0 0 1-4.174-.87 10.73 10.73 0 0 1-6.489-9.928c.01-1.449.303-2.853.87-4.172a10.73 10.73 0 0 1 3.919-4.695 10.673 10.673 0 0 1 2.818-1.333 10.23 10.23 0 0 1 3.194-.462 9.927 9.927 0 0 1 2.183.259c1.223.287 2.436.822 3.609 1.589.88.577 1.752 1.289 2.665 2.176.67.654 2.094 2.197 2.848 3.089-.567.692-2.08 2.599-2.276 2.847a65.718 65.718 0 0 0-2.64-2.952 18.506 18.506 0 0 0-1.567-1.447c-.8-.65-1.599-1.145-2.37-1.47a6.616 6.616 0 0 0-1.208-.382 6.109 6.109 0 0 0-1.266-.138 6.964 6.964 0 0 0-2.79.545 7.127 7.127 0 0 0-3.168 2.575 7.134 7.134 0 0 0-1.249 3.993 7.15 7.15 0 0 0 7.113 7.207 6.04 6.04 0 0 0 1.391-.148c.777-.172 1.536-.489 2.318-.966a12.688 12.688 0 0 0 1.723-1.281c.788-.685 1.628-1.547 2.568-2.636.855-.989 1.728-2.092 2.573-3.16l.088-.112c.844-1.065 1.716-2.167 2.625-3.217a32.18 32.18 0 0 1 2.202-2.326 19.634 19.634 0 0 1 1.808-1.527c1.029-.759 2.038-1.32 3.083-1.713l.208-.076a9.913 9.913 0 0 1 3.385-.575c1.448.009 2.853.302 4.173.87a10.751 10.751 0 0 1 4.694 3.917M56.978 162.098z" style="fill:#67c1be;fill-opacity:1;fill-rule:nonzero;stroke:none;stroke-width:.1" transform="matrix(1.33046 0 0 -1.33046 10.294 228.31)"/></svg>