<svg version="1.1" viewBox="0 0 114.29 157.512" xmlns="http://www.w3.org/2000/svg"><defs id="defs4238"><clipPath id="clippath"><path class="cls-8" d="M114.4 94.82 114.46 0H10.18v94.76c0 28.79 23.34 52.14 52.14 52.14s52.14-23.34 52.14-52.14z" id="path4227"/></clipPath><clipPath id="clippath-1"><path class="cls-8" d="M44.5 32.02a8.8 8.8 0 0 0-8.8 8.8l-9.91 43.64a8.8 8.8 0 0 0 8.8 8.8h56.29a8.8 8.8 0 0 0 8.8-8.8l-9.94-43.64a8.8 8.8 0 0 0-8.8-8.8H44.5Z" id="path4230"/></clipPath><clipPath id="clippath-2"><path class="cls-8" d="m103.72 199.61-41.26-4.22V99.3l41.26 4.22z" id="path4233"/></clipPath><style id="style4236">.cls-2{fill:#fff}.cls-3{fill:#67c1be}.cls-4{fill:#0a9ea0}.cls-8{fill:none}.cls-12{fill:#1d1d1b}</style></defs><path class="cls-4" d="m60.15 12.572-.06 18.77h5.62v-12.65c-1.3-1.01-3.61-3.89-5.55-6.13z" id="path4240"/><path class="cls-3" d="M83.22 16.672c.58-.87 1.03-1.82 1.33-2.82.31-1.03.47-2.11.46-3.19 0-1.45-.3-2.86-.87-4.17A10.742 10.742 0 0 0 77.4.462c-1.03-.31-2.12-.48-3.19-.46-.74 0-1.47.09-2.18.26-1.22.29-2.43.82-3.61 1.59-.88.58-1.75 1.29-2.67 2.18-.67.66-2.08 2.29-2.82 3.18.55.68 1.09 1.36 1.62 2.02l.66.83c.7-.85 2.03-2.44 2.62-3.04.53-.55 1.06-1.04 1.57-1.45.8-.65 1.6-1.15 2.37-1.47.4-.17.8-.29 1.21-.38.42-.09.83-.13 1.27-.14.94.01 1.9.18 2.79.54 1.28.53 2.38 1.42 3.17 2.58.4.58.7 1.21.91 1.87.22.69.33 1.4.34 2.13 0 .96-.18 1.9-.54 2.79a7.208 7.208 0 0 1-2.58 3.17 7.245 7.245 0 0 1-4 1.25c-.49 0-.93-.05-1.39-.15-.59-.13-1.16-.34-1.74-.64-.19-.1-.38-.21-.58-.32-.56-.34-1.14-.77-1.72-1.28-.21-.18-.43-.38-.64-.59-.6-.57-1.23-1.24-1.92-2.05-.53-.62-1.06-1.27-1.6-1.94l-1.04-1.3c-.85-1.07-1.73-2.19-2.65-3.24-.79-.91-1.51-1.67-2.2-2.32-.62-.59-1.21-1.09-1.81-1.53-.12-.09-.24-.17-.36-.26-.91-.63-1.8-1.11-2.73-1.46-.94-.35-1.91-.57-2.88-.63-.21-.01-.41-.02-.62-.02h-.09c-1.45 0-2.86.3-4.17.87-1.91.83-3.54 2.18-4.7 3.92a10.706 10.706 0 0 0-1.79 6.01c0 1.45.3 2.85.87 4.17.83 1.91 2.18 3.54 3.92 4.7.87.58 1.82 1.03 2.82 1.33 1.03.31 2.09.48 3.19.46.73 0 1.47-.09 2.18-.26 1.22-.29 2.44-.82 3.61-1.59.88-.58 1.75-1.29 2.67-2.18.67-.65 2.09-2.2 2.85-3.09-.57-.69-2.08-2.6-2.28-2.85-.71.86-2.06 2.35-2.64 2.95-.53.55-1.06 1.03-1.57 1.45-.8.65-1.6 1.14-2.37 1.47-.41.17-.8.3-1.21.38-.42.09-.84.14-1.27.14-.97.01-1.91-.18-2.79-.54a7.075 7.075 0 0 1-3.17-2.58c-.39-.57-.7-1.2-.91-1.87-.22-.69-.33-1.4-.34-2.13 0-.96.18-1.9.54-2.79a7.208 7.208 0 0 1 2.58-3.17 7.245 7.245 0 0 1 4-1.25c.46 0 .92.05 1.39.15.78.17 1.54.49 2.32.97.56.34 1.14.77 1.72 1.28.79.69 1.63 1.55 2.57 2.64.85.99 1.73 2.09 2.57 3.16l.09.11c.84 1.07 1.72 2.17 2.62 3.22.8.93 1.5 1.66 2.2 2.33.14.14.29.27.44.41.48.42.93.79 1.37 1.12 1.03.76 2.04 1.32 3.08 1.71l.21.08c1.1.39 2.25.59 3.38.58 1.45 0 2.85-.3 4.17-.87 1.91-.83 3.54-2.18 4.69-3.92zM64.2 9.492Z" id="path4242"/><g id="g4302" transform="translate(0 -.658)"><path d="M62.32 146.75c28.7 0 51.97-23.27 51.97-51.97S91.02 42.81 62.32 42.81 10.35 66.07 10.35 94.78c0 28.71 23.27 51.97 51.97 51.97" style="fill:#00577a" id="path4244"/><g clip-path="url(#clippath)" id="g4276"><path d="M49.28 74.89v48.39c0 3.6 2.92 6.51 6.51 6.51h17.04c3.6 0 6.51-2.92 6.51-6.51V74.89" style="fill:#008082" id="path4246"/><path class="cls-4" d="M29.04 49.83c-2.86 0-5.19 3.15-5.19 7.04v7.04c0 3.89 2.32 7.04 5.19 7.04h68.05c2.86 0 5.19-3.15 5.19-7.04v-7.04c0-3.89-2.32-7.04-5.19-7.04z" id="path4248"/><path class="cls-3" d="M44.5 32.02a8.8 8.8 0 0 0-8.8 8.8l-9.91 43.64a8.8 8.8 0 0 0 8.8 8.8h56.29a8.8 8.8 0 0 0 8.8-8.8l-9.94-43.64a8.8 8.8 0 0 0-8.8-8.8zm-1.93 71.51c-5.37 0-9.73 5.65-9.73 12.62l-10.96 62.61c0 6.97 4.36 12.62 9.73 12.62h62.28c5.37 0 9.73-5.65 9.73-12.62l-10.99-62.61c0-6.97-4.36-12.62-9.73-12.62z" id="path4250"/><path class="cls-4" d="M62.76 30.06h49.86v84.26H62.76Z" clip-path="url(#clippath-1)" id="path4252"/><path d="M63.36 73.39c6.94 0 12.56-5.62 12.56-12.56S70.3 48.27 63.36 48.27 50.8 53.89 50.8 60.83s5.62 12.56 12.56 12.56" style="fill:#f6c349" id="path4254"/><path class="cls-2" d="M38.56 72.58c.3-1.4-.59-2.77-1.99-3.06a2.583 2.583 0 1 0-1.08 5.05c1.4.3 2.77-.59 3.06-1.99m1.54-7.23c.3-1.4-.59-2.77-1.99-3.06a2.583 2.583 0 1 0-1.08 5.05c1.4.3 2.77-.59 3.06-1.99m1.55-7.24c.3-1.4-.59-2.77-1.99-3.06a2.583 2.583 0 1 0-1.08 5.05c1.4.3 2.77-.59 3.06-1.99m43.82 14.47c-.3-1.4.59-2.77 1.99-3.06 1.4-.3 2.77.59 3.06 1.99.3 1.4-.6 2.77-1.99 3.06-1.4.3-2.77-.59-3.06-1.99m-1.54-7.23c-.3-1.4.59-2.77 1.99-3.06a2.583 2.583 0 1 1 1.08 5.05c-1.4.3-2.77-.59-3.06-1.99m-1.55-7.24c-.3-1.4.59-2.77 1.99-3.06 1.4-.3 2.77.59 3.06 1.99.3 1.4-.6 2.77-1.99 3.06-1.4.3-2.77-.59-3.06-1.99" id="path4256"/><path class="cls-4" d="M42.57 103.53c-5.37 0-9.73 5.65-9.73 12.62l-10.96 62.61c0 6.97 4.36 12.62 9.73 12.62h62.28c5.37 0 9.73-5.65 9.73-12.62l-10.71-62.61c-.09-7.94-4.64-12.62-10.01-12.62Z" clip-path="url(#clippath-2)" id="path4258"/><path style="fill:none;stroke:#0a9ea0;stroke-width:3.99px;stroke-linecap:round" d="m21.64 149.41 6.47-30.55" id="path4260"/><path class="cls-3" d="m26.54 108.26-1.93 9.38c-.75 3.66 2.04 7.09 5.78 7.09h21.49c3.26 0 5.9-2.64 5.9-5.9v-9.38c0-3.26-2.64-5.9-5.9-5.9H32.32c-2.8 0-5.21 1.97-5.78 4.71z" id="path4262"/><path class="cls-4" d="m99.48 107.54 1.93 7.94c.75 3.1-2.04 6-5.78 6H74.14c-3.26 0-5.9-2.24-5.9-5v-7.94c0-2.76 2.64-5 5.9-5H93.7c2.8 0 5.21 1.67 5.78 3.99z" id="path4264"/><circle class="cls-3" cx="62.99" cy="135.49" r="13.64" id="circle4266"/><path class="cls-4" d="M62.99 150.64c-8.35 0-15.15-6.79-15.15-15.15s6.79-15.14 15.15-15.14 15.14 6.79 15.14 15.14c0 8.35-6.79 15.15-15.14 15.15zm0-27.29c-6.7 0-12.15 5.45-12.15 12.14s5.45 12.15 12.15 12.15 12.14-5.45 12.14-12.15-5.45-12.14-12.14-12.14z" id="path4268"/><path class="cls-12" d="M68.02 60.87c2.89 0 5.23-2.34 5.23-5.23 0-2.89-2.34-5.23-5.23-5.23-2.89 0-5.23 2.34-5.23 5.23 0 2.89 2.34 5.23 5.23 5.23m12.02 19.99c.39-.73.63-1.54.63-2.43H70.38c0 .88.24 1.7.63 2.43z" id="path4270"/><path class="cls-4" d="M50.29 63.81c1.55 6.36 7.27 11.46 14.11 11.46s12.56-5.1 14.11-11.46H50.28Z" id="path4272"/><path class="cls-3" d="M51.19 63.85c1.34 5.49 6.28 9.58 12.19 9.58 5.91 0 10.85-4.08 12.19-9.58z" id="path4274"/></g><path class="cls-4" d="M109.25 144.34c-.81 0-1.56-.49-1.87-1.29L95.32 111.1a1.994 1.994 0 1 1 3.73-1.41l12.06 31.95a1.994 1.994 0 0 1-1.86 2.7z" id="path4278"/><path class="cls-4" d="M109.25 144.34c-.63 0-1.25-.3-1.63-.85l-20.36-29.01c-.63-.9-.42-2.15.49-2.78a1.99 1.99 0 0 1 2.78.49l20.36 29.01a1.992 1.992 0 0 1-1.63 3.14z" id="path4280"/><path class="cls-3" d="m113.74 141.53-.03-.09c0-.03-.02-.05-.03-.08-.02-.04-.03-.09-.05-.13 0-.01 0-.02-.01-.03-.18-.43-.44-.84-.77-1.21s-.71-.66-1.13-.89c-.01 0-.02-.01-.03-.02-.04-.02-.08-.04-.13-.07-.03-.01-.05-.03-.08-.04-.03-.01-.06-.03-.08-.04-.04-.02-.08-.04-.12-.05-.01 0-.03-.01-.04-.02-.44-.18-.9-.28-1.4-.31-.49-.02-.97.04-1.42.16-.01 0-.03 0-.04.01-.04.01-.09.03-.13.04-.03 0-.06.02-.09.03-.03 0-.05.02-.08.03-.04.02-.09.03-.13.05-.01 0-.02 0-.03.02-.43.18-.84.44-1.21.77s-.66.71-.89 1.13c0 .01-.01.02-.02.03-.02.04-.04.08-.07.13-.01.03-.03.05-.04.08-.01.03-.03.06-.04.08-.02.04-.04.08-.05.12 0 .01-.01.03-.02.04-.17.44-.28.91-.31 1.4-.02.49.04.97.17 1.42 0 .01 0 .03.01.04.01.04.03.09.04.13l.03.09c0 .03.02.05.03.08.02.04.03.09.05.13a4.348 4.348 0 0 0 .78 1.24c.33.37.71.66 1.13.89.01 0 .02.01.03.02.04.02.08.04.13.06.03.01.05.03.08.04.03.01.06.03.08.04.04.02.08.04.12.05.01 0 .03.01.04.02.43.17.9.28 1.4.31.49.02.97-.03 1.42-.17.01 0 .03 0 .04-.01.04-.01.09-.03.13-.04.03 0 .06-.02.09-.03.03-.01.06-.02.08-.03.04-.02.09-.03.13-.05.01 0 .02-.01.04-.02a4.348 4.348 0 0 0 2.1-1.89l.02-.03s.04-.08.06-.13c.01-.03.03-.05.04-.08l.04-.08s.04-.08.05-.13c0-.01 0-.03.02-.04.17-.43.28-.9.31-1.4.03-.49-.03-.97-.16-1.42 0-.01 0-.03-.01-.04-.01-.04-.03-.09-.04-.13" id="path4282"/><rect class="cls-3" x="77.93" y="82.21" width="4.84" height="17.16" rx="2.42" ry="2.42" transform="rotate(-36.18 80.336 90.783)" id="rect4284"/><rect class="cls-3" x="75.85" y="95.11" width="4.84" height="7" rx="2.42" ry="2.42" transform="rotate(-36.18 78.254 98.607)" id="rect4286"/><rect class="cls-3" x="70.76" y="98.83" width="4.84" height="7" rx="2.42" ry="2.42" transform="rotate(-36.18 73.164 102.314)" id="rect4288"/><path class="cls-3" d="m93.47 104.83-5.12-7-13.99 10.23 5.11 6.99c2.82 3.86 8.24 4.7 12.11 1.88 3.86-2.82 4.7-8.24 1.88-12.11z" id="path4290"/><path class="cls-2" d="M15.8 117.23c0-4.41 1.39-6.46 4.41-6.46 2.45 0 3.6 1.06 3.6 3.43 0 6.29-8.99 7.6-8.99 19.77h13.65c0-8.58 12.26-10.95 12.26-22.8 0-9.4-6.94-14.87-18.79-14.87-12.75 0-20.18 7.76-20.18 20.92H15.8Z" id="path4292"/><path class="cls-12" d="M28.46 135.72H14.82c-.96 0-1.74-.78-1.74-1.74 0-7.75 3.34-11.49 6.03-14.5 1.89-2.11 2.96-3.4 2.96-5.28 0-1.29-.25-1.69-1.85-1.69-1 0-2.67 0-2.67 4.71 0 .96-.78 1.74-1.74 1.74H1.74c-.96 0-1.74-.78-1.74-1.74 0-14.19 8.2-22.66 21.93-22.66 12.86 0 20.54 6.21 20.54 16.62 0 7.12-3.91 11.09-7.37 14.6-2.62 2.66-4.89 4.97-4.89 8.2 0 .96-.78 1.74-1.74 1.74zm-11.83-3.49h10.23c.63-3.71 3.23-6.34 5.74-8.9 3.27-3.33 6.37-6.47 6.37-12.15 0-8.34-6.21-13.13-17.05-13.13s-17.77 6.33-18.39 17.43h10.61c.53-5.28 3.52-6.46 6.07-6.46 3.44 0 5.34 1.84 5.34 5.18s-1.96 5.49-3.85 7.6c-2.29 2.56-4.65 5.2-5.07 10.43z" id="path4294"/><g id="g4300"><circle class="cls-2" cx="22.43" cy="148.25" r="8.18" id="circle4296"/><path class="cls-12" d="M22.43 158.17c-5.47 0-9.92-4.45-9.92-9.92s4.45-9.92 9.92-9.92 9.92 4.45 9.92 9.92-4.45 9.92-9.92 9.92zm0-16.35c-3.55 0-6.43 2.89-6.43 6.43 0 3.54 2.88 6.43 6.43 6.43s6.43-2.89 6.43-6.43c0-3.54-2.89-6.43-6.43-6.43z" id="path4298"/></g></g></svg>