<svg version="1.1" viewBox="0 0 124.31 173.96" xmlns="http://www.w3.org/2000/svg"><defs id="defs4905"><clipPath id="clippath"><path class="cls-5" d="M104.28 111.74 104.34.22H.06v111.46c0 28.42 23.34 51.46 52.14 51.46s52.14-23.04 52.14-51.46z" id="path4894"/></clipPath><clipPath id="clippath-1"><path class="cls-5" d="M52.57 112.84H82.4v82.19H52.57Z" id="path4897"/></clipPath><clipPath id="clippath-2"><rect class="cls-5" x="17.91" y="53" width="68.6" height="56.85" rx="8.17" ry="8.17" id="rect4900"/></clipPath><style id="style4903">.cls-1{fill:#fff}.cls-2{fill:#67c1be}.cls-3{fill:#0a9ea0}.cls-5{fill:none}.cls-10{fill:#1d1d1b}</style></defs><path d="M52.14 162.96c28.79 0 52.14-23.34 52.14-52.14S80.94 58.68 52.14 58.68 0 82.03 0 110.82s23.34 52.14 52.14 52.14" style="fill:#d4803a" id="path4907"/><path class="cls-3" d="M115.56 127.61H84.23c-1.1 0-2-.9-2-2s.9-2 2-2h31.33c1.1 0 2 .9 2 2s-.9 2-2 2z" id="path4909"/><path class="cls-3" d="M115.56 127.61c-1.1 0-2-.9-2-2V97.34c0-1.1.9-2 2-2s2 .9 2 2v28.27c0 1.1-.9 2-2 2z" id="path4911"/><path class="cls-2" d="M111.57 127.36s-.02-.06-.04-.09c-.01-.03-.02-.05-.03-.08-.02-.04-.03-.09-.05-.13 0-.01 0-.02-.01-.04-.15-.45-.24-.92-.24-1.42 0-.5.08-.97.24-1.42 0-.01 0-.02.01-.03.02-.05.03-.09.05-.13.01-.03.02-.05.03-.08.01-.03.02-.06.04-.09l.06-.12c0-.01.01-.03.02-.04.21-.42.48-.82.83-1.17s.75-.63 1.17-.83c.01 0 .03-.01.04-.02l.12-.06c.03-.01.06-.02.09-.04.03-.01.05-.02.08-.03.04-.02.09-.03.13-.05.01 0 .02 0 .04-.01.44-.15.92-.24 1.42-.24.5 0 .97.08 1.42.24.01 0 .02 0 .03.01.04.02.09.03.13.05.03.01.05.02.08.03.03.01.06.02.09.04l.12.06c.01 0 .03.01.04.02.42.21.82.48 1.17.83s.63.75.83 1.17c0 .01.01.03.02.04l.06.12c.01.03.02.06.04.09.01.03.02.05.03.08.02.04.03.09.05.13 0 .01 0 .02.01.03.15.45.24.92.24 1.42 0 .5-.08.98-.24 1.42 0 .01 0 .02-.01.04-.02.04-.03.09-.05.13-.01.03-.02.05-.03.08-.01.03-.02.06-.04.09l-.06.12c0 .01-.01.03-.02.04-.21.42-.48.82-.83 1.17s-.75.63-1.17.83c-.01 0-.03.01-.04.02-.04.02-.08.04-.13.06-.03.01-.06.02-.08.04-.03.01-.06.02-.08.03-.04.02-.09.03-.13.05-.01 0-.02 0-.04.01-.44.15-.92.24-1.42.24-.5 0-.97-.08-1.42-.24h-.04s-.09-.04-.13-.06a.689.689 0 0 1-.08-.03l-.08-.04-.12-.06c-.01 0-.03-.01-.04-.02-.42-.21-.82-.48-1.17-.83s-.63-.75-.83-1.17c0-.01-.01-.03-.02-.04l-.06-.12" id="path4913"/><g clip-path="url(#clippath)" id="g4949" transform="translate(0 -.22)"><path class="cls-3" d="M37.44 92.95v48.55c0 3.61 2.92 6.53 6.53 6.53h17.09c3.61 0 6.53-2.92 6.53-6.53V92.95" id="path4915"/><rect class="cls-2" x="12.99" y="127.07" width="79.24" height="56.68" rx="9.72" ry="9.72" transform="rotate(-90 52.615 155.415)" id="rect4917"/><rect class="cls-3" x="12.8" y="126.92" width="79.54" height="56.68" rx="9.72" ry="9.72" transform="rotate(-90 52.565 155.265)" clip-path="url(#clippath-1)" id="rect4919"/><rect class="cls-3" x="65.34" y="112.06" width="20.49" height="27.54" rx="6.96" ry="6.96" transform="rotate(-90 75.585 125.835)" id="rect4921"/><path class="cls-2" d="M79.46 41.79a56.949 56.949 0 0 0-4.33-4.32c1.61-1.46 3.06-2.91 4.33-4.32 6.75-7.55 6.51-12 5.12-14.41-1.39-2.41-5.12-4.84-15.04-2.77-1.86.39-3.85.92-5.91 1.59-.46-2.12-.99-4.11-1.58-5.91C58.89 2.02 54.92 0 52.14 0c-2.78 0-6.76 2.02-9.92 11.64-.59 1.81-1.12 3.8-1.58 5.91-2.06-.66-4.05-1.2-5.91-1.59-9.92-2.08-13.65.36-15.04 2.77-1.39 2.41-1.63 6.86 5.13 14.41a56.95 56.95 0 0 0 4.33 4.32 58.848 58.848 0 0 0-4.33 4.32c-6.75 7.55-6.52 12-5.12 14.41.94 1.62 3.15 3.55 8.37 3.55 1.93 0 4.18-.26 6.67-.79 1.85-.39 3.84-.92 5.91-1.59.45 2.11.99 4.1 1.58 5.91 3.16 9.62 7.14 11.64 9.92 11.64 2.78 0 6.76-2.02 9.92-11.64.59-1.8 1.12-3.79 1.58-5.91 2.07.67 4.05 1.2 5.91 1.59 2.49.52 4.74.79 6.67.79 5.22 0 7.43-1.93 8.37-3.55 1.39-2.41 1.63-6.86-5.13-14.41zm-13.93-7.65c1.54 1.1 3.01 2.22 4.38 3.33a94.57 94.57 0 0 1-4.38 3.33c.03-1.09.05-2.21.05-3.33s-.02-2.24-.05-3.33zm7.01 1.09c-2.21-1.83-4.64-3.63-7.22-5.37-.22-3.1-.57-6.11-1.04-8.94 2.09-.69 4.09-1.23 5.96-1.62 2.23-.47 4.24-.7 5.97-.7 2.82 0 4.75.65 5.44 1.84 1.14 1.97-.62 5.88-4.71 10.45-1.27 1.42-2.75 2.88-4.39 4.35zm-7.22 9.85c2.59-1.74 5.01-3.55 7.22-5.37 1.64 1.47 3.12 2.93 4.39 4.35 4.09 4.57 5.85 8.48 4.71 10.45-1.12 1.94-5.49 2.38-11.4 1.14-1.86-.39-3.87-.94-5.96-1.62.48-2.83.83-5.84 1.04-8.94zm-3.6 2.32c-.18 1.87-.41 3.7-.69 5.46a90.9 90.9 0 0 1-5.08-2.13c.99-.53 1.97-1.08 2.91-1.62.96-.55 1.92-1.13 2.86-1.71zm-16.3 1.71a97.5 97.5 0 0 0 2.91 1.62c-1.71.78-3.42 1.5-5.07 2.13-.28-1.75-.51-3.58-.69-5.46.95.58 1.91 1.16 2.86 1.71zm-2.86-21.57c.18-1.88.41-3.71.69-5.46 1.66.63 3.36 1.35 5.07 2.13-.98.53-1.96 1.07-2.91 1.62-.96.56-1.92 1.13-2.86 1.71zm16.3-1.71c-.96-.55-1.94-1.1-2.91-1.62 1.72-.78 3.42-1.5 5.08-2.13.28 1.76.51 3.59.69 5.46-.93-.57-1.89-1.15-2.86-1.71zm-6.72 26.86c2.8 1.37 5.58 2.57 8.26 3.57-.45 2.15-.98 4.16-1.57 5.97-1.91 5.83-4.41 9.31-6.69 9.31-2.28 0-4.78-3.48-6.69-9.31-.6-1.81-1.12-3.82-1.57-5.97 2.69-1 5.46-2.2 8.26-3.57zm0-3.79c-1.68-.86-3.37-1.77-5.02-2.73-1.65-.96-3.29-1.96-4.87-2.99a107.96 107.96 0 0 1 0-11.42c1.58-1.03 3.22-2.03 4.87-2.99 1.66-.96 3.35-1.87 5.02-2.72a106.326 106.326 0 0 1 9.89 5.71 107.96 107.96 0 0 1 0 11.42 113.08 113.08 0 0 1-4.87 2.99c-1.65.95-3.33 1.87-5.02 2.73zm-8.26-30.21c.45-2.15.98-4.16 1.57-5.97 1.91-5.83 4.41-9.31 6.69-9.31 2.28 0 4.77 3.48 6.69 9.31.59 1.81 1.12 3.82 1.57 5.97-2.69 1-5.47 2.2-8.26 3.57a95.864 95.864 0 0 0-8.26-3.57zm-5.13 22.12c-1.53-1.09-3-2.21-4.38-3.33 1.37-1.12 2.84-2.23 4.38-3.33-.03 1.12-.05 2.24-.05 3.33 0 1.09.02 2.21.05 3.33zm-7.01-5.57c-1.63-1.46-3.11-2.92-4.39-4.35-4.09-4.57-5.85-8.48-4.72-10.45 1.14-1.97 5.4-2.4 11.4-1.14 1.87.39 3.87.94 5.96 1.62-.47 2.82-.82 5.83-1.04 8.94-2.57 1.73-5 3.54-7.22 5.37zm0 4.47c2.21 1.83 4.64 3.63 7.22 5.37.22 3.11.57 6.12 1.04 8.94-2.09.69-4.1 1.23-5.96 1.62-6 1.25-10.27.83-11.4-1.14-1.14-1.97.63-5.88 4.72-10.45a54.84 54.84 0 0 1 4.39-4.35z" id="path4923"/><path class="cls-3" d="M56.13 38.4s.02-.06.04-.09c.01-.03.02-.05.03-.08.02-.04.03-.09.05-.13 0-.01 0-.02.01-.04.15-.45.24-.92.24-1.42 0-.5-.08-.97-.24-1.42 0-.01 0-.02-.01-.03-.02-.05-.03-.09-.05-.13-.01-.03-.02-.05-.03-.08-.01-.03-.02-.06-.04-.09l-.06-.12c0-.01-.01-.03-.02-.04-.21-.42-.48-.82-.83-1.17s-.75-.63-1.17-.83c-.01 0-.03-.01-.04-.02l-.12-.06c-.03-.01-.06-.02-.09-.04-.03-.01-.05-.02-.08-.03-.04-.02-.09-.03-.13-.05-.01 0-.02 0-.04-.01-.44-.15-.92-.24-1.42-.24-.5 0-.97.08-1.42.24-.01 0-.02 0-.03.01-.04.02-.09.03-.13.05-.03.01-.05.02-.08.03-.03.01-.06.02-.09.04l-.12.06c-.01 0-.03.01-.04.02-.42.21-.82.48-1.17.83s-.63.75-.83 1.17c0 .01-.01.03-.02.04l-.06.12c-.01.03-.02.06-.04.09-.01.03-.02.05-.03.08-.02.04-.03.09-.05.13 0 .01 0 .02-.01.03-.15.45-.24.92-.24 1.42 0 .5.08.98.24 1.42 0 .01 0 .02.01.04.02.04.03.09.05.13.01.03.02.05.03.08.01.03.02.06.04.09l.06.12c0 .01.01.03.02.04.21.42.48.82.83 1.17s.75.63 1.17.83c.01 0 .03.01.04.02l.12.06c.03.01.06.02.08.04.03.01.06.02.08.03.04.02.09.03.13.05.01 0 .02 0 .04.01.44.15.92.24 1.42.24.5 0 .97-.08 1.42-.24h.04s.09-.04.13-.06c.03-.01.06-.02.08-.03l.08-.04.12-.06c.01 0 .03-.01.04-.02.42-.21.82-.48 1.17-.83s.63-.75.83-1.17c0-.01.01-.03.02-.04l.06-.12" id="path4925"/><path style="fill:none;stroke:#0a9ea0;stroke-width:3.4px" d="M52.14 60.06V34.27" id="path4927"/><rect class="cls-3" x="37.06" y="43.05" width="30.16" height="61.61" rx="6.53" ry="6.53" id="rect4929"/><path class="cls-3" d="M9.66 69.54h85.71c3.61 0 6.53 2.93 6.53 6.53v6.53c0 3.61-2.93 6.53-6.53 6.53H9.66c-3.61 0-6.53-2.93-6.53-6.53v-6.53c0-3.61 2.93-6.53 6.53-6.53z" id="path4931"/><rect class="cls-2" x="17.91" y="53" width="68.6" height="56.85" rx="8.17" ry="8.17" id="rect4933"/><path class="cls-3" d="M52.21 49.74h50.02v84.53H52.21Z" clip-path="url(#clippath-2)" id="path4935"/><path class="cls-10" d="M26.02 104.41a2.4 2.4 0 1 0-.001-4.801 2.4 2.4 0 0 0 .001 4.801m6.86 0a2.4 2.4 0 1 0-.001-4.801 2.4 2.4 0 0 0 .001 4.801m40.12 0a2.4 2.4 0 1 0-.001-4.801A2.4 2.4 0 0 0 73 104.41m6.87 0a2.4 2.4 0 1 0-.001-4.801 2.4 2.4 0 0 0 .001 4.801M45.44 64.5a2.4 2.4 0 1 0-.001-4.801 2.4 2.4 0 0 0 .001 4.801m6.87 0a2.4 2.4 0 1 0-.001-4.801 2.4 2.4 0 0 0 .001 4.801m6.86 0a2.4 2.4 0 1 0-.001-4.801 2.4 2.4 0 0 0 .001 4.801" id="path4937"/><path class="cls-1" d="M69.44 90.42c4.89 0 8.85-3.96 8.85-8.85s-3.96-8.85-8.85-8.85-8.85 3.96-8.85 8.85 3.96 8.85 8.85 8.85m-34.84 0c4.89 0 8.85-3.96 8.85-8.85s-3.96-8.85-8.85-8.85-8.85 3.96-8.85 8.85 3.96 8.85 8.85 8.85" id="path4939"/><path class="cls-10" d="M68.03 87.93c1.29 0 2.34-1.05 2.34-2.34 0-1.29-1.05-2.34-2.34-2.34-1.29 0-2.34 1.05-2.34 2.34 0 1.29 1.05 2.34 2.34 2.34m-35.37 0c1.29 0 2.34-1.05 2.34-2.34 0-1.29-1.05-2.34-2.34-2.34-1.29 0-2.34 1.05-2.34 2.34 0 1.29 1.05 2.34 2.34 2.34m19.86 16.69a5.25 5.25 0 1 0 0-10.5 5.25 5.25 0 1 0 0 10.5" id="path4941"/><path class="cls-2" d="M35.5 136.08H21.87c-3.84 0-6.96-3.11-6.96-6.96v-6.58c0-3.84 3.11-6.96 6.96-6.96H35.5c3.84 0 6.96 3.11 6.96 6.96v6.58" id="path4943"/><rect class="cls-2" x="34.7" y="132.46" width="36.51" height="29.83" rx="6.96" ry="6.96" transform="rotate(-90 52.96 147.38)" id="rect4945"/><path class="cls-3" d="M60.92 167.14H45c-4.66 0-8.46-3.79-8.46-8.46v-22.6c0-4.66 3.79-8.46 8.46-8.46h15.92c4.66 0 8.46 3.79 8.46 8.46v22.6c0 4.66-3.79 8.46-8.46 8.46zM45 130.63c-3.01 0-5.46 2.45-5.46 5.46v22.6c0 3.01 2.45 5.46 5.46 5.46h15.92c3.01 0 5.46-2.45 5.46-5.46v-22.6c0-3.01-2.45-5.46-5.46-5.46z" id="path4947"/></g><path class="cls-2" d="M124.31 90.19V81.5h-17.38v8.69c0 4.8 3.89 8.69 8.69 8.69 4.8 0 8.69-3.89 8.69-8.69z" id="path4951"/><rect class="cls-2" x="-111.66" y="-79.68" width="4.85" height="17.22" rx="2.43" ry="2.43" transform="scale(-1)" id="rect4953"/><rect class="cls-2" x="-117.98" y="-79.68" width="4.85" height="7.02" rx="2.43" ry="2.43" transform="scale(-1)" id="rect4955"/><rect class="cls-2" x="-124.3" y="-79.68" width="4.85" height="7.02" rx="2.43" ry="2.43" transform="scale(-1)" id="rect4957"/><path class="cls-1" d="M23.22 129.07v-15.22H5.14v15.22l3.38 21.42h11.32z" id="path4959"/><path d="M21.34 152.24H7.02l-3.63-23.17V112.1h21.58l-.02 17.24zm-11.32-3.5h8.33l3.13-19.81V115.6H6.89v13.33zm13.21-19.67z" id="path4961"/><g id="g4967" transform="translate(0 -.22)"><circle class="cls-1" cx="14.43" cy="164.62" r="7.81" id="circle4963"/><path class="cls-10" d="M14.43 174.18c-5.27 0-9.56-4.29-9.56-9.55 0-5.26 4.29-9.55 9.56-9.55 5.27 0 9.55 4.29 9.55 9.55 0 5.26-4.29 9.55-9.55 9.55zm0-15.62c-3.34 0-6.07 2.72-6.07 6.07s2.72 6.07 6.07 6.07 6.07-2.72 6.07-6.07-2.72-6.07-6.07-6.07z" id="path4965"/></g></svg>