<svg version="1.1" viewBox="0 0 175 248.7" xmlns="http://www.w3.org/2000/svg"><defs><clipPath clipPathUnits="userSpaceOnUse" id="a"><path d="M0 0h1056v1865H0Z"/></clipPath><clipPath clipPathUnits="userSpaceOnUse" id="b"><path d="m1045.86 749.77.56 1115.47H3.73V750.352c0-284.282 233.418-514.743 521.36-514.743 287.937 0 521.36 230.461 521.36 514.743z"/></clipPath><clipPath clipPathUnits="userSpaceOnUse" id="c"><path d="M0 0h1056v1865H0Z"/></clipPath><clipPath clipPathUnits="userSpaceOnUse" id="d"><path d="m1045.86 749.77.56 1115.47H3.73V750.352c0-284.282 233.418-514.743 521.36-514.743 287.937 0 521.36 230.461 521.36 514.743z"/></clipPath><clipPath clipPathUnits="userSpaceOnUse" id="e"><path d="M828.102-83.488H529.77V738.43h298.332z"/></clipPath><clipPath clipPathUnits="userSpaceOnUse" id="f"><path d="M0 0h1056v1865H0Z"/></clipPath><clipPath clipPathUnits="userSpaceOnUse" id="g"><path d="m1045.86 749.77.56 1115.47H3.73V750.352c0-284.282 233.418-514.743 521.36-514.743 287.937 0 521.36 230.461 521.36 514.743z"/></clipPath><clipPath clipPathUnits="userSpaceOnUse" id="h"><path d="M0 0h1056v1865H0Z"/></clipPath><clipPath clipPathUnits="userSpaceOnUse" id="i"><path d="m1045.86 749.77.56 1115.47H3.73V750.352c0-284.282 233.418-514.743 521.36-514.743 287.937 0 521.36 230.461 521.36 514.743z"/></clipPath><clipPath clipPathUnits="userSpaceOnUse" id="j"><path d="M264.859 1336.85c-45.113 0-81.671-36.56-81.671-81.67V850.012c0-45.114 36.558-81.672 81.671-81.672h522.68c45.098 0 81.668 36.558 81.668 81.672v405.168c0 45.11-36.57 81.67-81.668 81.67z"/></clipPath><clipPath clipPathUnits="userSpaceOnUse" id="k"><path d="M0 0h1056v1865H0Z"/></clipPath><clipPath clipPathUnits="userSpaceOnUse" id="l"><path d="m1045.86 749.77.56 1115.47H3.73V750.352c0-284.282 233.418-514.743 521.36-514.743 287.937 0 521.36 230.461 521.36 514.743z"/></clipPath></defs><path d="M64.545 23.506c28.794 0 52.136 23.342 52.136 52.136 0 28.794-23.342 52.136-52.136 52.136-28.794 0-52.136-23.342-52.136-52.136 0-28.794 23.342-52.136 52.136-52.136" style="fill:#d07435;fill-opacity:1;fill-rule:nonzero;stroke:none;stroke-width:.1" transform="matrix(1.33333 0 0 -1.33333 -7.245 248.667)"/><path d="M113.269 33.184c-.656 0-1.298.322-1.68.913l-17.02 26.3a2 2 0 0 0 3.358 2.174l17.019-26.3a2 2 0 0 0-1.677-3.087" style="fill:#0a9ea0;fill-opacity:1;fill-rule:nonzero;stroke:none;stroke-width:.1" transform="matrix(1.33333 0 0 -1.33333 -7.245 248.667)"/><path d="M89.539 17.828a2 2 0 0 0-1.09 3.679l23.731 15.355a2 2 0 0 0 2.174-3.357L90.624 18.15a1.996 1.996 0 0 0-1.085-.32" style="fill:#0a9ea0;fill-opacity:1;fill-rule:nonzero;stroke:none;stroke-width:.1" transform="matrix(1.33333 0 0 -1.33333 -7.245 248.667)"/><path d="M112.57 39.49c-.031-.004-.062-.01-.092-.015a4.987 4.987 0 0 1-.224-.047l-.036-.009a4.32 4.32 0 0 1-1.321-.572 4.34 4.34 0 0 1-1.064-.97l-.022-.03-.085-.115-.05-.07-.052-.078a2.923 2.923 0 0 1-.073-.114l-.022-.037a4.353 4.353 0 0 1-.594-2.769l.005-.044.02-.133.015-.093.017-.084.03-.139.01-.035a4.328 4.328 0 0 1 1.544-2.386l.027-.022a4.51 4.51 0 0 1 .115-.086l.07-.049.078-.052.114-.073.038-.023a4.373 4.373 0 0 1 1.335-.528 4.312 4.312 0 0 1 1.434-.064c.014 0 .029.003.043.004l.134.02.092.016a3.535 3.535 0 0 1 .259.056 4.34 4.34 0 0 1 2.385 1.544l.024.028c.029.038.056.076.084.115l.05.07.052.077.073.114.023.039a4.354 4.354 0 0 1 .592 2.77l-.004.04-.02.137-.015.089c-.006.03-.012.058-.02.087-.008.046-.017.092-.028.137a4.331 4.331 0 0 1-1.552 2.421l-.03.023c-.037.03-.075.056-.113.084-.023.017-.047.035-.071.051a5.01 5.01 0 0 0-.076.051c-.04.025-.076.05-.116.074l-.037.022c-.402.242-.85.425-1.335.528a4.316 4.316 0 0 1-1.433.066l-.044-.006a1.82 1.82 0 0 1-.134-.02" style="fill:#67c1be;fill-opacity:1;fill-rule:nonzero;stroke:none;stroke-width:.1" transform="matrix(1.33333 0 0 -1.33333 -7.245 248.667)"/><g clip-path="url(#a)" transform="matrix(.13333 0 0 -.13333 8.755 248.667)"><g clip-path="url(#b)"><path d="M378.441 937.344V451.891c0-36.082 29.25-65.332 65.329-65.332h170.91c36.082 0 65.332 29.25 65.332 65.332v485.453" style="fill:#0a9ea0;fill-opacity:1;fill-rule:nonzero;stroke:none"/><path d="M813.613 611.699V13.731c0-53.692-43.523-97.22-97.215-97.22h-372.41c-53.691 0-97.215 43.528-97.215 97.22v597.968c0 53.692 43.524 97.211 97.215 97.211h372.41c53.692 0 97.215-43.519 97.215-97.211" style="fill:#67c1be;fill-opacity:1;fill-rule:nonzero;stroke:none"/></g></g><g clip-path="url(#c)" transform="matrix(.13333 0 0 -.13333 8.755 248.667)"><g clip-path="url(#d)"><g clip-path="url(#e)"><path d="M813.188 614.66V13.73c0-53.69-43.524-97.218-97.211-97.218H343.563c-53.688 0-97.211 43.527-97.211 97.219V614.66c0 53.692 43.523 97.211 97.211 97.211h372.414c53.687 0 97.211-43.519 97.211-97.211" style="fill:#0a9ea0;fill-opacity:1;fill-rule:nonzero;stroke:none"/></g></g></g><g clip-path="url(#f)" transform="matrix(.13333 0 0 -.13333 8.755 248.667)"><g clip-path="url(#g)"><path d="M897.668 641.41v-65.789c0-38.422-31.145-69.57-69.566-69.57H691.789c-38.422 0-69.566 31.148-69.566 69.57v65.789c0 38.418 31.144 69.559 69.566 69.559h136.313c38.421 0 69.566-31.141 69.566-69.559" style="fill:#0a9ea0;fill-opacity:1;fill-rule:nonzero;stroke:none"/><path d="M321.449 1469.85c22.125-18.25 46.406-36.32 72.211-53.72 2.176-31.11 5.676-61.16 10.422-89.39-20.91-6.87-40.953-12.33-59.609-16.24-60.032-12.56-102.657-8.31-114.047 11.39-11.367 19.71 6.258 58.76 47.16 104.47 12.727 14.21 27.477 28.84 43.863 43.49zm0 44.75c-16.347 14.6-31.097 29.23-43.863 43.5-40.902 45.7-58.535 84.75-47.16 104.45 7.058 12.23 26.156 18.51 53.988 18.51 17.008 0 37.285-2.35 60.059-7.11 18.672-3.91 38.715-9.38 59.609-16.25-4.746-28.23-8.246-58.28-10.422-89.39-25.722-17.33-50-35.39-72.211-53.71zm70.094-55.68c-15.371 10.96-30.09 22.14-43.824 33.3 13.715 11.16 28.429 22.34 43.824 33.31-.332-11.21-.5-22.39-.5-33.31 0-10.92.168-22.1.5-33.3zm133.91 373.96c22.742 0 47.742-34.79 66.887-93.06 5.945-18.12 11.238-38.21 15.738-59.74-26.875-10.04-54.656-22.03-82.625-35.68-27.988 13.66-55.769 25.65-82.629 35.68 4.477 21.45 9.762 41.54 15.731 59.74 19.14 58.27 44.148 93.06 66.898 93.06zm0-454.89a1081.638 1081.638 0 0 0-50.219 27.25 1102.498 1102.498 0 0 0-48.714 29.87c-.993 18.7-1.497 37.91-1.497 57.11 0 19.21.504 38.42 1.497 57.12a1102.597 1102.597 0 0 0 48.714 29.86 1089.071 1089.071 0 0 0 50.219 27.25c16.777-8.54 33.66-17.7 50.203-27.25a1075.057 1075.057 0 0 0 48.711-29.86c1.008-18.79 1.516-38 1.516-57.12 0-19.12-.508-38.33-1.516-57.11a1077.149 1077.149 0 0 0-48.711-29.87 1082.664 1082.664 0 0 0-50.203-27.25zm0-226.43c-22.75 0-47.758 34.8-66.898 93.07-5.969 18.19-11.254 38.28-15.731 59.73 26.809 10.02 54.586 22.01 82.629 35.69 28.02-13.67 55.801-25.67 82.625-35.69-4.5-21.53-9.793-41.62-15.738-59.73-19.145-58.27-44.145-93.07-66.887-93.07zm67.199 457.07a1129.428 1129.428 0 0 1-29.093 16.22c17.168 7.83 34.211 14.97 50.754 21.29 2.8-17.51 5.125-35.84 6.929-54.6a1157.266 1157.266 0 0 1-28.59 17.09zm-163-17.09c1.797 18.74 4.125 37.07 6.938 54.6 16.594-6.34 33.625-13.48 50.75-21.29a1159.687 1159.687 0 0 1-29.098-16.22 1183.507 1183.507 0 0 1-28.59-17.09zm28.59-215.71c9.442-5.46 19.211-10.91 29.098-16.22-17.18-7.84-34.215-14.99-50.75-21.31-2.813 17.53-5.141 35.86-6.938 54.6 9.414-5.81 19.016-11.55 28.59-17.07zm163 17.07c-1.804-18.76-4.129-37.08-6.929-54.6-16.489 6.3-33.528 13.45-50.754 21.31 9.941 5.35 19.707 10.79 29.093 16.21 9.508 5.49 19.11 11.23 28.59 17.08zm36.008 23.23c25.852 17.44 50.129 35.51 72.207 53.72 16.387-14.65 31.145-29.28 43.859-43.49 40.899-45.72 58.524-84.77 47.149-104.47-11.203-19.41-54.914-23.76-114.043-11.39-18.664 3.91-38.711 9.37-59.609 16.24 4.753 28.3 8.269 58.36 10.437 89.39zm72.207 98.47c-22.168 18.28-46.445 36.34-72.207 53.71-2.168 31.03-5.684 61.09-10.437 89.39 20.886 6.87 40.937 12.34 59.609 16.25 22.332 4.67 42.41 7.04 59.676 7.04 28.203 0 47.511-6.55 54.367-18.44 11.375-19.69-6.25-58.74-47.149-104.45-12.765-14.26-27.511-28.89-43.859-43.5zm-70.098 10.93c15.364-10.96 30.079-22.14 43.821-33.31-13.762-11.18-28.481-22.36-43.821-33.3.332 11.06.5 22.23.5 33.3 0 11.07-.168 22.25-.5 33.31zm139.278-76.52c-12.664 14.15-27.215 28.68-43.282 43.21 16.067 14.53 30.618 29.06 43.282 43.21 67.558 75.49 65.156 120.04 51.25 144.11-13.899 24.07-51.309 48.41-150.41 27.66-18.622-3.9-38.477-9.23-59.071-15.87-4.562 21.21-9.875 41.08-15.793 59.1-31.59 96.23-71.355 116.43-99.16 116.43-27.801 0-67.574-20.2-99.18-116.44-5.949-18.16-11.253-38.02-15.781-59.09-20.574 6.63-40.433 11.97-59.058 15.87-99.133 20.75-136.524-3.58-150.422-27.66-13.907-24.08-16.305-68.62 51.25-144.11 12.644-14.13 27.195-28.66 43.273-43.21-16.078-14.55-30.629-29.08-43.273-43.21-67.555-75.49-65.157-120.03-51.25-144.11 9.347-16.2 31.465-35.52 83.687-35.52 19.352 0 41.805 2.65 66.735 7.87 18.535 3.87 38.39 9.2 59.058 15.87 4.531-21.09 9.84-40.96 15.785-59.09 31.598-96.24 71.375-116.44 99.176-116.44 27.805 0 67.578 20.2 99.16 116.44 5.918 17.99 11.223 37.86 15.793 59.09 20.684-6.67 40.535-12 59.071-15.87 24.921-5.22 47.375-7.87 66.726-7.87 52.219 0 74.328 19.32 83.695 35.52 13.895 24.08 16.29 68.62-51.261 144.11" style="fill:#67c1be;fill-opacity:1;fill-rule:nonzero;stroke:none"/><path d="M565.395 1482.86c.128.29.25.57.367.86.109.26.211.53.32.8.172.44.34.88.5 1.33.039.12.082.23.121.35a43.379 43.379 0 0 1 2.379 14.2c0 4.98-.84 9.75-2.379 14.21-.039.12-.082.23-.121.34-.16.45-.328.9-.5 1.34l-.32.8c-.117.29-.239.57-.367.86-.18.41-.364.82-.563 1.23-.059.13-.129.26-.187.39a43.246 43.246 0 0 1-8.34 11.69c-3.5 3.5-7.461 6.27-11.684 8.34-.137.06-.269.13-.398.19-.41.19-.821.38-1.231.56-.277.12-.57.25-.859.37-.258.11-.531.21-.801.32-.437.17-.879.34-1.328.5-.121.04-.231.08-.352.11a43.429 43.429 0 0 1-28.41 0c-.121-.03-.23-.07-.34-.11-.449-.16-.898-.33-1.339-.5-.27-.11-.532-.21-.801-.32-.289-.12-.571-.25-.86-.37-.41-.18-.82-.37-1.23-.56-.129-.06-.258-.13-.391-.19a43.75 43.75 0 0 1-11.687-8.34c-3.5-3.5-6.27-7.46-8.332-11.69-.071-.13-.129-.26-.199-.39-.192-.41-.379-.82-.559-1.23-.121-.29-.25-.57-.371-.86-.11-.27-.211-.53-.309-.8-.179-.44-.351-.89-.511-1.34-.04-.11-.071-.22-.11-.34a43.445 43.445 0 0 1-2.39-14.21c0-4.97.851-9.75 2.39-14.2.039-.12.07-.23.11-.35.16-.45.332-.89.511-1.33.098-.27.199-.54.309-.8.121-.29.25-.57.371-.86.18-.41.367-.82.559-1.23.07-.13.128-.26.199-.4a43.477 43.477 0 0 1 20.031-20.02c.121-.06.25-.13.379-.19.41-.2.832-.38 1.25-.57.269-.12.551-.24.832-.36.277-.11.551-.22.828-.32.43-.17.871-.34 1.313-.5.117-.04.238-.08.367-.12a43.317 43.317 0 0 1 14.191-2.38c4.961 0 9.738.84 14.192 2.38l.359.12c.449.16.879.33 1.32.5.27.1.551.21.821.32.277.12.558.24.839.36.418.19.829.37 1.25.57.129.06.25.13.379.19a43.317 43.317 0 0 1 11.692 8.34 43.355 43.355 0 0 1 8.34 11.68c.058.14.128.27.187.4.199.41.383.82.563 1.23" style="fill:#0a9ea0;fill-opacity:1;fill-rule:nonzero;stroke:none"/><path d="M525.449 1266.31v257.81" style="fill:none;stroke:#0a9ea0;stroke-width:34;stroke-linecap:butt;stroke-linejoin:miter;stroke-miterlimit:4;stroke-dasharray:none;stroke-opacity:1"/><path d="M374.664 885.547c0-36.086 29.25-65.348 65.328-65.348h170.91c36.082 0 65.332 29.262 65.332 65.348v485.443c0 36.08-29.25 65.33-65.332 65.33h-170.91c-36.078 0-65.328-29.25-65.328-65.33V885.547" style="fill:#0a9ea0;fill-opacity:1;fill-rule:nonzero;stroke:none"/><path d="M100.664 1171.47c-36.078 0-65.34-29.25-65.34-65.33v-65.34c0-36.08 29.262-65.343 65.34-65.343h857.133c36.078 0 65.333 29.263 65.333 65.343v65.34c0 36.08-29.255 65.33-65.333 65.33H100.664" style="fill:#0a9ea0;fill-opacity:1;fill-rule:nonzero;stroke:none"/><path d="M264.855 1336.85c-45.097 0-81.667-36.56-81.667-81.67V850.012c0-45.102 36.57-81.672 81.667-81.672h522.68c45.113 0 81.672 36.57 81.672 81.672v405.168c0 45.11-36.559 81.67-81.672 81.67h-522.68" style="fill:#67c1be;fill-opacity:1;fill-rule:nonzero;stroke:none"/></g></g><g clip-path="url(#h)" transform="matrix(.13333 0 0 -.13333 8.755 248.667)"><g clip-path="url(#i)"><g clip-path="url(#j)"><path d="M526.199 524.238h500.221v845.272H526.199V524.238" style="fill:#0a9ea0;fill-opacity:1;fill-rule:nonzero;stroke:none"/></g></g></g><g clip-path="url(#k)" transform="matrix(.13333 0 0 -.13333 8.755 248.667)"><g clip-path="url(#l)"><path d="M264.258 822.719c13.25 0 23.988 10.742 23.988 23.992s-10.738 23.992-23.988 23.992-23.988-10.742-23.988-23.992 10.738-23.992 23.988-23.992M332.934 822.719c13.25 0 23.992 10.742 23.992 23.992s-10.742 23.992-23.992 23.992-23.989-10.742-23.989-23.992 10.739-23.992 23.989-23.992M734.102 822.719c13.25 0 23.992 10.742 23.992 23.992s-10.742 23.992-23.992 23.992-23.989-10.742-23.989-23.992 10.739-23.992 23.989-23.992M802.777 822.719c13.25 0 23.993 10.742 23.993 23.992s-10.743 23.992-23.993 23.992c-13.25 0-23.988-10.742-23.988-23.992s10.738-23.992 23.988-23.992M458.465 1221.87c13.25 0 23.988 10.74 23.988 23.99 0 13.25-10.738 23.99-23.988 23.99s-23.992-10.74-23.992-23.99c0-13.25 10.742-23.99 23.992-23.99M527.141 1221.87c13.25 0 23.988 10.74 23.988 23.99 0 13.25-10.738 23.99-23.988 23.99s-23.993-10.74-23.993-23.99c0-13.25 10.743-23.99 23.993-23.99M595.816 1221.87c13.25 0 23.989 10.74 23.989 23.99 0 13.25-10.739 23.99-23.989 23.99s-23.992-10.74-23.992-23.99c0-13.25 10.742-23.99 23.992-23.99" style="fill:#171717;fill-opacity:1;fill-rule:nonzero;stroke:none"/><path d="M359.109 506.051H222.797c-38.422 0-69.57 31.148-69.57 69.57v65.789c0 38.418 31.148 69.559 69.57 69.559h136.312c38.418 0 69.567-31.141 69.567-69.559v-65.789" style="fill:#4bbfb3;fill-opacity:1;fill-rule:nonzero;stroke:none"/><path d="M682.84 506.051V280.07c0-38.422-31.149-69.558-69.567-69.558H454.086c-38.422 0-69.566 31.136-69.566 69.558v225.981c0 38.418 31.144 69.57 69.566 69.57h159.187c38.418 0 69.567-31.152 69.567-69.57" style="fill:#67c1be;fill-opacity:1;fill-rule:nonzero;stroke:none"/><path d="M454.086 560.621c-30.09 0-54.566-24.48-54.566-54.57V280.07c0-30.09 24.476-54.558 54.566-54.558h159.191c30.086 0 54.559 24.468 54.559 54.558v225.981c0 30.09-24.473 54.57-54.559 54.57zm159.191-365.109H454.086c-46.633 0-84.566 37.929-84.566 84.558v225.981c0 46.64 37.933 84.57 84.566 84.57h159.191c46.629 0 84.559-37.93 84.559-84.57V280.07c0-46.629-37.93-84.558-84.559-84.558" style="fill:#0a9ea0;fill-opacity:1;fill-rule:nonzero;stroke:none"/><path d="M694.637 953.023c48.879 0 88.5 39.618 88.5 88.497 0 48.88-39.621 88.5-88.5 88.5s-88.5-39.62-88.5-88.5c0-48.879 39.621-88.497 88.5-88.497M346.223 953.023c48.879 0 88.5 39.618 88.5 88.497 0 48.88-39.621 88.5-88.5 88.5s-88.5-39.62-88.5-88.5c0-48.879 39.621-88.497 88.5-88.497" style="fill:#fff;fill-opacity:1;fill-rule:nonzero;stroke:none"/><path d="M684.742 981.297c12.953 0 23.442 10.5 23.442 23.433 0 12.96-10.489 23.45-23.442 23.45-12.949 0-23.437-10.49-23.437-23.45 0-12.933 10.488-23.433 23.437-23.433M336.328 974.602c12.953 0 23.442 10.5 23.442 23.441 0 12.947-10.489 23.437-23.442 23.437-12.949 0-23.437-10.49-23.437-23.437 0-12.941 10.488-23.441 23.437-23.441" style="fill:#171717;fill-opacity:1;fill-rule:nonzero;stroke:none"/><path d="M432.855 1099.89c-19.468 29.91-50.949 49.32-86.48 49.17-35.996-.15-67.645-20.36-86.785-51.09l173.265 1.92" style="fill:#0a9ea0;fill-opacity:1;fill-rule:nonzero;stroke:none"/><path d="M413.68 1099.81c-16.696 18.07-40.571 29.38-67.114 29.26-27.011-.11-51.183-12-67.753-30.76l134.867 1.5M627.199 1100.34c16.582 18.17 40.387 29.63 66.93 29.68 27.012.05 51.258-11.68 67.945-30.34l-134.875.66" style="fill:#67c1be;fill-opacity:1;fill-rule:nonzero;stroke:none"/><path d="M579.855 889.25c0-28.52-23.117-51.641-51.636-51.641-28.516 0-51.637 23.121-51.637 51.641h103.273" style="fill:#171717;fill-opacity:1;fill-rule:nonzero;stroke:none"/></g></g><path d="m15.19 68.409-1.711-52.104h40.925L53.72 68.56l-38.53-.151" style="fill:#fff;fill-opacity:1;fill-rule:nonzero;stroke:none;stroke-width:.1" transform="matrix(1.33333 0 0 -1.33333 -5.845 248.667)"/><path d="M46.005 52.374H21.832a1.83 1.83 0 0 0-1.848 1.848 1.83 1.83 0 0 0 1.848 1.848h24.173a1.83 1.83 0 0 0 1.848-1.848 1.83 1.83 0 0 0-1.848-1.848M46.005 42.764H21.832a1.83 1.83 0 0 0-1.848 1.848 1.83 1.83 0 0 0 1.848 1.848h24.173a1.83 1.83 0 0 0 1.848-1.848 1.83 1.83 0 0 0-1.848-1.848M46.005 33.154H21.832a1.83 1.83 0 0 0-1.848 1.848 1.83 1.83 0 0 0 1.848 1.848h24.173a1.83 1.83 0 0 0 1.848-1.848 1.83 1.83 0 0 0-1.848-1.848" style="fill:#040606;fill-opacity:1;fill-rule:nonzero;stroke:none;stroke-width:.1" transform="matrix(1.33333 0 0 -1.33333 -5.845 248.667)"/><path d="M49.554 14.448h-30.53c-3.845 0-7.024 3.075-7.024 6.793v43.117c0 3.719 3.179 6.793 7.023 6.793H49.48c3.844 0 7.023-3.074 7.023-6.793V21.24c.074-3.789-3.105-6.793-6.95-6.793m-30.53 53.128c-1.848 0-3.327-1.43-3.327-3.218V21.24c0-1.787 1.479-3.218 3.327-3.218H49.48c1.848 0 3.327 1.43 3.327 3.218v43.117c0 1.788-1.479 3.218-3.327 3.218H19.023" style="fill:#040606;fill-opacity:1;fill-rule:nonzero;stroke:none;stroke-width:.1" transform="matrix(1.33333 0 0 -1.33333 -5.845 248.667)"/><path d="M90.87 20.625A8.692 8.692 0 0 1 78.851 23.2l-.006-.004-7.3-4.723L80.988 3.88l7.298 4.722.008.005a8.691 8.691 0 0 1 2.575 12.018M71.27 15.536a2.426 2.426 0 0 0-.719-3.354l-10.38-6.717a2.426 2.426 0 0 0-2.635 4.073l10.38 6.717a2.426 2.426 0 0 0 3.354-.72M74.703 10.23a2.425 2.425 0 0 0-.719-3.354l-1.823-1.18a2.427 2.427 0 0 0-2.636 4.073l1.824 1.18a2.425 2.425 0 0 0 3.354-.719M78.136 4.924a2.425 2.425 0 0 0-.718-3.354L75.594.39a2.427 2.427 0 0 0-2.636 4.073l1.824 1.18a2.425 2.425 0 0 0 3.354-.72" style="fill:#67c1be;fill-opacity:1;fill-rule:nonzero;stroke:none;stroke-width:.1" transform="matrix(1.33333 0 0 -1.33333 -7.245 248.667)"/></svg>